<svg viewBox="0 0 974.2000122070312 400" xmlns="http://www.w3.org/2000/svg"><g><g><g><g><g><line x1="51.5625" y1="365" x2="46.5625" y2="365" style="visibility: inherit;" fill="rgb(0, 0, 0)" stroke="rgb(204, 204, 204)" stroke-width="1px"></line><line x1="51.5625" y1="334.5833333333334" x2="46.5625" y2="334.5833333333334" style="visibility: inherit;" fill="rgb(0, 0, 0)" stroke="rgb(204, 204, 204)" stroke-width="1px"></line><line x1="51.5625" y1="304.16666666666663" x2="46.5625" y2="304.16666666666663" style="visibility: inherit;" fill="rgb(0, 0, 0)" stroke="rgb(204, 204, 204)" stroke-width="1px"></line><line x1="51.5625" y1="273.75000000000006" x2="46.5625" y2="273.75000000000006" style="visibility: inherit;" fill="rgb(0, 0, 0)" stroke="rgb(204, 204, 204)" stroke-width="1px"></line><line x1="51.5625" y1="243.3333333333335" x2="46.5625" y2="243.3333333333335" style="visibility: inherit;" fill="rgb(0, 0, 0)" stroke="rgb(204, 204, 204)" stroke-width="1px"></line><line x1="51.5625" y1="212.91666666666669" x2="46.5625" y2="212.91666666666669" style="visibility: inherit;" fill="rgb(0, 0, 0)" stroke="rgb(204, 204, 204)" stroke-width="1px"></line><line x1="51.5625" y1="182.50000000000017" x2="46.5625" y2="182.50000000000017" style="visibility: inherit;" fill="rgb(0, 0, 0)" stroke="rgb(204, 204, 204)" stroke-width="1px"></line><line x1="51.5625" y1="152.08333333333331" x2="46.5625" y2="152.08333333333331" style="visibility: inherit;" fill="rgb(0, 0, 0)" stroke="rgb(204, 204, 204)" stroke-width="1px"></line><line x1="51.5625" y1="121.66666666666676" x2="46.5625" y2="121.66666666666676" style="visibility: inherit;" fill="rgb(0, 0, 0)" stroke="rgb(204, 204, 204)" stroke-width="1px"></line><line x1="51.5625" y1="91.2500000000002" x2="46.5625" y2="91.2500000000002" style="visibility: inherit;" fill="rgb(0, 0, 0)" stroke="rgb(204, 204, 204)" stroke-width="1px"></line><line x1="51.5625" y1="60.83333333333336" x2="46.5625" y2="60.83333333333336" style="visibility: inherit;" fill="rgb(0, 0, 0)" stroke="rgb(204, 204, 204)" stroke-width="1px"></line><line x1="51.5625" y1="30.416666666666842" x2="46.5625" y2="30.416666666666842" style="visibility: inherit;" fill="rgb(0, 0, 0)" stroke="rgb(204, 204, 204)" stroke-width="1px"></line><line x1="51.5625" y1="0" x2="46.5625" y2="0" style="visibility: inherit;" fill="rgb(0, 0, 0)" stroke="rgb(204, 204, 204)" stroke-width="1px"></line></g><g transform="translate(41.5625, 0)"><text x="0" y="365" dx="0em" dy="0.3em" style="text-anchor: end; visibility: hidden; font-family: Roboto, sans-serif; font-size: 12px; font-weight: 200;" fill="rgb(255, 255, 255)" stroke="none" stroke-width="1px">3.1</text><text x="0" y="334.5833333333334" dx="0em" dy="0.3em" style="text-anchor: end; visibility: inherit; font-family: Roboto, sans-serif; font-size: 12px; font-weight: 200;" fill="rgb(255, 255, 255)" stroke="none" stroke-width="1px">3.15</text><text x="0" y="304.16666666666663" dx="0em" dy="0.3em" style="text-anchor: end; visibility: inherit; font-family: Roboto, sans-serif; font-size: 12px; font-weight: 200;" fill="rgb(255, 255, 255)" stroke="none" stroke-width="1px">3.2</text><text x="0" y="273.75000000000006" dx="0em" dy="0.3em" style="text-anchor: end; visibility: inherit; font-family: Roboto, sans-serif; font-size: 12px; font-weight: 200;" fill="rgb(255, 255, 255)" stroke="none" stroke-width="1px">3.25</text><text x="0" y="243.3333333333335" dx="0em" dy="0.3em" style="text-anchor: end; visibility: inherit; font-family: Roboto, sans-serif; font-size: 12px; font-weight: 200;" fill="rgb(255, 255, 255)" stroke="none" stroke-width="1px">3.3</text><text x="0" y="212.91666666666669" dx="0em" dy="0.3em" style="text-anchor: end; visibility: inherit; font-family: Roboto, sans-serif; font-size: 12px; font-weight: 200;" fill="rgb(255, 255, 255)" stroke="none" stroke-width="1px">3.35</text><text x="0" y="182.50000000000017" dx="0em" dy="0.3em" style="text-anchor: end; visibility: inherit; font-family: Roboto, sans-serif; font-size: 12px; font-weight: 200;" fill="rgb(255, 255, 255)" stroke="none" stroke-width="1px">3.4</text><text x="0" y="152.08333333333331" dx="0em" dy="0.3em" style="text-anchor: end; visibility: inherit; font-family: Roboto, sans-serif; font-size: 12px; font-weight: 200;" fill="rgb(255, 255, 255)" stroke="none" stroke-width="1px">3.45</text><text x="0" y="121.66666666666676" dx="0em" dy="0.3em" style="text-anchor: end; visibility: inherit; font-family: Roboto, sans-serif; font-size: 12px; font-weight: 200;" fill="rgb(255, 255, 255)" stroke="none" stroke-width="1px">3.5</text><text x="0" y="91.2500000000002" dx="0em" dy="0.3em" style="text-anchor: end; visibility: inherit; font-family: Roboto, sans-serif; font-size: 12px; font-weight: 200;" fill="rgb(255, 255, 255)" stroke="none" stroke-width="1px">3.55</text><text x="0" y="60.83333333333336" dx="0em" dy="0.3em" style="text-anchor: end; visibility: inherit; font-family: Roboto, sans-serif; font-size: 12px; font-weight: 200;" fill="rgb(255, 255, 255)" stroke="none" stroke-width="1px">3.6</text><text x="0" y="30.416666666666842" dx="0em" dy="0.3em" style="text-anchor: end; visibility: inherit; font-family: Roboto, sans-serif; font-size: 12px; font-weight: 200;" fill="rgb(255, 255, 255)" stroke="none" stroke-width="1px">3.65</text><text x="0" y="0" dx="0em" dy="0.3em" style="text-anchor: end; visibility: hidden; font-family: Roboto, sans-serif; font-size: 12px; font-weight: 200;" fill="rgb(255, 255, 255)" stroke="none" stroke-width="1px">3.7</text></g><line x1="51.5625" y1="0" x2="51.5625" y2="365" fill="rgb(0, 0, 0)" stroke="rgb(204, 204, 204)" stroke-width="1px"></line></g></g><g transform="translate(51, 0)" clip-path="url(#clip_0)"><clipPath id="clip_0"><rect width="922" height="365"></rect></clipPath><g><g><g><line x1="0" y1="0" x2="0" y2="365" fill="rgb(0, 0, 0)" stroke="rgb(189, 189, 189)" stroke-width="1px" opacity="0.25"></line><line x1="123.01833333333333" y1="0" x2="123.01833333333333" y2="365" fill="rgb(0, 0, 0)" stroke="rgb(189, 189, 189)" stroke-width="1px" opacity="0.25"></line><line x1="246.03666666666666" y1="0" x2="246.03666666666666" y2="365" fill="rgb(0, 0, 0)" stroke="rgb(189, 189, 189)" stroke-width="1px" opacity="0.25"></line><line x1="369.05500000000006" y1="0" x2="369.05500000000006" y2="365" fill="rgb(0, 0, 0)" stroke="rgb(189, 189, 189)" stroke-width="1px" opacity="0.25"></line><line x1="492.0733333333333" y1="0" x2="492.0733333333333" y2="365" fill="rgb(0, 0, 0)" stroke="rgb(189, 189, 189)" stroke-width="1px" opacity="0.25"></line><line x1="615.0916666666667" y1="0" x2="615.0916666666667" y2="365" fill="rgb(0, 0, 0)" stroke="rgb(189, 189, 189)" stroke-width="1px" opacity="0.25"></line><line x1="738.1100000000001" y1="0" x2="738.1100000000001" y2="365" fill="rgb(0, 0, 0)" stroke="rgb(189, 189, 189)" stroke-width="1px" opacity="0.25"></line><line x1="861.1283333333334" y1="0" x2="861.1283333333334" y2="365" fill="rgb(0, 0, 0)" stroke="rgb(189, 189, 189)" stroke-width="1px" opacity="0.25"></line></g><g><line x1="0" y1="365" x2="922.6375" y2="365" fill="rgb(0, 0, 0)" stroke="rgb(189, 189, 189)" stroke-width="1px" opacity="0.25"></line><line x1="0" y1="334.5833333333334" x2="922.6375" y2="334.5833333333334" fill="rgb(0, 0, 0)" stroke="rgb(189, 189, 189)" stroke-width="1px" opacity="0.25"></line><line x1="0" y1="304.16666666666663" x2="922.6375" y2="304.16666666666663" fill="rgb(0, 0, 0)" stroke="rgb(189, 189, 189)" stroke-width="1px" opacity="0.25"></line><line x1="0" y1="273.75000000000006" x2="922.6375" y2="273.75000000000006" fill="rgb(0, 0, 0)" stroke="rgb(189, 189, 189)" stroke-width="1px" opacity="0.25"></line><line x1="0" y1="243.3333333333335" x2="922.6375" y2="243.3333333333335" fill="rgb(0, 0, 0)" stroke="rgb(189, 189, 189)" stroke-width="1px" opacity="0.25"></line><line x1="0" y1="212.91666666666669" x2="922.6375" y2="212.91666666666669" fill="rgb(0, 0, 0)" stroke="rgb(189, 189, 189)" stroke-width="1px" opacity="0.25"></line><line x1="0" y1="182.50000000000017" x2="922.6375" y2="182.50000000000017" fill="rgb(0, 0, 0)" stroke="rgb(189, 189, 189)" stroke-width="1px" opacity="0.25"></line><line x1="0" y1="152.08333333333331" x2="922.6375" y2="152.08333333333331" fill="rgb(0, 0, 0)" stroke="rgb(189, 189, 189)" stroke-width="1px" opacity="0.25"></line><line x1="0" y1="121.66666666666676" x2="922.6375" y2="121.66666666666676" fill="rgb(0, 0, 0)" stroke="rgb(189, 189, 189)" stroke-width="1px" opacity="0.25"></line><line x1="0" y1="91.2500000000002" x2="922.6375" y2="91.2500000000002" fill="rgb(0, 0, 0)" stroke="rgb(189, 189, 189)" stroke-width="1px" opacity="0.25"></line><line x1="0" y1="60.83333333333336" x2="922.6375" y2="60.83333333333336" fill="rgb(0, 0, 0)" stroke="rgb(189, 189, 189)" stroke-width="1px" opacity="0.25"></line><line x1="0" y1="30.416666666666842" x2="922.6375" y2="30.416666666666842" fill="rgb(0, 0, 0)" stroke="rgb(189, 189, 189)" stroke-width="1px" opacity="0.25"></line><line x1="0" y1="0" x2="922.6375" y2="0" fill="rgb(0, 0, 0)" stroke="rgb(189, 189, 189)" stroke-width="1px" opacity="0.25"></line></g></g></g><g><g><line x1="0" y1="2250.833333333333" x2="922.6375" y2="2250.833333333333" fill="rgb(0, 0, 0)" stroke="rgb(153, 153, 153)" stroke-width="1.5px"></line></g></g><g><g><line x1="-59155487.64958333" y1="0" x2="-59155487.64958333" y2="365" fill="rgb(0, 0, 0)" stroke="rgb(153, 153, 153)" stroke-width="1.5px"></line></g></g><g><g><g><g><g><path stroke="rgb(255, 112, 67)" stroke-width="2px" d="M48.078503437962965,131.73447728157052L49.74266811388889,167.16145157814006L50.68228897824074,249.74547910852502L50.80264191435185,201.52229282347574L52.29936496990741,207.28617549383762L53.11319958842593,203.5402340407528L53.233860070370376,176.04315742859072L54.87912776342593,169.4608840077123L54.99948069953704,159.33204357539967L55.4674629425926,148.35205409578353L55.92772236805556,160.14121926098338L56.63982765925926,166.13794307295572L57.23000811342593,179.87954745321565L58.04011801018518,179.04457413935614L59.230593759259264,170.1531562822153L59.70893004537038,163.26213817834335L60.187403018518516,197.29147215858677L61.837352242592594,171.7019217900458L62.31005018842593,176.3844162290084L62.42975386111112,167.93547150305412L62.66468470601853,177.3903751059145L62.9029985550926,175.51635355872452L63.62511617175927,155.94373527227918L64.57563782731482,143.61094215836553L64.93215179166667,148.89125516773734L66.09529013333334,177.46194871685714L66.45737409444445,150.89518247380437L66.70734051342593,72.39825318829051L66.93813657546296,141.24740858837063L67.88305406250001,149.5674701246951L68.47754015833334,157.50749000210027L70.13688661620371,73.11149129117221L71.54968383101853,121.19933204311955L71.78335032083334,174.82365060383475L72.72666173518519,158.47822404737605L74.62329688935185,159.82102333998085L76.39349653425926,179.12583183967635L76.52662970833333,73.5308008548081L78.06114672962964,115.5275649265187L78.17924432962963,142.32539210935803L79.58165332962963,179.20357743411947L79.9572009638889,84.28856058029255L80.91551378055556,126.08638909538202L81.2732921,127.42857829999112L81.85404114861112,190.84933569457445L82.4387541212963,159.89266647956225L83.9880333425926,162.49072750853134L84.92847432916668,172.09395003606556L85.16870179675927,163.67691369218025L85.28837129768519,159.9896426877819L85.63063563842593,232.15971238736213L88.33324590648148,227.3099027116391L88.44683283425927,241.9553546531828L91.3095036226852,238.35580311757934L92.01446701620371,222.5759626381055L92.13041179537036,222.37348991349052L92.24741589907407,215.41329199700252L93.68577358981481,260.1405534821532L94.63028101574075,244.0030304001429L95.08890019675927,218.88702627459986L95.3285809162037,202.48603325946976L95.90632285000001,248.87340916314125L96.49083079212963,215.13739093016605L96.74079721111111,179.09505357665373L98.02886750462963,179.28324566477096L98.74592770092593,162.46640093839272L98.8644695337963,168.76477238167996L100.5078577800926,156.99090971527312L100.6301585064815,140.18166502700942L100.85220659814816,189.3547453108627L101.68258034814815,179.64612819492012L102.38832969212963,207.26827997608498L103.45141312268518,182.63489170060654L103.9354560925926,181.06514900835046L104.28493067453704,171.02275099304345L104.52396213055556,162.67072911628327L104.99218357592594,157.3180966113104L105.1116480462963,158.5297110399063L105.70941463101853,155.96785672826294L105.82925499074075,156.275221000052L106.53664457916668,171.11108511086476L109.24212527499999,163.0830176436672L109.48341206712963,161.58481993856637L109.60236396111112,164.56700133432528L109.7213158550926,165.81839335252576L110.07492521990741,183.61583113048317L110.32619016574075,79.6934128565023L111.9714578587963,123.20717847918057L112.07995319444446,215.79440313522778L112.31047588240742,239.6975386020228L112.54140863148149,228.7696285969029L112.75716911944446,230.52030936435943L113.22231510648149,206.5241689814493L113.45567405046297,178.07804906368452L114.17844093055557,186.20370438099022L114.6495328037037,186.07232886791283L115.3372394587963,264.53811946455653L115.57398140694445,220.23247645066604L116.02723562175926,193.8602659251279L117.9226405925926,192.8664917834193L118.61632730555556,177.7614991121048L119.09309169074074,205.1601206612121L119.33079044814815,195.76959773013192L121.34391712962963,218.15192034309618L121.46269816481482,198.45591813603346L122.39876516620372,194.72911487189532L122.51259129629629,220.72281708419882L123.09730426898147,198.71411595801874L123.21769137685185,178.0926978234076L124.1609344476852,113.68968015771836L124.85434778657408,187.79522327102254L124.97268458888888,184.344211821856L125.56013130231483,219.01694385514753L126.62611933240741,181.30095343772214L127.71052594074075,162.41995251765044L128.66384968055556,181.76084881975365L128.78300660509262,176.6199408727136L130.6760878962963,92.6043254588394L130.91088205416668,124.32073361402858L135.55024512175927,138.46105849778328L135.7788541912037,177.5151382051052L136.00937687916667,229.5173391995117L136.35683532731483,248.31588291907016L136.7088727912037,259.096426628731L136.8303192236111,206.04476733766165L138.26802765092592,187.9409773574004L140.59683304444445,219.75542955154543L141.88743204814816,239.68305849564692L142.00283007916667,238.1110162548184L142.69473986064816,263.7513361182984L143.40212944907407,239.43851990345166L145.2821229564815,263.46962604627845L145.3992979189815,238.35639282289654L145.63644992824075,218.64543941154193L147.05146830740742,192.96269400835502L148.59275133703704,213.05706523212064L149.5296042888889,209.34956913601732L149.88410211944446,192.93177186694575L151.53746851944445,186.91653557169528L152.1128184300926,212.6832099808142L152.5672686564815,204.9083640606931L153.1483594226852,199.52783916980403L154.9219079,182.05627354735367L156.21196015555557,172.15725703688992L156.6873234986111,176.9365011273972L160.10275666481482,164.8738970728211L160.33645732638888,161.93717454104592L161.5134010587963,195.11600606180616L162.3364620523148,179.82282197001018L163.9765014662037,149.94581625176914L165.87330747916667,165.5959026335486L166.22712187453706,170.55904755903163L167.6580984652778,178.14786559291414L168.25022670972226,166.79420419105526L168.60742410925926,172.3345430745799L168.8483691837963,152.16050688748277L170.12919506435185,190.24572013412734L170.9731008310185,188.54012146748016L171.4316174967593,216.53746749057515L171.6527771226852,256.6355286345533L172.70530147962964,225.83775661224038L176.3944504375,189.70135884583334L178.06886664120373,102.74988148868314L178.1841279851852,154.4700403268747L178.41741858564816,182.76996838583227L178.89578904351853,155.55163471420798L179.96317811574073,179.44035948427648L181.36473282175928,196.5696943269898L181.84402591712964,176.54944367011765L182.07174652083336,211.28720776319722L182.42569760324074,189.7074786191001L182.65850979907407,234.0190068502118L182.89214211712965,202.49338672273709L184.07294725833336,205.23752080825997L184.54643115462963,191.00385205404754L185.38500612685186,178.1850307173935L185.6194927388889,183.30691422943735L186.2114842962963,167.06562808707042L187.0458903138889,168.02738522423124L187.62793788935187,170.9631049728363L187.7476757337963,165.2427241859419L189.1444463935185,195.45768008575334L190.30225394074074,211.33096511728849L190.53469024722222,226.4048430258074L190.64537257546297,263.0078342517638L191.47666896296298,176.72431184612276L192.0667810736111,170.00525415199527L192.54412637870374,161.5031691804977L192.65723490185187,205.73594517005205L194.06661494074075,200.42399644748025L195.010507275,200.31876802382274L195.47104007453706,241.94986995023945L196.05421531805555,211.1109588302917L196.28285855925927,218.66298709855963L198.48949991342596,290.1054985198169L198.7208427236111,299.3155248287988L199.3129367962963,231.7199523840551L199.43301635833336,198.8582655346913L199.6529799726852,296.5077763730201L200.00286461574075,263.20461658242823L200.46838649212964,259.13843322358616L201.16713062546296,236.2423360063362L201.65052433194444,241.34035259765741L202.2396454615741,207.04544586111516L202.95017885185186,187.62834144931676L203.3044374800926,179.20482552032678L203.89472044953706,178.9338361182671L204.84332848657408,106.65354905280645L205.31107152731482,154.76534901710244L205.78247094629629,166.61738669068757L206.83420935277778,184.233013203886L207.67316021435187,154.20075015891413L208.00466045092594,173.3672710855929L208.13417141851852,96.67162525257231L209.17162602962964,104.52017911832016L210.33462768425926,140.94673662519762L212.12396351435186,163.91000701469L212.58880195555557,163.45202847410337L213.8852443300926,157.8539997980343L214.00757922824076,139.42237273724973L214.4807555787037,160.3639938187923L216.0168103291667,148.82359801246676L220.2898863092593,154.8084939629673L222.77154198194444,209.58791397675898L222.8935351625,172.11017852623272L224.05851877916666,192.00989742437423L224.9987547351852,199.62405836200364L225.1189368125,179.44878734518483L225.48108911712964,160.82730085076514L226.9975976212963,180.1065229003926L227.22938466435184,190.45446085683312L228.53478003981482,196.28043942303555L228.88343449953706,191.18815437546044L229.34984484166668,180.1384065285763L230.28785963333334,158.07437136185814L231.10924621064814,176.96847411640067L231.21466608796297,271.22755177407004L231.5685488268519,228.2444265341076L231.92762567314816,259.69912323486693L233.33379356666669,224.55823520699278L234.01917654212963,237.0572441014397L234.47608713518517,227.08630394097662L235.66581110555558,223.47267399920943L236.0218466652778,215.53674211518336L237.6631504342593,230.0354710643472L238.00811434398148,210.0957431450474L238.6183877925926,210.072360240717L238.98194113935185,182.3087960501309L240.03449966805556,199.87892202654265L241.3413302574074,184.65848333906413L241.9426507050926,181.8402450518091L242.17761572175928,216.60476962146836L244.96835495694444,202.62855505596212L245.91508354722222,184.07200973620388L246.1554135300926,169.6105634454314L246.51001387592592,177.8711136549765L247.20909972685186,181.04005386650877L247.32928180416667,167.99844612809227L248.15432475972224,176.0916306384338L249.10781935833333,212.4612752084693L249.57207687962966,206.71447687256898L250.0289191291667,218.9088008378458L250.85621742083336,253.12001786080086L251.09114826574077,248.66343578565375L251.80496214490745,124.88289849480924L252.86930993055557,136.60201845479585L253.80001196574077,216.63997652875926L254.0382574712963,200.93602658955808L254.37119292175927,266.96675921469046L254.71899308750002,216.99576750391205L254.83780829444444,200.20890093839242L255.66654180000003,215.93224789895245L256.25381765462964,209.68353255310245L257.0767761328704,187.59082927536141L258.12660092083337,189.66740306753616L258.58580102175927,192.7726760896368L260.2462751476852,126.30590006067308L261.31486023148153,145.309103276455L262.6251421685185,149.94720853137372L263.8063915425926,217.73579929332354L264.0379735550926,246.2445612791802L264.8684156486111,199.30969564380013L265.47786897500004,188.31390385783757L265.8280953356482,201.77100279901669L266.7809064990741,175.10286708061463L269.02575188009257,157.8772270245428L270.3228435180556,176.8850546417481L272.3233266486111,184.17310953167143L272.7987241634259,179.06388219213724L273.86286691851853,204.40072514225778L274.44409437175926,220.22098273600977L274.56420810555556,192.65756064990683L274.67803423564817,219.93130072557653L277.15808383564814,207.97688133281702L278.4580459013889,209.77215937830337L278.8090240407408,187.6239321155787L279.51111700648147,207.2799062842194L279.63105988148146,184.22208516482902L280.68163644814814,151.9637994489136L281.3860872652778,184.04816813395786L281.4991616166667,220.58934577580095L282.7820378027778,190.22142486736666L283.2366247162037,186.17836584825625L283.8312133273148,189.05651094622985L284.063478775,178.76120075846256L285.1268697513889,191.16703342555684L285.60168634629633,174.58429728642335L285.7181778736111,189.83511873898027L285.9528353444445,171.22052909225485L286.07161637962963,171.86331940466337L286.3106820074074,150.92052209043993L287.5915762314815,155.60821239748296L287.83115443564816,151.59974891701577L288.79141504259263,153.64443571622706L288.90804325694444,177.1388111388019L289.26435219074074,189.43731366844972L293.34712564351855,207.90833889992246L295.81460003611113,207.12725428472692L296.7462247087963,188.15593577065522L298.1641135157408,189.97508074823094L298.50736883750005,197.0714877405749L299.56416466435184,200.98646217737513L300.73106189953705,197.8708802907899L303.1118767106481,184.75180613493342L303.46316239583336,189.82801716026924L303.8036498050926,249.8287038038013L304.4998310564815,209.63829207598204L305.0849199185185,185.1459020466352L305.20130893055557,196.3852293942816L305.67137565092594,286.3374566825896L305.78814055231487,256.0656933660907L306.58386413842595,258.39417978181064L307.9890068791667,219.39193163744787L310.3679764152778,222.92900686124275L311.54321155972224,230.15977933799817L313.61292667453705,279.7768341390029L314.43448411064816,234.03299046880431L315.26103062361113,197.0341935554729L316.21001455,179.93543665406602L316.44576551712964,171.96824654418722L316.92194898240746,159.88828753120782L317.6401368467593,168.16958547445375L318.10224154722226,248.01392563668236L319.4075685791667,241.73927582395467L319.76138297453707,227.6828817353194L320.34937643611113,187.61394364588725L321.8505759921296,190.52022931746592L324.6849525638889,201.00503300292456L327.48980473564814,196.81175860561837L327.6028449152778,229.28823450881998L328.7868280300926,206.9216736535953L329.1536960375,179.48567392711234L329.74568759490745,172.85265908013412L330.6846933675926,190.29664062681195L331.84540551435185,182.53958890769326L333.02860267870375,182.9441662029432L333.8521762486111,194.16872346774792L337.3827340717593,185.03781241800039L337.8544752083334,202.78692247048411L337.9744522550926,180.37974072441696L338.44530492592594,187.85489610599603L342.29779489305554,204.53385352154848L342.7765070685185,178.31550057168994L342.8944679814815,182.82349309585203L343.4880656115741,187.9266364649637L346.4456997189815,195.91778289928249L347.3980324777778,189.8616001505906L347.74053602083336,188.17499622698148L350.06397644814814,310.94806709882954L350.9903728416667,333.54583922424314L351.56869569537037,303.58922479588813L351.8056426740741,254.23344881160497L352.1733308037037,212.63770042353926L352.4116446527778,193.74933619396305L352.5310066078704,181.51273110963763L353.8191110731482,167.8405568964752L353.9363885509259,180.61658847138136L354.0523333300926,198.47164687199304L354.28384699907406,234.63756912956381L354.5211356953704,225.19404765373324L355.10345664490745,265.34386275056505L355.3449826393519,199.85615562107273L356.27407860185184,217.19366433643975L359.4395795208334,199.1916436498782L359.5582580407408,189.1421920386208L360.83139527546297,236.91934496128061L360.94908281435187,219.4682618178736L362.1219942791667,242.30221662110955L362.241185375463,212.77193430972204L362.59643498472224,224.03136486160037L363.4120465347222,232.05918022601182L364.2310069171296,192.89101681277165L365.7633369458334,215.12337510485438L366.69420983981485,201.39470202544715L366.8085485462963,220.61347577662886L367.61869261481485,254.29708520784962L367.9760608731481,225.70435293643672L368.0932700074074,216.3020372875272L368.21191435555556,200.10287001655948L368.5788507064815,92.259556183774L370.77944365925924,132.39501793954278L371.6990398726852,146.72191142900877L371.8193244652778,147.3884156536902L372.18882369814816,63.94123016944601L373.0116113175926,119.6991187283461L373.370038900463,121.00409749840098L373.59919471805557,158.072799863583L373.9406731083334,237.88324611713458L374.4126534472222,182.52029063699618L375.45051811944444,169.31845324674043L376.14666519907405,171.4353706286676L376.73633307685185,164.80907387612223L377.2098853166667,158.01097297913606L377.44628554722226,184.66223516611328L378.62726154722225,172.39994421729313L378.7454616625,177.2863268959258L379.2051401680556,202.1007310613631L379.8120306125,199.70224002587653L379.92821459398147,206.36954955014312L380.04016127731484,242.49688966126865L380.3882689888889,259.00646112194636L381.4421602162037,219.94106202422165L381.5627181828704,188.1833729094182L381.6799273171297,193.54984654660518L382.2615306597222,240.7665925046334L382.85608509907405,218.9555058173654L383.2096944638889,262.5050783927629L383.7990206240741,217.81893130791525L384.0309443541667,249.14281215261846L384.38171746296297,237.1341508586693L385.21315053750004,212.18332652009437L388.08074205925925,202.21020216002213L389.8417836726852,177.7994276340057L391.25492260509264,199.39835746617607L392.43248142916667,198.59274188398237L392.8974565574074,194.91476623049732L393.6080582912037,114.90508910714385L394.4362450486111,132.51718670148935L394.5509254726852,177.775148809071L395.6037915472222,170.14111884044556L395.7220600060185,175.05801912709236L397.9436344189815,188.6211096240929L398.0551368694445,235.99683986070858L399.10492748564815,244.0822692670212L399.34371973935185,202.14712087061736L402.28464385648147,249.93519892541607L402.6342209537037,226.3792349710945L402.98666847870373,219.9740337817799L403.6830205888889,250.93967752589344L404.1699339865741,223.25438831408934L404.28779238425926,209.3593118240047L406.2640819092593,188.52005102135385L406.61564096851856,216.42853985963833L407.45380587962967,192.28679154756816L407.8070051833334,193.91244412130027L408.0423119175926,195.20802148580088L408.7588937092593,188.76299918730766L410.2928298106482,129.18318896118632L411.4566857592593,221.99388370090995L411.81002175000003,235.34412351354527L412.16134160694446,203.8588040298496L413.09740860833335,201.43046608922532L414.16708718842597,171.4462933025221L415.91951751851855,231.26506303239606L417.45427374212966,229.50615057044485L419.6845619537037,235.06378028011278L420.04257947546296,211.22711904773692L421.7011399828704,215.33601002651193L421.8177681972222,213.08308543815863L422.52737895,177.79621693723186L423.245976875463,175.1396429532734L424.05960646342595,176.01615929567637L424.19362810324077,67.02772774674774L424.31244331018524,107.67308822300991L424.5352431805556,211.5532946846503L425.00527572916667,207.44097536374835L425.47930637361117,174.22733282389066L425.95569486944447,171.96906504238734L426.07321154953706,182.84544637126763L426.18898546990744,200.21622822874585L426.76983703379636,221.1426951459672L427.00346935185183,201.66798412630726L428.1941501314815,201.56995077826454L430.4662304046297,161.79526770054034L433.7913817828704,162.7098467584772L434.3888408217593,164.45736201423367L435.4610139402778,174.68207537224657L435.820603362963,157.74623580231724L436.0532788717593,163.64675887895294L436.89021359953705,157.02333399736497L437.492422512963,149.19886908382324L438.45343489861114,147.34055265655192L438.92011861481484,185.66190869532096L439.04002731805554,173.00990099264428L439.3993433666667,182.74533824853054L439.63434255509264,174.52638783096458L440.45764275092597,165.5612796030792L441.85232893333335,176.89911692236L442.0857903925926,182.1508993043152L444.6744720152778,229.2589160601485L445.02907236111116,213.94869276683676L448.5524541148148,219.83426635742896L449.4823360277778,223.3318456726118L453.47291407407414,231.432122432203L454.0377390828704,272.22416896204794L455.33199446481484,235.46088547655313L456.40122881203706,213.47827711392486L457.2083657657408,195.90723108463905L457.4412804768519,202.938622104407L457.80719167500007,135.30471865372706L458.04082399305554,178.8921145441346L458.62024034305557,192.7645353382158L458.7411400273148,170.4795229378538L459.67406322685184,184.93776281336127L459.7912381893519,190.66396879946674L460.97235087638893,204.56499406374803L461.453455075,214.11412359482446L462.62062568425927,200.41321270390216L463.0904532023148,211.900483405931L463.5688920037037,185.57323338767486L464.5016785162037,226.90983400055117L465.08912522962964,208.5979237475497L466.8473989305555,170.8200021377308L466.9651206412037,179.3346720412039L467.66885385138886,191.4717818980214L468.4960837995371,219.950476746845L468.9480394875,184.77593024239215L470.13550812175924,155.50045935113383L470.2571937564815,143.42463188051656L470.3751204976852,160.52288825916932L470.48778478796294,209.12077269320312L472.6529416263889,232.2166261754313L472.88783829953707,219.72555456649548L473.246470912963,171.1222779239691L473.7249097143519,169.49002684069538L474.0817995680556,153.4665258382532L475.3582172916667,151.4595506780211L476.8036485365741,150.4672950621166L477.867039512963,146.8391397465697L477.98254005925924,181.45820523516917L478.5607262259259,228.85635303586687L478.9103033231482,228.28178839164943L479.61451493796295,205.13290379213097L480.07942172268525,234.05489444991034L480.54695973287033,221.26009051160082L481.4644372972222,206.93727833522988L481.81490286018516,184.82054088012544L482.5252312199075,240.41394591428553L482.6457208430555,201.13549621958165L483.58998906666665,176.1610359672225L483.9446235842593,205.3765068088085L484.0677786046296,162.79758781000635L485.4896655074075,189.99288771433447L487.02062866574073,194.66670958528618L487.13383970416663,227.14582917092045L487.2514588995371,212.54914615749013L487.37317870601856,177.45966713149582L488.99924187037044,208.91494584393052L491.82979120509265,187.80607632186963L492.1758827828704,184.02688287528534L492.4242089574075,122.0190396080345L492.66303538287036,151.1971097491144L493.01869505324083,175.9097282073076L493.4786469328704,220.56557591643997L493.83047936620375,251.7768830610539L493.944783900926,251.266875419213L496.07740922453706,118.4367778419616L497.2534303194445,126.20096571361023L498.6392660162037,150.7979060438176L499.23703260092594,74.1674139436226L499.3529773800926,133.4939360421583L499.7053565615741,153.3716784994814L501.00682218472224,197.2877823758731L501.1218784981482,214.40583599300825L502.5129766458333,213.97518666202814L502.63100590231477,202.59186270802235L502.88145072592596,99.42295012654303L502.9996850129629,130.74295865167056L503.3498772018518,143.96011034648924L503.46811148888895,159.93931245804617L503.5880201921297,156.92338231405094L504.4085183037038,196.85099444707515L504.6408520949074,190.4963666712459L506.6699711597223,176.3785262812306L506.90127979814815,205.51564526016278L507.0174637796297,208.904635219503L507.4805594611111,203.5095325164371L507.8362191314815,201.43283266141276L509.84042698379636,192.552304138626L510.53633486111113,168.1520742594511L511.70682013101856,171.7321861437548L515.0042923842592,126.10254172394212L516.0899633476852,152.01344532117972L516.3401006254629,56.9962093969925L516.583950299537,76.6223062122313L517.1793932046296,119.92776837216508L517.5394268601852,143.8275462365152L518.6050390009259,134.63268188492472L518.9558462814815,172.92407569004726L519.3029971837963,176.29488390712132L522.4813808560185,176.45937443988436L523.2077357708333,74.02040180295845L523.5576204138889,111.62050368426335L524.0236548666667,136.66784995022277L524.7382888680556,156.9642107877504L525.0959305004629,150.70091365933652L525.8926450675926,186.12442055837454L526.1333509398148,167.25701943733006L526.4901382782407,174.86119096893708L528.4936626953704,170.83419727535258L528.9519743305556,160.347334269193L529.8918343972223,204.39458862354775L530.0073691152778,213.9533430064347L531.0565446398149,217.57701685376742L531.7735706643518,183.2354178250697L531.888387775463,206.68405903702185L532.0065537189814,199.41682418182629L532.3530553578704,200.0347084998796L533.0644088703704,181.06630837120855L534.0058066662037,169.02528752008055L534.9471361185185,156.71860259246208L535.4213034500001,198.9736624646469L535.6554825162037,177.61385560561922L536.7126542324074,279.15431841530216L537.3024587972222,278.1439024467339L538.0146324319445,227.14972199553668L538.7182289550926,231.5308603935706L539.550242949537,203.10349138338964L541.651361911111,188.7679242596604L543.8649743041666,215.99722795718372L544.3387315745371,202.11272644817913L544.7937968925926,210.5167384613757L546.8028913064816,188.23492056146497L547.5335860347222,164.31014048664903L548.2247440375,189.06893786356324L548.5673500958334,185.32240058918083L550.6880153037038,186.3935271060821L551.1608499365741,195.04717217821022L551.9752996467593,184.56110286874457L552.3164021476853,201.62898648676992L553.614655625463,184.8424712949855L554.8023976337963,165.6665288687069L554.9214862148149,165.58206530096055L555.2726010412038,175.15790525087877L558.0004642393518,222.9394736866703L559.7775665796297,193.95384957277088L559.8942631375,201.79061148494475L561.4146672222222,212.40743303654597L562.1190838675926,191.01528619343853L562.3512126282408,201.9840356585273L562.4697886328704,192.42940518519615L563.1855503023148,166.1234551266511L564.369704275926,141.858412758252L564.7194522319444,138.32111267392298L565.0845433078705,133.17712760852464L565.2033585148149,148.541422706167L565.6836767629629,143.4320469029667L566.8710087101853,73.07721602884489L568.3767189384259,100.16786822458623L568.4876746407408,184.21648714212867L570.5051753074074,173.34744946123124L571.7895208791666,168.45056813534683L572.8231140814815,181.37930306738585L573.4187961888889,105.01336172985638L574.0116078685186,128.25037699401943L574.7071056847223,157.0519581325484L575.7418607268519,160.7726689311444L576.6858555763889,173.8358347494949L577.7675284439815,165.3267368205121L579.0660552958334,177.5743168509642L579.6617374032407,168.90783035258283L580.0133648060186,168.14876900215845L581.9205590337963,197.1074384019768L582.8660232689815,227.33486057714583L583.3310325689815,219.32688562907347L583.6937316217593,101.15752336683423L584.0481269370371,139.77900765718564L584.1683090143518,143.93568004597145L585.1118938027778,148.75441006081655L585.3492508425927,141.5351092691661L586.6188000425926,151.35685594134176L587.5800516305557,149.18080356470335L588.8711632106481,164.9180617337522L589.3470049583334,160.36413660079828L590.2736405541666,200.90385955828776L592.9878692203704,184.21345036581144L593.6979583777778,157.63755123628184L594.1837441074074,169.21157400297926L595.9071967856481,178.53791721952638L596.6035830675926,149.20411305602022L596.9638217537038,142.1201275804179L597.2181621578704,56.04233100127415L598.0485359078705,93.53337808913724L598.4035804865741,134.6710708407566L600.3256394296296,117.0571918488347L600.8253672370371,139.1121967951935L600.943054775926,158.59622019452735L601.2908207699074,143.2592728411529L602.8480961828703,163.43970839234447L603.0844622416666,141.81904195180883L603.3241429611111,160.359273662754L603.8044270375001,154.53381151592012L604.2994733138889,149.93508536002196L604.5392565486111,152.5710300508014L605.484276550926,152.62795773563022L606.6517205342593,173.54491317719553L608.3307840972222,173.94688020815667L608.6720232851852,192.7876135349486L609.0288447953703,182.1646912479527L611.0003161023149,178.94992285474913L612.7756415111112,171.60470589104153L613.3659928240742,199.64303348920458L613.4841245958334,192.57879869815724L613.9518334648149,215.88122767216169L614.4284953347222,170.5383847674104L614.540373674537,221.3458758108045L614.8852350689815,216.35158857776085L615.4609266972222,300.4319257800183L615.58004945,246.73219159828025L616.7635541601852,219.89911927135628L617.6993477875001,150.28212181738135L618.166988312963,186.07590853379853L618.3984336384259,170.40493992491568L619.1060624291666,188.8233679186742L620.0511166032408,198.62251498211074L620.1647035310186,225.94905776525715L620.859107850926,225.03638428099077L621.2207475791668,211.48606825856632L622.8392587847222,225.80468143416394L623.1844960685186,247.0794777396897L623.3020810921297,225.18590841632565L623.6533667773148,225.12099469070523L625.7785768291667,259.9039223454288L626.2506596833333,214.67558336229487L627.0603595189815,197.88350013080066L627.7756427837963,177.17174570073394L628.2656658115741,172.71151264693162L628.3819181365741,191.05201268306877L629.889507811574,228.03812438713416L630.8252330953703,207.45037834525237L631.5380559935186,239.6002528707988L631.8886582435185,210.68854906007505L632.2322211111111,250.52059947159813L632.4646232458334,199.4041616442218L632.7035863583334,187.3502123389094L634.5467085375,209.2186089376678L634.7828353939815,201.92096956690594L635.020670838426,185.89827367536492L635.1387000949074,187.01700172149503L635.2545765305556,201.680805611551L636.0791410814815,177.62595744606267L636.1862012032408,259.0505567292955L638.2913182606482,294.35691351298027L638.6448934537037,224.47341740888487L640.6382688583334,218.75193266528112L643.5883851787037,180.77807546729207L645.1519481953704,170.94681207979346L645.382675913889,169.34338250544465L647.6007989791667,227.29157065622096L648.0868239111111,204.52038233641036L648.9140196875001,205.4090967088736L649.3880845037037,192.48987966635607L649.9776156944445,182.8011643123158L653.3827973328704,169.02709105997445L653.614994437037,201.64977879954878L654.7770392824074,205.4989550012359L654.8946584777779,200.0966758826182L658.6384480787037,190.90266008966023L661.4503396328704,198.94155720746207L662.8547989384259,182.98640795474668L663.0886362870372,204.86021877085406L663.6515135055555,186.18226186884604L664.8276029439816,181.29299356412793L665.1853129199075,176.80944081468522L665.3004375768519,201.15015146924932L666.2123793162037,306.42703666961546L666.4493262949075,264.0728240093173L667.0326040537037,223.93517157717034L667.7601549800927,216.4124352611112L670.2174120166667,187.38476603490153L671.4093571513889,212.21418592887343L671.8714276800927,194.78856007391545L672.3446382023149,188.71675411940217L673.1536546027778,201.47021293688184L673.6296672092593,191.16461515455475L673.7501226606482,173.21125125902313L673.9785266995372,241.88894376765134L674.0911568180557,256.9457356072094L675.5014936662037,215.6016844075894L676.546090175,203.14906574658426L677.8585932763889,212.3586594504429L679.1390090958333,183.83129903330288L679.3797833115741,166.17006215644236L679.9683918648149,202.1453019372165L680.2048946106482,212.24193026969093L680.7941865990741,207.15826453973392L681.4843536208334,185.0093493195944L682.3111393361112,219.99774463966918L682.7840423125,232.94952874180953L685.2570867018519,224.3444781589345L687.0378795921297,218.45190682537364L687.157070688426,196.10493945197464L687.645009238889,49.45687465140928L688.1055420384259,110.2610377407258L688.4614409111111,121.96913599587602L690.9311706398149,148.82022118340214L691.7639705847223,160.71438647769074L692.0000290976852,160.24741516984832L692.2400515347223,147.89699856327374L694.7048947018519,177.66021210284856L694.813116663426,251.25246070821171L695.1643340050927,233.74288683930513L695.4000166287037,190.7620389807191L695.8736713837962,189.25044963049695L695.9901970828704,199.84396268499574L696.5709461314815,204.24843960745736L696.8093966675926,180.1563349589326L697.0462411310185,178.55375682659658L697.6167044800926,210.15068130899112L699.8289158310185,209.3866890105129L700.5330591023148,250.6044898886992L700.7696643634259,206.24993084626462L701.1194123194445,216.4179541195856L702.1846143990741,221.01663884672087L703.4716595398148,226.53174513868032L704.5053552574075,197.8861016092192L704.6221543305556,201.46884882792787L705.0984744828704,218.43882491794227L706.2560769995371,243.97760477030465L707.0683738888889,242.24115868229165L707.5180058972222,265.6959139097837L708.3477303837964,218.71294546857115L709.5172588444445,203.70926234365305L709.7543766819444,206.15513141894803L709.8666992546297,239.19277749028487L710.336629287963,222.3139712109169L710.5633589106482,218.87467826767758L710.8003058893519,211.50387314178954L710.9155672333334,220.94835424752083L711.1632441444445,113.34183953800434L712.4427714981482,178.5863327737569L715.4952322375,191.4329457137537L716.436971750926,182.89155561845826L716.7890092148149,194.57105270497811L717.0267421439814,180.65644378347884L717.1431653277779,194.33935202092152L717.9716254592593,266.7057723021323L718.4487315620371,214.9357550670195L718.6703012490741,220.2343574362689L719.0181014148149,203.97019286141935L721.2507133060185,124.37666626286206L722.0480771365741,186.51935830619948L722.281094362963,211.98495921437132L722.6356263652779,193.61295829382067L723.8051206541668,242.28465904891428L725.2272467592593,231.16294703940505L729.6088864185185,194.01750057176739L734.2076192643519,201.26999979755854L735.3844604814815,186.96572950805185L736.9999645722222,176.30088622167668L737.591341037963,183.31230688966306L737.8334479523148,154.4131986034532L739.3609939347223,199.3255383014253L741.2417050490741,185.73471376734383L741.5961687078703,187.581747309987L742.4376482796296,177.84669681586263L742.7837740291667,219.71956136344343L743.5906034370371,244.70340547473327L744.4012600819444,238.57525541888327L744.7658385814815,153.27569568856552L745.5841838722222,152.37969544353484L745.9403902907408,175.43896063261664L746.7596582189816,176.4054167912015L746.9937347699075,189.8144789921609L747.3394504583333,229.16676801765178L747.4564203902778,218.3548298815343L747.5728777458334,214.8676323496969L747.6819540013889,266.8360121808653L748.5088080601853,243.90969751848033L749.3255472782408,215.2998741382752L750.377114825926,200.2511283505597L750.8514188444444,179.92411927870722L751.3264404699074,95.47980226968802L753.6270541620371,155.97431451814438L755.0329828532407,224.45732580067929L756.3229667652778,204.10806266333006L758.3262178083334,111.81555816252244L759.4773618625001,156.8372520728063L760.2933493018519,194.26248619495738L760.6382106962963,254.2097095819647L761.7931819875,238.2605423235296L761.9057437625,257.44232466042433L762.1525322078704,246.8881602101748L762.8469023560185,301.3798284737204L763.6583107796297,288.8882502044005L766.6991531208334,281.2878316317855L769.6489960671296,236.613675217322L771.3173296976853,231.31529537468646L771.9100388620371,208.96102965451954L772.2633065092592,213.8679840201796L773.2198423944445,194.31641956377L773.9244640703704,194.19687259321196L775.1995832671296,196.4734831737964L776.2326980648148,217.31578616027963L777.0649854333334,199.27373505269452L777.7676251472222,179.1354423560798L778.2396396578704,178.79578497795853L778.4690005060186,169.1160218722935L778.5783843074074,236.88592565897991L782.0960593773148,224.6894183129701L782.5628456087964,265.16819642209794L782.681558300463,230.02708375189974L783.5007237134259,216.07782010079015L783.6155408245371,228.40703656578427L785.5851326847222,221.39510224444302L786.2822024018519,206.96920452624136L786.5161422657408,195.0299482630267L786.6454482027779,111.45841994404219L787.9418905773148,125.32545788200365L788.3047263171296,127.23935355610665L789.9529669532408,126.30082664807829L790.4215642879631,187.98986326408487L790.6565976481482,202.15301734657334L792.0563412509259,192.6249528474685L792.99216905,196.42457742772967L793.5885687643519,161.7430502133518L793.8141365472222,175.4776529048055L794.0434290518518,222.13409921969L797.0789747703705,200.77131411301093L799.066951037037,177.97897581776184L800.462354826389,215.42957292707882L800.5814775791667,196.5956703029799L801.3794565013889,210.36548975325L802.0894773152778,206.96632871955438L803.1417966416667,207.55932925103016L803.2618762037038,185.9140299834284L803.7404175203704,170.2698708620154L804.2058368814816,182.96436188895382L804.6754251972222,171.82903948393792L805.0254123555555,194.03952548683074L805.252825413426,193.52078264820835L805.8474481962963,182.57558512211776L806.7975939625001,191.9774950793639L808.8965259314815,205.70091088123655L810.0460297412037,244.5734190911504L810.2940825416667,208.72456550422018L812.5460698203705,173.88185485098384L813.5073214083334,43.045570118588046L813.6255898671296,97.50318022372053L813.970827150926,155.6001755305236L815.5793260310186,184.7395836139585L817.2165291888889,196.44636616060353L817.6863908787037,191.67380149135514L817.8042492763889,190.48405886671665L817.9217317847223,193.14756743698354L819.4431610222223,184.216496184999L820.1487736791668,192.22872974606437L820.7431572597222,89.35663288115704L820.8572225921297,156.02052075830633L821.0930419027778,187.33572035929092L821.4421405953703,185.01369351089303L821.6798051810185,182.297731124999L822.0230263310186,254.162199427868L823.3020752800926,253.27612856836205L826.3879218282408,245.61383934703113L828.500522500926,209.9852442655166L830.2663823324075,189.3125656394084L830.6131231736111,202.67982692408094L830.7416089884259,121.84934376212479L831.2157421481481,125.33341613530632L831.4507413365742,140.46283098331824L832.6211582629629,170.0740272935534L834.2451369500001,171.75440989750464L835.8910197347222,163.29305245171693L836.361804062037,168.7788311264361L836.7173953888889,173.67018315919904L836.8382950731483,157.37435206013132L840.0321243805556,156.7090088381601L840.7499705273149,160.78538455094278L841.0911072,234.5369808526361L842.1320131587963,217.4849143416597L842.8346528726853,196.62482794866472L843.4171105092594,222.8637336298557L843.5314492157408,235.28669380772516L843.6467789032407,233.67101365503726L843.8891933634259,110.55689375108719L844.9407950828704,149.63528975152727L845.2926275162038,194.35655465307102L845.5330258425926,181.06612589308972L846.0044594333334,177.95766043473893L847.4119258537038,251.68700874533016L847.6415259041668,248.00175218196168L847.9827650921296,270.0891572738377L848.5625573314816,271.6320469282879L849.0342984680556,232.22933528638774L850.9011016763889,224.57205278366945L851.0172173143519,223.29069858406058L851.4900861189815,193.0928119358264L852.5314363106481,221.9980001650359L855.1447557717593,180.1045897922181" style="fill: none;" fill="none"></path></g></g></g></g><g opacity="0.2"><g><g><g><path stroke="rgb(255, 112, 67)" stroke-width="2px" d="M48.078503437962965,131.73447728157052L49.74266811388889,188.41763615608224L50.68228897824074,329.0261455376944L50.80264191435185,144.8118257522584L52.29936496990741,214.81150070826217L53.11319958842593,198.35824847221383L53.233860070370376,136.72189791997283L54.87912776342593,159.86386617024746L54.99948069953704,144.3939713637035L55.4674629425926,132.0480493704479L55.92772236805556,177.71804014841726L56.63982765925926,175.10039488474538L57.23000811342593,200.4470853010814L58.04011801018518,177.79374996821096L59.230593759259264,156.82648102442434L59.70893004537038,152.93047110239675L60.187403018518516,248.32107305526742L61.837352242592594,133.32409342130035L62.31005018842593,183.40744455655425L62.42975386111112,155.26282668113717L62.66468470601853,191.5722119808198L62.9029985550926,172.70538290341702L63.62511617175927,126.58519426981617L64.57563782731482,125.11189858118702L64.93215179166667,156.8116871515911L66.09529013333334,220.31786719957992L66.45737409444445,111.04510108629871L66.70734051342593,-45.347020228703684L66.93813657546296,244.52107826868698L67.88305406250001,162.04755783081063L68.47754015833334,169.41751718521127L70.13688661620371,-53.482489983240654L71.54968383101853,193.3310874303183L71.78335032083334,255.26012460390731L72.72666173518519,133.96008491516122L74.62329688935185,161.83522224426278L76.39349653425926,208.0830442905427L76.52662970833333,-84.8617446422576L78.06114672962964,178.52271080017098L78.17924432962963,182.52213279406234L79.58165332962963,234.52085534731552L79.9572009638889,-58.083964586257856L80.91551378055556,188.78313183784493L81.2732921,129.44186210632333L81.85404114861112,285.98047176996874L82.4387541212963,113.45766266187043L83.9880333425926,166.38781905174264L84.92847432916668,186.4987838268281L85.16870179675927,151.05135917663583L85.28837129768519,154.45873618125924L85.63063563842593,340.41481693585723L88.33324590648148,220.03518819808968L88.44683283425927,263.92353256543487L91.3095036226852,232.95647581418362L92.01446701620371,198.90620191891998L92.13041179537036,222.0697808265687L92.24741589907407,204.97299512227386L93.68577358981481,327.2314457098644L94.63028101574075,219.7967457771302L95.08890019675927,181.21302008628854L95.3285809162037,177.88454373677578L95.90632285000001,318.4544730186463L96.49083079212963,164.53336358070382L96.74079721111111,125.0315475463868L98.02886750462963,179.5655337969463L98.74592770092593,137.2411338488262L98.8644695337963,178.21232954661062L100.5078577800926,139.33011571566274L100.6301585064815,114.96779799461373L100.85220659814816,263.11436573664355L101.68258034814815,165.08320252100637L102.38832969212963,248.7015076478323L103.45141312268518,145.68480928738919L103.9354560925926,178.71053496996572L104.28493067453704,155.95915397008267L104.52396213055556,150.14269630114248L104.99218357592594,149.2891478538514L105.1116480462963,160.34713268280038L105.70941463101853,152.12507526079824L105.82925499074075,156.73626740773526L106.53664457916668,193.36488127708444L109.24212527499999,151.04091644287118L109.48341206712963,159.33752338091543L109.60236396111112,169.04027342796334L109.7213158550926,167.69548137982693L110.07492521990741,210.31198779741928L110.32619016574075,-76.19021455446868L111.9714578587963,188.47782691319793L112.07995319444446,354.6752401192984L112.31047588240742,275.55224180221563L112.54140863148149,212.3777635892233L112.75716911944446,233.14633051554367L113.22231510648149,170.52995840708425L113.45567405046297,135.40886918703725L114.17844093055557,198.39218735694894L114.6495328037037,185.8752655982972L115.3372394587963,382.2368053595226L115.57398140694445,153.77401192982998L116.02723562175926,154.30195013682058L117.9226405925926,191.37583057085678L118.61632730555556,155.10401010513314L119.09309169074074,246.2580529848735L119.33079044814815,181.68381333351144L121.34391712962963,251.7254042625428L121.46269816481482,168.91191482543954L122.39876516620372,189.1389099756877L122.51259129629629,259.7133704026541L123.09730426898147,165.70106426874807L123.21769137685185,147.16057062149056L124.1609344476852,17.085153659184883L124.85434778657408,298.95353794097906L124.97268458888888,179.16769464810696L125.56013130231483,271.0260419050853L126.62611933240741,124.72696781158456L127.71052594074075,134.0984511375428L128.66384968055556,210.7721932729086L128.78300660509262,168.9085789521536L130.6760878962963,-33.41909766197197L130.91088205416668,171.89534584681203L135.55024512175927,159.6715458234152L135.7788541912037,236.09625776608792L136.00937687916667,307.5206406911215L136.35683532731483,276.5136984984081L136.7088727912037,275.2672421932221L136.8303192236111,126.46727840105702L138.26802765092592,160.78529238700875L140.59683304444445,267.47710784276336L141.88743204814816,269.5745019117992L142.00283007916667,235.7529528935751L142.69473986064816,302.21181591351836L143.40212944907407,202.96929558118194L145.2821229564815,299.5162852605185L145.3992979189815,200.68654298782357L145.63644992824075,189.07900929450997L147.05146830740742,154.43857590357473L148.59275133703704,243.19862206776943L149.5296042888889,203.78832499186203L149.88410211944446,168.30507596333828L151.53746851944445,177.89368112881985L152.1128184300926,251.33322159449264L152.5672686564815,193.24609518051156L153.1483594226852,191.45705183347076L154.9219079,155.84892511367806L156.21196015555557,157.30873227119454L156.6873234986111,184.10536726315826L160.10275666481482,146.7799909909567L160.33645732638888,157.53209074338284L161.5134010587963,244.88425334294644L162.3364620523148,156.88304583231618L163.9765014662037,105.13030767440804L165.87330747916667,189.0710322062175L166.22712187453706,178.00376494725552L167.6580984652778,189.53109264373788L168.25022670972226,149.7637120882671L168.60742410925926,180.64505139986684L168.8483691837963,121.89945260683704L170.12919506435185,247.3735400040945L170.9731008310185,185.981723467509L171.4316174967593,258.53348652521777L171.6527771226852,316.7826203505199L172.70530147962964,179.64109857877102L176.3944504375,135.49676219622305L178.06886664120373,-27.677334547042765L178.1841279851852,232.05027858416244L178.41741858564816,225.21986047426864L178.89578904351853,114.72413420677194L179.96317811574073,215.27344663937893L181.36473282175928,222.26369659105941L181.84402591712964,146.51906768480947L182.07174652083336,263.39385390281683L182.42569760324074,157.3378849029542L182.65850979907407,300.48629919687914L182.89214211712965,155.20495653152474L184.07294725833336,209.35372193654385L184.54643115462963,169.65334892272958L185.38500612685186,158.95679871241262L185.6194927388889,190.98973949750274L186.2114842962963,142.70369887351998L187.0458903138889,169.47002092997243L187.62793788935187,175.36668459574392L187.7476757337963,156.66215300560006L189.1444463935185,240.78011393547067L190.30225394074074,235.14089266459152L190.53469024722222,249.01565988858547L190.64537257546297,317.9123210906983L191.47666896296298,47.299028237660835L192.0667810736111,159.92666761080434L192.54412637870374,148.75004172325143L192.65723490185187,272.0851091543834L194.06661494074075,192.45607336362212L195.010507275,200.16092538833627L195.47104007453706,304.3965228398642L196.05421531805555,164.85259215037038L196.28285855925927,229.9910295009614L198.48949991342596,397.26926565170294L198.7208427236111,313.130564292272L199.3129367962963,130.32659371693939L199.43301635833336,149.56573526064565L199.6529799726852,442.98204263051355L200.00286461574075,213.24987689654037L200.46838649212964,253.03915818532315L201.16713062546296,201.89819018046066L201.65052433194444,248.98737748463955L202.2396454615741,155.60308575630197L202.95017885185186,158.50268483161935L203.3044374800926,166.56955162684133L203.89472044953706,178.5273520151775L204.84332848657408,-1.7668815453845899L205.31107152731482,226.93304896354684L205.78247094629629,184.39544320106515L206.83420935277778,210.65645297368374L207.67316021435187,109.15235559145619L208.00466045092594,202.11705247561142L208.13417141851852,-18.371843496958306L209.17162602962964,116.29300991694141L210.33462768425926,195.5865728855134L212.12396351435186,198.3549125989279L212.58880195555557,162.76506066322335L213.8852443300926,149.45695678393056L214.00757922824076,111.77493214607247L214.4807555787037,191.77642544110626L216.0168103291667,131.5130043029786L220.2898863092593,163.78583788871774L222.77154198194444,291.7570439974468L222.8935351625,115.89357535044361L224.05851877916666,221.85947577158615L224.9987547351852,211.04529976844796L225.1189368125,149.18588081995657L225.48108911712964,132.89507110913604L226.9975976212963,209.02535597483322L227.22938466435184,205.9763677914938L228.53478003981482,205.01940727233895L228.88343449953706,183.5497268040976L229.34984484166668,163.56378475825002L230.28785963333334,124.97831861178089L231.10924621064814,205.3096282482148L231.21466608796297,412.6161682605744L231.5685488268519,163.7697386741639L231.92762567314816,306.88116828600573L233.33379356666669,171.84690316518154L234.01917654212963,255.8057574431102L234.47608713518517,212.12989370028183L235.66581110555558,218.05222908655807L236.0218466652778,203.63284428914397L237.6631504342593,251.7835644880931L238.00811434398148,180.1861512660981L238.6183877925926,210.03728588422146L238.98194113935185,140.6634497642518L240.03449966805556,226.23411099116012L241.3413302574074,161.82782530784615L241.9426507050926,177.612887620926L242.17761572175928,268.75155647595733L244.96835495694444,181.66423320770272L245.91508354722222,156.23719175656643L246.1554135300926,147.91839400927236L246.51001387592592,190.26193896929428L247.20909972685186,185.79346418380746L247.32928180416667,148.4360345204672L248.15432475972224,188.231407403946L249.10781935833333,267.0157420635224L249.57207687962966,198.09427936871856L250.0289191291667,237.20028678576156L250.85621742083336,304.4368433952332L251.09114826574077,241.978562672933L251.80496214490745,-60.78790744145698L252.86930993055557,154.18069839477548L253.80001196574077,336.69691363970446L254.0382574712963,177.3801016807557L254.37119292175927,366.0128581523896L254.71899308750002,142.03927993774423L254.83780829444444,175.02860109011343L255.66654180000003,239.51726833979293L256.25381765462964,200.31045953432724L257.0767761328704,154.45177435874947L258.12660092083337,192.78226375579843L258.58580102175927,197.43058562278756L260.2462751476852,26.605736017227294L261.31486023148153,173.81390810012826L262.6251421685185,156.90436641375234L263.8063915425926,319.41868543624884L264.0379735550926,289.00770425796514L264.8684156486111,128.90739719072988L265.47786897500004,171.82021617889413L265.8280953356482,221.956651210785L266.7809064990741,135.10066350301116L269.02575188009257,132.03876694043487L270.3228435180556,205.3967960675558L272.3233266486111,195.10519186655685L272.7987241634259,171.40004118283596L273.86286691851853,242.4059895674388L274.44409437175926,243.95136912663784L274.56420810555556,151.31242752075204L274.67803423564817,260.84191083908087L277.15808383564814,190.04525224367782L278.4580459013889,212.4650764465333L278.8090240407408,154.4015912214916L279.51111700648147,236.76386753718063L279.63105988148146,149.6353534857433L280.68163644814814,103.57637087504078L281.3860872652778,232.1747211615245L281.4991616166667,275.40111223856616L282.7820378027778,144.66954350471505L283.2366247162037,180.11377731959035L283.8312133273148,193.3737285931906L284.063478775,163.3182354768118L285.1268697513889,209.7757824261984L285.60168634629633,149.7101930777233L285.7181778736111,212.71135091781625L285.9528353444445,143.29864462216702L286.07161637962963,172.82750487327584L286.3106820074074,119.50632611910511L287.5915762314815,162.63974785804757L287.83115443564816,145.5870536963146L288.79141504259263,156.71146591504422L288.90804325694444,212.38037427266445L289.26435219074074,207.88506746292123L293.34712564351855,235.61487674713143L295.81460003611113,205.95562736193344L296.7462247087963,159.6989579995474L298.1641135157408,192.70379821459457L298.50736883750005,207.71609822909042L299.56416466435184,206.85892383257553L300.73106189953705,193.19750746091216L303.1118767106481,165.07319490114858L303.46316239583336,197.4423336982728L303.8036498050926,339.829733769099L304.4998310564815,149.35267448425301L305.0849199185185,148.4073170026144L305.20130893055557,213.2442204157512L305.67137565092594,421.2657976150513L305.78814055231487,210.65804839134225L306.58386413842595,261.8869094053905L307.9890068791667,160.8885594209036L310.3679764152778,228.23461969693508L311.54321155972224,241.0059380531312L313.61292667453705,354.2024163405101L314.43448411064816,165.41722496350613L315.26103062361113,141.53599818547573L316.21001455,154.28730130195626L316.44576551712964,160.01746137936917L316.92194898240746,141.76834901173916L317.6401368467593,180.59153238932302L318.10224154722226,367.78043588002527L319.4075685791667,232.32730110486355L319.76138297453707,206.59829060236618L320.34937643611113,127.5105365117392L321.8505759921296,194.87965782483428L324.6849525638889,216.73223853111276L327.48980473564814,190.5218470096589L327.6028449152778,278.0029483636221L328.7868280300926,173.37183237075814L329.1536960375,138.33167433738717L329.74568759490745,162.90313680966702L330.6846933675926,216.46261294682827L331.84540551435185,170.90401132901516L333.02860267870375,183.55103214581817L333.8521762486111,211.00555936495468L337.3827340717593,171.3414458433788L337.8544752083334,229.41058754920968L337.9744522550926,146.76896810531625L338.44530492592594,199.06762917836517L342.29779489305554,229.55228964487716L342.7765070685185,138.98797114690151L342.8944679814815,189.58548188209542L343.4880656115741,195.58135151863107L346.4456997189815,207.90450255076095L347.3980324777778,180.7773260275524L347.74053602083336,185.64509034156808L350.06397644814814,495.10767340660095L350.9903728416667,367.44249741236376L351.56869569537037,258.654303153356L351.8056426740741,180.1997848351797L352.1733308037037,150.24407784144094L352.4116446527778,165.41678984959927L352.5310066078704,163.15782348314931L353.8191110731482,147.33229557673147L353.9363885509259,199.78063583374032L354.0523333300926,225.2542344729106L354.28384699907406,288.8864525159201L354.5211356953704,211.02876543998727L355.10345664490745,325.56858539581305L355.3449826393519,101.62459492683419L356.27407860185184,243.19992740949002L359.4395795208334,172.1886126200359L359.5582580407408,174.0680146217347L360.83139527546297,308.58507434527087L360.94908281435187,193.2916371027629L362.1219942791667,276.55314882596343L362.241185375463,168.47651084264126L362.59643498472224,240.92051068941757L363.4120465347222,244.10090327262887L364.2310069171296,134.1387716929119L365.7633369458334,248.47191254297897L366.69420983981485,180.80169240633657L366.8085485462963,249.44163640340176L367.61869261481485,304.8224993546805L367.9760608731481,182.81525452931731L368.0932700074074,202.1985638141633L368.21191435555556,175.8041191101075L368.5788507064815,-69.50541456540412L370.77944365925924,192.5982105731965L371.6990398726852,168.2122516632081L371.8193244652778,148.38817199071255L372.18882369814816,-61.22954805692024L373.0116113175926,203.33595156669625L373.370038900463,122.96156565348316L373.59919471805557,213.67585341135666L373.9406731083334,357.59891549746203L374.4126534472222,99.47585741678883L375.45051811944444,149.5156971613567L376.14666519907405,174.6107467015585L376.73633307685185,154.86962874730435L377.2098853166667,147.8138216336569L377.44628554722226,224.63912844657906L378.62726154722225,154.0065077940624L378.7454616625,184.61590091387436L379.2051401680556,239.3223373095195L379.8120306125,196.10450347264617L379.92821459398147,216.3705138365428L380.04016127731484,296.6878998279572L380.3882689888889,283.77081831296294L381.4421602162037,161.3429633776348L381.5627181828704,140.54683923721322L381.6799273171297,201.59955700238555L382.2615306597222,311.5917114416759L382.85608509907405,186.23887578646347L383.2096944638889,327.82943725585943L383.7990206240741,150.78971068064382L384.0309443541667,296.1286334196727L384.38171746296297,219.12115891774502L385.21315053750004,174.75709001223257L388.08074205925925,187.25051561991378L389.8417836726852,141.18326584498098L391.25492260509264,231.79675221443185L392.43248142916667,197.38431851069137L392.8974565574074,189.39780275026962L393.6080582912037,-5.10942657788581L394.4362450486111,158.93533309300747L394.5509254726852,245.6620919704438L395.6037915472222,158.69007388750722L395.7220600060185,182.4333695570629L397.9436344189815,208.96574536959335L398.0551368694445,307.0604352156322L399.10492748564815,256.21041337649035L399.34371973935185,139.24439827601125L402.28464385648147,321.6173160076142L402.6342209537037,191.0452890396119L402.98666847870373,210.3662319978079L403.6830205888889,297.3881431420645L404.1699339865741,181.72645449638375L404.28779238425926,188.5166970888774L406.2640819092593,157.26115981737783L406.61564096851856,258.2912731170655L407.45380587962967,156.0741690794628L407.8070051833334,196.35092298189804L408.0423119175926,197.15138753255218L408.7588937092593,179.09546573956814L410.2928298106482,39.81347362200429L411.4566857592593,361.2099258104961L411.81002175000003,255.36948323249825L412.16134160694446,156.63082480430612L413.09740860833335,197.78795917828887L414.16708718842597,126.47003412246713L415.91951751851855,320.9932176272075L417.45427374212966,226.86778187751779L419.6845619537037,243.4002248446147L420.04257947546296,175.47212719917306L421.7011399828704,221.49934649467477L421.8177681972222,209.7036985556285L422.52737895,124.86591418584199L423.245976875463,171.15478197733572L424.05960646342595,177.33093380928048L424.19362810324077,-96.45491957664474L424.31244331018524,168.64112893740347L424.5352431805556,367.37360437711084L425.00527572916667,201.27249638239547L425.47930637361117,124.40686901410432L425.95569486944447,168.58166337013253L426.07321154953706,199.16001836458847L426.18898546990744,226.27240101496383L426.76983703379636,252.53239552179977L427.00346935185183,172.4559175968171L428.1941501314815,201.42290075620025L430.4662304046297,102.13324308395394L433.7913817828704,164.08171534538278L434.3888408217593,167.07863489786794L435.4610139402778,190.0191454092662L435.820603362963,132.3424764474234L436.0532788717593,172.49754349390676L436.89021359953705,147.0881966749828L437.492422512963,137.46217171351125L438.45343489861114,144.5530780156454L438.92011861481484,243.14394275347397L439.04002731805554,154.03188943862924L439.3993433666667,197.34849413235992L439.63434255509264,162.19796220461538L440.45764275092597,152.11361726125088L441.85232893333335,193.90587290128082L442.0857903925926,190.02857287724822L444.6744720152778,299.9209411938986L445.02907236111116,190.98335782686874L448.5524541148148,228.66262674331674L449.4823360277778,228.57821464538583L453.47291407407414,243.5825375715892L454.0377390828704,333.41223875681567L455.33199446481484,180.31596024831143L456.40122881203706,180.50436456998196L457.2083657657408,169.55066204071053L457.4412804768519,213.48570863405868L457.80719167500007,33.85386347770703L458.04082399305554,244.27320837974557L458.62024034305557,213.5731665293376L458.7411400273148,137.05200433731088L459.67406322685184,206.62512262662258L459.7912381893519,199.25327777862557L460.97235087638893,225.41653196016952L461.453455075,228.43781789143887L462.62062568425927,179.8618463675182L463.0904532023148,229.13138945897427L463.5688920037037,146.0823583602906L464.5016785162037,288.914734919866L465.08912522962964,181.13005836804714L466.8473989305555,114.1531197230022L466.9651206412037,192.10667689641326L467.66885385138886,209.67744668324795L468.4960837995371,262.6685190200806L468.9480394875,132.0141104857128L470.13550812175924,111.58725301424671L470.2571937564815,125.31089067459115L470.3751204976852,186.17027282714852L470.48778478796294,282.0175993442536L472.6529416263889,266.86040639877325L472.88783829953707,200.98894715309152L473.246470912963,98.21736296017976L473.7249097143519,167.0416502157848L474.0817995680556,129.43127433458974L475.3582172916667,148.449087937673L476.8036485365741,148.97891163825997L477.867039512963,141.3969067732494L477.98254005925924,233.3868034680685L478.5607262259259,299.95357473691314L478.9103033231482,227.41994142532357L479.61451493796295,170.40957689285287L480.07942172268525,277.43788043657946L480.54695973287033,202.0678846041362L481.4644372972222,185.45306007067367L481.81490286018516,151.64543469746914L482.5252312199075,323.8040534655254L482.6457208430555,142.2178216775259L483.58998906666665,138.69934558868417L483.9446235842593,249.1997130711874L484.0677786046296,98.92920931180329L485.4896655074075,230.78583757082626L487.02062866574073,201.67744239171356L487.13383970416663,275.86450854937243L487.2514588995371,190.65412163734445L487.37317870601856,124.82544859250397L488.99924187037044,256.09786391258245L491.82979120509265,156.14277203877774L492.1758827828704,178.35809270540884L492.4242089574075,29.007274707158516L492.66303538287036,194.9642149607341L493.01869505324083,212.97865589459744L493.4786469328704,287.54934748013824L493.83047936620375,298.59384377797454L493.944783900926,250.5018639564515L496.07740922453706,-80.80836852391548L497.2534303194445,137.84724752108266L498.6392660162037,187.69331653912872L499.23703260092594,-40.77832420666999L499.3529773800926,222.48371918996182L499.7053565615741,183.18829218546554L501.00682218472224,263.16193819046026L501.1218784981482,240.0829164187114L502.5129766458333,213.32921266555795L502.63100590231477,185.51687677701324L502.88145072592596,-55.33041874567657L502.9996850129629,177.72297143936166L503.3498772018518,163.78583788871774L503.46811148888895,183.90811562538155L503.5880201921297,152.39948709805813L504.4085183037038,256.7424126466116L504.6408520949074,180.96442500750234L506.6699711597223,155.2017656962078L506.90127979814815,249.2213237285615L507.0174637796297,213.98812015851345L507.4805594611111,195.41687846183785L507.8362191314815,198.31778287887582L509.84042698379636,179.2315113544465L510.53633486111113,131.55172944068917L511.70682013101856,177.10235397020986L515.0042923842592,57.6580750942231L516.0899633476852,190.87980071703598L516.3401006254629,-85.52964448928824L516.583950299537,106.0614514350892L517.1793932046296,184.88596161206573L517.5394268601852,179.67721303304043L518.6050390009259,120.84038535753895L518.9558462814815,230.36116639773056L519.3029971837963,181.3510962327322L522.4813808560185,176.70611023902902L523.2077357708333,-79.63805715243011L523.5576204138889,168.0206565062206L524.0236548666667,174.2388693491619L524.7382888680556,187.40875204404205L525.0959305004629,141.3059679667156L525.8926450675926,239.2596809069316L526.1333509398148,138.95591775576284L526.4901382782407,186.26744826634734L528.4936626953704,164.79370673497525L528.9519743305556,144.61703975995388L529.8918343972223,270.46547015508025L530.0073691152778,228.29147458076486L531.0565446398149,223.01252762476608L531.7735706643518,131.72301928202322L531.888387775463,241.85702085495004L532.0065537189814,188.51597189903268L532.3530553578704,200.9615349769593L533.0644088703704,152.61370817820242L534.0058066662037,150.96375624338796L534.9471361185185,138.25857520103463L535.4213034500001,262.3562522729239L535.6554825162037,145.57414531707772L536.7126542324074,431.4650126298269L537.3024587972222,276.6282784938813L538.0146324319445,150.65845131874093L538.7182289550926,238.102567990621L539.550242949537,160.46243786811837L541.651361911111,167.26457357406625L543.8649743041666,256.8411835034689L544.3387315745371,181.28597418467214L544.7937968925926,223.12275648117074L546.8028913064816,154.81219371159878L547.5335860347222,128.42297037442535L548.2247440375,226.20713392893478L548.5673500958334,179.70259467760732L550.6880153037038,188.00021688143417L551.1608499365741,208.02763978640243L551.9752996467593,168.83199890454617L552.3164021476853,227.23081191380825L553.614655625463,159.66269850730905L554.8023976337963,136.90261522928884L554.9214862148149,165.4553699493409L555.2726010412038,189.5216651757559L558.0004642393518,294.61182634035754L559.7775665796297,150.47541340192166L559.8942631375,213.5457543532054L561.4146672222222,228.3326653639476L562.1190838675926,158.92706592877713L562.3512126282408,218.43715985616055L562.4697886328704,178.09745947519949L563.1855503023148,126.6645300388337L564.369704275926,105.46084920565296L564.7194522319444,133.0151625474295L565.0845433078705,125.46115001042695L565.2033585148149,171.5878653526307L565.6836767629629,135.76798319816598L566.8710087101853,-32.45503028233833L568.3767189384259,140.80384651819875L568.4876746407408,310.28941551844287L570.5051753074074,157.04389293988552L571.7895208791666,161.10524614652005L572.8231140814815,200.77240546544402L573.4187961888889,-9.535550276438286L574.0116078685186,163.10589989026394L574.7071056847223,200.25432984034225L575.7418607268519,166.3537351290386L576.6858555763889,193.43058347702035L577.7675284439815,152.56308992703762L579.0660552958334,195.94568689664214L579.6617374032407,155.90810060501107L580.0133648060186,167.01017697652188L581.9205590337963,240.54544250170395L582.8660232689815,272.6759938398998L583.3310325689815,207.31492320696518L583.6937316217593,-76.09652002652473L584.0481269370371,197.7112340927125L584.1683090143518,150.17068862915048L585.1118938027778,155.9825050830842L585.3492508425927,130.70615808169057L586.6188000425926,166.08947594960537L587.5800516305557,145.91672499974575L588.8711632106481,188.52394898732513L589.3470049583334,153.53324890136727L590.2736405541666,261.71344399452215L592.9878692203704,159.17783657709768L593.6979583777778,117.77370254198719L594.1837441074074,186.57260815302536L595.9071967856481,192.52743204434722L596.6035830675926,105.20340681076058L596.9638217537038,131.49414936701467L597.2181621578704,-73.0743638674417L598.0485359078705,149.7699487209321L598.4035804865741,196.3776099681855L600.3256394296296,90.63637336095185L600.8253672370371,172.19470421473196L600.943054775926,187.8222552935283L601.2908207699074,120.2538518110912L602.8480961828703,193.71036171913155L603.0844622416666,109.38804229100556L603.3241429611111,188.16962122917184L603.8044270375001,145.79561829566964L604.2994733138889,143.036996126175L604.5392565486111,156.52494708697012L605.484276550926,152.71334926287344L606.6517205342593,204.92034633954376L608.3307840972222,174.54983075459805L608.6720232851852,221.04871352513638L609.0288447953703,166.2303078174592L611.0003161023149,174.1277702649435L612.7756415111112,160.58688044548043L613.3659928240742,241.70052488644924L613.4841245958334,181.98244651158657L613.9518334648149,250.8348711331686L614.4284953347222,102.52412041028352L614.540373674537,297.55711237589526L614.8852350689815,208.86015772819528L615.4609266972222,426.55243158340454L615.58004945,166.1825903256735L616.7635541601852,179.64951078097036L617.6993477875001,45.85662563641877L618.166988312963,239.76658860842392L618.3984336384259,146.8984870115917L619.1060624291666,216.45100990931198L620.0511166032408,213.32123557726547L620.1647035310186,266.9388719399771L620.859107850926,223.6673740545909L621.2207475791668,191.1605942249299L622.8392587847222,247.2826011975607L623.1844960685186,278.9916721979778L623.3020810921297,192.3455544312796L623.6533667773148,225.02362410227462L625.7785768291667,312.0783138275147L626.2506596833333,146.83307488759365L627.0603595189815,172.69537528355923L627.7756427837963,146.10411405563363L628.2656658115741,166.0211630662283L628.3819181365741,218.56276273727426L629.889507811574,283.5172919432323L630.8252330953703,176.56875928243008L631.5380559935186,287.8250646591187L631.8886582435185,167.32099334398916L632.2322211111111,310.2686750888825L632.4646232458334,122.72950490315766L632.7035863583334,169.26928838094082L634.5467085375,242.02120383580532L634.7828353939815,190.97451051076263L635.020670838426,161.8642298380535L635.1387000949074,188.69509379069015L635.2545765305556,223.67651144663498L636.0791410814815,141.54368519783029L636.1862012032408,381.18745565414434L638.2913182606482,347.31644868850714L638.6448934537037,119.64817325274159L640.6382688583334,210.16970554987594L643.5883851787037,123.81728967030854L645.1519481953704,156.19991699854543L645.382675913889,166.93823814392098L647.6007989791667,314.2138528823853L648.0868239111111,170.3635998566946L648.9140196875001,206.74216826756802L649.3880845037037,173.11105410257986L649.9776156944445,168.26809128125515L653.3827973328704,148.36598118146267L653.614994437037,250.58381040891018L654.7770392824074,211.27271930376693L654.8946584777779,191.99325720469162L658.6384480787037,177.11163640022286L661.4503396328704,210.9999028841655L662.8547989384259,159.0536840756735L663.0886362870372,237.67093499501553L663.6515135055555,158.16532651583364L664.8276029439816,173.95909110705068L665.1853129199075,170.08411169052133L665.3004375768519,237.66121745109567L666.2123793162037,464.34236447016406L666.4493262949075,200.54150501887008L667.0326040537037,163.7286929289501L667.7601549800927,205.128330787023L670.2174120166667,143.84326219558724L671.4093571513889,249.4583157698314L671.8714276800927,168.65012129147854L672.3446382023149,179.60904518763235L673.1536546027778,220.60040116310128L673.6296672092593,175.70621848106393L673.7501226606482,146.2812054157258L673.9785266995372,344.90548253059393L674.0911568180557,279.5309233665467L675.5014936662037,153.58560760815945L676.546090175,184.47013775507614L677.8585932763889,226.17305000623074L679.1390090958333,141.04025840759286L679.3797833115741,139.67820684115102L679.9683918648149,256.10816160837817L680.2048946106482,227.38687276840218L680.7941865990741,199.53276594479888L681.4843536208334,151.78597648938504L682.3111393361112,272.48033761978155L682.7840423125,252.37720489501962L685.2570867018519,211.43690228462228L687.0378795921297,209.61304982503262L687.157070688426,162.5844883918763L687.645009238889,-170.5152225494383L688.1055420384259,201.4672823747L688.4614409111111,139.53128337860116L690.9311706398149,189.09684896469125L691.7639705847223,178.55563441912344L692.0000290976852,159.5469582080842L692.2400515347223,129.37137365341195L694.7048947018519,222.30503241221115L694.813116663426,361.64083361625677L695.1643340050927,207.47852603594467L695.4000166287037,126.29076719284066L695.8736713837962,186.98306560516366L695.9901970828704,215.73423226674404L696.5709461314815,210.85515499115L696.8093966675926,144.0181779861451L697.0462411310185,176.14988962809255L697.6167044800926,257.5460680325827L699.8289158310185,208.24070056279507L700.5330591023148,312.43119120597845L700.7696643634259,139.71809228261318L701.1194123194445,231.6699890295665L702.1846143990741,227.9146659374238L703.4716595398148,234.80440457661953L704.5053552574075,154.91763631502798L704.6221543305556,206.8429696559907L705.0984744828704,243.89378905296334L706.2560769995371,282.28577454884856L707.0683738888889,239.63648955027267L707.5180058972222,300.8780467510224L708.3477303837964,148.2384928067526L709.5172588444445,181.20373765627554L709.7543766819444,209.82393503189095L709.8666992546297,288.7492465972901L710.336629287963,196.99576179186508L710.5633589106482,213.71573885281887L710.8003058893519,200.44766545295724L710.9155672333334,235.11507590611782L711.1632441444445,-48.06793252627044L712.4427714981482,276.45307262738555L715.4952322375,210.70286512374886L716.436971750926,170.0794704755148L716.7890092148149,212.09029833475753L717.0267421439814,159.78453040122994L717.1431653277779,214.86371437708542L717.9716254592593,375.25540272394824L718.4487315620371,137.2807292143505L718.6703012490741,228.1822609901429L719.0181014148149,179.5739459991456L721.2507133060185,4.986376365025946L722.0480771365741,279.73339637120574L722.281094362963,250.18336057662972L722.6356263652779,166.05495691299447L723.8051206541668,315.29221018155425L725.2272467592593,214.48037902514145L729.6088864185185,138.29933087031057L734.2076192643519,212.1487486362458L735.3844604814815,165.5093240737916L736.9999645722222,160.30362129211434L737.591341037963,193.8294378916423L737.8334479523148,111.0645361741385L739.3609939347223,266.69404784838366L741.2417050490741,165.3484769662222L741.5961687078703,190.35229762395232L742.4376482796296,163.2441210746766L742.7837740291667,282.5288581848145L743.5906034370371,282.1791716416678L744.4012600819444,229.3830303351085L744.7658385814815,25.32635609308888L745.5841838722222,151.03569507598885L745.9403902907408,210.02785841623947L746.7596582189816,177.85510102907827L746.9937347699075,209.9280722935995L747.3394504583333,288.19520155588793L747.4564203902778,202.1369226773581L747.5728777458334,209.636836051941L747.6819540013889,344.7885819276175L748.5088080601853,209.52022552490243L749.3255472782408,172.3851390679678L750.377114825926,177.6780096689861L750.8514188444444,149.43360567092904L751.3264404699074,-31.1866732438404L753.6270541620371,246.71608289082852L755.0329828532407,327.1818427244823L756.3229667652778,173.584167957306L758.3262178083334,-26.623198588689032L759.4773618625001,224.3697929382325L760.2933493018519,250.40033737818405L760.6382106962963,344.13054466247564L761.7931819875,214.33679143587753L761.9057437625,286.2149981657665L762.1525322078704,231.05691353480026L762.8469023560185,383.11733086903894L763.6583107796297,270.1508828004202L766.6991531208334,269.88720377286285L769.6489960671296,169.60244059562692L771.3173296976853,223.36772561073312L771.9100388620371,175.42963107426968L772.2633065092592,221.2284155686697L773.2198423944445,164.98907287915554L773.9244640703704,194.01755213737496L775.1995832671296,199.8883990446727L776.2326980648148,248.57924064000454L777.0649854333334,172.2106583913168L777.7676251472222,148.9280033111573L778.2396396578704,178.28629891077688L778.4690005060186,154.59637721379605L778.5783843074074,338.5407813390097L782.0960593773148,206.39465729395553L782.5628456087964,325.8863635857901L782.681558300463,177.31541474660244L783.5007237134259,195.1539246241252L783.6155408245371,246.90086126327523L785.5851326847222,210.87720076243087L786.2822024018519,185.33035794893905L786.5161422657408,177.12106386820486L786.6454482027779,-13.898872534433892L787.9418905773148,146.12601478894558L788.3047263171296,130.11019706726083L789.9529669532408,124.89303628603626L790.4215642879631,280.52341818809515L790.6565976481482,223.39774847030648L792.0563412509259,178.33285609881094L792.99216905,202.12401429812118L793.5885687643519,109.72075939178475L793.8141365472222,196.07955694198617L794.0434290518518,292.11876869201666L797.0789747703705,168.72713645299282L799.066951037037,143.7904683748882L800.462354826389,271.6054685910544L800.5814775791667,168.34481636683157L801.3794565013889,231.02021892865505L802.0894773152778,201.86758716901153L803.1417966416667,208.44883004824325L803.2618762037038,153.44608108202627L803.7404175203704,146.80363217989614L804.2058368814816,202.00609842936203L804.6754251972222,155.12605587641409L805.0254123555555,227.3552544911703L805.252825413426,192.74266839027413L805.8474481962963,166.15778883298245L806.7975939625001,206.08036001523342L808.8965259314815,226.2860345840455L810.0460297412037,302.8821814060212L810.2940825416667,154.95128512382516L812.5460698203705,121.61778887112946L813.5073214083334,-153.2088569800058L813.6255898671296,179.18959538141897L813.970827150926,242.7456684907278L815.5793260310186,228.44869573911038L817.2165291888889,214.00653998057052L817.6863908787037,184.51495448748275L817.8042492763889,188.69944492975876L817.9217317847223,197.14283029238388L819.4431610222223,170.81988930702218L820.1487736791668,204.24708008766183L820.7431572597222,-64.95151241620368L820.8572225921297,256.01635257403063L821.0930419027778,234.30851976076767L821.4421405953703,181.5306532382966L821.6798051810185,178.22378754615792L822.0230263310186,361.9589018821717L823.3020752800926,251.94702227910366L826.3879218282408,234.12040551503506L828.500522500926,156.54235164324453L830.2663823324075,158.30354770024624L830.6131231736111,222.73071885108956L830.7416089884259,0.6036190191905649L831.2157421481481,130.55952469507864L831.4507413365742,163.1569532553356L832.6211582629629,214.4908217589061L834.2451369500001,174.2749838034313L835.8910197347222,150.60101628303536L836.361804062037,177.0074991385143L836.7173953888889,181.0072112083436L836.8382950731483,132.93060541152963L840.0321243805556,155.71099400520333L840.7499705273149,166.89994812011727L841.0911072,345.16437530517584L842.1320131587963,191.9068145751954L842.8346528726853,165.33469835917165L843.4171105092594,262.2220921516419L843.5314492157408,253.92113407452908L843.6467789032407,231.2474934260051L843.8891933634259,-74.11428610483794L844.9407950828704,208.25288375218716L845.2926275162038,261.4384520053864L845.5330258425926,161.13048275311795L846.0044594333334,173.2949622472128L847.4119258537038,362.28103121121734L847.6415259041668,242.47386733690902L847.9827650921296,303.22026491165167L848.5625573314816,273.94638140996307L849.0342984680556,173.12526782353726L850.9011016763889,213.08612902959194L851.0172173143519,221.36866728464767L851.4900861189815,147.7959819634756L852.5314363106481,265.35578250885015L855.1447557717593,117.26447423299165" style="fill: none;" fill="none"></path></g></g></g></g></g></g><g transform="translate(51, 365)" clip-path="url(#clip_1)"><clipPath id="clip_1"><rect width="922" height="35"></rect></clipPath><g><g visibility="inherit"><g><g transform="translate(0,0)" style="visibility: inherit;"><text transform="translate(3,14)" style="text-anchor: start; font-family: Roboto, sans-serif; font-size: 12px; font-weight: 200;" fill="rgb(255, 255, 255)" stroke="none" stroke-width="1px">09:00 AM</text></g><g transform="translate(61.509166666666665,0)" style="visibility: inherit;"><text transform="translate(3,14)" style="text-anchor: start; font-family: Roboto, sans-serif; font-size: 12px; font-weight: 200;" fill="rgb(255, 255, 255)" stroke="none" stroke-width="1px">09:30 AM</text></g><g transform="translate(123.01833333333333,0)" style="visibility: inherit;"><text transform="translate(3,14)" style="text-anchor: start; font-family: Roboto, sans-serif; font-size: 12px; font-weight: 200;" fill="rgb(255, 255, 255)" stroke="none" stroke-width="1px">10:00 AM</text></g><g transform="translate(184.52750000000003,0)" style="visibility: inherit;"><text transform="translate(3,14)" style="text-anchor: start; font-family: Roboto, sans-serif; font-size: 12px; font-weight: 200;" fill="rgb(255, 255, 255)" stroke="none" stroke-width="1px">10:30 AM</text></g><g transform="translate(246.03666666666666,0)" style="visibility: inherit;"><text transform="translate(3,14)" style="text-anchor: start; font-family: Roboto, sans-serif; font-size: 12px; font-weight: 200;" fill="rgb(255, 255, 255)" stroke="none" stroke-width="1px">11:00 AM</text></g><g transform="translate(307.54583333333335,0)" style="visibility: inherit;"><text transform="translate(3,14)" style="text-anchor: start; font-family: Roboto, sans-serif; font-size: 12px; font-weight: 200;" fill="rgb(255, 255, 255)" stroke="none" stroke-width="1px">11:30 AM</text></g><g transform="translate(369.05500000000006,0)" style="visibility: inherit;"><text transform="translate(3,14)" style="text-anchor: start; font-family: Roboto, sans-serif; font-size: 12px; font-weight: 200;" fill="rgb(255, 255, 255)" stroke="none" stroke-width="1px">12:00 PM</text></g><g transform="translate(430.5641666666667,0)" style="visibility: inherit;"><text transform="translate(3,14)" style="text-anchor: start; font-family: Roboto, sans-serif; font-size: 12px; font-weight: 200;" fill="rgb(255, 255, 255)" stroke="none" stroke-width="1px">12:30 PM</text></g><g transform="translate(492.0733333333333,0)" style="visibility: inherit;"><text transform="translate(3,14)" style="text-anchor: start; font-family: Roboto, sans-serif; font-size: 12px; font-weight: 200;" fill="rgb(255, 255, 255)" stroke="none" stroke-width="1px">01:00 PM</text></g><g transform="translate(553.5825,0)" style="visibility: inherit;"><text transform="translate(3,14)" style="text-anchor: start; font-family: Roboto, sans-serif; font-size: 12px; font-weight: 200;" fill="rgb(255, 255, 255)" stroke="none" stroke-width="1px">01:30 PM</text></g><g transform="translate(615.0916666666667,0)" style="visibility: inherit;"><text transform="translate(3,14)" style="text-anchor: start; font-family: Roboto, sans-serif; font-size: 12px; font-weight: 200;" fill="rgb(255, 255, 255)" stroke="none" stroke-width="1px">02:00 PM</text></g><g transform="translate(676.6008333333333,0)" style="visibility: inherit;"><text transform="translate(3,14)" style="text-anchor: start; font-family: Roboto, sans-serif; font-size: 12px; font-weight: 200;" fill="rgb(255, 255, 255)" stroke="none" stroke-width="1px">02:30 PM</text></g><g transform="translate(738.1100000000001,0)" style="visibility: inherit;"><text transform="translate(3,14)" style="text-anchor: start; font-family: Roboto, sans-serif; font-size: 12px; font-weight: 200;" fill="rgb(255, 255, 255)" stroke="none" stroke-width="1px">03:00 PM</text></g><g transform="translate(799.6191666666667,0)" style="visibility: inherit;"><text transform="translate(3,14)" style="text-anchor: start; font-family: Roboto, sans-serif; font-size: 12px; font-weight: 200;" fill="rgb(255, 255, 255)" stroke="none" stroke-width="1px">03:30 PM</text></g><g transform="translate(861.1283333333334,0)" style="visibility: inherit;"><text transform="translate(3,14)" style="text-anchor: start; font-family: Roboto, sans-serif; font-size: 12px; font-weight: 200;" fill="rgb(255, 255, 255)" stroke="none" stroke-width="1px">04:00 PM</text></g><g transform="translate(922.6375,0)" style="visibility: hidden;"><text transform="translate(3,14)" style="text-anchor: start; font-family: Roboto, sans-serif; font-size: 12px; font-weight: 200;" fill="rgb(255, 255, 255)" stroke="none" stroke-width="1px">04:30 PM</text></g></g><g><line x1="0" y1="0" x2="0" y2="17" fill="rgb(0, 0, 0)" stroke="rgb(204, 204, 204)" stroke-width="1px"></line><line x1="61.509166666666665" y1="0" x2="61.509166666666665" y2="17" fill="rgb(0, 0, 0)" stroke="rgb(204, 204, 204)" stroke-width="1px"></line><line x1="123.01833333333333" y1="0" x2="123.01833333333333" y2="17" fill="rgb(0, 0, 0)" stroke="rgb(204, 204, 204)" stroke-width="1px"></line><line x1="184.52750000000003" y1="0" x2="184.52750000000003" y2="17" fill="rgb(0, 0, 0)" stroke="rgb(204, 204, 204)" stroke-width="1px"></line><line x1="246.03666666666666" y1="0" x2="246.03666666666666" y2="17" fill="rgb(0, 0, 0)" stroke="rgb(204, 204, 204)" stroke-width="1px"></line><line x1="307.54583333333335" y1="0" x2="307.54583333333335" y2="17" fill="rgb(0, 0, 0)" stroke="rgb(204, 204, 204)" stroke-width="1px"></line><line x1="369.05500000000006" y1="0" x2="369.05500000000006" y2="17" fill="rgb(0, 0, 0)" stroke="rgb(204, 204, 204)" stroke-width="1px"></line><line x1="430.5641666666667" y1="0" x2="430.5641666666667" y2="17" fill="rgb(0, 0, 0)" stroke="rgb(204, 204, 204)" stroke-width="1px"></line><line x1="492.0733333333333" y1="0" x2="492.0733333333333" y2="17" fill="rgb(0, 0, 0)" stroke="rgb(204, 204, 204)" stroke-width="1px"></line><line x1="553.5825" y1="0" x2="553.5825" y2="17" fill="rgb(0, 0, 0)" stroke="rgb(204, 204, 204)" stroke-width="1px"></line><line x1="615.0916666666667" y1="0" x2="615.0916666666667" y2="17" fill="rgb(0, 0, 0)" stroke="rgb(204, 204, 204)" stroke-width="1px"></line><line x1="676.6008333333333" y1="0" x2="676.6008333333333" y2="17" fill="rgb(0, 0, 0)" stroke="rgb(204, 204, 204)" stroke-width="1px"></line><line x1="738.1100000000001" y1="0" x2="738.1100000000001" y2="17" fill="rgb(0, 0, 0)" stroke="rgb(204, 204, 204)" stroke-width="1px"></line><line x1="799.6191666666667" y1="0" x2="799.6191666666667" y2="17" fill="rgb(0, 0, 0)" stroke="rgb(204, 204, 204)" stroke-width="1px"></line><line x1="861.1283333333334" y1="0" x2="861.1283333333334" y2="17" fill="rgb(0, 0, 0)" stroke="rgb(204, 204, 204)" stroke-width="1px"></line><line x1="922.6375" y1="0" x2="922.6375" y2="17" fill="rgb(0, 0, 0)" stroke="rgb(204, 204, 204)" stroke-width="1px"></line></g><line x1="0" y1="0" x2="922.6375" y2="0" style="visibility: inherit;" fill="rgb(0, 0, 0)" stroke="rgb(204, 204, 204)" stroke-width="1px"></line></g><g visibility="inherit"><g><g transform="translate(461.31875,0)" style="visibility: inherit;"><text transform="translate(0,31)" style="text-anchor: middle; font-family: Roboto, sans-serif; font-size: 12px; font-weight: 200;" fill="rgb(255, 255, 255)" stroke="none" stroke-width="1px">November  9, 2024</text></g></g><g><line x1="0" y1="17" x2="0" y2="34" fill="rgb(0, 0, 0)" stroke="rgb(204, 204, 204)" stroke-width="1px"></line><line x1="922.6375" y1="17" x2="922.6375" y2="34" fill="rgb(0, 0, 0)" stroke="rgb(204, 204, 204)" stroke-width="1px"></line></g><line x1="0" y1="17" x2="922.6375" y2="17" style="visibility: inherit;" fill="rgb(0, 0, 0)" stroke="rgb(204, 204, 204)" stroke-width="1px"></line></g></g></g></g></g></svg>