<svg viewBox="0 0 974.2000122070312 400" xmlns="http://www.w3.org/2000/svg"><g><g><g><g><g><line x1="50" y1="377" x2="45" y2="377" style="visibility: inherit;" fill="rgb(0, 0, 0)" stroke="rgb(204, 204, 204)" stroke-width="1px"></line><line x1="50" y1="348" x2="45" y2="348" style="visibility: inherit;" fill="rgb(0, 0, 0)" stroke="rgb(204, 204, 204)" stroke-width="1px"></line><line x1="50" y1="319" x2="45" y2="319" style="visibility: inherit;" fill="rgb(0, 0, 0)" stroke="rgb(204, 204, 204)" stroke-width="1px"></line><line x1="50" y1="290" x2="45" y2="290" style="visibility: inherit;" fill="rgb(0, 0, 0)" stroke="rgb(204, 204, 204)" stroke-width="1px"></line><line x1="50" y1="261" x2="45" y2="261" style="visibility: inherit;" fill="rgb(0, 0, 0)" stroke="rgb(204, 204, 204)" stroke-width="1px"></line><line x1="50" y1="232" x2="45" y2="232" style="visibility: inherit;" fill="rgb(0, 0, 0)" stroke="rgb(204, 204, 204)" stroke-width="1px"></line><line x1="50" y1="203" x2="45" y2="203" style="visibility: inherit;" fill="rgb(0, 0, 0)" stroke="rgb(204, 204, 204)" stroke-width="1px"></line><line x1="50" y1="174" x2="45" y2="174" style="visibility: inherit;" fill="rgb(0, 0, 0)" stroke="rgb(204, 204, 204)" stroke-width="1px"></line><line x1="50" y1="145" x2="45" y2="145" style="visibility: inherit;" fill="rgb(0, 0, 0)" stroke="rgb(204, 204, 204)" stroke-width="1px"></line><line x1="50" y1="116" x2="45" y2="116" style="visibility: inherit;" fill="rgb(0, 0, 0)" stroke="rgb(204, 204, 204)" stroke-width="1px"></line><line x1="50" y1="86.99999999999999" x2="45" y2="86.99999999999999" style="visibility: inherit;" fill="rgb(0, 0, 0)" stroke="rgb(204, 204, 204)" stroke-width="1px"></line><line x1="50" y1="58" x2="45" y2="58" style="visibility: inherit;" fill="rgb(0, 0, 0)" stroke="rgb(204, 204, 204)" stroke-width="1px"></line><line x1="50" y1="28.999999999999982" x2="45" y2="28.999999999999982" style="visibility: inherit;" fill="rgb(0, 0, 0)" stroke="rgb(204, 204, 204)" stroke-width="1px"></line><line x1="50" y1="0" x2="45" y2="0" style="visibility: inherit;" fill="rgb(0, 0, 0)" stroke="rgb(204, 204, 204)" stroke-width="1px"></line></g><g transform="translate(40, 0)"><text x="0" y="377" dx="0em" dy="0.3em" style="text-anchor: end; visibility: hidden; font-family: Roboto, sans-serif; font-size: 12px; font-weight: 200;" fill="rgb(255, 255, 255)" stroke="none" stroke-width="1px">3.26</text><text x="0" y="348" dx="0em" dy="0.3em" style="text-anchor: end; visibility: inherit; font-family: Roboto, sans-serif; font-size: 12px; font-weight: 200;" fill="rgb(255, 255, 255)" stroke="none" stroke-width="1px">3.28</text><text x="0" y="319" dx="0em" dy="0.3em" style="text-anchor: end; visibility: inherit; font-family: Roboto, sans-serif; font-size: 12px; font-weight: 200;" fill="rgb(255, 255, 255)" stroke="none" stroke-width="1px">3.3</text><text x="0" y="290" dx="0em" dy="0.3em" style="text-anchor: end; visibility: inherit; font-family: Roboto, sans-serif; font-size: 12px; font-weight: 200;" fill="rgb(255, 255, 255)" stroke="none" stroke-width="1px">3.32</text><text x="0" y="261" dx="0em" dy="0.3em" style="text-anchor: end; visibility: inherit; font-family: Roboto, sans-serif; font-size: 12px; font-weight: 200;" fill="rgb(255, 255, 255)" stroke="none" stroke-width="1px">3.34</text><text x="0" y="232" dx="0em" dy="0.3em" style="text-anchor: end; visibility: inherit; font-family: Roboto, sans-serif; font-size: 12px; font-weight: 200;" fill="rgb(255, 255, 255)" stroke="none" stroke-width="1px">3.36</text><text x="0" y="203" dx="0em" dy="0.3em" style="text-anchor: end; visibility: inherit; font-family: Roboto, sans-serif; font-size: 12px; font-weight: 200;" fill="rgb(255, 255, 255)" stroke="none" stroke-width="1px">3.38</text><text x="0" y="174" dx="0em" dy="0.3em" style="text-anchor: end; visibility: inherit; font-family: Roboto, sans-serif; font-size: 12px; font-weight: 200;" fill="rgb(255, 255, 255)" stroke="none" stroke-width="1px">3.4</text><text x="0" y="145" dx="0em" dy="0.3em" style="text-anchor: end; visibility: inherit; font-family: Roboto, sans-serif; font-size: 12px; font-weight: 200;" fill="rgb(255, 255, 255)" stroke="none" stroke-width="1px">3.42</text><text x="0" y="116" dx="0em" dy="0.3em" style="text-anchor: end; visibility: inherit; font-family: Roboto, sans-serif; font-size: 12px; font-weight: 200;" fill="rgb(255, 255, 255)" stroke="none" stroke-width="1px">3.44</text><text x="0" y="86.99999999999999" dx="0em" dy="0.3em" style="text-anchor: end; visibility: inherit; font-family: Roboto, sans-serif; font-size: 12px; font-weight: 200;" fill="rgb(255, 255, 255)" stroke="none" stroke-width="1px">3.46</text><text x="0" y="58" dx="0em" dy="0.3em" style="text-anchor: end; visibility: inherit; font-family: Roboto, sans-serif; font-size: 12px; font-weight: 200;" fill="rgb(255, 255, 255)" stroke="none" stroke-width="1px">3.48</text><text x="0" y="28.999999999999982" dx="0em" dy="0.3em" style="text-anchor: end; visibility: inherit; font-family: Roboto, sans-serif; font-size: 12px; font-weight: 200;" fill="rgb(255, 255, 255)" stroke="none" stroke-width="1px">3.5</text><text x="0" y="0" dx="0em" dy="0.3em" style="text-anchor: end; visibility: hidden; font-family: Roboto, sans-serif; font-size: 12px; font-weight: 200;" fill="rgb(255, 255, 255)" stroke="none" stroke-width="1px">3.52</text></g><line x1="50" y1="0" x2="50" y2="377" fill="rgb(0, 0, 0)" stroke="rgb(204, 204, 204)" stroke-width="1px"></line></g></g><g transform="translate(50, 0)" clip-path="url(#clip_0)"><clipPath id="clip_0"><rect width="455" height="377"></rect></clipPath><g><g><g><line x1="0" y1="0" x2="0" y2="377" fill="rgb(0, 0, 0)" stroke="rgb(189, 189, 189)" stroke-width="1px" opacity="0.25"></line><line x1="56.875" y1="0" x2="56.875" y2="377" fill="rgb(0, 0, 0)" stroke="rgb(189, 189, 189)" stroke-width="1px" opacity="0.25"></line><line x1="113.75" y1="0" x2="113.75" y2="377" fill="rgb(0, 0, 0)" stroke="rgb(189, 189, 189)" stroke-width="1px" opacity="0.25"></line><line x1="170.625" y1="0" x2="170.625" y2="377" fill="rgb(0, 0, 0)" stroke="rgb(189, 189, 189)" stroke-width="1px" opacity="0.25"></line><line x1="227.5" y1="0" x2="227.5" y2="377" fill="rgb(0, 0, 0)" stroke="rgb(189, 189, 189)" stroke-width="1px" opacity="0.25"></line><line x1="284.375" y1="0" x2="284.375" y2="377" fill="rgb(0, 0, 0)" stroke="rgb(189, 189, 189)" stroke-width="1px" opacity="0.25"></line><line x1="341.25" y1="0" x2="341.25" y2="377" fill="rgb(0, 0, 0)" stroke="rgb(189, 189, 189)" stroke-width="1px" opacity="0.25"></line><line x1="398.125" y1="0" x2="398.125" y2="377" fill="rgb(0, 0, 0)" stroke="rgb(189, 189, 189)" stroke-width="1px" opacity="0.25"></line><line x1="455" y1="0" x2="455" y2="377" fill="rgb(0, 0, 0)" stroke="rgb(189, 189, 189)" stroke-width="1px" opacity="0.25"></line></g><g><line x1="0" y1="377" x2="455" y2="377" fill="rgb(0, 0, 0)" stroke="rgb(189, 189, 189)" stroke-width="1px" opacity="0.25"></line><line x1="0" y1="348" x2="455" y2="348" fill="rgb(0, 0, 0)" stroke="rgb(189, 189, 189)" stroke-width="1px" opacity="0.25"></line><line x1="0" y1="319" x2="455" y2="319" fill="rgb(0, 0, 0)" stroke="rgb(189, 189, 189)" stroke-width="1px" opacity="0.25"></line><line x1="0" y1="290" x2="455" y2="290" fill="rgb(0, 0, 0)" stroke="rgb(189, 189, 189)" stroke-width="1px" opacity="0.25"></line><line x1="0" y1="261" x2="455" y2="261" fill="rgb(0, 0, 0)" stroke="rgb(189, 189, 189)" stroke-width="1px" opacity="0.25"></line><line x1="0" y1="232" x2="455" y2="232" fill="rgb(0, 0, 0)" stroke="rgb(189, 189, 189)" stroke-width="1px" opacity="0.25"></line><line x1="0" y1="203" x2="455" y2="203" fill="rgb(0, 0, 0)" stroke="rgb(189, 189, 189)" stroke-width="1px" opacity="0.25"></line><line x1="0" y1="174" x2="455" y2="174" fill="rgb(0, 0, 0)" stroke="rgb(189, 189, 189)" stroke-width="1px" opacity="0.25"></line><line x1="0" y1="145" x2="455" y2="145" fill="rgb(0, 0, 0)" stroke="rgb(189, 189, 189)" stroke-width="1px" opacity="0.25"></line><line x1="0" y1="116" x2="455" y2="116" fill="rgb(0, 0, 0)" stroke="rgb(189, 189, 189)" stroke-width="1px" opacity="0.25"></line><line x1="0" y1="86.99999999999999" x2="455" y2="86.99999999999999" fill="rgb(0, 0, 0)" stroke="rgb(189, 189, 189)" stroke-width="1px" opacity="0.25"></line><line x1="0" y1="58" x2="455" y2="58" fill="rgb(0, 0, 0)" stroke="rgb(189, 189, 189)" stroke-width="1px" opacity="0.25"></line><line x1="0" y1="28.999999999999982" x2="455" y2="28.999999999999982" fill="rgb(0, 0, 0)" stroke="rgb(189, 189, 189)" stroke-width="1px" opacity="0.25"></line><line x1="0" y1="0" x2="455" y2="0" fill="rgb(0, 0, 0)" stroke="rgb(189, 189, 189)" stroke-width="1px" opacity="0.25"></line></g></g></g><g><g><line x1="0" y1="5103.999999999995" x2="455" y2="5103.999999999995" fill="rgb(0, 0, 0)" stroke="rgb(153, 153, 153)" stroke-width="1.5px"></line></g></g><g><g><line x1="56.875" y1="0" x2="56.875" y2="377" fill="rgb(0, 0, 0)" stroke="rgb(153, 153, 153)" stroke-width="1.5px"></line></g></g><g><g><g><g><g><path stroke="rgb(255, 112, 67)" stroke-width="2px" d="M57.1025,52.99724721908566L57.89875,137.43962430953906L58.35375,334.2837447244291L58.410624999999996,219.34080755184593L59.15,233.07937720448933L59.548125,224.1506948368625L59.605000000000004,158.6097177065036L60.401250000000005,142.92046325125915L60.458124999999995,118.77774770026748L60.685624999999995,92.60626592693576L60.913124999999994,120.70646782754922L61.254374999999996,135.00002869444214L61.53875000000001,167.75398981999322L61.936875,165.76377945545133L62.505625,144.57053689185534L62.733125,128.14537045248935L62.960625,209.25638569306957L63.756875,148.26211495161567L63.984375,159.42312909380053L64.04124999999999,139.28454851412874L64.15499999999999,161.8208940880699L64.26875,157.35404820846634L64.61,110.70150599145977L65.065,81.30553336377515L65.235625,93.89148492036004L65.80437500000001,161.9914942018236L65.975,98.66796918413623L66.08874999999999,-88.4343006196913L66.2025,75.67190540241742L66.6575,95.50328495475246L66.941875,114.42881178582773L67.738125,-86.73425363474031L68.420625,27.886079116476573L68.534375,155.70294801461947L68.98937500000001,116.74261622251248L69.899375,119.9432611117349L70.7525,165.9574621932008L70.809375,-85.73480344196436L71.54875,14.3670725645786L71.60562499999999,78.24134557572988L72.288125,166.1427736100927L72.45875,-60.09301998670014L72.91375000000001,39.53468085748565L73.084375,42.7338715643622L73.36875,193.9011563130949L73.653125,120.11402695128506L74.3925,126.30666556827988L74.8475,149.1965384421286L74.96125,129.1340134580732L75.018125,120.3451757215621L75.18875,292.3669856904244L76.496875,280.80716536746814L76.55375000000001,315.71550287196953L77.23625000000001,307.1357498966956L77.5775,269.52352738397707L77.634375,269.040921163662L77.69125000000001,252.45086037641656L78.37374999999999,359.06104528622785L78.82875,320.5962642414361L79.05624999999999,260.7307201613746L79.16999999999999,221.6379422896948L79.454375,332.2051122518705L79.73875,251.79323317601188L79.85249999999999,165.88410030599618L80.478125,166.3326677489058L80.81937500000001,126.24868168877141L80.87625,141.26123827962047L81.6725,113.19751082818499L81.729375,73.13163992739207L81.843125,190.33870800123418L82.24125,167.1976206289874L82.5825,233.03672213477762L83.094375,174.32152268363714L83.321875,170.57994421168436L83.49249999999999,146.6432694902677L83.60625,126.73571049634617L83.83375,113.97738096394511L83.890625,116.86533864306405L84.175,110.75900096873609L84.231875,111.4916226576579L84.573125,146.85381930534857L85.88125,127.71842561641198L85.995,124.1473790316511L86.051875,131.25559222154214L86.10875,134.23836223752693L86.27937499999999,176.65965228361702L86.393125,-71.04583784888509L87.189375,32.67190486818355L87.24625,253.35926226752886L87.36,310.3338591335882L87.47375,284.28651199809696L87.5875,288.45936752600704L87.815,231.26308770920755L87.92875000000001,163.46000735727515L88.27,182.8280077026338L88.4975,182.5148660687234L88.83875,369.5429148881206L88.9525,263.93768359473785L89.18,201.07789412290725L90.09,198.70917219609498L90.43125,162.70549103433163L90.65875,228.0117944527518L90.77250000000001,205.6289041786702L91.739375,258.9785498588865L91.79625,212.03191446123017L92.25125000000001,203.1488491467091L92.308125,265.1064407212407L92.59249999999999,212.64734488623608L92.649375,163.49492357908073L93.104375,9.986360923876363L93.445625,186.62149108435472L93.5025,178.39579256168392L93.786875,261.0403867232279L94.29875,171.14199860498118L94.810625,126.13796901467342L95.265625,172.2381875977687L95.32249999999999,159.9845166007144L96.2325,-40.2718817830405L96.34625,35.32613217590348L97.88187500000001,69.03046820019549L97.995625,162.11827462586686L98.109375,286.0687263111645L98.28,330.8762140810708L98.450625,356.57230456711187L98.5075,230.12040433908356L99.19,186.96890493407727L100.3275,262.8006129036833L100.953125,310.29934490743204L101.01,306.5522853197038L101.35125000000001,367.66756828197117L101.6925,309.7164720986378L102.6025,366.9960949596221L102.659375,307.1371554956708L102.773125,260.15488298093516L103.455625,198.93847612950333L104.19500000000001,246.8346486354653L104.65,237.99760314612314L104.82062499999999,198.86477129929506L105.616875,184.52708478732822L105.90125,245.9435415981048L106.12875000000001,227.41171707617224L106.413125,214.5869043225462L107.26625,172.94235064711665L107.891875,149.34743458107977L108.119375,160.73905748174096L109.76875,131.98709713247743L109.8825,124.98723794715023L110.45125,204.07102814731851L110.84937500000001,167.61878113399652L111.64562500000001,96.40509627133994L112.555625,133.70804189366353L112.72625,145.53800377084215L113.40875,163.62641935845264L113.69312500000001,136.5642675238849L113.86374999999998,149.7700067805052L113.9775,101.68394792358876L114.603125,192.46240141559088L115.00124999999998,188.39700185399343L115.22874999999999,255.13040196383636L115.3425,350.7066024987978L115.85437499999999,277.29821439081917L116.935,191.16488272842435L117.73124999999999,-16.08932357491989L117.78812500000001,107.18886324487913L117.901875,174.6434862895176L118.129375,109.76691014071473L118.64124999999999,166.7071582227957L119.32374999999999,207.53598373830408L119.55125,159.8164821726089L119.665,242.6160842574834L119.83562500000001,191.17946958525195L119.949375,296.79872865666886L120.06312500000001,221.65546972268797L120.631875,228.1962824744822L120.859375,194.2694555808802L121.25750000000001,163.7150047236499L121.37124999999999,175.92332980715184L121.65562499999999,137.21122311164703L122.05375,139.50363053446867L122.33812499999999,146.50109952429443L122.39500000000001,132.8662192925188L123.07750000000001,204.8854292454938L123.64625,242.72038260833108L123.76,278.6498998149378L123.816875,365.89538575077904L124.215,160.23329124966222L124.499375,144.21800304722134L124.726875,123.95275941652848L124.78375,229.38430766560313L125.46625,216.72295043645948L125.92125,216.4721320019882L126.14874999999999,315.7024297444059L126.43312499999999,242.19598406124288L126.546875,260.1967089746486L127.62750000000001,430.48433893764525L127.74125,452.4370043864514L128.025625,291.31879061404874L128.08249999999998,212.99093428816798L128.19625,445.74456286171863L128.366875,366.3644285663353L128.594375,356.67242987539663L128.935625,302.0981707548283L129.163125,314.24960756153916L129.4475,232.50558328539748L129.78875,186.22371797508356L129.959375,166.1457485005046L130.24375,165.49982855586921L130.69875,-6.784691298790272L130.92625,107.89274971199735L131.15375,136.14281211204957L131.665625,178.13074380104302L132.06375,106.54699352946626L132.234375,152.2315776560704L132.29125,-30.577222000718244L132.803125,-11.869710046743927L133.37187500000002,74.95523524362144L134.225,129.6896057610416L134.4525,128.5979856779996L135.078125,115.25473924462945L135.135,71.32181994906075L135.36249999999998,121.2374647187649L136.10187499999998,93.73021992012599L137.466875,107.99558835008621L138.66125,238.56571276652105L138.71812500000001,149.23522004882838L139.28687499999998,196.66742673754914L139.741875,214.81624869847403L139.79875,166.72724654879642L139.96937499999999,122.34178558949472L140.70875,168.2949997899766L140.8225,192.9599477957389L141.448125,206.84652684394734L141.61875,194.7087515250698L141.84625000000003,168.37099638318148L142.30124999999998,115.78000845155195L142.699375,160.8152670719684L142.75625,385.48758916011167L142.926875,283.0346605059547L143.0975,358.00886908036733L143.78,274.24839624680436L144.12124999999997,304.04055443356816L144.34875,280.2742039141083L144.9175,271.66089418989606L145.08812500000002,252.74511134303938L145.884375,287.3037255506354L146.055,239.77615489367426L146.339375,239.7204202997908L146.51,173.54425359894182L147.021875,215.42373195367668L147.6475,179.14487809585125L147.931875,172.42743341116113L148.045625,255.2908207415818L149.41062499999998,221.97765177722442L149.865625,177.7469821109513L149.979375,143.2772334178773L150.15,162.96676405432729L150.49125,170.5201283941439L150.548125,139.43465241490455L150.94625,158.72525659023918L151.40125,245.41454638731005L151.62875,231.71669829899972L151.85625,260.78262117513896L152.254375,342.3271658599907L152.368125,331.7046277630646L152.709375,36.66608682324371L153.22125,64.59933165937613L153.67625,255.37473857539845L153.79000000000002,217.94340584360378L153.960625,375.3317274432343L154.13125,256.2227882969955L154.18812499999999,216.21025703123644L154.58625,253.68782375914662L154.870625,238.79362553753148L155.26875,186.13430539606662L155.780625,191.08394703768863L156.008125,198.48555670680526L156.12187500000002,40.05789877475474L156.63375,85.35320506990627L157.259375,96.4084148556029L157.828125,257.9866996854558L157.941875,325.9390912681825L158.33999999999997,214.06694578111225L158.62437500000001,187.8577982364892L158.795,219.9336231099846L159.25,156.36847769899896L160.330625,115.31010277082773L160.95625,160.61643161183764L161.923125,177.9879597056275L162.150625,165.80980138947754L162.6625,226.20172842127164L162.946875,263.91028761733793L163.00375,198.21117196005156L163.060625,263.2198126883602L164.255,234.72571714945389L164.880625,239.0048730386953L165.05125,186.21320805631055L165.39249999999998,233.0644341569062L165.44937499999997,178.1046961463045L165.96125,101.21508361795811L166.3025,177.69015418231015L166.359375,264.78830362999093L166.98499999999999,192.40449214961328L167.2125,182.7676117478981L167.496875,189.62784800882145L167.610625,165.08834153386934L168.1225,194.65840843899815L168.35,155.13243462791291L168.40687499999999,191.48370767921284L168.520625,147.11468578153867L168.5775,148.64681611522468L168.69125000000003,98.72836772241824L169.31687499999998,109.90176653646593L169.430625,100.34734673370853L169.885625,105.22098376196554L169.9425,161.22127586508915L170.113125,190.53551477137304L172.10375,234.56234203543127L173.298125,232.70057870606104L173.753125,187.4812715629313L174.43562500000002,191.81731575605704L174.60625,208.73203927205483L175.11812500000002,218.0636221762089L175.686875,210.6374406931153L176.141875,179.36731873258069L176.3125,191.4667806285867L176.483125,334.48211591590956L176.824375,238.6857920715185L177.10875,180.30667063170554L177.165625,207.09630020006804L177.39312500000003,421.50297894206244L177.45000000000002,349.3483650095857L177.84812499999998,354.8984559182879L178.530625,261.93419321802605L179.66812499999997,270.3650300528248L180.236875,287.60002198372126L181.260625,405.8653306874859L181.65875,296.83205947358795L182.056875,208.64314628290762L182.511875,167.8872051754447L182.62562499999999,148.89691642039116L182.853125,120.1035894579472L183.194375,139.8425735966429L183.421875,330.1564802846945L184.0475,315.20046566257645L184.218125,281.69618386226773L184.50250000000003,186.18939992307344L185.241875,193.11671097587728L186.606875,218.1078868836828L187.971875,208.11295886818579L188.02875,285.5226411580089L188.5975,232.21056459898023L188.768125,166.81516799065096L189.05249999999998,151.00496821840153L189.5075,192.58377354883908L190.07625000000002,174.09436260189872L190.64499999999998,175.05869752482315L191.043125,201.81312169024807L192.749375,180.0490323387952L192.97687499999998,222.35513027211246L193.03375,168.94623131573329L193.26125000000002,186.7637249649765L195.138125,226.51904811985494L195.365625,164.02598766402772L195.42249999999999,174.7710657353182L195.706875,186.9347225329268L196.44625000000002,205.98211266404286L196.90125,191.54682775620182L197.071875,187.52670333554462L198.209375,480.1638859615931L198.94875000000002,462.62363170526703L199.0625,344.9810971673868L199.233125,245.83506676295622L199.34687499999998,200.81348627054174L199.40374999999997,171.64678374077985L200.029375,139.0583136984474L200.08624999999998,169.51077252082644L200.143125,212.06940487296941L200.256875,298.2731099800558L200.37062500000002,275.76389440752814L200.655,371.46345367942854L200.76874999999998,215.3694668228305L201.22375,256.694487596445L202.759375,213.78556157642166L202.81625,189.83207417424654L203.441875,303.7118633323671L203.49875,262.11613090835584L204.0675,316.54226975442515L204.124375,246.15502150536446L204.29500000000002,272.9925683002525L204.693125,292.12736108665786L205.09125,198.76762911537327L205.83062500000003,251.75982559239225L206.28562499999998,219.03668701955857L206.3425,264.84581897443013L206.740625,345.1327784406274L206.91125,276.98023850602686L206.968125,254.56923956205077L207.025,215.95752579289484L207.19562499999998,-41.093660603059426L208.27625,54.571686595622275L208.73125,88.72072039243167L208.78812499999998,90.30937429783663L208.95875,-108.59213630844386L209.356875,24.310228201811068L209.5275,27.420725544133624L209.64124999999999,115.77626268854L209.81187500000001,306.0093811559094L210.039375,174.04836398407278L210.55125,142.5809707525043L210.8925,147.62677382723484L211.176875,131.83258704719512L211.40437500000002,115.62889449821448L211.518125,179.15382080689983L212.086875,149.9258944357395L212.14375,161.57288876563103L212.37125,220.7195507490022L212.655625,215.00259951373283L212.7125,230.89454276335448L212.769375,317.00628494603717L212.94000000000003,356.35786623587165L213.451875,263.2430793454047L213.50875,187.5466696745034L213.56562499999998,200.33799039875726L213.85,312.8820150110435L214.134375,260.893945372898L214.30499999999998,364.6970361690509L214.58937500000002,258.1848499668114L214.703125,332.84725088432305L214.87375,304.22386643025243L215.271875,244.75203855474516L215.954375,220.98048186087425L216.8075,162.79589600434207L217.48999999999998,214.27827670020022L218.05875,212.35804229880688L218.28625,203.59136060419874L218.6275,12.88336307730154L219.025625,54.862883370673L219.08249999999998,162.73802592847036L219.594375,144.54184490736307L219.65125,156.26157983717874L220.73187499999997,188.5900421177005L220.78875,301.5130155584009L221.300625,320.78513496522817L221.41437499999998,220.83012371900531L222.83625,334.7359536030461L223.00687499999998,278.5888614379509L223.1775,263.3216695620504L223.51875,337.1301902671977L223.74625,271.1405968034455L223.803125,238.0208254435177L224.77,188.3491627084321L224.940625,254.87076624078145L225.33875,197.32742094899777L225.509375,201.20226406994817L225.62312500000002,204.29035258259356L225.964375,188.92824463823982L226.70375,46.91609423625204L227.2725,268.13610635559314L227.443125,299.9572259089978L227.61374999999998,224.91002604375075L228.06875,219.12193287020807L228.580625,147.65280869368257L229.43374999999997,290.23453380324503L230.17312499999997,286.04205752407364L231.25375,299.28901053067943L231.424375,242.47285910008486L232.220625,252.2666540357952L232.27749999999997,246.89666940054215L232.61875,162.78824311066194L232.96,156.45613525848697L233.35812499999997,158.54536599243383L233.415,-101.23527906939587L233.471875,-4.3545568383053075L233.58562500000002,243.25031883738524L233.81312499999999,233.44835223687934L234.040625,154.2815878268075L234.268125,148.8988673613065L234.32500000000002,174.8233927205554L234.38187500000004,216.22772207947608L234.66625000000002,266.10724596435983L234.78,219.68807175311548L235.34875,219.45440322490415L235.746875,124.6489942451233L237.339375,126.82894980787691L237.62375,130.99426014351556L238.135625,155.3654947228888L238.30625000000003,114.9978771178518L238.42000000000002,129.06213760188754L238.81812499999998,113.27479610330803L239.1025,94.62470165185245L239.55749999999998,90.19528989369883L239.78500000000003,181.53660428747705L239.841875,151.37976400986415L240.0125,174.584778838963L240.12625000000003,154.994403871066L240.524375,133.62551576624335L241.20687499999997,160.64994992452907L241.320625,173.167896971929L242.57187499999998,285.4527588282987L242.74249999999998,248.95989782780234L244.44875,262.9885252903097L244.90375,271.32522119225246L246.8375,290.632730180867L247.121875,387.8630876629631L247.7475,300.23553524548237L248.259375,247.83863312086166L248.6575,205.95696176338595L248.77124999999998,222.71671570091493L248.94187499999998,61.50713761299302L249.05562499999996,165.4003826120466L249.34000000000003,198.46615272396616L249.396875,145.34845193406215L249.85187499999998,179.81055793869638L249.90875,193.45932289187937L250.4775,226.5932735218099L250.705,249.35421240410173L251.27375,216.69724671888972L251.50124999999997,244.0778645566023L251.72875000000002,181.32524122541645L252.18375,279.85357693282026L252.46812500000001,236.20601002840576L253.32125,146.16000509541286L253.378125,166.45524568725278L253.719375,195.38479520898218L254.1175,263.265519917137L254.34500000000003,179.42482002981112L254.91375000000002,109.6449305081817L254.97062499999998,80.86145133164192L255.0275,121.61619941226633L255.08437500000002,237.45225272078522L255.42562499999997,292.50264321267144L255.539375,262.72940403520806L255.71000000000004,146.88049806535065L255.9375,142.9899269901503L256.10812500000003,104.79692460076767L256.73375,100.01317558870751L257.41625,97.6480731617571L257.928125,89.00014131374127L257.98499999999996,171.51681795780019L258.269375,284.4932250443946L258.44,283.1237147965339L258.78125,227.94692136754466L259.00875,296.88426896279964L259.23625,266.38706505504814L259.69124999999997,232.24775931958862L259.861875,179.5311522348193L260.203125,312.041460124461L260.26,218.41885400283806L260.715,158.8906884698177L260.885625,228.5275641744199L260.9425,127.0380860128916L261.625,191.85975975745436L262.36437500000005,203.00010229917498L262.42125,280.4160859690429L262.47812500000003,245.62399221100355L262.53499999999997,161.98605590246922L263.33125,236.96165173758752L264.69625,186.64736000007238L264.866875,177.63941945615923L264.980625,29.839902627369664L265.09437499999996,99.38763145679297L265.265,158.29168093248632L265.4925,264.73164670493867L265.66312500000004,339.125721268813L265.71999999999997,337.9100866156579L266.74375000000003,21.30136088357947L267.3125,39.80778128997487L267.995,98.4361048167705L268.27937499999996,-84.21739690150237L268.33625,57.19102563473325L268.506875,104.57085012205124L269.1325,209.24759086851907L269.189375,250.049526887444L269.871875,249.02304766017627L269.92875000000004,221.89019330405299L270.0425,-24.019269561390754L270.099375,50.6339014437076L270.27,82.13779726423438L270.32687500000003,120.22521051643855L270.38374999999996,113.03655510472394L270.781875,208.20647991494593L270.895625,193.05983288762692L271.8625,159.40909004019318L271.97625,228.85920925025064L272.03312500000004,236.93707572867805L272.260625,224.07751586109632L272.43125,219.12757374090128L273.39812500000005,197.96028657699873L273.739375,139.80083453622555L274.308125,148.33425190429196L275.21812500000004,39.57318164336867L275.73,101.33341761486649L275.84375,-125.14602143730566L275.95750000000004,-78.36600985029816L276.241875,24.85522872269457L276.4125,81.82182253635109L276.924375,59.90529654762851L277.09499999999997,151.1751941105233L277.265625,159.2097232854669L278.80125,159.60179661013495L279.14250000000004,-84.56780940116765L279.31312499999996,5.054351247422056L279.540625,64.7562450868321L279.88187500000004,113.13387228861032L280.0525,98.20491748937721L280.450625,182.63902982407043L280.564375,137.66741619308777L280.735,155.792427788973L281.70187500000003,146.19384008097703L281.929375,121.19775565533645L282.384375,226.18710165064778L282.44125,248.97098196054262L282.953125,257.6082319528152L283.294375,175.75291372002877L283.35125,231.64419551290106L283.408125,214.32229325531165L283.57875,215.79505861615092L283.92,170.58270762452415L284.375,141.88219217115065L284.83,112.54845001490936L285.05749999999995,213.2659899842265L285.17125,162.35357363531128L285.68312499999996,404.38152608578827L285.9675,401.97313733878974L286.30875,280.42536475648427L286.65,290.8680781983734L287.04812499999997,223.1096917905449L288.07187500000003,188.93998385179285L289.1525,253.84270773356084L289.38,220.74814249291975L289.60749999999996,240.77962318190885L290.574375,187.66953668075186L290.91562500000003,130.64334855721793L291.25687500000004,189.65746833232845L291.4275,180.7273657879102L292.45125,183.28046186929123L292.67875,203.90695834258295L293.076875,178.91276574193876L293.2475,219.59511847531425L293.873125,179.5834247305131L294.441875,133.8763838788353L294.49875,133.67505975845364L294.669375,156.49966457058738L295.295,270.38997837644666L296.148125,201.30095651591924L296.205,219.98036162164874L296.944375,245.28621025149272L297.28562500000004,194.29670955696275L297.399375,220.4414000627907L297.45625,197.6673493455356L297.7975,134.96549578133246L298.36625000000004,77.12827150597028L298.536875,68.6968987022272L298.7075,56.43589320388039L298.76437500000003,93.05763768319231L298.991875,80.8791254947423L299.560625,-86.81595083535609L300.3,-22.24371135509601L300.356875,178.09135291411457L301.32375,152.18433159252348L301.94937500000003,140.5123130897305L302.46124999999995,171.3287497770564L302.745625,-10.694178890479563L303.03000000000003,44.692679410402164L303.37125,113.34302349401919L303.883125,122.21156704135763L304.338125,153.34842803304232L304.85,133.06646858587789L305.47562500000004,162.25933057627057L305.76,141.6022257719095L305.93062499999996,139.79295625171991L306.840625,208.81772988964303L307.295625,280.86665397840204L307.523125,261.77915204738025L307.69375,-19.884807317408924L307.864375,72.17188126507239L307.92125,82.07956613697283L308.37624999999997,93.565306172357L308.49,76.35765771006692L309.11562499999997,99.7683963533349L309.57062499999995,94.58164137340226L310.19624999999996,132.09236632428585L310.42375,121.23780504847785L310.87875,217.86673374167177L312.186875,178.0841145705639L312.528125,114.73882075497286L312.755625,142.32621748655305L313.60875,164.55613145476124L313.95,94.63720098284247L314.12062499999996,77.75208491770815L314.234375,-127.41964939422333L314.6325,-38.057427568357966L314.803125,59.996798990296284L315.030625,18.01303262598933L315.258125,70.58249647073505L315.315,117.0238673129827L315.48562499999997,80.46730786795318L316.22499999999997,128.56862000367005L316.33875,77.03442876184549L316.4525,121.22621393587906L316.67999999999995,107.34086580506965L316.9075,96.37951852936719L317.02125,102.66245518958111L317.47625,102.79814583561145L318.04499999999996,152.65499853194515L318.84125,153.61311172903072L319.011875,198.52116102850718L319.1825,173.20077091977737L320.14937499999996,165.5381722839223L321.0025,148.0303948635782L321.286875,214.86147708385712L321.34375,198.02343799286768L321.57125,253.56621390350833L321.79875000000004,145.4887527332793L321.855625,266.59153960383503L322.02625,254.68734811685425L322.310625,455.0980148729198L322.3675,327.10138819316074L322.93625,263.1431062084379L323.39125,97.20670131814155L323.61875000000003,182.52339842302635L323.7325,145.17067872514122L324.07375,189.07213723081205L324.52875,212.4290083135239L324.585625,277.5635075500646L324.926875,275.3880940396215L325.0975,243.09008050671935L325.89375,277.21937766499315L326.064375,327.92916611925995L326.12125,275.7444940334334L326.291875,275.58976816688613L327.315625,358.4970203849943L327.54312500000003,250.69248637040107L327.94125,210.6675208597162L328.2825,161.29977742366685L328.51,150.66853699405593L328.566875,194.38424940895817L329.30625,282.54292662138795L329.76125,233.47076482293L330.1025,310.1019725961502L330.27312500000005,241.18914433497304L330.44374999999997,336.1312918912061L330.5575,214.29211131636401L330.67125,185.5607800954823L331.58125,237.68545144046814L331.695,220.2910781457755L331.80875,182.09999478785588L331.865625,184.7665520484947L331.9225,219.71863255355947L332.320625,162.38241911801202L332.3775,356.46297083421086L333.40125,440.6178486473772L333.57187500000003,274.0462277965197L334.53875,260.4087162158752L335.278125,169.89568673025755L336.01750000000004,146.46226440937045L336.13125,142.6403911773609L337.211875,280.76346978332083L337.439375,226.4869387196627L337.83750000000003,228.60524421019153L338.065,197.81149399925926L338.349375,174.71784370332773L339.99875,141.88649101966482L340.1125,219.6446782345405L340.68125000000003,228.8194269892469L340.73812499999997,215.94276169281568L342.55812499999996,194.0282582959021L343.92312499999997,213.1894651246353L344.60562500000003,175.15938334419033L344.719375,227.29695980998062L345.00374999999997,182.77689815313963L345.5725,171.1230257555922L345.74312499999996,160.4362013939069L345.8,218.45378569382686L346.255,469.38773123990484L346.36875,368.43385448796124L346.653125,272.76328567709055L346.994375,254.8323799374427L348.18874999999997,185.64314095990187L348.7575,244.8255938578624L348.985,203.2905404501543L349.2125,188.81801666816378L349.610625,219.2166719317454L349.838125,194.65264434099325L349.895,151.85969478178086L350.00875,315.5572084324836L350.065625,351.4459999404712L350.748125,252.89990530028123L351.26,223.21832109459777L351.885625,245.16995540242522L352.51125,177.1732333122559L352.625,135.07658650987602L352.909375,220.82578817911832L353.023125,244.8917242044684L353.3075,232.77449356046137L353.64875,179.98118878916986L354.046875,263.37818585345775L354.274375,294.2495616585593L354.78625000000005,273.7388931459531L355.63937500000003,259.69358613171215L355.69624999999996,206.4282118444324L355.92375,-143.1164905569149L356.15124999999995,1.8139803683051061L356.321875,29.720954291539837L357.51624999999996,93.72217103988977L357.914375,122.07264722079685L358.028125,120.95959232265196L358.14187499999997,91.5216130138303L359.33624999999995,162.46406720404963L359.393125,337.87572826340835L359.56375,296.1405795895762L359.6775,193.69307921431647L359.90500000000003,190.09011281789645L359.96187499999996,215.34040420807167L360.24625,225.83874646161038L360.36,168.41372990211295L360.47375,164.5938861346271L360.758125,239.90710339403324L361.83875,238.0860806551948L362.18,336.3312498716935L362.29375,230.6094242089044L362.464375,254.84553447682012L362.97625,265.80678300451234L363.601875,278.9523788237034L364.11375,210.67372164389192L364.170625,219.21342049396472L364.398125,259.6624045989305L364.966875,320.53566068538333L365.365,316.3967343934071L365.5925,372.3025893192101L365.99062499999997,260.31578782919667L366.559375,224.55358421637806L366.673125,230.38346393009496L366.73,309.1307299083498L366.9575,268.8990546671166L367.07124999999996,260.7012879256969L367.185,243.13251954344324L367.241875,265.6440224529945L367.355625,9.157261364558005L367.98125,164.6715329127901L369.46000000000004,195.29222676976872L369.91499999999996,174.93329695358509L370.085625,202.77209822830355L370.19937500000003,169.6057701140451L370.25624999999997,202.21982536493587L370.654375,374.70964904891764L370.881875,251.3126216665941L370.99562499999996,263.9421670398735L371.16625,225.17552819023214L372.246875,35.459451092301116L372.645,183.5803882914888L372.75875,244.2792178534327L372.92937500000005,200.48842113869557L373.498125,316.5004201987815L374.18062499999996,289.99113403912946L375.6025,201.45267259571924L377.820625,218.73945157226248L378.389375,184.64434156713688L379.185625,159.2240301722153L379.46999999999997,175.9361835452239L379.58375,107.05337749316219L380.323125,214.10470773216403L381.23312500000003,181.71013966462743L381.40375,186.11265797174954L381.801875,162.9085650131517L381.9725,262.71511886628946L382.370625,322.26565140552816L382.76875,307.658827984735L382.939375,104.34206917548464L383.33750000000003,102.20639735856227L383.508125,157.16957739829147L383.90625,159.47318522834303L384.02,191.43451157035582L384.190625,285.23311828864905L384.2475,259.4621972518759L384.304375,251.15024697051007L384.36125,375.02008382836334L384.759375,320.3737995645964L385.1575,252.1805219186282L385.669375,216.31090867119667L385.896875,167.86022951363054L386.124375,-33.418005548962896L387.26187500000003,110.77439350900144L387.944375,274.0078724564132L388.57,225.50414936190955L389.536875,5.519275620258763L390.105625,112.83125836531887L390.50374999999997,202.03661093044596L390.674375,344.9245132501619L391.24312499999996,306.90868992183727L391.3,352.62965056046306L391.41375,327.47314899411475L391.755,457.3573993757166L393.63187500000004,409.4668863552142L394.37125000000003,302.9832806549863L395.1675,290.3542656876084L395.45187500000003,237.07149534090922L395.6225,248.7675235549483L396.07750000000004,202.16516443967058L396.41875,201.88021686601175L397.044375,207.3066585238432L397.55625000000003,256.985572491625L397.95437499999997,213.98123149546336L398.29562500000003,165.98036945147763L398.523125,165.17077515294193L398.63687500000003,142.09846309286362L398.69374999999997,303.6322063652393L400.4,274.5610792665311L400.6275,371.0447421567809L400.684375,287.28373387439075L401.0825,254.03480407585562L401.139375,283.42225154036214L402.10625,266.70887384291865L402.4475,232.3238573639174L402.56125000000003,203.8659040789948L402.61812499999996,4.668014661141456L403.24375,37.72095440367975L403.414375,42.282842722774504L404.210625,40.045805983090446L404.438125,187.08542750617457L404.55187500000005,220.8441783329279L405.234375,198.13344925286987L405.689375,207.19008866335528L405.97375,124.52453064552319L406.0875,157.26180281419363L406.20125,268.4703186880279L407.68,217.5508035022449L408.64687499999997,163.2238601683635L409.329375,252.48966697687246L409.38625,207.59789907833522L409.784375,240.41911256254073L410.125625,232.31700270140325L410.6375,233.73045602300306L410.694375,182.1375509194043L410.921875,144.8487332875433L411.149375,175.10683518736903L411.376875,148.5651078110298L411.5475,201.50517033847302L411.66125000000005,200.26871480531813L411.945625,174.1801617979242L412.400625,196.59019375081232L413.424375,229.30080127856345L413.993125,321.95582084739914L414.106875,236.50786846211352L414.505,153.4581197817968L414.96000000000004,-158.3982301282971L415.01687499999997,-28.595159466748502L415.1875,109.88261016864503L415.98375,179.33818560039387L416.78000000000003,207.24202345130118L417.0075,195.8663213629557L417.064375,193.03049647683113L417.12125,199.37913334294672L417.860625,178.09137446835345L418.201875,197.18902706596137L418.48625,-48.01295724217376L418.543125,110.88452893075726L418.656875,185.5262375687205L418.8275,179.99154343692277L418.94124999999997,173.51787966780546L419.111875,344.8112698691644L419.7375,342.6992653547255L421.21625,324.4357266627861L422.24,239.5127740027378L423.093125,190.23817015420602L423.26375,222.0998614354802L423.32062499999995,29.435422117941066L423.548125,37.73992339100387L423.661875,73.80181631640214L424.230625,144.3819280695653L425.026875,148.38722359131214L425.823125,128.2190565287497L426.05062499999997,141.29474816438162L426.22125,152.95358725617274L426.278125,114.11146929401139L427.81375,112.52558271013469L428.155,122.24187550498665L428.325625,298.0333516213514L428.8375,257.3886999376543L429.17875000000004,207.66739812421415L429.463125,270.2094472821214L429.52,299.8203386649883L429.576875,295.969265424335L429.690625,2.519171406700739L430.2025,95.66493721596889L430.373125,202.26082889910052L430.486875,170.58227267667925L430.714375,163.1730536389665L431.396875,338.9115002970879L431.510625,330.1274641049493L431.68125,382.7741556938044L431.965625,386.4517282948227L432.193125,292.53293616207446L433.10312500000003,274.2813312925817L433.15999999999997,271.22714457022624L433.3875,199.24862023059958L433.89937499999996,268.14591820159205L434.468125,168.29039210747843" style="fill: none;" fill="none"></path></g></g></g></g><g opacity="0.2"><g><g><g><path stroke="rgb(255, 112, 67)" stroke-width="2px" d="M57.1025,52.99724721908566L57.89875,188.10505056381214L58.35375,523.2541003227229L58.410624999999996,84.1679134368896L59.15,251.01645374298076L59.548125,211.79911279678325L59.605000000000004,64.88507175445554L60.401250000000005,120.04537963867178L60.458124999999995,83.17193174362176L60.685624999999995,53.744665622711175L60.913124999999994,162.60190391540513L61.254374999999996,156.3625850677489L61.53875000000001,216.7779841423033L61.936875,162.78236293792713L62.505625,112.80558490753167L62.733125,103.51920509338373L62.960625,330.8885850906369L63.756875,56.78619527816772L63.984375,176.16295003890977L64.04124999999999,109.07851839065546L64.15499999999999,195.62417650222764L64.26875,150.65392637252793L64.61,40.72361373901367L65.065,37.21192264556883L65.235625,112.77032279968252L65.80437500000001,264.1412177085874L65.975,3.6828436851501785L66.08874999999999,-369.0874180793759L66.2025,321.83106327056856L66.6575,125.25034332275382L66.941875,142.81709575653068L67.738125,-388.47881174087485L68.420625,199.81656455993638L68.534375,347.4282422065732L68.98937500000001,58.30212020874021L69.899375,124.74422836303701L70.7525,234.97876310348494L70.809375,-463.2731995582576L71.54875,164.51988601684556L71.60562499999999,174.0527548789977L72.288125,297.9949154853818L72.45875,-399.4467101097104L72.91375000000001,188.97623205184922L73.084375,47.53265762329101L73.36875,420.6520833969113L73.653125,9.433332920074488L74.3925,135.59562349319447L74.8475,183.5313477516173L74.96125,99.04022598266593L75.018125,107.1619191169738L75.18875,550.3997006416316L76.496875,263.46743488311745L76.55375000000001,368.0780091285703L77.23625000000001,294.26612043380715L77.5775,213.10519361495955L77.634375,268.3170118331907L77.69125000000001,227.5657691955565L78.37374999999999,518.976322650909L78.82875,262.89909267425514L79.05624999999999,170.93240404129017L79.16999999999999,162.99877548217762L79.454375,498.055867195129L79.73875,131.17541456222523L79.85249999999999,37.02040100097656L80.478125,167.00551891326893L80.81937500000001,66.12270259857173L80.87625,163.78007316589344L81.6725,71.10191965103147L81.729375,13.032833576202389L81.843125,366.1493101119992L82.24125,132.4859895706176L82.5825,331.79537439346285L83.094375,86.24872350692745L83.321875,164.96757650375355L83.49249999999999,110.73825740814202L83.60625,96.87437200546259L83.83375,94.83988666534418L83.890625,121.1972751617431L84.175,101.5994944572448L84.231875,112.59055519103994L84.573125,199.89711427688584L85.88125,99.01533508300774L85.995,118.79080915451043L86.051875,141.91791200637806L86.10875,138.712517261505L86.27937499999999,240.29158735275252L86.393125,-442.6040730476375L87.189375,188.24851894378648L87.24625,584.3902983665461L87.36,395.7957544326779L87.47375,245.21549129486064L87.5875,294.7186508178708L87.815,145.4686679840087L87.92875000000001,61.75538682937618L88.27,211.8800082206724L88.4975,182.04515361785874L88.83875,650.0849881172176L88.9525,105.529836654663L89.18,106.78820991516105L90.09,195.15608930587754L90.43125,108.69996929168695L90.65875,325.971249580383L90.77250000000001,172.05456876754747L91.739375,339.00301837921114L91.79625,141.61196136474598L92.25125000000001,189.8242511749266L92.308125,358.04282808303805L92.59249999999999,133.9587011337279L92.649375,89.7662916183471L93.104375,-220.27648305892924L93.445625,451.57418632507284L93.5025,166.05724477767933L93.786875,385.0072779655453L94.29875,36.29441642761231L94.810625,58.63192462921138L95.265625,241.38851547241194L95.32249999999999,141.60401010513297L96.2325,-340.65647935867275L96.34625,148.72315311431873L97.88187500000001,119.5869722366332L97.995625,301.7499842643735L98.109375,471.994403839111L98.450625,395.11644029617275L98.5075,40.4425539970398L99.19,122.24165582656852L100.3275,376.5481748580929L100.953125,381.54744291305514L101.01,300.9316959381101L101.35125000000001,459.3404927253719L101.6925,222.78982782363872L102.6025,452.91552925109823L102.659375,217.34874629974348L102.773125,189.68147420883165L103.455625,107.11386585235589L104.19500000000001,318.67890739440895L104.65,224.7420349121092L104.82062499999999,140.16552352905265L105.616875,163.02055501937855L105.90125,338.06822681426974L106.12875000000001,199.61398029327378L106.413125,195.34968519210798L107.26625,110.4755201339721L107.891875,113.95506048202508L108.119375,177.82649183273304L109.76875,88.85915660858149L109.8825,114.48744916915886L110.45125,322.6967134475706L110.84937500000001,112.9404106140136L111.64562500000001,-10.415431022644011L112.555625,189.66246032714827L112.72625,163.28294658660877L113.40875,190.759042739868L113.69312500000001,95.97103977203363L113.86374999999998,169.57861566543568L113.9775,29.554859638214097L114.603125,328.6300816535947L115.00124999999998,182.29890251159654L115.22874999999999,355.2305021286008L115.3425,494.0709033012386L115.85437499999999,167.1856322288512L116.935,61.96488523483274L117.73124999999999,-326.97063302993746L117.78812500000001,292.10614347457863L117.901875,275.8254208564756L118.129375,12.452045917511022L118.64124999999999,252.11753034591655L119.32374999999999,268.77922201156593L119.55125,88.23722982406613L119.665,366.81548738479586L119.83562500000001,114.02454757690423L119.949375,455.22761726379355L120.06312500000001,108.94058132171624L120.631875,238.00750160217265L120.859375,143.37921524047843L121.25750000000001,117.88332843780509L121.37124999999999,194.23581743240342L121.65562499999999,79.14306306838986L122.05375,142.94224166870106L122.33812499999999,156.9973030090331L122.39500000000001,112.41389894485465L123.07750000000001,312.91424417495705L123.64625,299.47281265258766L123.76,332.5441756248471L123.816875,496.7636146545406L124.215,-148.25985050201402L124.499375,120.19507074356072L124.726875,93.55489397048943L124.78375,387.5316300392148L125.46625,197.73091459274278L125.92125,216.0959043502806L126.14874999999999,464.5478763580319L126.43312499999999,131.93631553649897L126.546875,287.19779634475685L127.62750000000001,685.9157838821405L127.74125,485.36600255966147L128.025625,49.64146995544433L128.08249999999998,95.49914979934687L128.19625,794.8750057220452L128.366875,247.2942271232603L128.594375,342.134431838989L128.935625,220.2367820739744L129.163125,332.47676277160616L129.4475,109.88954687118525L129.78875,116.80092000961297L129.959375,136.02879428863517L130.24375,164.53094863891587L130.69875,-265.21147108077975L130.92625,279.9089112281797L131.15375,178.51790571212754L131.665625,241.1126413345335L132.06375,-0.8286318778991635L132.234375,220.75845384597758L132.29125,-304.79042148590054L132.803125,16.19155788421633L133.37187500000002,205.19265317916856L134.225,211.79116153717027L134.4525,126.9605555534362L135.078125,95.23986959457392L135.135,5.422441005706807L135.36249999999998,196.1109318733214L136.10187499999998,52.46935272216797L137.466875,129.39364099502552L138.66125,434.420899391174L138.71812500000001,15.239480972290036L139.28687499999998,267.81573677062966L139.741875,242.03948163986186L139.79875,94.59374332427973L139.96937499999999,55.76359415054321L140.70875,237.22482109069804L140.8225,229.95736980438215L141.448125,227.6763954162596L141.61875,176.50208854675282L141.84625000000003,128.864363670349L142.30124999999998,36.893526554107666L142.699375,228.36815500259385L142.75625,722.4960722923273L142.926875,129.35526752471912L143.0975,470.4701819419857L143.78,148.60768699645985L144.12124999999997,348.7287917137143L144.34875,244.624678134918L144.9175,258.7409296035765L145.08812500000002,224.3714370727537L145.884375,339.14164686202975L146.055,168.4847989082335L146.339375,239.6368184089659L146.51,74.2800035476684L147.021875,278.2429494857786L147.6475,124.72659730911248L147.931875,162.3512663841246L148.045625,379.58590173721285L149.41062499999998,172.00789833068836L149.865625,111.40097761154169L149.979375,91.57261037826532L150.15,192.50106000900254L150.49125,181.85017490386952L150.548125,92.80643844604485L150.94625,187.66116285324085L151.40125,375.4484810829159L151.62875,211.16992616653422L151.85625,304.3815054893491L152.254375,464.64398288726767L152.368125,315.7708206176755L152.709375,-405.8917245864865L153.22125,106.49919891357415L153.67625,541.5378489494319L153.79000000000002,161.7964067459105L153.960625,611.4142098426813L154.13125,77.55937957763668L154.18812499999999,156.19146013259876L154.58625,309.90417385101296L154.870625,216.45232820510847L155.26875,107.14532518386834L155.780625,198.50840950012193L156.008125,209.5879712104796L156.12187500000002,-197.5835881233213L156.63375,153.29616451263416L157.259375,112.9912295341491L157.828125,500.3541269302364L157.941875,427.8676786422726L158.33999999999997,46.25872755050658L158.62437500000001,148.54407691955558L158.795,268.0473604202268L159.25,61.02075958251948L160.330625,53.722540378570535L160.95625,228.57592487335185L161.923125,204.04525184631333L162.150625,147.54256391525257L162.6625,316.78961896896334L162.946875,320.4731264114377L163.00375,99.66249847412102L163.060625,360.73277378082247L164.255,191.98457384109486L164.880625,245.4236068725584L165.05125,107.0257105827331L165.39249999999998,303.34127330780007L165.44937499999997,95.66508913040157L165.96125,-14.119335174560488L166.3025,292.4027600288389L166.359375,395.43552780151333L166.98499999999999,83.82877492904659L167.2125,168.3122911453246L167.496875,199.91820240020735L167.610625,128.2790818214416L168.1225,239.0135087966917L168.35,95.84347391128533L168.40687499999999,246.01061725616438L168.520625,80.56115293502805L168.5775,150.9450116157531L168.69125000000003,23.85069513320921L169.31687499999998,126.66186475753774L169.430625,86.01571702957146L169.885625,112.53143930435174L169.9425,245.22171401977522L170.113125,234.50687313079817L172.10375,300.6025829315183L173.298125,229.90793371200544L173.753125,119.65231084823603L174.43562500000002,198.32138204574574L174.60625,234.10412454605083L175.11812500000002,232.06099653244L175.686875,199.49816846847517L176.141875,132.46213579177845L176.3125,209.61597347259507L176.483125,549.0051188468929L176.824375,94.99130630493158L177.10875,92.73798847198479L177.165625,247.2807445526121L177.39312500000003,743.1129970550531L177.45000000000002,241.1164441108702L177.84812499999998,363.22359228134127L178.530625,122.48779916763297L179.66812499999997,283.01128530502297L180.236875,313.4525098800657L181.260625,583.2632937431331L181.65875,133.28215265274036L182.056875,76.35977649688715L182.511875,106.75329351425164L182.62562499999999,120.4114832878112L182.853125,76.91359901428217L183.194375,169.45104980468736L183.421875,615.627340316772L184.0475,292.7664437294004L184.218125,231.439761161804L184.50250000000003,42.92922401428223L185.241875,203.50767755508406L186.606875,255.59465074539168L187.971875,193.12056684494002L188.02875,401.6371645927426L188.5975,152.2424497604369L188.768125,68.72207307815549L189.05249999999998,127.28966856002799L189.5075,254.95198154449446L190.07625000000002,146.36024618148792L190.64499999999998,176.5051999092101L191.043125,241.94475793838484L192.749375,147.40289831161488L192.97687499999998,285.8142771720884L193.03375,88.83288288116451L193.26125000000002,213.48996543884263L195.138125,286.1520328521726L195.365625,70.2863969802856L195.42249999999999,190.8886828422545L195.706875,205.18020772933946L196.44625000000002,234.55319786071757L196.90125,169.89390039443956L197.071875,181.49651670455918L198.209375,919.1196599006645L198.664375,614.8218431472774L198.94875000000002,355.5184760093686L199.0625,168.51729536056504L199.233125,97.11602115631098L199.34687499999998,133.28111553192127L199.40374999999997,127.89672994613638L200.029375,90.17560863494869L200.08624999999998,215.18946075439436L200.143125,275.90735340118385L200.256875,427.5786676406857L200.37062500000002,242.00007104873637L200.655,515.0127925872798L200.76874999999998,-18.771513462066565L201.22375,318.68201875686617L202.759375,149.4221725463866L202.81625,153.90184307098377L203.441875,474.5315470695491L203.49875,199.7225322723387L204.0675,398.1814780235287L204.124375,140.5741491317748L204.29500000000002,313.248888492584L204.693125,320.82955026626564L205.09125,58.728031158447244L205.83062500000003,331.2481203079221L206.28562499999998,169.9519791603087L206.3425,333.55951690673805L206.740625,465.56321763992275L206.91125,174.75142860412586L206.968125,220.9527411460875L207.025,158.03995513916004L207.19562499999998,-426.67044019699057L208.27625,198.06970739364613L208.73125,139.9442710876464L208.78812499999998,92.69235515594478L208.95875,-406.94440221786465L209.356875,223.6637749671934L209.5275,32.086471557617166L209.64124999999999,248.3095684051512L209.81187500000001,591.3590588569637L210.039375,-23.893161773681623L210.55125,95.37988090515132L210.8925,155.19547843933097L211.176875,108.14130687713617L211.40437500000002,91.32335567474358L211.518125,274.4412102699278L212.086875,106.08400487899776L212.14375,179.04338026046742L212.37125,309.4395437240598L212.655625,206.4271726608275L212.7125,254.73245763778667L212.769375,446.17389822006186L212.94000000000003,415.38523817062344L213.451875,123.5708990097045L213.50875,74.00205516815181L213.56562499999998,219.52497148513777L213.85,481.6980519294735L214.134375,182.91184091567982L214.30499999999998,520.4016723632808L214.58937500000002,98.41657066345208L214.703125,444.84085226058926L214.87375,261.28878974914534L215.271875,155.54429674148548L215.954375,185.32314682006825L216.8075,75.51901721954341L217.48999999999998,291.5018477439878L218.05875,209.4776906967161L218.28625,190.44133806228623L218.6275,-273.178633213043L219.025625,117.83216381072992L219.08249999999998,324.550739765167L219.594375,117.24757337570182L219.65125,173.84118223190296L220.73187499999997,237.0827355384825L220.78875,470.8974757194515L221.300625,349.6933140754697L221.41437499999998,70.89760684967037L222.83625,505.59469842910727L223.00687499999998,194.36822319030748L223.1775,240.42088174819926L223.51875,447.8429713249203L223.74625,172.1562066078185L223.803125,188.34116840362535L224.77,113.84166860580437L224.940625,354.65317153930636L225.33875,111.01240301132195L225.509375,207.01452875137312L225.62312500000002,208.92248535156233L225.964375,165.88508272171006L226.70375,-166.10213136672957L227.2725,599.9661245346065L227.443125,347.68890523910494L227.61374999999998,112.33922624588006L228.06875,210.43979310989363L228.580625,40.449122428894015L229.43374999999997,504.10712146758993L230.17312499999997,279.75334310531593L231.25375,319.1594400405881L231.424375,157.248631954193L232.220625,266.95734643936134L232.27749999999997,238.84169244766215L232.61875,36.625603675842264L232.96,146.9579734802245L233.35812499999997,161.67921209335316L233.415,-490.9062466621395L233.471875,140.9665265083312L233.58562500000002,614.6576323509212L233.81312499999999,218.74540233612043L234.040625,35.531441211700454L234.268125,140.8247866630553L234.32500000000002,213.7101807594298L234.38187500000004,278.33421611785866L234.66625000000002,340.9265317916867L234.78,150.05931043624867L235.34875,219.1039004325865L235.746875,-17.5591192245483L237.339375,130.09888315200797L237.62375,137.24222564697257L238.135625,191.92234659194932L238.30625000000003,54.446450710296595L238.42000000000002,150.1585283279418L238.81812499999998,89.59378385543818L239.1025,66.64955997467037L239.55749999999998,83.55117225646968L239.78500000000003,318.5485758781431L239.841875,106.14450359344474L240.0125,209.39230108261089L240.12625000000003,125.60884141921989L240.524375,101.57218360900873L241.20687499999997,201.18660116195665L241.320625,191.94481754302964L242.57187499999998,453.8800516128536L242.74249999999998,194.22060632705674L244.44875,284.0314664840696L244.90375,283.8302650451658L246.8375,319.59399366378756L247.121875,533.708623886108L247.7475,168.79420661926258L248.259375,169.2432799339293L248.6575,143.13445472717274L248.77124999999998,247.85634660720805L248.94187499999998,-180.30722951889018L249.05562499999996,321.24025011062594L249.34000000000003,248.0648078918455L249.396875,65.67190074920651L249.85187499999998,231.503716945648L249.90875,213.93247032165513L250.4775,276.2941994667051L250.705,283.49562072753884L251.27375,167.71179819107041L251.50124999999997,285.14879131317116L251.72875000000002,87.19630622863764L252.18375,427.64608049392666L252.46812500000001,170.73465967178333L253.32125,11.09099769592286L253.378125,196.89810657501204L253.719375,238.77911949157698L254.1175,365.08660697936983L254.34500000000003,53.663770198822014L254.91375000000002,4.975096225738551L254.97062499999998,37.686232566833475L255.0275,182.74832153320298L255.08437500000002,411.2063326835629L255.42562499999997,375.0782289505002L255.539375,218.0695452690123L255.71000000000004,-26.8928608894348L255.9375,137.15407037734974L256.10812500000003,47.50742101669308L256.73375,92.83755207061762L257.41625,94.10041952133173L257.928125,76.02824354171747L257.98499999999996,295.29183292388893L258.269375,453.9578356742855L258.44,281.0694494247434L258.78125,145.18173122405994L259.00875,400.2902903556821L259.23625,220.6412591934202L259.69124999999997,181.03880071640003L259.861875,100.45624160766596L260.203125,510.8069219589229L260.26,77.98494482040401L260.715,69.59844017028806L260.885625,332.98287773132296L260.9425,-25.196131229400628L261.625,289.09227037429787L262.36437500000005,219.7106161117552L262.42125,396.54006147384615L262.47812500000003,193.43585157394395L262.53499999999997,36.52915143966676L263.33125,349.4250454902646L264.69625,111.17592239379874L264.866875,164.12750864028916L264.980625,-191.859372615814L265.09437499999996,203.70922470092756L265.265,246.64775514602638L265.4925,424.3915953636166L265.66312500000004,450.7168331146237L265.71999999999997,336.086634635925L266.74375000000003,-453.61172771453823L267.3125,67.56741189956661L267.995,186.37859010696397L268.27937499999996,-358.197649478912L268.33625,269.3036594390867L268.506875,175.6405868530272L269.1325,366.26270198821993L269.189375,311.2524309158323L269.871875,247.4833288192747L269.92875000000004,181.1909117698668L270.0425,-392.8834638595577L270.099375,162.61365795135487L270.27,129.39364099502552L270.32687500000003,177.35633039474473L270.38374999999996,102.25357198715201L270.781875,350.96136713027926L270.895625,170.33986234664903L271.8625,108.9329757690429L271.97625,333.03438806533785L272.03312500000004,249.05387544631938L272.260625,204.78817605972276L272.43125,211.70266056060774L273.39812500000005,166.20935583114613L273.739375,52.56165647506713L274.308125,161.13437795639024L275.21812500000004,-123.56842374801622L275.73,193.9737715721129L275.84375,-464.86518001556345L275.95750000000004,-8.195992469787539L276.241875,179.6870865821837L276.4125,167.27171325683582L276.924375,27.030507564544695L277.09499999999997,288.0800404548643L277.265625,171.26151704788197L278.80125,160.18990659713734L279.14250000000004,-450.82221841812094L279.31312499999996,139.48759222030628L279.540625,154.30908584594718L279.88187500000004,185.70031309127793L280.0525,75.81148529052729L280.450625,309.2901983261106L280.564375,70.2099957466125L280.735,182.97994518280015L281.70187500000003,131.79595851898185L281.929375,83.70362901687619L282.384375,383.67112064361544L282.44125,283.1468024253843L282.953125,270.5641069412229L283.294375,52.96993637084958L283.35125,315.48111820220925L283.408125,188.33943986892686L283.57875,218.00420665740953L283.92,102.7641811370849L284.375,98.83141899108882L284.83,68.54783678054807L285.05749999999995,364.3422999382016L285.17125,85.98494911193842L285.68312499999996,767.4234547615044L285.9675,398.36055421829195L286.30875,98.10370588302607L286.65,306.5321483612058L287.04812499999997,121.4721121788024L288.07187500000003,137.68542194366444L289.1525,351.1967935562131L289.38,171.10629463195787L289.60749999999996,270.82684421539284L290.574375,108.00440692901606L290.91562500000003,45.104066371917696L291.25687500000004,278.1786479949949L291.4275,167.33221197128282L292.45125,187.11010599136338L292.67875,234.84670305252058L293.076875,141.4214768409728L293.2475,280.61864757537825L293.873125,119.5658841133117L294.441875,65.31582260131832L294.49875,133.37307357788075L294.669375,190.73657178878767L295.295,441.22544908523525L296.148125,97.66742372512813L296.205,247.99946928024275L296.944375,283.2449831962583L297.28562500000004,117.81245851516715L297.399375,259.658435821533L297.45625,163.50627326965318L297.7975,40.91271543502807L298.36625000000004,-9.62756490707391L298.536875,56.04983949661251L298.7075,38.04438495635985L298.76437500000003,147.99025440216056L298.991875,62.611357212066615L299.560625,-338.35856533050503L300.3,74.61464786529535L300.356875,478.59394931793173L301.32375,113.32379961013787L301.94937500000003,123.0042853355407L302.46124999999995,217.55340480804426L302.745625,-283.72857189178444L303.03000000000003,127.77296686172477L303.37125,216.31853961944563L303.883125,135.51438236236564L304.338125,200.05371952056868L304.85,102.64352941513053L305.47562500000004,206.04862356185893L305.76,110.6165685653686L305.93062499999996,137.07905197143546L306.840625,312.3548903465269L307.295625,388.94004011154146L307.523125,233.14789915084822L307.69375,-442.38074636459316L307.864375,210.25691413879377L307.92125,96.94109344482415L308.37624999999997,110.79391622543326L308.49,50.546185016632066L309.11562499999997,134.8845043182372L309.57062499999995,86.80150890350338L310.19624999999996,188.3584537506102L310.42375,104.95596313476558L310.87875,362.81012678146334L312.186875,118.41018581390372L312.528125,19.720880031585708L312.755625,183.70731258392323L313.60875,197.9010024070738L313.95,-10.24119472503655L314.12062499999996,52.424410820007324L314.234375,-435.1772508621212L314.6325,95.98590517044062L314.803125,207.07813882827742L315.030625,-44.96261692047115L315.258125,149.4366922378539L315.315,186.68592357635487L315.48562499999997,25.632468700408925L316.22499999999997,200.7205882072447L316.33875,-0.26685810089110684L316.4525,187.51389169692976L316.67999999999995,86.51284360885616L316.9075,79.93749761581418L317.02125,112.08686017990104L317.47625,103.00168180465691L318.04499999999996,227.44027757644636L318.84125,155.0502815246581L319.011875,265.88323497772194L319.1825,135.22018575668324L320.14937499999996,154.04427433013905L321.0025,121.76872873306266L321.286875,315.1081004142759L321.34375,172.76637935638416L321.57125,336.88037776946993L321.79875000000004,-16.627439022064138L321.855625,448.24571990966757L322.02625,236.8310608863829L322.310625,755.7140150070185L322.3675,135.10644817352286L322.93625,167.20568323135365L323.39125,-151.69790601730332L323.61875000000003,310.49844408035256L323.7325,89.14159917831414L324.07375,254.92432498931865L324.52875,247.46431493759138L324.585625,375.26525640487637L324.926875,272.12497377395607L325.0975,194.6430602073668L325.89375,328.4133234024045L326.064375,403.9938488006589L326.12125,197.4674859046935L326.291875,275.3576793670652L327.315625,482.8578987121578L327.54312500000003,88.9856853485107L327.94125,150.63007259368885L328.2825,87.24816226959221L328.51,134.7216763496398L328.566875,259.95781803131086L329.30625,414.7809424400326L329.76125,159.862522125244L330.1025,425.04878425598105L330.27312500000005,137.8199019432067L330.44374999999997,478.544513225555L330.5575,31.533340454101552L330.67125,142.46378326416004L331.58125,315.87245845794655L331.695,194.1995182037352L331.80875,124.81336975097648L331.865625,188.76638793945298L331.9225,272.146753311157L332.320625,76.37809896469113L332.3775,647.5837984085077L333.40125,566.850165367126L333.57187500000003,24.18879652023314L334.53875,239.9524488449095L335.278125,34.126142501831055L336.01750000000004,111.3121309280395L336.13125,136.90758132934562L337.211875,487.94808769226034L337.439375,145.07214212417594L337.83750000000003,231.7827024459837L338.065,151.62086868286121L338.349375,140.07736825942982L339.99875,92.6394619941711L340.1125,336.28195905685396L340.68125000000003,242.5815501213072L340.73812499999997,196.6277637481688L342.55812499999996,161.1565032005309L343.92312499999997,241.93127536773665L344.60562500000003,118.11426067352288L344.719375,305.50332450866676L345.00374999999997,115.99680566787711L345.5725,153.64221715927113L345.74312499999996,144.4059648513793L345.8,305.480162143707L346.255,845.7886495590203L346.36875,217.00303936004622L346.653125,129.2574324607848L346.994375,227.93602132797224L348.18874999999997,81.85928249359125L348.7575,333.5992732048032L348.985,140.98796033859244L349.2125,167.1092309951781L349.610625,264.81465482711775L349.838125,157.80660295486436L349.895,87.67027044296259L350.00875,561.1034789085384L350.065625,405.27918720245333L350.748125,105.08076333999628L351.26,178.69594478607164L351.885625,278.0974068641661L352.51125,75.17815017700192L352.625,71.93161630630487L352.909375,349.4495906829831L353.023125,280.99062824249245L353.3075,214.59864759445173L353.64875,100.79123163223261L354.046875,388.4736814498898L354.274375,340.55662536621065L354.78625000000005,242.97289037704448L355.63937500000003,238.6256256103514L355.69624999999996,126.5301504135131L355.92375,-667.433544158935L356.15124999999995,219.20968675613386L356.321875,71.58141517639157L357.51624999999996,189.72399616241444L357.914375,164.59836149215684L358.028125,119.29000997543326L358.14187499999997,47.364644050598116L359.33624999999995,268.87774848937966L359.393125,600.993219852447L359.56375,233.5378565788267L359.6775,40.02182865142821L359.90500000000003,184.68566322326646L359.96187499999996,253.21584129333476L360.24625,241.58625984191877L360.36,82.27620506286615L360.47375,158.86412048339832L360.758125,352.8769292831418L361.83875,235.35454654693586L362.18,483.69900369644125L362.29375,72.02668571472165L362.464375,291.19969987869234L362.97625,282.2486557960508L363.601875,298.67077255249L364.11375,108.25573587417594L364.170625,232.0229687690733L364.398125,320.3358807563779L364.966875,411.84554481506314L365.365,310.1883449554441L365.5925,456.1613717079159L365.99062499999997,92.33558559417718L366.559375,170.91027879714954L366.673125,239.1282835006712L366.73,427.251628875732L366.9575,208.55154180526716L367.07124999999996,248.40463781356792L367.185,216.77936697006209L367.241875,299.41127681732155L367.355625,-375.5728802680966L367.98125,397.9429402351376L369.46000000000004,241.2232675552366L369.91499999999996,144.394902229309L370.085625,244.53030014038066L370.19937500000003,119.85627794265739L370.25624999999997,251.1409082412718L370.654375,633.4443845748896L370.881875,66.21708059310909L370.99562499999996,282.88648509979225L371.16625,167.02556991577137L372.246875,-249.1146645545957L372.645,405.76179409027066L372.75875,335.3274621963498L372.92937500000005,134.80222606658924L373.498125,490.5184187889095L374.18062499999996,250.2272047996519L375.6025,68.64498043060298L377.820625,244.66962003707866L378.389375,133.50167655944816L379.185625,121.09356307983388L379.46999999999997,201.00441360473621L379.58375,3.7291684150696027L380.323125,374.68170309066744L381.23312500000003,133.11828756332386L381.40375,192.71643543243394L381.801875,128.10242557525623L381.9725,412.4249496459958L382.370625,411.5914502143857L382.76875,285.7485928535459L382.939375,-200.6330690383909L383.33750000000003,99.00288963317864L383.508125,239.61434745788557L383.90625,162.92859697341908L384.02,239.37650108337382L384.190625,425.9310283660885L384.2475,220.80581569671614L384.304375,238.68232154846172L384.36125,560.8248391151424L384.759375,238.40437316894514L385.1575,149.8906054496764L385.669375,162.5064888000487L385.896875,95.18421077728267L386.124375,-335.33535814285244L387.26187500000003,327.06299209594704L387.944375,518.8580908775325L388.57,152.7485647201537L389.536875,-324.45803499221773L390.105625,273.79923248290993L390.50374999999997,335.8446397781369L390.674375,559.2563667297359L391.24312499999996,249.8849549293516L391.3,421.2110915184017L391.41375,289.73839664459206L391.755,652.1837749481195L393.63187500000004,382.2927870750424L394.37125000000003,143.2578721046447L395.1675,271.4107432365415L395.45187500000003,157.1473398208617L395.6225,266.31156587600685L396.07750000000004,132.26162576675407L396.41875,201.4527955055235L397.044375,215.44632101058943L397.55625000000003,331.50394344329806L397.95437499999997,149.4747200012206L398.29562500000003,93.97907638549799L398.523125,163.95638370513905L398.63687500000003,107.48999500274651L398.69374999999997,545.9328212738033L400.4,230.9543886184691L400.6275,515.7702364921565L400.684375,161.64222145080552L401.0825,204.1614093780516L401.139375,327.50342273712135L402.10625,241.63880729675273L402.4475,180.74633264541612L402.56125000000003,161.17897415161121L402.61812499999996,-294.1288194656369L403.24375,87.30036401748653L403.414375,49.125675201416016L404.210625,36.690250873565674L404.438125,407.64485979080166L404.55187500000005,271.48230457305885L405.234375,164.06735563278187L405.689375,220.7750477790831L405.97375,0.5261936187744269L406.0875,206.3677110671995L406.20125,435.28309249877896L407.68,141.17153072357166L408.64687499999997,81.73344516754145L409.329375,386.3883771896359L409.38625,140.2602472305297L409.784375,289.65093278884865L410.125625,220.16383790969834L410.6375,235.85063600540144L410.694375,104.74819326400751L410.921875,88.91550683975213L411.149375,220.49398803710923L411.376875,108.75251674652094L411.5475,280.9152641296385L411.66125000000005,198.41403150558457L411.945625,135.0473322868346L412.400625,230.20524168014506L413.424375,278.3667125701902L413.993125,460.9383502006527L414.106875,108.33593988418573L414.505,28.883496761322032L414.96000000000004,-626.182754993438L415.01687499999997,166.1094465255736L415.1875,317.5992646217344L415.98375,283.52154874801613L416.78000000000003,249.09778022766093L417.0075,178.8027682304381L417.064375,188.77675914764387L417.12125,208.9020886421202L417.860625,146.15973615646354L418.201875,225.83550596237168L418.48625,-415.8159337043759L418.543125,349.23075819015475L418.656875,297.48880052566506L418.8275,171.68950223922718L418.94124999999997,163.8073840141295L419.111875,601.751355171203L419.7375,339.53125858306856L421.21625,297.0404186248777L422.24,112.12834501266472L423.093125,116.3262643814086L423.26375,269.89239835739113L423.32062499999995,-259.5612368583677L423.548125,50.19667530059813L423.661875,127.89465570449819L424.230625,250.25209569931008L425.026875,154.39516687393177L425.823125,97.96680593490593L426.05062499999997,160.90828561782826L426.22125,170.44184589385972L426.278125,55.84829235076902L427.81375,110.14675283431998L428.155,136.81631469726554L428.325625,561.720565795898L428.8375,196.4217224121092L429.17875000000004,133.08544540405262L429.463125,364.02252101898165L429.52,344.23667573928805L429.576875,290.19265556335426L429.690625,-437.6559696197505L430.2025,235.38358592987046L430.373125,362.1546664237973L430.486875,123.064438343048L430.714375,152.05922508239735L431.396875,602.5191702842707L431.510625,316.95140981674166L431.68125,461.744193077087L431.965625,391.96808719634976L432.193125,151.65474796295155L433.10312500000003,246.90392398834206L433.15999999999997,266.64586448669417L433.3875,91.28083372116082L433.89937499999996,371.49186515808077L434.468125,18.50710296630862" style="fill: none;" fill="none"></path></g></g></g></g></g></g><g transform="translate(50, 377)" clip-path="url(#clip_1)"><clipPath id="clip_1"><rect width="455" height="23"></rect></clipPath><g><g><line x1="0" y1="0" x2="0" y2="5" style="visibility: inherit;" fill="rgb(0, 0, 0)" stroke="rgb(204, 204, 204)" stroke-width="1px"></line><line x1="56.875" y1="0" x2="56.875" y2="5" style="visibility: inherit;" fill="rgb(0, 0, 0)" stroke="rgb(204, 204, 204)" stroke-width="1px"></line><line x1="113.75" y1="0" x2="113.75" y2="5" style="visibility: inherit;" fill="rgb(0, 0, 0)" stroke="rgb(204, 204, 204)" stroke-width="1px"></line><line x1="170.625" y1="0" x2="170.625" y2="5" style="visibility: inherit;" fill="rgb(0, 0, 0)" stroke="rgb(204, 204, 204)" stroke-width="1px"></line><line x1="227.5" y1="0" x2="227.5" y2="5" style="visibility: inherit;" fill="rgb(0, 0, 0)" stroke="rgb(204, 204, 204)" stroke-width="1px"></line><line x1="284.375" y1="0" x2="284.375" y2="5" style="visibility: inherit;" fill="rgb(0, 0, 0)" stroke="rgb(204, 204, 204)" stroke-width="1px"></line><line x1="341.25" y1="0" x2="341.25" y2="5" style="visibility: inherit;" fill="rgb(0, 0, 0)" stroke="rgb(204, 204, 204)" stroke-width="1px"></line><line x1="398.125" y1="0" x2="398.125" y2="5" style="visibility: inherit;" fill="rgb(0, 0, 0)" stroke="rgb(204, 204, 204)" stroke-width="1px"></line><line x1="455" y1="0" x2="455" y2="5" style="visibility: inherit;" fill="rgb(0, 0, 0)" stroke="rgb(204, 204, 204)" stroke-width="1px"></line></g><g transform="translate(0, 8)"><text x="0" y="0" dx="0em" dy="0.95em" style="text-anchor: middle; visibility: hidden; font-family: Roboto, sans-serif; font-size: 12px; font-weight: 200;" fill="rgb(255, 255, 255)" stroke="none" stroke-width="1px">-1k</text><text x="56.875" y="0" dx="0em" dy="0.95em" style="text-anchor: middle; visibility: inherit; font-family: Roboto, sans-serif; font-size: 12px; font-weight: 200;" fill="rgb(255, 255, 255)" stroke="none" stroke-width="1px">0</text><text x="113.75" y="0" dx="0em" dy="0.95em" style="text-anchor: middle; visibility: inherit; font-family: Roboto, sans-serif; font-size: 12px; font-weight: 200;" fill="rgb(255, 255, 255)" stroke="none" stroke-width="1px">1k</text><text x="170.625" y="0" dx="0em" dy="0.95em" style="text-anchor: middle; visibility: inherit; font-family: Roboto, sans-serif; font-size: 12px; font-weight: 200;" fill="rgb(255, 255, 255)" stroke="none" stroke-width="1px">2k</text><text x="227.5" y="0" dx="0em" dy="0.95em" style="text-anchor: middle; visibility: inherit; font-family: Roboto, sans-serif; font-size: 12px; font-weight: 200;" fill="rgb(255, 255, 255)" stroke="none" stroke-width="1px">3k</text><text x="284.375" y="0" dx="0em" dy="0.95em" style="text-anchor: middle; visibility: inherit; font-family: Roboto, sans-serif; font-size: 12px; font-weight: 200;" fill="rgb(255, 255, 255)" stroke="none" stroke-width="1px">4k</text><text x="341.25" y="0" dx="0em" dy="0.95em" style="text-anchor: middle; visibility: inherit; font-family: Roboto, sans-serif; font-size: 12px; font-weight: 200;" fill="rgb(255, 255, 255)" stroke="none" stroke-width="1px">5k</text><text x="398.125" y="0" dx="0em" dy="0.95em" style="text-anchor: middle; visibility: inherit; font-family: Roboto, sans-serif; font-size: 12px; font-weight: 200;" fill="rgb(255, 255, 255)" stroke="none" stroke-width="1px">6k</text><text x="455" y="0" dx="0em" dy="0.95em" style="text-anchor: middle; visibility: hidden; font-family: Roboto, sans-serif; font-size: 12px; font-weight: 200;" fill="rgb(255, 255, 255)" stroke="none" stroke-width="1px">7k</text></g><line x1="0" y1="0" x2="455" y2="0" fill="rgb(0, 0, 0)" stroke="rgb(204, 204, 204)" stroke-width="1px"></line></g></g></g></g></svg>