<svg viewBox="0 0 581 400" xmlns="http://www.w3.org/2000/svg"><g><g><g><g><g><line x1="51.5625" y1="377" x2="46.5625" y2="377" style="visibility: inherit;" fill="rgb(0, 0, 0)" stroke="rgb(204, 204, 204)" stroke-width="1px"></line><line x1="51.5625" y1="345.5833333333334" x2="46.5625" y2="345.5833333333334" style="visibility: inherit;" fill="rgb(0, 0, 0)" stroke="rgb(204, 204, 204)" stroke-width="1px"></line><line x1="51.5625" y1="314.16666666666663" x2="46.5625" y2="314.16666666666663" style="visibility: inherit;" fill="rgb(0, 0, 0)" stroke="rgb(204, 204, 204)" stroke-width="1px"></line><line x1="51.5625" y1="282.75000000000006" x2="46.5625" y2="282.75000000000006" style="visibility: inherit;" fill="rgb(0, 0, 0)" stroke="rgb(204, 204, 204)" stroke-width="1px"></line><line x1="51.5625" y1="251.33333333333354" x2="46.5625" y2="251.33333333333354" style="visibility: inherit;" fill="rgb(0, 0, 0)" stroke="rgb(204, 204, 204)" stroke-width="1px"></line><line x1="51.5625" y1="219.91666666666669" x2="46.5625" y2="219.91666666666669" style="visibility: inherit;" fill="rgb(0, 0, 0)" stroke="rgb(204, 204, 204)" stroke-width="1px"></line><line x1="51.5625" y1="188.50000000000017" x2="46.5625" y2="188.50000000000017" style="visibility: inherit;" fill="rgb(0, 0, 0)" stroke="rgb(204, 204, 204)" stroke-width="1px"></line><line x1="51.5625" y1="157.08333333333331" x2="46.5625" y2="157.08333333333331" style="visibility: inherit;" fill="rgb(0, 0, 0)" stroke="rgb(204, 204, 204)" stroke-width="1px"></line><line x1="51.5625" y1="125.66666666666677" x2="46.5625" y2="125.66666666666677" style="visibility: inherit;" fill="rgb(0, 0, 0)" stroke="rgb(204, 204, 204)" stroke-width="1px"></line><line x1="51.5625" y1="94.25000000000021" x2="46.5625" y2="94.25000000000021" style="visibility: inherit;" fill="rgb(0, 0, 0)" stroke="rgb(204, 204, 204)" stroke-width="1px"></line><line x1="51.5625" y1="62.833333333333364" x2="46.5625" y2="62.833333333333364" style="visibility: inherit;" fill="rgb(0, 0, 0)" stroke="rgb(204, 204, 204)" stroke-width="1px"></line><line x1="51.5625" y1="31.41666666666685" x2="46.5625" y2="31.41666666666685" style="visibility: inherit;" fill="rgb(0, 0, 0)" stroke="rgb(204, 204, 204)" stroke-width="1px"></line><line x1="51.5625" y1="0" x2="46.5625" y2="0" style="visibility: inherit;" fill="rgb(0, 0, 0)" stroke="rgb(204, 204, 204)" stroke-width="1px"></line></g><g transform="translate(41.5625, 0)"><text x="0" y="377" dx="0em" dy="0.3em" style="text-anchor: end; visibility: hidden; font-family: Roboto, sans-serif; font-size: 12px; font-weight: 200;" fill="rgb(255, 255, 255)" stroke="none" stroke-width="1px">3.1</text><text x="0" y="345.5833333333334" dx="0em" dy="0.3em" style="text-anchor: end; visibility: inherit; font-family: Roboto, sans-serif; font-size: 12px; font-weight: 200;" fill="rgb(255, 255, 255)" stroke="none" stroke-width="1px">3.15</text><text x="0" y="314.16666666666663" dx="0em" dy="0.3em" style="text-anchor: end; visibility: inherit; font-family: Roboto, sans-serif; font-size: 12px; font-weight: 200;" fill="rgb(255, 255, 255)" stroke="none" stroke-width="1px">3.2</text><text x="0" y="282.75000000000006" dx="0em" dy="0.3em" style="text-anchor: end; visibility: inherit; font-family: Roboto, sans-serif; font-size: 12px; font-weight: 200;" fill="rgb(255, 255, 255)" stroke="none" stroke-width="1px">3.25</text><text x="0" y="251.33333333333354" dx="0em" dy="0.3em" style="text-anchor: end; visibility: inherit; font-family: Roboto, sans-serif; font-size: 12px; font-weight: 200;" fill="rgb(255, 255, 255)" stroke="none" stroke-width="1px">3.3</text><text x="0" y="219.91666666666669" dx="0em" dy="0.3em" style="text-anchor: end; visibility: inherit; font-family: Roboto, sans-serif; font-size: 12px; font-weight: 200;" fill="rgb(255, 255, 255)" stroke="none" stroke-width="1px">3.35</text><text x="0" y="188.50000000000017" dx="0em" dy="0.3em" style="text-anchor: end; visibility: inherit; font-family: Roboto, sans-serif; font-size: 12px; font-weight: 200;" fill="rgb(255, 255, 255)" stroke="none" stroke-width="1px">3.4</text><text x="0" y="157.08333333333331" dx="0em" dy="0.3em" style="text-anchor: end; visibility: inherit; font-family: Roboto, sans-serif; font-size: 12px; font-weight: 200;" fill="rgb(255, 255, 255)" stroke="none" stroke-width="1px">3.45</text><text x="0" y="125.66666666666677" dx="0em" dy="0.3em" style="text-anchor: end; visibility: inherit; font-family: Roboto, sans-serif; font-size: 12px; font-weight: 200;" fill="rgb(255, 255, 255)" stroke="none" stroke-width="1px">3.5</text><text x="0" y="94.25000000000021" dx="0em" dy="0.3em" style="text-anchor: end; visibility: inherit; font-family: Roboto, sans-serif; font-size: 12px; font-weight: 200;" fill="rgb(255, 255, 255)" stroke="none" stroke-width="1px">3.55</text><text x="0" y="62.833333333333364" dx="0em" dy="0.3em" style="text-anchor: end; visibility: inherit; font-family: Roboto, sans-serif; font-size: 12px; font-weight: 200;" fill="rgb(255, 255, 255)" stroke="none" stroke-width="1px">3.6</text><text x="0" y="31.41666666666685" dx="0em" dy="0.3em" style="text-anchor: end; visibility: inherit; font-family: Roboto, sans-serif; font-size: 12px; font-weight: 200;" fill="rgb(255, 255, 255)" stroke="none" stroke-width="1px">3.65</text><text x="0" y="0" dx="0em" dy="0.3em" style="text-anchor: end; visibility: hidden; font-family: Roboto, sans-serif; font-size: 12px; font-weight: 200;" fill="rgb(255, 255, 255)" stroke="none" stroke-width="1px">3.7</text></g><line x1="51.5625" y1="0" x2="51.5625" y2="377" fill="rgb(0, 0, 0)" stroke="rgb(204, 204, 204)" stroke-width="1px"></line></g></g><g transform="translate(51, 0)" clip-path="url(#clip_0)"><clipPath id="clip_0"><rect width="446" height="377"></rect></clipPath><g><g><g><line x1="0" y1="0" x2="0" y2="377" fill="rgb(0, 0, 0)" stroke="rgb(189, 189, 189)" stroke-width="1px" opacity="0.25"></line><line x1="55.8296875" y1="0" x2="55.8296875" y2="377" fill="rgb(0, 0, 0)" stroke="rgb(189, 189, 189)" stroke-width="1px" opacity="0.25"></line><line x1="111.659375" y1="0" x2="111.659375" y2="377" fill="rgb(0, 0, 0)" stroke="rgb(189, 189, 189)" stroke-width="1px" opacity="0.25"></line><line x1="167.4890625" y1="0" x2="167.4890625" y2="377" fill="rgb(0, 0, 0)" stroke="rgb(189, 189, 189)" stroke-width="1px" opacity="0.25"></line><line x1="223.31875" y1="0" x2="223.31875" y2="377" fill="rgb(0, 0, 0)" stroke="rgb(189, 189, 189)" stroke-width="1px" opacity="0.25"></line><line x1="279.1484375" y1="0" x2="279.1484375" y2="377" fill="rgb(0, 0, 0)" stroke="rgb(189, 189, 189)" stroke-width="1px" opacity="0.25"></line><line x1="334.978125" y1="0" x2="334.978125" y2="377" fill="rgb(0, 0, 0)" stroke="rgb(189, 189, 189)" stroke-width="1px" opacity="0.25"></line><line x1="390.8078125" y1="0" x2="390.8078125" y2="377" fill="rgb(0, 0, 0)" stroke="rgb(189, 189, 189)" stroke-width="1px" opacity="0.25"></line><line x1="446.6375" y1="0" x2="446.6375" y2="377" fill="rgb(0, 0, 0)" stroke="rgb(189, 189, 189)" stroke-width="1px" opacity="0.25"></line></g><g><line x1="0" y1="377" x2="446.6375" y2="377" fill="rgb(0, 0, 0)" stroke="rgb(189, 189, 189)" stroke-width="1px" opacity="0.25"></line><line x1="0" y1="345.5833333333334" x2="446.6375" y2="345.5833333333334" fill="rgb(0, 0, 0)" stroke="rgb(189, 189, 189)" stroke-width="1px" opacity="0.25"></line><line x1="0" y1="314.16666666666663" x2="446.6375" y2="314.16666666666663" fill="rgb(0, 0, 0)" stroke="rgb(189, 189, 189)" stroke-width="1px" opacity="0.25"></line><line x1="0" y1="282.75000000000006" x2="446.6375" y2="282.75000000000006" fill="rgb(0, 0, 0)" stroke="rgb(189, 189, 189)" stroke-width="1px" opacity="0.25"></line><line x1="0" y1="251.33333333333354" x2="446.6375" y2="251.33333333333354" fill="rgb(0, 0, 0)" stroke="rgb(189, 189, 189)" stroke-width="1px" opacity="0.25"></line><line x1="0" y1="219.91666666666669" x2="446.6375" y2="219.91666666666669" fill="rgb(0, 0, 0)" stroke="rgb(189, 189, 189)" stroke-width="1px" opacity="0.25"></line><line x1="0" y1="188.50000000000017" x2="446.6375" y2="188.50000000000017" fill="rgb(0, 0, 0)" stroke="rgb(189, 189, 189)" stroke-width="1px" opacity="0.25"></line><line x1="0" y1="157.08333333333331" x2="446.6375" y2="157.08333333333331" fill="rgb(0, 0, 0)" stroke="rgb(189, 189, 189)" stroke-width="1px" opacity="0.25"></line><line x1="0" y1="125.66666666666677" x2="446.6375" y2="125.66666666666677" fill="rgb(0, 0, 0)" stroke="rgb(189, 189, 189)" stroke-width="1px" opacity="0.25"></line><line x1="0" y1="94.25000000000021" x2="446.6375" y2="94.25000000000021" fill="rgb(0, 0, 0)" stroke="rgb(189, 189, 189)" stroke-width="1px" opacity="0.25"></line><line x1="0" y1="62.833333333333364" x2="446.6375" y2="62.833333333333364" fill="rgb(0, 0, 0)" stroke="rgb(189, 189, 189)" stroke-width="1px" opacity="0.25"></line><line x1="0" y1="31.41666666666685" x2="446.6375" y2="31.41666666666685" fill="rgb(0, 0, 0)" stroke="rgb(189, 189, 189)" stroke-width="1px" opacity="0.25"></line><line x1="0" y1="0" x2="446.6375" y2="0" fill="rgb(0, 0, 0)" stroke="rgb(189, 189, 189)" stroke-width="1px" opacity="0.25"></line></g></g></g><g><g><line x1="0" y1="2324.833333333333" x2="446.6375" y2="2324.833333333333" fill="rgb(0, 0, 0)" stroke="rgb(153, 153, 153)" stroke-width="1.5px"></line></g></g><g><g><line x1="55.8296875" y1="0" x2="55.8296875" y2="377" fill="rgb(0, 0, 0)" stroke="rgb(153, 153, 153)" stroke-width="1.5px"></line></g></g><g><g><g><g><g><path stroke="rgb(255, 112, 67)" stroke-width="2px" d="M56.053006249999996,136.06547379493722L56.834621874999996,172.6571705341337L57.281259375,257.9562893805861L57.33708906249999,208.14768327246674L58.062875,214.10106345527888L58.45368281249999,210.23196776264058L58.5095125,181.83087767281833L59.291128125,175.03220074221244L59.346957812499994,164.57035733678268L59.5702765625,153.2293819016723L59.793595312499995,165.40613605860474L60.128573437499995,171.6000124342584L60.407721875,185.79339558866386L60.79852968749999,184.93097109736237L61.3568265625,175.74723265313744L61.580145312499994,168.62966052941215L61.8034640625,203.7777671336636L62.5850796875,177.34691647903358L62.808398437499996,182.18335594064703L62.86422812499999,173.4566376894559L62.97588749999999,183.22238743816376L63.087546874999994,181.28675422366888L63.42252499999999,161.07065259629934L63.869162499999995,148.3323977909693L64.0366515625,153.7863101321561L64.5949484375,183.29631415412368L64.76243749999999,155.85611997979245L64.87409687499999,74.77846973146718L64.98575625,145.89115900771432L65.43239374999999,154.48475681372616L65.7115421875,162.68581844052548L66.4931578125,75.51515675827925L67.1631140625,125.18396761713993L67.2747734375,180.5712774730019L67.7214109375,163.68846702975554L68.6146859375,165.0754131484186L69.45213125,185.0149002837205L69.5079609375,75.94825184181549L70.233746875,119.32573144465083L70.28957656249999,147.00458308281637L70.95953281249999,185.09520189770694L71.127021875,87.0596913390967L71.573659375,130.23169503824388L71.74114843749999,131.6180110112237L72.020296875,197.1238344023413L72.2994453125,165.14941167889032L73.02523125,167.8328884129214L73.47186875,177.75183332492253L73.583528125,169.0580724984985L73.6393578125,165.24957614601036L73.806846875,239.79236046585075L75.0909296875,234.78310499256972L75.146759375,249.91005124452033L75.816715625,246.19215828856827L76.15169375,229.8935285330569L76.2075234375,229.68439917092036L76.26335312500001,222.49537282978068L76.933309375,268.69311962403225L77.37994687499999,252.0250478379558L77.60326562499999,226.08331206992918L77.714925,209.14310832553454L77.9940734375,257.0555486424774L78.27322187499999,222.21040104293863L78.38488124999999,184.98311013259848L78.9990078125,185.17748935785932L79.3339859375,167.80776206513443L79.389815625,174.31320325450233L80.17143125,162.1522546922136L80.2272609375,144.79037730187L80.33892031250001,195.58010680053494L80.729728125,185.55230227256132L81.06470625,214.0825795917371L81.5671734375,188.63932649624292L81.7904921875,187.01797582506333L81.95798125,176.64541677911612L82.06964062499999,168.01880788175012L82.292959375,162.49019841770965L82.3487890625,163.74164674532784L82.6279375,161.09556708645243L82.68376718750001,161.4130364849852L83.0187453125,176.73665503231786L84.302828125,168.4446511004453L84.41448749999999,166.89719758038225L84.47031718749999,169.97742329600175L84.526146875,171.2699569695951L84.69363593749999,189.65251598956755L84.8052953125,82.3134702654832L85.5869109375,127.25782544287965L85.642740625,222.88901364926267L85.7544,247.57800562455506L85.866059375,236.29082186584216L85.97771875,238.0990592612699L86.2010375,213.3140046739901L86.312696875,183.93266985481935L86.647675,192.32547000447482L86.87099375,192.18977529644695L87.205971875,273.2352631181858L87.31763125,227.47299622438658L87.54095,200.23375411992663L88.434225,199.20730795164127L88.769203125,183.60571278154387L88.99252187500001,211.9051109295259L89.10418125,202.20585847742393L90.0532859375,225.32403827218428L90.109115625,204.98049626653318L90.55575312500001,201.1311679635741L90.6115828125,227.97945764587112L90.89073124999999,205.2471827840358L90.9465609375,183.9478002176018L91.3931984375,117.42742306701321L91.7281765625,193.96931280322056L91.78400624999999,190.4048434433965L92.0631546875,226.21750091339894L92.56562187499999,187.26153272882533L93.0680890625,167.75978657302525L93.5147265625,187.73654795903323L93.57055625,182.4266238603097L94.46383125,95.64885122734918L94.575490625,128.40799060955828L96.08289218750001,143.0132028867515L96.1945515625,183.3512523378758L96.3062109375,237.0631147348381L96.4737,256.47969276846425L96.6411890625,267.61466531241535L96.69701875,212.8188418802697L97.366975,194.119858804767L98.48356875,226.98026559159624L99.0976953125,247.56304945988737L99.153525,245.93932363853847L99.488503125,272.4226129221877L99.82348125,247.31047124274323L100.71675625,272.13164114916975L100.7725859375,246.19276738145751L100.8842453125,225.83378262507208L101.5542015625,199.3066729894516L102.2799875,220.06168107536843L102.726625,216.2322946966535L102.8941140625,199.27473422969464L103.6757296875,193.06173674117568L103.95487812500001,219.67553469251223L104.178196875,211.6450773996748L104.4573453125,206.0876585397702L105.29479062499999,188.04168528041734L105.9089171875,177.81722165180136L106.1322359375,182.7535915754212L107.751296875,170.294408757407L107.86295625,167.26113644376522L108.42125312499999,201.53077886383815L108.81206093750001,185.7348051580653L109.59367656250001,154.87554171758075L110.4869515625,171.04015148725432L110.65444062499999,176.1664683006984L111.32439687499999,184.00478172199627L111.6035453125,172.27784926035022L111.77103437499999,178.0003362715524L111.88269375,157.16304410022192L112.4968203125,196.50037394675616L112.88762812499999,194.7387008033973L113.11094687499998,223.65650751766256L113.22260625,265.07286108281255L113.72507343749999,233.26255956935512L114.7858375,195.938115848984L115.56745312499999,106.1279597842015L115.62328281250001,159.54850740611442L115.7349421875,188.77884405879112L115.9582609375,160.66566106097648L116.46072812499999,185.3397685632116L117.13068437499999,203.03225961993195L117.35400312499999,182.353808941464L117.46566250000001,218.2336365115763L117.6331515625,195.94443682027597L117.74481093749999,241.71278241789003L117.85647031250001,209.1507035464983L118.41476718749999,211.9850557389425L118.6380859375,197.28343075171486L119.02889375000001,184.04316871358176L119.140553125,189.33344291643257L119.41970156249998,172.55819668171384L119.810509375,173.55157323160321L120.08965781249998,176.58380979386106L120.1454875,170.67536169342495L120.81544375,201.88368600638083L121.373740625,218.2788324636103L121.48540000000001,233.84828991980655L121.54122968749999,271.6546671586711L121.9320375,182.53442620818709L122.2111859375,175.59446798712938L122.4345046875,166.81286241382912L122.49033437499999,212.49986665509485L123.16029062499999,207.0132785224659L123.606928125,206.90459053419502L123.830246875,249.90438622257608L124.10939531249998,218.0515930932054L124.2210546875,225.85190722234788L125.28181875000001,299.64321353964647L125.393478125,309.1560352341292L125.67262656249999,239.33814259942127L125.72845624999998,205.39607152487292L125.840115625,306.25597724007827L126.0076046875,271.85791904541213L126.23092343750001,267.6580529460054L126.56590156249999,244.00920732709244L126.78922031249999,249.2748299433338L127.06836874999999,213.85241942367236L127.403346875,193.79694445586964L127.57083593750001,185.09649101688547L127.849984375,184.81659237421013L128.296621875,110.15996710385764L128.519940625,159.85352487519896L128.743259375,172.09521858188825L129.24572656249998,190.2899889804521L129.636534375,159.27036386276885L129.8040234375,179.06701698429734L129.859853125,99.84987046635551L130.3623203125,107.95645897974438L130.9206171875,145.58060193890273L131.7580625,169.29882916311817L131.98138125,168.82579379379993L132.5955078125,163.04372033933953L132.65133749999998,144.00612197792643L132.87465625,165.6362347114649L133.6004421875,153.71642863205471L134.9403546875,159.89808828503746L136.112778125,216.47847553215928L136.1686078125,177.76859535449242L136.7269046875,198.3225515862715L137.17354218749998,206.18704110267225L137.229371875,185.3484735044786L137.39686093749998,166.11477375544783L138.12264687500002,186.0278332423233L138.23430625,196.71597737815367L138.8484328125,202.7334949657107L139.015921875,197.4737923275304L139.239240625,186.06076509937878L139.685878125,163.27133699567264L140.0766859375,182.78661573118643L140.132515625,280.14462196938194L140.30000468749998,235.74835288591387L140.46749375,268.2371766014927L141.13745,231.94097170694872L141.472428125,244.85090692121307L141.695746875,234.5521550294471L142.25404375,230.8197208156218L142.4215328125,222.6228815819839L143.2031484375,237.59828107194218L143.3706375,217.00300045392567L143.64978593749998,216.97884879657616L143.817275,188.30250989287492L144.3197421875,206.45028384659338L144.93386875,190.729447174869L145.2130171875,187.81855447816994L145.3246765625,223.72602232135227L146.66458906249997,209.29031577013075L147.11122656249998,190.12369224807907L147.2228859375,175.18680114774696L147.390375,183.7189310902086L147.725353125,186.99205563746247L147.7811828125,173.52168271312544L148.17199062499998,181.8809445224371L148.618628125,219.44630343450117L148.841946875,213.51056926290002L149.065265625,226.10580250922703L149.4560734375,261.4417718726628L149.5677328125,256.83867203066154L149.9027109375,128.9886376234057L150.405178125,141.0930437190631L150.851815625,223.76238671600615L150.96347500000002,207.5421425322285L151.1309640625,275.74374855873504L151.29845312499998,224.1298749286982L151.35428281249997,206.79111138020258L151.745090625,223.03139029563036L152.0242390625,216.57723773293048L152.415046875,193.75819900496234L152.91751406249998,195.90304371633187L153.14083281249998,199.1104079062824L153.2524921875,130.45842280239384L153.754959375,150.08638886362613L154.3690859375,154.87697977076135L154.92738281249999,224.8942365303643L155.0390421875,254.34027288287928L155.42985,205.86234317181547L155.70899843750001,194.5050459024788L155.8764875,208.40457001432682L156.32312499999998,180.85967366956635L157.3838890625,163.06771120069214L157.998015625,182.70045369846312L158.9471203125,190.2281158724387L159.1704390625,184.95091393544038L159.67290624999998,211.1207489825512L159.9520546875,227.46112463417995L160.007884375,198.99150784935583L160.0637140625,227.1619188316229L161.23613749999998,214.81447743143016L161.8502640625,216.66877831676814L162.017753125,193.79239015773473L162.35273125,214.09458813465952L162.4085609375,190.27870166339875L162.911028125,156.95986956778196L163.24600625,190.09906681233454L163.3018359375,227.8415982396629L163.9159625,196.47527993149927L164.13928124999998,192.29929842408933L164.41842968749998,195.27206747048945L164.5300890625,184.6382813313435L165.03255625,197.45197699023268L165.255875,180.32405500542905L165.3117046875,196.07627332765907L165.4233640625,176.84969717200022L165.47919375,177.5136203165975L165.590853125,155.88229267971468L166.20497968749999,160.72409883246868L166.3166390625,156.58385025127382L166.7632765625,158.6957596301852L166.81910625,182.9625528748721L166.98659531250001,195.66538973426177L168.94063437499997,214.74368154868702L170.11305781250002,213.9369174392933L170.5596953125,194.34188434393704L171.2296515625,196.22083682762485L171.397140625,203.55055035122393L171.8996078125,207.59423627635732L172.4579046875,204.37622430035012L172.9045421875,190.82583811745178L173.07203125,196.0689382723877L173.23952031250002,258.04225023022764L173.57449843749998,216.53050989765816L173.85364687499998,191.2328906070725L173.9094765625,202.84173008669632L174.1327953125,295.751290874894L174.188625,264.484291504154L174.5794328125,266.88933089792494L175.24938906249997,226.60481706114476L176.3659828125,230.25817968955758L176.9242796875,237.72667619294606L177.9292140625,288.9749766312441L178.32002187499998,241.7272257718883L178.7108296875,203.51203005592683L179.1574671875,185.85112224269287L179.2691265625,177.62199711550298L179.4924453125,165.14488876511055L179.8274234375,173.69844855854538L180.0507421875,256.1678081233678L180.66486875,249.68686845378332L180.8323578125,235.1683463403162L181.11150625000002,193.78207329999861L181.8372921875,196.783908089547L183.1772046875,207.61341764959604L184.5171171875,203.28228217621404L184.57294687499999,236.82647783513735L185.13124374999998,213.7245779928916L185.2987328125,185.3865727959489L185.57788125,178.53548622797413L186.02451875,196.55296853783045L186.582815625,188.5408904608229L187.1411125,188.9587689274235L187.5319203125,200.55235273244102L189.2068109375,191.12124734681137L189.43012968749997,209.45388978458223L189.485959375,186.31003357015123L189.709278125,194.0309474848233L191.5516578125,211.2582541852706L191.7749765625,184.1779279877455L191.83080625,188.83412848530472L192.1099546875,194.10504643093512L192.835740625,202.35891548775206L193.282378125,196.10362536102096L193.4498671875,194.3615714454028L194.56646093749998,321.1710172500239L195.0130984375,344.5117298288758L195.29224687500002,313.57024040561595L195.40390625,262.5918087725344L195.5713953125,219.62852893061452L195.68305468749998,200.11917738390156L195.73888437499997,187.48027295433806L196.3530109375,173.35860260266068L196.40884062499998,186.55466809235827L196.4646703125,204.9967421116202L196.5763296875,242.35168099135768L196.6879890625,232.5976875765957L196.9671375,274.06749659441925L197.078796875,206.42676895656004L197.52543437499997,224.3342779584597L199.03283593749998,205.74041001644952L199.08866562499998,195.36056547550697L199.7027921875,244.70847411069258L199.758621875,226.68365672695438L200.31691875,250.2683168935844L200.37274843749998,219.7671759856581L200.5402375,231.39677959677627L200.9310453125,239.68852313755193L201.321853125,199.23263928332852L202.0476390625,222.19592442337014L202.49427656249998,208.01589770847553L202.55010625,227.86652155558653L202.94091406249998,262.6575373242721L203.108403125,233.1247700192785L203.1642328125,223.4133371435555L203.2200625,206.6815945102546L203.3875515625,95.29274707200766L204.448315625,136.7477308581031L204.894953125,151.54564550338714L204.9507828125,152.23406219572934L205.118271875,66.04340759967437L205.5090796875,123.63443222078487L205.67656875,124.98231440245799L205.788228125,163.26971383170078L205.9557171875,245.7040651675609L206.1790359375,188.52095772643167L206.681503125,174.88508732608534L207.01648125,177.07160199180188L207.2956296875,170.22745438711803L207.5189484375,163.20585428255973L207.6306078125,190.73332234965673L208.1889046875,178.06788758882058L208.244734375,183.11491846510694L208.46805312499998,208.74513865790107L208.74720156249998,206.2677931226177L208.80303125,213.15430186412044L208.8588609375,250.46939014328296L209.02635,267.5217420355446L209.5288171875,227.17200104967552L209.584646875,194.37022352561826L209.6404765625,199.91312917279495L209.919625,248.6822065047857L210.1987734375,226.15404299492263L210.36626249999998,271.1353823399223L210.6454109375,224.98010165228507L210.7570703125,257.3338087165402L210.924559375,244.9303421197762L211.31536718750002,219.15921670705637L211.9853234375,208.85820880637903L212.82276875,183.64488826854836L213.49272499999998,205.95391990342023L214.051021875,205.12181832948315L214.274340625,201.32292292848626L214.60931875,118.68279066683077L215.0001265625,136.87391612729175L215.05595624999998,183.6198112356706L215.5584234375,175.73479945985747L215.614253125,180.8133512627776L216.67501718749998,194.82235158433707L216.730846875,243.7556400753072L217.2333140625,252.10689181826572L217.3449734375,208.79305361156915L218.740715625,258.15224656132017L218.9082046875,233.82183995644553L219.07569375,227.20605681022198L219.410671875,259.18974911578584L219.633990625,230.59425861482651L219.6898203125,216.24235769219115L220.638925,194.7179705069874L220.8064140625,223.54399870433878L221.197221875,198.60854907789917L221.36471093749998,200.28764776364437L221.4763703125,201.62581945245734L221.8113484375,194.9689060099041L222.537134375,133.430307502376L223.09543125,229.29231275409055L223.2629203125,243.08146456056593L223.43040937499998,210.56101128562548L223.877046875,208.0528375770903L224.3795140625,177.08288376726256L225.216959375,238.86829798140633L225.94274531249997,237.05155826043205L227.003509375,242.79190456329457L227.1709984375,218.1715722767036L227.9526140625,222.41555008217807L228.00844374999997,220.08855674023508L228.343421875,183.64157201462032L228.6784,180.89765861201116L229.06920781249997,181.8029919300548L229.1250375,69.2313790699285L229.1808671875,111.21302537006777L229.2925265625,218.50847149620043L229.51584531249998,214.26095263598117L229.7391640625,179.95535472495007L229.96248281249999,177.62284252323298L230.0183125,188.8568035122408L230.07414218750003,206.79867956777312L230.353290625,228.41313991788942L230.46495,208.29816442635024L231.02324687499998,208.1969080641253L231.41405468749997,167.11456417288687L232.9772859375,168.05921158341343L233.256434375,169.86417939552354L233.7589015625,180.42504771325196L233.926390625,162.9324134177359L234.03805,169.0269262941514L234.42885781249998,162.18574497810025L234.70800624999998,154.1040373824695L235.15464375,152.18462562060293L235.3779625,191.76586185790686L235.43379218749996,178.69789773760792L235.60128124999997,188.75340416355073L235.71294062500002,180.26424167746205L236.1037484375,171.00439016537223L236.7737046875,182.71497830062938L236.8853640625,188.1394220211694L238.11361718749998,236.79619549226297L238.28110625,220.9826223920478L239.95599687499998,227.0616942924677L240.402634375,230.67426251664287L242.30084374999998,239.04084974504255L242.57999218749998,281.17400465395093L243.19411874999997,243.20206527304256L243.6965859375,220.4967410190402L244.08739375,202.34801676413406L244.19905312499998,209.61057680372997L244.3665421875,139.75309296563043L244.47820156249998,184.77349913188698L244.75735,199.1019995137188L244.81317968749997,176.08432917142707L245.25981718749998,191.0179084401019L245.315646875,196.93237325314783L245.87394375,211.2904185261178L246.09726250000003,221.15349204177758L246.655559375,207.00214024485237L246.87887812499997,218.86707464119448L247.102196875,191.6742711976806L247.548834375,234.3698833375556L247.8279828125,215.455937678976L248.66542812499998,176.43600220801235L248.7212578125,185.23060646447635L249.05623593750002,197.76674459055909L249.44704375,227.1817252974262L249.6703625,190.85075534625162L250.228659375,160.61280322021221L250.28448906249997,148.1399622437116L250.34031875,165.80035307864887L250.39614843750002,215.99597617900707L250.73112656249998,239.8511453921578L250.84278593750003,226.94940841525695L251.010275,176.74821582831876L251.23359374999998,175.06230169573195L251.4010828125,158.51200066033275L252.015209375,156.4390427551067L252.685165625,155.41416503676152L253.1876328125,151.66672790262132L253.24346249999996,187.42395444838021L253.52261093750002,236.38039751923782L253.69009999999997,235.78694307849818L254.025078125,211.87699925926952L254.248396875,241.74984988388L254.47171562499997,228.5343948571877L254.91835312499998,213.74069570515525L255.0858421875,190.8968326350885L255.4208203125,248.31796605393328L255.47664999999998,207.74817006789667L255.9232875,181.95263167025445L256.09077656249997,212.12861114224876L256.14660625,168.14983727225314L256.8165625,196.23922922823039L257.54234843750004,201.0667109963093L257.598178125,234.61363725325208L257.6540078125,219.53706329143503L257.7098375,183.29395755773677L258.49145312499996,215.7833824196214L259.831365625,193.98052266669822L259.9988546875,190.07708176433582L260.1105140625,126.03062447186029L260.2221734375,156.16797363127705L260.3896625,181.69306173741086L260.61298125,227.8170469054736L260.78047031250003,260.0544792164858L260.8363,259.5277042001186L261.841234375,122.33058971621787L262.39953125,130.35003855898918L263.0694875,155.75564542060064L263.3486359375,76.60579467601568L263.404465625,137.8827777750512L263.5719546875,158.41403505288898L264.18608125000003,203.7739560430251L264.2419109375,221.4547949845592L264.9118671875,221.00998731940987L264.967696875,209.2524170984231L265.07935625,102.69164985673073L265.13518593749995,135.0413572922734L265.30267499999997,148.69304548116835L265.3585046875,165.19759122379014L265.41433437499995,162.08250721204715L265.8051421875,203.3228079631434L265.9168015625,196.7592609179718L266.86590625,182.17727235075048L266.977565625,212.27232400844213L267.03339531250003,215.77273281576063L267.2567140625,210.20025687314188L267.424203125,208.0552819543907L268.3733078125,198.88279085003288L268.70828593749997,173.68036163236454L269.2665828125,177.3781758251933L270.15985781250004,130.2483787121265L270.662325,157.01114763310892L270.773984375,58.87005737716759L270.88564375,79.14139573153753L271.1647921875,123.87059911316777L271.33228125,148.55612309908557L271.83474843749997,139.0589618373058L272.0022375,178.6092507812269L272.1697265625,182.09088009036915L273.677128125,182.26077853105863L274.01210625,76.45394925949407L274.1795953125,115.29021887388296L274.4029140625,141.16103953762735L274.7378921875,162.12467799173126L274.90538125,155.6554642453969L275.2961890625,192.2435795904307L275.4078484375,172.75588035033817L275.5753375,180.61005204188842L276.52444218750003,176.4506640350902L276.7477609375,165.61902745064592L277.1943984375,211.11441071528083L277.250228125,220.98742551623528L277.75269531249995,224.73023384622005L278.0876734375,189.25959594534598L278.143503125,213.47915138892395L278.19933281249996,205.97299374396852L278.36682187499997,206.6111920669989L278.7018,187.0191733039606L279.1484375,174.58228327416538L279.595075,161.87099500646082L279.81839375,205.51526232649832L279.93005312500003,183.45321524196837L280.4325203125,288.3319946371751L280.71166874999994,287.28835951347577L281.04664687499996,234.61765806114337L281.381625,239.14283388596198L281.77243281249997,209.7808664425696L282.77736718750003,194.97399300244373L283.83813124999995,223.0985066845432L284.06145,208.75752841359872L284.28476874999996,217.43783671216065L285.2338734375,194.4234658949926L285.5688515625,169.71211770812792L285.90382968750004,195.28490294400916L286.07131875,191.41519184142788L287.076253125,192.521533476693L287.29957187499997,201.45968194845275L287.69037968749996,190.62886515484027L287.85786874999997,208.25788467263632L288.4719953125,190.91948404988912L289.0302921875,171.11309968082875L289.086121875,171.02585922866336L289.2536109375,180.91652131392135L289.8677375,230.26899062979373L290.70518281249997,200.33041449023185L290.7610125,208.4248233693813L291.4867984375,219.39069110898035L291.8217765625,197.29524080801733L291.9334359375,208.62460669387613L291.98926562500003,198.7558513830656L292.32424375,171.58504817191087L292.882540625,146.52225098592058L293.0500296875,142.86865610429854L293.21751874999995,137.5555537216816L293.2733484375,153.42497632938347L293.49666718749995,148.14762104772177L294.0549640625,75.47975463801238L294.78075,103.4610584127918L294.8365796875,190.27291959611648L295.785684375,179.04654369009364L296.3998109375,173.98866900555004L296.90227812499995,187.34245823672455L297.1814265625,108.46585581412563L297.460575,132.46682774450773L297.79555312499997,162.21531018074177L298.2980203125,166.05834571792175L298.7446578125,179.55098548098516L299.247125,170.76213638721387L299.8612515625,183.4123765830507L300.1404,174.4609645011609L300.30788906249995,173.67694770907872L301.20116406249997,203.5876829521788L301.6478015625,234.80888339064103L301.8711203125,226.53763255386494L302.038609375,104.48325016245619L302.20609843750003,144.3744818815315L302.261928125,148.6678119926883L302.70856562499995,153.64496600802147L302.820225,146.1883183410291L303.43435156249996,156.3329717531119L303.88098906249996,154.08537792847443L304.495115625,170.34002540719064L304.718434375,165.63638218767383L305.165071875,207.50891795472464L306.44915468749997,190.26978298057784L306.7841328125,162.82015566048835L307.00745156249997,174.7746942441731L307.844896875,184.40765696373L308.179875,154.10945375923185L308.3473640625,146.79257013100695L308.45902343750004,57.884818595836585L308.84983124999997,96.60844805371161L309.0173203125,139.09861289579518L309.24063906249995,120.90564747126216L309.4639578125,143.68574847065193L309.51978749999995,163.81034250229263L309.68727656249996,147.96916674277983L310.41306249999997,168.81306866825716L310.524721875,146.4815857967998L310.63638125,165.6313593722144L310.8597,159.61437518219694L311.08301875,154.86445802939255L311.194678125,157.5870639154853L311.641315625,157.64586319543176L312.19961249999994,179.25049936384303L312.981228125,179.66568174924677L313.1487171875,199.12583644568664L313.31620625,188.15366739857032L314.2653109375,184.8332079896998L315.10275625,177.246504440884L315.38190468749997,206.20664006967158L315.437734375,198.91015646357613L315.66105312499997,222.97869269152042L315.884371875,176.14512618442114L315.94020156249996,228.62300049499532L316.107690625,223.46451751730368L316.3868390625,310.3091397782655L316.44266875,254.84393488370316L317.000965625,227.12867935698992L317.447603125,155.22290390452812L317.67092187500003,192.1934726499782L317.78258125,176.007294114228L318.11755937500004,195.03125946668538L318.564196875,205.15257026919386L318.62002656249996,233.3775199383615L318.9550046875,232.43484075050281L319.12249375,218.4390348862452L319.904109375,233.22839698816387L320.0715984375,255.2026386516795L320.127428125,232.58928074782128L320.2949171875,232.52223287231746L321.2998515625,268.4487088334977L321.5231703125,221.7334107605073L321.91397812499997,204.38925903921054L322.24895625,182.99657021692246L322.47227499999997,178.38969936409103L322.5281046875,197.33317474388198L323.253890625,235.5352682026016L323.700528125,214.27066475660314L324.03550625,247.47752145833192L324.20299531250004,217.61529587848847L324.370484375,258.75689315285615L324.48214375000003,205.95991490375786L324.593803125,193.50967137470914L325.487078125,216.0970289575363L325.59873749999997,208.55946719650282L325.71039687499996,192.00999774140433L325.7662265625,193.16550588768115L325.82205625,208.31140743987598L326.2128640625,183.4657149511387L326.26869375,267.56728736149154L327.273628125,304.0344010805303L327.4411171875,231.85336537849204L328.39022187499995,225.94377702687942L329.11600781249996,186.7214642497784L329.84179375,176.56698124406066L329.953453125,174.91083617685652L331.0142171875,234.76417023943918L331.23753593749996,211.244340111854L331.62834375,212.16227249108314L331.8516625,198.81831406634586L332.1308109375,188.8110656047755L333.749871875,174.58414610852157L333.86153125000004,208.27936056830106L334.419828125,212.25508502867382L334.47565781249995,206.67519673355358L336.2622078125,197.1789119282244L337.60212031249995,205.48210155400878L338.2720765625,189.0023994491493L338.3837359375,211.59534925099175L338.662884375,192.30332253302728L339.22118125,187.2533111607568L339.3886703125,182.6223539373598L339.4445,207.76330713399176L339.8911375,316.501350203959L340.002796875,272.75467027811675L340.2819453125,231.29742379340607L340.61692343749996,223.52736463955867L341.789346875,193.5453610826243L342.34764375,219.1910906717405L342.5709625,201.19256752840033L342.79428125,194.92114055620445L343.1850890625,208.09389117042315L343.4084078125,197.4494792144305L343.4642375,178.90586773877186L343.575896875,249.84145698740974L343.6317265625,265.39326664087105L344.30168281249996,222.68995896345535L344.80415,209.8279391409925L345.4182765625,219.34031400771772L346.03240312500003,189.87506776864436L346.1440625,171.63318748761307L346.4232109375,208.79117487761812L346.5348703125,219.2197471552698L346.81401875,213.96894720953338L347.14899687499997,191.0918484753071L347.53980468749995,227.23054720316514L347.7631234375,240.60814338537588L348.265590625,231.72018702991318L349.1030359375,225.63388732374207L349.158865625,202.5522251325875L349.382184375,51.08285409200355L349.605503125,113.88605815959897L349.7729921875,125.9790801930007L350.94541562499995,153.71294078395235L351.3362234375,165.9981471290121L351.4478828125,165.51582333981594L351.55954218749997,152.75936563932657L352.731965625,183.50109578842168L352.7877953125,259.51281558081047L352.955284375,241.42758448881654L353.06694375,197.03366765953726L353.2902625,195.47238222108862L353.34609218749995,206.41417515683122L353.62524062499995,210.96345680003128L353.7369,186.07928295758242L353.848559375,184.42401732500522L354.1277078125,217.05974480408125L355.188471875,216.27063495058454L355.52345,258.8435416110674L355.635109375,213.03075049052538L355.8025984375,223.53306493995555L356.305065625,228.28293930195554L356.91919218749996,233.97936415693832L357.421659375,204.3919460456867L357.47748906249996,208.0924822140515L357.7008078125,225.62037532620337L358.2591046875,251.9987862969996L358.6499125,250.2052515704766L358.87323125,274.4311220383246L359.2640390625,225.9035080593187L359.8223359375,210.4065531604307L359.9339953125,212.93283436970796L359.989825,247.05664962695178L360.21314375,229.62292368908402L360.32480312499996,226.07055810113545L360.4364625,218.4574251354922L360.49229218749997,228.21240972963108L360.60395156249996,117.06814659130858L361.218078125,184.4576642622092L362.66965,197.72663160023325L363.11628749999994,188.90442867988702L363.28377656249995,200.96790923226507L363.3954359375,186.59583371608636L363.45126562499996,200.72859099147237L363.8420734375,275.4741812545312L364.0653921875,222.00213605552426L364.17705156249997,227.474939050612L364.344540625,210.6760622157674L365.4053046875,128.46576213999725L365.7961125,192.65150159297863L365.907771875,218.95432773648764L366.0752609375,199.9783158267682L366.6335578125,250.25018208613884L367.30351406249997,238.7628247502896L368.69925625,200.3961581248118L370.8766140625,207.88709568131387L371.4349109375,193.11254801242615L372.2165265625,182.09707974129344L372.49567499999995,189.33901286959718L372.607334375,159.4897969137037L373.3331203125,205.8787066839379L374.2263953125,191.8410605213387L374.393884375,193.74881845442493L374.7846921875,183.6937115056992L374.95218125,226.94321817539225L375.3429890625,252.74844894239575L375.733796875,246.41882546005203L375.90128593749995,158.31489664271015L376.29209375,157.38943885537708L376.4595828125,181.20681687259307L376.850390625,182.2050469322821L376.96205,196.054955013821L377.1295390625,236.70101792508143L377.18536875,225.53361880914636L377.2411984375,221.93177368722118L377.297028125,275.608702992291L377.6878359375,251.928646477992L378.07864375,222.37822616473903L378.5811109375,206.83472709085206L378.8044296875,185.83943278924005L379.02774843749995,98.61886426211613L380.1443421875,161.10223718723407L380.8142984375,231.8367447311126L381.428425,210.81846472349432L382.3775296875,115.49168610211221L382.9358265625,161.9935452916383L383.32663437499997,200.6491980698601L383.4941234375,262.5672890750704L384.0524203125,246.09376563279633L384.10825,265.90618190953415L384.219909375,255.0050312307833L384.5548875,311.2882063961441L384.9456953125,298.3859461015315L386.3972671875,290.5356507539264L387.123053125,244.39275495049424L387.90466875,238.9201817979638L388.1838171875,215.83098131439414L388.35130625,220.8992602071444L388.79794375,200.7049045905241L389.13292187499997,200.58142730860524L389.7470484375,202.9328853603322L390.249515625,224.46041474637101L390.6403234375,205.82520031470094L390.9753015625,185.0248267623071L391.1986203125,184.67400256627496L391.3102796875,174.67600067357438L391.36610937499995,244.6739560916039L393.041,232.07646768216364L393.26431875,273.8860549346053L393.3201484375,237.58961801223617L393.71095625,223.18174843287093L393.7667859375,235.91630900082376L394.715890625,228.67384533193157L395.05086874999995,213.77367152436435L395.162528125,201.44189176756458L395.21835781249996,115.12280635316138L395.832484375,129.4457469082613L395.9999734375,131.42256517986905L396.7815890625,130.45318259267265L397.0049078125,194.17035191934244L397.11656718750004,208.7991439442689L397.78652343749997,198.95782800957707L398.2331609375,202.88237175412078L398.512309375,167.06062994639353L398.62396874999996,181.24678121948403L398.735628125,229.43713809814557L400.1872,207.37201485097293L401.13630468749994,183.83033940629102L401.8062609375,222.51218902331155L401.862090625,203.0590896006121L402.2528984375,217.28161544376778L402.5878765625,213.77070117060825L403.09034375,214.38319760996814L403.1461734375,192.02627206507537L403.3694921875,175.8677844246022L403.5928109375,188.9796285811934L403.8161296875,177.4782133847797L403.98361874999995,200.41890714667176L404.095278125,199.88310974897138L404.3744265625,188.57807011243398L404.8210640625,198.28908395868547L405.8259984375,212.46368055404432L406.3842953125,252.61418903387317L406.4959546875,215.58674300024936L406.88676250000003,179.59851857211208L407.3334,44.46076694440464L407.38922968749995,100.70876423107573L407.55671874999996,160.71579773974628L408.338334375,190.81321376017084L409.11995,202.90487682889733L409.34326875,197.97540592394762L409.3990984375,196.74654847329361L409.454928125,199.49762444861037L410.1807140625,190.27292893628663L410.51569218749995,198.54857839525005L410.79484062499995,92.2943851950581L410.8506703125,161.1499625366616L410.96232968749996,193.4947029464457L411.12981874999997,191.09633548933334L411.24147812499996,188.2910811893825L411.40896718749997,262.51821694330476L412.02309375,261.60301498704797L413.474665625,253.6888148872075L414.4796,216.8888687345199L415.3170453125,195.5365404001561L415.484534375,209.34327328870828L415.5403640625,125.85534958444121L415.7636828125,129.45396680276846L415.8753421875,145.08078707044103L416.4336390625,175.66550216347844L417.21525468749996,177.40113022290205L417.9968703125,168.6615911624583L418.22018906249997,174.3277242045655L418.387678125,179.37988781100833L418.4435078125,162.54830336073837L419.950909375,161.8610858410585L420.28588749999994,166.07147938549434L420.45337656249995,242.2477857025858L420.95584375,224.635103306317L421.290821875,203.0892058538263L421.5699703125,230.1907604889194L421.62579999999997,243.02214675482847L421.6816296875,241.35334835054533L421.7932890625,114.19164094290376L422.29575625,154.55480612691994L422.4632453125,200.74635918961033L422.5749046875,187.01898482656117L422.7982234375,183.80832324355228L423.46817968749997,259.96165012873826L423.57983906249996,256.15523444547824L423.74732812499997,278.9688008006488L424.02647656249997,280.5624155944233L424.2497953125,239.86427233689912L425.1430703125,231.95524356011887L425.1989,230.63176264709818L425.42221875,199.4410687665933L425.9246859375,229.2965645540234L426.4829828125,186.02583657990746" style="fill: none;" fill="none"></path></g></g></g></g><g opacity="0.2"><g><g><g><path stroke="rgb(255, 112, 67)" stroke-width="2px" d="M56.053006249999996,136.06547379493722L56.834621874999996,194.61218857765206L57.281259375,339.84344347318023L57.33708906249999,149.57276248931893L58.062875,221.87379662195846L58.45368281249999,204.8796155452729L58.5095125,141.21686442693087L59.291128125,165.1196645100912L59.346957812499994,149.14117042223623L59.5702765625,136.38935510317495L59.793595312499995,183.56082503000906L60.128573437499995,180.85712019602468L60.407721875,207.03712646166488L60.79852968749999,183.63902393976858L61.3568265625,161.9824201265972L61.580145312499994,157.95832220713308L61.8034640625,256.4850535392762L62.5850796875,137.70735128720614L62.808398437499996,189.43727835019442L62.86422812499999,160.36735796928414L62.97588749999999,197.8704764842988L63.087546874999994,178.38336809476223L63.42252499999999,130.74689928690603L63.869162499999995,129.2251664797466L64.0366515625,161.96713987986257L64.5949484375,227.56119434038803L64.76243749999999,114.69589893023183L64.87409687499999,-46.837881167729556L64.98575625,252.56012741724655L65.43239374999999,167.37514877319344L65.7115421875,174.98740816116342L66.4931578125,-55.24081842104583L67.1631140625,199.68717797597262L67.2747734375,263.65223828951525L67.7214109375,138.3642520904542L68.6146859375,167.1558322906495L69.45213125,214.92413067817697L69.5079609375,-87.6517198085784L70.233746875,184.3919506072999L70.28957656249999,188.52286044756576L70.95953281249999,242.23113004366562L71.127021875,-59.99357438087455L71.573659375,194.98970055580148L71.74114843749999,133.69748497009286L72.020296875,295.3825694719951L72.2994453125,117.18777759869904L73.02523125,171.85810351371774L73.47186875,192.63025069236764L73.583528125,156.01743125915536L73.6393578125,159.53683161735543L73.806846875,351.60653694470733L75.0909296875,227.2692217826844L75.146759375,272.60047062238067L75.816715625,240.61531885464993L76.15169375,205.445583899816L76.2075234375,229.37070512771615L76.26335312500001,211.71183331807467L76.933309375,337.98973981539416L77.37994687499999,227.02294015884408L77.60326562499999,187.17070841789254L77.714925,183.73280270894375L77.9940734375,328.92420911788946L78.27322187499999,169.94267964363107L78.38488124999999,129.14217376708993L78.9990078125,185.46905819575002L79.3339859375,141.75317112604787L79.389815625,184.07136503855398L80.17143125,143.91083184878042L80.2272609375,118.74756121635446L80.33892031250001,271.7647010485332L80.729728125,170.5105954806011L81.06470625,256.8779955705008L81.5671734375,150.47444685300198L81.7904921875,184.58594981829336L81.95798125,161.08657821019497L82.06964062499999,155.07889453570058L82.292959375,154.19728422164926L82.3487890625,165.61881923675546L82.6279375,157.12644759813955L82.68376718750001,161.88924058278408L83.0187453125,199.72208285331735L84.302828125,156.0066452026368L84.41448749999999,164.576017300288L84.47031718749999,174.59776186943063L84.526146875,173.20875747998562L84.69363593749999,217.2263545195262L84.8052953125,-78.695098320643L85.5869109375,194.67435820897433L85.642740625,366.33579595883697L85.7544,284.61149358749395L85.866059375,219.3600462277731L85.97771875,240.81141535441085L86.2010375,176.13642279307058L86.312696875,139.86066762606313L86.647675,204.91467022895822L86.87099375,191.9862332344056L87.205971875,394.80349485079455L87.31763125,158.8295958836874L87.54095,159.3748909632366L88.434225,197.6676386992137L88.769203125,160.2033200263978L88.99252187500001,254.35420815149948L89.10418125,187.65697979927072L90.0532859375,260.001307964325L90.109115625,174.46518325805673L90.55575312500001,195.35717550913498L90.6115828125,268.2518921693167L90.89073124999999,171.14877049128225L90.9465609375,151.99872636795052L91.3931984375,17.646857341130687L91.7281765625,308.7821474075318L91.78400624999999,185.05813940366116L92.0631546875,279.9364871184032L92.56562187499999,128.82758045196542L93.0680890625,138.50716733932504L93.5147265625,217.7016900380453L93.57055625,174.4617377122244L94.46383125,-34.51780772209159L94.575490625,177.5466996828716L96.08289218750001,164.92102130254116L96.1945515625,243.85832651456204L96.3062109375,317.63090833028167L96.4737,285.6045598189037L96.6411890625,284.31712412834173L96.69701875,130.62510673205068L97.366975,166.07138419151315L98.48356875,276.2708757718405L99.0976953125,278.4372252623241L99.153525,243.50373490651455L99.488503125,312.14754684766143L99.82348125,209.642258723577L100.71675625,309.3633960088095L100.7725859375,207.284456729889L100.8842453125,195.29530549049386L101.5542015625,159.51600853602102L102.2799875,251.19419320424404L102.726625,210.48821512858078L102.8941140625,173.83839352925625L103.6757296875,183.7422405083975L103.95487812500001,259.5962316195171L104.178196875,199.5993914604188L104.4573453125,197.75153024991366L105.29479062499999,160.97272539138802L105.9089171875,162.48052620887765L106.1322359375,190.15814646085116L107.751296875,151.6056345303854L107.86295625,162.71122797330227L108.42125312499999,252.9352424939474L108.81206093750001,162.04084459940603L109.59367656250001,108.58664655685433L110.4869515625,195.28706614176437L110.65444062499999,183.85594352086392L111.32439687499999,195.76225185394296L111.6035453125,154.68745056788137L111.77103437499999,186.5840667883556L111.88269375,125.90710584322622L112.4968203125,255.5063687165579L112.88762812499999,192.0961910883586L113.11094687499998,267.03321758906054L113.22260625,327.197391430537L113.72507343749999,185.54710729916897L114.7858375,139.95145026842764L115.56745312499999,-28.587274312972937L115.62328281250001,239.67932883898422L115.7349421875,232.62434903780624L115.9582609375,118.49588656425485L116.46072812499999,222.350929816564L117.13068437499999,229.57099620501205L117.35400312499999,151.3361329237621L117.46566250000001,272.05337786674505L117.6331515625,162.51063728332528L117.74481093749999,310.3653008143108L117.85647031250001,160.30758523941049L118.41476718749999,216.2365840276083L118.6380859375,175.2309932708741L119.02889375000001,164.18277565638235L119.140553125,197.26885422070833L119.41970156249998,147.3953273296357L119.810509375,175.04163805643728L120.08965781249998,181.13216463724783L120.1454875,161.81268954277047L120.81544375,248.6961724758149L121.373740625,242.8715521494548L121.48540000000001,257.20247610410064L121.54122968749999,328.36423301696783L121.9320375,48.85406478246064L122.2111859375,165.1845306555431L122.4345046875,153.64045405387887L122.49033437499999,281.0303730169933L123.16029062499999,198.78339632352206L123.606928125,206.74155855178842L123.830246875,314.4040797551474L124.10939531249998,170.27240339914968L124.2210546875,237.5523784160615L125.28181875000001,410.33017301559454L125.393478125,323.42526777585357L125.67262656249999,134.61130364735934L125.72845624999998,154.48296491305044L125.840115625,457.5458358128866L126.0076046875,220.26083175341293L126.23092343750001,261.35825379689544L126.56590156249999,208.53593889872238L126.78922031249999,257.1732638676962L127.06836874999999,160.71880364418038L127.403346875,163.71373200416573L127.57083593750001,172.04581085840871L127.849984375,184.39674441019704L128.296621875,-1.8249708016712065L128.519940625,234.3938615322114L128.743259375,190.45775914192208L129.24572656249998,217.582144578298L129.636534375,112.7409261862438L129.8040234375,208.76199666659042L129.859853125,-18.975849310556935L130.3623203125,120.11634174982717L130.9206171875,202.01681637763986L131.7580625,204.87616999944063L131.98138125,168.11624073982247L132.5955078125,154.37061015764883L132.65133749999998,115.44972443580636L132.87465625,198.0814038117728L133.6004421875,135.83671951293954L134.9403546875,169.1705777645112L136.112778125,301.3490564028423L136.1686078125,119.70377508799245L136.7269046875,229.15348593393966L137.17354218749998,217.98377537727364L137.229371875,154.090622107188L137.39686093749998,137.26422413190218L138.12264687500002,215.89742247263595L138.23430625,212.74819358189907L138.8484328125,211.75977134704598L139.015921875,189.58423837025973L139.239240625,168.9412242571514L139.685878125,129.08719484011343L140.0766859375,212.05953383445748L140.132515625,426.1816313266755L140.30000468749998,169.15394926071176L140.46749375,316.9704121748607L141.13745,177.49666436513272L141.472428125,264.21580974260974L141.695746875,219.10402719179794L142.25404375,225.22106949488327L142.4215328125,210.32762273152682L143.2031484375,260.06138030687976L143.3706375,186.11007952690133L143.64978593749998,216.94262131055203L143.817275,145.28800153732308L144.3197421875,233.67194477717086L144.93386875,167.1481921672822L145.2130171875,183.4522154331208L145.3246765625,277.5872240861258L146.66458906249997,187.63675594329843L147.11122656249998,161.3737569650015L147.2228859375,152.78146449724844L147.390375,196.5171260039012L147.725353125,191.9017424583436L147.7811828125,153.31612332661953L148.17199062499998,194.4198372364045L148.618628125,275.7943418025971L148.841946875,204.60696800549837L149.065265625,244.9986523787181L149.4560734375,314.4457259178162L149.5677328125,249.93402226765957L149.9027109375,-62.78641398747748L150.405178125,159.2496528625489L150.851815625,347.76640121142077L150.96347500000002,183.21177625656136L151.1309640625,378.04615759849554L151.29845312499998,146.70906448364266L151.35428281249997,180.78296605745962L151.745090625,247.39180866877243L152.0242390625,206.89600888888046L152.415046875,159.52964091300973L152.91751406249998,199.12031078338632L153.14083281249998,203.92145419120797L153.2524921875,27.480445146560793L153.754959375,179.52833795547494L154.3690859375,162.06286613146474L154.92738281249999,329.92012166976934L155.0390421875,298.50932741165167L155.42985,133.14544860521963L155.70899843750001,177.4690999984742L155.8764875,229.25385618209847L156.32312499999998,139.54232915242525L157.3838890625,136.3797674973807L157.998015625,212.1495674451193L158.9471203125,201.51960913340255L159.1704390625,177.0351110299429L159.67290624999998,250.37550155321762L159.9520546875,251.9716881116232L160.007884375,156.28708267211923L160.0637140625,269.41753530502325L161.23613749999998,196.2933153311412L161.8502640625,219.45022964477548L162.017753125,159.47780791918447L162.35273125,244.54788510004684L162.4085609375,154.55487195650747L162.911028125,106.9816214243572L163.24600625,239.80786267916366L163.3018359375,284.455395380656L163.9159625,149.42580246925363L164.13928124999998,186.03532616297414L164.41842968749998,199.73122104009005L164.5300890625,168.68760212262478L165.03255625,216.67252047856655L165.255875,154.63217202822378L165.3117046875,219.70460081100472L165.4233640625,148.00983293851223L165.47919375,178.50950503349313L165.590853125,123.43530122439077L166.20497968749999,167.98680806159982L166.3166390625,150.3734773794811L166.7632765625,161.86362369855252L166.81910625,219.36274274190274L166.98659531250001,214.71964502334603L168.94063437499997,243.3611192703248L170.11305781250002,212.72677127520248L170.5596953125,164.94933470090237L171.2296515625,199.03926555315658L171.397140625,214.54512063662216L171.8996078125,213.65976516405746L172.4579046875,199.54920633633944L172.9045421875,170.50025884310415L173.07203125,203.93358850479135L173.23952031250002,351.0022181669872L173.57449843749998,154.2628993988038L173.85364687499998,153.2864616711935L173.9094765625,220.25498930613205L174.1327953125,435.11563205719L174.188625,217.5837924480439L174.5794328125,270.4968899885814L175.24938906249997,166.1780463059744L176.3659828125,235.73822363217678L176.9242796875,248.92942094802865L177.9292140625,365.8474272886913L178.32002187499998,170.85559948285427L178.7108296875,146.18923648198452L179.1574671875,159.3597605228425L179.2691265625,165.2783094247183L179.4924453125,146.42922623952236L179.8274234375,186.52878824869802L180.0507421875,379.87184747060144L180.66486875,239.965458949407L180.8323578125,213.3905631701152L181.11150625000002,131.70266373952242L181.8372921875,201.28666027386996L183.1772046875,223.85768198966989L184.5171171875,196.78557896614083L184.57294687499999,287.142771323522L185.13124374999998,179.0717282295228L185.2987328125,142.87956500053414L185.57788125,168.25885637601223L186.02451875,223.5791920026144L186.582815625,176.52277334531155L187.1411125,189.58558662732455L187.5319203125,217.94272843996688L189.2068109375,176.9745892683666L189.43012968749997,236.9528534412385L189.485959375,151.59424924850472L189.709278125,205.612318356832L191.5516578125,237.09921423594162L191.7749765625,143.55743869145718L191.83080625,195.81842923164376L192.1099546875,202.01142334938058L192.835740625,214.73971907297775L193.282378125,186.72069017092397L193.4498671875,191.7484905719758L194.56646093749998,511.38518595695496L195.0130984375,379.5227986971538L195.29224687500002,267.1580062707266L195.40390625,186.12416132291165L195.5713953125,155.1836091677349L195.68305468749998,170.85515006383267L195.73888437499997,168.52191630999258L196.3530109375,152.17609707514455L196.40884062499998,206.34876632690438L196.4646703125,232.65985314051315L196.5763296875,298.38408931096404L196.6879890625,217.9666974544526L196.9671375,336.27221012115484L197.078796875,104.9656774997712L197.52543437499997,251.19554146130886L199.03283593749998,177.84960810343435L199.08866562499998,179.7907986640931L199.7027921875,318.73033706347155L199.758621875,199.6464306513469L200.31691875,285.64530714352935L200.37274843749998,174.0154646237692L200.5402375,248.8411850134532L200.9310453125,252.1261384487153L201.321853125,138.54881350199392L202.0476390625,256.6408521334331L202.49427656249998,186.74585763613393L202.55010625,257.64245732625335L202.94091406249998,314.8440609773001L203.108403125,188.82561906178805L203.1642328125,208.8461878299714L203.2200625,181.58398056030282L203.3875515625,-71.79052408536262L204.448315625,198.9302065372468L204.894953125,173.74251747131356L204.9507828125,153.26668723424282L205.118271875,-63.24257429440802L205.5090796875,210.02096915245065L205.67656875,127.00413767496755L205.788228125,220.70081297556564L205.9557171875,369.3555921713512L206.1790359375,102.74629656473806L206.681503125,154.4312817255657L207.01648125,180.35137399037686L207.2956296875,159.96123298009243L207.5189484375,152.67345412572232L207.6306078125,232.0245244503022L208.1889046875,159.06973544756582L208.244734375,190.68546477953598L208.46805312499998,247.19046894709274L208.74720156249998,202.5517748196921L208.80303125,223.48406497637436L208.8588609375,306.44202256202703L209.02635,293.10026987393707L209.5288171875,166.6473895708721L209.584646875,145.16755723953256L209.6404765625,208.2274876435599L209.919625,321.8358225027721L210.1987734375,192.36179773012802L210.36626249999998,338.60739135742193L210.6454109375,155.74718062082937L210.7570703125,305.86436931292224L210.924559375,226.3251422246298L211.31536718750002,180.5025285879772L211.9853234375,193.406696955363L212.82276875,145.82490746180227L213.49272499999998,239.41746735572823L214.051021875,203.87366596857711L214.274340625,195.6245798269908L214.60931875,-5.277407725651919L215.0001265625,164.16060431798306L215.05595624999998,253.73865389823922L215.5584234375,163.9072817961376L215.614253125,188.4311789671581L216.67501718749998,215.83585206667587L216.730846875,317.15557281176257L217.2333140625,264.63376943270373L217.3449734375,143.82229630152395L218.740715625,332.1910359859467L218.9082046875,197.3262300491334L219.07569375,217.2823820908865L219.410671875,307.1652875741324L219.633990625,187.70102286338815L219.6898203125,194.71450630823776L220.638925,162.43138972918203L220.8064140625,266.78304100036627L221.197221875,161.20537463823965L221.36471093749998,202.8062957922618L221.4763703125,203.6330769856772L221.8113484375,184.9835358460745L222.537134375,41.12240974108388L223.09543125,373.0853206316631L223.2629203125,263.765192270279L223.43040937499998,161.7803313732148L223.877046875,204.29057701428744L224.3795140625,130.62795305252084L225.216959375,331.54641930262255L225.94274531249997,234.32644867897042L227.003509375,251.40242401758834L227.1709984375,181.2410738468171L227.9526140625,228.7815167903901L228.00844374999997,216.5980667273204L228.343421875,128.97109492619845L228.6784,176.78178850809743L229.06920781249997,183.16099190711984L229.1250375,-99.62604022026045L229.1808671875,174.185494820277L229.2925265625,379.4516406853994L229.51584531249998,207.8896743456523L229.7391640625,128.49695785840365L229.96248281249999,174.12407422065743L230.0183125,205.70774499575302L230.07414218750003,233.71149365107223L230.353290625,260.83483044306445L230.46495,178.12570118904122L231.02324687499998,208.04502352078768L231.41405468749997,105.49104833602914L232.9772859375,169.47618269920358L233.256434375,172.57163111368826L233.7589015625,196.26635018984481L233.926390625,136.693461974462L234.03805,178.16869560877493L234.42885781249998,151.92397300402334L234.70800624999998,141.98147598902395L235.15464375,149.30550797780361L235.3779625,251.13771621386215L235.43379218749996,159.0959515571595L235.60128124999997,203.83666380246493L235.71294062500002,167.53049794832876L236.1037484375,157.1146128972372L236.7737046875,200.28086050351473L236.8853640625,196.2760876019797L238.11361718749998,309.7813556989035L238.28110625,197.2622627417247L239.95599687499998,236.180302143097L240.402634375,236.09311485290536L242.30084374999998,251.59073058764145L242.57999218749998,344.3737370173137L243.19411874999997,186.24415620168057L243.6965859375,186.43875463803616L244.08739375,175.124930381775L244.19905312499998,220.50441686312362L244.3665421875,34.96686720848096L244.47820156249998,252.30410838127145L244.75735,220.59475008646652L244.81317968749997,141.5578236579896L245.25981718749998,213.41827734311428L245.315646875,205.80407047271737L245.87394375,232.82748643557235L246.09726250000003,235.948102315267L246.655559375,185.775112549464L246.87887812499997,236.66447623570767L247.102196875,150.88506603240975L247.548834375,298.41330154736846L247.8279828125,187.08501919110623L248.66542812499998,117.90609900156667L248.7212578125,198.42251284917208L249.05623593750002,216.5709517796835L249.44704375,271.3041963577271L249.6703625,136.35430041948965L250.228659375,115.25587503115347L250.28448906249997,129.43070077896127L250.34031875,192.29093933105477L250.39614843750002,291.2894108295441L250.73112656249998,275.6338992118836L250.84278593750003,207.59680294990548L251.010275,101.44642694791169L251.23359374999998,172.5334304968517L251.4010828125,133.6865491072338L252.015209375,153.32960589726773L252.685165625,153.87684845924386L253.1876328125,146.04557220141103L253.24346249999996,241.0597942670187L253.52261093750002,309.815062125524L253.69009999999997,234.896761417389L254.025078125,176.0120835304261L254.248396875,286.55912582079577L254.47171562499997,208.7112123171489L254.91835312499998,191.55014697710678L255.0858421875,156.63103802998867L255.4208203125,334.4496661822002L255.47664999999998,146.89347608884182L255.9232875,143.2593240737916L256.09077656249997,257.39258035024017L256.14660625,102.18167646725983L256.8165625,238.3733171621959L257.54234843750004,208.30793364842745L257.598178125,284.93402663866686L257.6540078125,196.9222023487092L257.7098375,128.92929895718905L258.49145312499996,264.5175197124482L259.831365625,161.2762330373129L259.9988546875,184.22192041079214L260.1105140625,29.96093853314729L260.2221734375,201.37399737040207L260.3896625,219.9806938966116L260.61298125,297.00302465756744L260.78047031250003,308.41062768300384L260.8363,258.7375416755677L261.841234375,-83.46508200963325L262.39953125,142.37921182314565L263.0694875,193.8640557130179L263.3486359375,-42.11898144086188L263.404465625,229.7982524236044L263.5719546875,189.21092096964523L264.18608125000003,271.8138375282288L264.2419109375,247.9760533968608L264.9118671875,220.34277582168588L264.967696875,191.61606176694247L265.07935625,-57.1495010058084L265.13518593749995,183.56591844558724L265.30267499999997,169.1705777645112L265.3585046875,189.95440983772286L265.41433437499995,157.40988119443264L265.8051421875,265.1832590897879L265.9168015625,186.91394035021474L266.86590625,160.30428949991872L266.977565625,257.4149014949799L267.03339531250003,221.02334602673855L267.2567140625,201.84154295921334L267.424203125,204.8378195762635L268.3733078125,185.1240541934968L268.70828593749997,135.8767178058625L269.2665828125,182.92489711443594L270.15985781250004,59.55368304252633L270.662325,197.15530101458236L270.773984375,-88.3415780067443L270.88564375,109.54840326309213L271.1647921875,190.96440418561312L271.33228125,185.5844090779623L271.83474843749997,124.81321994463613L272.0022375,237.934684197108L272.1697265625,187.3133240540823L273.677128125,182.51562619209298L274.01210625,-82.25629464785247L274.1795953125,173.5446232954662L274.4029140625,179.96727053324392L274.7378921875,193.5701356728873L274.90538125,145.9516436258953L275.2961890625,247.1257526079814L275.4078484375,143.52433149019888L275.5753375,192.39130957921358L276.52444218750003,170.21158202489224L276.7477609375,149.37157257397976L277.1943984375,279.3574856122336L277.250228125,235.7969477176667L277.75269531249995,230.34444634119674L278.0876734375,136.05363909403493L278.143503125,249.80848455429086L278.19933281249996,194.71375727653512L278.36682187499997,207.56848955154427L278.7018,157.6311451594036L279.1484375,155.92694822947195L279.595075,142.80406260490426L279.81839375,270.98166330655425L279.93005312500003,150.36014461517343L280.4325203125,445.6501637299856L280.71166874999994,285.7229068279267L281.04664687499996,155.61160588264474L281.381625,245.93059762318936L281.77243281249997,165.73791527748116L282.77736718750003,172.76368284225472L283.83813124999995,265.28527720769256L284.06145,187.2460610071819L284.28476874999996,230.45829916000375L285.2338734375,159.90190966924038L285.5688515625,132.64509542783114L285.90382968750004,233.64408079783126L286.07131875,185.61062518755605L287.076253125,194.1810459295909L287.29957187499997,214.86690465609237L287.69037968749996,174.38263996442166L287.85786874999997,234.7014139493307L288.4719953125,164.91188311576852L289.0302921875,141.40352312723806L289.086121875,170.89499855041512L289.2536109375,195.7525144418082L289.8677375,304.29769460360217L290.70518281249997,155.42255028088894L290.7610125,220.5664366881053L291.4867984375,235.83949271837875L291.8217765625,164.15206535657254L291.9334359375,225.61865552266445L291.98926562500003,183.95271841684988L292.32424375,130.82884335517892L292.882540625,108.92805520693472L293.0500296875,137.38826378186556L293.21751874999995,129.58590014775606L293.2733484375,177.22911024093636L293.49666718749995,140.23158812522897L294.0549640625,-33.52204497655219L294.78075,145.43301407496145L294.8365796875,320.490711371104L295.785684375,162.20697983105984L296.3998109375,166.4018569787344L296.90227812499995,207.37314208348604L297.1814265625,-9.849047819773244L297.460575,168.46828564008084L297.79555312499997,206.83803383509323L298.2980203125,171.82289902369192L298.7446578125,199.78994512557992L299.247125,157.57886274655667L299.8612515625,202.38773687680575L300.1404,161.0338463783265L300.30788906249995,172.50092252095547L301.20116406249997,248.45378581682846L301.6478015625,281.64068404833483L301.8711203125,214.13075629870102L302.038609375,-78.59832342465705L302.20609843750003,204.21132946014413L302.261928125,155.1078071594239L302.70856562499995,161.1106970310212L302.820225,135.00334684054067L303.43435156249996,171.54995187123623L303.88098906249996,150.7139871915182L304.495115625,194.7219966252646L304.718434375,158.58091735839852L305.165071875,270.31772160530096L306.44915468749997,164.41108051935842L306.7841328125,121.6457146803539L307.00745156249997,192.70650211970016L307.844896875,198.8571010430655L308.179875,108.66214895248422L308.3473640625,135.81724468866994L308.45902343750004,-75.47680870691924L308.84983124999997,154.69389224052438L309.0173203125,202.83386015892037L309.24063906249995,93.61619933446259L309.4639578125,177.85589996973684L309.51978749999995,193.99723354975387L309.68727656249996,124.20740310351064L310.41306249999997,200.07892155647286L310.524721875,112.98436148961396L310.63638125,194.3560197353364L310.8597,150.5888988971711L311.08301875,147.73958230018624L311.194678125,161.67097274462392L311.641315625,157.73406211535146L312.19961249999994,211.6574536164603L312.981228125,180.28845532735195L313.1487171875,228.31606849034634L313.31620625,171.6954138278962L314.2653109375,179.8525188763937L315.10275625,165.8664491176606L315.38190468749997,249.64684351285305L315.437734375,187.96543105443325L315.66105312499997,259.0814970334372L315.884371875,105.89477642377229L315.94020156249996,307.3398119608562L316.107690625,215.72679305076608L316.3868390625,440.57607316970825L316.44266875,171.64612754186L317.000965625,185.55579606692007L317.447603125,47.36424072583527L317.67092187500003,247.64932576815292L317.78258125,151.72802631060293L318.11755937500004,223.56720749537155L318.564196875,220.3345364729564L318.62002656249996,275.71494444211334L318.9550046875,231.02082196871444L319.12249375,197.4453260898591L319.904109375,255.41244014104214L320.0715984375,288.1640011469524L320.127428125,198.66924389203402L320.2949171875,232.42166105906173L321.2998515625,322.3384227752686L321.5231703125,151.6604636510214L321.91397812499997,178.37303145726528L322.24895625,150.90753698349008L322.47227499999997,171.47939308484402L322.5281046875,225.7483878135682L323.253890625,292.838408390681L323.700528125,182.37375958760586L324.03550625,297.28780651092535L324.20299531250004,172.82195750872305L324.370484375,320.4692890644074L324.48214375000003,126.76444753011079L324.593803125,174.83430608113613L325.487078125,249.978065331777L325.59873749999997,197.2531245549521L325.71039687499996,167.18579355875661L325.7662265625,194.8987681070964L325.82205625,231.03025976816818L326.2128640625,146.19717621803292L326.26869375,393.7196459770203L327.273628125,358.7350716590882L327.4411171875,123.58181182543447L328.39022187499995,217.0793944994609L329.11600781249996,127.8879950841269L329.84179375,161.3352567354839L329.953453125,172.4266185760499L331.0142171875,324.54417133331305L331.23753593749996,175.96459492047634L331.62834375,213.53917105992642L331.8516625,178.80237642924L332.1308109375,173.8001929124197L333.749871875,153.2437668641409L333.86153125000004,258.82218225797027L334.419828125,218.21867171923324L334.47565781249995,198.30536429087326L336.2622078125,182.9344847202302L337.60212031249995,217.936885992686L338.2720765625,164.28284629186L338.3837359375,245.48477395375576L338.662884375,163.36528245608022L339.22118125,179.67829410235097L339.3886703125,175.6759181022645L339.4445,245.4747369289399L339.8911375,479.6084148089092L340.002796875,207.13465038935348L340.2819453125,169.11155406634023L340.61692343749996,211.87227590878817L341.789346875,148.57235574722299L342.34764375,257.6596850554149L342.5709625,174.19478281339016L342.79428125,185.51400009791067L343.1850890625,227.85301709175118L343.4084078125,181.48286128044137L343.4642375,151.0904505252839L343.575896875,356.2448408603669L343.6317265625,288.7209811210633L344.30168281249996,158.6349974473318L344.80415,190.53490940729782L345.4182765625,233.60887630780545L346.03240312500003,145.67719841003426L346.1440625,144.27036706606557L346.4232109375,264.5281559626262L346.5348703125,234.8626055717469L346.81401875,206.09274729092928L347.14899687499997,156.77620037396755L347.53980468749995,281.43859529495245L347.7631234375,260.67453765869146L348.265590625,218.38825249671945L349.1030359375,216.50443776448574L349.158865625,167.9297318458558L349.382184375,-176.1212024688719L349.605503125,208.09086426099154L349.7729921875,144.1186132431031L350.94541562499995,195.31373167037972L351.3362234375,184.42595664660146L351.4478828125,164.7923376560212L351.55954218749997,133.62467908859261L352.731965625,229.61369101206466L352.7877953125,373.530395269394L352.955284375,214.29973785082504L353.06694375,130.44279241561898L353.2902625,193.1304540634156L353.34609218749995,222.82686456044522L353.62524062499995,217.78737926483163L353.7369,148.75302219390878L353.848559375,181.94111887613943L354.1277078125,266.013336022695L355.188471875,215.08697017033901L355.52345,322.70290160179144L355.635109375,144.3115638097128L355.8025984375,239.28653661410019L356.305065625,235.40775084495553L356.91919218749996,242.5240014394125L357.421659375,160.01081887880972L357.47748906249996,213.6432864665986L357.7008078125,251.91221499443063L358.2591046875,291.56640275319427L358.6499125,247.5149494806926L358.87323125,310.7699277400971L359.2640390625,153.1120870908102L359.8223359375,187.1611208120983L359.9339953125,216.72225618362435L359.989825,298.24237251281744L360.21314375,203.47233478228256L360.32480312499996,220.74200971921292L360.4364625,207.03772568702706L360.49229218749997,242.8448866208395L360.60395156249996,-49.648248116175225L361.218078125,285.54194076855987L362.66965,217.63008260726937L363.11628749999994,175.67112429936734L363.28377656249995,219.06313006083175L363.3954359375,165.03772044181832L363.45126562499996,221.92772690455124L363.8420734375,387.59256664911914L364.0653921875,141.79406825701406L364.17705156249997,235.6841435432435L364.344540625,185.47774696350106L365.4053046875,5.150312026341868L365.7961125,288.93011077245086L365.907771875,258.40856695175177L366.0752609375,171.5142979621888L366.6335578125,325.6579814751944L367.30351406249997,221.53178874651596L368.69925625,142.84615818659475L370.8766140625,219.1235020160676L371.4349109375,170.95072650909432L372.2165265625,165.5738773345948L372.49567499999995,200.20191256205246L372.607334375,114.7159729798636L373.3331203125,275.4620713392894L374.2263953125,170.78459127744046L374.393884375,196.6104553540549L374.7846921875,168.61105108261117L374.95218125,291.8174781799317L375.3429890625,291.4562950929007L375.733796875,236.9243902365367L375.90128593749995,26.15900341669728L376.29209375,156.00125217437753L376.4595828125,216.9328838984172L376.850390625,183.7023920218151L376.96205,216.8298171361288L377.1295390625,297.6701122919719L377.18536875,208.78252013524386L377.2411984375,216.52900600433358L377.297028125,356.1240969498953L377.6878359375,216.40856170654305L378.07864375,178.0525956948599L378.5811109375,183.51947848002126L378.8044296875,154.3464913368226L379.02774843749995,-32.2119885285694L380.1443421875,254.82729657491055L380.8142984375,337.938506046931L381.428425,179.29104471206674L382.3775296875,-27.498481829961L382.9358265625,231.74633407592782L383.32663437499997,258.63267723719287L383.4941234375,355.4444255828858L384.0524203125,221.38348046938583L384.10825,295.624806324641L384.219909375,238.6533052126567L384.5548875,395.7129691441854L384.9456953125,279.0325556596121L386.3972671875,278.7602077325186L387.123053125,175.17841124534615L387.90466875,230.71132206916818L388.1838171875,181.1971805890402L388.35130625,228.5016785462698L388.79794375,170.41337116559353L389.13292187499997,200.396211385727L389.7470484375,206.4600724379222L390.249515625,256.7517088254294L390.6403234375,177.8723786671957L390.9753015625,153.8242664337159L391.1986203125,184.14776627222707L391.3102796875,159.67899783452359L391.36610937499995,349.67088921864837L393.041,213.18023506800338L393.26431875,336.6004358132681L393.3201484375,183.14496262868252L393.71095625,201.56994406382248L393.7667859375,255.01814985275277L394.715890625,217.81014982859298L395.05086874999995,191.42341081301376L395.162528125,182.944222132365L395.21835781249996,-14.355821768442677L395.832484375,150.93015774091091L395.9999734375,134.38779258728036L396.7815890625,128.99910871187856L397.0049078125,289.7461059093476L397.11656718750004,230.74233198165902L397.78652343749997,184.19585410753896L398.2331609375,208.76918737093612L398.512309375,113.32801723480233L398.62396874999996,202.52600812911996L398.735628125,301.72267341613775L400.1872,174.2743299802145L401.13630468749994,148.5178262392681L401.8062609375,280.53496344884246L401.862090625,173.879440466563L402.2528984375,238.61540420850125L402.5878765625,208.50432976086947L403.09034375,215.3019422690074L403.1461734375,158.49088374773672L403.3694921875,151.63005296389272L403.5928109375,208.64739481608078L403.8161296875,160.2260905901592L403.98361874999995,234.82994778951016L404.095278125,199.07941365242013L404.3744265625,171.62051065762844L404.8210640625,212.855604728063L405.8259984375,233.7255754470826L406.3842953125,312.8399517536164L406.4959546875,160.04557394981393L406.88676250000003,125.61618192990632L407.3334,-158.24586049715666L407.38922968749995,185.08076016108205L407.55671874999996,250.72634800275173L408.338334375,235.95933779080715L409.11995,221.04237143198654L409.34326875,190.58119956652328L409.3990984375,194.90326229731247L409.454928125,203.62423841158554L410.1807140625,176.435885667801L410.51569218749995,210.96205258369454L410.79484062499995,-67.08690460522956L410.8506703125,264.43332854906726L410.96232968749996,242.01181356112167L411.12981874999997,187.49878430366525L411.24147812499996,184.08319973945626L411.40896718749997,373.8589205741883L412.02309375,260.23021205266326L413.474665625,241.81751473744717L414.4796,161.68894950548818L415.3170453125,163.5080478986105L415.484534375,230.05337262153634L415.5403640625,0.6234640280406657L415.7636828125,134.8518926302593L415.8753421875,168.52101747194936L416.4336390625,221.5425748030345L417.21525468749996,180.00457231203725L417.9968703125,155.5522825717927L418.22018906249997,182.82692376772573L418.387678125,186.9581332206727L418.4435078125,137.30092668533334L419.950909375,160.83025956153878L420.28588749999994,172.38706970214852L420.45337656249995,356.5122451782227L420.95584375,198.21607971191415L421.290821875,170.77035967508962L421.5699703125,270.8430924415589L421.62579999999997,262.2692261536917L421.6816296875,238.85015074412033L421.7932890625,-76.55092016855865L422.29575625,215.099553902944L422.4632453125,270.0336887836457L422.5749046875,166.42792328198757L422.7982234375,178.99233086903897L423.46817968749997,374.19164045651763L423.57983906249996,250.44561092058822L423.74732812499997,313.1891503334046L424.02647656249997,282.95283778508514L424.2497953125,178.81705745061245L425.1430703125,220.0917003949484L425.1989,228.6465412775676L425.42221875,152.65502794583645L425.9246859375,274.0798082351685L426.4829828125,121.11974461873383" style="fill: none;" fill="none"></path></g></g></g></g></g></g><g transform="translate(51, 377)" clip-path="url(#clip_1)"><clipPath id="clip_1"><rect width="446" height="23"></rect></clipPath><g><g><line x1="0" y1="0" x2="0" y2="5" style="visibility: inherit;" fill="rgb(0, 0, 0)" stroke="rgb(204, 204, 204)" stroke-width="1px"></line><line x1="55.8296875" y1="0" x2="55.8296875" y2="5" style="visibility: inherit;" fill="rgb(0, 0, 0)" stroke="rgb(204, 204, 204)" stroke-width="1px"></line><line x1="111.659375" y1="0" x2="111.659375" y2="5" style="visibility: inherit;" fill="rgb(0, 0, 0)" stroke="rgb(204, 204, 204)" stroke-width="1px"></line><line x1="167.4890625" y1="0" x2="167.4890625" y2="5" style="visibility: inherit;" fill="rgb(0, 0, 0)" stroke="rgb(204, 204, 204)" stroke-width="1px"></line><line x1="223.31875" y1="0" x2="223.31875" y2="5" style="visibility: inherit;" fill="rgb(0, 0, 0)" stroke="rgb(204, 204, 204)" stroke-width="1px"></line><line x1="279.1484375" y1="0" x2="279.1484375" y2="5" style="visibility: inherit;" fill="rgb(0, 0, 0)" stroke="rgb(204, 204, 204)" stroke-width="1px"></line><line x1="334.978125" y1="0" x2="334.978125" y2="5" style="visibility: inherit;" fill="rgb(0, 0, 0)" stroke="rgb(204, 204, 204)" stroke-width="1px"></line><line x1="390.8078125" y1="0" x2="390.8078125" y2="5" style="visibility: inherit;" fill="rgb(0, 0, 0)" stroke="rgb(204, 204, 204)" stroke-width="1px"></line><line x1="446.6375" y1="0" x2="446.6375" y2="5" style="visibility: inherit;" fill="rgb(0, 0, 0)" stroke="rgb(204, 204, 204)" stroke-width="1px"></line></g><g transform="translate(0, 8)"><text x="0" y="0" dx="0em" dy="0.95em" style="text-anchor: middle; visibility: hidden; font-family: Roboto, sans-serif; font-size: 12px; font-weight: 200;" fill="rgb(255, 255, 255)" stroke="none" stroke-width="1px">-1k</text><text x="55.8296875" y="0" dx="0em" dy="0.95em" style="text-anchor: middle; visibility: inherit; font-family: Roboto, sans-serif; font-size: 12px; font-weight: 200;" fill="rgb(255, 255, 255)" stroke="none" stroke-width="1px">0</text><text x="111.659375" y="0" dx="0em" dy="0.95em" style="text-anchor: middle; visibility: inherit; font-family: Roboto, sans-serif; font-size: 12px; font-weight: 200;" fill="rgb(255, 255, 255)" stroke="none" stroke-width="1px">1k</text><text x="167.4890625" y="0" dx="0em" dy="0.95em" style="text-anchor: middle; visibility: inherit; font-family: Roboto, sans-serif; font-size: 12px; font-weight: 200;" fill="rgb(255, 255, 255)" stroke="none" stroke-width="1px">2k</text><text x="223.31875" y="0" dx="0em" dy="0.95em" style="text-anchor: middle; visibility: inherit; font-family: Roboto, sans-serif; font-size: 12px; font-weight: 200;" fill="rgb(255, 255, 255)" stroke="none" stroke-width="1px">3k</text><text x="279.1484375" y="0" dx="0em" dy="0.95em" style="text-anchor: middle; visibility: inherit; font-family: Roboto, sans-serif; font-size: 12px; font-weight: 200;" fill="rgb(255, 255, 255)" stroke="none" stroke-width="1px">4k</text><text x="334.978125" y="0" dx="0em" dy="0.95em" style="text-anchor: middle; visibility: inherit; font-family: Roboto, sans-serif; font-size: 12px; font-weight: 200;" fill="rgb(255, 255, 255)" stroke="none" stroke-width="1px">5k</text><text x="390.8078125" y="0" dx="0em" dy="0.95em" style="text-anchor: middle; visibility: inherit; font-family: Roboto, sans-serif; font-size: 12px; font-weight: 200;" fill="rgb(255, 255, 255)" stroke="none" stroke-width="1px">6k</text><text x="446.6375" y="0" dx="0em" dy="0.95em" style="text-anchor: middle; visibility: hidden; font-family: Roboto, sans-serif; font-size: 12px; font-weight: 200;" fill="rgb(255, 255, 255)" stroke="none" stroke-width="1px">7k</text></g><line x1="0" y1="0" x2="446.6375" y2="0" fill="rgb(0, 0, 0)" stroke="rgb(204, 204, 204)" stroke-width="1px"></line></g></g></g></g></svg>