<svg viewBox="0 0 974.2000122070312 400" xmlns="http://www.w3.org/2000/svg"><g><g><g><g><g><line x1="51.5625" y1="377" x2="46.5625" y2="377" style="visibility: inherit;" fill="rgb(0, 0, 0)" stroke="rgb(204, 204, 204)" stroke-width="1px"></line><line x1="51.5625" y1="348" x2="46.5625" y2="348" style="visibility: inherit;" fill="rgb(0, 0, 0)" stroke="rgb(204, 204, 204)" stroke-width="1px"></line><line x1="51.5625" y1="319" x2="46.5625" y2="319" style="visibility: inherit;" fill="rgb(0, 0, 0)" stroke="rgb(204, 204, 204)" stroke-width="1px"></line><line x1="51.5625" y1="290" x2="46.5625" y2="290" style="visibility: inherit;" fill="rgb(0, 0, 0)" stroke="rgb(204, 204, 204)" stroke-width="1px"></line><line x1="51.5625" y1="261" x2="46.5625" y2="261" style="visibility: inherit;" fill="rgb(0, 0, 0)" stroke="rgb(204, 204, 204)" stroke-width="1px"></line><line x1="51.5625" y1="232" x2="46.5625" y2="232" style="visibility: inherit;" fill="rgb(0, 0, 0)" stroke="rgb(204, 204, 204)" stroke-width="1px"></line><line x1="51.5625" y1="203" x2="46.5625" y2="203" style="visibility: inherit;" fill="rgb(0, 0, 0)" stroke="rgb(204, 204, 204)" stroke-width="1px"></line><line x1="51.5625" y1="174" x2="46.5625" y2="174" style="visibility: inherit;" fill="rgb(0, 0, 0)" stroke="rgb(204, 204, 204)" stroke-width="1px"></line><line x1="51.5625" y1="145" x2="46.5625" y2="145" style="visibility: inherit;" fill="rgb(0, 0, 0)" stroke="rgb(204, 204, 204)" stroke-width="1px"></line><line x1="51.5625" y1="116" x2="46.5625" y2="116" style="visibility: inherit;" fill="rgb(0, 0, 0)" stroke="rgb(204, 204, 204)" stroke-width="1px"></line><line x1="51.5625" y1="86.99999999999999" x2="46.5625" y2="86.99999999999999" style="visibility: inherit;" fill="rgb(0, 0, 0)" stroke="rgb(204, 204, 204)" stroke-width="1px"></line><line x1="51.5625" y1="58" x2="46.5625" y2="58" style="visibility: inherit;" fill="rgb(0, 0, 0)" stroke="rgb(204, 204, 204)" stroke-width="1px"></line><line x1="51.5625" y1="28.999999999999982" x2="46.5625" y2="28.999999999999982" style="visibility: inherit;" fill="rgb(0, 0, 0)" stroke="rgb(204, 204, 204)" stroke-width="1px"></line><line x1="51.5625" y1="0" x2="46.5625" y2="0" style="visibility: inherit;" fill="rgb(0, 0, 0)" stroke="rgb(204, 204, 204)" stroke-width="1px"></line></g><g transform="translate(41.5625, 0)"><text x="0" y="377" dx="0em" dy="0.3em" style="text-anchor: end; visibility: hidden; font-family: Roboto, sans-serif; font-size: 12px; font-weight: 200;" fill="rgb(255, 255, 255)" stroke="none" stroke-width="1px">3.26</text><text x="0" y="348" dx="0em" dy="0.3em" style="text-anchor: end; visibility: inherit; font-family: Roboto, sans-serif; font-size: 12px; font-weight: 200;" fill="rgb(255, 255, 255)" stroke="none" stroke-width="1px">3.28</text><text x="0" y="319" dx="0em" dy="0.3em" style="text-anchor: end; visibility: inherit; font-family: Roboto, sans-serif; font-size: 12px; font-weight: 200;" fill="rgb(255, 255, 255)" stroke="none" stroke-width="1px">3.3</text><text x="0" y="290" dx="0em" dy="0.3em" style="text-anchor: end; visibility: inherit; font-family: Roboto, sans-serif; font-size: 12px; font-weight: 200;" fill="rgb(255, 255, 255)" stroke="none" stroke-width="1px">3.32</text><text x="0" y="261" dx="0em" dy="0.3em" style="text-anchor: end; visibility: inherit; font-family: Roboto, sans-serif; font-size: 12px; font-weight: 200;" fill="rgb(255, 255, 255)" stroke="none" stroke-width="1px">3.34</text><text x="0" y="232" dx="0em" dy="0.3em" style="text-anchor: end; visibility: inherit; font-family: Roboto, sans-serif; font-size: 12px; font-weight: 200;" fill="rgb(255, 255, 255)" stroke="none" stroke-width="1px">3.36</text><text x="0" y="203" dx="0em" dy="0.3em" style="text-anchor: end; visibility: inherit; font-family: Roboto, sans-serif; font-size: 12px; font-weight: 200;" fill="rgb(255, 255, 255)" stroke="none" stroke-width="1px">3.38</text><text x="0" y="174" dx="0em" dy="0.3em" style="text-anchor: end; visibility: inherit; font-family: Roboto, sans-serif; font-size: 12px; font-weight: 200;" fill="rgb(255, 255, 255)" stroke="none" stroke-width="1px">3.4</text><text x="0" y="145" dx="0em" dy="0.3em" style="text-anchor: end; visibility: inherit; font-family: Roboto, sans-serif; font-size: 12px; font-weight: 200;" fill="rgb(255, 255, 255)" stroke="none" stroke-width="1px">3.42</text><text x="0" y="116" dx="0em" dy="0.3em" style="text-anchor: end; visibility: inherit; font-family: Roboto, sans-serif; font-size: 12px; font-weight: 200;" fill="rgb(255, 255, 255)" stroke="none" stroke-width="1px">3.44</text><text x="0" y="86.99999999999999" dx="0em" dy="0.3em" style="text-anchor: end; visibility: inherit; font-family: Roboto, sans-serif; font-size: 12px; font-weight: 200;" fill="rgb(255, 255, 255)" stroke="none" stroke-width="1px">3.46</text><text x="0" y="58" dx="0em" dy="0.3em" style="text-anchor: end; visibility: inherit; font-family: Roboto, sans-serif; font-size: 12px; font-weight: 200;" fill="rgb(255, 255, 255)" stroke="none" stroke-width="1px">3.48</text><text x="0" y="28.999999999999982" dx="0em" dy="0.3em" style="text-anchor: end; visibility: inherit; font-family: Roboto, sans-serif; font-size: 12px; font-weight: 200;" fill="rgb(255, 255, 255)" stroke="none" stroke-width="1px">3.5</text><text x="0" y="0" dx="0em" dy="0.3em" style="text-anchor: end; visibility: hidden; font-family: Roboto, sans-serif; font-size: 12px; font-weight: 200;" fill="rgb(255, 255, 255)" stroke="none" stroke-width="1px">3.52</text></g><line x1="51.5625" y1="0" x2="51.5625" y2="377" fill="rgb(0, 0, 0)" stroke="rgb(204, 204, 204)" stroke-width="1px"></line></g></g><g transform="translate(51, 0)" clip-path="url(#clip_0)"><clipPath id="clip_0"><rect width="922" height="377"></rect></clipPath><g><g><g><line x1="0" y1="0" x2="0" y2="377" fill="rgb(0, 0, 0)" stroke="rgb(189, 189, 189)" stroke-width="1px" opacity="0.25"></line><line x1="115.3296875" y1="0" x2="115.3296875" y2="377" fill="rgb(0, 0, 0)" stroke="rgb(189, 189, 189)" stroke-width="1px" opacity="0.25"></line><line x1="230.659375" y1="0" x2="230.659375" y2="377" fill="rgb(0, 0, 0)" stroke="rgb(189, 189, 189)" stroke-width="1px" opacity="0.25"></line><line x1="345.98906250000005" y1="0" x2="345.98906250000005" y2="377" fill="rgb(0, 0, 0)" stroke="rgb(189, 189, 189)" stroke-width="1px" opacity="0.25"></line><line x1="461.31875" y1="0" x2="461.31875" y2="377" fill="rgb(0, 0, 0)" stroke="rgb(189, 189, 189)" stroke-width="1px" opacity="0.25"></line><line x1="576.6484375" y1="0" x2="576.6484375" y2="377" fill="rgb(0, 0, 0)" stroke="rgb(189, 189, 189)" stroke-width="1px" opacity="0.25"></line><line x1="691.9781250000001" y1="0" x2="691.9781250000001" y2="377" fill="rgb(0, 0, 0)" stroke="rgb(189, 189, 189)" stroke-width="1px" opacity="0.25"></line><line x1="807.3078125000001" y1="0" x2="807.3078125000001" y2="377" fill="rgb(0, 0, 0)" stroke="rgb(189, 189, 189)" stroke-width="1px" opacity="0.25"></line><line x1="922.6375" y1="0" x2="922.6375" y2="377" fill="rgb(0, 0, 0)" stroke="rgb(189, 189, 189)" stroke-width="1px" opacity="0.25"></line></g><g><line x1="0" y1="377" x2="922.6375" y2="377" fill="rgb(0, 0, 0)" stroke="rgb(189, 189, 189)" stroke-width="1px" opacity="0.25"></line><line x1="0" y1="348" x2="922.6375" y2="348" fill="rgb(0, 0, 0)" stroke="rgb(189, 189, 189)" stroke-width="1px" opacity="0.25"></line><line x1="0" y1="319" x2="922.6375" y2="319" fill="rgb(0, 0, 0)" stroke="rgb(189, 189, 189)" stroke-width="1px" opacity="0.25"></line><line x1="0" y1="290" x2="922.6375" y2="290" fill="rgb(0, 0, 0)" stroke="rgb(189, 189, 189)" stroke-width="1px" opacity="0.25"></line><line x1="0" y1="261" x2="922.6375" y2="261" fill="rgb(0, 0, 0)" stroke="rgb(189, 189, 189)" stroke-width="1px" opacity="0.25"></line><line x1="0" y1="232" x2="922.6375" y2="232" fill="rgb(0, 0, 0)" stroke="rgb(189, 189, 189)" stroke-width="1px" opacity="0.25"></line><line x1="0" y1="203" x2="922.6375" y2="203" fill="rgb(0, 0, 0)" stroke="rgb(189, 189, 189)" stroke-width="1px" opacity="0.25"></line><line x1="0" y1="174" x2="922.6375" y2="174" fill="rgb(0, 0, 0)" stroke="rgb(189, 189, 189)" stroke-width="1px" opacity="0.25"></line><line x1="0" y1="145" x2="922.6375" y2="145" fill="rgb(0, 0, 0)" stroke="rgb(189, 189, 189)" stroke-width="1px" opacity="0.25"></line><line x1="0" y1="116" x2="922.6375" y2="116" fill="rgb(0, 0, 0)" stroke="rgb(189, 189, 189)" stroke-width="1px" opacity="0.25"></line><line x1="0" y1="86.99999999999999" x2="922.6375" y2="86.99999999999999" fill="rgb(0, 0, 0)" stroke="rgb(189, 189, 189)" stroke-width="1px" opacity="0.25"></line><line x1="0" y1="58" x2="922.6375" y2="58" fill="rgb(0, 0, 0)" stroke="rgb(189, 189, 189)" stroke-width="1px" opacity="0.25"></line><line x1="0" y1="28.999999999999982" x2="922.6375" y2="28.999999999999982" fill="rgb(0, 0, 0)" stroke="rgb(189, 189, 189)" stroke-width="1px" opacity="0.25"></line><line x1="0" y1="0" x2="922.6375" y2="0" fill="rgb(0, 0, 0)" stroke="rgb(189, 189, 189)" stroke-width="1px" opacity="0.25"></line></g></g></g><g><g><line x1="0" y1="5103.999999999995" x2="922.6375" y2="5103.999999999995" fill="rgb(0, 0, 0)" stroke="rgb(153, 153, 153)" stroke-width="1.5px"></line></g></g><g><g><line x1="115.3296875" y1="0" x2="115.3296875" y2="377" fill="rgb(0, 0, 0)" stroke="rgb(153, 153, 153)" stroke-width="1.5px"></line></g></g><g><g><g><g><g><path stroke="rgb(255, 112, 67)" stroke-width="2px" d="M115.3296875,52.99724721908566L116.88984188368056,137.43962430953906L117.77073644401042,334.2837447244291L117.88356732161459,219.34080755184593L119.28674518619792,233.07937720448933L120.04971514105904,224.1506948368625L120.16283434288196,158.6097177065036L121.70527280512152,142.92046325125915L121.8181036827257,118.77774770026748L122.25683703559028,92.60626592693576L122.68833024696181,120.70646782754922L123.3559289574653,135.00002869444214L123.90922313324654,167.75398981999322L124.66870116145834,165.76377945545133L125.78477217621527,144.57053689185534L126.23321244444446,128.14537045248935L126.68178085677084,209.25638569306957L128.2286082543403,148.26211495161567L128.67176257855903,159.42312909380053L128.7839847717014,139.28454851412874L129.0042324388021,161.8208940880699L129.22765167230904,157.35404820846634L129.90463693793404,110.70150599145977L130.79575099001738,81.30553336377515L131.12998283159723,93.89148492036004L132.22042502690974,161.9914942018236L132.55987874045138,98.66796918413623L132.79422225824655,-88.4343006196913L133.01059356640624,75.67190540241742L133.8964537105035,95.50328495475246L134.45378442534724,114.42881178582773L136.0094217296007,-86.73425363474031L137.33391911848958,27.886079116476573L137.55298145269097,155.70294801461947L138.43733590364585,116.74261622251248L140.2154313606771,119.9432611117349L141.87499352777778,165.9574621932008L141.99980587847222,-85.73480344196436L143.4384155859375,14.3670725645786L143.54913208593752,78.24134557572988L144.86389052343753,166.1427736100927L145.21596643055554,-60.09301998670014L146.11438469618054,39.53468085748565L146.44980187065974,42.7338715643622L146.99425410373266,193.9011563130949L147.542422515625,120.11402695128506L148.9948717855903,126.30666556827988L149.87653521050348,149.1965384421286L150.10174846137153,129.1340134580732L150.21393861848958,120.3451757215621L150.53481143793402,292.3669856904244L153.06850856423614,280.80716536746814L153.1749963090278,315.71550287196953L155.85875017317707,307.1357498966956L156.5196533546007,269.52352738397707L156.62835158506945,269.040921163662L156.73804293229168,252.45086037641656L158.0865032673611,359.06104528622785L158.97197897916666,320.5962642414361L159.40193446137155,260.7307201613746L159.6266351358507,221.6379422896948L160.16826819878472,332.2051122518705L160.71624439453123,251.79323317601188L160.9505879123264,165.88410030599618L162.1581538125,166.3326677489058L162.83039774652778,126.24868168877141L162.94153071484374,141.26123827962047L164.48220719574653,113.19751082818499L164.5968641267361,73.13163992739207L164.8050342126736,190.33870800123418L165.5835096032986,167.1976206289874L166.24514961328126,233.03672213477762L167.2417903294271,174.32152268363714L167.69558061371526,170.57994421168436L168.0232130342882,146.6432694902677L168.24730502430555,126.73571049634617L168.6862626293403,113.97738096394511L168.7982605703125,116.86533864306405L169.3586667434896,110.75900096873609L169.47101708072915,111.4916226576579L170.13419481987847,146.85381930534857L172.67058297222223,127.71842561641198L172.89678933984376,124.1473790316511L173.00830674045142,131.25559222154214L173.11982414105904,134.23836223752693L173.4513329205729,176.65965228361702L173.68689380729168,-71.04583784888509L175.22933226953126,32.67190486818355L175.33104664670142,253.35926226752886L175.54716166666668,310.3338591335882L175.7636611189236,284.28651199809696L175.9659365763889,288.45936752600704L176.4020109392361,231.26308770920755L176.62078494921877,163.46000735727515L177.29837889930556,182.8280077026338L177.74002753038195,182.5148660687234L178.38475251953125,369.5429148881206L178.60669809592017,263.93768359473785L179.03162392230902,201.07789412290725L180.8085660824653,198.70917219609498L181.45889737586808,162.70549103433163L181.9058639869792,228.0117944527518L182.1287065720486,205.6289041786702L184.01601283593752,258.9785498588865L184.12737005642362,212.03191446123017L185.0049328702257,203.1488491467091L185.1116448671875,265.1064407212407L185.65981327907986,212.64734488623608L185.77267619270833,163.49492357908073L186.6569665716146,9.986360923876363L187.3070415768229,186.62149108435472L187.41798232899305,178.39579256168392L187.96871362282988,261.0403867232279L188.96807740104168,171.14199860498118L189.98470859635415,126.13796901467342L190.87844960243058,172.2381875977687L190.99015921918405,159.9845166007144L192.76492292968751,-40.2718817830405L192.98504245269098,35.32613217590348L197.33444532855904,69.03046820019549L197.5487663311632,162.11827462586686L197.76488135112845,286.0687263111645L198.09062364626737,330.8762140810708L198.4206587686632,356.57230456711187L198.53451479904516,230.12040433908356L199.8823664496528,186.96890493407727L202.0656215060764,262.8006129036833L203.2755580720486,310.29934490743204L203.38374372612847,306.5522853197038L204.03240914626738,367.66756828197117L204.69558688541667,309.7164720986378L206.45808079861115,366.9960949596221L206.56793232595487,307.1371554956708L206.79026233463543,260.15488298093516L208.11684206510418,198.93847612950333L209.56179490538196,246.8346486354653L210.4400945477431,237.99760314612314L210.77243626388892,198.86477129929506L212.3224672638889,184.52708478732822L212.86185780512156,245.9435415981048L213.28790489236113,227.41171707617224L213.8326774856771,214.5869043225462L215.4953791831597,172.94235064711665L216.70480317274306,149.34743458107977L217.15045630685765,160.73905748174096L220.35242490017362,131.98709713247743L220.5715192703993,124.98723794715023L221.67490401953125,204.07102814731851L222.44652370095488,167.61878113399652L223.9840606514757,96.40509627133994L225.76231628862848,133.70804189366353L226.09401728428819,145.53800377084215L227.43555783810766,163.62641935845264L227.9906780672743,136.5642675238849L228.32555062934028,149.7700067805052L228.55143663671876,101.68394792358876L229.7522108997396,192.46240141559088L230.54337255598958,188.39700185399343L230.97323193012153,255.13040196383636L231.18056907942707,350.7066024987978L232.16731066406248,277.29821439081917L235.625887812066,191.16488272842435L237.1956530030382,-16.08932357491989L237.3037105130208,107.18886324487913L237.5224204509549,174.6434862895176L237.97089275520835,109.76691014071473L238.97157001041668,166.7071582227957L240.28552754730902,207.53598373830408L240.7348648242188,159.8164821726089L240.948352890191,242.6160842574834L241.28018202994792,191.17946958525195L241.49844346354166,296.79872865666886L241.71747376171876,221.65546972268797L242.82447858159725,228.1962824744822L243.268369734375,194.2694555808802L244.0545337708333,163.7150047236499L244.27436496961806,175.92332980715184L244.8293570546875,137.21122311164703L245.61161269618054,139.50363053446867L246.1572822981771,146.50109952429443L246.26953652734375,132.8662192925188L247.57900902083335,204.8854292454938L248.6644535963542,242.72038260833108L248.88236263368057,278.6498998149378L248.98612731640623,365.89538575077904L249.76546767968748,160.23329124966222L250.31869778342013,144.21800304722134L250.76620900694445,123.95275941652848L250.87224824739585,229.38430766560313L252.1935420338542,216.72295043645948L253.07844109722222,216.4721320019882L253.5101905967882,315.7024297444059L254.05691738758682,242.19598406124288L254.27127042621527,260.1967089746486L256.33999669574655,430.48433893764525L256.55688058029517,452.4370043864514L257.1119687734375,291.31879061404874L257.2245433628472,212.99093428816798L257.4307592513021,445.74456286171863L257.7587761041667,366.3644285663353L258.1952028632813,356.67242987539663L258.8502754882813,302.0981707548283L259.3034570881076,314.24960756153916L259.8557581471354,232.50558328539748L260.5218832005208,186.22371797508356L260.85400066449654,166.1457485005046L261.4073909483507,165.49982855586921L262.29671098307296,-6.784691298790272L262.7352200837674,107.89274971199735L263.17715703906254,136.14281211204957L264.1631617951389,178.13074380104302L264.94967822786464,106.54699352946626L265.2604596996528,152.2315776560704L265.38187623177083,-30.577222000718244L266.3544899296875,-11.869710046743927L267.4448039809028,74.95523524362144L269.1223063216146,129.6896057610416L269.55809236024305,128.5979856779996L270.7735070863715,115.25473924462945L270.8881960533854,71.32181994906075L271.3317988819445,121.2374647187649L272.7718502105035,93.73021992012599L276.7778589418403,107.99558835008621L279.1044111349826,238.56571276652105L279.21877974175345,149.23522004882838L280.3109518823785,196.66742673754914L281.1924230911459,214.81624869847403L281.3050937886285,166.72724654879642L281.64461157421874,122.34178558949472L283.066338296875,168.2949997899766L283.2836386497396,192.9599477957389L284.5074468142361,206.84652684394734L284.8343103702257,194.7087515250698L285.2715700659722,168.37099638318148L286.1509589331597,115.78000845155195L286.92100884939236,160.8152670719684L287.01983998437504,385.48758916011167L287.3516050520833,283.0346605059547L287.6882395954861,358.00886908036733L289.00652199565974,274.24839624680436L289.6490685351563,304.04055443356816L290.07742221614586,280.2742039141083L291.19278843836804,271.66089418989606L291.52657177560764,252.74511134303938L293.0652940590278,287.3037255506354L293.3886977243924,239.77615489367426L293.9608290824653,239.7204202997908L294.30166034505214,173.54425359894182L295.2884339657118,215.42373195367668L296.5135876432292,179.14487809585125L297.07732556293405,172.42743341116113L297.29760526605907,255.2908207415818L299.91392329904517,221.97765177722442L300.8014813524306,177.7469821109513L301.0267907113715,143.2772334178773L301.35922853559026,162.96676405432729L302.0146215208334,170.5201283941439L302.12729221831603,139.43465241490455L302.9007699891493,158.72525659023918L303.7946711753472,245.41454638731005L304.2299126015625,231.71669829899972L304.6582022105035,260.78262117513896L305.433794358941,342.3271658599907L305.6540420260417,331.7046277630646L306.32324253776045,36.66608682324371L307.32106858680555,64.59933165937613L308.1936017447917,255.37473857539845L308.41695690625,217.94340584360378L308.7290838910591,375.3317274432343L309.05514654644094,256.2227882969955L309.16653580295144,216.21025703123644L309.94347346440975,253.68782375914662L310.494044578125,238.79362553753148L311.26556815147575,186.13430539606662L312.249778890191,191.08394703768863L312.68027898480904,198.48555670680526L314.2369734778646,40.05789877475474L315.23877199392365,85.35320506990627L316.46716130989586,96.4084148556029L317.5745825980903,257.9866996854558L317.79169073480904,325.9390912681825L318.57023019748266,214.06694578111225L319.14159269097223,187.8577982364892L319.46992990407983,219.9336231099846L320.3631903697917,156.36847769899896L322.46773291449654,115.31010277082773L323.68375632508685,160.61643161183764L325.55920925998265,177.9879597056275L326.00489443012157,165.80980138947754L327.00252826302085,226.20172842127164L327.5474290004341,263.91028761733793L327.6600356258681,198.21117196005156L327.7667476228299,263.2198126883602L330.09179412282987,234.72571714945389L331.3105085594618,239.0048730386953L331.6395505651042,186.21320805631055L332.2977627204861,233.0644341569062L332.4102091657987,178.1046961463045L333.39512469704863,101.21508361795811L334.0555473381076,177.69015418231015L334.1615545425347,264.78830362999093L335.3642509670139,192.40449214961328L335.79042619835076,182.7676117478981L336.3478530212674,189.62784800882145L336.56560187847225,165.08834153386934L337.56253091883684,194.65840843899815L338.0076714765625,155.13243462791291L338.1168822834201,191.48370767921284L338.33687366232647,147.11468578153867L338.44823088281254,148.64681611522468L338.6723549088542,98.72836772241824L339.87319324392365,109.90176653646593L340.0977978103299,100.34734673370853L340.9980421293403,105.22098376196554L341.10738108029517,161.22127586508915L341.4414207057292,190.53551477137304L345.26902081770834,234.56234203543127L347.5822780607639,232.70057870606104L348.45567619140627,187.4812715629313L349.78494694791664,191.81731575605704L350.10674881206603,208.73203927205483L351.09749489973956,218.0636221762089L352.1914610577257,210.6374406931153L354.42347494314237,179.36731873258069L354.7528052730035,191.4667806285867L355.07201221918405,334.48211591590956L355.72468214236113,238.6857920715185L356.27320295052084,180.30667063170554L356.3823176493056,207.09630020006804L356.8230051996528,421.50297894206244L356.93247229470484,349.3483650095857L357.6784631566841,354.8984559182879L358.9957844761285,261.93419321802605L361.22606841623264,270.3650300528248L362.3278513641493,287.60002198372126L364.2682092842882,405.8653306874859L365.0384193806424,296.83205947358795L365.81330673654514,208.64314628290762L366.70297916753475,167.8872051754447L366.9239956992187,148.89691642039116L367.3704176979167,120.1035894579472L368.04371882074656,139.8425735966429L368.4769419774306,330.1564802846945L369.7006860698785,315.20046566257645L370.0323870655382,281.69618386226773L370.5836309357639,186.18939992307344L371.99100551953126,193.11671097587728L374.6482335555556,218.1078868836828L377.2777824665799,208.11295886818579L377.38375763498266,285.5226411580089L378.49374180512154,232.21056459898023L378.837680562066,166.81516799065096L379.39267264713544,151.00496821840153L380.2729905590278,192.58377354883908L381.3611581966146,174.09436260189872L382.4704055381945,175.05869752482315L383.24250575998263,201.81312169024807L386.55240371918404,180.0490323387952L386.99466103472224,222.35513027211246L387.107139516059,168.94623131573329L387.5485638949653,186.7637249649765L391.1602732391493,226.51904811985494L391.60906590364584,164.02598766402772L391.71965425954863,174.7710657353182L392.2761520377605,186.9347225329268L395.04893401345487,205.98211266404286L395.9417459748264,191.54682775620182L396.262843046441,187.52670333554462L398.4410684470486,480.1638859615931L399.85174274131947,462.62363170526703L400.07388053385415,344.9810971673868L400.41858815538194,245.83506676295622L400.6420073888889,200.81348627054174L400.7539092217882,171.64678374077985L401.9615071579861,139.0583136984474L402.0714547934028,169.51077252082644L402.1801530238716,212.06940487296941L402.3971970885417,298.2731099800558L402.61965524131944,275.76389440752814L403.16558113151046,371.46345367942854L403.3920117513021,215.3694668228305L404.2630392161459,256.694487596445L407.230696327691,213.78556157642166L407.3419574401042,189.83207417424654L408.53552359765627,303.7118633323671L408.6458556653646,262.11613090835584L409.74546016362854,316.54226975442515L409.85720181640625,246.15502150536446L410.1902483250868,272.9925683002525L410.9548841532118,292.12736108665786L411.72265951171875,198.76762911537327L413.1592189136285,251.75982559239225L414.0319122517362,219.03668701955857L414.1391047890625,264.84581897443013L414.8986148532986,345.1327784406274L415.23364759548616,276.98023850602686L415.34353115885415,254.56923956205077L415.4547602352431,215.95752579289484L415.79876306423614,-41.093660603059426L417.8618189574653,54.571686595622275L418.7239404075521,88.72072039243167L418.8367072131077,90.30937429783663L419.18311274392363,-108.59213630844386L419.9544761371528,24.310228201811068L420.2905019960938,27.420725544133624L420.5053355750868,115.77626268854L420.8254715659723,306.0093811559094L421.2679531336806,174.04836398407278L422.2409512638889,142.5809707525043L422.8935891510417,147.62677382723484L423.44640278645835,131.83258704719512L423.8903580112847,115.62889449821448L424.1119832274306,179.15382080689983L425.2191482274306,149.9258944357395L425.32996083550347,161.57288876563103L425.76090943446184,220.7195507490022L426.3298692261285,215.00259951373283L426.4387917087674,230.89454276335448L426.54374172439236,317.00628494603717L426.87009270399307,356.35786623587165L427.85811572960074,263.2430793454047L427.9711388233507,187.5466696745034L428.08102238671876,200.33799039875726L428.6262755203993,312.8820150110435L429.18367030729166,260.893945372898L429.5151790868056,364.6970361690509L430.0676723619792,258.1848499668114L430.285100858941,332.84725088432305L430.61395064843754,304.22386643025243L431.393419155816,244.75203855474516L434.08178620746526,220.98048186087425L435.7327627200521,162.79589600434207L437.0575804691841,214.27827670020022L438.1615418667535,212.35804229880688L438.5974560494792,203.59136060419874L439.2636451749132,12.88336307730154L440.04007025998266,54.862883370673L440.1475831575521,162.73802592847036L441.13464510243057,144.54184490736307L441.2455217825521,156.26157983717874L443.32824779470485,188.5900421177005L443.4327813420139,301.5130155584009L444.41696004470487,320.78513496522817L444.64082778255215,220.83012371900531L447.39794414236115,334.7359536030461L447.725672671007,278.5888614379509L448.05609222569444,263.3216695620504L448.7089223289931,337.1301902671977L449.1654036393229,271.1405968034455L449.2758958871528,238.0208254435177L451.1286673168403,188.3491627084321L451.4582539348959,254.87076624078145L452.2440335390625,197.32742094899777L452.5751578862847,201.20226406994817L452.7957579496528,204.29035258259356L453.4675533793403,188.92824463823982L454.9056184743924,46.91609423625204L455.9967334262153,268.13610635559314L456.32798591753476,299.9572259089978L456.65734828342016,224.91002604375075L457.5349110972222,219.12193287020807L458.53773476605903,147.65280869368257L460.18063820052083,290.23453380324503L461.61947216015625,286.04205752407364L463.71036735850697,299.28901053067943L464.0460087851563,242.47285910008486L465.60090926085064,252.2666540357952L465.71024821180555,246.89666940054215L466.3755082925348,162.78824311066194L467.0491938476563,156.45613525848697L467.8119715863715,158.54536599243383L467.9376168736979,-101.23527906939587L468.04900613020834,-4.3545568383053075L468.2578810086806,243.25031883738524L468.6985365230035,233.44835223687934L469.1429402521701,154.2815878268075L469.58955446701384,148.8988673613065L469.6997263546008,174.8233927205554L469.8082644049479,216.22772207947608L470.3528127460938,266.10724596435983L470.5718430442708,219.68807175311548L471.6881062751736,219.45440322490415L473.81818153125005,124.6489942451233L476.9355109483508,126.82894980787691L477.4956287973091,130.99426014351556L478.5007910959202,155.3654947228888L478.83790617968754,114.9978771178518L479.05603946918404,129.06213760188754L479.8406657764758,113.27479610330803L480.40523663281255,94.62470165185245L481.30618574435766,90.19528989369883L481.7437017282986,181.53660428747705L481.8561161375868,151.37976400986415L482.19297493315975,174.584778838963L482.4132866723091,154.994403871066L483.1851306059028,133.62551576624335L484.4926489019097,160.64994992452907L484.7115190199653,173.167896971929L487.1384080412327,285.4527588282987L487.4708458654514,248.95989782780234L490.7740162595486,262.9885252903097L491.6457805529514,271.32522119225246L495.3869474713542,290.632730180867L495.91647091710064,387.8630876629631L497.1298353376737,300.23553524548237L498.1322425381944,247.83863312086166L498.8889334322916,205.95696176338595L499.1072909739583,222.71671570091493L499.4503327222223,61.50713761299302L499.6693630203993,165.4003826120466L500.21256584852426,198.46615272396616L500.3259093025174,145.34845193406215L501.20052480208335,179.81055793869638L501.31037632942713,193.45932289187937L502.41766947352437,226.5932735218099L502.8687046597222,249.35421240410173L503.9629271059028,216.69724671888972L504.4033904040798,244.0778645566023L504.851926780382,181.32524122541645L505.7264141358507,279.85357693282026L506.27714542968755,236.20601002840576L507.92552702430555,146.16000509541286L508.03589112803826,166.45524568725278L508.69564101258686,195.38479520898218L509.47116908897567,263.265519917137L509.89487754644097,179.42482002981112L511.0081293910591,109.6449305081817L511.12220967361117,80.86145133164192L511.2327659934896,121.61619941226633L511.338388765625,237.45225272078522L513.3682233016493,292.50264321267144L513.5884389327257,262.72940403520806L513.9246570078125,146.88049806535065L514.3731933841146,142.9899269901503L514.7077776219619,104.79692460076767L515.9044192378472,100.01317558870751L517.2595110299479,97.6480731617571L518.2564400703126,89.00014131374127L518.3647218324653,171.51681795780019L518.9067713637153,284.4932250443946L519.2344998923611,283.1237147965339L519.8946982812499,227.94692136754466L520.3305483919272,296.88426896279964L520.7688652764757,266.38706505504814L521.6290004930556,232.24775931958862L521.9575619583334,179.5311522348193L522.623494795573,312.041460124461L522.7364538172743,218.41885400283806L523.6217052769097,158.8906884698177L523.9541751371528,228.5275641744199L524.06963296875,127.0380860128916L525.4026519401042,191.85975975745436L526.8379299010417,203.00010229917498L526.944065249566,280.4160859690429L527.0543332452256,245.62399221100355L527.168445563802,161.98605590246922L528.6928797803821,236.96165173758752L531.346519781684,186.64736000007238L531.6709806358507,177.63941945615923L531.9037864244791,29.839902627369664L532.1276861983507,99.38763145679297L532.461117139323,158.29168093248632L532.8923220264757,264.73164670493867L533.2221649327257,339.125721268813L533.3293254340279,337.9100866156579L535.3286616749133,21.30136088357947L536.4311814513889,39.80778128997487L537.7304024171007,98.4361048167705L538.2908085902778,-84.21739690150237L538.3995068207465,57.19102563473325L538.7298623033854,104.57085012205124L539.9499863250868,209.24759086851907L540.0578516189237,250.049526887444L541.3620061323785,249.02304766017627L541.4726585603299,221.89019330405299L541.7074505824653,-24.019269561390754L541.8182952265626,50.6339014437076L542.146600403646,82.13779726423438L542.2574450477431,120.22521051643855L542.3698594570312,113.03655510472394L543.139076436632,208.20647991494593L543.3568893658854,193.05983288762692L545.2591884891493,159.40909004019318L545.4760403376737,228.85920925025064L545.5849628203126,236.93707572867805L546.0191150217014,224.07751586109632L546.3525459626737,219.12757374090128L548.2314908242187,197.96028657699873L548.8839044592014,139.80083453622555L549.9812343997396,148.33425190429196L553.0726146371528,39.57318164336867L554.0904311653645,101.33341761486649L554.3249348632812,-125.14602143730566L554.5535439327257,-78.36600985029816L555.11177165625,24.85522872269457L555.4493032083334,81.82182253635109L556.4483145902778,59.90529654762851L556.7771964157986,151.1751941105233L557.1026503867188,159.2097232854669L560.0823850794271,159.60179661013495L560.763342812066,-84.56780940116765L561.0913596649307,5.054351247422056L561.5282669644097,64.7562450868321L562.1982363407119,113.13387228861032L562.5335253710938,98.20491748937721L563.2804452777779,182.63902982407043L563.5061070329862,137.66741619308777L563.8405951627605,155.792427788973L565.7188993038195,146.19384008097703L566.1485664618056,121.19775565533645L567.0296852743056,226.18710165064778L567.1379990724827,248.97098196054262L568.1216011267362,257.6082319528152L568.7938130247395,175.75291372002877L568.9014540664062,231.64419551290106L569.0122346384549,214.32229325531165L569.3370799249133,215.79505861615092L570.0039738428819,170.58270762452415L570.8865342764757,141.88219217115065L571.7690306380209,112.54845001490936L572.2135625112849,213.2659899842265L572.4331053858507,162.35357363531128L573.4242038697918,404.38152608578827L573.9771456493056,401.97313733878974L574.6448084318577,280.42536475648427L575.304430172309,290.8680781983734L576.0844432921008,223.1096917905449L578.0542423185764,188.93998385179285L580.129503937066,253.84270773356084L580.5736513780382,220.74814249291975L581.0002751137154,240.77962318190885L582.8838011267362,187.66953668075186L583.5688274344618,130.64334855721793L584.216788062066,189.65746833232845L584.5379812417535,180.7273657879102L586.526104874132,183.28046186929123L586.9693873424479,203.90695834258295L587.7329339457465,178.91276574193876L588.0527175403647,219.59511847531425L589.2698301757813,179.5834247305131L590.3833383085938,133.8763838788353L590.4949838532987,133.67505975845364L590.8241540030382,156.49966457058738L593.3815257513021,270.38997837644666L595.0475591953125,201.30095651591924L595.156962218316,219.98036162164874L596.5823410477431,245.28621025149272L597.2427316527778,194.29670955696275L597.4603523658855,220.4414000627907L597.5715173702257,197.6673493455356L598.2425439353299,134.96549578133246L599.3526882855904,77.12827150597028L599.6805769943577,68.6968987022272L600.0228498780383,56.43589320388039L600.1342391345486,93.05763768319231L600.5845374921875,80.8791254947423L601.6976611927083,-86.81595083535609L603.1092645316841,-22.24371135509601L603.2132855026042,178.09135291411457L605.1046923776041,152.18433159252348L606.3087663511285,140.5123130897305L607.2777599782986,171.3287497770564L607.8362119539931,-10.694178890479563L608.3919729036459,44.692679410402164L609.0440021063368,113.34302349401919L610.0140849583333,122.21156704135763L610.8990801297743,153.34842803304232L611.9131484431423,133.06646858587789L613.1305173667536,162.25933057627057L613.688969342448,141.6022257719095L614.0186200325521,139.79295625171991L615.8066146210938,208.81772988964303L616.6929873415799,280.86665397840204L617.1289335603299,261.77915204738025L617.4689639223091,-19.884807317408924L617.8012095303819,72.17188126507239L617.9138802278646,82.07956613697283L618.7984909670139,93.565306172357L619.0210131918403,76.35765771006692L620.2112155668403,99.7683963533349L621.1123889305555,94.58164137340226L622.3228060368924,132.09236632428585L622.7689076753472,121.23780504847785L623.637628546441,217.86673374167177L626.182217921007,178.0841145705639L626.8479265060764,114.73882075497286L627.3033506276042,142.32621748655305L628.9190875134549,164.55613145476124L629.5719496527778,94.63720098284247L629.9096734210069,77.75208491770815L630.1481175499133,-127.41964939422333L630.9265929405382,-38.057427568357966L631.2594472330729,59.996798990296284L633.0613774921875,18.01303262598933L633.529872311632,70.58249647073505L633.6402043793403,117.0238673129827L633.9662349986979,80.46730786795318L635.4261806983507,128.56862000367005L635.6477738784723,77.03442876184549L635.8724745529514,121.22621393587906L636.322740874566,107.34086580506965L636.7868467586806,96.37951852936719L637.0116435412326,102.66245518958111L637.8975997934028,102.79814583561145L638.9920785277778,152.65499853194515L640.5662006180556,153.61311172903072L640.8861123567709,198.52116102850718L641.2206325225695,173.20077091977737L643.0688868728299,165.5381722839223L644.7332544435765,148.0303948635782L645.2867087994792,214.86147708385712L645.3974573355035,198.02343799286768L645.8359344001736,253.56621390350833L646.2828049032119,145.4887527332793L646.3876908467881,266.59153960383503L646.7109984040799,254.68734811685425L647.2507093055556,455.0980148729198L647.3623868862848,327.10138819316074L648.4719225520834,263.1431062084379L649.349229077691,97.20670131814155L649.7876420703125,182.52339842302635L650.0046220629341,145.17067872514122L650.6680240542535,189.07213723081205L651.5540123424479,212.4290083135239L651.6605000872396,277.5635075500646L652.3115041371527,275.3880940396215L652.6505413823785,243.09008050671935L654.1678956375869,277.21937766499315L654.4915555911458,327.92916611925995L654.6017915507813,275.7444940334334L654.9311218806424,275.58976816688613L656.9235063042536,358.4970203849943L657.3660839800347,250.69248637040107L658.1251775759549,210.6675208597162L658.7957556367187,161.29977742366685L659.2551522252604,150.66853699405593L659.364138779948,194.38424940895817L660.7775041002604,282.54292662138795L661.6547465538195,233.47076482293L662.3230180208334,310.1019725961502L662.6517076302083,241.18914433497304L662.9737978185764,336.1312918912061L663.1916748198785,214.29211131636401L663.4157027378473,185.5607800954823L665.143629780816,237.68545144046814L665.3649987087673,220.2910781457755L665.587969437934,182.09999478785588L665.6986218658855,184.7665520484947L665.8072560243056,219.71863255355947L666.5802852907987,162.38241911801202L666.680654154948,356.46297083421086L668.6542013962674,440.6178486473772L668.9856781397569,274.0462277965197L670.8544675815972,260.4087162158752L673.6202016319445,169.89568673025755L675.0860419600695,146.46226440937045L675.3023491961806,142.6403911773609L677.3818395698785,280.76346978332083L677.8374879435764,226.4869387196627L678.612983983941,228.60524421019153L679.057419749132,197.81149399925926L679.6101052404515,174.71784370332773L682.8024630264757,141.88649101966482L683.020147811632,219.6446782345405L684.1095648541667,228.8194269892469L684.2198328498264,215.94276169281568L687.7296356006945,194.0282582959021L690.3657839327258,213.1894651246353L691.682464531684,175.15938334419033L691.901687046007,227.29695980998062L692.4293844383681,182.77689815313963L693.5319682868924,171.1230257555922L693.867321389323,160.4362013939069L693.9752507552084,218.45378569382686L694.8301961358508,469.38773123990484L695.0523339283855,368.43385448796124L695.5991568272569,272.76328567709055L696.2812358207466,254.8323799374427L698.5849142925348,185.64314095990187L699.7023628563369,244.8255938578624L700.1355539769966,203.2905404501543L700.5791888415799,188.81801666816378L701.337641717014,219.2166719317454L701.7839035355903,194.65264434099325L701.8968305212674,151.85969478178086L702.1109593077257,315.5572084324836L702.2165500438368,351.4459999404712L703.5387408389757,252.89990530028123L704.5180500659723,223.21832109459777L705.7485217235243,245.16995540242522L706.9489115542534,177.1732333122559L707.1746373815105,135.07658650987602L707.7264579001737,220.82578817911832L707.9481792243923,244.8917242044684L708.5006404635417,232.77449356046137L709.147672046441,179.98118878916986L709.922783654514,263.37818585345775L710.3661301948785,294.2495616585593L712.6846093098958,273.7388931459531L714.3541026445313,259.69358613171215L714.4658442973091,206.4282118444324L714.9232866883681,-143.1164905569149L715.355036187934,1.8139803683051061L715.6886913810764,29.720954291539837L718.0040630017362,93.72217103988977L718.7848129500868,122.07264722079685L719.0061178059897,120.95959232265196L719.2311388407118,91.5216130138303L721.5419293098959,162.46406720404963L721.6433873988715,337.87572826340835L721.9726536566841,296.1405795895762L722.1936061163195,193.69307921431647L722.6376574492188,190.09011281789645L722.7469002921008,215.34040420807167L723.2913525251737,225.83874646161038L723.5148999027778,168.41372990211295L723.7369415872396,164.5938861346271L724.2717509769966,239.90710339403324L726.3456991184896,238.0860806551948L727.0058334353299,336.3312498716935L727.2276508676215,230.6094242089044L727.5555395763889,254.84553447682012L728.5541665260416,265.80678300451234L729.7607713454861,278.9523788237034L730.7298610807292,210.67372164389192L730.8393602118057,219.21342049396472L731.2859103546007,259.6624045989305L732.3711627139758,320.53566068538333L733.132691047743,316.3967343934071L733.5542210555556,372.3025893192101L734.3320877617188,260.31578782919667L735.4285206935764,224.55358421637806L735.6508186662327,230.38346393009496L735.756121078125,309.1307299083498L736.196680484375,268.8990546671166L736.4092395056424,260.7012879256969L736.6313772981771,243.13251954344324L736.7394348081598,265.6440224529945L736.9716319123264,9.157261364558005L738.1711888064236,164.6715329127901L741.032870749566,195.29222676976872L741.9157515434028,174.93329695358509L742.2457866657986,202.77209822830355L742.4686612868924,169.6057701140451L742.5778080217015,202.21982536493587L743.3544893949653,374.70964904891764L743.8017763663195,251.3126216665941L744.0094979479167,263.9421670398735L744.3355606032986,225.17552819023214L746.4286342513021,35.459451092301116L747.176162842448,183.5803882914888L747.3946164921875,244.2792178534327L747.7269902443577,200.48842113869557L748.823391140191,316.5004201987815L750.1566343637153,289.99113403912946L754.2644215442709,201.45267259571924L758.5757335872396,218.73945157226248L759.6790222282987,184.64434156713688L761.193557313368,159.2240301722153L761.74797275,175.9361835452239L761.9749479822049,107.05337749316219L763.4070223407118,214.10470773216403L765.1701890104167,181.71013966462743L765.5024986905382,186.11265797174954L766.2913857890626,162.9085650131517L766.6158786792535,262.71511886628946L767.3722812491319,322.26565140552816L768.1322718537326,307.658827984735L768.4740641970486,104.34206917548464L769.2412629071181,102.20639735856227L769.5752064244792,157.16957739829147L770.343270107205,159.47318522834303L770.5627168736979,191.43451157035582L770.8868253315973,285.23311828864905L770.9964846427952,259.4621972518759L771.1056634136286,251.15024697051007L771.2079224032118,375.02008382836334L771.9830980833334,320.3737995645964L772.7487911002605,252.1805219186282L773.7346356762152,216.31090867119667L774.1792956935765,167.86022951363054L774.6246284674479,-33.418005548962896L776.7814538038195,110.77439350900144L778.0995119518229,274.0078724564132L779.3088718693577,225.50414936190955L781.1869197222223,5.519275620258763L782.2661172730035,112.83125836531887L783.0311054973959,202.03661093044596L783.3544130546875,344.9245132501619L784.437198640191,306.90868992183727L784.5427253042535,352.62965056046306L784.7740894717882,327.47314899411475L785.4250614856771,457.3573993757166L789.0365465776911,409.4668863552142L791.8020243398438,302.9832806549863L793.3660871184896,290.3542656876084L793.9217519600695,237.07149534090922L794.2529403793403,248.7675235549483L795.1496927717014,202.16516443967058L795.810275592882,201.88021686601175L797.0056998398438,207.3066585238432L797.9742449626737,256.985572491625L798.7545143706598,213.98123149546336L799.4132391024306,165.98036945147763L799.8557527061632,165.17077515294193L800.0707785013021,142.09846309286362L800.1733258151042,303.6322063652393L803.4711461931424,274.5610792665311L803.9087582851563,371.0447421567809L804.0200514335938,287.28373387439075L804.7880190082466,254.03480407585562L804.8956600499132,283.42225154036214L806.7421524188369,266.70887384291865L807.3956552786459,232.3238573639174L807.6149739010417,203.8659040789948L807.7361982170139,4.668014661141456L808.9516129431424,37.72095440367975L809.2917714492188,42.282842722774504L810.836997045573,40.045805983090446L811.2763070468751,187.08542750617457L811.4966508220487,220.8441783329279L812.8089104496529,198.13344925286987L813.6862490112848,207.19008866335528L814.2453737434896,124.52453064552319L814.4568435399306,157.26180281419363L814.6718052630208,268.4703186880279L817.517629374132,217.5508035022449L819.381357124132,163.2238601683635L820.6895481766494,252.48966697687246L820.8012257573785,207.59789907833522L821.5493309969619,240.41911256254073L822.2149755099827,232.31700270140325L823.2015248784724,233.73045602300306L823.314099467882,182.1375509194043L823.7627319522569,144.8487332875433L824.1990626032987,175.10683518736903L824.6393016493056,148.5651078110298L824.9674146102432,201.50517033847302L825.1806143519966,200.26871480531813L825.7380732109376,174.1801617979242L826.6288348667536,196.59019375081232L828.5965835876736,229.30080127856345L829.6742434092882,321.95582084739914L829.9067929097223,236.50786846211352L832.018030983507,153.4581197817968L832.9192043472223,-158.3982301282971L833.0300810273438,-28.595159466748502L833.3537409809029,109.88261016864503L834.8617086809896,179.33818560039387L836.3965866414931,207.24202345130118L836.8370819756944,195.8663213629557L836.9475742235243,193.03049647683113L837.0577140750868,199.37913334294672L838.484053985243,178.09137446835345L839.1455658511285,197.18902706596137L839.7028004578993,-48.01295724217376L839.8097367070312,110.88452893075726L840.030817310764,185.5262375687205L840.3580973350695,179.99154343692277L840.5809078841146,173.51787966780546L840.9026777122397,344.8112698691644L842.1017861019966,342.6992653547255L844.9947672408855,324.4357266627861L846.9753303715278,239.5127740027378L848.6308239635417,190.23817015420602L848.9558935021702,222.0998614354802L849.0763489535591,29.435422117941066L849.5208487907986,37.73992339100387L849.7411605299479,73.80181631640214L850.8384263984375,144.3819280695653L852.3609064175347,148.38722359131214L853.9039215282119,128.2190565287497L854.3452818350695,141.29474816438162L854.6786487039932,152.95358725617274L854.7919921579862,114.11146929401139L857.7862071336806,112.52558271013469L858.4591878962674,122.24187550498665L858.7790035269097,298.0333516213514L859.7548528632814,257.3886999376543L860.4135775950522,207.66739812421415L860.9596316293403,270.2094472821214L861.0668241666667,299.8203386649883L861.174945748698,295.969265424335L861.4022093051216,2.519171406700739L862.3880859171007,95.66493721596889L862.7179288233508,202.26082889910052L862.9433022543403,170.58227267667925L863.3852712456597,163.1730536389665L864.704771014757,338.9115002970879L864.920021062066,330.1274641049493L865.2399328007813,382.7741556938044L865.7834880251737,386.4517282948227L866.2257453407118,292.53293616207446L867.9758733485244,274.2813312925817L868.0847317591147,271.22714457022624L868.5280462634548,199.24862023059958L869.5043120681424,268.14591820159205L871.9542990629341,168.29039210747843" style="fill: none;" fill="none"></path></g></g></g></g><g opacity="0.2"><g><g><g><path stroke="rgb(255, 112, 67)" stroke-width="2px" d="M115.3296875,52.99724721908566L116.88984188368056,188.10505056381214L117.77073644401042,523.2541003227229L117.88356732161459,84.1679134368896L119.28674518619792,251.01645374298076L120.04971514105904,211.79911279678325L120.16283434288196,64.88507175445554L121.70527280512152,120.04537963867178L121.8181036827257,83.17193174362176L122.25683703559028,53.744665622711175L122.68833024696181,162.60190391540513L123.3559289574653,156.3625850677489L123.90922313324654,216.7779841423033L124.66870116145834,162.78236293792713L125.78477217621527,112.80558490753167L126.23321244444446,103.51920509338373L126.68178085677084,330.8885850906369L128.2286082543403,56.78619527816772L128.67176257855903,176.16295003890977L128.7839847717014,109.07851839065546L129.0042324388021,195.62417650222764L129.22765167230904,150.65392637252793L129.90463693793404,40.72361373901367L130.79575099001738,37.21192264556883L131.12998283159723,112.77032279968252L132.22042502690974,264.1412177085874L132.55987874045138,3.6828436851501785L132.79422225824655,-369.0874180793759L133.01059356640624,321.83106327056856L133.8964537105035,125.25034332275382L134.45378442534724,142.81709575653068L136.0094217296007,-388.47881174087485L137.33391911848958,199.81656455993638L137.55298145269097,347.4282422065732L138.43733590364585,58.30212020874021L140.2154313606771,124.74422836303701L141.87499352777778,234.97876310348494L141.99980587847222,-463.2731995582576L143.4384155859375,164.51988601684556L143.54913208593752,174.0527548789977L144.86389052343753,297.9949154853818L145.21596643055554,-399.4467101097104L146.11438469618054,188.97623205184922L146.44980187065974,47.53265762329101L146.99425410373266,420.6520833969113L147.542422515625,9.433332920074488L148.9948717855903,135.59562349319447L149.87653521050348,183.5313477516173L150.10174846137153,99.04022598266593L150.21393861848958,107.1619191169738L150.53481143793402,550.3997006416316L153.06850856423614,263.46743488311745L153.1749963090278,368.0780091285703L155.85875017317707,294.26612043380715L156.5196533546007,213.10519361495955L156.62835158506945,268.3170118331907L156.73804293229168,227.5657691955565L158.0865032673611,518.976322650909L158.97197897916666,262.89909267425514L159.40193446137155,170.93240404129017L159.6266351358507,162.99877548217762L160.16826819878472,498.055867195129L160.71624439453123,131.17541456222523L160.9505879123264,37.02040100097656L162.1581538125,167.00551891326893L162.83039774652778,66.12270259857173L162.94153071484374,163.78007316589344L164.48220719574653,71.10191965103147L164.5968641267361,13.032833576202389L164.8050342126736,366.1493101119992L165.5835096032986,132.4859895706176L166.24514961328126,331.79537439346285L167.2417903294271,86.24872350692745L167.69558061371526,164.96757650375355L168.0232130342882,110.73825740814202L168.24730502430555,96.87437200546259L168.6862626293403,94.83988666534418L168.7982605703125,121.1972751617431L169.3586667434896,101.5994944572448L169.47101708072915,112.59055519103994L170.13419481987847,199.89711427688584L172.67058297222223,99.01533508300774L172.89678933984376,118.79080915451043L173.00830674045142,141.91791200637806L173.11982414105904,138.712517261505L173.4513329205729,240.29158735275252L173.68689380729168,-442.6040730476375L175.22933226953126,188.24851894378648L175.33104664670142,584.3902983665461L175.54716166666668,395.7957544326779L175.7636611189236,245.21549129486064L175.9659365763889,294.7186508178708L176.4020109392361,145.4686679840087L176.62078494921877,61.75538682937618L177.29837889930556,211.8800082206724L177.74002753038195,182.04515361785874L178.38475251953125,650.0849881172176L178.60669809592017,105.529836654663L179.03162392230902,106.78820991516105L180.8085660824653,195.15608930587754L181.45889737586808,108.69996929168695L181.9058639869792,325.971249580383L182.1287065720486,172.05456876754747L184.01601283593752,339.00301837921114L184.12737005642362,141.61196136474598L185.0049328702257,189.8242511749266L185.1116448671875,358.04282808303805L185.65981327907986,133.9587011337279L185.77267619270833,89.7662916183471L186.6569665716146,-220.27648305892924L187.3070415768229,451.57418632507284L187.41798232899305,166.05724477767933L187.96871362282988,385.0072779655453L188.96807740104168,36.29441642761231L189.98470859635415,58.63192462921138L190.87844960243058,241.38851547241194L190.99015921918405,141.60401010513297L192.76492292968751,-340.65647935867275L192.98504245269098,148.72315311431873L197.33444532855904,119.5869722366332L197.5487663311632,301.7499842643735L197.76488135112845,471.994403839111L198.4206587686632,395.11644029617275L198.53451479904516,40.4425539970398L199.8823664496528,122.24165582656852L202.0656215060764,376.5481748580929L203.2755580720486,381.54744291305514L203.38374372612847,300.9316959381101L204.03240914626738,459.3404927253719L204.69558688541667,222.78982782363872L206.45808079861115,452.91552925109823L206.56793232595487,217.34874629974348L206.79026233463543,189.68147420883165L208.11684206510418,107.11386585235589L209.56179490538196,318.67890739440895L210.4400945477431,224.7420349121092L210.77243626388892,140.16552352905265L212.3224672638889,163.02055501937855L212.86185780512156,338.06822681426974L213.28790489236113,199.61398029327378L213.8326774856771,195.34968519210798L215.4953791831597,110.4755201339721L216.70480317274306,113.95506048202508L217.15045630685765,177.82649183273304L220.35242490017362,88.85915660858149L220.5715192703993,114.48744916915886L221.67490401953125,322.6967134475706L222.44652370095488,112.9404106140136L223.9840606514757,-10.415431022644011L225.76231628862848,189.66246032714827L226.09401728428819,163.28294658660877L227.43555783810766,190.759042739868L227.9906780672743,95.97103977203363L228.32555062934028,169.57861566543568L228.55143663671876,29.554859638214097L229.7522108997396,328.6300816535947L230.54337255598958,182.29890251159654L230.97323193012153,355.2305021286008L231.18056907942707,494.0709033012386L232.16731066406248,167.1856322288512L235.625887812066,61.96488523483274L237.1956530030382,-326.97063302993746L237.3037105130208,292.10614347457863L237.5224204509549,275.8254208564756L237.97089275520835,12.452045917511022L238.97157001041668,252.11753034591655L240.28552754730902,268.77922201156593L240.7348648242188,88.23722982406613L240.948352890191,366.81548738479586L241.28018202994792,114.02454757690423L241.49844346354166,455.22761726379355L241.71747376171876,108.94058132171624L242.82447858159725,238.00750160217265L243.268369734375,143.37921524047843L244.0545337708333,117.88332843780509L244.27436496961806,194.23581743240342L244.8293570546875,79.14306306838986L245.61161269618054,142.94224166870106L246.1572822981771,156.9973030090331L246.26953652734375,112.41389894485465L247.57900902083335,312.91424417495705L248.6644535963542,299.47281265258766L248.88236263368057,332.5441756248471L248.98612731640623,496.7636146545406L249.76546767968748,-148.25985050201402L250.31869778342013,120.19507074356072L250.76620900694445,93.55489397048943L250.87224824739585,387.5316300392148L252.1935420338542,197.73091459274278L253.07844109722222,216.0959043502806L253.5101905967882,464.5478763580319L254.05691738758682,131.93631553649897L254.27127042621527,287.19779634475685L256.33999669574655,685.9157838821405L256.55688058029517,485.36600255966147L257.1119687734375,49.64146995544433L257.2245433628472,95.49914979934687L257.4307592513021,794.8750057220452L257.7587761041667,247.2942271232603L258.1952028632813,342.134431838989L258.8502754882813,220.2367820739744L259.3034570881076,332.47676277160616L259.8557581471354,109.88954687118525L260.5218832005208,116.80092000961297L260.85400066449654,136.02879428863517L261.4073909483507,164.53094863891587L262.29671098307296,-265.21147108077975L262.7352200837674,279.9089112281797L263.17715703906254,178.51790571212754L264.1631617951389,241.1126413345335L264.94967822786464,-0.8286318778991635L265.2604596996528,220.75845384597758L265.38187623177083,-304.79042148590054L266.3544899296875,16.19155788421633L267.4448039809028,205.19265317916856L269.1223063216146,211.79116153717027L269.55809236024305,126.9605555534362L270.7735070863715,95.23986959457392L270.8881960533854,5.422441005706807L271.3317988819445,196.1109318733214L272.7718502105035,52.46935272216797L276.7778589418403,129.39364099502552L279.1044111349826,434.420899391174L279.21877974175345,15.239480972290036L280.3109518823785,267.81573677062966L281.1924230911459,242.03948163986186L281.3050937886285,94.59374332427973L281.64461157421874,55.76359415054321L283.066338296875,237.22482109069804L283.2836386497396,229.95736980438215L284.5074468142361,227.6763954162596L284.8343103702257,176.50208854675282L285.2715700659722,128.864363670349L286.1509589331597,36.893526554107666L286.92100884939236,228.36815500259385L287.01983998437504,722.4960722923273L287.3516050520833,129.35526752471912L287.6882395954861,470.4701819419857L289.00652199565974,148.60768699645985L289.6490685351563,348.7287917137143L290.07742221614586,244.624678134918L291.19278843836804,258.7409296035765L291.52657177560764,224.3714370727537L293.0652940590278,339.14164686202975L293.3886977243924,168.4847989082335L293.9608290824653,239.6368184089659L294.30166034505214,74.2800035476684L295.2884339657118,278.2429494857786L296.5135876432292,124.72659730911248L297.07732556293405,162.3512663841246L297.29760526605907,379.58590173721285L299.91392329904517,172.00789833068836L300.8014813524306,111.40097761154169L301.0267907113715,91.57261037826532L301.35922853559026,192.50106000900254L302.0146215208334,181.85017490386952L302.12729221831603,92.80643844604485L302.9007699891493,187.66116285324085L303.7946711753472,375.4484810829159L304.2299126015625,211.16992616653422L304.6582022105035,304.3815054893491L305.433794358941,464.64398288726767L305.6540420260417,315.7708206176755L306.32324253776045,-405.8917245864865L307.32106858680555,106.49919891357415L308.1936017447917,541.5378489494319L308.41695690625,161.7964067459105L308.7290838910591,611.4142098426813L309.05514654644094,77.55937957763668L309.16653580295144,156.19146013259876L309.94347346440975,309.90417385101296L310.494044578125,216.45232820510847L311.26556815147575,107.14532518386834L312.249778890191,198.50840950012193L312.68027898480904,209.5879712104796L314.2369734778646,-197.5835881233213L315.23877199392365,153.29616451263416L316.46716130989586,112.9912295341491L317.5745825980903,500.3541269302364L317.79169073480904,427.8676786422726L318.57023019748266,46.25872755050658L319.14159269097223,148.54407691955558L319.46992990407983,268.0473604202268L320.3631903697917,61.02075958251948L322.46773291449654,53.722540378570535L323.68375632508685,228.57592487335185L325.55920925998265,204.04525184631333L326.00489443012157,147.54256391525257L327.00252826302085,316.78961896896334L327.5474290004341,320.4731264114377L327.6600356258681,99.66249847412102L327.7667476228299,360.73277378082247L330.09179412282987,191.98457384109486L331.3105085594618,245.4236068725584L331.6395505651042,107.0257105827331L332.2977627204861,303.34127330780007L332.4102091657987,95.66508913040157L333.39512469704863,-14.119335174560488L334.0555473381076,292.4027600288389L334.1615545425347,395.43552780151333L335.3642509670139,83.82877492904659L335.79042619835076,168.3122911453246L336.3478530212674,199.91820240020735L336.56560187847225,128.2790818214416L337.56253091883684,239.0135087966917L338.0076714765625,95.84347391128533L338.1168822834201,246.01061725616438L338.33687366232647,80.56115293502805L338.44823088281254,150.9450116157531L338.6723549088542,23.85069513320921L339.87319324392365,126.66186475753774L340.0977978103299,86.01571702957146L340.9980421293403,112.53143930435174L341.10738108029517,245.22171401977522L341.4414207057292,234.50687313079817L345.26902081770834,300.6025829315183L347.5822780607639,229.90793371200544L348.45567619140627,119.65231084823603L349.78494694791664,198.32138204574574L350.10674881206603,234.10412454605083L351.09749489973956,232.06099653244L352.1914610577257,199.49816846847517L354.42347494314237,132.46213579177845L354.7528052730035,209.61597347259507L355.07201221918405,549.0051188468929L355.72468214236113,94.99130630493158L356.27320295052084,92.73798847198479L356.3823176493056,247.2807445526121L356.8230051996528,743.1129970550531L356.93247229470484,241.1164441108702L357.6784631566841,363.22359228134127L358.9957844761285,122.48779916763297L361.22606841623264,283.01128530502297L362.3278513641493,313.4525098800657L364.2682092842882,583.2632937431331L365.0384193806424,133.28215265274036L365.81330673654514,76.35977649688715L366.70297916753475,106.75329351425164L366.9239956992187,120.4114832878112L367.3704176979167,76.91359901428217L368.04371882074656,169.45104980468736L368.4769419774306,615.627340316772L369.7006860698785,292.7664437294004L370.0323870655382,231.439761161804L370.5836309357639,42.92922401428223L371.99100551953126,203.50767755508406L374.6482335555556,255.59465074539168L377.2777824665799,193.12056684494002L377.38375763498266,401.6371645927426L378.49374180512154,152.2424497604369L378.837680562066,68.72207307815549L379.39267264713544,127.28966856002799L380.2729905590278,254.95198154449446L381.3611581966146,146.36024618148792L382.4704055381945,176.5051999092101L383.24250575998263,241.94475793838484L386.55240371918404,147.40289831161488L386.99466103472224,285.8142771720884L387.107139516059,88.83288288116451L387.5485638949653,213.48996543884263L391.1602732391493,286.1520328521726L391.60906590364584,70.2863969802856L391.71965425954863,190.8886828422545L392.2761520377605,205.18020772933946L395.04893401345487,234.55319786071757L395.9417459748264,169.89390039443956L396.262843046441,181.49651670455918L398.4410684470486,919.1196599006645L399.30956506597227,614.8218431472774L399.85174274131947,355.5184760093686L400.07388053385415,168.51729536056504L400.41858815538194,97.11602115631098L400.6420073888889,133.28111553192127L400.7539092217882,127.89672994613638L401.9615071579861,90.17560863494869L402.0714547934028,215.18946075439436L402.1801530238716,275.90735340118385L402.3971970885417,427.5786676406857L402.61965524131944,242.00007104873637L403.16558113151046,515.0127925872798L403.3920117513021,-18.771513462066565L404.2630392161459,318.68201875686617L407.230696327691,149.4221725463866L407.3419574401042,153.90184307098377L408.53552359765627,474.5315470695491L408.6458556653646,199.7225322723387L409.74546016362854,398.1814780235287L409.85720181640625,140.5741491317748L410.1902483250868,313.248888492584L410.9548841532118,320.82955026626564L411.72265951171875,58.728031158447244L413.1592189136285,331.2481203079221L414.0319122517362,169.9519791603087L414.1391047890625,333.55951690673805L414.8986148532986,465.56321763992275L415.23364759548616,174.75142860412586L415.34353115885415,220.9527411460875L415.4547602352431,158.03995513916004L415.79876306423614,-426.67044019699057L417.8618189574653,198.06970739364613L418.7239404075521,139.9442710876464L418.8367072131077,92.69235515594478L419.18311274392363,-406.94440221786465L419.9544761371528,223.6637749671934L420.2905019960938,32.086471557617166L420.5053355750868,248.3095684051512L420.8254715659723,591.3590588569637L421.2679531336806,-23.893161773681623L422.2409512638889,95.37988090515132L422.8935891510417,155.19547843933097L423.44640278645835,108.14130687713617L423.8903580112847,91.32335567474358L424.1119832274306,274.4412102699278L425.2191482274306,106.08400487899776L425.32996083550347,179.04338026046742L425.76090943446184,309.4395437240598L426.3298692261285,206.4271726608275L426.4387917087674,254.73245763778667L426.54374172439236,446.17389822006186L426.87009270399307,415.38523817062344L427.85811572960074,123.5708990097045L427.9711388233507,74.00205516815181L428.08102238671876,219.52497148513777L428.6262755203993,481.6980519294735L429.18367030729166,182.91184091567982L429.5151790868056,520.4016723632808L430.0676723619792,98.41657066345208L430.285100858941,444.84085226058926L430.61395064843754,261.28878974914534L431.393419155816,155.54429674148548L434.08178620746526,185.32314682006825L435.7327627200521,75.51901721954341L437.0575804691841,291.5018477439878L438.1615418667535,209.4776906967161L438.5974560494792,190.44133806228623L439.2636451749132,-273.178633213043L440.04007025998266,117.83216381072992L440.1475831575521,324.550739765167L441.13464510243057,117.24757337570182L441.2455217825521,173.84118223190296L443.32824779470485,237.0827355384825L443.4327813420139,470.8974757194515L444.41696004470487,349.6933140754697L444.64082778255215,70.89760684967037L447.39794414236115,505.59469842910727L447.725672671007,194.36822319030748L448.05609222569444,240.42088174819926L448.7089223289931,447.8429713249203L449.1654036393229,172.1562066078185L449.2758958871528,188.34116840362535L451.1286673168403,113.84166860580437L451.4582539348959,354.65317153930636L452.2440335390625,111.01240301132195L452.5751578862847,207.01452875137312L452.7957579496528,208.92248535156233L453.4675533793403,165.88508272171006L454.9056184743924,-166.10213136672957L455.9967334262153,599.9661245346065L456.32798591753476,347.68890523910494L456.65734828342016,112.33922624588006L457.5349110972222,210.43979310989363L458.53773476605903,40.449122428894015L460.18063820052083,504.10712146758993L461.61947216015625,279.75334310531593L463.71036735850697,319.1594400405881L464.0460087851563,157.248631954193L465.60090926085064,266.95734643936134L465.71024821180555,238.84169244766215L466.3755082925348,36.625603675842264L467.0491938476563,146.9579734802245L467.8119715863715,161.67921209335316L467.9376168736979,-490.9062466621395L468.04900613020834,140.9665265083312L468.2578810086806,614.6576323509212L468.6985365230035,218.74540233612043L469.1429402521701,35.531441211700454L469.58955446701384,140.8247866630553L469.6997263546008,213.7101807594298L469.8082644049479,278.33421611785866L470.3528127460938,340.9265317916867L470.5718430442708,150.05931043624867L471.6881062751736,219.1039004325865L473.81818153125005,-17.5591192245483L476.9355109483508,130.09888315200797L477.4956287973091,137.24222564697257L478.5007910959202,191.92234659194932L478.83790617968754,54.446450710296595L479.05603946918404,150.1585283279418L479.8406657764758,89.59378385543818L480.40523663281255,66.64955997467037L481.30618574435766,83.55117225646968L481.7437017282986,318.5485758781431L481.8561161375868,106.14450359344474L482.19297493315975,209.39230108261089L482.4132866723091,125.60884141921989L483.1851306059028,101.57218360900873L484.4926489019097,201.18660116195665L484.7115190199653,191.94481754302964L487.1384080412327,453.8800516128536L487.4708458654514,194.22060632705674L490.7740162595486,284.0314664840696L491.6457805529514,283.8302650451658L495.3869474713542,319.59399366378756L495.91647091710064,533.708623886108L497.1298353376737,168.79420661926258L498.1322425381944,169.2432799339293L498.8889334322916,143.13445472717274L499.1072909739583,247.85634660720805L499.4503327222223,-180.30722951889018L499.6693630203993,321.24025011062594L500.21256584852426,248.0648078918455L500.3259093025174,65.67190074920651L501.20052480208335,231.503716945648L501.31037632942713,213.93247032165513L502.41766947352437,276.2941994667051L502.8687046597222,283.49562072753884L503.9629271059028,167.71179819107041L504.4033904040798,285.14879131317116L504.851926780382,87.19630622863764L505.7264141358507,427.64608049392666L506.27714542968755,170.73465967178333L507.92552702430555,11.09099769592286L508.03589112803826,196.89810657501204L508.69564101258686,238.77911949157698L509.47116908897567,365.08660697936983L509.89487754644097,53.663770198822014L511.0081293910591,4.975096225738551L511.12220967361117,37.686232566833475L511.2327659934896,182.74832153320298L511.338388765625,411.2063326835629L513.3682233016493,375.0782289505002L513.5884389327257,218.0695452690123L513.9246570078125,-26.8928608894348L514.3731933841146,137.15407037734974L514.7077776219619,47.50742101669308L515.9044192378472,92.83755207061762L517.2595110299479,94.10041952133173L518.2564400703126,76.02824354171747L518.3647218324653,295.29183292388893L518.9067713637153,453.9578356742855L519.2344998923611,281.0694494247434L519.8946982812499,145.18173122405994L520.3305483919272,400.2902903556821L520.7688652764757,220.6412591934202L521.6290004930556,181.03880071640003L521.9575619583334,100.45624160766596L522.623494795573,510.8069219589229L522.7364538172743,77.98494482040401L523.6217052769097,69.59844017028806L523.9541751371528,332.98287773132296L524.06963296875,-25.196131229400628L525.4026519401042,289.09227037429787L526.8379299010417,219.7106161117552L526.944065249566,396.54006147384615L527.0543332452256,193.43585157394395L527.168445563802,36.52915143966676L528.6928797803821,349.4250454902646L531.346519781684,111.17592239379874L531.6709806358507,164.12750864028916L531.9037864244791,-191.859372615814L532.1276861983507,203.70922470092756L532.461117139323,246.64775514602638L532.8923220264757,424.3915953636166L533.2221649327257,450.7168331146237L533.3293254340279,336.086634635925L535.3286616749133,-453.61172771453823L536.4311814513889,67.56741189956661L537.7304024171007,186.37859010696397L538.2908085902778,-358.197649478912L538.3995068207465,269.3036594390867L538.7298623033854,175.6405868530272L539.9499863250868,366.26270198821993L540.0578516189237,311.2524309158323L541.3620061323785,247.4833288192747L541.4726585603299,181.1909117698668L541.7074505824653,-392.8834638595577L541.8182952265626,162.61365795135487L542.146600403646,129.39364099502552L542.2574450477431,177.35633039474473L542.3698594570312,102.25357198715201L543.139076436632,350.96136713027926L543.3568893658854,170.33986234664903L545.2591884891493,108.9329757690429L545.4760403376737,333.03438806533785L545.5849628203126,249.05387544631938L546.0191150217014,204.78817605972276L546.3525459626737,211.70266056060774L548.2314908242187,166.20935583114613L548.8839044592014,52.56165647506713L549.9812343997396,161.13437795639024L553.0726146371528,-123.56842374801622L554.0904311653645,193.9737715721129L554.3249348632812,-464.86518001556345L554.5535439327257,-8.195992469787539L555.11177165625,179.6870865821837L555.4493032083334,167.27171325683582L556.4483145902778,27.030507564544695L556.7771964157986,288.0800404548643L557.1026503867188,171.26151704788197L560.0823850794271,160.18990659713734L560.763342812066,-450.82221841812094L561.0913596649307,139.48759222030628L561.5282669644097,154.30908584594718L562.1982363407119,185.70031309127793L562.5335253710938,75.81148529052729L563.2804452777779,309.2901983261106L563.5061070329862,70.2099957466125L563.8405951627605,182.97994518280015L565.7188993038195,131.79595851898185L566.1485664618056,83.70362901687619L567.0296852743056,383.67112064361544L567.1379990724827,283.1468024253843L568.1216011267362,270.5641069412229L568.7938130247395,52.96993637084958L568.9014540664062,315.48111820220925L569.0122346384549,188.33943986892686L569.3370799249133,218.00420665740953L570.0039738428819,102.7641811370849L570.8865342764757,98.83141899108882L571.7690306380209,68.54783678054807L572.2135625112849,364.3422999382016L572.4331053858507,85.98494911193842L573.4242038697918,767.4234547615044L573.9771456493056,398.36055421829195L574.6448084318577,98.10370588302607L575.304430172309,306.5321483612058L576.0844432921008,121.4721121788024L578.0542423185764,137.68542194366444L580.129503937066,351.1967935562131L580.5736513780382,171.10629463195787L581.0002751137154,270.82684421539284L582.8838011267362,108.00440692901606L583.5688274344618,45.104066371917696L584.216788062066,278.1786479949949L584.5379812417535,167.33221197128282L586.526104874132,187.11010599136338L586.9693873424479,234.84670305252058L587.7329339457465,141.4214768409728L588.0527175403647,280.61864757537825L589.2698301757813,119.5658841133117L590.3833383085938,65.31582260131832L590.4949838532987,133.37307357788075L590.8241540030382,190.73657178878767L593.3815257513021,441.22544908523525L595.0475591953125,97.66742372512813L595.156962218316,247.99946928024275L596.5823410477431,283.2449831962583L597.2427316527778,117.81245851516715L597.4603523658855,259.658435821533L597.5715173702257,163.50627326965318L598.2425439353299,40.91271543502807L599.3526882855904,-9.62756490707391L599.6805769943577,56.04983949661251L600.0228498780383,38.04438495635985L600.1342391345486,147.99025440216056L600.5845374921875,62.611357212066615L601.6976611927083,-338.35856533050503L603.1092645316841,74.61464786529535L603.2132855026042,478.59394931793173L605.1046923776041,113.32379961013787L606.3087663511285,123.0042853355407L607.2777599782986,217.55340480804426L607.8362119539931,-283.72857189178444L608.3919729036459,127.77296686172477L609.0440021063368,216.31853961944563L610.0140849583333,135.51438236236564L610.8990801297743,200.05371952056868L611.9131484431423,102.64352941513053L613.1305173667536,206.04862356185893L613.688969342448,110.6165685653686L614.0186200325521,137.07905197143546L615.8066146210938,312.3548903465269L616.6929873415799,388.94004011154146L617.1289335603299,233.14789915084822L617.4689639223091,-442.38074636459316L617.8012095303819,210.25691413879377L617.9138802278646,96.94109344482415L618.7984909670139,110.79391622543326L619.0210131918403,50.546185016632066L620.2112155668403,134.8845043182372L621.1123889305555,86.80150890350338L622.3228060368924,188.3584537506102L622.7689076753472,104.95596313476558L623.637628546441,362.81012678146334L626.182217921007,118.41018581390372L626.8479265060764,19.720880031585708L627.3033506276042,183.70731258392323L628.9190875134549,197.9010024070738L629.5719496527778,-10.24119472503655L629.9096734210069,52.424410820007324L630.1481175499133,-435.1772508621212L630.9265929405382,95.98590517044062L631.2594472330729,207.07813882827742L633.0613774921875,-44.96261692047115L633.529872311632,149.4366922378539L633.6402043793403,186.68592357635487L633.9662349986979,25.632468700408925L635.4261806983507,200.7205882072447L635.6477738784723,-0.26685810089110684L635.8724745529514,187.51389169692976L636.322740874566,86.51284360885616L636.7868467586806,79.93749761581418L637.0116435412326,112.08686017990104L637.8975997934028,103.00168180465691L638.9920785277778,227.44027757644636L640.5662006180556,155.0502815246581L640.8861123567709,265.88323497772194L641.2206325225695,135.22018575668324L643.0688868728299,154.04427433013905L644.7332544435765,121.76872873306266L645.2867087994792,315.1081004142759L645.3974573355035,172.76637935638416L645.8359344001736,336.88037776946993L646.2828049032119,-16.627439022064138L646.3876908467881,448.24571990966757L646.7109984040799,236.8310608863829L647.2507093055556,755.7140150070185L647.3623868862848,135.10644817352286L648.4719225520834,167.20568323135365L649.349229077691,-151.69790601730332L649.7876420703125,310.49844408035256L650.0046220629341,89.14159917831414L650.6680240542535,254.92432498931865L651.5540123424479,247.46431493759138L651.6605000872396,375.26525640487637L652.3115041371527,272.12497377395607L652.6505413823785,194.6430602073668L654.1678956375869,328.4133234024045L654.4915555911458,403.9938488006589L654.6017915507813,197.4674859046935L654.9311218806424,275.3576793670652L656.9235063042536,482.8578987121578L657.3660839800347,88.9856853485107L658.1251775759549,150.63007259368885L658.7957556367187,87.24816226959221L659.2551522252604,134.7216763496398L659.364138779948,259.95781803131086L660.7775041002604,414.7809424400326L661.6547465538195,159.862522125244L662.3230180208334,425.04878425598105L662.6517076302083,137.8199019432067L662.9737978185764,478.544513225555L663.1916748198785,31.533340454101552L663.4157027378473,142.46378326416004L665.143629780816,315.87245845794655L665.3649987087673,194.1995182037352L665.587969437934,124.81336975097648L665.6986218658855,188.76638793945298L665.8072560243056,272.146753311157L666.5802852907987,76.37809896469113L666.680654154948,647.5837984085077L668.6542013962674,566.850165367126L668.9856781397569,24.18879652023314L670.8544675815972,239.9524488449095L673.6202016319445,34.126142501831055L675.0860419600695,111.3121309280395L675.3023491961806,136.90758132934562L677.3818395698785,487.94808769226034L677.8374879435764,145.07214212417594L678.612983983941,231.7827024459837L679.057419749132,151.62086868286121L679.6101052404515,140.07736825942982L682.8024630264757,92.6394619941711L683.020147811632,336.28195905685396L684.1095648541667,242.5815501213072L684.2198328498264,196.6277637481688L687.7296356006945,161.1565032005309L690.3657839327258,241.93127536773665L691.682464531684,118.11426067352288L691.901687046007,305.50332450866676L692.4293844383681,115.99680566787711L693.5319682868924,153.64221715927113L693.867321389323,144.4059648513793L693.9752507552084,305.480162143707L694.8301961358508,845.7886495590203L695.0523339283855,217.00303936004622L695.5991568272569,129.2574324607848L696.2812358207466,227.93602132797224L698.5849142925348,81.85928249359125L699.7023628563369,333.5992732048032L700.1355539769966,140.98796033859244L700.5791888415799,167.1092309951781L701.337641717014,264.81465482711775L701.7839035355903,157.80660295486436L701.8968305212674,87.67027044296259L702.1109593077257,561.1034789085384L702.2165500438368,405.27918720245333L703.5387408389757,105.08076333999628L704.5180500659723,178.69594478607164L705.7485217235243,278.0974068641661L706.9489115542534,75.17815017700192L707.1746373815105,71.93161630630487L707.7264579001737,349.4495906829831L707.9481792243923,280.99062824249245L708.5006404635417,214.59864759445173L709.147672046441,100.79123163223261L709.922783654514,388.4736814498898L710.3661301948785,340.55662536621065L712.6846093098958,242.97289037704448L714.3541026445313,238.6256256103514L714.4658442973091,126.5301504135131L714.9232866883681,-667.433544158935L715.355036187934,219.20968675613386L715.6886913810764,71.58141517639157L718.0040630017362,189.72399616241444L718.7848129500868,164.59836149215684L719.0061178059897,119.29000997543326L719.2311388407118,47.364644050598116L721.5419293098959,268.87774848937966L721.6433873988715,600.993219852447L721.9726536566841,233.5378565788267L722.1936061163195,40.02182865142821L722.6376574492188,184.68566322326646L722.7469002921008,253.21584129333476L723.2913525251737,241.58625984191877L723.5148999027778,82.27620506286615L723.7369415872396,158.86412048339832L724.2717509769966,352.8769292831418L726.3456991184896,235.35454654693586L727.0058334353299,483.69900369644125L727.2276508676215,72.02668571472165L727.5555395763889,291.19969987869234L728.5541665260416,282.2486557960508L729.7607713454861,298.67077255249L730.7298610807292,108.25573587417594L730.8393602118057,232.0229687690733L731.2859103546007,320.3358807563779L732.3711627139758,411.84554481506314L733.132691047743,310.1883449554441L733.5542210555556,456.1613717079159L734.3320877617188,92.33558559417718L735.4285206935764,170.91027879714954L735.6508186662327,239.1282835006712L735.756121078125,427.251628875732L736.196680484375,208.55154180526716L736.4092395056424,248.40463781356792L736.6313772981771,216.77936697006209L736.7394348081598,299.41127681732155L736.9716319123264,-375.5728802680966L738.1711888064236,397.9429402351376L741.032870749566,241.2232675552366L741.9157515434028,144.394902229309L742.2457866657986,244.53030014038066L742.4686612868924,119.85627794265739L742.5778080217015,251.1409082412718L743.3544893949653,633.4443845748896L743.8017763663195,66.21708059310909L744.0094979479167,282.88648509979225L744.3355606032986,167.02556991577137L746.4286342513021,-249.1146645545957L747.176162842448,405.76179409027066L747.3946164921875,335.3274621963498L747.7269902443577,134.80222606658924L748.823391140191,490.5184187889095L750.1566343637153,250.2272047996519L754.2644215442709,68.64498043060298L758.5757335872396,244.66962003707866L759.6790222282987,133.50167655944816L761.193557313368,121.09356307983388L761.74797275,201.00441360473621L761.9749479822049,3.7291684150696027L763.4070223407118,374.68170309066744L765.1701890104167,133.11828756332386L765.5024986905382,192.71643543243394L766.2913857890626,128.10242557525623L766.6158786792535,412.4249496459958L767.3722812491319,411.5914502143857L768.1322718537326,285.7485928535459L768.4740641970486,-200.6330690383909L769.2412629071181,99.00288963317864L769.5752064244792,239.61434745788557L770.343270107205,162.92859697341908L770.5627168736979,239.37650108337382L770.8868253315973,425.9310283660885L770.9964846427952,220.80581569671614L771.1056634136286,238.68232154846172L771.2079224032118,560.8248391151424L771.9830980833334,238.40437316894514L772.7487911002605,149.8906054496764L773.7346356762152,162.5064888000487L774.1792956935765,95.18421077728267L774.6246284674479,-335.33535814285244L776.7814538038195,327.06299209594704L778.0995119518229,518.8580908775325L779.3088718693577,152.7485647201537L781.1869197222223,-324.45803499221773L782.2661172730035,273.79923248290993L783.0311054973959,335.8446397781369L783.3544130546875,559.2563667297359L784.437198640191,249.8849549293516L784.5427253042535,421.2110915184017L784.7740894717882,289.73839664459206L785.4250614856771,652.1837749481195L789.0365465776911,382.2927870750424L791.8020243398438,143.2578721046447L793.3660871184896,271.4107432365415L793.9217519600695,157.1473398208617L794.2529403793403,266.31156587600685L795.1496927717014,132.26162576675407L795.810275592882,201.4527955055235L797.0056998398438,215.44632101058943L797.9742449626737,331.50394344329806L798.7545143706598,149.4747200012206L799.4132391024306,93.97907638549799L799.8557527061632,163.95638370513905L800.0707785013021,107.48999500274651L800.1733258151042,545.9328212738033L803.4711461931424,230.9543886184691L803.9087582851563,515.7702364921565L804.0200514335938,161.64222145080552L804.7880190082466,204.1614093780516L804.8956600499132,327.50342273712135L806.7421524188369,241.63880729675273L807.3956552786459,180.74633264541612L807.6149739010417,161.17897415161121L807.7361982170139,-294.1288194656369L808.9516129431424,87.30036401748653L809.2917714492188,49.125675201416016L810.836997045573,36.690250873565674L811.2763070468751,407.64485979080166L811.4966508220487,271.48230457305885L812.8089104496529,164.06735563278187L813.6862490112848,220.7750477790831L814.2453737434896,0.5261936187744269L814.4568435399306,206.3677110671995L814.6718052630208,435.28309249877896L817.517629374132,141.17153072357166L819.381357124132,81.73344516754145L820.6895481766494,386.3883771896359L820.8012257573785,140.2602472305297L821.5493309969619,289.65093278884865L822.2149755099827,220.16383790969834L823.2015248784724,235.85063600540144L823.314099467882,104.74819326400751L823.7627319522569,88.91550683975213L824.1990626032987,220.49398803710923L824.6393016493056,108.75251674652094L824.9674146102432,280.9152641296385L825.1806143519966,198.41403150558457L825.7380732109376,135.0473322868346L826.6288348667536,230.20524168014506L828.5965835876736,278.3667125701902L829.6742434092882,460.9383502006527L829.9067929097223,108.33593988418573L832.018030983507,28.883496761322032L832.9192043472223,-626.182754993438L833.0300810273438,166.1094465255736L833.3537409809029,317.5992646217344L834.8617086809896,283.52154874801613L836.3965866414931,249.09778022766093L836.8370819756944,178.8027682304381L836.9475742235243,188.77675914764387L837.0577140750868,208.9020886421202L838.484053985243,146.15973615646354L839.1455658511285,225.83550596237168L839.7028004578993,-415.8159337043759L839.8097367070312,349.23075819015475L840.030817310764,297.48880052566506L840.3580973350695,171.68950223922718L840.5809078841146,163.8073840141295L840.9026777122397,601.751355171203L842.1017861019966,339.53125858306856L844.9947672408855,297.0404186248777L846.9753303715278,112.12834501266472L848.6308239635417,116.3262643814086L848.9558935021702,269.89239835739113L849.0763489535591,-259.5612368583677L849.5208487907986,50.19667530059813L849.7411605299479,127.89465570449819L850.8384263984375,250.25209569931008L852.3609064175347,154.39516687393177L853.9039215282119,97.96680593490593L854.3452818350695,160.90828561782826L854.6786487039932,170.44184589385972L854.7919921579862,55.84829235076902L857.7862071336806,110.14675283431998L858.4591878962674,136.81631469726554L858.7790035269097,561.720565795898L859.7548528632814,196.4217224121092L860.4135775950522,133.08544540405262L860.9596316293403,364.02252101898165L861.0668241666667,344.23667573928805L861.174945748698,290.19265556335426L861.4022093051216,-437.6559696197505L862.3880859171007,235.38358592987046L862.7179288233508,362.1546664237973L862.9433022543403,123.064438343048L863.3852712456597,152.05922508239735L864.704771014757,602.5191702842707L864.920021062066,316.95140981674166L865.2399328007813,461.744193077087L865.7834880251737,391.96808719634976L866.2257453407118,151.65474796295155L867.9758733485244,246.90392398834206L868.0847317591147,266.64586448669417L868.5280462634548,91.28083372116082L869.5043120681424,371.49186515808077L871.9542990629341,18.50710296630862" style="fill: none;" fill="none"></path></g></g></g></g></g></g><g transform="translate(51, 377)" clip-path="url(#clip_1)"><clipPath id="clip_1"><rect width="922" height="23"></rect></clipPath><g><g><line x1="0" y1="0" x2="0" y2="5" style="visibility: inherit;" fill="rgb(0, 0, 0)" stroke="rgb(204, 204, 204)" stroke-width="1px"></line><line x1="115.3296875" y1="0" x2="115.3296875" y2="5" style="visibility: inherit;" fill="rgb(0, 0, 0)" stroke="rgb(204, 204, 204)" stroke-width="1px"></line><line x1="230.659375" y1="0" x2="230.659375" y2="5" style="visibility: inherit;" fill="rgb(0, 0, 0)" stroke="rgb(204, 204, 204)" stroke-width="1px"></line><line x1="345.98906250000005" y1="0" x2="345.98906250000005" y2="5" style="visibility: inherit;" fill="rgb(0, 0, 0)" stroke="rgb(204, 204, 204)" stroke-width="1px"></line><line x1="461.31875" y1="0" x2="461.31875" y2="5" style="visibility: inherit;" fill="rgb(0, 0, 0)" stroke="rgb(204, 204, 204)" stroke-width="1px"></line><line x1="576.6484375" y1="0" x2="576.6484375" y2="5" style="visibility: inherit;" fill="rgb(0, 0, 0)" stroke="rgb(204, 204, 204)" stroke-width="1px"></line><line x1="691.9781250000001" y1="0" x2="691.9781250000001" y2="5" style="visibility: inherit;" fill="rgb(0, 0, 0)" stroke="rgb(204, 204, 204)" stroke-width="1px"></line><line x1="807.3078125000001" y1="0" x2="807.3078125000001" y2="5" style="visibility: inherit;" fill="rgb(0, 0, 0)" stroke="rgb(204, 204, 204)" stroke-width="1px"></line><line x1="922.6375" y1="0" x2="922.6375" y2="5" style="visibility: inherit;" fill="rgb(0, 0, 0)" stroke="rgb(204, 204, 204)" stroke-width="1px"></line></g><g transform="translate(0, 8)"><text x="0" y="0" dx="0em" dy="0.95em" style="text-anchor: middle; visibility: hidden; font-family: Roboto, sans-serif; font-size: 12px; font-weight: 200;" fill="rgb(255, 255, 255)" stroke="none" stroke-width="1px">-1</text><text x="115.3296875" y="0" dx="0em" dy="0.95em" style="text-anchor: middle; visibility: inherit; font-family: Roboto, sans-serif; font-size: 12px; font-weight: 200;" fill="rgb(255, 255, 255)" stroke="none" stroke-width="1px">0</text><text x="230.659375" y="0" dx="0em" dy="0.95em" style="text-anchor: middle; visibility: inherit; font-family: Roboto, sans-serif; font-size: 12px; font-weight: 200;" fill="rgb(255, 255, 255)" stroke="none" stroke-width="1px">1</text><text x="345.98906250000005" y="0" dx="0em" dy="0.95em" style="text-anchor: middle; visibility: inherit; font-family: Roboto, sans-serif; font-size: 12px; font-weight: 200;" fill="rgb(255, 255, 255)" stroke="none" stroke-width="1px">2</text><text x="461.31875" y="0" dx="0em" dy="0.95em" style="text-anchor: middle; visibility: inherit; font-family: Roboto, sans-serif; font-size: 12px; font-weight: 200;" fill="rgb(255, 255, 255)" stroke="none" stroke-width="1px">3</text><text x="576.6484375" y="0" dx="0em" dy="0.95em" style="text-anchor: middle; visibility: inherit; font-family: Roboto, sans-serif; font-size: 12px; font-weight: 200;" fill="rgb(255, 255, 255)" stroke="none" stroke-width="1px">4</text><text x="691.9781250000001" y="0" dx="0em" dy="0.95em" style="text-anchor: middle; visibility: inherit; font-family: Roboto, sans-serif; font-size: 12px; font-weight: 200;" fill="rgb(255, 255, 255)" stroke="none" stroke-width="1px">5</text><text x="807.3078125000001" y="0" dx="0em" dy="0.95em" style="text-anchor: middle; visibility: inherit; font-family: Roboto, sans-serif; font-size: 12px; font-weight: 200;" fill="rgb(255, 255, 255)" stroke="none" stroke-width="1px">6</text><text x="922.6375" y="0" dx="0em" dy="0.95em" style="text-anchor: middle; visibility: hidden; font-family: Roboto, sans-serif; font-size: 12px; font-weight: 200;" fill="rgb(255, 255, 255)" stroke="none" stroke-width="1px">7</text></g><line x1="0" y1="0" x2="922.6375" y2="0" fill="rgb(0, 0, 0)" stroke="rgb(204, 204, 204)" stroke-width="1px"></line></g></g></g></g></svg>