<svg viewBox="0 0 498.20001220703125 400" xmlns="http://www.w3.org/2000/svg"><g><g><g><g><g><line x1="72.34375" y1="365" x2="67.34375" y2="365" style="visibility: inherit;" fill="rgb(0, 0, 0)" stroke="rgb(204, 204, 204)" stroke-width="1px"></line><line x1="72.34375" y1="324.4444444444444" x2="67.34375" y2="324.4444444444444" style="visibility: inherit;" fill="rgb(0, 0, 0)" stroke="rgb(204, 204, 204)" stroke-width="1px"></line><line x1="72.34375" y1="283.8888888888889" x2="67.34375" y2="283.8888888888889" style="visibility: inherit;" fill="rgb(0, 0, 0)" stroke="rgb(204, 204, 204)" stroke-width="1px"></line><line x1="72.34375" y1="243.33333333333337" x2="67.34375" y2="243.33333333333337" style="visibility: inherit;" fill="rgb(0, 0, 0)" stroke="rgb(204, 204, 204)" stroke-width="1px"></line><line x1="72.34375" y1="202.7777777777778" x2="67.34375" y2="202.7777777777778" style="visibility: inherit;" fill="rgb(0, 0, 0)" stroke="rgb(204, 204, 204)" stroke-width="1px"></line><line x1="72.34375" y1="162.2222222222222" x2="67.34375" y2="162.2222222222222" style="visibility: inherit;" fill="rgb(0, 0, 0)" stroke="rgb(204, 204, 204)" stroke-width="1px"></line><line x1="72.34375" y1="121.66666666666669" x2="67.34375" y2="121.66666666666669" style="visibility: inherit;" fill="rgb(0, 0, 0)" stroke="rgb(204, 204, 204)" stroke-width="1px"></line><line x1="72.34375" y1="81.1111111111111" x2="67.34375" y2="81.1111111111111" style="visibility: inherit;" fill="rgb(0, 0, 0)" stroke="rgb(204, 204, 204)" stroke-width="1px"></line><line x1="72.34375" y1="40.55555555555557" x2="67.34375" y2="40.55555555555557" style="visibility: inherit;" fill="rgb(0, 0, 0)" stroke="rgb(204, 204, 204)" stroke-width="1px"></line><line x1="72.34375" y1="0" x2="67.34375" y2="0" style="visibility: inherit;" fill="rgb(0, 0, 0)" stroke="rgb(204, 204, 204)" stroke-width="1px"></line></g><g transform="translate(62.34375, 0)"><text x="0" y="365" dx="0em" dy="0.3em" style="text-anchor: end; visibility: hidden; font-family: Roboto, sans-serif; font-size: 12px; font-weight: 200;" fill="rgb(255, 255, 255)" stroke="none" stroke-width="1px">-500</text><text x="0" y="324.4444444444444" dx="0em" dy="0.3em" style="text-anchor: end; visibility: inherit; font-family: Roboto, sans-serif; font-size: 12px; font-weight: 200;" fill="rgb(255, 255, 255)" stroke="none" stroke-width="1px">0</text><text x="0" y="283.8888888888889" dx="0em" dy="0.3em" style="text-anchor: end; visibility: inherit; font-family: Roboto, sans-serif; font-size: 12px; font-weight: 200;" fill="rgb(255, 255, 255)" stroke="none" stroke-width="1px">500</text><text x="0" y="243.33333333333337" dx="0em" dy="0.3em" style="text-anchor: end; visibility: inherit; font-family: Roboto, sans-serif; font-size: 12px; font-weight: 200;" fill="rgb(255, 255, 255)" stroke="none" stroke-width="1px">1e+3</text><text x="0" y="202.7777777777778" dx="0em" dy="0.3em" style="text-anchor: end; visibility: inherit; font-family: Roboto, sans-serif; font-size: 12px; font-weight: 200;" fill="rgb(255, 255, 255)" stroke="none" stroke-width="1px">1.5e+3</text><text x="0" y="162.2222222222222" dx="0em" dy="0.3em" style="text-anchor: end; visibility: inherit; font-family: Roboto, sans-serif; font-size: 12px; font-weight: 200;" fill="rgb(255, 255, 255)" stroke="none" stroke-width="1px">2e+3</text><text x="0" y="121.66666666666669" dx="0em" dy="0.3em" style="text-anchor: end; visibility: inherit; font-family: Roboto, sans-serif; font-size: 12px; font-weight: 200;" fill="rgb(255, 255, 255)" stroke="none" stroke-width="1px">2.5e+3</text><text x="0" y="81.1111111111111" dx="0em" dy="0.3em" style="text-anchor: end; visibility: inherit; font-family: Roboto, sans-serif; font-size: 12px; font-weight: 200;" fill="rgb(255, 255, 255)" stroke="none" stroke-width="1px">3e+3</text><text x="0" y="40.55555555555557" dx="0em" dy="0.3em" style="text-anchor: end; visibility: inherit; font-family: Roboto, sans-serif; font-size: 12px; font-weight: 200;" fill="rgb(255, 255, 255)" stroke="none" stroke-width="1px">3.5e+3</text><text x="0" y="0" dx="0em" dy="0.3em" style="text-anchor: end; visibility: hidden; font-family: Roboto, sans-serif; font-size: 12px; font-weight: 200;" fill="rgb(255, 255, 255)" stroke="none" stroke-width="1px">4e+3</text></g><line x1="72.34375" y1="0" x2="72.34375" y2="365" fill="rgb(0, 0, 0)" stroke="rgb(204, 204, 204)" stroke-width="1px"></line></g></g><g transform="translate(72, 0)" clip-path="url(#clip_0)"><clipPath id="clip_0"><rect width="901" height="365"></rect></clipPath><g><g><g><line x1="0" y1="0" x2="0" y2="365" fill="rgb(0, 0, 0)" stroke="rgb(189, 189, 189)" stroke-width="1px" opacity="0.25"></line><line x1="120.2475" y1="0" x2="120.2475" y2="365" fill="rgb(0, 0, 0)" stroke="rgb(189, 189, 189)" stroke-width="1px" opacity="0.25"></line><line x1="240.495" y1="0" x2="240.495" y2="365" fill="rgb(0, 0, 0)" stroke="rgb(189, 189, 189)" stroke-width="1px" opacity="0.25"></line><line x1="360.74250000000006" y1="0" x2="360.74250000000006" y2="365" fill="rgb(0, 0, 0)" stroke="rgb(189, 189, 189)" stroke-width="1px" opacity="0.25"></line><line x1="480.99" y1="0" x2="480.99" y2="365" fill="rgb(0, 0, 0)" stroke="rgb(189, 189, 189)" stroke-width="1px" opacity="0.25"></line><line x1="601.2375" y1="0" x2="601.2375" y2="365" fill="rgb(0, 0, 0)" stroke="rgb(189, 189, 189)" stroke-width="1px" opacity="0.25"></line><line x1="721.4850000000001" y1="0" x2="721.4850000000001" y2="365" fill="rgb(0, 0, 0)" stroke="rgb(189, 189, 189)" stroke-width="1px" opacity="0.25"></line><line x1="841.7325000000001" y1="0" x2="841.7325000000001" y2="365" fill="rgb(0, 0, 0)" stroke="rgb(189, 189, 189)" stroke-width="1px" opacity="0.25"></line></g><g><line x1="0" y1="365" x2="901.85625" y2="365" fill="rgb(0, 0, 0)" stroke="rgb(189, 189, 189)" stroke-width="1px" opacity="0.25"></line><line x1="0" y1="324.4444444444444" x2="901.85625" y2="324.4444444444444" fill="rgb(0, 0, 0)" stroke="rgb(189, 189, 189)" stroke-width="1px" opacity="0.25"></line><line x1="0" y1="283.8888888888889" x2="901.85625" y2="283.8888888888889" fill="rgb(0, 0, 0)" stroke="rgb(189, 189, 189)" stroke-width="1px" opacity="0.25"></line><line x1="0" y1="243.33333333333337" x2="901.85625" y2="243.33333333333337" fill="rgb(0, 0, 0)" stroke="rgb(189, 189, 189)" stroke-width="1px" opacity="0.25"></line><line x1="0" y1="202.7777777777778" x2="901.85625" y2="202.7777777777778" fill="rgb(0, 0, 0)" stroke="rgb(189, 189, 189)" stroke-width="1px" opacity="0.25"></line><line x1="0" y1="162.2222222222222" x2="901.85625" y2="162.2222222222222" fill="rgb(0, 0, 0)" stroke="rgb(189, 189, 189)" stroke-width="1px" opacity="0.25"></line><line x1="0" y1="121.66666666666669" x2="901.85625" y2="121.66666666666669" fill="rgb(0, 0, 0)" stroke="rgb(189, 189, 189)" stroke-width="1px" opacity="0.25"></line><line x1="0" y1="81.1111111111111" x2="901.85625" y2="81.1111111111111" fill="rgb(0, 0, 0)" stroke="rgb(189, 189, 189)" stroke-width="1px" opacity="0.25"></line><line x1="0" y1="40.55555555555557" x2="901.85625" y2="40.55555555555557" fill="rgb(0, 0, 0)" stroke="rgb(189, 189, 189)" stroke-width="1px" opacity="0.25"></line><line x1="0" y1="0" x2="901.85625" y2="0" fill="rgb(0, 0, 0)" stroke="rgb(189, 189, 189)" stroke-width="1px" opacity="0.25"></line></g></g></g><g><g><line x1="0" y1="324.4444444444444" x2="901.85625" y2="324.4444444444444" fill="rgb(0, 0, 0)" stroke="rgb(153, 153, 153)" stroke-width="1.5px"></line></g></g><g><g><line x1="-57823084.644375004" y1="0" x2="-57823084.644375004" y2="365" fill="rgb(0, 0, 0)" stroke="rgb(153, 153, 153)" stroke-width="1.5px"></line></g></g><g><g><g><g><g><path stroke="rgb(255, 112, 67)" stroke-width="2px" d="M46.99559557916667,324.30464646524854L48.622277037500005,324.3616303361787L49.54073412291667,324.367650479942L49.65837626041667,324.3806985828251L51.121354108333335,324.3909580382113L51.91689152708334,324.39172365373554L52.03483428333334,324.4012515118072L53.64304438958334,324.40548179077234L53.76068652708334,324.3352036942921L54.218128058333335,324.36434548806994L54.66802071875001,324.3798795556216L55.36408673333333,324.38398041502626L55.940974114583334,324.3936249864971L56.73280390208333,324.399860447954L57.89649908333334,324.4033571258291L58.364061445833336,324.4068390157697L58.83172401458334,324.4089589908326L60.44454360833334,324.4061781332949L60.906594627083344,324.40692227895676L61.023602125000004,324.36791902600487L61.25324144791667,324.3813768922905L61.48618757708334,324.38772714650105L62.19204040208334,324.35728669572626L63.12115275208334,324.3815559927349L63.46963668750001,324.3939830042271L64.6065768,324.3789999431567L64.960505275,324.3505583686322L65.20484151458334,323.67317368262104L65.43043918541667,323.9652117417742L66.35407359375,324.13487941952604L66.9351696375,324.23974076397604L68.55714140208333,324.1781837487678L69.93811713541668,324.2695895778683L70.16652058125,324.3254353100692L71.08858509166667,324.36154168861066L72.94246752083333,324.3789129928371L74.67282904583334,324.3927579403554L74.8029635625,324.3991038001463L76.30291751666668,324.4056365069294L76.41835511666666,324.4042989174831L77.78917661666668,324.40588965564945L78.15626551250001,324.4057861036127L79.09296013541667,324.40630857306456L79.44271335,324.40997610611424L80.01038175625,324.409282307217L80.58192480416668,324.36098710496293L82.09630845833334,324.3799239206266L83.01556719375,324.3761727268401L83.25038383958334,324.3916519421217L83.36735793541666,324.39811103751197L83.70191320208333,324.40189016632866L86.34365057083333,324.4083882841757L86.45467909583334,324.4093279287658L89.25287182291667,324.4098787027132L89.94195680208334,324.41343349650026L90.05529007083334,324.4119760893522L90.16965880416667,324.4118879867835L91.57561929583333,324.4010199426756L92.49885287916668,324.3969862156994L92.94714223958334,324.4041313486297L93.18142445208333,324.40489371276556L93.746153475,324.4071211871902L94.31746270833334,324.4103372159839L94.56183235,324.4116079296348L95.82089047916668,324.41421889381337L96.52179979583335,324.4133021041755L96.63767162291667,324.41067497451456L98.2440112125,324.39503858934125L98.36359067083335,324.4032849098792L98.58063740833335,324.4076551929179L99.39230803333334,324.41015650163473L100.08216126041667,324.41268512937324L101.12130007291667,324.40216551891706L101.59444058333334,324.3986628557613L101.93604368958333,324.4005520201282L102.16969126250001,324.4024050608145L102.62733320625001,324.4079045699954L102.74414029166667,324.4105502412868L103.32844293541667,324.4099557383019L103.44558404166668,324.41007167077345L104.13704056875001,324.4102993032711L106.7815837125,324.41314298261796L107.01740242083333,324.4124801284382L107.133708475,324.4112272836684L107.24998112708334,324.41349173709597L107.59559248333333,324.41527554638094L107.84123140416668,324.41472726816744L109.44944151041668,324.4121134349593L109.55549312500001,324.41439307260515L109.78082357916668,324.41269196006454L110.00655485833333,323.822616083089L110.2174556125,324.0611455854953L110.67212477083334,324.2015569538582L110.90022759791668,324.2849385692436L111.6067150625,324.33721901798134L112.06719618333334,324.37029521470265L112.73941311041668,324.3882301609549L112.97082274375,324.3960474487245L113.41386797708333,324.40478039217595L115.26658133333335,324.4016648844172L115.944643625,324.3998874719514L116.41066949166667,324.40527759658073L116.64301438333334,324.40578347525394L118.61079791666666,324.4081854727087L118.72690355833335,324.41090487629805L119.64188682708334,324.41078870359775L119.75314916666666,324.371803038712L120.32469221458332,324.3805726722983L120.44236775416667,324.39373056701135L121.36436546041668,324.40216159139857L122.04216053541668,324.40731345577575L122.15783195,324.4111848090568L122.7320137625,324.4071899595149L123.77402515416668,324.40412421203047L124.83397346458334,324.4078721878843L125.76582478541667,324.41002085755434L125.88229785000001,324.41160847594443L127.73277326666668,324.4134228268139L127.96227898125001,324.41135659947565L132.49714622708333,324.4099426773065L132.72060616458333,324.4126038290121L132.94593661875,324.40949174054145L133.28556900208335,324.41331828071617L133.62967726458334,324.41355382250777L133.74838826875,324.4144786755663L135.15371412083334,324.41432990088595L137.4300661,324.3555256683368L138.69159598333334,324.3802772642549L138.80439481875,324.3937721796459L139.48072020208335,324.40066498885307L140.17217672916667,324.4081650408558L142.00982574583333,324.4108150624836L142.12436148958332,324.41377302136976L142.35617194791666,324.4133188193524L143.73931881666667,324.41471629529104L145.24588638333333,324.412295233316L146.1616379,324.40286871027683L146.5081511125,324.4047112459114L148.12424411041667,324.4095212062302L148.6866349875,324.40935960400714L149.13088269583335,324.4105258228233L149.69888512291666,324.41253872401614L151.43248665000002,324.41253565199105L152.6934821,324.41509967065014L153.15810507916666,324.41689481838904L156.49664330833335,324.4151353917382L156.72508015625002,324.4143195154187L157.87548130833335,323.8746894231456L158.68003728958334,324.0906776435319L160.28313687708334,324.2221274398319L162.13721971875,324.29884221003437L162.48306488958335,324.3472084682874L163.88181053125,324.3710431487244L164.46060183125002,324.38873970484696L164.80975380833334,324.3993760428717L165.04527189791668,324.40690138691673L166.29724878541666,324.4091094540663L167.12214663541667,324.41109918611556L167.57033578958334,324.4129187626546L167.78651407291667,324.40926100629L168.8153316416667,324.40963941983176L172.42138715625,324.4123651656483L174.05808923958335,324.40585078849244L174.17075446666666,324.4107211741239L174.39879048958335,324.4110504679407L174.86638625416668,324.4130827726041L175.90973372916667,324.4123428036374L177.27968677500002,324.40738268896223L177.74821779791668,324.40420493229135L177.97080928125,324.4084288359848L178.31678806041668,324.4106658677691L178.54435645416666,324.41043873347115L178.77269309583335,324.41330119895633L179.9269354875,324.4160456718003L180.38975475416666,324.4159737097221L181.2094418791667,324.41688197961764L181.438646975,324.4175328328092L182.0173046666667,324.41845822928286L182.8329167375,324.41804611902865L183.40185442291667,324.41834197849226L183.51889532291668,324.41484552577583L184.88420547916667,324.41649042855306L186.01593486666667,324.4158996133509L186.2431358375,324.41637113480124L186.35132518541667,324.40478933942L187.16389766666668,324.4089098490908L187.74071824375,324.4086207866716L188.20731194583337,324.40961327174256L188.31787284166668,324.40876162131L189.69550836666667,324.4122288388241L190.6181407125,324.41506176555197L191.0682671875,324.4169681310762L191.63834054375002,324.23524796793845L191.86183388333333,324.30410155959254L194.01877341458336,324.3245612683336L194.24490551875,324.3553053950598L194.82366341666668,324.38074527900733L194.9410383375,324.39453085186204L195.15604754791667,324.40136435876894L195.4980514791667,324.40151598888997L195.95308806041666,324.38944621784503L196.63609386041668,324.39953590904815L197.10859973125,324.40396321770635L197.68441824583334,324.4087059083341L198.37898116666668,324.41238238431896L198.72526056458335,324.412937053244L199.30224815208337,324.4160003181302L200.22948998541668,324.40980364447194L200.68669770208334,324.4112376973816L201.14744603958334,324.4127068225416L202.1755287625,324.41540825727816L202.99558331041666,324.3942642128131L203.31961692083334,324.4015884677897L203.44621081666668,324.40536456340527L204.46026466458335,324.40843115814914L205.59707116875,324.40837858899135L207.34613786041666,324.410396638985L207.80050640000002,324.4141197925064L209.06774803958334,324.41331854562816L209.1873274979167,324.41469713978483L209.64984614583335,324.41544045176283L211.15130319375,324.4048703227146L215.32813350833337,324.4087887243386L217.75389300625,324.4088367866914L217.87313844375,324.4096199095313L219.01188226874999,324.40998075722706L219.93094059166668,324.41272254029343L220.04838231666668,324.40912654129323L220.4024109979167,324.4083268705136L221.88472865208334,324.4101517832553L222.11132838541667,324.41075931823576L223.38728796875003,324.41173602128487L223.728089425,324.411469772935L224.18402786250002,324.4147742190706L225.10091505000003,324.41246569284283L225.90380092708332,324.41477071433354L226.00684635416667,324.41615514956703L226.35272492708336,324.414650529229L226.70371401875,324.4150663851917L228.07824315000002,324.41074115756476L228.74818873541668,324.41158626843156L229.19480799166666,324.4056965813358L230.35773492500002,324.41115690131903L230.70575123125002,324.41191277045624L232.31008669583338,324.41339622492757L232.6472807270833,324.41580142611696L233.24380853333338,324.41704350583416L233.59917329791668,324.4164578021062L234.62802426875,324.41265550597797L235.90542014166667,324.41508812626114L236.4931632,324.41451614096377L236.72286932708334,324.4158686911739L239.45075066875,324.4122238765232L240.3761553875,324.4137353824553L240.61107223958336,324.415997344817L240.95768565833333,324.41494170055705L241.64102547916667,324.4167432597698L241.75850060625,324.4140215550184L242.56496050625,324.4151341657034L243.4969788375,324.41524230616443L243.9507795416667,324.4163528378105L244.39733199375004,324.41538137741657L245.20599643125001,324.41577948288784L245.4356357541667,324.4171479279796L246.13337187291668,324.4176657457815L247.1737465625,324.4179526337981L248.0834857041667,324.41028176591794L248.3163650291667,324.411464356286L248.64180152708335,324.4147255615608L248.98176793125003,324.38627644272606L249.097906975,324.39708555292265L249.90797430000003,324.4034312884944L250.48202250416665,324.40869459486294L251.28644487708337,324.41147933604094L252.31262368125002,324.41355215637947L252.76148087708333,324.4154736458206L254.38455491041668,324.4161247922347L255.42907145833337,324.4135324667712L256.70984094166664,324.41149668059995L257.86448415833337,324.4110983989638L258.09085007708336,324.41219128464337L258.90258750625003,324.28032262524766L259.4983136625,324.33410474951216L259.84065161458335,324.3680612681683L260.7719685020833,324.3856496352446L262.96628496458334,324.3986292238661L264.23416124375,324.4049185182297L266.18958600625,324.4075680583238L266.6542757895833,324.410850290389L267.69445006666666,324.41192478983805L268.26258610208333,324.411362505769L268.379994425,324.4109849453063L268.49125676458334,324.41474168732975L270.9154463645833,324.4156883206479L272.18612841875006,324.41698767296884L272.5292012166667,324.4167051442409L273.21548042083333,324.41550710571806L273.33268833125,324.41485105213656L274.35963538333334,324.41640683471775L275.04821933125004,324.4157477593266L275.15874682500004,324.41593831099794L276.41272783750003,324.4150657611155L276.85707575208335,324.41395154471905L277.43827200208335,324.41490969789123L277.6653059625,324.41582281930505L278.70474539375,33.09903622630524L279.1688673416667,149.34338900652833L279.28273504375,219.37290194200529L279.51210715,261.3910742444353L279.62821279166667,286.60030547928153L279.86189376666664,301.7228837477115L281.11393745833334,310.79572724174477L281.3480860625,316.2428715483077L282.2867514083334,319.51272890408535L282.40075271874997,321.4761932948148L282.74903624166666,322.6533224111149L286.73981695208334,323.35779530108067L289.1517479875,323.78088782264183L290.0623889854167,324.0345240207649L291.4483416291667,324.1864548075148L291.78386555625,324.2746513093282L292.81685838541665,324.3323072276309L293.9574727270833,324.3661386814392L296.2846626770833,324.3844141986376L296.62803609375004,324.39665291718416L296.9608544520833,324.40560819699095L297.6413550958334,324.37761219895117L298.2132655666667,324.3934439128678L298.3270330625,324.3902705842016L298.7865121208334,324.40112787936675L298.90064703958336,324.40631732398333L299.6784479520834,324.4080612773144L301.05194161875005,324.4074511252244L303.37732785625,324.39587481438843L304.52609230625,324.40281781254714L306.54918968958333,324.4059210893886L307.35220917500004,324.4019703958855L308.16017216875,324.40725074134826L309.087781425,324.4086415547285L309.3182223979167,324.4114665641479L309.7836804291667,324.4151650933612L310.4856920145833,324.41766228735247L310.9373549854167,324.41285341977954L312.21331456875004,324.41405973927107L312.5591597395834,324.4142235799785L313.1339093875,324.41321082781025L314.60129631041667,324.4123429716245L317.3718321125,324.413516343935L320.1135085145833,324.415804895529L320.22400260625,324.4138607867108L321.38128458750003,324.40920076092027L321.73992275625,324.41442739016446L322.3185470458333,324.406184989174L323.23640289375004,324.4062645147137L324.3710048604167,324.2908169289498L325.5275519958334,324.3409002304383L326.33257560625003,324.3674896363336L329.78361205208336,324.3883918322673L330.24472781250006,324.3989083037506L330.36200252708335,324.4067216743997L330.82224983333333,324.4105704287803L334.58796730625,324.00442059334813L335.05586368958336,324.160769730429L335.17120108333336,324.2614496351601L335.7514286729167,324.32216243427257L338.64244578958335,324.3612504784871L339.57332845,324.3826103094649L339.90811753125,324.3943060227692L342.17922538333335,324.4034833465161L343.08475586250006,324.40772393542716L343.65005272083334,324.41181653718394L343.8816627666667,324.37529991058653L344.24106918333337,324.3665261549773L344.4740153125,324.38658629389073L344.5906887895834,324.3968306835646L345.84978032083336,324.4059454913629L345.96441627083334,324.4053619628697L346.07774953958335,324.4106337968902L346.30404865416665,324.41053643022354L346.53599272083335,324.41318585460016L347.1051976229167,324.41569996963716L347.3412835479167,324.41095824301044L348.24941938958335,324.4123198467084L351.34365478125005,324.4122915933946L351.4596602166667,324.41452226483676L352.70412163541664,324.41689616724824L352.81912500833334,324.4175133781995L353.9656181166667,324.41736868557854L354.0821579854167,324.37988763840843L354.42940604375,324.3864264218851L355.22664696875,324.3923050358534L356.0271612979167,324.4032653198888L357.52497751875,324.4072839497477L358.43488367083336,324.35876035530407L358.5466470416667,324.38040399373324L359.33854363333336,324.2565128851909L359.68786262083336,324.3191416468144L359.80243176666664,324.35920804347785L359.9184038,324.3821579656175L360.27707537083336,324.39555957274L362.42810273333333,324.39382388915436L363.32698619791665,324.40363613917583L363.44456153125003,324.4072478212167L363.80573825833335,324.41191546293925L364.60996021875,324.32789809308815L364.9603480729167,324.3635299291619L365.18434244375,324.38507155745344L365.51812946250004,324.39398717830056L365.9794790375,324.40410705556155L366.9939671125,324.41031148763966L367.67443435416664,324.4108055185426L368.2508207041667,324.4128323087053L368.71370677500005,324.41194364401105L368.9447823875,324.4146393829529L370.09912498541667,324.41533090875873L370.21469619375,324.4159333950791L370.6639876166667,324.41662621934296L371.25724201875,324.412947560689L371.37080910208334,324.41239946352573L371.4802343270834,324.4133222548592L371.82050135000003,324.41352151874605L372.8506216,324.41148309001335L372.96849755208336,324.4106897851103L373.0830666979167,324.3560986275571L373.65157015625,324.3803527553206L374.2327330041667,324.3952121622955L374.5783443604167,324.40159779025686L375.15443009166665,324.4078595895516L375.38113003125,324.409339765433L375.7240024166667,324.41301746453917L376.53670850625,324.41406923464586L379.3397111333333,324.4172912549872L381.0610874979167,324.4158729462431L382.44239725208337,324.41623510111344L383.59343304375,324.41653226451126L384.0479351916667,324.4171942100289L384.74253151458333,324.41722434038763L385.55206440625,324.41729198001065L385.66412839583336,324.4153539741835L386.6933133875,324.4158466708078L386.8089179979167,324.41751887025254L388.9804542395833,324.4152935770461L389.08944523750006,324.4157817604527L390.11559063958333,324.41393802528563L390.3490043979167,324.4082527585591L393.22368789583334,324.40799704264197L393.5653912083333,324.4105537964472L393.9099002958334,324.4109306294529L394.59056795000004,324.4128115080547L395.06648083333334,324.41506601041397L395.18171802083333,324.4163575357812L397.1134941083333,324.4116568373942L397.4571347416667,324.4131755154115L398.2764210416667,324.4151208323044L398.62166497500004,324.4150240532837L398.85167172083334,324.4119549396206L399.55211340833335,324.4140682855389L401.05149952708337,324.41410323539225L402.18914108333337,324.41327684127594L402.53451862500003,324.4157222094733L402.87792544375003,324.4167041149761L403.7929087125,324.41679807351187L404.8384941270834,324.41683284377746L406.5514531666667,324.4171856311303L408.0516409354167,324.4159531914266L410.23169470833335,324.41830351303446L410.5816483354167,324.4094611334495L412.20285185208337,324.41225469647003L412.3168531625,324.38798683593234L413.010480825,324.39959058824246L413.7128932354167,324.39620221657725L414.5081968395834,324.4059939902813L414.6391664083333,324.41141557878996L414.7553388541667,324.4058469725984L414.97312043750003,324.4096829528282L415.43256609375004,324.41340295912175L415.89591979375,324.34622323415823L416.36157823750005,324.37387963545274L416.4764480020834,324.3902407628083L416.58961426041674,324.39972293622003L417.1573828729167,324.40808967888375L417.38575291666666,324.4091923330626L418.54961510833334,324.41056200093436L420.7705196291667,324.4141954129654L424.0207761520834,324.4152552681331L424.60477817708335,324.41481516774815L425.65280194375,324.4144967985331L426.00425866458335,324.4160704636416L426.23169345,324.4168927708637L427.04981067708337,324.4145236568341L427.6384555916667,324.41390672369937L428.57782238125003,324.4158187826721L429.03399463333335,324.413660099945L429.15120254375,324.4131334629439L429.50242545000003,324.4136696377929L429.73213157708335,324.4162995639631L430.53688797083333,324.4177860683911L431.90016060000005,324.4148026251688L432.12833023125006,324.41383047958914L434.65873845625,324.41459230627373L435.0053184729167,324.41236729344513L438.44937388333335,324.4148391408305L439.358311375,324.41329937758195L443.2590066666667,324.415467053254L443.8111097020834,324.41499417208274L445.0762136083334,324.4140724513291L446.12133139375,324.392291611461L446.9103220041667,324.40187519941423L447.1379906041667,324.40893810921455L447.49566011250005,324.4105410711778L447.72403015625,324.4129016380397L448.29039588125005,324.41436572465625L448.4085724520834,324.416641087585L449.32048272916666,324.41415538675784L449.43501847291674,324.41179771732277L450.58952808125,324.4143125181588L451.0597960125,324.412365942536L452.20067757083336,324.41480964467553L452.6599228145833,324.4146141437098L453.1275853833333,324.4143373613135L454.03936205208333,324.4160633943689L454.61357726666665,324.4164905035357L456.33224806249996,324.4177869523416L456.44731823958335,324.41757898114554L457.13520074375,324.4167111312031L457.94376497499997,324.41401505862416L458.38557433125,324.41507179049165L459.5462967270833,324.41410712249257L459.66524154583334,324.41269445199737L459.7805121354167,324.41081216623434L459.89063880416666,324.41110417654147L462.00702820624997,324.3796286295588L462.2366341270834,324.3742415364889L462.5871889916667,324.39104779315505L463.0548515604167,324.40122408234583L463.40370291875007,324.40499822837216L464.6513709375,324.41093064403464L466.06424566041665,324.41092042087405L467.1036850916667,324.4142729234894L467.2165841333333,324.4142637802482L467.7817473833333,324.415395898646L468.12345069583336,324.4137706120831L468.81180082916666,324.40453945544164L469.26623617291676,324.40783791813664L469.7232434770833,324.4090346996259L470.6200560125,324.4107115197741L470.96262777916667,324.41082718896246L471.6569568854167,324.41310347950883L471.7746992291667,324.4112536760091L472.6977324,324.41513869077147L473.0443792208334,324.4168411118399L473.16472692708334,324.41683453729087L474.5546210166667,324.4168615001526L476.05110115416664,324.4164884974876L476.16176225625,324.41809490101116L476.2767322270834,324.41737201826385L476.3957104479167,324.4126391533941L477.9851485833334,324.39529179117L480.7519433520834,324.39734879551213L481.09020625000005,324.4043328282442L481.3329725916667,324.402417842672L481.56641975208333,324.4058484193968L481.91406863541675,324.41067794402164L482.36362727500006,324.4135994875679L482.70756852708337,324.4160600955238L482.8192984958334,324.41507136693633L484.90388911458336,324.41210694464L486.05342181250006,324.41397303644L487.40804330208334,324.4151836690032L487.99234594583334,324.4005946820214L488.10567921458335,324.39734508431695L488.45012149791665,324.3994712078377L489.72227324375,324.4025020047839L489.83473805833336,324.4074784768379L491.19450346875,324.4098749847465L491.3098742645833,324.40980630178774L491.55464473125005,324.41062182549354L491.67024934166665,324.41443813087767L492.01255389166664,324.41485686145893L492.12812510000003,324.41594203912155L492.24533301041674,324.41730365965526L493.0473504333334,324.4167726761658L493.2744511979167,324.41567022933583L495.25786690625006,324.41298652584436L495.48396560833334,324.41215041780185L495.5975326916667,324.4100121513032L496.05019772500003,324.4081798165851L496.3978466083334,324.4126967539014L498.3569121979167,324.41322563516167L499.037145625,324.414810516479L500.18126718541674,324.4148270362206L503.4044680208333,324.4159837661868L504.46568561041664,324.4168409525432L504.7101888604166,324.4163539666977L504.9485461270833,324.4181423380866L505.53054402708335,324.410387681021L505.8825017791667,324.4087667469477L506.92411234583335,324.4120364716759L507.26701813333335,324.41448361902764L507.60634989791663,324.4160850271543L510.7131444729167,324.4131327524625L511.42313915625004,324.41565107412856L511.7651430875,324.40996201491987L512.2206472979167,324.4126560857228L512.91921846875,324.41286163365163L513.2688046729166,324.4095011097841L514.0475742458334,324.39605446916073L514.2828585208334,324.35463518367294L514.6316096729166,324.3814908086159L516.5900072208334,324.3937483762508L517.0379959625,324.40431404876216L517.9566868625001,324.40491376223L518.06961930625,324.40972281469004L519.0951634708334,324.41097787629093L519.7960393854167,324.4135226436686L519.9082703854167,324.4147285108969L520.0237747895833,324.41239116154014L520.3624385125,324.4137730999636L521.0578030833333,324.41553125054725L521.9779970770834,324.41512415140187L522.8981242666666,324.41445167311286L523.3616115750001,324.4128035679488L523.5905160520833,324.41478949160876L524.6238763041667,324.41555351351604L525.2003962625,324.41188277883936L525.89652908125,324.4047424256222L526.5842779770834,324.4028468091935L527.3975519020834,324.40853062626286L529.4513458,324.4109792702921L531.61509935625,324.411920717688L532.0781858395834,324.41579239960413L532.52296798125,324.41654899965596L534.4868434708334,324.41779101672296L535.20108021875,324.41468508502027L535.87667075625,324.41544870412457L536.2115600437501,324.1570910388132L538.2844599333334,324.2601906078464L538.7466445604167,324.32324712910025L539.5427498145834,324.3588885792626L539.8761694104168,324.3829646143701L541.1451813604167,324.39689386158835L542.3061709729167,324.4054010958717L542.4225772333333,324.40786489161655L542.7657836395834,324.41250825240564L545.4322051479166,324.4150996066525L547.1692804916668,324.416191406757L547.28334860625,324.416855198767L548.7695075,324.41845093161766L549.4580580458334,324.41868198250273L549.6849583979167,324.4189865925517L549.8008636270833,324.41916806097464L550.5005036645833,324.4176716047398L551.6579860583333,324.4158578200926L551.99985638125,324.4185001695296L552.3567242395834,324.4193718086697L552.4728298812499,324.4174881452266L552.9423629666667,324.4189913609524L554.1029517541667,324.41572933442126L555.5747477520833,324.4067378156851L555.6832043166668,324.4086918710022L557.6552633166666,324.4127395958711L558.91068061875,324.41544015764583L559.9209934333334,324.41717129501666L560.5032251479166,324.4190194304762L561.0827178916667,324.41261877075704L561.76255049375,324.30407038687525L562.7739989791667,324.308469116628L563.6967315312501,324.34964471367056L564.7540410770833,324.37567700300184L566.02332024375,324.39144772082045L566.6055853604167,324.396029566808L566.9492927979167,324.4027660582431L568.8135298729167,324.4093814043317L569.7376987145834,324.40676449389605L570.1922342645834,324.40175173994044L570.5467639770834,324.4072045555017L570.8931769833333,324.2555873154052L571.0106521104167,324.32001133199554L571.9329838375,324.3573757626508L572.1649947083334,324.38159271297883L573.4059489083334,324.39569652376065L574.3455495125,324.405161024529L575.6075804270833,324.40460801684753L576.0727044375001,324.4073532430298L576.9784353291667,324.4063277582838L579.6315628083333,324.41071144663374L580.3256581,324.4123514167784L580.8005021166666,324.415450251638L582.4851361895834,324.4172025154996L583.1658372458334,324.41686584981755L583.51792860625,324.4145520115245L583.7665737145834,324.41588470110054L584.5782443395834,324.41773505111456L584.9252585833334,324.4186520154339L586.8040589666667,324.41559157724885L587.2925310333334,324.4103628578725L587.4075678083334,324.404649486982L587.7475008104167,324.4092948241094L589.2697005520833,324.41077651352043L589.5007093604167,324.4105377622003L589.735024975,324.41261290098555L590.2044912562501,324.37569658495846L590.6883872375,324.3932423859707L590.92276965625,324.40235544180103L591.8465042708334,324.406997899994L592.98761964375,324.41105688079614L594.6288978125001,324.41308455981135L594.9624510166667,324.4147270828193L595.3112355708333,324.4116152662658L597.2383019645833,324.4110000299852L598.9736404,324.4122058574555L599.5506947916667,324.27909906446786L599.66616579375,324.33186666309746L600.1233401083334,324.36621413380516L600.58926576875,324.3870138217181L600.6986241895834,324.3987922356826L601.0357180145834,324.4051361663257L601.5984429125,324.40859957663235L601.714882575,324.41129532115474L602.8717303291667,324.40971633698626L603.78644638125,324.41295021901846L604.2435538916667,324.410180403453L604.4697862020834,324.412863666015L605.16147654375,324.4155378367486L606.0852111583333,324.4153809942262L606.1962730854167,324.415549787436L606.8750368208334,324.4167713627409L607.22853106875,324.4157271151458L608.8105873437501,324.41753024941306L609.1480485916667,324.4180285919445L609.2629851604167,324.4168690975814L609.606325175,324.362448675333L611.68370094375,324.38295918543383L612.145150725,324.3970298658167L612.9366130895834,324.4040059662872L613.6357854979167,324.4044305938159L614.1147713729167,324.3473314282567L614.2284052604167,324.3738336840831L615.7020383729167,324.3911172426546L616.6166876208333,324.39803768548194L617.3134550791667,324.40342749054923L617.6561604541666,324.4086696940404L617.991985,324.40436528976545L618.21915256875,324.40648704558083L618.4527333375,324.41222826637505L620.2543081041667,324.41257136091866L620.4851499020833,324.4020292717798L620.7176284020834,324.3170978676163L620.8329991979167,324.35204612125256L620.9462656625,324.37480568125756L621.7522579333333,324.392029276844L621.8569066604167,324.40106076407466L623.9146086020834,324.40512243267716L624.2602199583333,324.408220325451L626.2086970875,324.41232049625904L629.0923323437501,324.4118808256229L630.6207114708334,324.4068559614272L630.8462423375,324.41065038990354L633.0143715666667,324.4115499994638L633.4894828,324.3950520863357L634.29804703125,324.4051746252908L634.7614007312501,324.4062214759164L635.337686875,324.4110931526327L638.6661710770834,324.41394260023924L638.8931382333334,324.4137195450425L640.0290094791667,324.4143970842974L640.1439794500001,324.41586704944467L643.8034448958333,324.41297662190203L646.5520021270834,324.4146766710973L647.9248277520833,324.41584402051416L648.1533982083334,324.41320169561544L648.703597325,324.41315654105676L649.853163425,324.4141349327436L650.2028498354167,324.41490925045036L650.3153814541668,324.41383812104397L651.2067494500001,324.4096016316895L651.4383928979167,324.412461947968L652.0085330583333,324.4136765045811L652.7196968145834,324.4141420971287L655.121607225,324.4137149175962L656.2867052937501,324.4136541094557L656.7383348625,324.4140228393845L657.2008869125,324.4143099893633L657.9917146375001,324.4149355452427L658.4570056583333,324.41553659362603L658.5747146,324.40814577960117L658.7980075270834,324.405447366667L658.90810079375,324.40781335410077L660.2866715770833,324.40349583142955L661.3077398625001,324.40864803443066L662.59068048125,324.4091053903284L663.8422565437501,324.41167943597924L664.0776076229167,324.4140322837365L664.6529585083333,324.4130620270583L664.8841343270834,324.41169567305855L665.4601532541667,324.413725309472L666.1347751312501,324.4124873432389L666.9429385375,324.415916242254L667.40518996875,324.41781371017765L669.8225321416667,324.4154986995884L671.5632149104167,324.4165552345107L671.6797213770834,324.41593764120154L672.156669725,324.41453488963464L672.6068296020834,324.4145577046332L672.9547123,324.4133633027707L675.3688144708334,324.4143076857865L676.18285664375,324.38523728312697L676.4135982354167,324.39223981237063L676.64821446875,324.4001031683027L679.0575401416667,324.40812768205836L679.1633245395834,324.4118375916239L679.5066311520834,324.4152435208334L679.7370053208333,324.06781353023825L680.1999915979167,324.2073959522278L680.3138593000001,324.2895996042853L680.8815611083334,324.33490984804683L681.1146408458334,324.3511240962779L681.3461506854167,324.37596681990044L681.9037650645834,324.3911586052844L684.0661491354167,324.3973517415922L684.7544324645834,324.40604880834957L684.9857084895834,324.41133075198076L685.3275788125,324.4153328073984L686.3687551520834,324.41478932412923L687.6268446208334,324.41287235909846L688.6372576416667,324.4104472895644L688.7514259625001,324.4145213108436L689.2170176020834,324.4165562823917L690.348513175,324.4162160698543L691.1425475000001,324.4115576570943L691.5820521125,324.41205573713404L692.3930880979167,324.41490448028554L693.5362744,324.4160372186213L693.76805145625,324.4188186068308L693.8778441041667,324.4172992663698L694.3371895541667,324.4099756833583L694.5588123770833,324.4137668663928L694.7903890208333,324.4147886106042L694.90308765,324.41673896135234L695.14518595,324.4149132240031L696.3958935583335,324.41677902760716L699.37960145625,324.417218887954L700.3001294708334,324.41897839895495L700.6442377333334,324.4185412075019L700.8765826250001,324.41640055230636L700.9903835229167,324.416616731685L701.8002170333333,324.41731701868207L702.2665769208334,324.4165999742726L702.4831560291667,324.4161722123054L702.8231224333333,324.4139802419533L705.0054475479167,324.41595279782683L705.7848517604167,324.40942783597245L706.0126205666668,324.4090878369068L706.3591671812501,324.41190068620375L707.5022866791667,324.41235573645525L708.8924145833334,324.36595236413007L713.1753633166667,324.3866798068224L717.6705154854168,324.399262599311L718.8208498333333,324.40779358913204L720.399966725,324.41026893565873L720.9780231791667,324.40936683987803L721.2146769395833,324.41124908661646L722.70781686875,324.41242922018785L724.5461673291667,324.41366925125476L724.8926471395833,324.4129744642353L725.7151734416667,324.4104893873293L726.05350314375,324.41450512248565L726.8421597333333,324.4129857866794L727.6345573562501,324.4143038074803L727.9909241833334,324.4073209996335L728.7908372750001,324.40988327329563L729.1390205916667,324.4128017151401L729.9398355395834,324.4147844716338L730.1686064083334,324.417530091894L730.5065686875,324.41488905390304L730.62090401875,324.4162172102675L730.73473831875,324.4162101924665L730.8413577687501,324.41760606037394L731.6495879791668,324.41863806929945L732.4479311729167,324.41883727950574L733.4758134833334,324.4176735280517L733.9394344,324.41342226755L734.4037567604166,324.41515061575996L736.6525520208334,324.4150288477007L738.0268139354166,324.414258291537L739.2877091791668,324.41615879943174L741.2458395104168,324.4104110982496L742.37108889375,324.41273045771857L743.1686972416668,324.41295529902106L743.5057910666667,324.412462260949L744.63474808125,324.41511878362275L744.74477454375,324.41636706497854L744.9860043895834,324.4149224602112L745.6647347229167,324.4150538399508L746.4578671916667,324.41431017584415L749.43021838125,324.41557758357874L752.3135864208334,324.41529436787016L753.9443763354168,324.4172148909969L754.5237354708335,324.4050011099791L754.8690462083333,324.41042630748444L755.8040039229168,324.4101222377409L756.49275488125,324.41148818257454L757.7391870229167,324.4133528253946L758.7490322083333,324.25297452842943L759.5625733500001,324.319243482326L760.2493869875,324.3576222405811L760.7107699645833,324.3827066541369L760.9349647479168,324.39479625544215L761.0418848166667,324.40248118219864L764.4803286770833,324.4083265757447L764.9366011354167,324.3319867927165L765.0526399729167,324.36617376750695L765.8533547145834,324.3840504510097L765.9655857145834,324.39594227340507L767.89081499375,324.4029513829948L768.5721840916667,324.40655267084975L768.8008547541667,324.41128251464374L768.9272482375001,324.4118096595611L770.1944898770834,324.41347198782L770.5491531979167,324.41431978101116L772.1602692854168,324.40792968532196L772.6183120541667,324.40846461148175L772.8480515833334,324.41281006236875L774.2162677208333,324.4118552187549L775.131017175,324.41340479242274L775.7139837354167,324.41376301257293L775.9344708875001,324.4111636482188L776.1585988666667,324.4128720115859L779.1257727333334,324.416400135485L781.0689723333334,324.417731660164L782.43294640625,324.4162246491783L782.5493860687501,324.4138353620798L783.32939151875,324.4123512953352L784.02342000625,324.3857347542477L785.0520371625,324.39454242099583L785.1694120833334,324.2920441845412L785.6371748583334,324.34204900892706L786.0921112333334,324.37116332650794L786.5510892604167,324.3892520307604L786.8932268,324.40135288345766L787.1155176645834,324.408427985305L787.6967473166667,324.41033369420296L788.62549224375,324.4140050984654L790.6771484083333,324.4138142817623L791.8007276875001,324.41478701279334L792.0432268125,324.4145345162232L794.2444909083334,324.4171782760747L795.1840915125,324.41263209846517L795.2996961229167,324.4144323622267L795.6371573708334,324.41424039149103L797.2094268354167,324.4155304780631L798.80975405,324.4145860602012L799.2690326958333,324.41120262998976L799.38423648125,324.41417662352177L799.49907284375,324.41589355281235L800.9862338,324.41532989878203L801.67595341875,324.4160041352038L802.25694925625,324.4152218371585L802.3684454104167,324.41498737923035L802.5989531875,324.397916489075L802.9401888708334,324.4030247571782L803.1725003604167,324.40864573763764L803.5079908854167,324.3869454314064L804.7581974625001,324.39815604979304L807.7745725979166,324.4072170602683L809.8395895958333,324.4101747858831L811.5656756541667,324.41332584511423L811.90460659375,324.41433625488855L812.0301650250001,324.41435904684624L812.4936523333333,324.4130469028729L812.7233584604168,324.41532348846863L813.8674132166667,324.4135650734764L815.4547804229168,324.4132804961466L817.06362516875,324.4156058116169L817.52377226875,324.40660687419245L817.87138775,324.4086371880586L817.9895643208334,324.41033359170183L821.1114232354166,324.41294941775135L821.8131342020833,324.414272371073L822.1465537979167,324.41270105725226L823.1640146583334,324.4153708002377L823.8508616979167,324.41309149766414L824.4202002083334,324.41559292577375L824.5319635791667,324.4159647809824L824.6446956104166,324.4155196877469L824.8816499895834,324.41579991421L825.9095657020835,324.4154314279742L826.2534735520834,324.4155149285375L826.48842380625,324.4184529340228L826.9492723500001,324.4172094193011L828.3250373583334,324.40826058564045L828.5494659562501,324.4100218141855L828.8830191604167,324.41138839205786L829.4497523083334,324.4132008210329L829.9108680687501,324.413939975537L831.73562388125,324.4162150405867L831.8491241604167,324.4150587047551L832.3113421895833,324.4132305874077L833.3292372770834,324.3909048285672L835.8836616000001,324.4000215605451" style="fill: none;" fill="none"></path></g></g></g></g><g opacity="0.2"><g><g><g><path stroke="rgb(255, 112, 67)" stroke-width="2px" d="M46.99559557916667,324.30464646524854L48.622277037500005,324.39582065873674L49.54073412291667,324.3734298179547L49.65837626041667,324.3960431518157L51.121354108333335,324.4043527831634L51.91689152708334,324.39278277562727L52.03483428333334,324.4148765012953L53.64304438958334,324.41164957811435L53.76068652708334,324.2315571528011L54.218128058333335,324.4076176555289L54.66802071875001,324.4030397640997L55.36408673333333,324.3901093874375L55.940974114583334,324.40806035250426L56.73280390208333,324.4092014242212L57.89649908333334,324.4085980324282L58.364061445833336,324.4120593949821L58.83172401458334,324.4121380563246L60.44454360833334,324.4020075530476L60.906594627083344,324.4080383840866L61.023602125000004,324.3094177116288L61.25324144791667,324.40156295365756L61.48618757708334,324.3972523188591L62.19204040208334,324.3116266205576L63.12115275208334,324.41795965075494L63.46963668750001,324.4126234331396L64.6065768,324.35652541544704L64.960505275,324.30789607961975L65.20484151458334,322.65709769354925L65.43043918541667,324.4032685614957L66.35407359375,324.38938084238106L66.9351696375,324.3970327458779L68.55714140208333,324.08584823820325L69.93811713541668,324.406698310607L70.16652058125,324.4092039043705L71.08858509166667,324.4157012548711L72.94246752083333,324.4049699487289L74.67282904583334,324.41352536141875L74.8029635625,324.4086225897736L76.30291751666668,324.41543556706773L76.41835511666666,324.4022925333182L77.78917661666668,324.40827576289576L78.15626551250001,324.4056307755576L79.09296013541667,324.40709227724204L79.44271335,324.41547740568717L80.01038175625,324.4082416088714L80.58192480416668,324.28854430158935L82.09630845833334,324.4083291441202L83.01556719375,324.3705459361606L83.25038383958334,324.41487076504364L83.36735793541666,324.40779968059724L83.70191320208333,324.4075588595536L86.34365057083333,324.4181354609463L86.45467909583334,324.4107373956508L89.25287182291667,324.41070486363435L89.94195680208334,324.4187656871809L90.05529007083334,324.40978997863004L90.16965880416667,324.41175583293045L91.57561929583333,324.38471787651383L92.49885287916668,324.3909356252352L92.94714223958334,324.4148490480251L93.18142445208333,324.4060372589694L93.746153475,324.41046239882706L94.31746270833334,324.41516125917434L94.56183235,324.41351400011115L95.82089047916668,324.41813534008134L96.52179979583335,324.4119269197186L96.63767162291667,324.40673428002333L98.2440112125,324.3715840115812L98.36359067083335,324.4156543906861L98.58063740833335,324.41421061747604L99.39230803333334,324.4139084647099L100.08216126041667,324.416478070981L101.12130007291667,324.3863861032327L101.59444058333334,324.3934088610278L101.93604368958333,324.40338576667835L102.16969126250001,324.40518462184406L102.62733320625001,324.41615383376677L102.74414029166667,324.41451874822377L103.32844293541667,324.4090639838245L103.44558404166668,324.4102455694808L104.13704056875001,324.4106407520175L106.7815837125,324.4174085016383L107.01740242083333,324.4114858471685L107.133708475,324.4093480165137L107.24998112708334,324.4168884172373L107.59559248333333,324.4179512603084L107.84123140416668,324.4139048508472L109.44944151041668,324.4081926851471L109.55549312500001,324.4178125290738L109.78082357916668,324.4101402912537L110.00655485833333,322.93750226762563L110.2174556125,324.41893983910484L110.67212477083334,324.4121740064025L110.90022759791668,324.4100109923217L111.6067150625,324.41563969108796L112.06719618333334,324.41990950978465L112.73941311041668,324.41513258033325L112.97082274375,324.4077733803789L113.41386797708333,324.417879807353L115.26658133333335,324.3969916227791L115.944643625,324.3972213532527L116.41066949166667,324.41336278352475L116.64301438333334,324.4065422932638L118.61079791666666,324.41178846889073L118.72690355833335,324.4149839816822L119.64188682708334,324.41061444454726L119.75314916666666,324.3133245413833L120.32469221458332,324.39372712267766L120.44236775416667,324.4134674090809L121.36436546041668,324.4148081279794L122.04216053541668,324.41504125234155L122.15783195,324.4169918389784L122.7320137625,324.40119768520196L123.77402515416668,324.39952559080393L124.83397346458334,324.41349415166513L125.76582478541667,324.41324386205935L125.88229785000001,324.4139899035295L127.73277326666668,324.4161443531182L127.96227898125001,324.4082572584682L132.49714622708333,324.4078217940529L132.72060616458333,324.4165955565704L132.94593661875,324.4048236078355L133.28556900208335,324.4190580909782L133.62967726458334,324.4139071351952L133.74838826875,324.41586595515406L135.15371412083334,324.41410673886537L137.4300661,324.2673193195131L138.69159598333334,324.4174046581321L138.80439481875,324.4140145527323L139.48072020208335,324.4110042026639L140.17217672916667,324.4194151188599L142.00982574583333,324.4147900949253L142.12436148958332,324.418209959699L142.35617194791666,324.41263751632636L143.73931881666667,324.416812509199L145.24588638333333,324.40866364035344L146.1616379,324.3887289257182L146.5081511125,324.40747504936326L148.12424411041667,324.41673614670833L148.6866349875,324.40911720067265L149.13088269583335,324.4122751510474L149.69888512291666,324.4155580758055L151.43248665000002,324.4125310439534L152.6934821,324.41894569863877L153.15810507916666,324.4195875399974L156.49664330833335,324.4124962517619L156.72508015625002,324.4130957009395L157.87548130833335,323.0652442847358L158.68003728958334,324.41465997411143L160.28313687708334,324.4193021342821L162.13721971875,324.413914365338L162.48306488958335,324.419757855667L163.88181053125,324.40679516937996L164.46060183125002,324.41528453903067L164.80975380833334,324.415330549909L165.04527189791668,324.41818940298424L166.29724878541666,324.41242155479057L167.12214663541667,324.4140837841895L167.57033578958334,324.4156481274631L167.78651407291667,324.4037743717432L168.8153316416667,324.41020704014437L172.42138715625,324.41645378437306L174.05808923958335,324.3960792227586L174.17075446666666,324.4180267525713L174.39879048958335,324.41154440866575L174.86638625416668,324.4161312295993L175.90973372916667,324.41123285018733L177.27968677500002,324.39994251694947L177.74821779791668,324.399438297285L177.97080928125,324.414764691525L178.31678806041668,324.4140214154456L178.54435645416666,324.41009803202417L178.77269309583335,324.4175948971841L179.9269354875,324.42016238106623L180.38975475416666,324.4158657666047L181.2094418791667,324.418244384461L181.438646975,324.4185091125965L182.0173046666667,324.41984632399345L182.8329167375,324.41742795364723L183.40185442291667,324.41878576768767L183.51889532291668,324.4096008467012L184.88420547916667,324.4189577827189L186.01593486666667,324.4150133905477L186.2431358375,324.41707841697666L186.35132518541667,324.3874166463481L187.16389766666668,324.415090613597L187.74071824375,324.4081871930427L188.20731194583337,324.41110199934906L188.31787284166668,324.4074841456612L189.69550836666667,324.41742966509526L190.6181407125,324.41931115564375L191.0682671875,324.4198276793625L191.63834054375002,323.96266772323185L191.86183388333333,324.4073819470737L194.01877341458336,324.35525083144506L194.24490551875,324.4014215851492L194.82366341666668,324.41890510492857L194.9410383375,324.4152092111442L195.15604754791667,324.41161461912924L195.4980514791667,324.40174343407153L195.95308806041666,324.3713415612777L196.63609386041668,324.4146704458528L197.10859973125,324.4106041806936L197.68441824583334,324.41581994427577L198.37898116666668,324.41789709829624L198.72526056458335,324.41376905663145L199.30224815208337,324.4205952154597L200.22948998541668,324.4005086339845L200.68669770208334,324.41338877674605L201.14744603958334,324.41491051028174L202.1755287625,324.41946040938296L202.99558331041666,324.3625481461154L203.31961692083334,324.4125748502546L203.44621081666668,324.41102870682874L204.46026466458335,324.4130310502648L205.59707116875,324.40829973525473L207.34613786041666,324.4134237139755L207.80050640000002,324.41970452278855L209.06774803958334,324.41211667531064L209.1873274979167,324.41676503101985L209.64984614583335,324.41655541972983L211.15130319375,324.3890151291423L215.32813350833337,324.41466632677447L217.75389300625,324.4089088802205L217.87313844375,324.4107945937912L219.01188226874999,324.41052202877074L219.93094059166668,324.416835214893L220.04838231666668,324.40373254279297L220.4024109979167,324.4071273643441L221.88472865208334,324.4128891523679L222.11132838541667,324.41167062070633L223.38728796875003,324.4132010758585L223.728089425,324.4110704004102L224.18402786250002,324.419730888274L225.10091505000003,324.4090029035012L225.90380092708332,324.41822824656964L226.00684635416667,324.41823180241715L226.35272492708336,324.4123935987221L226.70371401875,324.4156901691357L228.07824315000002,324.4042533161243L228.74818873541668,324.41285393473174L229.19480799166666,324.3968620506923L230.35773492500002,324.41934738129373L230.70575123125002,324.4130465741621L232.31008669583338,324.41562140663467L232.6472807270833,324.41940922790104L233.24380853333338,324.41890662540993L233.59917329791668,324.41557924651437L234.62802426875,324.4069520617856L235.90542014166667,324.4187370566858L236.4931632,324.41365816301766L236.72286932708334,324.417897516489L239.45075066875,324.40675665454734L240.3761553875,324.4160026413534L240.61107223958336,324.41939028835964L240.95768565833333,324.4133582341671L241.64102547916667,324.41944559858905L241.75850060625,324.40993899789123L242.56496050625,324.416803081731L243.4969788375,324.41540451685586L243.9507795416667,324.4180186352796L244.39733199375004,324.41392418682574L245.20599643125001,324.4163766410947L245.4356357541667,324.41920059561727L246.13337187291668,324.41844247248434L247.1737465625,324.418382965823L248.0834857041667,324.39877546409764L248.3163650291667,324.4132382418381L248.64180152708335,324.419617369473L248.98176793125003,324.34360276447404L249.097906975,324.41329921821756L249.90797430000003,324.412949891852L250.48202250416665,324.4165895544158L251.28644487708337,324.415656447808L252.31262368125002,324.41666138688726L252.76148087708333,324.4183558799823L254.38455491041668,324.41710151185595L255.42907145833337,324.4096439785759L256.70984094166664,324.40844300134313L257.86448415833337,324.4105009765095L258.09085007708336,324.4138306131628L258.90258750625003,324.0825196361542L259.4983136625,324.4147779359089L259.84065161458335,324.41899604615236L260.7719685020833,324.4120321858591L262.96628496458334,324.41809860679837L264.23416124375,324.4143524597751L266.18958600625,324.411542368465L266.6542757895833,324.4157736384869L267.69445006666666,324.41353653901155L268.26258610208333,324.41051907966533L268.379994425,324.41041860461235L268.49125676458334,324.4203768003649L270.9154463645833,324.41710827062525L272.18612841875006,324.4189367014501L272.5292012166667,324.41628135114905L273.21548042083333,324.41371004793376L273.33268833125,324.4138669717643L274.35963538333334,324.41874050858945L275.04821933125004,324.41475914624004L275.15874682500004,324.4162241385049L276.41272783750003,324.41375693629186L276.85707575208335,324.41228022012444L277.43827200208335,324.41634692764944L277.6653059625,324.41719250142575L278.70474539375,-403.87614366319445L279.1688673416667,323.70991817686297L279.28273504375,324.41717134522065L279.51210715,324.4183326980803L279.62821279166667,324.4141523315509L279.86189376666664,324.4067511503564L281.11393745833334,324.4049924827946L281.3480860625,324.4135880081521L282.2867514083334,324.41751493775183L282.40075271874997,324.42138988090886L282.74903624166666,324.4190160855651L286.73981695208334,324.4145046360294L289.1517479875,324.41552660498354L290.0623889854167,324.4149783179495L291.4483416291667,324.4143509876397L291.78386555625,324.4069460620483L292.81685838541665,324.41879110508495L293.9574727270833,324.4168858621518L296.2846626770833,324.4118274744352L296.62803609375004,324.4150109950039L296.9608544520833,324.41904111670124L297.6413550958334,324.3356182018916L298.2132655666667,324.41719148374267L298.3270330625,324.3855105912023L298.7865121208334,324.41741382211444L298.90064703958336,324.4141014909082L299.6784479520834,324.41067720731104L301.05194161875005,324.4065358970894L303.37732785625,324.37851034813457L304.52609230625,324.41323230978514L306.54918968958333,324.41057600465086L307.35220917500004,324.39604435563086L308.16017216875,324.41517125954226L309.087781425,324.4107277747989L309.3182223979167,324.4157040782769L309.7836804291667,324.42071288718114L310.4856920145833,324.42140807833937L310.9373549854167,324.40564011842014L312.21331456875004,324.4158692185084L312.5591597395834,324.41446934103965L313.1339093875,324.4116916995578L314.60129631041667,324.411041187346L317.3718321125,324.4152764024006L320.1135085145833,324.41923772292L320.22400260625,324.41094462348354L321.38128458750003,324.4022107222345L321.73992275625,324.4222673340307L322.3185470458333,324.3938213876883L323.23640289375004,324.40638380302323L324.3710048604167,324.117645550304L325.5275519958334,324.41602518267104L326.33257560625003,324.4073737451765L329.78361205208336,324.4197451261679L330.24472781250006,324.4146830109755L330.36200252708335,324.41844173037344L330.82224983333333,324.41634356035127L334.58796730625,323.3951958401998L335.05586368958336,324.39529343605045L335.17120108333336,324.41246949225666L335.7514286729167,324.4132316329413L338.64244578958335,324.4198825448089L339.57332845,324.41465005593165L339.90811753125,324.41184959272545L342.17922538333335,324.4172493321366L343.08475586250006,324.41408481879364L343.65005272083334,324.41795543981925L343.8816627666667,324.3205249706904L344.24106918333337,324.35336552156343L344.4740153125,324.4166765022609L344.5906887895834,324.41219726807543L345.84978032083336,324.41961770306034L345.96441627083334,324.4044866701298L346.07774953958335,324.418541547921L346.30404865416665,324.4103903802236L346.53599272083335,324.417159991165L347.1051976229167,324.4194711421927L347.3412835479167,324.40384565307033L348.24941938958335,324.4143622522553L351.34365478125005,324.412249213424L351.4596602166667,324.4178682719999L352.70412163541664,324.42045702086557L352.81912500833334,324.4184391946263L353.9656181166667,324.4171516466472L354.0821579854167,324.3236660676532L354.42940604375,324.39623459710015L355.22664696875,324.40112295680575L356.0271612979167,324.4197057459421L357.52497751875,324.413311894536L358.43488367083336,324.2859749636385L358.5466470416667,324.4128694513771L359.33854363333336,324.07067622237736L359.68786262083336,324.41308478924964L359.80243176666664,324.419307638473L359.9184038,324.41658284882703L360.27707537083336,324.4156619834238L362.42810273333333,324.3912203637759L363.32698619791665,324.4183545142081L363.44456153125003,324.412665344278L363.80573825833335,324.41891692552304L364.60996021875,324.2018720383114L364.9603480729167,324.4169776832726L365.18434244375,324.4173839998908L365.51812946250004,324.4073606095711L365.9794790375,324.4192868714531L366.9939671125,324.41961813575693L367.67443435416664,324.4115465648969L368.2508207041667,324.4158724939492L368.71370677500005,324.4106106469697L368.9447823875,324.4186829913656L370.09912498541667,324.4163681974676L370.21469619375,324.4168371245596L370.6639876166667,324.4176654557387L371.25724201875,324.4074295727081L371.37080910208334,324.4115773177809L371.4802343270834,324.4147064418594L371.82050135000003,324.41382041457626L372.8506216,324.4084254469143L372.96849755208336,324.40949982775584L373.0830666979167,324.2742118912273L373.65157015625,324.4167339469658L374.2327330041667,324.4175012727579L374.5783443604167,324.4111762321989L375.15443009166665,324.41725228849384L375.38113003125,324.411560029255L375.7240024166667,324.4185340131985L376.53670850625,324.4156468898058L379.3397111333333,324.42212428549925L381.0610874979167,324.4137454831269L382.44239725208337,324.4167783334189L383.59343304375,324.41697800960804L384.0479351916667,324.4181871283054L384.74253151458333,324.41726953592564L385.55206440625,324.4173934394452L385.66412839583336,324.41244696544277L386.6933133875,324.4165857157442L386.8089179979167,324.42002716941965L388.9804542395833,324.4119556372364L389.08944523750006,324.41651403556267L390.11559063958333,324.4111724225349L390.3490043979167,324.3997248584694L393.22368789583334,324.4076134687662L393.5653912083333,324.4143889271551L393.9099002958334,324.4114958789614L394.59056795000004,324.4156328259574L395.06648083333334,324.41844776395294L395.18171802083333,324.418294823832L397.1134941083333,324.40460578981373L397.4571347416667,324.4154535324375L398.2764210416667,324.41803880764377L398.62166497500004,324.41487888475257L398.85167172083334,324.40735126912597L399.55211340833335,324.41723830441634L401.05149952708337,324.4141556601723L402.18914108333337,324.41203725010155L402.53451862500003,324.4193902617693L402.87792544375003,324.4181769732303L403.7929087125,324.4169390113155L404.8384941270834,324.41688499917586L406.5514531666667,324.41771481215955L408.0516409354167,324.414104531871L410.23169470833335,324.42182899544633L410.5816483354167,324.39619756407205L412.20285185208337,324.4164450410008L412.3168531625,324.3515850451258L413.010480825,324.4169962167078L413.7128932354167,324.3911196590795L414.5081968395834,324.42068165083725L414.6391664083333,324.41954796155295L414.7553388541667,324.39749406331117L414.97312043750003,324.41543692317276L415.43256609375004,324.4189829685622L415.89591979375,324.2454536467128L416.36157823750005,324.41536423739456L416.4764480020834,324.41478245384167L416.58961426041674,324.4139461963376L417.1573828729167,324.42063979287946L417.38575291666666,324.41084631433085L418.54961510833334,324.41261650274197L420.7705196291667,324.41964553101195L424.0207761520834,324.4168450508846L424.60477817708335,324.41415501717063L425.65280194375,324.4140192447106L426.00425866458335,324.41843096130424L426.23169345,324.4181262316969L427.04981067708337,324.41096998578973L427.6384555916667,324.4129813239972L428.57782238125003,324.4186868711313L429.03399463333335,324.4104220758544L429.15120254375,324.41234350744224L429.50242545000003,324.41447390006647L429.73213157708335,324.42024445321823L430.53688797083333,324.4200158250332L431.90016060000005,324.4103274603354L432.12833023125006,324.41237226121956L434.65873845625,324.4157350463006L435.0053184729167,324.4090297742022L438.44937388333335,324.41854691190855L439.358311375,324.4109897327092L443.2590066666667,324.4187185667621L443.8111097020834,324.4142848503258L445.0762136083334,324.41268987019856L446.12133139375,324.3596203516589L446.9103220041667,324.416250581344L447.1379906041667,324.4195324739151L447.49566011250005,324.4129455141226L447.72403015625,324.41644248833256L448.29039588125005,324.41656185458106L448.4085724520834,324.4200541319781L449.32048272916666,324.41042683551706L449.43501847291674,324.4082612131702L450.58952808125,324.41808471941283L451.0597960125,324.4094460791018L452.20067757083336,324.4184751978848L452.6599228145833,324.4143208922611L453.1275853833333,324.4139221877191L454.03936205208333,324.41865244395206L454.61357726666665,324.41713116728596L456.33224806249996,324.4197316255503L456.44731823958335,324.4172670243515L457.13520074375,324.41540935628944L457.94376497499997,324.4099709497558L458.38557433125,324.4166568882929L459.5462967270833,324.4126601204938L459.66524154583334,324.4105754462547L459.7805121354167,324.4079887375898L459.89063880416666,324.4115421920022L462.00702820624997,324.3324153090848L462.2366341270834,324.3661608968841L462.5871889916667,324.4162571781543L463.0548515604167,324.416488516132L463.40370291875007,324.41065944741166L464.6513709375,324.4198292675283L466.06424566041665,324.4109050861332L467.1036850916667,324.4193016774125L467.2165841333333,324.4142500653863L467.7817473833333,324.4170940762427L468.12345069583336,324.4113326822387L468.81180082916666,324.3906927204794L469.26623617291676,324.4127856121792L469.7232434770833,324.41082987185985L470.6200560125,324.41322674999634L470.96262777916667,324.41100069274506L471.6569568854167,324.4165179153283L471.7746992291667,324.40847897075946L472.6977324,324.42096621291506L473.0443792208334,324.4193947434425L473.16472692708334,324.4168246754673L474.5546210166667,324.41690194444527L476.05110115416664,324.41592899349L476.16176225625,324.4205045062966L476.2767322270834,324.4162876941429L476.3957104479167,324.4055398560895L477.9851485833334,324.36927074783375L480.7519433520834,324.40043430202536L481.09020625000005,324.4148088773423L481.3329725916667,324.39954536431367L481.56641975208333,324.4109942844841L481.91406863541675,324.41792223095894L482.36362727500006,324.4179818028874L482.70756852708337,324.4197510074576L482.8192984958334,324.4135882740551L484.90388911458336,324.40766031119557L486.05342181250006,324.41677217413985L487.40804330208334,324.41699961784815L487.99234594583334,324.3787112015486L488.10567921458335,324.39247068776024L488.45012149791665,324.4026603931189L489.72227324375,324.4070482002033L489.83473805833336,324.41494318491885L491.19450346875,324.4134697466095L491.3098742645833,324.4097032773495L491.55464473125005,324.4118451110522L491.67024934166665,324.420162588954L492.01255389166664,324.41548495733076L492.12812510000003,324.41756980561547L492.24533301041674,324.41934609045586L493.0473504333334,324.4159762009316L493.2744511979167,324.4140165590909L495.25786690625006,324.40896097060704L495.48396560833334,324.4108962557382L495.5975326916667,324.4068047515551L496.05019772500003,324.4054313145081L496.3978466083334,324.41947215987574L498.3569121979167,324.41401895705195L499.037145625,324.41718783845505L500.18126718541674,324.414851815833L503.4044680208333,324.41771886113617L504.46568561041664,324.41812673207784L504.7101888604166,324.4156234879295L504.9485461270833,324.42082489517L505.53054402708335,324.3987556954225L505.8825017791667,324.4063353458378L506.92411234583335,324.41694105876815L507.26701813333335,324.41815434005525L507.60634989791663,324.4184871393442L510.7131444729167,324.4087043404248L511.42313915625004,324.41942855662774L511.7651430875,324.40142842610675L512.2206472979167,324.41669719192714L512.91921846875,324.413169955545L513.2688046729166,324.4044603239828L514.0475742458334,324.3758845082256L514.2828585208334,324.29250625544125L514.6316096729166,324.4217742460304L516.5900072208334,324.41213472770323L517.0379959625,324.42016255752907L517.9566868625001,324.4058133324319L518.06961930625,324.4169363933802L519.0951634708334,324.41286046869226L519.7960393854167,324.41733979473514L519.9082703854167,324.4165373117394L520.0237747895833,324.408885137505L520.3624385125,324.4158460075988L521.0578030833333,324.41816847642264L521.9779970770834,324.4145135026839L522.8981242666666,324.4134429556794L523.3616115750001,324.4103314102027L523.5905160520833,324.4177683770988L524.6238763041667,324.4166995463769L525.2003962625,324.4063766768243L525.89652908125,324.39403189579645L526.5842779770834,324.4000033845504L527.3975519020834,324.41705635186696L529.4513458,324.4146522363358L531.61509935625,324.413332888782L532.0781858395834,324.4215999224782L532.52296798125,324.41768389973373L534.4868434708334,324.41965404232343L535.20108021875,324.41002618746626L535.87667075625,324.41659413278103L536.2115600437501,323.76955454084606L538.2844599333334,324.4148399613963L538.7466445604167,324.4178319109811L539.5427498145834,324.41235075450606L539.8761694104168,324.4190786670314L541.1451813604167,324.4177877324157L542.3061709729167,324.4181619472967L542.4225772333333,324.41156058523393L542.7657836395834,324.41947329358925L545.4322051479166,324.4189866380228L547.1692804916668,324.41782910691364L547.28334860625,324.417850886782L548.7695075,324.4208445308937L549.4580580458334,324.4190285588304L549.6849583979167,324.419443507625L549.8008636270833,324.4194402636091L550.5005036645833,324.4154269203875L551.6579860583333,324.41313714312184L551.99985638125,324.422463693685L552.3567242395834,324.42067926737997L552.4728298812499,324.414662650062L552.9423629666667,324.42124618454113L554.1029517541667,324.4108362946245L555.5747477520833,324.3932505375809L555.6832043166668,324.4116229539779L557.6552633166666,324.41881118317445L558.91068061875,324.4194910003079L559.9209934333334,324.41976800107295L560.5032251479166,324.4217916336656L561.0827178916667,324.40301778117816L561.76255049375,324.14124781105255L562.7739989791667,324.3150672112571L563.6967315312501,324.41140810923446L564.7540410770833,324.4147254369987L566.02332024375,324.41510379754834L566.6055853604167,324.40290233578946L566.9492927979167,324.41287079539563L568.8135298729167,324.41930442346467L569.7376987145834,324.4028391282426L570.1922342645834,324.3942326090071L570.5467639770834,324.4153837788436L570.8931769833333,324.0281614552604L571.0106521104167,324.416647356881L571.9329838375,324.4134224086338L572.1649947083334,324.4179181384709L573.4059489083334,324.4168522399333L574.3455495125,324.4193577756816L575.6075804270833,324.4037785053253L576.0727044375001,324.41147108230325L576.9784353291667,324.4047895311647L579.6315628083333,324.41728697915875L580.3256581,324.41481137199537L580.8005021166666,324.42009850392736L582.4851361895834,324.41983091129197L583.1658372458334,324.4163608512944L583.51792860625,324.4110812540849L583.7665737145834,324.41788373546467L584.5782443395834,324.4205105761356L584.9252585833334,324.42002746191287L586.8040589666667,324.4110009199712L587.2925310333334,324.40251977880797L587.4075678083334,324.39607943064635L587.7475008104167,324.4162628298004L589.2697005520833,324.412999047637L589.5007093604167,324.4101796352201L589.735024975,324.4157256091634L590.2044912562501,324.32032211091786L590.6883872375,324.4195610874891L590.92276965625,324.41602502554656L591.8465042708334,324.4139615872834L592.98761964375,324.41714535199935L594.6288978125001,324.4161260783341L594.9624510166667,324.41719086733127L595.3112355708333,324.40694754143556L597.2383019645833,324.41007717556425L598.9736404,324.41401459866097L599.5506947916667,324.07943887498647L599.66616579375,324.41101806104183L600.1233401083334,324.41773533986674L600.58926576875,324.41821335358753L600.6986241895834,324.4164598566294L601.0357180145834,324.41465206229026L601.5984429125,324.4137946920925L601.714882575,324.4153389379382L602.8717303291667,324.40734786073364L603.78644638125,324.4178010420667L604.2435538916667,324.40602568010485L604.4697862020834,324.416888559858L605.16147654375,324.4195490928491L606.0852111583333,324.4151457304425L606.1962730854167,324.4158029772507L606.8750368208334,324.41860372569823L607.22853106875,324.41416074375314L608.8105873437501,324.420234950814L609.1480485916667,324.41877610574164L609.2629851604167,324.41512985603674L609.606325175,324.2808180419604L611.68370094375,324.4137249505851L612.145150725,324.41813588639104L612.9366130895834,324.4144701169928L613.6357854979167,324.405067535109L614.1147713729167,324.26168267991807L614.2284052604167,324.4135870678226L615.7020383729167,324.41704258051186L616.6166876208333,324.408418349723L617.3134550791667,324.41151219815015L617.6561604541666,324.4165329992771L617.991985,324.39790868335297L618.21915256875,324.409669679304L618.4527333375,324.42084009756644L620.2543081041667,324.41308600273396L620.4851499020833,324.38621613807146L620.7176284020834,324.18970076137117L620.8329991979167,324.4044685017069L620.9462656625,324.4089450212651L621.7522579333333,324.4178646702237L621.8569066604167,324.4146079949207L623.9146086020834,324.41121493558086L624.2602199583333,324.4128671646118L626.2086970875,324.418470752471L629.0923323437501,324.4112213196688L630.6207114708334,324.39931866513353L630.8462423375,324.416342032618L633.0143715666667,324.4128994138042L633.4894828,324.37030521664354L634.29804703125,324.42035843372344L634.7614007312501,324.4077917518549L635.337686875,324.41840066770715L638.6661710770834,324.418216771649L638.8931382333334,324.41338496224745L640.0290094791667,324.41541339317956L640.1439794500001,324.41807199716567L643.8034448958333,324.408640980588L646.5520021270834,324.41722674489023L647.9248277520833,324.41759504463937L648.1533982083334,324.4092382082674L648.703597325,324.41308880921866L649.853163425,324.4156025202738L650.2028498354167,324.41607072701055L650.3153814541668,324.4122314269344L651.2067494500001,324.4032468976577L651.4383928979167,324.41675242238574L652.0085330583333,324.4154983395007L652.7196968145834,324.4148404859503L655.121607225,324.4130741482973L656.2867052937501,324.4135628972451L656.7383348625,324.41457593427765L657.2008869125,324.41474071433146L657.9917146375001,324.4158738790618L658.4570056583333,324.41643816620115L658.5747146,324.39705955856374L658.7980075270834,324.4013997472657L658.90810079375,324.41136233525145L660.2866715770833,324.39701954742276L661.3077398625001,324.41637633893225L662.59068048125,324.40979142417507L663.8422565437501,324.4155405044556L664.0776076229167,324.41756155537234L664.6529585083333,324.4116066420409L664.8841343270834,324.4096461420589L665.4601532541667,324.41676976409224L666.1347751312501,324.4106303938892L666.9429385375,324.4210595907768L667.40518996875,324.42065991206306L669.8225321416667,324.41202618370454L671.5632149104167,324.4181400368942L671.6797213770834,324.4150112512377L672.156669725,324.4124307622843L672.6068296020834,324.414591927131L672.9547123,324.4115716999769L675.3688144708334,324.41572426031036L676.18285664375,324.34163167913755L676.4135982354167,324.40274360623624L676.64821446875,324.41189820220075L679.0575401416667,324.42016445269184L679.1633245395834,324.4174024559723L679.5066311520834,324.4203524146477L679.7370053208333,323.54666854434544L680.1999915979167,324.4167695852121L680.3138593000001,324.41290508237154L680.8815611083334,324.4028752136893L681.1146408458334,324.37544546862443L681.3461506854167,324.41323090533416L681.9037650645834,324.4139462833603L684.0661491354167,324.406641446054L684.7544324645834,324.41909440848565L684.9857084895834,324.4192536674274L685.3275788125,324.4213358905249L686.3687551520834,324.41397409922547L687.6268446208334,324.40999691155224L688.6372576416667,324.4068096852634L688.7514259625001,324.4206323427624L689.2170176020834,324.4196087397138L690.348513175,324.41570575104816L691.1425475000001,324.4045700379544L691.5820521125,324.4128028571937L692.3930880979167,324.4191775950127L693.5362744,324.41773632612495L693.76805145625,324.4229906891452L693.8778441041667,324.4150202556782L694.3371895541667,324.39899030884106L694.5588123770833,324.4194536409444L694.7903890208333,324.41632122692135L694.90308765,324.4196644874745L695.14518595,324.41217461797925L696.3958935583335,324.41957773301334L699.37960145625,324.41787867847415L700.3001294708334,324.4216176654564L700.6442377333334,324.4178854203224L700.8765826250001,324.413189569513L700.9903835229167,324.41694100075296L701.8002170333333,324.4183674491776L702.2665769208334,324.4155244076583L702.4831560291667,324.4155305693547L702.8231224333333,324.41069228642516L705.0054475479167,324.4189116316371L705.7848517604167,324.3996403931909L706.0126205666668,324.4085778383083L706.3591671812501,324.4161199601491L707.5022866791667,324.41303831183245L708.8924145833334,324.2963473056422L713.1753633166667,324.4177709708611L717.6705154854168,324.4181367880437L718.8208498333333,324.42059007386365L720.399966725,324.4139819554488L720.9780231791667,324.4080136962069L721.2146769395833,324.4140724567241L722.70781686875,324.41419942054483L724.5461673291667,324.4155292978552L724.8926471395833,324.41193228370616L725.7151734416667,324.4067617719703L726.05350314375,324.4205287252201L726.8421597333333,324.4107067829702L727.6345573562501,324.4162808386816L727.9909241833334,324.3968467878633L728.7908372750001,324.4137266837888L729.1390205916667,324.41717937790685L729.9398355395834,324.41775860637426L730.1686064083334,324.4216485222843L730.5065686875,324.4109274969167L730.62090401875,324.4182094448143L730.73473831875,324.41619966576496L730.8413577687501,324.4196998622351L731.6495879791668,324.4201860826876L732.4479311729167,324.4191360948152L733.4758134833334,324.41592790087066L733.9394344,324.4070453767975L734.4037567604166,324.41774313807485L736.6525520208334,324.4148461956117L738.0268139354166,324.41310245729153L739.2877091791668,324.41900956127375L741.2458395104168,324.4017895464765L742.37108889375,324.41620949692197L743.1686972416668,324.41329256097475L743.5057910666667,324.411722703841L744.63474808125,324.4191035676334L744.74477454375,324.4182394870122L744.9860043895834,324.4127555530601L745.6647347229167,324.41525090956026L746.4578671916667,324.4131946796841L749.43021838125,324.4174786951807L752.3135864208334,324.4148695443074L753.9443763354168,324.42009567568704L754.5237354708335,324.3866804384523L754.8690462083333,324.4185641037425L755.8040039229168,324.4096661331256L756.49275488125,324.413537099825L757.7391870229167,324.41614978962474L758.7490322083333,324.01240708298155L759.5625733500001,324.41864691317085L760.2493869875,324.4151903779639L760.7107699645833,324.4203332744704L760.9349647479168,324.4129306574L761.0418848166667,324.4140085723334L764.4803286770833,324.41709466606375L764.9366011354167,324.21747711817426L765.0526399729167,324.4174542296926L765.8533547145834,324.4108654762639L765.9655857145834,324.4137800069981L767.89081499375,324.41346504737936L768.5721840916667,324.41195460263225L768.8008547541667,324.4183772803346L768.9272482375001,324.4126003769371L770.1944898770834,324.4159654802084L770.5491531979167,324.4155914707979L772.1602692854168,324.3983445417881L772.6183120541667,324.40926700072157L772.8480515833334,324.41932823869917L774.2162677208333,324.41042295333415L775.131017175,324.4157291529245L775.7139837354167,324.41430034279824L775.9344708875001,324.4072646016876L776.1585988666667,324.41543455663657L779.1257727333334,324.42169232133364L781.0689723333334,324.4197289471825L782.43294640625,324.4139641326997L782.5493860687501,324.410251431432L783.32939151875,324.4101251952185L784.02342000625,324.34580994261637L785.0520371625,324.40775392111806L785.1694120833334,324.1382968298594L785.6371748583334,324.4170562455058L786.0921112333334,324.4148348028792L786.5510892604167,324.4163850871391L786.8932268,324.41950416250364L787.1155176645834,324.41904063807596L787.6967473166667,324.41319225755L788.62549224375,324.419512204859L790.6771484083333,324.41352805670766L791.8007276875001,324.4162461093399L792.0432268125,324.4141557713681L794.2444909083334,324.42114391585187L795.1840915125,324.40581283205086L795.2996961229167,324.417132757869L795.6371573708334,324.4139524353875L797.2094268354167,324.41746560792126L798.80975405,324.4131694334083L799.2690326958333,324.4061274846726L799.38423648125,324.4186376138197L799.49907284375,324.4184689467483L800.9862338,324.41448441773656L801.67595341875,324.41701548983656L802.25694925625,324.41404839009044L802.3684454104167,324.41463569233815L802.5989531875,324.37231015384197L802.9401888708334,324.410687159333L803.1725003604167,324.41707720832693L803.5079908854167,324.3543949720595L804.7581974625001,324.41497197737294L807.7745725979166,324.4208085759812L809.8395895958333,324.41461137430537L811.5656756541667,324.418052433961L811.90460659375,324.41585186955L812.0301650250001,324.4143932347828L812.4936523333333,324.4110786869129L812.7233584604168,324.41873836686216L813.8674132166667,324.410927450988L815.4547804229168,324.41285363015203L817.06362516875,324.41909378482234L817.52377226875,324.39310846805574L817.87138775,324.4116826588578L817.9895643208334,324.41287819716666L821.1114232354166,324.41687315682566L821.8131342020833,324.4162568010555L822.1465537979167,324.4103440865212L823.1640146583334,324.4193754147159L823.8508616979167,324.4096725438038L824.4202002083334,324.4193450679382L824.5319635791667,324.41652256379524L824.6446956104166,324.41485204789376L824.8816499895834,324.41622025390467L825.9095657020835,324.4148786986205L826.2534735520834,324.4156401793824L826.48842380625,324.4228599422508L826.9492723500001,324.4153441472186L828.3250373583334,324.3948373351494L828.5494659562501,324.412663657003L828.8830191604167,324.41343825886645L829.4497523083334,324.41591946449546L829.9108680687501,324.4150487072931L831.73562388125,324.4196276381612L831.8491241604167,324.4133242010077L832.3113421895833,324.4104884113868L833.3292372770834,324.35741619030637L835.8836616000001,324.413696658512" style="fill: none;" fill="none"></path></g></g></g></g></g></g><g transform="translate(72, 365)" clip-path="url(#clip_1)"><clipPath id="clip_1"><rect width="901" height="35"></rect></clipPath><g><g visibility="inherit"><g><g transform="translate(0,0)" style="visibility: inherit;"><text transform="translate(3,14)" style="text-anchor: start; font-family: Roboto, sans-serif; font-size: 12px; font-weight: 200;" fill="rgb(255, 255, 255)" stroke="none" stroke-width="1px">09:00 AM</text></g><g transform="translate(60.12375,0)" style="visibility: inherit;"><text transform="translate(3,14)" style="text-anchor: start; font-family: Roboto, sans-serif; font-size: 12px; font-weight: 200;" fill="rgb(255, 255, 255)" stroke="none" stroke-width="1px">09:30 AM</text></g><g transform="translate(120.2475,0)" style="visibility: inherit;"><text transform="translate(3,14)" style="text-anchor: start; font-family: Roboto, sans-serif; font-size: 12px; font-weight: 200;" fill="rgb(255, 255, 255)" stroke="none" stroke-width="1px">10:00 AM</text></g><g transform="translate(180.37125000000003,0)" style="visibility: inherit;"><text transform="translate(3,14)" style="text-anchor: start; font-family: Roboto, sans-serif; font-size: 12px; font-weight: 200;" fill="rgb(255, 255, 255)" stroke="none" stroke-width="1px">10:30 AM</text></g><g transform="translate(240.495,0)" style="visibility: inherit;"><text transform="translate(3,14)" style="text-anchor: start; font-family: Roboto, sans-serif; font-size: 12px; font-weight: 200;" fill="rgb(255, 255, 255)" stroke="none" stroke-width="1px">11:00 AM</text></g><g transform="translate(300.61875,0)" style="visibility: inherit;"><text transform="translate(3,14)" style="text-anchor: start; font-family: Roboto, sans-serif; font-size: 12px; font-weight: 200;" fill="rgb(255, 255, 255)" stroke="none" stroke-width="1px">11:30 AM</text></g><g transform="translate(360.74250000000006,0)" style="visibility: inherit;"><text transform="translate(3,14)" style="text-anchor: start; font-family: Roboto, sans-serif; font-size: 12px; font-weight: 200;" fill="rgb(255, 255, 255)" stroke="none" stroke-width="1px">12:00 PM</text></g><g transform="translate(420.86625000000004,0)" style="visibility: inherit;"><text transform="translate(3,14)" style="text-anchor: start; font-family: Roboto, sans-serif; font-size: 12px; font-weight: 200;" fill="rgb(255, 255, 255)" stroke="none" stroke-width="1px">12:30 PM</text></g><g transform="translate(480.99,0)" style="visibility: inherit;"><text transform="translate(3,14)" style="text-anchor: start; font-family: Roboto, sans-serif; font-size: 12px; font-weight: 200;" fill="rgb(255, 255, 255)" stroke="none" stroke-width="1px">01:00 PM</text></g><g transform="translate(541.11375,0)" style="visibility: inherit;"><text transform="translate(3,14)" style="text-anchor: start; font-family: Roboto, sans-serif; font-size: 12px; font-weight: 200;" fill="rgb(255, 255, 255)" stroke="none" stroke-width="1px">01:30 PM</text></g><g transform="translate(601.2375,0)" style="visibility: inherit;"><text transform="translate(3,14)" style="text-anchor: start; font-family: Roboto, sans-serif; font-size: 12px; font-weight: 200;" fill="rgb(255, 255, 255)" stroke="none" stroke-width="1px">02:00 PM</text></g><g transform="translate(661.36125,0)" style="visibility: inherit;"><text transform="translate(3,14)" style="text-anchor: start; font-family: Roboto, sans-serif; font-size: 12px; font-weight: 200;" fill="rgb(255, 255, 255)" stroke="none" stroke-width="1px">02:30 PM</text></g><g transform="translate(721.4850000000001,0)" style="visibility: inherit;"><text transform="translate(3,14)" style="text-anchor: start; font-family: Roboto, sans-serif; font-size: 12px; font-weight: 200;" fill="rgb(255, 255, 255)" stroke="none" stroke-width="1px">03:00 PM</text></g><g transform="translate(781.6087500000001,0)" style="visibility: inherit;"><text transform="translate(3,14)" style="text-anchor: start; font-family: Roboto, sans-serif; font-size: 12px; font-weight: 200;" fill="rgb(255, 255, 255)" stroke="none" stroke-width="1px">03:30 PM</text></g><g transform="translate(841.7325000000001,0)" style="visibility: inherit;"><text transform="translate(3,14)" style="text-anchor: start; font-family: Roboto, sans-serif; font-size: 12px; font-weight: 200;" fill="rgb(255, 255, 255)" stroke="none" stroke-width="1px">04:00 PM</text></g><g transform="translate(901.85625,0)" style="visibility: hidden;"><text transform="translate(3,14)" style="text-anchor: start; font-family: Roboto, sans-serif; font-size: 12px; font-weight: 200;" fill="rgb(255, 255, 255)" stroke="none" stroke-width="1px">04:30 PM</text></g></g><g><line x1="0" y1="0" x2="0" y2="17" fill="rgb(0, 0, 0)" stroke="rgb(204, 204, 204)" stroke-width="1px"></line><line x1="60.12375" y1="0" x2="60.12375" y2="17" fill="rgb(0, 0, 0)" stroke="rgb(204, 204, 204)" stroke-width="1px"></line><line x1="120.2475" y1="0" x2="120.2475" y2="17" fill="rgb(0, 0, 0)" stroke="rgb(204, 204, 204)" stroke-width="1px"></line><line x1="180.37125000000003" y1="0" x2="180.37125000000003" y2="17" fill="rgb(0, 0, 0)" stroke="rgb(204, 204, 204)" stroke-width="1px"></line><line x1="240.495" y1="0" x2="240.495" y2="17" fill="rgb(0, 0, 0)" stroke="rgb(204, 204, 204)" stroke-width="1px"></line><line x1="300.61875" y1="0" x2="300.61875" y2="17" fill="rgb(0, 0, 0)" stroke="rgb(204, 204, 204)" stroke-width="1px"></line><line x1="360.74250000000006" y1="0" x2="360.74250000000006" y2="17" fill="rgb(0, 0, 0)" stroke="rgb(204, 204, 204)" stroke-width="1px"></line><line x1="420.86625000000004" y1="0" x2="420.86625000000004" y2="17" fill="rgb(0, 0, 0)" stroke="rgb(204, 204, 204)" stroke-width="1px"></line><line x1="480.99" y1="0" x2="480.99" y2="17" fill="rgb(0, 0, 0)" stroke="rgb(204, 204, 204)" stroke-width="1px"></line><line x1="541.11375" y1="0" x2="541.11375" y2="17" fill="rgb(0, 0, 0)" stroke="rgb(204, 204, 204)" stroke-width="1px"></line><line x1="601.2375" y1="0" x2="601.2375" y2="17" fill="rgb(0, 0, 0)" stroke="rgb(204, 204, 204)" stroke-width="1px"></line><line x1="661.36125" y1="0" x2="661.36125" y2="17" fill="rgb(0, 0, 0)" stroke="rgb(204, 204, 204)" stroke-width="1px"></line><line x1="721.4850000000001" y1="0" x2="721.4850000000001" y2="17" fill="rgb(0, 0, 0)" stroke="rgb(204, 204, 204)" stroke-width="1px"></line><line x1="781.6087500000001" y1="0" x2="781.6087500000001" y2="17" fill="rgb(0, 0, 0)" stroke="rgb(204, 204, 204)" stroke-width="1px"></line><line x1="841.7325000000001" y1="0" x2="841.7325000000001" y2="17" fill="rgb(0, 0, 0)" stroke="rgb(204, 204, 204)" stroke-width="1px"></line><line x1="901.85625" y1="0" x2="901.85625" y2="17" fill="rgb(0, 0, 0)" stroke="rgb(204, 204, 204)" stroke-width="1px"></line></g><line x1="0" y1="0" x2="901.85625" y2="0" style="visibility: inherit;" fill="rgb(0, 0, 0)" stroke="rgb(204, 204, 204)" stroke-width="1px"></line></g><g visibility="inherit"><g><g transform="translate(450.928125,0)" style="visibility: inherit;"><text transform="translate(0,31)" style="text-anchor: middle; font-family: Roboto, sans-serif; font-size: 12px; font-weight: 200;" fill="rgb(255, 255, 255)" stroke="none" stroke-width="1px">November  9, 2024</text></g></g><g><line x1="0" y1="17" x2="0" y2="34" fill="rgb(0, 0, 0)" stroke="rgb(204, 204, 204)" stroke-width="1px"></line><line x1="901.85625" y1="17" x2="901.85625" y2="34" fill="rgb(0, 0, 0)" stroke="rgb(204, 204, 204)" stroke-width="1px"></line></g><line x1="0" y1="17" x2="901.85625" y2="17" style="visibility: inherit;" fill="rgb(0, 0, 0)" stroke="rgb(204, 204, 204)" stroke-width="1px"></line></g></g></g></g></g></svg>