<svg viewBox="0 0 581 400" xmlns="http://www.w3.org/2000/svg"><g><g><g><g><g><line x1="72.34375" y1="377" x2="67.34375" y2="377" style="visibility: inherit;" fill="rgb(0, 0, 0)" stroke="rgb(204, 204, 204)" stroke-width="1px"></line><line x1="72.34375" y1="335.1111111111111" x2="67.34375" y2="335.1111111111111" style="visibility: inherit;" fill="rgb(0, 0, 0)" stroke="rgb(204, 204, 204)" stroke-width="1px"></line><line x1="72.34375" y1="293.22222222222223" x2="67.34375" y2="293.22222222222223" style="visibility: inherit;" fill="rgb(0, 0, 0)" stroke="rgb(204, 204, 204)" stroke-width="1px"></line><line x1="72.34375" y1="251.33333333333337" x2="67.34375" y2="251.33333333333337" style="visibility: inherit;" fill="rgb(0, 0, 0)" stroke="rgb(204, 204, 204)" stroke-width="1px"></line><line x1="72.34375" y1="209.44444444444446" x2="67.34375" y2="209.44444444444446" style="visibility: inherit;" fill="rgb(0, 0, 0)" stroke="rgb(204, 204, 204)" stroke-width="1px"></line><line x1="72.34375" y1="167.55555555555554" x2="67.34375" y2="167.55555555555554" style="visibility: inherit;" fill="rgb(0, 0, 0)" stroke="rgb(204, 204, 204)" stroke-width="1px"></line><line x1="72.34375" y1="125.66666666666669" x2="67.34375" y2="125.66666666666669" style="visibility: inherit;" fill="rgb(0, 0, 0)" stroke="rgb(204, 204, 204)" stroke-width="1px"></line><line x1="72.34375" y1="83.77777777777777" x2="67.34375" y2="83.77777777777777" style="visibility: inherit;" fill="rgb(0, 0, 0)" stroke="rgb(204, 204, 204)" stroke-width="1px"></line><line x1="72.34375" y1="41.88888888888891" x2="67.34375" y2="41.88888888888891" style="visibility: inherit;" fill="rgb(0, 0, 0)" stroke="rgb(204, 204, 204)" stroke-width="1px"></line><line x1="72.34375" y1="0" x2="67.34375" y2="0" style="visibility: inherit;" fill="rgb(0, 0, 0)" stroke="rgb(204, 204, 204)" stroke-width="1px"></line></g><g transform="translate(62.34375, 0)"><text x="0" y="377" dx="0em" dy="0.3em" style="text-anchor: end; visibility: hidden; font-family: Roboto, sans-serif; font-size: 12px; font-weight: 200;" fill="rgb(255, 255, 255)" stroke="none" stroke-width="1px">-500</text><text x="0" y="335.1111111111111" dx="0em" dy="0.3em" style="text-anchor: end; visibility: inherit; font-family: Roboto, sans-serif; font-size: 12px; font-weight: 200;" fill="rgb(255, 255, 255)" stroke="none" stroke-width="1px">0</text><text x="0" y="293.22222222222223" dx="0em" dy="0.3em" style="text-anchor: end; visibility: inherit; font-family: Roboto, sans-serif; font-size: 12px; font-weight: 200;" fill="rgb(255, 255, 255)" stroke="none" stroke-width="1px">500</text><text x="0" y="251.33333333333337" dx="0em" dy="0.3em" style="text-anchor: end; visibility: inherit; font-family: Roboto, sans-serif; font-size: 12px; font-weight: 200;" fill="rgb(255, 255, 255)" stroke="none" stroke-width="1px">1e+3</text><text x="0" y="209.44444444444446" dx="0em" dy="0.3em" style="text-anchor: end; visibility: inherit; font-family: Roboto, sans-serif; font-size: 12px; font-weight: 200;" fill="rgb(255, 255, 255)" stroke="none" stroke-width="1px">1.5e+3</text><text x="0" y="167.55555555555554" dx="0em" dy="0.3em" style="text-anchor: end; visibility: inherit; font-family: Roboto, sans-serif; font-size: 12px; font-weight: 200;" fill="rgb(255, 255, 255)" stroke="none" stroke-width="1px">2e+3</text><text x="0" y="125.66666666666669" dx="0em" dy="0.3em" style="text-anchor: end; visibility: inherit; font-family: Roboto, sans-serif; font-size: 12px; font-weight: 200;" fill="rgb(255, 255, 255)" stroke="none" stroke-width="1px">2.5e+3</text><text x="0" y="83.77777777777777" dx="0em" dy="0.3em" style="text-anchor: end; visibility: inherit; font-family: Roboto, sans-serif; font-size: 12px; font-weight: 200;" fill="rgb(255, 255, 255)" stroke="none" stroke-width="1px">3e+3</text><text x="0" y="41.88888888888891" dx="0em" dy="0.3em" style="text-anchor: end; visibility: inherit; font-family: Roboto, sans-serif; font-size: 12px; font-weight: 200;" fill="rgb(255, 255, 255)" stroke="none" stroke-width="1px">3.5e+3</text><text x="0" y="0" dx="0em" dy="0.3em" style="text-anchor: end; visibility: hidden; font-family: Roboto, sans-serif; font-size: 12px; font-weight: 200;" fill="rgb(255, 255, 255)" stroke="none" stroke-width="1px">4e+3</text></g><line x1="72.34375" y1="0" x2="72.34375" y2="377" fill="rgb(0, 0, 0)" stroke="rgb(204, 204, 204)" stroke-width="1px"></line></g></g><g transform="translate(72, 0)" clip-path="url(#clip_0)"><clipPath id="clip_0"><rect width="425" height="377"></rect></clipPath><g><g><g><line x1="0" y1="0" x2="0" y2="377" fill="rgb(0, 0, 0)" stroke="rgb(189, 189, 189)" stroke-width="1px" opacity="0.25"></line><line x1="53.23203125" y1="0" x2="53.23203125" y2="377" fill="rgb(0, 0, 0)" stroke="rgb(189, 189, 189)" stroke-width="1px" opacity="0.25"></line><line x1="106.4640625" y1="0" x2="106.4640625" y2="377" fill="rgb(0, 0, 0)" stroke="rgb(189, 189, 189)" stroke-width="1px" opacity="0.25"></line><line x1="159.69609375" y1="0" x2="159.69609375" y2="377" fill="rgb(0, 0, 0)" stroke="rgb(189, 189, 189)" stroke-width="1px" opacity="0.25"></line><line x1="212.928125" y1="0" x2="212.928125" y2="377" fill="rgb(0, 0, 0)" stroke="rgb(189, 189, 189)" stroke-width="1px" opacity="0.25"></line><line x1="266.16015625" y1="0" x2="266.16015625" y2="377" fill="rgb(0, 0, 0)" stroke="rgb(189, 189, 189)" stroke-width="1px" opacity="0.25"></line><line x1="319.3921875" y1="0" x2="319.3921875" y2="377" fill="rgb(0, 0, 0)" stroke="rgb(189, 189, 189)" stroke-width="1px" opacity="0.25"></line><line x1="372.62421875" y1="0" x2="372.62421875" y2="377" fill="rgb(0, 0, 0)" stroke="rgb(189, 189, 189)" stroke-width="1px" opacity="0.25"></line><line x1="425.85625" y1="0" x2="425.85625" y2="377" fill="rgb(0, 0, 0)" stroke="rgb(189, 189, 189)" stroke-width="1px" opacity="0.25"></line></g><g><line x1="0" y1="377" x2="425.85625" y2="377" fill="rgb(0, 0, 0)" stroke="rgb(189, 189, 189)" stroke-width="1px" opacity="0.25"></line><line x1="0" y1="335.1111111111111" x2="425.85625" y2="335.1111111111111" fill="rgb(0, 0, 0)" stroke="rgb(189, 189, 189)" stroke-width="1px" opacity="0.25"></line><line x1="0" y1="293.22222222222223" x2="425.85625" y2="293.22222222222223" fill="rgb(0, 0, 0)" stroke="rgb(189, 189, 189)" stroke-width="1px" opacity="0.25"></line><line x1="0" y1="251.33333333333337" x2="425.85625" y2="251.33333333333337" fill="rgb(0, 0, 0)" stroke="rgb(189, 189, 189)" stroke-width="1px" opacity="0.25"></line><line x1="0" y1="209.44444444444446" x2="425.85625" y2="209.44444444444446" fill="rgb(0, 0, 0)" stroke="rgb(189, 189, 189)" stroke-width="1px" opacity="0.25"></line><line x1="0" y1="167.55555555555554" x2="425.85625" y2="167.55555555555554" fill="rgb(0, 0, 0)" stroke="rgb(189, 189, 189)" stroke-width="1px" opacity="0.25"></line><line x1="0" y1="125.66666666666669" x2="425.85625" y2="125.66666666666669" fill="rgb(0, 0, 0)" stroke="rgb(189, 189, 189)" stroke-width="1px" opacity="0.25"></line><line x1="0" y1="83.77777777777777" x2="425.85625" y2="83.77777777777777" fill="rgb(0, 0, 0)" stroke="rgb(189, 189, 189)" stroke-width="1px" opacity="0.25"></line><line x1="0" y1="41.88888888888891" x2="425.85625" y2="41.88888888888891" fill="rgb(0, 0, 0)" stroke="rgb(189, 189, 189)" stroke-width="1px" opacity="0.25"></line><line x1="0" y1="0" x2="425.85625" y2="0" fill="rgb(0, 0, 0)" stroke="rgb(189, 189, 189)" stroke-width="1px" opacity="0.25"></line></g></g></g><g><g><line x1="0" y1="335.1111111111111" x2="425.85625" y2="335.1111111111111" fill="rgb(0, 0, 0)" stroke="rgb(153, 153, 153)" stroke-width="1.5px"></line></g></g><g><g><line x1="53.23203125" y1="0" x2="53.23203125" y2="377" fill="rgb(0, 0, 0)" stroke="rgb(153, 153, 153)" stroke-width="1.5px"></line></g></g><g><g><g><g><g><path stroke="rgb(255, 112, 67)" stroke-width="2px" d="M53.444959374999996,334.966717033969L54.1902078125,335.0255743472311L54.6160640625,335.0317924135291L54.66929609374999,335.0452694951372L55.361312500000004,335.0558662476867L55.733936718749995,335.05665703413234L55.78716875,335.0664981368529L56.5324171875,335.0708674934827L56.58564921874999,334.9982788842414L56.79857734375,335.0283787643901L57.011505468749995,335.0444235410119L57.330897656249995,335.0486592231915L57.597057812500005,335.05862087646415L57.969682031249995,335.0650613393936L58.50200234375,335.0686729765413L58.71493046875,335.0722693395758L58.927858593749995,335.07445901244904L59.67310703125,335.071586729458L59.886035156249996,335.07235534018275L59.93926718749999,335.03206978850363L60.045731249999996,335.04597010518773L60.15219531249999,335.0525291348792L60.47158749999999,335.02108790216107L60.897443749999994,335.04615509386593L61.05713984375,335.05899066464L61.58946015625,335.04351500978106L61.74915624999999,335.01413836979276L61.855620312499994,334.31448350232364L61.962084374999996,334.61612281273665L62.38794062499999,334.79136860592143L62.65410078125,334.8996774466273L63.399349218750004,334.83609663913825L64.03813359375,334.93050759138725L64.14459765625,334.9881893476605L64.57045390625001,335.02548278522255L65.42216640625,335.0434252008208L66.220646875,335.05772532469587L66.27387890625,335.06427981549353L66.9658953125,335.07102729619834L67.01912734374999,335.0696457312086L67.65791171875,335.071288767616L67.8176078125,335.0711818111287L68.2434640625,335.0717214576585L68.40316015625,335.0755095671372L68.6693203125,335.0747929584132L68.93548046875,335.0249099686878L69.627496875,335.0444693645924L70.053353125,335.0405948438869L70.1598171875,335.0565829648764L70.21304921875,335.06325441408774L70.3727453125,335.06715778823536L71.59708203125,335.07386954283356L71.6503140625,335.0748400798485L72.2890984375,335.0754089614325L72.608490625,335.07908062515236L72.66172265624999,335.0775753032487L72.7149546875,335.07748430415717L73.3537390625,335.06625895448957L73.77959531249999,335.06209261183204L73.9925234375,335.0694726532422L74.09898749999999,335.07026008140446L74.36514765625,335.072560787865L74.6313078125,335.07588254911207L74.73777187499999,335.0771950396502L75.32332421875,335.07989184374696L75.64271640625,335.07894491307985L75.6959484375,335.0762314120329L76.44119687499999,335.06008095392235L76.49442890625001,335.06859838636836L76.60089296875,335.07311234994535L76.9735171875,335.0756958934693L77.292909375,335.0783076541745L77.77199765625001,335.06744219351157L77.98492578125,335.0638243743069L78.144621875,335.0657756481872L78.2510859375,335.0676896107591L78.4640140625,335.0733699257213L78.51724609375,335.0761025779866L78.78340625,335.0754885296981L78.83663828125,335.0756082736482L79.15603046875,335.07584338995395L80.3803671875,335.0787805601287L80.48683125,335.0780959134827L80.54006328125,335.07680187929583L80.5932953125,335.0791407805074L80.75299140624999,335.08098323557704L80.85945546875,335.0804169317784L81.60470390625,335.07771716432785L81.6579359375,335.08007174896477L81.7644,335.07831470943654L81.8708640625,334.4688390776015L81.977328125,334.7152106458404L82.19025625,334.86023827836857L82.2967203125,334.94636120713653L82.6161125,335.0003604651478L82.829040625,335.0345240984737L83.1484328125,335.0530486867945L83.254896875,335.0611229812853L83.467825,335.07014303520634L84.3195375,335.0669250997953L84.6389296875,335.0650892518512L84.8518578125,335.0706565860574L84.958321875,335.0711790963582L85.86326640624999,335.07366006359223L85.9164984375,335.07646887223115L86.3423546875,335.07634888015434L86.39558671875,335.03608149477924L86.66174687499999,335.04513944508614L86.71497890625,335.05872992811857L87.14083515624999,335.0674381368692L87.46022734374999,335.0727593776095L87.513459375,335.07675800825865L87.77961953124999,335.07263182119755L88.25870781249999,335.069465282015L88.73779609375,335.0733364789928L89.16365234375,335.0755557898575L89.21688437499999,335.0771956039207L90.068596875,335.0790696046818L90.17506093749999,335.0769354465817L91.61232578125001,335.07547503930016L91.71878984375,335.0782236809248L91.82525390625,335.0750092772168L91.98495,335.07896162145204L92.14464609375,335.07920490708335L92.197878125,335.0801601662698L92.8366625,335.0800065003671L93.901303125,335.01926897798074L94.48685546875,335.04483432499757L94.5400875,335.0587729088397L94.8594796875,335.06589233095235L95.178871875,335.0736389600072L96.030584375,335.0763761056337L96.08381640625,335.07943131248334L96.19028046874999,335.0789621777969L96.82906484374999,335.0804055981499L97.52108125,335.07790493961676L97.9469375,335.06816850349145L98.10663359374999,335.07007161564L98.85188203125,335.0750397116405L99.11804218750001,335.0748727964677L99.3309703125,335.07607735672434L99.59713046875,335.07815643549065L100.3956109375,335.0781532624674L100.98116328125,335.08080157763044L101.19409140625,335.0826557439251L102.73782031249999,335.0808384731104L102.844284375,335.07999577345987L103.37660468749999,334.5226244178791L103.74922890625,334.7457136208535L104.49447734375,334.88148505429217L105.34618984375,334.9607219539259L105.5058859375,335.01067833573796L106.1446703125,335.0352966221071L106.41083046875,335.0535749828145L106.57052656249999,335.0645610086648L106.676990625,335.07233376128113L107.26254296875,335.0746144224192L107.63516718749999,335.07666957031665L107.84809531249999,335.0785489685501L107.954559375,335.0747709571818L108.43364765624999,335.0751618117166L109.44505625,335.07797717109423L110.19030468749999,335.07124862263464L110.24353671875001,335.07627913053346L110.35000078124999,335.0766192504483L110.56292890625,335.0787183706076L111.0420171875,335.077954073894L111.6808015625,335.0728308869555L111.89372968749998,335.0695486560927L112.00019375000001,335.0739114278528L112.15988984375001,335.07622200588753L112.26635390624999,335.0759874041606L112.37281796875001,335.0789439781001L112.90513828125,335.0817786801882L113.11806640625,335.0817043522335L113.490690625,335.0826424830571L113.5971546875,335.0833147341618L113.86331484374999,335.0842705546292L114.2359390625,335.08384489554464L114.50209921874999,335.08415048189477L114.55533125000001,335.0805390773082L115.19411562500001,335.0822380590808L115.7264359375,335.08162781981724L115.83290000000001,335.08211484334265L115.88613203125,335.0701522766064L116.25875625,335.07440825508826L116.52491640625,335.07410968924705L116.73784453125,335.07513480396426L116.7910765625,335.0742551540654L117.4298609375,335.0778363622923L117.85571718749999,335.08076242633723L118.0686453125,335.08273146689237L118.33480546874999,334.89503694222685L118.44126953125,334.96615421360656L119.452678125,334.9872865703062L119.5591421875,335.0190414628426L119.82530234375,335.0453177265363L119.87853437499999,335.0595565237041L119.9849984375,335.06661469385176L120.14469453125,335.0667713090727L120.35762265625,335.05430472363724L120.67701484374999,335.0647261307155L120.88994296874999,335.06929899472686L121.15610312499999,335.07419760943003L121.4754953125,335.0779949558582L121.63519140625,335.07856786047387L121.9013515625,335.08173183543863L122.32720781249999,335.0753314355231L122.5401359375,335.0768126353777L122.7530640625,335.078330060543L123.23215234374999,335.08112030957227L123.6047765625,335.0592811184398L123.76447265625,335.0668461708403L123.8177046875,335.0707464120652L124.29679296875,335.07391382636223L124.82911328125,335.07385952890337L125.62759374999999,335.0759439257461L125.840521875,335.07978948431486L126.42607421875,335.07896189507346L126.47930625,335.08038581287366L126.69223437499998,335.0811535625057L127.38425078124999,335.0702359223655L128.66181953125,335.07428314815246L129.77969218750002,335.07433279063736L129.83292421875,335.0751416599816L130.36524453125,335.07551437116325L130.79110078124998,335.0783462950428L130.8443328125,335.07463207141797L131.00402890625,335.0738061100921L131.69604531250002,335.07569101996506L131.802509375,335.07631852869827L132.38806171875,335.07732734253256L132.5477578125,335.0770523408123L132.7606859375,335.0804654262729L133.18654218749998,335.0780810032925L133.55916640625,335.08046180631163L133.6123984375,335.081891757224L133.77209453125,335.080337669916L133.931790625,335.08076719785555L134.570575,335.0762997709641L134.8899671875,335.07717266629777L135.10289531249998,335.0710893456537L135.635215625,335.07672918300625L135.79491171875,335.07750990263565L136.54016015624998,335.0790421282129L136.69985625,335.0815264045099L136.96601640625,335.0828093197246L137.1257125,335.0822043599837L137.60480078125,335.07827705685946L138.190353125,335.08078965369987L138.45651328124998,335.0801988634064L138.56297734375002,335.0815958810207L139.84054609375,335.0778312368473L140.26640234374997,335.07939243612503L140.37286640624998,335.08172876437266L140.5325625,335.080638414L140.85195468749998,335.0824992025568L140.90518671874997,335.0796880171012L141.2778109375,335.0808372067677L141.7036671875,335.0809489025315L141.9165953125,335.082095944807L142.12952343749998,335.0810925459892L142.50214765625,335.0815037398595L142.60861171874998,335.0829171749269L142.92800390625,335.0834520168757L143.40709218749998,335.08374833682706L143.8329484375,335.0758252760303L143.9394125,335.0770467460817L144.09910859374997,335.08041516906417L144.2588046875,335.0510307367335L144.31203671875,335.06219521493654L144.68466093749998,335.0687495774312L144.95082109375,335.07418592400916L145.32344531249998,335.07706221832177L145.80253359374998,335.07920318617823L146.01546171875,335.081187847875L146.12192578125,335.08186040184245L146.60101406249998,335.07918284924034L147.18656640625,335.0770801331129L147.71888671874999,335.0766687572859L147.82535078125,335.07779757345355L148.19797499999999,334.94159350607777L148.46413515625,334.9971438097701L148.62383125,335.03221670712173L149.04968749999998,335.0503833218828L150.06109609375,335.06378963670556L150.6466484375,335.0702857023907L151.55159296875,335.0730223506523L151.76452109375,335.0764124917169L152.24360937499998,335.0775223171752L152.50976953125002,335.0769415470545L152.5630015625,335.07655157364513L152.61623359375,335.0804318249954L153.73410625,335.08140958050484L154.31965859375,335.0827516512582L154.4793546875,335.0824598339146L154.79874687499998,335.0812224078239L154.85197890625,335.0805447853575L155.3310671875,335.082151716955L155.650459375,335.0814709733319L155.70369140625,335.0816677897157L156.28924375,335.08076655326175L156.502171875,335.07961570509343L156.76833203125,335.08060535919174L156.87479609375,335.0815485010356L157.353884375,34.18722371867692L157.5668125,154.2533086450991L157.62004453125,226.58516173187942L157.72650859375,269.98475339767697L157.779740625,296.02278127586067L157.8862046875,311.64254019969104L158.47175703124998,321.0136689592816L158.57822109375,326.63989746222467L159.00407734375,330.01725697764437L159.057309375,332.0452736223155L159.21700546875,333.2611028739461L161.0801265625,333.9887365164587L162.19799921875,334.42573892913964L162.62385546875,334.6877138515846L163.26263984375,334.84463962310434L163.42233593749998,334.93573573593625L163.90142421875,334.99528719127903L164.43374453125,335.0302309120619L164.85960078124998,335.0491072681819L165.019296875,335.0617483555573L165.17899296875,335.0709980555222L165.49838515624998,335.0420816411085L165.7645453125,335.0584338497292L165.81777734375,335.0551561924493L166.03070546875,335.0663704397843L166.0839375,335.0717304962787L166.45656171874998,335.07353178506173L167.09534609374998,335.072901573177L168.15998671875,335.06094467129986L168.69230703125,335.0681159324117L169.65048359374998,335.0713212347932L170.0231078125,335.06724065547627L170.39573203125,335.0726946013378L170.82158828125,335.07413114008943L170.92805234374998,335.0770490265308L171.14098046875,335.08086915122516L171.46037265625,335.0834484447449L171.67330078125,335.0784814774161L172.258853125,335.0797274567266L172.41854921875,335.0798966839778L172.684709375,335.07885063584786L173.37672578125,335.07795424740397L174.65429453125,335.07916619633835L175.93186328125,335.08152998798477L175.9850953125,335.0795219632602L176.51741562499998,335.0747087311423L176.67711171874998,335.0801071947726L176.943271875,335.0715938107359L177.36912812499997,335.07167595081387L177.9014484375,334.9524328279838L178.43376874999998,335.0041627037678L178.80639296875,335.03162628191166L180.40335390624998,335.05321567332817L180.61628203125,335.0640778918191L180.6695140625,335.07214814040736L180.8824421875,335.0761234291786L182.63909921875,334.65662072244453L182.85202734375,334.8181101051281L182.90525937499999,334.92210003412424L183.17141953125,334.9848088704678L183.86343593750001,335.0251820010675L184.2892921875,335.0472440730638L184.44898828125,335.0593243029698L185.51362890624998,335.06880334694955L185.93948515625,335.07318335248226L186.2056453125,335.0774105055297L186.312109375,335.03969333230447L186.47180546875,335.030631124456L186.57826953125,335.05135077478576L186.63150156249998,335.06193196631193L187.21705390625,335.0713464390241L187.27028593749998,335.0707437260325L187.32351796875,335.07618888062353L187.42998203124998,335.07608831286103L187.53644609375002,335.0788248416007L187.80260625,335.08142161247457L187.90907031249998,335.07652399346557L188.3349265625,335.0779303622166L189.77219140625,335.0779011800268L189.82542343749998,335.0802051886122L190.41097578125,335.0826571371304L190.46420781249998,335.0832946399485L190.996528125,335.0831451903099L191.04976015625,335.0444318895342L191.20945625,335.0511856467142L191.58208046875,335.05725753018277L191.9547046875,335.06857815232354L192.64672109375002,335.07272890152024L193.07257734374997,335.0226100108209L193.125809375,335.0449652209245L193.49843359374998,334.9170009800465L193.65812968749998,334.9816887694494L193.71136171874997,335.02307241751L193.76459375,335.04677685763784L193.92428984375,335.0606190655424L194.93569843749998,335.0588263183869L195.3615546875,335.06896116292955L195.41478671874998,335.07269158520194L195.57448281249998,335.0775126836386L195.94710703125,334.9907330988883L196.106803125,335.0275363925864L196.21326718749998,335.04978623879435L196.37296328125,335.0589949759433L196.58589140625,335.06944756149784L197.0649796875,335.0758559749045L197.384371875,335.07636624791934L197.65053203125,335.0784596722791L197.86346015625,335.0775417912114L197.96992421874998,335.0803261571869L198.50224453125,335.0810404180878L198.5554765625,335.0816627121776L198.76840468749998,335.0823783142254L199.03456484375,335.0785787133692L199.087796875,335.07801259657316L199.14102890625,335.07896572625185L199.300725,335.0791715412802L199.77981328125,335.0770660957124L199.8330453125,335.0762467095523L199.88627734374998,335.0198607742165L200.1524375,335.0449122979613L200.41859765625,335.06026023338467L200.57829374999997,335.06685579979955L200.84445390625,335.07332346646837L200.95091796875,335.0748523056664L201.1106140625,335.0786509154281L201.48323828125,335.07973726427804L202.12202265625,335.0830652140553L202.92050312499998,335.0816002759826L203.55928749999998,335.0819743373144L204.0916078125,335.08228127046783L204.3045359375,335.0829649785778L204.623928125,335.08299609952365L204.99655234374998,335.0830659629151L205.049784375,335.0810642418279L205.52887265625,335.0815731366974L205.5821046875,335.08330031256224L206.59351328124998,335.0810018590312L206.6467453125,335.08150609230324L207.12583359375,335.0796017411854L207.23229765624998,335.07372956158025L208.5630984375,335.0734654385644L208.72279453124997,335.076106250029L208.882490625,335.076495472065L209.2018828125,335.07843818777155L209.4148109375,335.08076681075636L209.46804296874998,335.08210079723153L210.3729875,335.07724555533594L210.53268359375,335.07881416249353L210.9053078125,335.0808234350103L211.06500390624998,335.0807234742136L211.17146796875,335.07755345818344L211.49086015625,335.0797362839676L212.1828765625,335.0797723828572L212.715196875,335.0789188196193L212.87489296875,335.0814445834834L213.03458906249998,335.08245877081094L213.46044531249998,335.08255581839444L213.93953359375,335.0825917317921L214.73801406249999,335.0829561176332L215.43003046874998,335.0816831593639L216.4414390625,335.08411075181914L216.60113515625,335.0749776638643L217.34638359375,335.0778630700526L217.39961562499997,335.05279736204517L217.7190078125,335.06478260758195L218.0384,335.0612828373962L218.41102421875,335.0713965324275L218.46425625,335.076996364942L218.51748828125002,335.0712446812866L218.62395234375,335.0752067759348L218.83688046874997,335.0790490838052L219.04980859375002,335.0096607103497L219.26273671874998,335.03822636319364L219.31596875,335.05512539062664L219.36920078125002,335.06491930672587L219.63536093750002,335.0735611203813L219.741825,335.0747000262044L220.2741453125,335.07611472425276L220.64676953124996,335.0798675909259L222.13726640625,335.08096229064705L222.4034265625,335.08050772120833L222.88251484375002,335.0801788850602L223.04221093750002,335.08180428710375L223.148675,335.0826536290839L223.52129921875,335.08020662637387L223.78745937499997,335.0795694105059L224.21331562499998,335.0815443316915L224.42624375,335.0793146785733L224.47947578125,335.078770727479L224.639171875,335.0793245299943L224.74563593750003,335.0820409194906L225.11826015625,335.0835762952971L225.75704453125,335.08049476627025L225.86350859375,335.07949065974L227.03461328125,335.08027753278134L227.194309375,335.07797936884606L228.7912703125,335.0805324824468L229.2171265625,335.0789420968449L231.027015625,335.0811810385665L231.29317578124997,335.08069261061695L231.87872812499998,335.0797405867152L232.35781640625,335.05724366444053L232.730440625,335.067142329258L232.83690468749998,335.074437444312L232.99660078124998,335.0760931063946L233.10306484374996,335.07853128093416L233.369225,335.0800435019052L233.42245703125,335.0823936712864L233.84831328124997,335.0798262487882L233.9015453125,335.0773910669334L234.43386562499998,335.07998854615306L234.64679375,335.0779779735235L235.1791140625,335.0805020165553L235.39204218749998,335.0803000881605L235.6049703125,335.080014206069L236.0308265625,335.08179698541664L236.29698671875,335.08223813652864L237.0954671875,335.08357720830895L237.14869921875,335.08336239970373L237.46809140625,335.0824660177084L237.840715625,335.07968130712686L238.05364375000002,335.080772780864L238.5859640625,335.0797763977526L238.63919609374997,335.0783172832959L238.692428125,335.07637311416534L238.74566015625,335.0766747248113L239.06505234374998,335.0441643653251L239.17151640625002,335.03860016234603L239.33121250000002,335.05595895347795L239.54414062499998,335.066469805601L239.70383671875,335.07036803314054L240.2893890625,335.0764954871262L240.9281734375,335.0764849278617L241.40726171875,335.07994764974114L241.46049374999998,335.0799382059002L241.72665390625002,335.0811075446289L241.88634999999996,335.0794288239872L242.2057421875,335.06989417726436L242.4186703125,335.07330108256855L242.63159843749997,335.0745372102985L243.05745468749998,335.07626915878035L243.21715078124998,335.07638863079137L243.53654296875,335.0787397582872L243.58977499999997,335.07682913932996L244.01563124999998,335.080841880605L244.17532734374998,335.0826002716812L244.228559375,335.0825934809826L244.86734374999997,335.0826213302946L245.55936015625002,335.0822360645283L245.61259218749998,335.0838952813184L245.66582421875,335.08314863256294L245.71905624999997,335.0782601666564L246.46430468749998,335.0603424801947L247.74187343749998,335.0624671120769L247.90156953125,335.069680756844L248.00803359374999,335.067702812842L248.11449765624997,335.07124617565097L248.27419374999997,335.07623447916757L248.487121875,335.07925207346057L248.64681796875,335.0817935781164L248.70004999999998,335.08077234338356L249.6582265625,335.07771046062817L250.190546875,335.0796379033914L250.82933124999997,335.0808883375732L251.09549140624998,335.06581971266314L251.1487234375,335.0624632788698L251.30841953125,335.0646593023419L251.893971875,335.0677897419275L251.94720390624997,335.0729298240216L252.58598828125,335.07540512123137L252.63922031250002,335.0753341802027L252.745684375,335.0761765156467L252.79891640625,335.08011828860515L252.9586125,335.0805507856713L253.01184453125,335.0816716404077L253.06507656249997,335.08307802654804L253.43770078125,335.08252958606715L253.54416484375,335.0813908944099L254.449109375,335.07861895957075L254.5555734375,335.0777553630447L254.60880546875,335.0755467973734L254.82173359375,335.07365422151395L254.9814296875,335.078319660879L255.88637421875,335.07886593001626L256.20576640625,335.0805029170208L256.73808671875,335.0805199798772L257.58979921875,335.08171473932174L258.06888749999996,335.0826001071474L258.1753515625,335.0820971108083L258.28181562500004,335.08394427796895L258.54797578125,335.0759346732737L258.707671875,335.0742604482172L259.18676015625,335.0776376707447L259.34645624999996,335.08016527225595L259.50615234375,335.0818193294169L260.9434171875,335.07876999363936L261.262809375,335.0813711094424L261.42250546875,335.0754950126707L261.63543359375,335.07827765566435L261.95482578125,335.07848996133333L262.11452187500004,335.07501895448934L262.48714609374997,335.0611302325304L262.59361015625,335.0183492171088L262.75330625,335.0460877667074L263.65825078125,335.0587483228673L263.87117890625,335.0696613599543L264.29703515625,335.07028079002936L264.3502671875,335.0752479483237L264.82935546874995,335.07654427222377L265.14874765625,335.0791727031865L265.2019796875,335.0804182153648L265.25521171875,335.07800402164554L265.41490781249996,335.079431393661L265.7343,335.0812473464556L266.16015625,335.08082686322876L266.5860125,335.08013227606455L266.79894062499994,335.07842998662113L266.9054046875,335.08048120092195L267.38449296874995,335.08127034135765L267.65065312499996,335.077478924993L267.97004531249996,335.07010382043717L268.2894375,335.06814588237245L268.66206171874995,335.07401656466055L269.62023828125,335.0765457120551L270.631646875,335.0775181111463L270.844575,335.08151708123495L271.057503125,335.082298555809L271.96244765625,335.08358140631384L272.28183984375,335.0803733617881L272.60123203125,335.081162086178L272.76092812499996,334.8143104702262L273.7191046875,334.9207996141318L273.9320328125,334.98592922649533L274.30465703125,335.02274245036165L274.464353125,335.0476100263494L275.04990546874996,335.0619972214214L275.58222578125,335.07078414559896L275.63545781249996,335.0733289428478L275.79515390625,335.0781249620738L276.38070625,335.08080151152876L277.17918671875,335.0819292064312L277.23241875,335.08261482174015L277.92443515625,335.0842630170407L278.24382734375,335.0845016641193L278.35029140625,335.0848162887451L278.40352343750004,335.0850037232533L278.722915625,335.0834580684573L279.2552359375,335.081584652534L279.41493203125,335.08431387373327L279.574628125,335.0852141695027L279.62786015625,335.0832685773985L279.84078828124996,335.08482121391523L280.37310859375003,335.0814519426762L281.065125,335.07216481236514L281.11835703124996,335.07418311059683L282.02330156249997,335.0783639113518L282.60885390625,335.0811532587191L283.08794218749995,335.08294131019534L283.35410234375,335.0848502062727L283.6202625,335.07823911390517L283.93965468749997,334.9661220160328L284.41874296875,334.9706653615582L284.84459921875,335.0131946768597L285.3236875,335.04008282227863L285.90923984375,335.05637202945013L286.1754,335.0611045114702L286.33509609375,335.0680624765963L287.18680859374996,335.07489531351524L287.61266484375,335.072192367668L287.82559296875,335.06701481084264L287.9852890625,335.0726468970525L288.14498515625,334.9160449805692L288.19821718749995,334.98258704702005L288.6240734375,335.02117989731335L288.7305375,335.04619302135075L289.31608984375,335.06076051906234L289.74194609374996,335.0705361814998L290.32749843749997,335.06996499274385L290.5404265625,335.0728004729376L290.9662828125,335.0717412736246L292.19061953125,335.0762690832354L292.51001171875,335.0779629702067L292.72293984375,335.08116368456854L293.5214203125,335.08297355710505L293.84081249999997,335.0826258229622L294.00050859375,335.0802359132732L294.10697265625004,335.08161241730113L294.47959687499997,335.08352360074025L294.63929296875,335.0844707118317L294.85222109374996,335.0813096565009L295.06514921875,335.0759090340217L295.11838124999997,335.07000782628006L295.27807734375,335.07480588681983L295.97009375,335.0763362893074L296.0765578125,335.0760896886288L296.183021875,335.07823305115494L296.39594999999997,335.04010304802557L296.608878125,335.0582256972903L296.71534218749997,335.0676383604356L297.1411984375,335.07243344739106L297.67351874999997,335.0766258741374L298.4187671875,335.07872021657226L298.57846328125,335.08041674033666L298.738159375,335.0772026174855L299.64310390624996,335.07656715425867L300.441584375,335.07781262537185L300.70774453125,334.94032971864215L300.7609765625,334.99483214243213L300.9739046875,335.0303088450535L301.18683281250003,335.05179235832253L301.24006484374996,335.0639580078146L301.3997609375,335.0705105060405L301.66592109375,335.07408778189154L301.719153125,335.07687215363103L302.2514734375,335.07524125765434L302.6773296875,335.07858145909574L302.8902578125,335.0757205811008L302.996721875,335.0784920605142L303.3161140625,335.0812541491897L303.74197031250003,335.08109215020073L303.79520234374996,335.08126649277636L304.11459453125,335.08252822946116L304.274290625,335.08144965043823L305.01953906250003,335.0833120658321L305.17923515625,335.08382679222757L305.2324671875,335.08262917750193L305.39216328125,335.02641959068643L306.35033984374996,335.04760441892756L306.56326796875,335.0621376970216L306.9358921875,335.0693431487404L307.25528437500003,335.0697817366263L307.4682125,335.0108053382268L307.52144453125,335.03817890109406L308.2134609375,335.05603068624873L308.6393171875,335.0631786504841L308.958709375,335.0687456546221L309.11840546875,335.0741602045294L309.27810156249996,335.06971428559336L309.384565625,335.0719057977643L309.4910296875,335.077835771023L310.3427421875,335.0781901453872L310.44920625,335.0673014670164L310.55567031249996,334.97957779751056L310.60890234375,335.015675034828L310.662134375,335.03918285434L311.03475859375,335.0569727051238L311.08799062500003,335.06630111796204L312.0461671875,335.0704963208748L312.20586328125,335.07369606217816L313.11080781249996,335.07793103312235L313.80282421874995,335.0774769075612L314.494840625,335.0722868423508L314.6013046875,335.0762060191606L315.61271328125,335.07713520492564L315.82564140625,335.06009489465356L316.19826562500003,335.07055022940995L316.41119375,335.07163149704246L316.67735390625,335.0766633384727L318.22108281249996,335.07960646654846L318.327546875,335.07937607803024L318.8598671875,335.0800758925482L318.91309921874995,335.0815941853169L320.61652421875,335.07860873001937L321.89409296875,335.08036467124293L322.53287734375,335.0815703992708L322.63934140624997,335.07884120341646L322.9055015625,335.07879456432437L323.437821875,335.07980512231325L323.59751796874997,335.0806048970405L323.65075,335.0794985524208L324.07660625,335.0751227812245L324.1830703125,335.07807713529843L324.44923046875,335.0793316225399L324.76862265625,335.0798125222398L325.88649531249996,335.0793712984487L326.418815625,335.0793084911365L326.63174375,335.079689343693L326.84467187499996,335.07998593421905L327.21729609375,335.0806320563192L327.43022421874997,335.0812528651973L327.48345625,335.07361906550585L327.5899203125,335.0708319376259L327.64315234375,335.07327571094794L328.28193671875,335.06881624232585L328.761025,335.0741378328229L329.34657734375,335.07461022507897L329.93212968750004,335.07726889688814L330.03859375,335.07969909854427L330.30475390624997,335.0786969430163L330.41121796875,335.0772856677892L330.67737812499996,335.07938203197523L330.99677031249996,335.0781033654824L331.36939453124995,335.081644995424L331.58232265624997,335.0836048458547L332.0614109375,335.08121372532827L332.85989140625,335.0823049956453L332.91312343749996,335.08166709789856L333.1260515625,335.08021822847195L333.33897968749994,335.0802417935526L333.49867578125,335.07900812368365L334.61654843749994,335.0799835549083L334.98917265625,335.0499574129832L335.09563671875,335.0571901623664L335.20210078124995,335.06531203958934L336.3199734375,335.07360037297536L336.37320546875,335.07743225217047L336.5329015625,335.0809501571348L336.639365625,334.72209781068443L336.85229375,334.8662692438079L336.90552578125,334.95117548168645L337.17168593749994,334.99797537729773L337.27815,335.0147226967035L337.3846140625,335.040382167404L337.65077421875,335.0560734087458L338.6621828125,335.0624701550144L338.981575,335.0714531527337L339.0880390625,335.07690874930614L339.24773515625003,335.08104237914847L339.72682343749995,335.08048102793623L340.31237578124995,335.07850103939757L340.7914640625,335.0759962415501L340.84469609375,335.0802042032549L341.05762421875,335.0823060779772L341.58994453124996,335.0819546803701L341.96256875,335.07714311431386L342.17549687499996,335.07765756958776L342.54812109374996,335.08059997004835L343.08044140625003,335.0817699490965L343.18690546875,335.0846427802061L343.2401375,335.0830734888258L343.45306562499997,335.07550913048243L343.5595296875,335.0794249551509L343.66599375,335.08048029095283L343.71922578125,335.08249476282145L343.82568984374996,335.0806090012306L344.41124218749997,335.08253614632304L345.795275,335.0829904678319L346.22113125,335.08480782576993L346.38082734374996,335.08435626089926L346.48729140625,335.08214522799864L346.5405234375,335.0823685146445L346.91314765625003,335.0830918247757L347.12607578125,335.08235120630343L347.23253984375,335.0819093809292L347.3922359375,335.0796453457984L348.40364453125,335.0816827528239L348.77626875,335.0749432716757L348.8827328125,335.0745920945585L349.04242890625,335.07749742109263L349.57474921875,335.07796743190033L350.21353359374996,335.03003846925213L351.544334375,335.05144736211525L353.62038359375,335.0644438354527L354.15270390625,335.073255296172L354.89795234375,335.07581202395437L355.1641125,335.07488027023015L355.2705765625,335.0768243990532L355.96259296875,335.07804333153643L356.81430546875,335.0793241307481L356.9740015625,335.0786065014156L357.34662578125,335.0760397233511L357.506321875,335.08018748267693L357.87894609374996,335.0786181961045L358.2515703125,335.0799795490961L358.41126640625,335.07276716948445L358.783890625,335.07541368228067L358.94358671875,335.07842807289813L359.3162109375,335.0804760159067L359.42267499999997,335.0833119031343L359.58237109375,335.0805840364971L359.635603125,335.08195585827633L359.68883515625,335.0819486097531L359.74206718749997,335.0833903692082L360.11469140624996,335.0844563071942L360.487315625,335.0846620667771L360.96640390625,335.08346005500135L361.17933203125,335.07906902703115L361.39226015624996,335.08085419764797L362.45690078125,335.08072842625523L363.09568515625,335.0799325367382L363.6812375,335.08189552708427L364.58618203125,335.0759588603839L365.11850234375,335.0783544727668L365.49112656249997,335.07858670611216L365.65082265625,335.0780774585692L366.18314296874996,335.08082131897476L366.236375,335.0821106397176L366.3428390625,335.08061854109485L366.66223125,335.08075424016835L367.03485546875,335.07998612683076L368.41888828125,335.0812952027649L369.1109046875,335.08100267585496L369.856153125,335.08298633946805L370.12231328125,335.07037100948526L370.28200937500003,335.0759745696483L370.707865625,335.0756605030913L371.02725781249995,335.0770713557003L371.61281015624996,335.07899730184596L372.0918984375,334.9133462937476L372.46452265625,334.9817939529778L372.78391484375,335.02143447862767L372.99684296874995,335.0473435852318L373.10330703125,335.0598306528813L373.1565390625,335.06776823476406L374.7535,335.07380580563216L374.966428125,334.9949562215181L375.01966015625,335.0302671516442L375.392284375,335.04873156172783L375.44551640624996,335.0610143481471L376.35046093750003,335.0682538942165L376.669853125,335.07197358057635L376.7763171875,335.07685892608407L376.82954921875,335.0774034017932L377.41510156249996,335.07912038194013L377.57479765625,335.0799960477841L378.32004609375,335.07339586675715L378.53297421875,335.07394837953046L378.63943828125,335.0784366945562L379.27822265624997,335.07745045882353L379.70407890625,335.0790509773791L379.97023906249996,335.0794209746301L380.076703125,335.0767361517219L380.18316718750003,335.07850068045997L381.5672,335.0821447974735L382.47214453124997,335.0835200983064L383.11092890624997,335.08196354175396L383.1641609375,335.0794957027509L383.53678515625,335.0779628447709L383.85617734375,335.0504712393189L384.335265625,335.05956847319294L384.38849765624997,334.95370043170425L384.60142578125,335.00534925031644L384.81435390625,335.0354207509411L385.02728203124997,335.05410415231967L385.186978125,335.06660284126997L385.29344218750003,335.07391054920544L385.55960234375,335.0758789115466L385.98545859375,335.07967101951084L386.94363515624997,335.0794739293819L387.47595546875,335.0804786406112L387.58241953124997,335.080217842784L387.95504375,335.08294852076756L388.3809,335.0782528797846L388.43413203125,335.0801123302999L388.59382812499996,335.07991404819757L389.3390765625,335.08124654857477L390.084325,335.0802710813585L390.297253125,335.0767764150853L390.35048515625,335.0798481837471L390.4037171875,335.0816215600281L391.09573359375,335.08103937490637L391.41512578124997,335.08173577800505L391.6812859375,335.0809277605719L391.73451796874997,335.0806855944379L391.84098203124995,335.06305346953775L392.000678125,335.0683296807018L392.10714218749996,335.0741354605189L392.26683828125,335.05172171956224L392.852390625,335.0633009062246L394.2364234375,335.0726598129346L395.19460000000004,335.07571477884363L395.99308046875,335.07896943454267L396.1527765625,335.08001306326844L396.20600859374997,335.08003660455074L396.41893671875,335.07868132159746L396.52540078124997,335.0810327538429L397.05772109375,335.0792165279468L397.80296953124997,335.07892259465007L398.54821796875,335.0813243588482L398.76114609374997,335.0720295659467L398.9208421875,335.07412662985774L398.97407421875,335.0758788056756L400.4113390625,335.07858063148564L400.73073124999996,335.0799470791631L400.89042734375,335.0783241057099L401.369515625,335.0810816210675L401.6889078125,335.0787273825189L401.95506796875,335.08131104936086L402.00829999999996,335.0816951299462L402.06153203125,335.08123540350846L402.16799609375,335.0815248428964L402.647084375,335.0811442420446L402.80678046875,335.0812304878319L402.91324453125,335.0842650852784L403.12617265625,335.0829806878809L403.76495703125,335.07373764599026L403.87142109375,335.0755567779395L404.0311171875,335.0769682843995L404.29727734374995,335.07884030008057L404.51020546875,335.0796037555546L405.36191796875,335.0819536172635L405.41515,335.0807592649114L405.628078125,335.07887104507597L406.10716640625,335.0558112886845L406.63948671875,335.065227748837" style="fill: none;" fill="none"></path></g></g></g></g><g opacity="0.2"><g><g><g><path stroke="rgb(255, 112, 67)" stroke-width="2px" d="M53.444959374999996,334.966717033969L54.1902078125,335.06088873518837L54.6160640625,335.03776175717513L54.66929609374999,335.0611185431083L55.361312500000004,335.0697013678153L55.733936718749995,335.0577509764698L55.78716875,335.0805710712009L56.5324171875,335.0772380573948L56.58564921874999,334.89122478522194L56.79857734375,335.0730735784504L57.011505468749995,335.0683451810016L57.330897656249995,335.0549896960656L57.597057812500005,335.0735308298469L57.969682031249995,335.0747094162504L58.50200234375,335.074086186919L58.71493046875,335.07766134769383L58.927858593749995,335.07774259516265L59.67310703125,335.06727903424365L59.886035156249996,335.0735081391798L59.93926718749999,334.971645143244L60.045731249999996,335.0668198178874L60.15219531249999,335.0623674635887L60.47158749999999,334.9739266738362L60.897443749999994,335.0837555844784L61.05713984375,335.07824392957156L61.58946015625,335.02030159348914L61.74915624999999,334.9700734849771L61.855620312499994,333.265002275255L61.962084374999996,335.06858150050374L62.38794062499999,335.0542371988429L62.65410078125,335.0621406717698L63.399349218750004,334.74072544055514L64.03813359375,335.07212400849L64.14459765625,335.0747119779388L64.57045390625001,335.0814229399628L65.42216640625,335.0703388237556L66.220646875,335.0791755102873L66.27387890625,335.0741115516292L66.9658953125,335.0811485172179L67.01912734374999,335.0675733837287L67.65791171875,335.0737533222238L67.8176078125,335.0710213763979L68.2434640625,335.07253092745276L68.40316015625,335.0811917313536L68.6693203125,335.07371804532744L68.93548046875,334.9500854841073L69.627496875,335.07380845844744L70.053353125,335.03478306282886L70.1598171875,335.08056514636013L70.21304921875,335.07326158790454L70.3727453125,335.07301284945675L71.59708203125,335.08393717473086L71.6503140625,335.0762958853708L72.2890984375,335.07626228380866L72.608490625,335.08458812073206L72.66172265624999,335.0753173203932L72.7149546875,335.07734780551993L73.3537390625,335.04942092998823L73.77959531249999,335.0558430978457L73.9925234375,335.0805427153574L74.09898749999999,335.07144122364787L74.36514765625,335.0760118475556L74.6313078125,335.0808651909828L74.73777187499999,335.0791637754573L75.32332421875,335.08393704989226L75.64271640625,335.0775245170792L75.6959484375,335.07216116046243L76.44119687499999,335.03585526675647L76.49442890625001,335.0813745350374L76.60089296875,335.0798832953108L76.9735171875,335.07957120875517L77.292909375,335.0822252952324L77.77199765625001,335.05114400251705L77.98492578125,335.05839764549995L78.144621875,335.06870255900753L78.2510859375,335.070560554617L78.4640140625,335.0818903981646L78.51724609375,335.08020155638457L78.78340625,335.07456745726535L78.83663828125,335.0757878895733L79.15603046875,335.0761960644126L80.3803671875,335.0831863153908L80.48683125,335.0770689435138L80.54006328125,335.0748608280155L80.5932953125,335.0826491323246L80.75299140624999,335.0837469181816L80.85945546875,335.0795674760805L81.60470390625,335.073667513152L81.6579359375,335.0836036259201L81.7644,335.07567915014425L81.8708640625,333.55462562984894L81.977328125,335.0847679981987L82.19025625,335.07777972716093L82.2967203125,335.0755456002885L82.6161125,335.0813593521648L82.829040625,335.0857695484625L83.1484328125,335.08083556927573L83.254896875,335.07323442302146L83.467825,335.08367311608794L84.3195375,335.0620981966787L84.6389296875,335.062335479935L84.8518578125,335.0790075873666L84.958321875,335.0719628618095L85.86326640624999,335.0773815144433L85.9164984375,335.08068208518955L86.3423546875,335.0761688920392L86.39558671875,334.97568041671644L86.66174687499999,335.05872637054654L86.71497890625,335.07911565266716L87.14083515624999,335.0805004499952L87.46022734374999,335.0807412387199L87.513459375,335.0827559542325L87.77961953124999,335.06644254060586L88.25870781249999,335.0647154732413L88.73779609375,335.07914327445957L89.16365234375,335.0788847561545L89.21688437499999,335.0796553250154L90.068596875,335.08188060582347L90.17506093749999,335.0737342094315L91.61232578125001,335.0732844283779L91.71878984375,335.0823466433618L91.82525390625,335.07018767165476L91.98495,335.0848901378049L92.14464609375,335.0795698355304L92.197878125,335.08159305504955L92.8366625,335.079776001513L93.901303125,334.92816269440124L94.48685546875,335.0831823455228L94.5400875,335.07968078460294L94.8594796875,335.07657146412134L95.178871875,335.08525890358953L96.030584375,335.08048182407356L96.08381640625,335.08401412275765L96.19028046874999,335.07825847576726L96.82906484374999,335.0825707286795L97.52108125,335.0741539518171L97.9469375,335.0535638493035L98.10663359374999,335.0729262838629L98.85188203125,335.08249185564125L99.11804218750001,335.07462242370843L99.3309703125,335.07788419710926L99.59713046875,335.08127505364024L100.3956109375,335.07814850293266L100.98116328125,335.08477405037485L101.19409140625,335.0854369933672L102.73782031249999,335.07811256688836L102.844284375,335.0787317239841L103.37660468749999,333.68656738450795L103.74922890625,335.0803474253151L104.49447734375,335.0851422044502L105.34618984375,335.0795773033765L105.5058859375,335.085612908456L106.1446703125,335.07222405166095L106.41083046875,335.0809925238755L106.57052656249999,335.08104004744024L106.676990625,335.08399289020565L107.26254296875,335.0780354141262L107.63516718749999,335.0797522921628L107.84809531249999,335.0813680659003L107.954559375,335.0691039401293L108.43364765624999,335.07574809351894L109.44505625,335.08220021016064L110.19030468749999,335.0611557999452L110.24353671875001,335.0838248923818L110.35000078124999,335.0771294303205L110.56292890625,335.0818670508464L111.0420171875,335.07680762882364L111.6808015625,335.0651461065478L111.89372968749998,335.06462530979843L112.00019375000001,335.080455585493L112.15988984375001,335.07968787293964L112.26635390624999,335.07563550157016L112.37281796875001,335.0833788390093L112.90513828125,335.08603073332046L113.11806640625,335.0815928603013L113.490690625,335.08404967929255L113.5971546875,335.08432311081884L113.86331484374999,335.0857042853302L114.2359390625,335.08320640691784L114.50209921874999,335.0846088614199L114.55533125000001,335.07512197042837L115.19411562500001,335.0847865317398L115.7264359375,335.08071246092186L115.83290000000001,335.08284537863074L115.88613203125,335.05220842650203L116.25875625,335.0807922228111L116.52491640625,335.0736618404852L116.73784453125,335.07667247604L116.7910765625,335.07293567921715L117.4298609375,335.08320817463266L117.85571718749999,335.08515152240466L118.0686453125,335.08568502772516L118.33480546874999,334.6134951552285L118.44126953125,335.0728301206761L119.452678125,335.01898510535557L119.5591421875,335.06667380164726L119.82530234375,335.0847321220769L119.87853437499999,335.0809147194558L119.9849984375,335.0772019490732L120.14469453125,335.06700623190403L120.35762265625,335.0356048454841L120.67701484374999,335.0803582413329L120.88994296874999,335.0761582907438L121.15610312499999,335.08154553148484L121.4754953125,335.0836909755005L121.63519140625,335.07942721739744L121.9013515625,335.0864777978857L122.32720781249999,335.06573083564973L122.5401359375,335.0790344351596L122.7530640625,335.080606198291L123.23215234374999,335.08530568311613L123.6047765625,335.0265223317411L123.76447265625,335.078193749441L123.8177046875,335.07659677390257L124.29679296875,335.0786649478078L124.82911328125,335.07377808271514L125.62759374999999,335.0790705210103L125.840521875,335.08555782216786L126.42607421875,335.0777205112113L126.47930625,335.0825216895739L126.69223437499998,335.0823051869538L127.38425078124999,335.05385946215523L128.66181953125,335.08035398683285L129.77969218750002,335.07440725436476L129.83292421875,335.076354963998L130.36524453125,335.0760734379358L130.79110078124998,335.0825941808621L130.8443328125,335.06906073598066L131.00402890625,335.0725671681033L131.69604531250002,335.0785183847745L131.802509375,335.07725979179804L132.38806171875,335.078840563284L132.5477578125,335.0766398382319L132.7606859375,335.0855850544638L133.18654218749998,335.0745043688218L133.55916640625,335.0840330108404L133.6123984375,335.0840366835925L133.77209453125,335.078006538954L133.931790625,335.08141148976483L134.570575,335.069598630627L134.8899671875,335.0784820092982L135.10289531249998,335.06196436468764L135.635215625,335.08518893903494L135.79491171875,335.0786809820798L136.54016015624998,335.0813404665788L136.69985625,335.08525281895527L136.96601640625,335.0847336925467L137.1257125,335.0812969203724L137.60480078125,335.0723861021731L138.190353125,335.0845585489604L138.45651328124998,335.0793126779662L138.56297734375002,335.0836914074421L139.84054609375,335.07218427058723L140.26640234374997,335.08173423504167L140.37286640624998,335.08523325674406L140.5325625,335.0790028884411L140.85195468749998,335.085290385392L140.90518671874997,335.07547123891777L141.2778109375,335.08256099126737L141.7036671875,335.0811164461772L141.9165953125,335.0838165082203L142.12952343749998,335.0795874477625L142.50214765625,335.08212053066495L142.60861171874998,335.08503732752797L142.92800390625,335.0842542797989L143.40709218749998,335.0841928167542L143.8329484375,335.06394068483513L143.9394125,335.0788789511588L144.09910859374997,335.0854678035378L144.2588046875,335.00695408823753L144.31203671875,335.07894193224115L144.68466093749998,335.07858112117316L144.95082109375,335.08234044387603L145.32344531249998,335.0813766597907L145.80253359374998,335.082414637963L146.01546171875,335.0841648404201L146.12192578125,335.08286923279366L146.60101406249998,335.0751665203373L147.18656640625,335.07392605892153L147.71888671874999,335.0760516935454L147.82535078125,335.07949079770515L148.19797499999999,334.73728740501406L148.46413515625,335.08046926530864L148.62383125,335.0848260531492L149.04968749999998,335.07763324402436L150.06109609375,335.0838991089397L150.6466484375,335.08002980091834L151.55159296875,335.07712732304464L151.76452109375,335.08149770331386L152.24360937499998,335.0791870553626L152.50976953125002,335.07607039187354L152.5630015625,335.07596661353114L152.61623359375,335.0862522020208L153.73410625,335.0828762137691L154.31965859375,335.0847647573882L154.4793546875,335.0820221078992L154.79874687499998,335.07936626868775L154.85197890625,335.0795283516579L155.3310671875,335.0845621143513L155.650459375,335.08044985789724L155.70369140625,335.0819630142914L156.28924375,335.0794146985809L156.502171875,335.0778894328409L156.76833203125,335.0820898403393L156.87479609375,335.0829632138014L157.353884375,-417.1542634548611L157.5668125,334.3524360347324L157.62004453125,335.08294136204984L157.72650859375,335.0841408963733L157.779740625,335.07982309313616L157.8862046875,335.07217858543663L158.47175703124998,335.0703620986674L158.57822109375,335.0792402166393L159.00407734375,335.0832962507738L159.057309375,335.0872985893223L159.21700546875,335.08484675139186L161.0801265625,335.0801869802276L162.19799921875,335.0812425481611L162.62385546875,335.08067623525193L163.26263984375,335.080028280384L163.42233593749998,335.0723799051841L163.90142421875,335.0846143742932L164.43374453125,335.0826464932362L164.85960078124998,335.0774218023618L165.019296875,335.0807099866205L165.17899296875,335.0848726054695L165.49838515624998,334.998707019488L165.7645453125,335.08296216266024L165.81777734375,335.0502397065295L166.03070546875,335.08319181078673L166.0839375,335.0797705810202L166.45656171874998,335.0762337182363L167.09534609374998,335.07195625534985L168.15998671875,335.0430093184842L168.69230703125,335.07887282407944L169.65048359374998,335.0761291883654L170.0231078125,335.0611197865009L170.39573203125,335.08087552013L170.82158828125,335.07628594821693L170.92805234374998,335.0814258561929L171.14098046875,335.0865993382666L171.46037265625,335.0873173850245L171.67330078125,335.071031026423L172.258853125,335.0815964256922L172.41854921875,335.0801505248547L172.684709375,335.0772815636529L173.37672578125,335.07660966473816L174.65429453125,335.0809841197398L175.93186328125,335.0850756754544L175.9850953125,335.0765099261734L176.51741562499998,335.0674888829655L176.67711171874998,335.08820489021804L176.943271875,335.0588237346808L177.36912812499997,335.0717991609308L177.9014484375,334.77356814373866L178.43376874999998,335.08175751744375L178.80639296875,335.07282164912755L180.40335390624998,335.0855997604529L180.61628203125,335.0803712195555L180.6695140625,335.0842535132898L180.8824421875,335.0820863623354L182.63909921875,334.02736666234335L182.85202734375,335.06034417915345L182.90525937499999,335.07808492761853L183.17141953125,335.0788721249832L183.86343593750001,335.08574169696703L184.2892921875,335.08033718105816L184.44898828125,335.0774446478287L185.51362890624998,335.08302191291915L185.93948515625,335.0797533607814L186.2056453125,335.083751235101L186.312109375,334.98311757246654L186.47180546875,335.0170378126833L186.57826953125,335.0824302502804L186.63150156249998,335.0778037536012L187.21705390625,335.08546814809245L187.27028593749998,335.06983965654507L187.32351796875,335.0843566125102L187.42998203124998,335.0759374612173L187.53644609375002,335.0829296347101L187.80260625,335.08531676878533L187.90907031249998,335.0691775649521L188.3349265625,335.08003991534315L189.77219140625,335.077857406742L189.82542343749998,335.0836612014903L190.41097578125,335.0863350599077L190.46420781249998,335.0842508941757L190.996528125,335.08292101585204L191.04976015625,334.98636193837064L191.20945625,335.06131628248426L191.58208046875,335.0663653553857L191.9547046875,335.0855590855347L192.64672109375002,335.0789550253153L193.07257734374997,334.94743167477185L193.125809375,335.0784980360799L193.49843359374998,334.7250546187295L193.65812968749998,335.07872045355373L193.71136171874997,335.0851478896009L193.76459375,335.08233351782957L193.92428984375,335.08138237739934L194.93569843749998,335.05613719765347L195.3615546875,335.0841634297437L195.41478671874998,335.07828721861046L195.57448281249998,335.0847443312936L195.94710703125,334.8605637217628L196.106803125,335.08274133313364L196.21326718749998,335.08316100810634L196.37296328125,335.0728080816666L196.58589140625,335.08512643982965L197.0649796875,335.0854685950147L197.384371875,335.07713165744144L197.65053203125,335.0815998088188L197.86346015625,335.0761649696098L197.96992421874998,335.0845027061502L198.50224453125,335.0821118094391L198.5554765625,335.08259615331224L198.76840468749998,335.08345171729724L199.03456484375,335.0728793120848L199.087796875,335.07716342137917L199.14102890625,335.08039542076983L199.300725,335.07948026382263L199.77981328125,335.0739079273608L199.8330453125,335.0750176303122L199.88627734374998,334.93528187121285L200.1524375,335.08248958357836L200.41859765625,335.08328213651976L200.57829374999997,335.07674914942186L200.84445390625,335.0830249664717L200.95091796875,335.0771455644634L201.1106140625,335.0843488300708L201.48323828125,335.08136678755284L202.12202265625,335.0880571387211L202.92050312499998,335.07940286887356L203.55928749999998,335.0825354293121L204.0916078125,335.0827416701979L204.3045359375,335.08399054074283L204.623928125,335.0830427809424L204.99655234374998,335.0831707580023L205.049784375,335.0780616601971L205.52887265625,335.0823364790016L205.5821046875,335.0858910763595L206.59351328124998,335.0775541787346L206.6467453125,335.0822624422113L207.12583359375,335.07674521450866L207.23229765624998,335.0649212921726L208.5630984375,335.0730692540407L208.72279453124997,335.0800674672259L208.882490625,335.077079305119L209.2018828125,335.08135226133135L209.4148109375,335.08425974523357L209.46804296874998,335.0841017769443L210.3729875,335.06996269249254L210.53268359375,335.08116707322995L210.9053078125,335.0838373437855L211.06500390624998,335.0805735330184L211.17146796875,335.0727984341383L211.49086015625,335.0830105226437L212.1828765625,335.07982653119166L212.715196875,335.0776384747624L212.87489296875,335.08523322927954L213.03458906249998,335.08398005180226L213.46044531249998,335.08270138976974L213.93953359375,335.0826456018885L214.73801406249999,335.08350269639493L215.43003046874998,335.07977372195984L216.4414390625,335.0877521405021L216.60113515625,335.061278031932L217.34638359375,335.0821911793351L217.39961562499997,335.015198800034L217.7190078125,335.0827604758872L218.0384,335.0560331821177L218.41102421875,335.08656707497437L218.46425625,335.08539611371356L218.51748828125002,335.0626171558036L218.62395234375,335.0811499179072L218.83688046874997,335.0848125456108L219.04980859375002,334.9055781501664L219.26273671874998,335.0810748424596L219.31596875,335.08047393177617L219.36920078125002,335.0796101808747L219.63536093750002,335.0865238408645L219.741825,335.07640838493904L220.2741453125,335.07823677132524L220.64676953124996,335.08549689093564L222.13726640625,335.0826043402287L222.4034265625,335.0798258670502L222.88251484375002,335.07968563083807L223.04221093750002,335.08424239016904L223.148675,335.08392764205405L223.52129921875,335.0765361223088L223.78745937499997,335.07861358670397L224.21331562499998,335.0845067134698L224.42624375,335.0759701988962L224.47947578125,335.0779548008376L224.639171875,335.0801552337673L224.74563593750003,335.086115503735L225.11826015625,335.0858793590069L225.75704453125,335.07587247272994L225.86350859375,335.07798449994453L227.03461328125,335.08145784234335L227.194309375,335.07453212294314L228.7912703125,335.084362152848L229.2171265625,335.0765565184421L231.027015625,335.08453945114877L231.29317578124997,335.0799599686927L231.87872812499998,335.0783125508626L232.35781640625,335.02349828102854L232.730440625,335.08199032648406L232.83690468749998,335.0853801168932L232.99660078124998,335.07857659951844L233.10306484374996,335.0821885427435L233.369225,335.0823118333618L233.42245703125,335.0859189253582L233.84831328124997,335.07597511504093L233.9015453125,335.0737382941511L234.43386562499998,335.0838847649826L234.64679375,335.07496211457914L235.1791140625,335.0842880811029L235.39204218749998,335.07999719556835L235.6049703125,335.0795853829318L236.0308265625,335.0844711544381L236.29698671875,335.08289986319676L237.0954671875,335.08558581597936L237.14869921875,335.0830401867959L237.46809140625,335.0811214447154L237.840715625,335.0755042412546L238.05364375000002,335.08240999146966L238.5859640625,335.0782818230854L238.63919609374997,335.076128611611L238.692428125,335.07345686046943L238.74566015625,335.0771271407803L239.06505234374998,334.9953988260958L239.17151640625002,335.03025385787754L239.33121250000002,335.08199714017576L239.54414062499998,335.0822360837857L239.70383671875,335.0762153744499L240.2893890625,335.0856866681046L240.9281734375,335.076469088965L241.40726171875,335.08514173256026L241.46049374999998,335.0799240401387L241.72665390625002,335.0828615527219L241.88634999999996,335.0769107430246L242.2057421875,335.05559220718015L242.4186703125,335.0784114405248L242.63159843749997,335.0763914018936L243.05745468749998,335.07886708150306L243.21715078124998,335.0765678388079L243.53654296875,335.0822664495309L243.58977499999997,335.073963210894L244.01563124999998,335.08686099251776L244.17532734374998,335.08523785829544L244.228559375,335.0825832949347L244.86734374999997,335.0826631042626L245.55936015625002,335.0816581658787L245.61259218749998,335.0863841065036L245.66582421875,335.0820286594298L245.71905624999997,335.07092746779654L246.46430468749998,335.03346595050226L247.74187343749998,335.06565405990017L247.90156953125,335.08050122399464L248.00803359374999,335.064735896839L248.11449765624997,335.0765612198644L248.27419374999997,335.0837169344425L248.487121875,335.08377846490015L248.64681796875,335.0856058351L248.70004999999998,335.0792404912843L249.6582265625,335.07311763649517L250.190546875,335.0825290675362L250.82933124999997,335.0827639888459L251.09549140624998,335.0432167752981L251.1487234375,335.05742862817976L251.30841953125,335.0679533375502L251.893971875,335.07248540130587L251.94720390624997,335.08063994716275L252.58598828125,335.079118067046L252.63922031250002,335.0752277686596L252.745684375,335.0774400188128L252.79891640625,335.0860309480429L252.9586125,335.0811995312704L253.01184453125,335.08335292251246L253.06507656249997,335.0851876057585L253.43770078125,335.0817069253458L253.54416484375,335.079682856924L254.449109375,335.07446105731196L254.5555734375,335.0764599682556L254.60880546875,335.07223394886654L254.82173359375,335.0708153577248L254.9814296875,335.0853178199265L255.88637421875,335.0796853337222L256.20576640625,335.08295839752753L256.73808671875,335.08054557416176L257.58979921875,335.0835068784886L258.06888749999996,335.0839281588859L258.1753515625,335.08134261629976L258.28181562500004,335.0867150287099L258.54797578125,335.0639202662309L258.707671875,335.0717491106325L259.18676015625,335.08270350453586L259.34645624999996,335.0839566745228L259.50615234375,335.0843004151583L260.9434171875,335.074195989973L261.262809375,335.085272783147L261.42250546875,335.066680867513L261.63543359375,335.08245162015487L261.95482578125,335.0788084198369L262.11452187500004,335.0698124442233L262.48714609374997,335.04029714959194L262.59361015625,334.9541776939763L262.75330625,335.08769559110533L263.65825078125,335.07773915710715L263.87117890625,335.08603091558484L264.29703515625,335.07120993514195L264.3502671875,335.0826986857653L264.82935546874995,335.0784887580739L265.14874765625,335.08311534963053L265.2019796875,335.0822864836322L265.25521171875,335.0743827310668L265.41490781249996,335.0815724516842L265.7343,335.08397127564746L266.16015625,335.0801961383886L266.5860125,335.07909039531813L266.79894062499994,335.07587655245595L266.9054046875,335.08355802237327L267.38449296874995,335.0824540520112L267.65065312499996,335.07179180044596L267.97004531249996,335.05904116360347L268.2894375,335.06520897527537L268.66206171874995,335.08282258809277L269.62023828125,335.08033943314683L270.631646875,335.07897670978303L270.844575,335.0875155363679L271.057503125,335.0834707676702L271.96244765625,335.0855056820711L272.28183984375,335.0755612949994L272.60123203125,335.08234517276287L272.76092812499996,334.4140330462985L273.7191046875,335.08053332999015L273.9320328125,335.08362364504075L274.30465703125,335.07796228616104L274.464353125,335.08491139033106L275.04990546874996,335.0835780140294L275.58222578125,335.0839645318654L275.63545781249996,335.07714613872105L275.79515390625,335.0853189909127L276.38070625,335.0848163357112L277.17918671875,335.08362074878477L277.23241875,335.0836432447036L277.92443515625,335.0867353099916L278.24382734375,335.0848596347372L278.35029140625,335.0852882256839L278.40352343750004,335.0852848750154L278.722915625,335.08113958626325L279.2552359375,335.07877452864915L279.41493203125,335.0884077055322L279.574628125,335.08656461315684L279.62786015625,335.0803501892421L279.84078828124996,335.0871501686904L280.37310859375003,335.07639803581765L281.065125,335.05823411689863L281.11835703124996,335.0772105579443L282.02330156249997,335.0846351124843L282.60885390625,335.0853372797701L283.08794218749995,335.08562338740956L283.35410234375,335.08771355038886L283.6202625,335.06832247535385L283.93965468749997,334.7979463692241L284.41874296875,334.9774803798464L284.84459921875,335.076988649812L285.3236875,335.08041504040693L285.90923984375,335.08080584020746L286.1754,335.06820323450034L286.33509609375,335.0784994242853L287.18680859374996,335.0851445688936L287.61266484375,335.0681379488971L287.82559296875,335.0592484756046L287.9852890625,335.0810950263672L288.14498515625,334.6811421058443L288.19821718749995,335.0824001466963L288.6240734375,335.07906917275324L288.7305375,335.08371270740696L289.31608984375,335.08261176562974L289.74194609374996,335.08519967515605L290.32749843749997,335.06910820960996L290.5404265625,335.0770536932283L290.9662828125,335.07015247465506L292.19061953125,335.0830607976516L292.51001171875,335.0805038006637L292.72293984375,335.0859647561113L293.5214203125,335.0856883659098L293.84081249999997,335.08210422174795L294.00050859375,335.07665104873973L294.10697265625004,335.08367717334295L294.47959687499997,335.08639037589893L294.63929296875,335.08589137846894L294.85222109374996,335.07656807350446L295.06514921875,335.067808100303L295.11838124999997,335.06115601466763L295.27807734375,335.0820029776295L295.97009375,335.07863189303873L296.0765578125,335.0757197876109L296.183021875,335.08144809494416L296.39594999999997,334.9829080433316L296.608878125,335.0854096711874L296.71534218749997,335.08175735515357L297.1411984375,335.0796260778242L297.67351874999997,335.08291451425686L298.4187671875,335.08186173022455L298.57846328125,335.0829615259833L298.738159375,335.0723814332088L299.64310390624996,335.0756139594184L300.441584375,335.0796808320416L300.70774453125,334.73410535854765L300.7609765625,335.0765857781172L300.9739046875,335.0835238989857L301.18683281250003,335.08401762822604L301.24006484374996,335.0822064820528L301.3997609375,335.08033925337924L301.66592109375,335.0794536956681L301.719153125,335.08104871124027L302.2514734375,335.0727949136893L302.6773296875,335.08359176125794L302.8902578125,335.0714292641083L302.996721875,335.08264927963415L303.3161140625,335.085397282203L303.74197031250003,335.0808491517173L303.79520234374996,335.08152800663976L304.11459453125,335.08442083448836L304.274290625,335.0798317819039L305.01953906250003,335.08610568892294L305.17923515625,335.08459888182085L305.2324671875,335.0808327554133L305.39216328125,334.9421052104632L306.35033984374996,335.0793816612893L306.56326796875,335.0839376141628L306.9358921875,335.08015132631857L307.25528437500003,335.07043961845505L307.4682125,334.9223407406277L307.52144453125,335.07923924539483L308.2134609375,335.08280836398075L308.6393171875,335.0739005968372L308.958709375,335.07709616082906L309.11840546875,335.08228202939034L309.27810156249996,335.06304540718924L309.384565625,335.0751930660208L309.4910296875,335.0867307309111L310.3427421875,335.07872170693344L310.44920625,335.05096844946013L310.55567031249996,334.8479922932519L310.60890234375,335.0698208908041L310.662134375,335.07444458360806L311.03475859375,335.08365748129955L311.08799062500003,335.08029373721945L312.0461671875,335.0767891252438L312.20586328125,335.0784956741333L313.11080781249996,335.08428348953856L313.80282421874995,335.0767957192196L314.494840625,335.0645017445352L314.6013046875,335.0820847843753L315.61271328125,335.0785289835731L315.82564140625,335.0345344292455L316.19826562500003,335.0862332315445L316.41119375,335.07325339849126L316.67735390625,335.08421110061806L318.22108281249996,335.0840211586621L318.327546875,335.0790304952529L318.8598671875,335.08112561432523L318.91309921874995,335.08387162446974L320.61652421875,335.07413054707314L321.89409296875,335.0829985830784L322.53287734375,335.08337899131243L322.63934140624997,335.07474740963517L322.9055015625,335.0787246056861L323.437821875,335.08132095929653L323.59751796874997,335.08180455913146L323.65075,335.07783903549114L324.07660625,335.06855912443L324.1830703125,335.0825086664094L324.44923046875,335.08121335340206L324.76862265625,335.0805338717898L325.88649531249996,335.0787094627619L326.418815625,335.07921428016823L326.63174375,335.0802606225279L326.84467187499996,335.08043082000813L327.21729609375,335.0816012394693L327.43022421874997,335.08218407851456L327.48345625,335.0621683659686L327.5899203125,335.06665124580593L327.64315234375,335.07694137093097L328.28193671875,335.0621270393928L328.761025,335.0821202185684L329.34657734375,335.075318813463L329.93212968750004,335.08125690460207L330.03859375,335.08334440102846L330.30475390624997,335.07719370972444L330.41121796875,335.0751687549485L330.67737812499996,335.08252657825415L330.99677031249996,335.07618536574313L331.36939453124995,335.08695744033656L331.58232265624997,335.0865446215007L332.0614109375,335.07762704453864L332.85989140625,335.08394190112085L332.91312343749996,335.08071025127833L333.1260515625,335.07804492433206L333.33897968749994,335.08027714117367L333.49867578125,335.0771576188803L334.61654843749994,335.0814467017452L334.98917265625,335.0049182000955L335.09563671875,335.06803928644126L335.20210078124995,335.07749485542377L336.3199734375,335.0860328730543L336.37320546875,335.0831800709632L336.5329015625,335.08622701458137L336.639365625,334.18381929100883L336.85229375,335.082526393493L336.90552578125,335.07853483850425L337.17168593749994,335.0681752207147L337.27815,335.0398436758121L337.3846140625,335.0788713734547L337.65077421875,335.07961027075845L338.6621828125,335.0720652744174L338.981575,335.08492764931253L339.0880390625,335.0850921441648L339.24773515625003,335.08724282391205L339.72682343749995,335.0796390011178L340.31237578124995,335.07553105658957L340.7914640625,335.0722390447789L340.84469609375,335.08651614581214L341.05762421875,335.0854588900606L341.58994453124996,335.08142758395934L341.96256875,335.0699257652296L342.17549687499996,335.07842925249867L342.54812109374996,335.08501357073914L343.08044140625003,335.0835249176688L343.18690546875,335.0889520268705L343.2401375,335.0807195517553L343.45306562499997,335.06416259296736L343.5595296875,335.0852986921536L343.66599375,335.08206329465577L343.71922578125,335.0855164706243L343.82568984374996,335.07778035884434L344.41124218749997,335.08542686396174L345.795275,335.0836719500952L346.22113125,335.0875338626769L346.38082734374996,335.0836789135933L346.48729140625,335.07882867864765L346.5405234375,335.08270344461334L346.91314765625003,335.0841767899725L347.12607578125,335.08124027859503L347.23253984375,335.0812466428677L347.3922359375,335.0762492931022L348.40364453125,335.0847388633622L348.77626875,335.0648340499534L348.8827328125,335.0740653288828L349.04242890625,335.08185541089375L349.57474921875,335.0786724481119L350.21353359374996,334.9581450252798L351.544334375,335.08356070140997L353.62038359375,335.0839385454588L354.15270390625,335.086472487251L354.89795234375,335.07964711562795L355.1641125,335.0734826396439L355.2705765625,335.07974059228764L355.96259296875,335.0798717302614L356.81430546875,335.0812453295655L356.9740015625,335.07753005741705L357.34662578125,335.0721895562543L357.506321875,335.08640912166567L357.87894609374996,335.0762642662459L358.2515703125,335.08202157858346L358.41126640625,335.06194860006707L358.783890625,335.07938345147505L358.94358671875,335.08294965882436L359.3162109375,335.08354793041946L359.42267499999997,335.08756573397585L359.58237109375,335.0764922365414L359.635603125,335.0840135909452L359.68883515625,335.0819377369682L359.74206718749997,335.0855530083908L360.11469140624996,335.08605521417326L360.487315625,335.0849707061516L360.96640390625,335.0816570373376L361.17933203125,335.0724824850758L361.39226015624996,335.0835319535732L362.45690078125,335.0805397691661L363.09568515625,335.0787387024628L363.6812375,335.0848400126033L364.58618203125,335.0670538603332L365.11850234375,335.0819478913413L365.49112656249997,335.0789350561301L365.65082265625,335.07731358725493L366.18314296874996,335.08493710958294L366.236375,335.08404462083183L366.3428390625,335.0783803931607L366.66223125,335.0809577887787L367.03485546875,335.0788339568244L368.41888828125,335.0832588166661L369.1109046875,335.0805638854901L369.856153125,335.08596183488766L370.12231328125,335.05144801451104L370.28200937500003,335.0843799098929L370.707865625,335.07518940325576L371.02725781249995,335.0791876346138L371.61281015624996,335.08188622106445L372.0918984375,334.6648697816001L372.46452265625,335.084465441823L372.78391484375,335.08089526710245L372.99684296874995,335.0862072451379L373.10330703125,335.07856125435563L373.1565390625,335.0796746075882L374.7535,335.0828621619344L374.966428125,334.8766818453471L375.01966015625,335.0832335468332L375.392284375,335.07642817685337L375.44551640624996,335.0794385277761L376.35046093750003,335.07911321332057L376.669853125,335.07755311011607L376.7763171875,335.0841869443456L376.82954921875,335.078220115357L377.41510156249996,335.08169585216046L377.57479765625,335.08130954655013L378.32004609375,335.06349559521675L378.53297421875,335.0747771486905L378.63943828125,335.08516916709476L379.27822265624997,335.0759711052246L379.70407890625,335.0814517552124L379.97023906249996,335.07997597050667L380.076703125,335.0727089173595L380.18316718750003,335.08114747356706L381.5672,335.0876109729939L382.47214453124997,335.0855830495556L383.11092890624997,335.0796287069254L383.1641609375,335.07579394424624L383.53678515625,335.075663557801L383.85617734375,335.00923383114076L384.335265625,335.07321432400414L384.38849765624997,334.79489836947124L384.60142578125,335.0828224782348L384.81435390625,335.080528001878L385.02728203124997,335.0821292543875L385.186978125,335.0853508746955L385.29344218750003,335.08487211110855L385.55960234375,335.07883145505855L385.98545859375,335.0853591814571L386.94363515624997,335.07917829418847L387.47595546875,335.0819857074552L387.58241953124997,335.07982664604316L387.95504375,335.0870445377429L388.3809,335.07120941831005L388.43413203125,335.082901506073L388.59382812499996,335.0796166250441L389.3390765625,335.08324529914063L390.084325,335.07880788053404L390.297253125,335.07153441567556L390.35048515625,335.08445583673983L390.4037171875,335.0842816244496L391.09573359375,335.08016609722375L391.41512578124997,335.0827803826531L391.6812859375,335.07971573442217L391.73451796874997,335.08032234523694L391.84098203124995,335.03660528218745L392.000678125,335.07624399744805L392.10714218749996,335.08284413024455L392.26683828125,335.01810110812715L392.852390625,335.0806696862181L394.2364234375,335.0866981729997L395.19460000000004,335.0802972277072L395.99308046875,335.08385141809123L396.1527765625,335.0815785063571L396.20600859374997,335.08007191647425L396.41893671875,335.07664839716756L396.52540078124997,335.084559902211L397.05772109375,335.07649218910274L397.80296953124997,335.078481694705L398.54821796875,335.0849270051453L398.76114609374997,335.0580873765946L398.9208421875,335.0772722257243L398.97407421875,335.0785070694023L400.4113390625,335.08263337020077L400.73073124999996,335.08199675067925L400.89042734375,335.0758896455301L401.369515625,335.08521789410383L401.6889078125,335.075196024696L401.95506796875,335.0851865496238L402.00829999999996,335.08227125082414L402.06153203125,335.08054581385187L402.16799609375,335.08195900197825L402.647084375,335.08057334076693L402.80678046875,335.0813598565128L402.91324453125,335.0888169814481L403.12617265625,335.08105409178467L403.76495703125,335.05987308315434L403.87142109375,335.07828547586337L404.0311171875,335.0790855440895L404.29727734374995,335.08164832360217L404.51020546875,335.0807489387658L405.36191796875,335.08547840982675L405.41515,335.0789677363833L405.628078125,335.0760387153228L406.10716640625,335.02122165409725L406.63948671875,335.07935243906576" style="fill: none;" fill="none"></path></g></g></g></g></g></g><g transform="translate(72, 377)" clip-path="url(#clip_1)"><clipPath id="clip_1"><rect width="425" height="23"></rect></clipPath><g><g><line x1="0" y1="0" x2="0" y2="5" style="visibility: inherit;" fill="rgb(0, 0, 0)" stroke="rgb(204, 204, 204)" stroke-width="1px"></line><line x1="53.23203125" y1="0" x2="53.23203125" y2="5" style="visibility: inherit;" fill="rgb(0, 0, 0)" stroke="rgb(204, 204, 204)" stroke-width="1px"></line><line x1="106.4640625" y1="0" x2="106.4640625" y2="5" style="visibility: inherit;" fill="rgb(0, 0, 0)" stroke="rgb(204, 204, 204)" stroke-width="1px"></line><line x1="159.69609375" y1="0" x2="159.69609375" y2="5" style="visibility: inherit;" fill="rgb(0, 0, 0)" stroke="rgb(204, 204, 204)" stroke-width="1px"></line><line x1="212.928125" y1="0" x2="212.928125" y2="5" style="visibility: inherit;" fill="rgb(0, 0, 0)" stroke="rgb(204, 204, 204)" stroke-width="1px"></line><line x1="266.16015625" y1="0" x2="266.16015625" y2="5" style="visibility: inherit;" fill="rgb(0, 0, 0)" stroke="rgb(204, 204, 204)" stroke-width="1px"></line><line x1="319.3921875" y1="0" x2="319.3921875" y2="5" style="visibility: inherit;" fill="rgb(0, 0, 0)" stroke="rgb(204, 204, 204)" stroke-width="1px"></line><line x1="372.62421875" y1="0" x2="372.62421875" y2="5" style="visibility: inherit;" fill="rgb(0, 0, 0)" stroke="rgb(204, 204, 204)" stroke-width="1px"></line><line x1="425.85625" y1="0" x2="425.85625" y2="5" style="visibility: inherit;" fill="rgb(0, 0, 0)" stroke="rgb(204, 204, 204)" stroke-width="1px"></line></g><g transform="translate(0, 8)"><text x="0" y="0" dx="0em" dy="0.95em" style="text-anchor: middle; visibility: hidden; font-family: Roboto, sans-serif; font-size: 12px; font-weight: 200;" fill="rgb(255, 255, 255)" stroke="none" stroke-width="1px">-1k</text><text x="53.23203125" y="0" dx="0em" dy="0.95em" style="text-anchor: middle; visibility: inherit; font-family: Roboto, sans-serif; font-size: 12px; font-weight: 200;" fill="rgb(255, 255, 255)" stroke="none" stroke-width="1px">0</text><text x="106.4640625" y="0" dx="0em" dy="0.95em" style="text-anchor: middle; visibility: inherit; font-family: Roboto, sans-serif; font-size: 12px; font-weight: 200;" fill="rgb(255, 255, 255)" stroke="none" stroke-width="1px">1k</text><text x="159.69609375" y="0" dx="0em" dy="0.95em" style="text-anchor: middle; visibility: inherit; font-family: Roboto, sans-serif; font-size: 12px; font-weight: 200;" fill="rgb(255, 255, 255)" stroke="none" stroke-width="1px">2k</text><text x="212.928125" y="0" dx="0em" dy="0.95em" style="text-anchor: middle; visibility: inherit; font-family: Roboto, sans-serif; font-size: 12px; font-weight: 200;" fill="rgb(255, 255, 255)" stroke="none" stroke-width="1px">3k</text><text x="266.16015625" y="0" dx="0em" dy="0.95em" style="text-anchor: middle; visibility: inherit; font-family: Roboto, sans-serif; font-size: 12px; font-weight: 200;" fill="rgb(255, 255, 255)" stroke="none" stroke-width="1px">4k</text><text x="319.3921875" y="0" dx="0em" dy="0.95em" style="text-anchor: middle; visibility: inherit; font-family: Roboto, sans-serif; font-size: 12px; font-weight: 200;" fill="rgb(255, 255, 255)" stroke="none" stroke-width="1px">5k</text><text x="372.62421875" y="0" dx="0em" dy="0.95em" style="text-anchor: middle; visibility: inherit; font-family: Roboto, sans-serif; font-size: 12px; font-weight: 200;" fill="rgb(255, 255, 255)" stroke="none" stroke-width="1px">6k</text><text x="425.85625" y="0" dx="0em" dy="0.95em" style="text-anchor: middle; visibility: hidden; font-family: Roboto, sans-serif; font-size: 12px; font-weight: 200;" fill="rgb(255, 255, 255)" stroke="none" stroke-width="1px">7k</text></g><line x1="0" y1="0" x2="425.85625" y2="0" fill="rgb(0, 0, 0)" stroke="rgb(204, 204, 204)" stroke-width="1px"></line></g></g></g></g></svg>