<svg viewBox="0 0 498.20001220703125 400" xmlns="http://www.w3.org/2000/svg"><g><g><g><g><g><line x1="41.171875" y1="377" x2="36.171875" y2="377" style="visibility: inherit;" fill="rgb(0, 0, 0)" stroke="rgb(204, 204, 204)" stroke-width="1px"></line><line x1="41.171875" y1="329.875" x2="36.171875" y2="329.875" style="visibility: inherit;" fill="rgb(0, 0, 0)" stroke="rgb(204, 204, 204)" stroke-width="1px"></line><line x1="41.171875" y1="282.75" x2="36.171875" y2="282.75" style="visibility: inherit;" fill="rgb(0, 0, 0)" stroke="rgb(204, 204, 204)" stroke-width="1px"></line><line x1="41.171875" y1="235.625" x2="36.171875" y2="235.625" style="visibility: inherit;" fill="rgb(0, 0, 0)" stroke="rgb(204, 204, 204)" stroke-width="1px"></line><line x1="41.171875" y1="188.5" x2="36.171875" y2="188.5" style="visibility: inherit;" fill="rgb(0, 0, 0)" stroke="rgb(204, 204, 204)" stroke-width="1px"></line><line x1="41.171875" y1="141.375" x2="36.171875" y2="141.375" style="visibility: inherit;" fill="rgb(0, 0, 0)" stroke="rgb(204, 204, 204)" stroke-width="1px"></line><line x1="41.171875" y1="94.25000000000004" x2="36.171875" y2="94.25000000000004" style="visibility: inherit;" fill="rgb(0, 0, 0)" stroke="rgb(204, 204, 204)" stroke-width="1px"></line><line x1="41.171875" y1="47.125" x2="36.171875" y2="47.125" style="visibility: inherit;" fill="rgb(0, 0, 0)" stroke="rgb(204, 204, 204)" stroke-width="1px"></line><line x1="41.171875" y1="0" x2="36.171875" y2="0" style="visibility: inherit;" fill="rgb(0, 0, 0)" stroke="rgb(204, 204, 204)" stroke-width="1px"></line></g><g transform="translate(31.171875, 0)"><text x="0" y="377" dx="0em" dy="0.3em" style="text-anchor: end; visibility: hidden; font-family: Roboto, sans-serif; font-size: 12px; font-weight: 200;" fill="rgb(255, 255, 255)" stroke="none" stroke-width="1px">0.2</text><text x="0" y="329.875" dx="0em" dy="0.3em" style="text-anchor: end; visibility: inherit; font-family: Roboto, sans-serif; font-size: 12px; font-weight: 200;" fill="rgb(255, 255, 255)" stroke="none" stroke-width="1px">0.4</text><text x="0" y="282.75" dx="0em" dy="0.3em" style="text-anchor: end; visibility: inherit; font-family: Roboto, sans-serif; font-size: 12px; font-weight: 200;" fill="rgb(255, 255, 255)" stroke="none" stroke-width="1px">0.6</text><text x="0" y="235.625" dx="0em" dy="0.3em" style="text-anchor: end; visibility: inherit; font-family: Roboto, sans-serif; font-size: 12px; font-weight: 200;" fill="rgb(255, 255, 255)" stroke="none" stroke-width="1px">0.8</text><text x="0" y="188.5" dx="0em" dy="0.3em" style="text-anchor: end; visibility: inherit; font-family: Roboto, sans-serif; font-size: 12px; font-weight: 200;" fill="rgb(255, 255, 255)" stroke="none" stroke-width="1px">1</text><text x="0" y="141.375" dx="0em" dy="0.3em" style="text-anchor: end; visibility: inherit; font-family: Roboto, sans-serif; font-size: 12px; font-weight: 200;" fill="rgb(255, 255, 255)" stroke="none" stroke-width="1px">1.2</text><text x="0" y="94.25000000000004" dx="0em" dy="0.3em" style="text-anchor: end; visibility: inherit; font-family: Roboto, sans-serif; font-size: 12px; font-weight: 200;" fill="rgb(255, 255, 255)" stroke="none" stroke-width="1px">1.4</text><text x="0" y="47.125" dx="0em" dy="0.3em" style="text-anchor: end; visibility: inherit; font-family: Roboto, sans-serif; font-size: 12px; font-weight: 200;" fill="rgb(255, 255, 255)" stroke="none" stroke-width="1px">1.6</text><text x="0" y="0" dx="0em" dy="0.3em" style="text-anchor: end; visibility: hidden; font-family: Roboto, sans-serif; font-size: 12px; font-weight: 200;" fill="rgb(255, 255, 255)" stroke="none" stroke-width="1px">1.8</text></g><line x1="41.171875" y1="0" x2="41.171875" y2="377" fill="rgb(0, 0, 0)" stroke="rgb(204, 204, 204)" stroke-width="1px"></line></g></g><g transform="translate(41, 0)" clip-path="url(#clip_0)"><clipPath id="clip_0"><rect width="933" height="377"></rect></clipPath><g><g><g><line x1="0" y1="0" x2="0" y2="377" fill="rgb(0, 0, 0)" stroke="rgb(189, 189, 189)" stroke-width="1px" opacity="0.25"></line><line x1="116.628515625" y1="0" x2="116.628515625" y2="377" fill="rgb(0, 0, 0)" stroke="rgb(189, 189, 189)" stroke-width="1px" opacity="0.25"></line><line x1="233.25703125" y1="0" x2="233.25703125" y2="377" fill="rgb(0, 0, 0)" stroke="rgb(189, 189, 189)" stroke-width="1px" opacity="0.25"></line><line x1="349.88554687500005" y1="0" x2="349.88554687500005" y2="377" fill="rgb(0, 0, 0)" stroke="rgb(189, 189, 189)" stroke-width="1px" opacity="0.25"></line><line x1="466.5140625" y1="0" x2="466.5140625" y2="377" fill="rgb(0, 0, 0)" stroke="rgb(189, 189, 189)" stroke-width="1px" opacity="0.25"></line><line x1="583.142578125" y1="0" x2="583.142578125" y2="377" fill="rgb(0, 0, 0)" stroke="rgb(189, 189, 189)" stroke-width="1px" opacity="0.25"></line><line x1="699.7710937500001" y1="0" x2="699.7710937500001" y2="377" fill="rgb(0, 0, 0)" stroke="rgb(189, 189, 189)" stroke-width="1px" opacity="0.25"></line><line x1="816.3996093750001" y1="0" x2="816.3996093750001" y2="377" fill="rgb(0, 0, 0)" stroke="rgb(189, 189, 189)" stroke-width="1px" opacity="0.25"></line><line x1="933.028125" y1="0" x2="933.028125" y2="377" fill="rgb(0, 0, 0)" stroke="rgb(189, 189, 189)" stroke-width="1px" opacity="0.25"></line></g><g><line x1="0" y1="377" x2="933.028125" y2="377" fill="rgb(0, 0, 0)" stroke="rgb(189, 189, 189)" stroke-width="1px" opacity="0.25"></line><line x1="0" y1="329.875" x2="933.028125" y2="329.875" fill="rgb(0, 0, 0)" stroke="rgb(189, 189, 189)" stroke-width="1px" opacity="0.25"></line><line x1="0" y1="282.75" x2="933.028125" y2="282.75" fill="rgb(0, 0, 0)" stroke="rgb(189, 189, 189)" stroke-width="1px" opacity="0.25"></line><line x1="0" y1="235.625" x2="933.028125" y2="235.625" fill="rgb(0, 0, 0)" stroke="rgb(189, 189, 189)" stroke-width="1px" opacity="0.25"></line><line x1="0" y1="188.5" x2="933.028125" y2="188.5" fill="rgb(0, 0, 0)" stroke="rgb(189, 189, 189)" stroke-width="1px" opacity="0.25"></line><line x1="0" y1="141.375" x2="933.028125" y2="141.375" fill="rgb(0, 0, 0)" stroke="rgb(189, 189, 189)" stroke-width="1px" opacity="0.25"></line><line x1="0" y1="94.25000000000004" x2="933.028125" y2="94.25000000000004" fill="rgb(0, 0, 0)" stroke="rgb(189, 189, 189)" stroke-width="1px" opacity="0.25"></line><line x1="0" y1="47.125" x2="933.028125" y2="47.125" fill="rgb(0, 0, 0)" stroke="rgb(189, 189, 189)" stroke-width="1px" opacity="0.25"></line><line x1="0" y1="0" x2="933.028125" y2="0" fill="rgb(0, 0, 0)" stroke="rgb(189, 189, 189)" stroke-width="1px" opacity="0.25"></line></g></g></g><g><g><line x1="0" y1="424.125" x2="933.028125" y2="424.125" fill="rgb(0, 0, 0)" stroke="rgb(153, 153, 153)" stroke-width="1.5px"></line></g></g><g><g><line x1="116.628515625" y1="0" x2="116.628515625" y2="377" fill="rgb(0, 0, 0)" stroke="rgb(153, 153, 153)" stroke-width="1.5px"></line></g></g><g><g><g><g><g><path stroke="rgb(255, 112, 67)" stroke-width="2px" d="M116.628515625,18.016658037900925L118.2062402669271,183.55285158753395L119.09705534863282,201.04116305055064L119.21115691308594,238.94545507332424L120.63010478971356,268.7488216188253L121.40169961100261,270.97290849719684L121.5160927467448,298.6510098987251L123.07590195279947,310.9398254201181L123.19000351725262,106.78436192895884L123.63367782877604,191.44027484708687L124.07003046126303,236.56620909595142L124.7451475826823,248.47906522614934L125.30467288639325,276.4962150555182L126.07267166178386,294.6100170445119L127.20134412174478,304.76774652240084L127.65483466666669,314.88251755711883L128.10842240201822,321.04097251295735L129.67270236783855,312.9626766005424L130.1208474391276,315.1243942639859L130.2343334641927,201.8212801665244L130.45706153222656,240.91592084045615L130.68299688444012,259.3631918477017L131.36760627115888,170.93472482799174L132.26875593522135,241.436201497852L132.6067518528646,277.5362443001952L133.70947446809896,234.01096500920028L134.05275106575522,151.3891650421258L134.28973373014324,-1816.3901497147656L138.8805560732422,-83.82239922331947L139.1020854593099,78.40754029524989L139.9963993964844,183.29533343840768L141.79448713932294,233.75837730857182L143.47277147916668,273.9774757072407L143.59898945052083,292.4119810756143L145.05380059570314,311.38927055778703L145.16576397070313,307.50361902422407L146.49532904882815,312.1246589200408L146.85136998958333,311.82384379948866L147.7598737294922,313.3415996645046L148.09910072591148,323.99565757334943L148.64968451009116,321.9801955371235L149.20402632421875,181.68428693427657L150.67283289127604,236.69508791601285L151.5644254964193,225.79799843188871L151.792175069987,270.764588714888L151.9056286982422,289.52803962171356L152.23011514615885,300.5062794119073L154.79234644401043,319.38308921938386L154.90003344010415,322.11272457382705L157.61401139550782,323.712704029035L158.28235758365886,334.03925824097536L158.39227995963543,329.805540386924L158.50320663671877,329.54960544204044L159.86685315885418,297.9783095019734L160.762300984375,286.2604707776106L161.197098569987,307.0168372436532L161.42432979459636,309.23147895003376L161.9720626595052,315.7022158701124L162.52617769596355,325.04466937773844L162.76319275716148,328.7360490160789L163.984358109375,336.32081053838766L164.66417276822918,333.6575680371263L164.7765573017578,326.0258463425123L166.33455228645835,280.60268290654915L166.4505328658854,304.5579616610175L166.66104733658855,317.2534842213372L167.44828981705732,324.5197003823745L168.11738113183594,331.86527736587686L169.1252458876953,301.30616925122354L169.5841466998698,291.13105273820173L169.91546887467447,296.61901052640206L170.14208455989584,302.002030259945L170.58595325227867,317.97791609113096L170.69924489648437,325.66350058731246L171.2659622919922,323.936489775877L171.37957790429687,324.273269635499L172.05022426595053,324.9345342454675L174.61517689583334,333.1953253619291L174.84389837369793,331.26975667014227L174.95670406575522,327.6302855195672L175.06947736100264,334.20844517690364L175.4046871529948,339.3903500604178L175.64293329296876,337.7976206268398L177.20274249902346,330.2045246720628L177.30560237044273,336.82679396333197L177.52415125000002,331.88512029029073L177.74308889127605,-1382.2650942458083L178.60986554003907,-39.2341049285062L179.29509046614584,112.63880822829435L179.7417128873698,208.7240269572856L180.39369868652344,260.8244316095902L180.61814378548178,283.533384864914L181.04785507194012,308.9022865178511L182.8448089264323,299.8518431742385L183.50246416731773,294.6885208314297L183.9544644589844,310.346648286321L184.1798166686198,311.81620850744144L186.08837753320316,318.7939288531678L186.20098884440105,326.6937031501494L187.08843465787763,326.35622543418185L187.19634843164064,213.10420406653748L187.75069024576823,238.57968930479447L187.86482420703126,276.8029228334222L188.75907335058594,301.29475994465315L189.4164694169922,316.260749526665L189.52865956966147,327.5068982275399L190.08556073177087,315.90199711811977L191.09621161328127,306.9961056673076L192.12425958170573,317.88384716740524L193.0280657841797,324.1256589742379L193.14103346028648,328.73763602685193L194.93581672851565,334.008263167508L195.15841520930988,328.0059435109899L199.5568005016276,323.89854803178343L199.77353515983074,331.629102601073L199.992084039388,322.5885921722423L200.3214948024089,333.7045603338343L200.65524673795574,334.388801171986L200.77038500032555,337.07546763396726L202.13341598307295,336.6432822825102L204.34125857747398,165.81900057086872L205.5648212936198,237.7215390556427L205.67422532063802,276.9238061117156L206.33019592740888,296.94718080353874L207.00084228906252,318.734575020326L208.7831851822917,326.43279709491304L208.8942738434245,335.02556635930046L209.11910770410157,333.706125053727L210.46062720507814,337.7657447966715L211.9218529186198,330.73264267222766L212.810043858724,303.3489160697263L213.14612836458335,308.70141898754844L214.71358321777345,322.67418898888593L215.25904830598958,322.2047400653253L215.68992587760417,325.59256578713L216.24083362988281,331.4399748175105L217.92226046028645,331.43105068974256L219.14530482747398,338.8794370855246L219.595944453125,344.0942797893496L222.83400560221355,338.98320562298375L223.05556738509114,336.61311285588306L224.17134591471356,-1230.993824715059L226.5065403688151,-221.69828480320257L228.304822492513,1.1554954165990132L228.6402590621745,141.65781926302762L229.9969078733724,210.89674967639834L230.55827979524742,262.3046391657781L230.89692364908856,293.2028368697638L231.12535355566408,315.0637036032125L232.3396507841797,321.4780630538848L233.13972240136718,327.2581665155284L233.5744227965495,332.5439740471239L233.78409495019528,321.9183170737145L234.78194909179686,323.0175954530428L238.27947629134115,330.9357937025899L239.86691997623697,312.0117511598989L239.9761944160156,326.16005462549475L240.19736743717453,327.11664188589066L240.65089037890627,333.0204173337544L241.6628371328125,330.87083282686024L242.9915598938802,316.46186956236807L243.4459899462891,307.23059526068005L243.6618822874349,319.50089083601256L243.99744844433593,325.9993915587021L244.21816791015624,325.3395742016645L244.4396325026042,333.6549384065039L245.5591366653646,341.62753802940654L246.00802686328126,341.41849065664655L246.80304457812497,344.05698359813243L247.02535148763022,345.9476898301002L247.58659382226563,348.63593489458304L248.37765912630206,347.4387687193164L248.92947398925784,348.2982303289657L249.0429924111328,338.14115492928534L250.36721201562503,342.9195411648065L251.46488072851565,341.20324323598805L251.6852438294271,342.5729969011203L251.79017709667968,308.92827795544L252.5782942910156,320.89821743576965L253.13775480110678,320.05850100731396L253.59030583854167,322.94163614937986L253.69753927929688,320.467620808955L255.03371330664064,330.53976894711013L255.92857798958332,338.76932407346106L256.3651573997396,344.3072506348892L256.9180737542318,-183.58359998699402L257.1348408092448,16.4337257684089L259.22686480826826,75.86847898607355L259.446191211263,165.1791142448479L260.00753073632814,239.08110588340128L260.1213731263021,279.12772291778424L260.32991139160157,298.9788264580303L260.661622328125,299.41930676685183L261.102964069336,264.35703522972113L261.76541403808596,293.6672426373473L262.2236993108724,306.52842266921465L262.7821879166667,320.3057765219466L263.4558471816406,330.98581335120537L263.79170490983074,332.59710758282625L264.35132740397137,341.49578717114855L265.2506628466797,323.49466240860426L265.69411038053386,327.6605369997465L266.140991976237,331.9282952772047L267.13813338802083,339.7758706719557L267.9335074677735,278.3531456119346L268.24778892057293,299.6298554883318L268.3705728300781,310.5992839333961L269.3541075817057,319.50763664380014L270.45670060970053,319.3549250408131L272.15312716308597,325.21729116106735L272.59382096809895,336.032924635498L273.822923538737,333.70532989399925L273.93890411816403,337.71009870706376L274.38750274479173,339.869394547274L275.8437717464193,309.16353165300507L279.89489563346353,320.5463541787375L282.24764915852865,320.68597366759235L282.36330576985677,322.9609186983052L283.46777781282555,324.0091688967313L284.3591760371094,331.9739548079113L284.47308322070313,321.5277008630001L284.81645700878903,319.2046846340396L286.25416263834643,324.5059936517655L286.4739425966797,326.2708619638788L287.71150073470056,329.1081508728568L288.04204538606774,328.3347085346403L288.48426184114584,337.9340113925709L289.37355427278646,331.2278217600449L290.1522763922526,337.9238302514949L290.25222055078126,341.94556719249476L290.5876895172526,337.5746966387987L290.92811519563804,338.7827439687347L292.2612763196615,326.21810583661176L292.9110591357422,328.6731239625226L293.3442368808594,311.5637846510655L294.4721642141927,327.42582720494545L294.8097065764974,329.62160116270945L296.3657577526042,333.93098559877734L296.69280354850264,340.9180126839963L297.27137817643234,344.52621172541905L297.6160478369141,342.8247624541791L298.6139343753255,331.77922241720387L299.8528855761719,338.84590103079574L300.42293984309896,337.1843033304792L300.6457327047526,341.11341537064203L303.2915153753255,330.52535363302167L304.18906899348957,334.9162266016932L304.41691575748695,341.48714979803157L304.75309745377604,338.4205393750405L305.415871390625,343.6540071909985L305.52981097102867,335.74754809709555L306.3119995491536,338.979644034041L307.2159677356771,339.2937883697349L307.6561107949219,342.5198447696804L308.08922374641924,339.6977855946087L308.87355051399743,340.85426835480115L309.09627858203123,344.82955448188056L309.77301554394535,346.3337974629263L310.78207898177084,347.1671973262108L311.6644384960938,324.88358883523205L311.8903090546875,328.31897335477623L312.2059511735026,337.79266299294204L312.53568590462237,255.14894706300953L312.6483296126302,286.54904200906793L313.43401704622397,304.9831865252569L313.99078862109377,320.2729112757155L314.77100099381516,328.3624890299385L315.7662957874349,334.38396112631233L316.2016441188151,339.9658221483855L317.77586990527345,341.85738018188647L318.78895054752604,334.3267634885536L320.0311738261719,328.41287437987484L321.15106675065107,327.2558798665533L321.3706199313151,330.43067533819254L322.15792720540367,-52.64326415629164L322.73572430989583,103.59196497845072L323.0677592145182,202.23448877988707L323.97104706803384,253.3280927953628L326.09932309733074,291.0333532343809L327.3290412073568,309.3035379737916L329.22561525227866,317.0003612095298L329.67631967154955,326.5351329537739L330.68518872851564,329.65651705518417L331.2362260680339,328.02310109081895L331.3501008548177,326.92630087699314L331.4580146285807,337.83950779954085L333.80924550358077,340.58944516998224L335.041684945638,344.3640191636783L335.3744325800781,343.54328288479456L336.0400574361979,340.06302200462704L336.1537378421224,338.15720881793675L337.14977776236987,342.6767039360033L337.8176379983724,340.7621124959842L337.9248390423177,341.31565857540704L339.14108007942707,338.7809310487577L339.5720548414714,335.54417057524137L340.1357593336589,338.3275727268458L340.3559604505209,340.98015916266445L341.3641167776693,-845924.3082912213L354.0496060413412,-69.11824267929104L355.0515097841797,98.37022547229941L356.1577960485026,196.6494401741315L358.4149465875651,249.73919176151094L358.7479857932943,285.2922500049456L359.07078760709635,311.30703115614557L359.7308078151042,229.97961561770623L360.28550599414064,275.9702023633801L360.3958495286459,266.7517912637283L360.8415000455729,298.2918618933016L360.952199944987,313.36702078376135L361.7065920602214,318.4331454860802L363.03874888313806,316.6606745602271L365.2941499944661,283.0318880308617L366.40834108040366,303.2010599079101L368.3705510621745,312.21597285582834L369.14940276888024,300.7393435270442L369.93304920345054,316.07856626247485L370.83274101106775,320.1188315015144L371.05624660253903,328.3253871179287L371.5076961484375,339.0694878206649L372.18857990201826,346.3237508449554L372.6266495654297,332.35415523282285L373.8642077034506,335.8584720434642L374.199644273112,336.3344236875711L374.7570961809896,333.3924133220397L376.18032043652346,330.87132082367435L378.86747383333335,334.27992720147665L381.52663638639325,340.9280912070912L381.6338050335287,335.2805216693545L382.7562573059896,321.74330633781346L383.1041018538412,336.9264852979898L383.6653117916667,312.98259269470685L384.5555437307943,313.2136116640253L385.65599856933596,-22.157671295614065L386.7777381119792,123.33260434686483L387.5585336272787,200.5739178765973L390.90570723209635,261.29408123547796L391.3529451927084,291.8440707412658L391.4666903922526,314.5416448958098L391.91308603580734,325.72214456483L395.5654699866536,-854.129218124841L396.1311506842448,-107.46865402555257L396.69391566894535,68.89994819077374L399.4979243590495,182.4493780023606L400.40079105403646,244.49895549188565L400.72550427962244,278.4746021024615L402.9282605748698,305.1344132955212L403.80653809114585,317.45317885639304L404.3548217018229,329.3420468024137L404.5794611816406,223.2624971062971L404.9280508561198,197.77503753251034L405.1539862083333,256.04905408499366L405.2671482652995,285.80865525232383L406.48834601432293,312.2868597553768L406.5995318658854,310.59172946641434L406.70945424186203,325.9062267537688L406.92894262890627,325.62337992166135L407.1539060768229,333.31986700191885L407.70598011425784,340.6232850846338L407.9349607666016,326.8487316219024L408.8157652340495,330.80414373415783L411.8168761155599,330.72206882529304L411.9293902363282,337.2020929717591L413.1363981826172,344.09819817921937L413.2479403990886,345.8911748551215L414.3599285019531,345.4708477466038L414.4729609716797,236.58968931488582L414.8097582073568,255.5846313837313L415.58300526595053,272.6618036391224L416.35942721191407,304.50105340998687L417.812164961263,316.17503552568746L418.6946864596355,175.215655433731L418.8030861855469,238.08968385016723L419.5711497545573,-121.80974361922857L419.90995559244794,60.124664076408585L420.0210766503906,176.51617424681234L420.133558374349,243.18491210636168L420.4814353190105,282.11612183807296L422.56772508268233,277.0740204629779L423.4395556337891,305.57827073946476L423.5535924046224,316.0700833804303L423.90389911002603,329.6294227335985L424.683917101888,85.5618406232676L425.0237596376953,189.07110414931068L425.24101264485677,251.64879660921625L425.5647539661459,277.5483698404868L426.0122187044271,306.9462667126679L426.99617461458337,324.96992941911367L427.65616242578125,326.4050722731074L428.21520177734374,332.2928282849741L428.6641567688802,329.71128778205826L428.8882778997396,337.54231708822556L430.0078792529297,339.5511758719558L430.1199722151693,341.30137799946516L430.55574170507816,343.31400875906974L431.13114144563804,332.62763135082025L431.24129059928384,331.03542786208686L431.3474225485026,333.71610508333384L431.6774488509115,334.2949598504349L432.676566468099,328.37339419116046L432.79089481022135,326.0688706158964L432.9020158681641,167.4834274839978L433.45340957259117,237.94083801607016L434.01708166796874,281.1069063943608L434.35229145996095,299.6569369361987L434.9110392402344,317.84724944240986L435.13091638899743,322.14710968677485L435.46346964257816,332.8306996416705L436.25171642415364,335.88605578194006L438.9703595201823,345.2459145304557L440.6399291181641,341.12577620100956L441.97966679459637,342.1778236967443L443.0960608636068,343.0410731906962L443.53688425585943,344.9640022501511L444.2105759176432,345.0515299102761L444.9957450022787,345.2480206987916L445.1044362994792,339.6181801409518L446.1026468059896,341.049446961343L446.2147721650391,345.90712908122526L448.32095356998695,339.4427285251831L448.42666436067714,340.8608846028337L449.421926757487,335.50489708391956L449.6483156650391,318.9893919444569L452.43648231510423,318.246545962482L452.7679016803385,325.673828206652L453.10204237760416,326.76851518284894L453.76222456966144,332.23240310747394L454.2238143170573,338.7816552522717L454.3355833111979,342.5334922136628L456.20922041471357,328.87812438230293L456.54251879492193,333.28983201307403L457.3371477480469,338.94091096652954L457.6720011751302,338.6597712256516L457.8950856080729,329.7441011409763L458.57444671158856,335.8832986587765L460.02870711100263,335.98482678589113L461.1321100592448,333.58418017927943L461.46709307356775,340.6878910470255L461.8001646761068,343.54029290576267L462.68761048958334,343.8132392343848L463.7017278297526,343.9142456651908L465.3631334316406,344.93908084339984L466.8181713544922,341.35888571087776L468.93261394596357,348.18648949142846L469.2720353232422,322.49967961833806L470.84444688834634,330.61488452300983L470.95501720052084,260.1175807520483L471.6277693548178,293.8260838243207L472.3090418701172,283.98298017697573L473.08040991373696,312.4277474523607L473.20743780533854,328.17727639919656L473.3201139101563,312.0006661185392L473.53134111067715,323.14405731670666L473.9769592307943,333.95054820217257L474.42636777766927,138.79574785850983L474.878011704427,219.1366464821848L474.9894243336589,266.66516113748264L475.099184725586,294.21055016648836L475.64986570019533,318.51565107245483L475.8713626894531,321.7188236998871L477.00019713346353,325.69766196086135L479.1542610234376,336.2525994791039L482.30669740397144,339.331442444828L482.8731232281902,338.05296589839867L483.8896055354818,337.12811423187503L484.2304847692057,341.6995574792924L484.45107464778647,344.08833179835693L485.2445697125652,337.20613667645586L485.8154986933594,335.4139670478018L486.72659417805994,340.96843288223215L487.16903741080733,334.69753348755995L487.28271781673175,333.16767103480197L487.6233702727865,334.72524060909086L487.84616313444013,342.3650860673436L488.62669947526047,346.6833305231481L489.948942874349,338.01653013508013L490.1702454827474,335.19248051870164L492.6244982132162,337.4055609475273L492.96064751269535,330.94197487954483L496.3010501842448,338.12260688170306L497.1826321751302,333.6496473763854L500.9659316347656,339.94667096820297L501.5014185055338,338.57296736023915L502.7284476803386,335.89540013660246L503.7421114651693,272.62280623906406L504.5073565117187,300.46280103798836L504.7281731679687,320.98031212762675L505.0750782083334,325.6368617348413L505.2965751975912,332.49422762736924L505.84589550618483,336.74734910842926L505.9605154195964,343.3572004930207L506.8449807265625,336.13632471686776L506.9560693876953,329.28737575010166L508.07583272493497,336.5927860554797L508.5319474114583,330.9380505348291L509.63849285026043,338.0369215616611L510.0839165895182,337.46899795139L510.5375043248698,336.66495456906654L511.42184004459637,341.6790214843303L511.97877360351566,342.919758986935L513.6457190598958,346.6858983689576L513.757326069987,346.0817491667885L514.4245059729818,343.5606748048912L515.2087355501302,335.72867629435365L515.6372481546224,338.7984461799664L516.7630372985026,335.9961186790706L516.8784023385417,331.8923592698122L516.9902037294922,326.42438359001545L517.0970160117188,327.2726635318355L519.1497102835287,235.8372774768684L519.3724059547526,220.18795659833032L519.7124104746093,269.00955665673547L520.165998209961,298.57132825294576L520.504350492513,309.53509320789243L521.714468532552,326.7685575424055L523.084821194336,326.7388596110594L524.0929775214845,336.4777648969324L524.2024787389323,336.4512040942211L524.7506327623698,339.7399692686974L525.0820521276042,335.01856746390933L525.7496855859374,308.2023735559909L526.1904441845704,317.7842947239833L526.6336973375652,321.2609039646481L527.5035192864584,326.1320090697464L527.8357809687501,326.46802410073616L528.5092134560548,333.08057018272604L528.6234122109375,327.70695436538773L529.518665655599,338.99278920168587L529.8548797486978,343.9382641033823L529.9716054547526,343.91916526356306L531.3196691113282,343.99749145358186L532.7711109882813,342.9139314857088L532.8784416194662,347.58047870796696L532.9899514391276,345.48052908332215L533.1053488759766,331.73171872109805L534.6469510748699,281.33822554773474L537.3304760289714,287.3137527163409L537.6585585227865,307.6021286237587L537.8940185371093,302.0391611181706L538.1204398414714,312.00486901837644L538.4576258388673,326.03447265886103L538.8936545032552,334.52145660795475L539.2272444547526,341.66943845228974L539.3356117838542,338.79721576617135L541.3574642926433,330.18567051676496L542.4724005052084,335.60660328827845L543.7862531305339,339.12344942458003L544.3529705260416,296.74294186513146L544.4628929020182,287.30297182131125L544.796968805664,293.47928783672046L546.0308337073568,302.2836491711556L546.1399137662761,316.7401300607693L547.4587555003255,323.7019034632189L547.5706540817058,323.502381819972L547.8080579046224,325.87145025640046L547.920183263672,336.95768670206854L548.2521857714845,338.1740847004389L548.3642787337241,341.32648864674184L548.4779591396484,345.28194966636664L549.2558389420573,343.73946081383565L549.476104852539,340.53689052780595L551.3998274241536,332.7408237926371L551.6191214303386,330.31195856316134L551.7292705839844,324.1003676127389L552.1683121516928,318.77749800807203L552.5054981490887,331.8990462221263L554.405603446289,333.43542817071426L555.0653644798177,338.03945412090627L556.1750524091797,338.0874434045029L559.301247373698,341.4477043423696L560.3305264208984,343.9378013520624L560.5676710693359,342.52312414849916L560.7988547047527,347.7182817876644L561.3633367203776,325.19126858236234L561.7047019062501,320.4825106109491L562.7149640260417,329.9809489694423L563.0475496764323,337.0898282198421L563.3766688681641,341.741863984961L566.3899609501954,333.1656071106188L567.0785875413411,340.48124530670594L567.4102984778647,323.954723136172L567.8520937744141,331.78090655597765L568.5296406565756,332.3780162500901L568.8687056689453,322.61580950126427L569.6240372916667,283.5537789917313L569.8522404205729,163.2321731183721L570.1904955126954,241.24684386454777L572.0899528736979,276.85465806426265L572.5244588880208,307.5475748714903L573.4155007473959,309.28972195757024L573.5250343616536,323.2598546604669L574.5197136158855,326.9057656294319L575.1994958779296,334.29822771198826L575.3083491591798,337.80123071341086L575.4203773277995,331.0113108782075L575.7488485833334,335.0257946716608L576.4232853717448,340.1331619064129L577.3157850875651,338.9505528310011L578.2082200097657,336.9970264315051L578.6577581438803,332.20933737185254L578.8797734820964,337.9783775930205L579.8820335898438,340.19783506838075L580.4412025286459,329.5344765427565L581.1163844436849,308.79199497955176L581.7834347594402,303.2852941725084L582.5722322867839,319.79658810784986L584.564214936849,326.90981515491353L586.6628478850912,329.64468759891L587.111997257487,340.89179097322585L587.54339317806,343.089688212919L589.4481636158855,346.6977052576827L590.1409046018881,337.67508002892055L590.7961624788412,339.893367375582L591.1209728948568,-410.6268024887742L593.1314865201824,-111.12608525431753L593.579761178711,72.05094951822397L594.3519067457682,175.58814164211773L594.6752917021486,245.52819910770907L595.906111303711,285.99218524769697L597.0321596220704,310.70540949717616L597.1450625045574,317.8626517594782L597.477939726237,331.35145583247703L600.0641122666016,338.8792511746023L601.7489083652345,342.05089308766924L601.8595434710287,343.97918614416363L603.3009747337239,348.6147354270163L603.9688025729167,349.28593033553017L604.1888741025391,350.17081209570676L604.3012910328777,350.69797164976904L604.9798746129558,346.3508175359983L606.1025212662761,341.08183525185694L606.4341026155599,348.75776987481663L606.7802301324871,351.2898517263445L606.8928414436849,345.81787393316705L607.3482434003906,350.18466413661884L608.4739029570312,340.7085887768569L609.9014035914714,314.58853477708715L610.0065960332031,320.2649985535277L611.9193036894532,332.0235006769498L613.136937789388,339.86854014754294L614.1168440983073,344.8974349243045L614.6815528916015,350.2662051419974L615.2436051464845,331.67250785830976L615.9029774182943,16.343170092125867L616.88398521875,29.121329382431554L617.7789470921225,148.7350286679697L618.8044357125651,224.3579376585622L620.0355144886069,270.17133282854195L620.6002556787109,283.4814385100247L620.9336188525391,303.0507154270436L622.7417496064453,322.2680692615763L623.6381045426433,314.6660340662393L624.0789603317057,300.10415549490415L624.4228200719401,315.944397960088L624.7588073873698,-124.49849214912568L624.8727469677735,62.65106974386504L625.7673200794271,171.19346119370059L625.9923483209636,241.5428725490332L627.1959546022136,282.5139598628497L628.1072768645834,310.00801046822164L629.3313255328777,308.4015420921665L629.7824511106771,316.3763301371349L630.6609230078126,313.39733206920704L633.2342016178386,326.1317965995841L633.9074073274741,330.895853706394L634.3679603769532,339.8978628490534L636.0018934840496,344.98812935794393L636.6621080729167,344.0101270812452L637.0036028460287,337.2885060809672L637.2447646988933,341.1599236594212L638.032007179362,346.53512708196473L638.3685776373699,349.1988770267334L640.1908334003906,340.30840890860355L640.6646043483073,325.119158186053L640.7761789615886,308.5220114127009L641.1058812958985,322.016556680811L642.5822687164714,326.32081367708L642.806325053711,325.6272492685124L643.0335886751302,331.65545637328654L643.4889258382161,224.4148225719883L643.9582584231771,275.3847736290189L644.1855868382162,301.8578887251671L645.0815206158854,315.3440707872901L646.1882928323569,327.1352710113283L647.7801748802084,333.0256091094229L648.1036894238282,337.7970821968444L648.4419769127604,328.75736167798806L650.3110460660807,326.97012135249594L651.994157530599,330.4730088583363L652.5538448183594,-56.19766631890937L652.6658405901693,97.09040059048174L653.1092557272136,196.8686267131462L653.5611588284505,257.29100778215496L653.6672259840494,291.5068969786964L653.9941745895183,309.9357982388617L654.5399636458334,319.9968865699459L654.6528989251302,327.8279320872956L655.7749300390625,323.24103715283474L656.6621166780599,332.6353537068534L657.1054670214844,324.58913434599447L657.3248906149089,332.38392019602423L657.9957637542318,340.1522945960329L658.8916975319011,339.69667243957315L658.9994169248047,340.1870109334576L659.657752498698,343.7356453594558L660.0006079378256,340.702141857564L661.5350504417318,345.94018515284034L661.8623554121094,347.3878531401466L661.973832834961,344.0195617240733L662.3068396438803,185.93009880555073L664.3216944417318,245.51242823375696L664.7692563704427,286.3872728733625L665.5368987809245,306.6526058324221L666.215028805664,307.8861342613723L666.6795990595703,142.01501376300016L666.789813006836,219.00315932702398L668.2190954658204,269.21130507452114L669.106217311198,289.31495448656574L669.782014765625,304.9721536246401L670.1144060351563,320.20057523891103L670.440123561849,307.69642823126776L670.6604542659505,313.8600562121681L670.887005157552,330.5381060022838L672.6343594960938,331.5347839014964L672.8582538492839,300.9103759835503L673.0837356461589,54.18755549850116L673.1956342275391,155.711035453749L673.3054918098959,221.82677783129947L674.0872268326824,271.86073316072424L674.188726038086,298.09689426830414L676.1844991149089,309.8959024602831L676.5197089069011,318.89517487613324L678.4095444153646,330.806030656564L681.2063934104818,329.5288025159644L682.6887742408854,314.93174411171714L682.9075175013021,325.95442888923907L685.0103944316406,328.56776385330215L685.4712066555991,280.64189121319686L686.2554362327475,310.04752021547455L686.7048447796224,313.08858543197096L687.2637869407553,327.2406394544827L690.4920966500652,335.51818716756026L690.7122329733073,334.8702194600196L691.813918890625,336.8384477918679L691.9254287102865,341.10864620359746L695.4747584088542,332.71205317945487L698.1405947047526,337.65063787085535L699.4721035914714,341.0417479490204L699.6937949615887,333.3658846089222L700.2274352141927,333.23471216225494L701.3424038235677,336.0769065059058L701.6815660263672,338.3262729264398L701.7907108789063,335.2146786834061L702.6552521477865,322.9078221938169L702.8799240244141,331.21694302684995L703.432905172526,334.74518839345535L704.1226656520183,336.0977187995682L706.4522878548178,334.8567768868548L707.5823209807943,334.68013132135525L708.0203582473958,335.7512791366604L708.4689892708334,336.5854399911301L709.2360161419272,338.40265839765885L709.6873037037761,340.1486833674933L709.801470061849,318.678621735169L710.0180427360027,310.8398245727977L710.1248226214193,317.7129370409823L711.4619037594401,305.1706815414772L712.4522418411459,320.13765481431165L713.6965709124349,321.4662580345206L714.9104793792318,328.94377249801954L715.1387473017579,335.7787146557855L715.6967823522136,332.9601522335105L715.9210006735026,328.9909406571801L716.4796836601563,334.8869649302492L717.1340020296225,331.2907154191452L717.9178428450522,341.25154963010056L718.3661822972006,346.76362896635237L720.7107718261718,340.0386024858004L722.3990667802735,343.1078002524642L722.5120668531902,341.31371283961937L722.9746609016927,337.23876757731205L723.4112727086589,337.3050443667779L723.748685483724,333.8353478603726L726.0901325221355,336.57874817956485L726.8796751761067,252.1302240151703L727.1034723388673,272.4723316555345L727.3310275315755,295.3151113450601L729.6678418261719,318.6260489931747L729.770442523112,329.40320922947194L730.1034169352214,339.29731694171585L730.326857733073,-669.9749074500215L730.8863506399739,-25.693957756927464L731.4369668209636,105.93074864985292L731.6630317604167,153.03258447850789L731.8875740498047,225.19984582367564L732.4284063942058,269.331462097484L734.5257110732422,287.32231097806584L735.1932797379558,312.5869920634573L735.4175952496745,327.93085742344533L735.7491765989585,339.55669135510965L736.7590175602214,337.9778910706046L737.979243404948,332.409173305607L738.9592469042968,325.36442935960065L739.069979200521,337.19932165441855L739.5215583336588,343.11084431080786L740.6190002688802,342.1225385407732L741.389137233724,328.5900090077595L741.8154144583334,330.03691446567035L742.602041399414,338.3124157609609L743.710822218099,341.60298183393877L743.9356236819663,349.6828193296933L744.0421119960938,345.26918732255365L744.4876329257812,323.99442948180234L744.7025857594401,335.0076863618362L744.927192842448,337.9758183048169L745.0364996790365,343.6415204352737L745.2713117571616,338.3378159610391L746.484377906901,343.75791153359177L749.3782877444662,345.03569077728844L750.2711114283854,350.1470099778691L750.6048633639323,348.87698377917525L750.8302155735678,342.6584537461419L750.9405915048828,343.28644743770474L751.7260521608073,345.3207571817047L752.1783764205729,343.2377677284245L752.3884373359375,341.99513386324435L752.7181720670574,335.6275350578748L754.8348176416016,341.35774231720706L755.5907648037111,322.40295158784835L755.8116786503906,321.41526594585923L756.14779555306,329.5864968229934L757.256511578125,330.90840221968915L758.6048020123698,196.10819477157372L762.7588505644532,256.3207059491669L767.1187160498047,292.8732872107026L768.2344297858073,317.6555204837559L769.7660213704428,324.8463173716687L770.3266805625001,322.2257600223674L770.556211960612,327.69362233702265L772.0044141565755,331.1218699462648L773.7874373828125,334.72411772891496L774.123489491862,332.70578523149857L774.9212609355469,325.4867219249652L775.2494082229817,337.15229502888L776.0143293014323,332.73867654395985L776.7828788225912,336.56748183275994L777.1285203873698,316.28266417506774L777.9043591907553,323.7259814144578L778.2420635371094,332.2039550260548L779.0187770543621,337.9637947375085L779.2406628053386,345.9397275653187L779.5684537278646,338.26760264824054L779.679348008138,342.12585140222444L779.789756336263,342.10546493055904L779.8931669534505,346.1604133979826L780.6770725625,349.1583639837115L781.4513887158204,349.73706281076727L782.4483357467448,346.35640469128407L782.898003468099,334.00663852503607L783.3483515224609,339.02743088490195L785.5294667486979,338.6736988427426L786.8623686982422,336.43525957627213L788.0853158750001,341.9561699245162L789.9845140615234,325.2592948295943L791.0758977932943,331.99695465673636L791.8495012167969,332.6501109403946L792.1764498222657,331.21785222605337L793.271429599935,338.9349596164553L793.3781446917318,342.5611742056566L793.6121144527996,338.3646468291972L794.2704176298828,338.7463004735288L795.0396798808595,336.58598171157695L797.92257480306,340.26775777627864L800.7191646236979,339.4450258421292L802.3008740732422,345.024079753899L802.8627967408855,309.5434641772171L803.1977149615886,325.3034771358169L804.1045340673828,324.42016494424325L804.7725562874349,328.38818790704715L805.9814756455079,333.80491144174755L806.9609283990886,-132.08854883483383L807.7499851009114,60.42049274998109L808.4161283059896,171.9094711402488L808.8636254410808,244.77883346435027L809.0810728291016,279.898711228708L809.1847750175782,302.22316027393316L812.5197350250651,319.20382834053265L812.9622754482423,97.43937301979196L813.0748219658203,196.7513639992221L813.8514382926433,248.68251735959913L813.9602915738932,283.2278541639118L815.8275789026693,303.58907748399184L816.4884414277344,314.0506953709603L816.7102299882813,327.79072961141355L816.8328195169271,329.32206754344514L818.0619220875652,334.1510742065776L818.4059114150391,336.61388439282587L819.9685391435547,318.05087525454053L820.4127965976563,319.60481742952396L820.6356218561198,332.22820343931994L821.962659983073,329.4544154412179L822.8498790188803,333.9558738786953L823.4153005419922,334.99649114721876L823.6291518841145,327.44542671778123L823.8465344785157,332.4081637936134L826.7244078951823,342.6572428943097L828.6091247076823,346.52527648665784L829.9320484397787,342.14746118312047L830.0449837190755,335.20666398689133L830.8015140237632,330.89550091823924L831.4746549397787,253.5753605842649L832.4723147005209,279.1613308551943L832.5861570904949,-18.592535831747362L833.039842016276,126.6697665150655L833.4810865670573,211.2458620217855L833.9262511318359,263.7929283989916L834.2580916555991,298.9454910718471L834.4736924254557,319.4984196402472L835.0374293144532,325.03443872498525L835.9382226136067,335.6997423742238L837.9281318678386,335.14542638653654L839.0178957591146,337.97117671903453L839.2530965989585,337.23768283001476L841.3881111647136,344.91771465880805L842.2994334270834,331.71122439410175L842.4115587861329,336.94092896852425L842.7388637565105,336.3832605557056L844.2638139951172,340.13091786661215L845.8159775540365,337.38741632079166L846.2614336901041,327.5586674274509L846.3731702874348,336.1980167887512L846.4845505198568,341.18563757907765L847.926953686849,339.54824192417516L848.5959154143881,341.50687563921724L849.1594255257162,339.2343266085131L849.2675660771484,338.5532343566622L849.4911364622396,288.9628830748919L849.8221022721355,303.8022269739582L850.047422084961,320.1309827094599L850.3728156435548,257.0923362687424L851.5853958411459,289.658798756611L854.5109897587892,315.9807238786886L856.5138577369792,324.57281549778406L858.1879952851564,333.7265346512605L858.5167257151693,336.6617404425388L858.6385053235678,336.72795029903926L859.0880434576823,332.9162169928877L859.310836319336,339.52962018314173L860.4204594550781,334.42148485042554L861.9600530517579,333.5947974533314L863.5204777972006,340.34975926044433L863.9667762503256,314.208154225128L864.3039298509116,320.10614647494384L864.418549764323,325.03414096252095L867.4464528076172,332.63302605340465L868.1270449899089,336.47616014623395L868.4504299462891,331.91154730912297L869.437269172526,339.66705925223977L870.1034447744141,333.0457633343801L870.6556483990886,340.31232632741126L870.764048125,341.392552973597L870.8733873583985,340.09957236753036L871.1032103277995,340.9136206460364L872.100189755534,339.8431807504515L872.4337473102214,340.0857470271838L872.6616264710286,348.6205523453863L873.1086052571616,345.0081846650071L874.4429650631511,319.01212934765977L874.6606392288412,324.12843795486543L874.984153772461,328.0982998735801L875.5338304459636,333.36334397656293L875.9810684065756,335.5105624974523L877.7509061311849,342.11954855357135L877.8609904912109,338.7604325633319L878.3092975465495,333.44981427616307L879.2965579313152,268.5942494250919L881.774103968099,295.07804360405123" style="fill: none;" fill="none"></path></g></g></g></g><g opacity="0.2"><g><g><g><path stroke="rgb(255, 112, 67)" stroke-width="2px" d="M116.628515625,18.016658037900925L118.2062402669271,282.87456771731377L119.09705534863282,217.82994205504656L119.21115691308594,283.52090249210596L120.63010478971356,307.66009698063135L121.40169961100261,274.04962132126093L121.5160927467448,338.23113775253296L123.07590195279947,328.8570364229381L123.19000351725262,-194.3052915632724L123.63367782877604,317.1444393917918L124.07003046126303,303.84582156687975L124.7451475826823,266.2835201844573L125.30467288639325,318.4304589442909L126.07267166178386,321.74523320421576L127.20134412174478,319.99240070953965L127.65483466666669,330.04754038900137L128.10842240201822,330.2760488949716L129.67270236783855,300.8472838103771L130.1208474391276,318.36664144322276L130.2343334641927,31.8769653737545L130.45706153222656,299.55573780834675L130.68299688444012,287.0334913432598L131.36760627115888,38.29377016425133L132.26875593522135,347.18758134543896L132.6067518528646,331.68605192005634L133.70947446809896,168.72323168814182L134.05275106575522,27.456676498055458L134.28973373014324,-4768.056100845337L134.5085417841797,304.5104701668024L135.40437837141928,264.167121745646L135.9679856731771,286.39563935250044L137.54114236490886,-617.5846984386443L138.8805560732422,314.47377387806773L139.1020854593099,321.7524379529059L139.9963993964844,340.62701864540577L141.79448713932294,309.45294181257486L143.47277147916668,334.30612268298864L143.59898945052083,320.06373895704746L145.05380059570314,339.8552046753466L145.16576397070313,301.67514173686504L146.49532904882815,319.05621875450015L146.85136998958333,311.37262111902237L147.7598737294922,315.61823346093297L148.09910072591148,339.9767444320023L148.64968451009116,318.9570024833083L149.20402632421875,-28.759575948119164L150.67283289127604,319.211289383471L151.5644254964193,209.4523642063141L151.792175069987,338.21447413787246L151.9056286982422,317.67321598157287L152.23011514615885,316.97363909706473L154.79234644401043,347.6983039304614L154.90003344010415,326.20717760547996L157.61401139550782,326.1126732118428L158.28235758365886,349.5290895588696L158.39227995963543,323.45496360585093L158.50320663671877,329.1657030247152L159.86685315885418,250.62136559188366L160.762300984375,268.68371269106865L161.197098569987,338.15138694271445L161.42432979459636,312.55344150960445L161.9720626595052,325.4083212502301L162.52617769596355,339.0583496391773L162.76319275716148,334.2731184735894L163.984358109375,347.6979528218508L164.66417276822918,329.6627042852342L164.7765573017578,314.57826380059123L166.33455228645835,212.46793775260448L166.4505328658854,340.4908797927201L166.66104733658855,336.2967680618167L167.44828981705732,335.41902462393045L168.11738113183594,342.8836428411305L169.1252458876953,255.46750707924366L169.5841466998698,275.86837796866894L169.91546887467447,304.85094720870256L170.14208455989584,310.0765598602593L170.58595325227867,341.94174483790994L170.69924489648437,337.1918773315847L171.2659622919922,321.3459735587239L171.37957790429687,324.778439424932L172.05022426595053,325.9264311604202L174.61517689583334,345.58651203662157L174.84389837369793,328.381403632462L174.95670406575522,322.1710787937045L175.06947736100264,344.0756846629083L175.4046871529948,347.163207385689L175.64293329296876,335.4085264764726L177.20274249902346,318.8148807398975L177.30560237044273,346.76019790023565L177.52415125000002,324.4726097807288L177.74308889127605,-3953.4904160499573L177.94764234895834,350.0349949337542L178.38862772526042,330.3804826401174L178.60986554003907,324.097000811249L179.29509046614584,340.44817796349525L179.7417128873698,352.85185505077243L180.39369868652344,338.975038588047L180.61814378548178,317.59681474789977L181.04785507194012,346.95563899725676L182.8448089264323,286.2761781588197L183.50246416731773,286.9435373172164L183.9544644589844,333.83383946865797L184.1798166686198,314.02054883912206L186.08837753320316,329.2605093717575L186.20098884440105,338.5433645956218L187.08843465787763,325.85000886023045L187.19634843164064,43.226172015070915L187.75069024576823,276.79291716217995L187.86482420703126,334.13777312636375L188.75907335058594,338.03251561149955L189.4164694169922,338.70973389968276L189.52865956966147,344.3761212788522L190.08556073177087,298.4946454539895L191.09621161328127,293.63726849108934L192.12425958170573,334.21545941755176L193.0280657841797,333.48837668448687L193.14103346028648,335.655601605773L194.93581672851565,341.9142038784921L195.15841520930988,319.0024640262127L199.5568005016276,317.73745481297374L199.77353515983074,343.2249344550073L199.992084039388,309.02782652899623L200.3214948024089,350.3785125762224L200.65524673795574,335.4151624292135L200.77038500032555,341.1054673269391L202.13341598307295,335.9950042553246L204.34125857747398,-90.41742199659348L205.5648212936198,345.57534678280354L205.67422532063802,335.72720669582486L206.33019592740888,326.98224284127355L207.00084228906252,351.4156663455069L208.7831851822917,337.98013020679355L208.8942738434245,347.91472025588155L209.11910770410157,331.72696309536695L210.46062720507814,343.8551744110882L211.9218529186198,320.18298948556185L212.810043858724,262.27332616597414L213.14612836458335,316.73017336428165L214.71358321777345,343.6333439908922L215.25904830598958,321.50056667998433L215.68992587760417,330.67430436983705L216.24083362988281,340.2110883630812L217.92226046028645,331.41766449809074L219.14530482747398,350.05201667919755L219.595944453125,351.9165438450873L222.83400560221355,331.3165943734348L223.05556738509114,333.05797370523214L224.17134591471356,-3582.404231071472L224.9516878746745,337.60213369876146L226.5065403688151,351.08745001628995L228.304822492513,335.4361657463014L228.6402590621745,352.4113050326705L229.9969078733724,314.75514529645443L230.55827979524742,339.41647339984775L230.89692364908856,339.5501334257424L231.12535355566408,347.8550037033856L232.3396507841797,331.0996022298932L233.13972240136718,335.92832170799375L233.5744227965495,340.47268534451723L233.78409495019528,305.97983161360025L234.78194909179686,324.66651302203536L238.27947629134115,342.8130910769105L239.86691997623697,283.6256873458624L239.9761944160156,347.38250982388854L240.19736743717453,328.5515227764845L240.65089037890627,341.8760805055499L241.6628371328125,327.646456066519L242.9915598938802,294.84842466562986L243.4459899462891,293.3836838081479L243.6618822874349,337.9063341990113L243.99744844433593,335.74714264273643L244.21816791015624,324.34984816610813L244.4396325026042,346.127984713763L245.5591366653646,353.5864374637604L246.00802686328126,341.1049195975065L246.80304457812497,348.0147230103612L247.02535148763022,348.78374917805195L247.58659382226563,352.66830249130726L248.37765912630206,345.64301945641637L248.92947398925784,349.5874227434397L249.0429924111328,322.90554182976484L250.36721201562503,350.08712051808834L251.46488072851565,338.6287963427603L251.6852438294271,344.62762739881873L251.79017709667968,258.4611995369196L252.5782942910156,338.85312665626407L253.13775480110678,318.79892636463046L253.59030583854167,327.26633886247873L253.69753927929688,316.75659779831767L255.03371330664064,345.6479911543429L255.92857798958332,351.1136567629874L256.3651573997396,352.61414047703147L256.9180737542318,-975.4198759198188L257.1348408092448,316.45971440151334L259.22686480826826,165.02060881257057L259.446191211263,299.14506713300943L260.00753073632814,349.93409334123135L260.1213731263021,339.1976484693587L260.32991139160157,328.7554817683995L260.661622328125,300.08002723008394L261.102964069336,211.76362792402506L261.76541403808596,337.63255374878645L262.2236993108724,325.82019271701574L262.7821879166667,340.97180730104446L263.4558471816406,347.0058685950935L263.79170490983074,335.01404893025756L264.35132740397137,354.843806553632L265.2506628466797,296.4929752647877L265.69411038053386,333.90934888646007L266.140991976237,338.32993269339204L267.13813338802083,351.5472337640822L267.9335074677735,186.21905802190304L268.24778892057293,331.5449203029275L268.3705728300781,327.0534266009927L269.3541075817057,332.87016570940614L270.45670060970053,319.1258576363325L272.15312716308597,334.0108403414488L272.59382096809895,352.2563748471439L273.822923538737,330.21393778175116L273.93890411816403,343.71725192666054L274.38750274479173,343.1083383075893L275.8437717464193,263.10473731160164L279.89489563346353,337.6205879673362L282.24764915852865,320.8954029008746L282.36330576985677,326.3733362443745L283.46777781282555,325.5815441943705L284.3591760371094,343.9211336746812L284.47308322070313,305.8583199456334L284.81645700878903,315.72016029059887L286.25416263834643,332.45795717835426L286.4739425966797,328.9181644320488L287.71150073470056,333.36408423632383L288.04204538606774,327.1745450273156L288.48426184114584,352.3329656794667L289.37355427278646,321.16853731125593L290.1522763922526,347.9678429886699L290.25222055078126,347.9781726039946L290.5876895172526,331.0183908082545L290.92811519563804,340.5948149636388L292.2612763196615,307.37114863842726L292.9110591357422,332.3556511513889L293.3442368808594,285.89977568387985L294.4721642141927,351.2188910357654L294.8097065764974,332.91526209935546L296.3657577526042,340.39506225287914L296.69280354850264,351.3985533118248L297.27137817643234,349.9385102875531L297.6160478369141,340.2725885473192L298.6139343753255,315.21091236174107L299.8528855761719,349.44591895118356L300.42293984309896,334.6919067800045L300.6457327047526,347.00708343088627L303.2915153753255,314.64326102659106L304.18906899348957,341.5025360547006L304.41691575748695,351.3435345925391L304.75309745377604,333.82062374055386L305.415871390625,351.5042089149356L305.52981097102867,323.88785945624113L306.3119995491536,343.8277879394591L307.2159677356771,339.76500487327576L307.6561107949219,347.3589293695986L308.08922374641924,335.4646968320012L308.87355051399743,342.58899249508977L309.09627858203123,350.79248367249966L309.77301554394535,348.590161934495L310.78207898177084,348.4172971211374L311.6644384960938,291.45817609876394L311.8903090546875,333.47205013409257L312.2059511735026,352.0031974501908L312.53568590462237,131.18337316811085L312.6483296126302,333.6491844281554L313.43401704622397,332.6344032995403L313.99078862109377,343.2074984014034L314.77100099381516,340.496855661273L315.7662957874349,343.41616927087307L316.2016441188151,348.3386136814952L317.77586990527345,344.6947172321379L318.78895054752604,323.0308384485543L320.0311738261719,319.5420407168567L321.15106675065107,325.52038809657097L321.3706199313151,335.19286854565144L322.15792720540367,-627.2541733980178L322.73572430989583,337.94480868056417L323.0677592145182,350.1982744820416L323.97104706803384,329.96849881857634L326.09932309733074,347.5912438929081L327.3290412073568,336.7088150829077L329.22561525227866,328.54559606313705L329.67631967154955,340.8372905701399L330.68518872851564,334.3385932072997L331.2362260680339,325.57297714427114L331.3501008548177,325.2811005562544L331.4580146285807,354.2093181833625L333.80924550358077,344.71435122564435L335.041684945638,350.02588015422225L335.3744325800781,342.31217846646905L336.0400574361979,334.84263068437576L336.1537378421224,335.29848903790116L337.14977776236987,349.45594661310315L337.8176379983724,337.8902253359556L337.9248390423177,342.1459776945412L339.14108007942707,334.9788397587836L339.5720548414714,330.68902986496687L340.1357593336589,342.5026759542525L340.3559604505209,344.9590388163924L341.3641167776693,-2115322.2409667964L341.81427045117186,-1709.6486523151398L341.92471117610677,344.89758076518774L342.1471800696615,348.27127104997635L342.2597913808594,336.12744944542646L342.48643946289064,314.62727154046297L343.7008014850261,309.5184025019407L343.9279031223959,334.4881092980504L344.8383182740886,345.8957053013146L344.948888586263,357.1522824689746L345.28669012304687,350.25648828968406L349.1573637789714,337.15088189020753L351.4967050247396,340.11966670304537L352.3799392529297,338.5269116461277L353.7241800859375,336.7045385800302L354.0496060413412,315.1934833303094L355.0515097841797,349.6029276996851L356.1577960485026,344.0682622268796L358.4149465875651,329.37381914258003L358.7479857932943,338.62183737009764L359.07078760709635,350.32920288294554L359.7308078151042,107.98849231004715L360.28550599414064,344.9560824818909L360.3958495286459,252.92417461425066L360.8415000455729,345.6019678376615L360.952199944987,335.97975911945105L361.7065920602214,326.0323325395584L363.03874888313806,314.0019681714475L365.2941499944661,232.58870823681355L366.40834108040366,333.45481772348285L368.3705510621745,325.73834227770567L369.14940276888024,283.52439953386784L369.93304920345054,339.08740036562085L370.83274101106775,326.1792293600738L371.05624660253903,340.6352205425501L371.5076961484375,355.1856388747692L372.18857990201826,357.20514538139105L372.6266495654297,311.39976181462407L373.8642077034506,341.1149472594261L374.199644273112,337.04835115373135L374.7570961809896,328.9793977737427L376.18032043652346,327.08968207612634L378.86747383333335,339.39283676818013L381.52663638639325,350.900337215513L381.6338050335287,326.8091673627496L382.7562573059896,301.4374833405018L383.1041018538412,359.7012537382543L383.6653117916667,277.0667537897825L384.5555437307943,313.5601401180029L385.65599856933596,-525.214595735073L386.7777381119792,341.5680178105831L387.5585336272787,316.435888171196L390.90570723209635,352.37432627379894L391.3529451927084,337.66905499994755L391.4666903922526,348.5880061276257L391.91308603580734,342.49289406836033L395.5654699866536,-2623.9062621593475L396.0192844996745,281.3430038690567L396.1311506842448,331.2388589270413L396.69391566894535,333.4528515152633L399.4979243590495,352.77352271974087L400.40079105403646,337.57332172617316L400.72550427962244,329.43807201832533L402.9282605748698,345.12413008511066L403.80653809114585,335.93132719770074L404.3548217018229,347.1753487214446L404.5794611816406,64.14317256212234L404.9280508561198,159.54384817183018L405.1539862083333,343.46007891371846L405.2671482652995,330.44805700331926L406.48834601432293,352.0041665099561L406.5995318658854,308.04903403297067L406.70945424186203,348.8779726848006L406.92894262890627,325.19910967350006L407.1539060768229,344.86459762230515L407.70598011425784,351.57841220870614L407.9349607666016,306.1869014278054L408.8157652340495,336.7372619025409L411.8168761155599,330.59895646199584L411.9293902363282,346.9221291914582L413.1363981826172,354.44235599040985L413.2479403990886,348.5806398689747L414.3599285019531,344.84035708382726L414.4729609716797,73.26795166730881L414.8097582073568,284.0770444869995L415.58300526595053,298.27756202220917L416.35942721191407,352.25992806628346L417.812164961263,333.6860086992383L418.6946864596355,-36.223414704203606L418.8030861855469,332.40072647482157L419.5711497545573,-661.6588848233222L419.90995559244794,333.02627561986446L420.0210766503906,351.10343950241804L420.133558374349,343.1880188956857L420.4814353190105,340.51293643563986L422.56772508268233,269.5108684003353L423.4395556337891,348.33464615419507L423.5535924046224,331.8078023418784L423.90389911002603,349.96843176335096L424.683917101888,-280.53953254222864L425.0237596376953,344.33499943837523L425.24101264485677,345.51533529907465L425.5647539661459,316.3977296873927L426.0122187044271,351.0431120209396L426.99617461458337,352.0054234787822L427.65616242578125,328.55778655409813L428.21520177734374,341.1244623027742L428.6641567688802,325.83897702768445L428.8882778997396,349.28886104747653L430.0078792529297,342.56446404755116L430.1199722151693,343.92668119072914L430.55574170507816,346.3329548984766L431.13114144563804,316.598065238446L431.24129059928384,328.64712262898684L431.3474225485026,337.7371209152043L431.6774488509115,335.1632420010865L432.676566468099,319.4910457022488L432.79089481022135,322.61208525300026L432.9020158681641,-70.39473721385002L433.45340957259117,343.6269538141787L434.01708166796874,345.85600896179676L434.35229145996095,327.4819827489555L434.9110392402344,345.1327182017267L435.13091638899743,328.5969000533223L435.46346964257816,348.85608457401395L436.25171642415364,340.4690899923444L438.9703595201823,359.28570265322924L440.6399291181641,334.9455687068403L441.97966679459637,343.7558949403465L443.0960608636068,344.33594743162394L443.53688425585943,347.84839583933353L444.2105759176432,345.1828214004636L444.9957450022787,345.54275688156486L445.1044362994792,331.17341930419207L446.1026468059896,343.1963471919298L446.2147721650391,353.19365226104856L448.32095356998695,329.7461276911199L448.42666436067714,342.98811871930957L449.421926757487,327.47091580554843L449.6483156650391,294.21613423526287L452.43648231510423,317.1322769895196L452.7679016803385,336.81475157290697L453.10204237760416,328.4105456471443L453.76222456966144,340.42823499441147L454.2238143170573,348.60553346946836L454.3355833111979,348.1612476557493L456.20922041471357,308.3950726352632L456.54251879492193,339.90739345923066L457.3371477480469,347.4175293967128L457.6720011751302,338.2380616143346L457.8950856080729,316.3705960139632L458.57444671158856,345.0920949354768L460.02870711100263,336.1371189765632L461.1321100592448,329.98321026936173L461.46709307356775,351.34345734864473L461.8001646761068,347.8188956938684L462.68761048958334,344.22265872731805L463.7017278297526,344.0657553113997L465.3631334316406,346.4763336107135L466.8181713544922,335.9885930120945L468.93261394596357,358.4278951622546L469.2720353232422,283.96946480870247L470.84444688834634,342.7876918800175L470.95501720052084,154.37162509560585L471.6277693548178,344.38883843272924L472.3090418701172,269.21832470595837L473.08040991373696,355.094898365438L473.20743780533854,351.8015698194504L473.3201139101563,287.73575069755316L473.53134111067715,339.8591441139579L473.9769592307943,350.1602845303714L474.42636777766927,-153.93645265698424L474.878011704427,339.6479944176972L474.9894243336589,337.9579331204295L475.099184725586,335.52863370999694L475.64986570019533,354.9733024314046L475.8713626894531,326.5235826410353L477.00019713346353,331.6659193523228L479.1542610234376,352.0850057564676L482.30669740397144,343.94970689341426L482.8731232281902,336.13525107875466L483.8896055354818,335.7408367320895L484.2304847692057,348.55672235041857L484.45107464778647,347.6714932769537L485.2445697125652,326.8828439936042L485.8154986933594,332.7257126048207L486.72659417805994,349.30013163387775L487.16903741080733,325.2911843955517L487.28271781673175,330.87287735566497L487.6233702727865,337.0615949705243L487.84616313444013,353.8248542547226L488.62669947526047,353.1606972068548L489.948942874349,325.0163295529783L490.1702454827474,330.95640609413385L492.6244982132162,340.7251815907657L492.96064751269535,321.2465957775712L496.3010501842448,348.8935548849404L497.1826321751302,326.9402081184089L500.9659316347656,349.3922063559294L501.5014185055338,336.51241194829345L502.7284476803386,331.87904930114746L503.7421114651693,177.71391539275646L504.5073565117187,342.22279323637486L504.7281731679687,351.75657876208425L505.0750782083334,332.62168614566326L505.2965751975912,342.780276466161L505.84589550618483,343.12703133001924L505.9605154195964,353.2719775699079L506.8449807265625,325.3050110526383L506.9560693876953,319.0139522999525L508.07583272493497,347.5509015135467L508.5319474114583,322.4559472538531L509.63849285026043,348.68522810190916L510.0839165895182,336.6171125359833L510.5375043248698,335.4588894955814L511.42184004459637,349.2001218572259L511.97877360351566,344.7808652408421L513.6457190598958,352.33510744199157L513.757326069987,345.1755253635347L514.4245059729818,339.7790632620454L515.2087355501302,323.9806785285473L515.6372481546224,343.4031010083854L516.7630372985026,331.792627427727L516.8784023385417,325.73672015592456L516.9902037294922,318.22242007032037L517.0970160117188,328.54508344456553L519.1497102835287,98.68419839441776L519.3724059547526,196.7139752805233L519.7124104746093,342.24195674434304L520.165998209961,342.91398564726114L520.504350492513,325.98074064031243L521.714468532552,352.61875404417515L523.084821194336,326.6943127140403L524.0929775214845,351.08612282574177L524.2024787389323,336.4113628901541L524.7506327623698,344.67311703041196L525.0820521276042,327.9364647567272L525.7496855859374,267.97808269411325L526.1904441845704,332.15717647597194L526.6336973375652,326.4758178256452L527.5035192864584,333.43866672739387L527.8357809687501,326.97204664722085L528.5092134560548,342.9993893057108L528.6234122109375,319.6465306393802L529.518665655599,355.9215414561331L529.8548797486978,351.3564764559269L529.9716054547526,343.89051700383425L531.3196691113282,344.11498073861003L532.7711109882813,341.2885915338993L532.8784416194662,354.5802995413542L532.9899514391276,342.3306046463549L533.1053488759766,311.10850317776203L534.6469510748699,205.7479857876897L537.3304760289714,296.2770434692502L537.6585585227865,338.03469248488545L537.8940185371093,293.6947098597884L538.1204398414714,326.95343086868525L538.4576258388673,347.0788781195879L538.8936545032552,347.25193253159523L539.2272444547526,352.3914112187922L539.3356117838542,334.4888817369938L541.3574642926433,317.2683526426554L542.4724005052084,343.7380024455488L543.7862531305339,344.3987186290324L544.3529705260416,233.17218052595854L544.4628929020182,273.1430167555809L544.796968805664,302.7437618598342L546.0308337073568,315.4901911728084L546.1399137662761,338.42485139518976L547.4587555003255,334.14456356689334L547.5706540817058,323.2030993551016L547.8080579046224,329.42505291104317L547.920183263672,353.58704137057066L548.2521857714845,339.99868169799447L548.3642787337241,346.0550945661962L548.4779591396484,351.2151411958039L549.2558389420573,341.4257275350392L549.476104852539,335.7330350987613L551.3998274241536,321.04672368988395L551.6191214303386,326.66866071894765L551.7292705839844,314.7829811871052L552.1683121516928,310.79319360107183L552.5054981490887,351.58136854320765L554.405603446289,335.7400010935962L555.0653644798177,344.9454930461943L556.1750524091797,338.1594273298979L559.301247373698,346.4880957491696L560.3305264208984,347.6729468666017L560.5676710693359,340.4011083431542L560.7988547047527,355.5110182464123L561.3633367203776,291.4007487744093L561.7047019062501,313.4193736538291L562.7149640260417,344.2286065071821L563.0475496764323,347.7531470954418L563.3766688681641,348.7199176326394L566.3899609501954,320.3012217991054L567.0785875413411,351.45470260083675L567.4102984778647,299.1649398803711L567.8520937744141,343.5201816856861L568.5296406565756,333.2736807912588L568.8687056689453,307.97249937802553L569.6240372916667,224.96073322743177L569.8522404205729,-17.250235691666603L570.1904955126954,358.2688499838114L572.0899528736979,330.26637936383486L572.5244588880208,353.5869500823319L573.4155007473959,311.9029425866902L573.5250343616536,344.2150537148118L574.5197136158855,332.37463208287954L575.1994958779296,345.3869208358228L575.3083491591798,343.0557352155447L575.4203773277995,320.82643112540245L575.7488485833334,341.0475203618407L576.4232853717448,347.7942127585411L577.3157850875651,337.17663921788335L578.2082200097657,334.0667368322611L578.6577581438803,325.02780378237367L578.8797734820964,346.6319379247725L579.8820335898438,343.5270212814212L580.4412025286459,313.53943875432014L581.1163844436849,277.67827263474464L581.7834347594402,295.02524296194315L582.5722322867839,344.5635290108621L584.564214936849,337.5796557255089L586.6628478850912,333.74699626490474L587.111997257487,357.7624460346997L587.54339317806,346.38653407245874L589.4481636158855,352.10973082482815L590.1409046018881,324.1411421857774L590.7961624788412,343.2207983955741L591.1209728948568,-1536.4070572853088L593.1314865201824,338.1249905973673L593.579761178711,346.8165016770363L594.3519067457682,330.89392982795835L594.6752917021486,350.4382853060961L595.906111303711,346.6881644576788L597.0321596220704,347.7752458713949L597.1450625045574,328.5985151529312L597.477939726237,351.58466194197536L600.0641122666016,350.17094418779016L601.7489083652345,346.80835595726967L601.8595434710287,346.8716257289052L603.3009747337239,355.56805935129523L603.9688025729167,350.2927226983011L604.1888741025391,351.4981347359717L604.3012910328777,351.4887109808624L604.9798746129558,339.83008636534214L606.1025212662761,333.17836182564497L606.4341026155599,360.2716718092561L606.7802301324871,355.08797450363636L606.8928414436849,337.6099072434008L607.3482434003906,356.73484944179654L608.4739029570312,326.4944757372141L609.9014035914714,275.40845377743244L610.0065960332031,328.7796942181885L611.9193036894532,349.66125386208296L613.136937789388,351.63609935343266L614.1168440983073,352.4407770894468L614.6815528916015,358.3193604685366L615.2436051464845,303.78196193277836L615.9029774182943,-456.6508365571497L616.88398521875,48.28856831789017L617.7789470921225,328.155577596277L618.8044357125651,337.7923011444509L620.0355144886069,338.8914255835116L620.6002556787109,303.446597032249L620.9336188525391,332.4046308025718L622.7417496064453,351.0941000133753L623.6381045426433,303.2629812732339L624.0789603317057,278.2613376379013L624.4228200719401,339.70476165786386L624.7588073873698,-785.1628273129462L624.8727469677735,343.37541258335114L625.7673200794271,334.007048368454L625.9923483209636,347.06698958203197L627.1959546022136,343.97059083357453L628.1072768645834,351.2490863762796L629.3313255328777,305.9918395280838L629.7824511106771,328.33851220458746L630.6609230078126,308.9288349673152L633.2342016178386,345.2334933951497L633.9074073274741,338.04193936660886L634.3679603769532,353.4008765630424L636.0018934840496,352.6235291212797L636.6621080729167,342.54312366619706L637.0036028460287,327.2060745805502L637.2447646988933,346.96705002710223L638.032007179362,354.59793221578L638.3685776373699,353.1945019438863L640.1908334003906,326.97270673140883L640.6646043483073,302.3352821022272L640.7761789615886,283.6262912526727L641.1058812958985,342.2583745829761L642.5822687164714,332.7771991714835L642.806325053711,324.5869026556611L643.0335886751302,340.6977670304477L643.4889258382161,63.553871870040894L643.9582584231771,351.8397002145648L644.1855868382162,341.5675613693893L645.0815206158854,335.57334388047457L646.1882928323569,344.82207134738564L647.7801748802084,341.86111625656486L648.1036894238282,344.9542918279767L648.4419769127604,315.1977808997035L650.3110460660807,324.2892608642578L651.994157530599,335.7273401170969L652.5538448183594,-636.2036790847777L652.6658405901693,327.0225009545684L653.1092557272136,346.5359658971429L653.5611588284505,347.92457938566804L653.6672259840494,342.83073077350855L653.9941745895183,337.5791501291096L654.5399636458334,335.0885190665722L654.6528989251302,339.5745003633201L655.7749300390625,316.36069475114346L656.6621166780599,346.7268285378814L657.1054670214844,312.5198053047061L657.3248906149089,344.07609897106886L657.9957637542318,351.8048561960459L658.8916975319011,339.0132392048836L658.9994169248047,340.9225186742842L659.657752498698,349.05859699845314L660.0006079378256,336.1518866047263L661.5350504417318,353.79725009575486L661.8623554121094,349.5593551211059L661.973832834961,338.9671245999634L662.3068396438803,-51.2040955722332L664.3216944417318,334.88592237606645L664.7692563704427,347.6995398327708L665.5368987809245,337.0506052710116L666.215028805664,309.73642690479755L666.6795990595703,-106.79166698455802L666.789813006836,334.4853776730597L668.2190954658204,344.5235236957669L669.106217311198,319.4704286046326L669.782014765625,328.4579523317516L670.1144060351563,343.0432076603174L670.440123561849,288.94020771980286L670.6604542659505,323.10549818351865L670.887005157552,355.5551806874573L672.6343594960938,333.0298007503152L672.8582538492839,254.97376410663128L673.0837356461589,-315.8966752290725L673.1956342275391,307.99625538662076L673.3054918098959,321.0003913976252L674.0872268326824,346.91166615486145L674.188726038086,337.4511359296739L676.1844991149089,327.59441474825144L676.5197089069011,332.39408349990845L678.4095444153646,348.6723143272102L681.2063934104818,327.6129603050649L682.6887742408854,293.0361565053463L682.9075175013021,342.48845605552197L685.0103944316406,332.48776629939675L685.4712066555991,208.75308225303888L686.2554362327475,354.15596371889114L686.7048447796224,317.65018325671554L687.2637869407553,348.46872048825026L690.4920966500652,347.93450873717666L690.7122329733073,333.8982678987086L691.813918890625,339.7907902896404L691.9254287102865,347.5139438211918L695.4747584088542,320.11716364324093L698.1405947047526,345.0585149079561L699.4721035914714,346.12841306626797L699.6937949615887,321.8520895987749L700.2274352141927,333.037953492254L701.3424038235677,340.3401980213821L701.6815660263672,341.7003225572407L701.7907108789063,330.5472873188555L702.6552521477865,304.4475374594331L702.8799240244141,343.6806242763996L703.432905172526,340.0375564433634L704.1226656520183,338.1265144087374L706.4522878548178,332.9953640177846L707.5823209807943,334.4151629731059L708.0203582473958,337.3580008596182L708.4689892708334,337.83668127283454L709.2360161419272,341.128486007452L709.6873037037761,342.7677208222449L709.801470061849,286.4735292866826L710.0180427360027,299.0816288292408L710.1248226214193,328.0226057432592L711.4619037594401,286.35729829221964L712.4522418411459,342.5881147235632L713.6965709124349,323.45916286483407L714.9104793792318,340.1600441932678L715.1387473017579,346.0311278924346L715.6967823522136,328.7323086000979L715.9210006735026,323.03712329268456L716.4796836601563,343.7310013398528L717.1340020296225,325.8963411524892L717.9178428450522,356.1928009465337L718.3661822972006,355.03174797073007L720.7107718261718,329.95106276497245L722.3990667802735,347.71159690245986L722.5120668531902,338.6225817203522L722.9746609016927,331.126349683851L723.4112727086589,337.40445955097675L723.748685483724,328.63080310076475L726.0901325221355,340.6938486583531L726.8796751761067,125.45743776857853L727.1034723388673,302.98549311608076L727.3310275315755,329.5792808793485L729.6678418261719,353.5924554653466L729.770442523112,345.56894958391786L730.1034169352214,354.13847851008177L730.326857733073,-2183.883244037628L730.775909915039,343.7304816991091L730.8863506399739,332.5042332932353L731.4369668209636,303.3678082600236L731.6630317604167,223.68533822149038L731.8875740498047,333.4507378414273L732.4284063942058,335.5288865081966L734.5257110732422,314.3085842989385L735.1932797379558,350.48401369154453L735.4175952496745,350.9466554634273L735.7491765989585,356.99544225260615L736.7590175602214,335.609690643847L737.979243404948,324.0560966581106L738.9592469042968,314.7973134405911L739.069979200521,354.95166009664536L739.5215583336588,351.9781282953918L740.6190002688802,340.6400798857212L741.389137233724,308.29121470823884L741.8154144583334,332.20727265253663L742.602041399414,350.72566770389676L743.710822218099,346.5388309434056L743.9356236819663,361.80257557332516L744.0421119960938,338.6487393118441L744.4876329257812,292.08229272067547L744.7025857594401,351.5275716818869L744.927192842448,342.4280162192881L745.0364996790365,352.1400736309588L745.2713117571616,330.3822592496872L746.484377906901,351.88805489242077L749.3782877444662,346.95235964283347L750.2711114283854,357.81398877874017L750.6048633639323,346.9719444811344L750.8302155735678,333.33065869659185L750.9405915048828,344.228437975049L751.7260521608073,348.3722217977047L752.1783764205729,340.1132835485041L752.3884373359375,340.13118306547403L752.7181720670574,326.0761368498206L754.8348176416016,349.95305320620537L755.5907648037111,293.9707654938102L755.8116786503906,319.9337374828756L756.14779555306,341.84334313869476L757.256511578125,332.8912603147328L758.6048020123698,-6.09211640059948L762.7588505644532,346.6394727155566L767.1187160498047,347.7021591030061L768.2344297858073,354.8288703933358L769.7660213704428,335.63251270353794L770.3266805625001,318.29492399841547L770.556211960612,335.8954158090055L772.0044141565755,336.2642413601279L773.7874373828125,340.1274894028902L774.123489491862,329.678286485374L774.9212609355469,314.65812696516514L775.2494082229817,354.6506546847522L776.0143293014323,326.1182488165796L776.7828788225912,342.31068976596L777.1285203873698,285.8554376885295L777.9043591907553,334.8909572735429L778.2420635371094,344.9209154434502L779.0187770543621,346.60355430468917L779.2406628053386,357.903626807034L779.5684537278646,326.7594152726233L779.679348008138,347.91322453320026L779.789756336263,342.07488522306085L779.8931669534505,352.242836099118L780.6770725625,353.6552898623049L781.4513887158204,350.60511105135083L782.4483357467448,341.2854175120592L782.898003468099,315.4819892756641L783.3483515224609,346.55861942470074L785.5294667486979,338.1431007795036L786.8623686982422,333.07760067656636L788.0853158750001,350.23753544688225L789.9845140615234,300.2139821872115L791.0758977932943,342.1034443974495L791.8495012167969,333.6298453658819L792.1764498222657,329.0694641545415L793.271429599935,350.5106207020581L793.3781446917318,348.00049608945847L793.6121144527996,332.06985576450825L794.2704176298828,339.31878094002604L795.0396798808595,333.3455035686493L797.92257480306,345.79042187333107L800.7191646236979,338.2109279409051L802.3008740732422,353.39266062155366L802.8627967408855,256.32254081219435L803.1977149615886,348.9434965737164L804.1045340673828,323.09519665688276L804.7725562874349,334.34022235125303L805.9814756455079,341.92999674379826L806.9609283990886,-830.9287392497062L807.7499851009114,349.18405512720346L808.4161283059896,339.1429387256503L808.8636254410808,354.0828769505024L809.0810728291016,332.5785278752446L809.1847750175782,335.7098338417709L812.5197350250651,344.67483044043183L812.9622754482423,-235.20730996131888L813.0748219658203,345.71935046836734L813.8514382926433,326.5792474001646L813.9602915738932,335.04585937038064L815.8275789026693,334.13091246411204L816.4884414277344,329.7431222014129L816.7102299882813,348.40078097209334L816.8328195169271,331.61907444149256L818.0619220875652,341.3945842012763L818.4059114150391,340.3080996721983L819.9685391435547,290.20636154711246L820.4127965976563,321.9357306919992L820.6356218561198,351.1632824540138L821.962659983073,325.29373344406486L822.8498790188803,340.7080615349114L823.4153005419922,336.557417050004L823.6291518841145,316.11883007362485L823.8465344785157,339.85226940736175L826.7244078951823,358.0308615453541L828.6091247076823,352.32732687518L829.9320484397787,335.58073822781444L830.0449837190755,324.79546819254756L830.8015140237632,324.4287563152611L831.4746549397787,137.59515008330345L832.4723147005209,317.54028626158834L832.5861570904949,-465.22333586215956L833.039842016276,344.56322003528476L833.4810865670573,338.1100052818656L833.9262511318359,342.6135279648006L834.2580916555991,351.67433508113027L834.4736924254557,350.32781249284744L835.0374293144532,333.33846735209227L835.9382226136067,351.6976978480816L837.9281318678386,334.3139524050057L839.0178957591146,342.20980221778154L839.2530965989585,336.137441996485L841.3881111647136,356.43776240199804L842.2994334270834,311.9014889970422L842.4115587861329,344.785485830158L842.7388637565105,335.54675793647766L844.2638139951172,345.75240383297205L845.8159775540365,333.2721640020609L846.2614336901041,312.8155440874398L846.3731702874348,349.1570408307016L846.4845505198568,348.6670687645674L847.926953686849,337.09214844182134L848.5959154143881,344.4448262117803L849.1594255257162,335.82550306245685L849.2675660771484,337.5315959788859L849.4911364622396,214.57735615223646L849.8221022721355,326.0612428225577L850.047422084961,344.62411631271243L850.3728156435548,162.53436660766602L851.5853958411459,338.50849248841405L854.5109897587892,355.463611561805L856.5138577369792,337.4609529264271L858.1879952851564,347.4571133814752L858.5167257151693,341.0645491294563L858.6385053235678,336.8272650837898L859.0880434576823,327.1986170336604L859.310836319336,349.4497249685228L860.4204594550781,326.75928185135126L861.9600530517579,332.3547663576901L863.5204777972006,350.4822019711137L863.9667762503256,274.9957466721535L864.3039298509116,328.95313484966755L864.418549764323,332.42613269388676L867.4464528076172,344.03135368973017L868.1270449899089,342.2408612854779L868.4504299462891,325.06462805345654L869.437269172526,351.30032716691494L870.1034447744141,323.1138194575906L870.6556483990886,351.21217081695795L870.764048125,343.0128929428756L870.8733873583985,338.1601014584303L871.1032103277995,342.13469306379557L872.100189755534,338.2375209070742L872.4337473102214,340.4495964422822L872.6616264710286,361.42276032269L873.1086052571616,339.58963314443827L874.4429650631511,280.0180463716388L874.6606392288412,331.802900865674L874.984153772461,334.053092751652L875.5338304459636,341.26091013103724L875.9810684065756,338.7313902787864L877.7509061311849,352.0330276377499L877.8609904912109,333.72175857797265L878.3092975465495,325.48388684540987L879.2965579313152,171.31090214848518L881.774103968099,334.80373487249017" style="fill: none;" fill="none"></path></g></g></g></g></g></g><g transform="translate(41, 377)" clip-path="url(#clip_1)"><clipPath id="clip_1"><rect width="933" height="23"></rect></clipPath><g><g><line x1="0" y1="0" x2="0" y2="5" style="visibility: inherit;" fill="rgb(0, 0, 0)" stroke="rgb(204, 204, 204)" stroke-width="1px"></line><line x1="116.628515625" y1="0" x2="116.628515625" y2="5" style="visibility: inherit;" fill="rgb(0, 0, 0)" stroke="rgb(204, 204, 204)" stroke-width="1px"></line><line x1="233.25703125" y1="0" x2="233.25703125" y2="5" style="visibility: inherit;" fill="rgb(0, 0, 0)" stroke="rgb(204, 204, 204)" stroke-width="1px"></line><line x1="349.88554687500005" y1="0" x2="349.88554687500005" y2="5" style="visibility: inherit;" fill="rgb(0, 0, 0)" stroke="rgb(204, 204, 204)" stroke-width="1px"></line><line x1="466.5140625" y1="0" x2="466.5140625" y2="5" style="visibility: inherit;" fill="rgb(0, 0, 0)" stroke="rgb(204, 204, 204)" stroke-width="1px"></line><line x1="583.142578125" y1="0" x2="583.142578125" y2="5" style="visibility: inherit;" fill="rgb(0, 0, 0)" stroke="rgb(204, 204, 204)" stroke-width="1px"></line><line x1="699.7710937500001" y1="0" x2="699.7710937500001" y2="5" style="visibility: inherit;" fill="rgb(0, 0, 0)" stroke="rgb(204, 204, 204)" stroke-width="1px"></line><line x1="816.3996093750001" y1="0" x2="816.3996093750001" y2="5" style="visibility: inherit;" fill="rgb(0, 0, 0)" stroke="rgb(204, 204, 204)" stroke-width="1px"></line><line x1="933.028125" y1="0" x2="933.028125" y2="5" style="visibility: inherit;" fill="rgb(0, 0, 0)" stroke="rgb(204, 204, 204)" stroke-width="1px"></line></g><g transform="translate(0, 8)"><text x="0" y="0" dx="0em" dy="0.95em" style="text-anchor: middle; visibility: hidden; font-family: Roboto, sans-serif; font-size: 12px; font-weight: 200;" fill="rgb(255, 255, 255)" stroke="none" stroke-width="1px">-1</text><text x="116.628515625" y="0" dx="0em" dy="0.95em" style="text-anchor: middle; visibility: inherit; font-family: Roboto, sans-serif; font-size: 12px; font-weight: 200;" fill="rgb(255, 255, 255)" stroke="none" stroke-width="1px">0</text><text x="233.25703125" y="0" dx="0em" dy="0.95em" style="text-anchor: middle; visibility: inherit; font-family: Roboto, sans-serif; font-size: 12px; font-weight: 200;" fill="rgb(255, 255, 255)" stroke="none" stroke-width="1px">1</text><text x="349.88554687500005" y="0" dx="0em" dy="0.95em" style="text-anchor: middle; visibility: inherit; font-family: Roboto, sans-serif; font-size: 12px; font-weight: 200;" fill="rgb(255, 255, 255)" stroke="none" stroke-width="1px">2</text><text x="466.5140625" y="0" dx="0em" dy="0.95em" style="text-anchor: middle; visibility: inherit; font-family: Roboto, sans-serif; font-size: 12px; font-weight: 200;" fill="rgb(255, 255, 255)" stroke="none" stroke-width="1px">3</text><text x="583.142578125" y="0" dx="0em" dy="0.95em" style="text-anchor: middle; visibility: inherit; font-family: Roboto, sans-serif; font-size: 12px; font-weight: 200;" fill="rgb(255, 255, 255)" stroke="none" stroke-width="1px">4</text><text x="699.7710937500001" y="0" dx="0em" dy="0.95em" style="text-anchor: middle; visibility: inherit; font-family: Roboto, sans-serif; font-size: 12px; font-weight: 200;" fill="rgb(255, 255, 255)" stroke="none" stroke-width="1px">5</text><text x="816.3996093750001" y="0" dx="0em" dy="0.95em" style="text-anchor: middle; visibility: inherit; font-family: Roboto, sans-serif; font-size: 12px; font-weight: 200;" fill="rgb(255, 255, 255)" stroke="none" stroke-width="1px">6</text><text x="933.028125" y="0" dx="0em" dy="0.95em" style="text-anchor: middle; visibility: hidden; font-family: Roboto, sans-serif; font-size: 12px; font-weight: 200;" fill="rgb(255, 255, 255)" stroke="none" stroke-width="1px">7</text></g><line x1="0" y1="0" x2="933.028125" y2="0" fill="rgb(0, 0, 0)" stroke="rgb(204, 204, 204)" stroke-width="1px"></line></g></g></g></g></svg>