<svg viewBox="0 0 330 200" xmlns="http://www.w3.org/2000/svg"><g><g><g><g><g><line x1="72.34375" y1="177" x2="67.34375" y2="177" style="visibility: inherit;" fill="rgb(0, 0, 0)" stroke="rgb(204, 204, 204)" stroke-width="1px"></line><line x1="72.34375" y1="159.29999955286038" x2="67.34375" y2="159.29999955286038" style="visibility: inherit;" fill="rgb(0, 0, 0)" stroke="rgb(204, 204, 204)" stroke-width="1px"></line><line x1="72.34375" y1="141.59999910572077" x2="67.34375" y2="141.59999910572077" style="visibility: inherit;" fill="rgb(0, 0, 0)" stroke="rgb(204, 204, 204)" stroke-width="1px"></line><line x1="72.34375" y1="123.89999865858114" x2="67.34375" y2="123.89999865858114" style="visibility: inherit;" fill="rgb(0, 0, 0)" stroke="rgb(204, 204, 204)" stroke-width="1px"></line><line x1="72.34375" y1="106.19999821144151" x2="67.34375" y2="106.19999821144151" style="visibility: inherit;" fill="rgb(0, 0, 0)" stroke="rgb(204, 204, 204)" stroke-width="1px"></line><line x1="72.34375" y1="88.4999977643019" x2="67.34375" y2="88.4999977643019" style="visibility: inherit;" fill="rgb(0, 0, 0)" stroke="rgb(204, 204, 204)" stroke-width="1px"></line><line x1="72.34375" y1="70.79999731716227" x2="67.34375" y2="70.79999731716227" style="visibility: inherit;" fill="rgb(0, 0, 0)" stroke="rgb(204, 204, 204)" stroke-width="1px"></line><line x1="72.34375" y1="53.09999687002265" x2="67.34375" y2="53.09999687002265" style="visibility: inherit;" fill="rgb(0, 0, 0)" stroke="rgb(204, 204, 204)" stroke-width="1px"></line><line x1="72.34375" y1="35.39999642288305" x2="67.34375" y2="35.39999642288305" style="visibility: inherit;" fill="rgb(0, 0, 0)" stroke="rgb(204, 204, 204)" stroke-width="1px"></line><line x1="72.34375" y1="17.69999597574341" x2="67.34375" y2="17.69999597574341" style="visibility: inherit;" fill="rgb(0, 0, 0)" stroke="rgb(204, 204, 204)" stroke-width="1px"></line></g><g transform="translate(62.34375, 0)"><text x="0" y="177" dx="0em" dy="0.3em" style="text-anchor: end; visibility: hidden; font-family: Roboto, sans-serif; font-size: 12px; font-weight: 200;" fill="rgb(255, 255, 255)" stroke="none" stroke-width="1px">0</text><text x="0" y="159.29999955286038" dx="0em" dy="0.3em" style="text-anchor: end; visibility: inherit; font-family: Roboto, sans-serif; font-size: 12px; font-weight: 200;" fill="rgb(255, 255, 255)" stroke="none" stroke-width="1px">2e-6</text><text x="0" y="141.59999910572077" dx="0em" dy="0.3em" style="text-anchor: end; visibility: hidden; font-family: Roboto, sans-serif; font-size: 12px; font-weight: 200;" fill="rgb(255, 255, 255)" stroke="none" stroke-width="1px">4e-6</text><text x="0" y="123.89999865858114" dx="0em" dy="0.3em" style="text-anchor: end; visibility: inherit; font-family: Roboto, sans-serif; font-size: 12px; font-weight: 200;" fill="rgb(255, 255, 255)" stroke="none" stroke-width="1px">6e-6</text><text x="0" y="106.19999821144151" dx="0em" dy="0.3em" style="text-anchor: end; visibility: hidden; font-family: Roboto, sans-serif; font-size: 12px; font-weight: 200;" fill="rgb(255, 255, 255)" stroke="none" stroke-width="1px">8e-6</text><text x="0" y="88.4999977643019" dx="0em" dy="0.3em" style="text-anchor: end; visibility: inherit; font-family: Roboto, sans-serif; font-size: 12px; font-weight: 200;" fill="rgb(255, 255, 255)" stroke="none" stroke-width="1px">1e-5</text><text x="0" y="70.79999731716227" dx="0em" dy="0.3em" style="text-anchor: end; visibility: hidden; font-family: Roboto, sans-serif; font-size: 12px; font-weight: 200;" fill="rgb(255, 255, 255)" stroke="none" stroke-width="1px">1.2e-5</text><text x="0" y="53.09999687002265" dx="0em" dy="0.3em" style="text-anchor: end; visibility: inherit; font-family: Roboto, sans-serif; font-size: 12px; font-weight: 200;" fill="rgb(255, 255, 255)" stroke="none" stroke-width="1px">1.4e-5</text><text x="0" y="35.39999642288305" dx="0em" dy="0.3em" style="text-anchor: end; visibility: hidden; font-family: Roboto, sans-serif; font-size: 12px; font-weight: 200;" fill="rgb(255, 255, 255)" stroke="none" stroke-width="1px">1.6e-5</text><text x="0" y="17.69999597574341" dx="0em" dy="0.3em" style="text-anchor: end; visibility: inherit; font-family: Roboto, sans-serif; font-size: 12px; font-weight: 200;" fill="rgb(255, 255, 255)" stroke="none" stroke-width="1px">1.8e-5</text></g><line x1="72.34375" y1="0" x2="72.34375" y2="177" fill="rgb(0, 0, 0)" stroke="rgb(204, 204, 204)" stroke-width="1px"></line></g></g><g transform="translate(72, 0)" clip-path="url(#clip_0)"><clipPath id="clip_0"><rect width="257" height="177"></rect></clipPath><g><g><g><line x1="0" y1="0" x2="0" y2="177" fill="rgb(0, 0, 0)" stroke="rgb(189, 189, 189)" stroke-width="1px" opacity="0.25"></line><line x1="19.81971153846154" y1="0" x2="19.81971153846154" y2="177" fill="rgb(0, 0, 0)" stroke="rgb(189, 189, 189)" stroke-width="1px" opacity="0.25"></line><line x1="39.63942307692308" y1="0" x2="39.63942307692308" y2="177" fill="rgb(0, 0, 0)" stroke="rgb(189, 189, 189)" stroke-width="1px" opacity="0.25"></line><line x1="59.45913461538462" y1="0" x2="59.45913461538462" y2="177" fill="rgb(0, 0, 0)" stroke="rgb(189, 189, 189)" stroke-width="1px" opacity="0.25"></line><line x1="79.27884615384616" y1="0" x2="79.27884615384616" y2="177" fill="rgb(0, 0, 0)" stroke="rgb(189, 189, 189)" stroke-width="1px" opacity="0.25"></line><line x1="99.0985576923077" y1="0" x2="99.0985576923077" y2="177" fill="rgb(0, 0, 0)" stroke="rgb(189, 189, 189)" stroke-width="1px" opacity="0.25"></line><line x1="118.91826923076924" y1="0" x2="118.91826923076924" y2="177" fill="rgb(0, 0, 0)" stroke="rgb(189, 189, 189)" stroke-width="1px" opacity="0.25"></line><line x1="138.73798076923077" y1="0" x2="138.73798076923077" y2="177" fill="rgb(0, 0, 0)" stroke="rgb(189, 189, 189)" stroke-width="1px" opacity="0.25"></line><line x1="158.55769230769232" y1="0" x2="158.55769230769232" y2="177" fill="rgb(0, 0, 0)" stroke="rgb(189, 189, 189)" stroke-width="1px" opacity="0.25"></line><line x1="178.37740384615384" y1="0" x2="178.37740384615384" y2="177" fill="rgb(0, 0, 0)" stroke="rgb(189, 189, 189)" stroke-width="1px" opacity="0.25"></line><line x1="198.1971153846154" y1="0" x2="198.1971153846154" y2="177" fill="rgb(0, 0, 0)" stroke="rgb(189, 189, 189)" stroke-width="1px" opacity="0.25"></line><line x1="218.01682692307693" y1="0" x2="218.01682692307693" y2="177" fill="rgb(0, 0, 0)" stroke="rgb(189, 189, 189)" stroke-width="1px" opacity="0.25"></line><line x1="237.83653846153848" y1="0" x2="237.83653846153848" y2="177" fill="rgb(0, 0, 0)" stroke="rgb(189, 189, 189)" stroke-width="1px" opacity="0.25"></line><line x1="257.65625" y1="0" x2="257.65625" y2="177" fill="rgb(0, 0, 0)" stroke="rgb(189, 189, 189)" stroke-width="1px" opacity="0.25"></line></g><g><line x1="0" y1="177" x2="257.65625" y2="177" fill="rgb(0, 0, 0)" stroke="rgb(189, 189, 189)" stroke-width="1px" opacity="0.25"></line><line x1="0" y1="159.29999955286038" x2="257.65625" y2="159.29999955286038" fill="rgb(0, 0, 0)" stroke="rgb(189, 189, 189)" stroke-width="1px" opacity="0.25"></line><line x1="0" y1="141.59999910572077" x2="257.65625" y2="141.59999910572077" fill="rgb(0, 0, 0)" stroke="rgb(189, 189, 189)" stroke-width="1px" opacity="0.25"></line><line x1="0" y1="123.89999865858114" x2="257.65625" y2="123.89999865858114" fill="rgb(0, 0, 0)" stroke="rgb(189, 189, 189)" stroke-width="1px" opacity="0.25"></line><line x1="0" y1="106.19999821144151" x2="257.65625" y2="106.19999821144151" fill="rgb(0, 0, 0)" stroke="rgb(189, 189, 189)" stroke-width="1px" opacity="0.25"></line><line x1="0" y1="88.4999977643019" x2="257.65625" y2="88.4999977643019" fill="rgb(0, 0, 0)" stroke="rgb(189, 189, 189)" stroke-width="1px" opacity="0.25"></line><line x1="0" y1="70.79999731716227" x2="257.65625" y2="70.79999731716227" fill="rgb(0, 0, 0)" stroke="rgb(189, 189, 189)" stroke-width="1px" opacity="0.25"></line><line x1="0" y1="53.09999687002265" x2="257.65625" y2="53.09999687002265" fill="rgb(0, 0, 0)" stroke="rgb(189, 189, 189)" stroke-width="1px" opacity="0.25"></line><line x1="0" y1="35.39999642288305" x2="257.65625" y2="35.39999642288305" fill="rgb(0, 0, 0)" stroke="rgb(189, 189, 189)" stroke-width="1px" opacity="0.25"></line><line x1="0" y1="17.69999597574341" x2="257.65625" y2="17.69999597574341" fill="rgb(0, 0, 0)" stroke="rgb(189, 189, 189)" stroke-width="1px" opacity="0.25"></line></g></g></g><g><g><line x1="0" y1="177" x2="257.65625" y2="177" fill="rgb(0, 0, 0)" stroke="rgb(153, 153, 153)" stroke-width="1.5px"></line></g></g><g><g><line x1="19.81971153846154" y1="0" x2="19.81971153846154" y2="177" fill="rgb(0, 0, 0)" stroke="rgb(153, 153, 153)" stroke-width="1.5px"></line></g></g><g><g><g><g><g><path stroke="rgb(255, 112, 67)" stroke-width="2px" d="M19.81971153846154,88.5L20.087828191773504,88.5L20.630860760550213,88.5L20.915372719684825,88.5L20.93476300413996,88.5L21.084313738648504,88.5L21.199042341079064,88.5L21.29412740718483,88.5L21.42464571314103,88.5L21.693511111111114,88.5L21.770598778044874,88.5L22.16971821915064,88.5L22.208113404780985,88.5L22.722429413728634,88.5L22.780765431356837,88.5L22.82103798410791,88.5L22.85822196514423,88.5L23.010459371661327,88.5L23.37357850894765,88.5L23.601196885016023,88.5L23.638843325988244,88.5L24.096392377804488,88.5L24.381592521367523,88.5L24.403041853632477,88.5L24.66929765625,88.5L24.895242367788466,88.5L24.95574754273504,88.5L25.110143095619655,88.5L25.167785423344018,88.5L25.355555168269227,88.5L25.756678602430554,88.5L25.81466226963141,88.5L25.869805111511752,88.5L26.32352785790598,88.5L26.78473805088141,88.5L26.898316008947646,88.5L26.935846834935898,88.5L27.167583306623932,88.5L27.319754647435897,88.5L27.393643633146368,88.5L27.619505762553416,88.5L27.86730721153846,88.5L28.266701926415596,88.5L28.286406022970084,88.5L28.322180602297006,88.5L28.455963655181623,88.5L28.740943579727563,88.5L28.81892863915598,88.5L29.008427103365385,88.5L29.104734385016027,88.5L29.124042087339742,88.5L29.238010934161327,88.5L29.67389594017094,88.5L29.712770102163464,88.5L29.73193466212607,88.5L29.808069881810894,88.5L30.113623768028845,88.5L30.20544959268162,88.5L30.240211164529914,88.5L30.469194898504274,88.5L30.545093382745726,88.5L30.65589107572115,88.5L31.184190992254276,88.5L31.261003385416668,88.5L31.299299472489317,88.5L31.925525280448717,88.5L32.07749291866987,88.5L32.18921002604167,88.5L32.208275487446585,88.5L32.47466342147436,88.5L32.64937417868589,88.5L32.802965932158116,88.5L33.91244585670406,88.5L33.986417424545934,88.5L34.35031283386752,88.5L34.72551098424145,88.5L34.933441780181624,88.5L34.952033770699785,88.5L35.063508637152786,88.5L35.177477483974364,88.5L35.48036672008548,88.5L35.49924499532586,88.5L35.537452994791664,88.5L35.76542922676282,88.5L36.01374819043803,88.5L36.4881715244391,88.5L36.65409003739317,88.5L36.747710647035255,88.5L37.03345032719017,88.5L37.31787970419337,88.5L37.868146467681626,88.5L38.09541799879808,88.5L38.228022879941236,88.5L39.180800457398504,88.5L39.238349192040594,88.5L39.27716829927885,88.5L39.48352452924679,88.5L39.619487750400644,88.5L39.69336021968483,88.5L39.728991656650635,88.5L39.898565805288456,88.5L40.49293142694978,88.5L40.762699722889955,88.5L40.7812696915064,88.5L40.895926722756414,88.5L41.06789575320513,88.5L41.2937028278579,88.5L41.37092262620193,88.5L41.407611114449786,88.5L41.502145633012816,88.5L41.53978106303419,88.5L41.73002827190171,88.5L41.80631213942307,88.5L41.941416506410256,88.5L42.20900463408119,88.5L42.30277939703525,88.5L42.32207058293269,88.5L42.54710689102564,88.5L42.733643409455134,88.5L42.77109165331197,88.5L42.922855588942305,88.5L43.09483563034188,88.5L43.11305875400641,88.5L43.566396117120725,88.5L43.697189696848284,88.5L44.08997784121261,88.5L44.185371213942304,88.5L44.20471745459402,88.5L44.24015619991987,88.5L44.29652676282052,88.5L44.37152785456731,88.5L44.48410381610577,88.5L44.56198427150107,88.5L44.65689866786859,88.5L45.07638286258013,88.5L45.5857109107906,88.5L45.96109624732906,88.5L46.24937945713141,88.5L46.32427043936966,88.5L46.533142671607905,88.5L46.55285227363782,88.5L47.565006403579055,88.5L47.96483054553952,88.5L47.98448509281517,88.5L48.323660917467954,88.5L48.34301816907051,88.5L48.64569819711539,88.5L48.683041836939104,88.5L49.02467310363247,88.5L49.175798404113245,88.5L49.325117908653844,88.5L49.38213261217948,88.5L49.43998414797008,88.5L49.666534461805554,88.5L50.042250126869654,88.5L50.09961167534721,88.5L50.3640451655983,88.5L50.41962294003739,88.5L50.51794522569445,88.5L50.74609763287927,88.5L50.95664352964744,88.5L51.05352338074252,88.5L51.09137902978099,88.5L51.541000196981834,88.5L51.693529393696586,88.5L52.356317063969016,88.5L52.52745476762821,88.5L52.64245864383013,88.5L52.963884815705136,88.5L53.00226899038462,88.5L53.0559088374733,88.5L53.13108610443377,88.5L53.264604894497865,88.5L54.00245421674679,88.5L54.57603116319444,88.5L54.61334177016559,88.5L54.845325988247865,88.5L54.90175160590278,88.5L55.05526077724359,88.5L55.94821035323183,88.5L56.02480252737715,88.5L56.19624853766026,88.5L56.3275816539797,88.5L56.727147038595085,88.5L56.93658633480234,88.5L56.99313307291666,88.5L57.106248571047004,88.5L57.12557278979701,88.5L57.408328502270294,88.5L57.63323267895299,88.5L57.70647201856304,88.5L57.802267290998934,88.5L57.83968800747864,88.5L58.087511478365386,88.5L58.10627964409722,88.5L58.20173908253205,88.5L58.40810632345085,88.5L58.44670521167201,88.5L60.166769888488254,88.5L60.33703222155448,88.5L60.525033196447644,88.5L60.96520696781517,88.5L61.226491326121796,88.5L61.24524297542735,88.5L61.32097629540598,88.5L61.33978850494124,88.5L61.46798900574253,88.5L61.694374155315174,88.5L62.266998654513884,88.5L62.73281693042201,88.5L63.018875928151715,88.5L63.133577003205126,88.5L63.591043472889965,88.5L63.685776188568376,88.5L64.38428888888889,88.5L65.04514964276176,88.5L65.1042564269498,88.5L65.53792272636218,88.5L65.86123727630876,88.5L66.43005198651174,88.5L66.52538479901175,88.5L67.31805764556624,88.5L67.41369325921474,88.5L67.89020316840278,88.5L68.04363526308761,88.5L68.09881664329593,88.5L68.47315043402779,88.5L68.71557853899573,88.5L68.81299242120726,88.5L69.0781471287393,88.5L69.11572199853099,88.5L69.28507042267628,88.5L69.3239831229968,88.5L70.00279172676282,88.5L70.2079092247596,88.5L70.22687008213141,88.5L70.41583451522435,88.5L70.62368272903312,88.5L70.75562695312499,88.5L71.00250348223825,88.5L71.15247813835471,88.5L71.30142327056623,88.5L71.37788331330127,88.5L71.45611611912393,88.5L71.81065772569444,88.5L71.95881557491988,88.5L72.03772555422009,88.5L72.17028639155983,88.5L72.2280333233173,88.5L72.26495304153312,88.5L72.31996925747863,88.5L72.3960108840812,88.5L72.5632231837607,88.5L72.67538072916666,88.5L72.77038321314103,88.5L72.84667809161324,88.5L73.07503420138889,88.5L73.0940776408921,88.5L73.16813729634082,88.5L73.26591453993055,88.5L73.28463315638353,88.5L73.52854773971688,88.5L73.54797105702457,88.5L73.5668548377404,88.5L73.6605580295139,88.5L73.75634779647436,88.5L73.81331295072115,88.5L74.00214525240385,88.5L74.13609897502671,88.5L74.88182663261217,88.5L75.29921874666132,88.5L75.48861811231303,88.5L75.81015439369659,88.5L75.82920884415064,88.5L76.88651888354701,88.5L76.94283989716881,88.5L77.19026146834935,88.5L77.52765351896367,88.5L77.58429385016026,88.5L77.7193321514423,88.5L77.7762367454594,88.5L77.92959726896368,88.5L78.176732555422,88.5L78.36424354300215,88.5L78.80092133747328,88.5L79.0832586338141,88.5L79.3305260516827,88.5L80.0147465377938,88.5L80.03353672542734,88.5L80.39472344083866,88.5L80.41631040998931,88.5L80.43545845352564,88.5L80.62345392294337,88.5L80.70020575587606,88.5L80.71913908587074,88.5L80.7377916366186,88.5L80.86901464342948,88.5L81.42690649038462,88.5L81.9626277877938,88.5L82.0588855201656,88.5L82.32704621728098,88.5L82.46188632144765,88.5L82.55890931490386,88.5L82.80824679153312,88.5L82.8661368656517,88.5L83.03664143963675,88.5L83.26134191372863,88.5L83.71602261284724,88.5L83.77315293135683,88.5L84.49062648904915,88.5L85.13355590945513,88.5L85.4330757946047,88.5L85.77290677083332,88.5L85.86950033720619,88.5L85.96285117855234,88.5L85.98232955061431,88.5L86.1326345352564,88.5L86.34180406316773,88.5L86.60736067040598,88.5L86.76013761351496,88.5L86.91042057625533,88.5L87.42069006076389,88.5L87.83770229700855,88.5L87.85670169270833,88.5L87.8748532451923,88.5L88.22368567374465,88.5L88.26153031183226,88.5L88.39639243790064,88.5L88.89241375200321,88.5L89.23182080662393,88.5L89.64332206196582,88.5L89.69978621794871,88.5L89.83364084201389,88.5L90.06274569644766,88.5L90.29183403445514,88.5L90.53849034455128,88.5L90.5567299846421,88.5L90.59529033453525,88.5L90.85726838274574,88.5L91.31330342881945,88.5L91.36906288394765,88.5L91.4090711738782,88.5L91.44754894163997,88.5L91.50484992988783,88.5L91.57895362913996,88.5L91.63563800413995,88.5L91.99764503538997,88.5L92.18711597222223,88.5L92.41039052817841,88.5L92.50669780982906,88.5L93.03449122262286,88.5L93.05350713474894,88.5L93.09385676415599,88.5L93.18837476629274,88.5L93.20769347956731,88.5L93.33988545005342,88.5L93.37731717748397,88.5L93.7414988715278,88.5L93.76021748798078,88.5L93.83482769097223,88.5L93.8921286792201,88.5L94.3271493255876,88.5L95.22190469751602,88.5L95.26220477764421,88.5L95.45543044871795,88.5L95.62711319444443,88.5L96.25163781049679,88.5L96.4250327590812,88.5L96.5001164329594,88.5L96.6152524405716,88.5L96.84001347489315,88.5L96.89749614383014,88.5L97.22028767361111,88.5L97.46416371861645,88.5L97.6331983306624,88.5L97.74871972155448,88.5L98.33641270699788,88.5L98.3741417301015,88.5L98.54446462339745,88.5L98.75422874265492,88.5L98.86758648170405,88.5L99.0016337974092,88.5L99.69678815771901,88.5L100.17012140758547,88.5L100.2878449886485,88.5L100.3991987346421,88.5L100.45439663127671,88.5L100.8722401943109,88.5L101.05841335136219,88.5L101.53469203058226,88.5L101.97418312299679,88.5L102.26049537259615,88.5L102.52425168936965,88.5L102.63774155982907,88.5L103.00034318242523,88.5L103.05669172342414,88.5L103.11551222288996,88.5L103.21203972355768,88.5L103.66379701522435,88.5L104.36228769364317,88.5L104.45825914129273,88.5L104.55376812900641,88.5L104.66582107037928,88.5L105.46407096354167,88.5L105.5207223056891,88.5L105.82799390024037,88.5L105.98031939436432,88.5L106.05523790397969,88.5L106.34215575587606,88.5L106.38039678819445,88.5L106.58493621127137,88.5L106.73980523504274,88.5L106.94781861311432,88.5L107.17377433560364,88.5L107.61106874332266,88.5L107.725472522703,88.5L108.2926190738515,88.5L108.48360401642628,88.5L108.79327049278845,88.5L109.2763649505876,88.5L109.35374440771902,88.5L109.47213415130877,88.5L109.62438807425212,88.5L110.08299417735043,88.5L110.13797185496794,88.5L110.19546002938034,88.5L110.89422598157051,88.5L110.98861185229701,88.5L111.06540772903313,88.5L111.08343265558227,88.5L111.23174465811967,88.5L111.44161338141025,88.5L111.59238082598823,88.5L111.66772325721153,88.5L111.70501184228098,88.5L111.81901922743056,88.5L111.97127865584935,88.5L111.98957885616987,88.5L112.15972006877672,88.5L112.42048140691773,88.5L112.55164385349893,88.5L112.97009852430554,88.5L113.10055076455663,88.5L113.2157913762019,88.5L113.29473989383011,88.5L113.31346952123397,88.5L113.8219607371795,88.5L113.8784469150641,88.5L113.93379896501068,88.5L114.00974149305556,88.5L114.30669032118057,88.5L114.34473315638354,88.5L114.3830512653579,88.5L114.40206717748397,88.5L114.42073624465813,88.5L114.57083202123397,88.5L115.28811288728632,88.5L115.76341159188033,88.5L116.05249309561965,88.5L116.40985901108441,88.5L116.48816338808761,88.5L116.62143443175748,88.5L116.69781189236113,88.5L116.79279235443377,88.5L117.37881718082265,88.5L117.58498622462606,88.5L118.18815510149572,88.5L118.64118415798612,88.5L118.90513316639957,88.5L118.9958193576389,88.5L119.24293262219553,88.5L119.26148056891026,88.5L119.40840519163996,88.5L119.44658015825321,88.5L119.54055311832265,88.5L120.24569991653313,88.5L120.32014495526174,88.5L120.39637927350428,88.5L120.60341818242522,88.5L120.62282498330663,88.5L120.65962358106304,88.5L120.67776962807157,88.5L121.28474829393696,88.5L121.49103845819978,88.5L121.52983003806091,88.5L121.62466185229701,88.5L121.6627652477297,88.5L121.75770717147437,88.5L121.86890125868057,88.5L122.0021062366453,88.5L122.47673327323717,88.5L122.76364011418269,88.5L122.93565318843481,88.5L122.99299271501069,88.5L123.5631012119391,88.5L123.99888711939101,88.5L124.01632296006945,88.5L124.07290823651175,88.5L124.1108795005342,88.5L124.18719089543269,88.5L124.29953012152778,88.5L124.82442765424679,88.5L124.97599339276175,88.5L125.41131684027778,88.5L125.57785747195511,88.5L125.59667518696581,88.5L125.85991949452458,88.5L125.99079015090813,88.5L126.38533454193376,88.5L126.55387366119123,88.5L126.61061859642095,88.5L126.65052228231838,88.5L127.50018230502137,88.5L127.59520130542202,88.5L127.613958460203,88.5L127.74743320646367,88.5L127.82430065438034,88.5L127.85999815705128,88.5L128.2757331229968,88.5L128.68727291666667,88.5L129.62233387419874,88.5L130.55284730902778,88.5L130.8131241653312,88.5L131.1935139790331,88.5L131.8749542000534,88.5L132.00556059361645,88.5L132.19614363648506,88.5L132.42323899238784,88.5L132.47893788728632,88.5L132.51654578993055,88.5L132.53411926749465,88.5L132.96834161992518,88.5L133.12128923277243,88.5L133.92628333333334,88.5L134.5659645232372,88.5L134.807605345219,88.5L134.82574038127672,88.5L134.86550092481303,88.5L136.34205842347754,88.5L136.43755089476494,88.5L136.4944664997329,88.5L136.64857026241987,88.5L136.96753548677884,88.5L137.13398252537394,88.5L137.26807388488248,88.5L137.38127747061966,88.5L137.49427735376602,88.5L137.51190038060898,88.5L138.17297034254807,88.5L138.3234459969284,88.5L138.75307678285256,88.5L138.7907672676282,88.5L138.81159998664532,88.5L139.34448045873398,88.5L139.41997704326926,88.5L139.45784370325853,88.5L139.8341319377671,88.5L139.93021900040065,88.5L139.9665606436966,88.5L140.0035023838141,88.5L140.4925647769765,88.5L141.1854233540331,88.5L141.2998161224626,88.5L141.48870347889957,88.5L141.5658021567842,88.5L141.64078673210471,88.5L141.90526977163464,88.5L142.05834951589208,88.5L142.58170551549145,88.5L142.62167526709402,88.5L142.98449710870727,88.5L143.13936613247864,88.5L143.1584205829327,88.5L143.21404240117522,88.5L143.47319063501604,88.5L143.73696346821583,88.5L143.81266375534187,88.5L143.85057996461006,88.5L144.09570024706196,88.5L144.30514504874466,88.5L144.32352232572114,88.5L144.41775954861112,88.5L144.45605013020833,88.5L144.51134712540065,88.5L145.2145835236378,88.5L145.55494853098293,88.5L145.91601412593482,88.5L146.0302637520032,88.5L146.21883179086538,88.5L146.48047400507477,88.5L146.82149416399574,88.5L146.87878414129273,88.5L146.89826251335472,88.5L147.52847979099892,88.5L147.58344095219016,88.5L147.75113773370725,88.5L147.86434682491986,88.5L147.95818765357905,88.5L148.2036712974092,88.5L148.2990866920406,88.5L148.60179975293804,88.5L148.69376871995192,88.5L148.78718012152777,88.5L148.86318320980234,88.5L149.1639473323985,88.5L149.4266135650374,88.5L150.03764976629273,88.5L150.26617654580662,88.5L150.49663024172008,88.5L151.16373420472758,88.5L151.29800173944977,88.5L151.39117090010686,88.5L151.4314819911859,88.5L151.4690403445513,88.5L151.58354872796474,88.5L151.65829106236646,88.5L151.96234745926816,88.5L152.17374119925213,88.5L152.45805496127136,88.5L152.6308718349359,88.5L152.94822946047012,88.5L153.30716994190703,88.5L153.49138865518165,88.5L153.6045316806891,88.5L153.69749713875535,88.5L153.73368462873933,88.5L153.84635418336006,88.5L154.0162751769498,88.5L154.32308431156517,88.5L155.06095565571582,88.5L155.09668068576389,88.5L155.15263833800748,88.5L155.3594680388622,88.5L155.49105440705128,88.5L156.2026921607906,88.5L156.7442657785791,88.5L156.84245042735043,88.5L156.8814952590812,88.5L156.93869714877135,88.5L157.25832853565703,88.5L157.44912629206732,88.5L157.46600607972758,88.5L157.74712666599893,88.5L157.93856856303418,88.5L158.5630271133814,88.5L158.99666588541666,88.5L159.13037736712073,88.5L159.18750768563032,88.5L159.29780438034186,88.5L160.0101853732639,88.5L160.2583391726763,88.5L160.2774817107372,88.5L160.3146051315438,88.5L160.4297191172543,88.5L160.4873999833066,88.5L160.8344211104434,88.5L161.1745108440171,88.5L161.6241375166934,88.5L161.70217763087606,88.5L161.92662485309828,88.5L162.09628708934295,88.5L162.6212892260951,88.5L162.73147581129805,88.5L163.4510084168002,88.5L163.52807956730766,88.5L163.56575353565702,88.5L163.8135164463141,88.5L163.90756648303952,88.5L163.99978870192308,88.5L164.07518618790064,88.5L164.26355052417202,88.5L164.4149786258013,88.5L165.01895680755877,88.5L165.15273986044338,88.5L165.3608193042201,88.5L165.37983521634615,88.5L165.43708114983974,88.5L165.49414540264422,88.5L165.91084933226495,88.5L165.98657164129273,88.5L166.02158095953524,88.5L166.25248610443376,88.5L166.700863034188,88.5L166.9251891359509,88.5L167.072647789797,88.5L167.18616518763352,88.5L167.39659546941772,88.5L167.54400457398506,88.5L167.5821575186966,88.5L167.69394619724892,88.5L167.8105026175214,88.5L168.33875298477565,88.5L168.47146797542737,88.5L168.50936766826925,88.5L168.54659018763357,88.5L168.60372050614313,88.5L169.18842401842952,88.5L169.2046541599893,88.5L169.29682132411858,88.5L169.56241646968482,88.5L169.60063548010154,88.5L169.61950274439104,88.5L170.98550479099893,88.5L171.0954050914797,88.5L171.15225463074253,88.5L171.64568286591881,88.5L171.66382891292733,88.5L171.7199352130075,88.5L171.74127994123933,88.5L172.36966940104165,88.5L172.38877340077457,88.5L172.88159603365384,88.5L173.20234503205128,88.5L173.2789592280983,88.5L173.43208852163463,88.5L173.52463005809298,88.5L173.54246229300216,88.5L173.6566128205128,88.5L174.0338149639423,88.5L174.27819751268697,88.5L174.38961181891028,88.5L174.69069525908122,88.5L174.8599831229968,88.5L174.8981085403312,88.5L174.91705838675216,88.5L175.99637931690705,88.5L176.748851181891,88.5L177.02999379006408,88.5L177.04952171140494,88.5L177.08734983306624,88.5L177.35582434228098,88.5L177.50750019030448,88.5L177.9366630108173,88.5L177.95592666933763,88.5L178.291606517094,88.5L178.78599821047007,88.5L178.93722260950855,88.5L179.16500064436434,88.5L179.20254248130342,88.5L179.56098196447647,88.5L179.57847285990917,88.5L179.97585257077992,88.5L180.1073123130342,88.5L180.26187303018162,88.5L180.28050906450324,88.5L180.560952477297,88.5L180.8060837706998,88.5L180.8243839710203,88.5L181.2981246260684,88.5L181.71120044738248,88.5L181.82638049879807,88.5L181.88142424212074,88.5L181.90076497729703,88.5L181.97522653245193,88.5L182.06897927350425,88.5L182.1630293102297,88.5L183.07374505542205,88.5L183.12854655782584,88.5L183.3353927751068,88.5L183.5087436798878,88.5L183.83259776642626,88.5L184.22086591546477,88.5L184.48498008814104,88.5L184.58033492254276,88.5L184.96139640424678,88.5L185.35918352029913,88.5L185.4361720886752,88.5L186.00515196314103,88.5L186.25254600694444,88.5L186.5768680588942,88.5L186.74496674011752,88.5L186.9203877036592,88.5L187.09048487246264,88.5L187.20446473023503,88.5L187.2224235910791,88.5L187.37206241319447,88.5L188.0897341680021,88.5L188.18343185430024,88.5L188.41108326322117,88.5L188.45138334334936,88.5L188.4695844451122,88.5L188.581147399172,88.5L189.1832757411859,88.5L189.25790246060362,88.5L189.8477701088408,88.5L189.9594706997863,88.5L190.20613802083335,88.5L190.30164700854698,88.5L190.41651324786326,88.5L191.03439275507478,88.5L191.1863934261485,88.5L191.22412244925215,88.5L191.64428932291665,88.5L191.68142375467414,88.5L191.86992022235577,88.5L192.080763414797,88.5L192.1571904246795,88.5L192.32947877270297,88.5L192.48457352096688,88.5L192.5428544838408,88.5L192.7342193042201,88.5L193.34567942708335,88.5L193.43958081597222,88.5L193.57356206597223,88.5L193.7826875500801,88.5L193.8976859208066,88.5L194.02893094951924,88.5L194.33355441038992,88.5L194.41032275974894,88.5L194.77239035122864,88.5L195.2708285690438,88.5L195.34637470285793,88.5L195.51638378405448,88.5L195.62943872195513,88.5L195.64842160122862,88.5L195.7265773303953,88.5L196.02776537459934,88.5L196.5393671841613,88.5L196.8382043903579,88.5L197.0102725193643,88.5L197.1434609809028,88.5L197.23928378071582,88.5L198.36724008079594,88.5L198.44332024572648,88.5L199.0375427250267,88.5L199.1912500934829,88.5L199.21046970819978,88.5L199.2484189503205,88.5L199.2674513788729,88.5L199.7062763087607,88.5L199.76291663995727,88.5L199.821478382078,88.5L199.95329598023503,88.5L200.01046483707265,88.5L200.1055499031784,88.5L200.18234577991453,88.5L200.356797779781,88.5L200.37520258413463,88.5L200.45088084935895,88.5L200.60413126335467,88.5L200.94504681824253,88.5L200.96424991653313,88.5L201.68444317908654,88.5L201.9124469384348,88.5L201.94876655982907,88.5L202.08490595619656,88.5L202.27732782785793,88.5L202.29664654113247,88.5L202.37187335737178,88.5L202.40932160122864,88.5L202.4877415932158,88.5L202.544712252938,88.5L202.71603163728633,88.5L202.8478106971154,88.5L202.9818690237714,88.5L203.09924025440702,88.5L203.11908749332267,88.5L203.2305678652511,88.5L203.32458486912395,88.5L203.5141714209402,88.5L203.70573994391026,88.5L203.81862421207265,88.5L204.10517870259082,88.5L204.71484404046475,88.5L204.77305893763355,88.5L204.81036403912927,88.5L205.0598061197917,88.5L205.21449896834937,88.5L205.3301524906517,88.5L205.36802465611646,88.5L205.6715029780983,88.5L205.69059596688032,88.5L205.70974401041667,88.5L205.74762168135686,88.5L206.27404423076925,88.5L206.6166829994658,88.5L206.78631770833334,88.5L206.96027421541132,88.5L207.149943349359,88.5L207.24301341145835,88.5L207.65463028178416,88.5L207.80452235576922,88.5L207.9158705962874,88.5L208.1628352130075,88.5L208.78493191439637,88.5L209.0705339576656,88.5L209.127906517094,88.5L209.146702210203,88.5L209.2029901909722,88.5L209.37243771367523,88.5L209.44809395699784,88.5L209.52437782451923,88.5L209.75082903979703,88.5L209.77018078592414,88.5L209.90311599559294,88.5L210.35623313969018,88.5L210.39287207865917,88.5L210.67352469951922,88.5L210.69260117187503,88.5L210.80805099158655,88.5L210.86459772970085,88.5L211.2569894798344,88.5L211.566815614984,88.5L211.62349448450854,88.5L211.754711985844,88.5L212.03780353231838,88.5L212.2458829760951,88.5L212.49000126201923,88.5L212.73767608506947,88.5L213.0572689336271,88.5L213.1913217548077,88.5L213.54605054754273,88.5L213.5652866786859,88.5L213.6993505108173,88.5L213.75517603165062,88.5L213.8106051582532,88.5L213.97976639623397,88.5L213.99884286858972,88.5L214.355146227297,88.5L214.5059356937767,88.5L214.5816029480502,88.5L214.6002775206998,88.5L214.61886951121798,88.5L214.73066920072117,88.5L214.8077733840812,88.5L215.05253581063033,88.5L215.14536913728634,88.5L215.1643244891827,88.5L215.31517451589212,88.5L215.42680353565706,88.5L216.75044645432692,88.5L217.25652627203525,88.5L218.06918949986647,88.5L218.14671209935895,88.5L218.1654582431891,88.5L218.39233338007477,88.5L218.94200004674147,88.5L219.07108142361113,88.5L219.35731659655448,88.5L219.3942748530983,88.5L219.71815096153844,88.5L219.84632944043804,88.5L219.88457597823185,88.5L220.0361637386485,88.5L220.8738273303953,88.5L220.9882421207265,88.5L221.08255091479703,88.5L221.38660731169873,88.5L221.51937735710467,88.5L222.14319727230233,88.5L222.256367825187,88.5L222.31278793736647,88.5L222.33193598090278,88.5L222.90438430488783,88.5L223.26442588141026,88.5L223.4393623631143,88.5L223.6484382979434,88.5L224.22009383346688,88.5L224.33210823651174,88.5L224.3512067307692,88.5L224.38935967548076,88.5L224.46385426348823,88.5L225.32996464676813,88.5L225.52129092881947,88.5L225.84486423611114,88.5L226.2776496594551,88.5L226.46874471153845,88.5L226.5649914329594,88.5L226.65981774172008,88.5L226.88369239449787,88.5L227.03844580328527,88.5L227.31907089676815,88.5L227.66183078592417,88.5L227.71828943643163,88.5L227.77500133880878,88.5L228.0193563601763,88.5L228.21178373731306,88.5L228.25007431891024,88.5L228.58978417467947,88.5L229.4325403311966,88.5L229.62318393429487,88.5L229.7544509849092,88.5L229.84929381009613,88.5L230.1540438969017,88.5L230.28396761151174,88.5L230.302779821047,88.5L230.49335185296474,88.5L230.5309872829861,88.5L230.64470287793804,88.5L231.11805264423077,88.5L231.24808096287396,88.5L231.36129555956197,88.5L231.82396470352563,88.5L232.22732336071047,88.5L232.66083000133546,88.5L232.83177501335473,88.5L232.8499981370192,88.5L233.26159298544337,88.5L233.33774472155446,88.5L233.4704376903045,88.5" style="fill: none;" fill="none"></path></g></g></g></g><g opacity="0.2"><g><g><g><path stroke="rgb(255, 112, 67)" stroke-width="2px" d="M19.81971153846154,88.5L20.087828191773504,88.5L20.630860760550213,88.5L20.915372719684825,88.5L20.93476300413996,88.5L21.084313738648504,88.5L21.199042341079064,88.5L21.29412740718483,88.5L21.42464571314103,88.5L21.693511111111114,88.5L21.770598778044874,88.5L22.16971821915064,88.5L22.208113404780985,88.5L22.722429413728634,88.5L22.780765431356837,88.5L22.82103798410791,88.5L22.85822196514423,88.5L23.010459371661327,88.5L23.37357850894765,88.5L23.601196885016023,88.5L23.638843325988244,88.5L24.096392377804488,88.5L24.381592521367523,88.5L24.403041853632477,88.5L24.66929765625,88.5L24.895242367788466,88.5L24.95574754273504,88.5L25.110143095619655,88.5L25.167785423344018,88.5L25.355555168269227,88.5L25.756678602430554,88.5L25.81466226963141,88.5L25.869805111511752,88.5L26.32352785790598,88.5L26.78473805088141,88.5L26.898316008947646,88.5L26.935846834935898,88.5L27.167583306623932,88.5L27.319754647435897,88.5L27.393643633146368,88.5L27.619505762553416,88.5L27.86730721153846,88.5L28.266701926415596,88.5L28.286406022970084,88.5L28.322180602297006,88.5L28.455963655181623,88.5L28.740943579727563,88.5L28.81892863915598,88.5L29.008427103365385,88.5L29.104734385016027,88.5L29.124042087339742,88.5L29.238010934161327,88.5L29.67389594017094,88.5L29.712770102163464,88.5L29.73193466212607,88.5L29.808069881810894,88.5L30.113623768028845,88.5L30.20544959268162,88.5L30.240211164529914,88.5L30.469194898504274,88.5L30.545093382745726,88.5L30.65589107572115,88.5L31.184190992254276,88.5L31.261003385416668,88.5L31.299299472489317,88.5L31.925525280448717,88.5L32.07749291866987,88.5L32.18921002604167,88.5L32.208275487446585,88.5L32.47466342147436,88.5L32.64937417868589,88.5L32.802965932158116,88.5L33.91244585670406,88.5L33.986417424545934,88.5L34.35031283386752,88.5L34.72551098424145,88.5L34.933441780181624,88.5L34.952033770699785,88.5L35.063508637152786,88.5L35.177477483974364,88.5L35.48036672008548,88.5L35.49924499532586,88.5L35.537452994791664,88.5L35.76542922676282,88.5L36.01374819043803,88.5L36.4881715244391,88.5L36.65409003739317,88.5L36.747710647035255,88.5L37.03345032719017,88.5L37.31787970419337,88.5L37.868146467681626,88.5L38.09541799879808,88.5L38.228022879941236,88.5L39.180800457398504,88.5L39.238349192040594,88.5L39.27716829927885,88.5L39.48352452924679,88.5L39.619487750400644,88.5L39.69336021968483,88.5L39.728991656650635,88.5L39.898565805288456,88.5L40.49293142694978,88.5L40.762699722889955,88.5L40.7812696915064,88.5L40.895926722756414,88.5L41.06789575320513,88.5L41.2937028278579,88.5L41.37092262620193,88.5L41.407611114449786,88.5L41.502145633012816,88.5L41.53978106303419,88.5L41.73002827190171,88.5L41.80631213942307,88.5L41.941416506410256,88.5L42.20900463408119,88.5L42.30277939703525,88.5L42.32207058293269,88.5L42.54710689102564,88.5L42.733643409455134,88.5L42.77109165331197,88.5L42.922855588942305,88.5L43.09483563034188,88.5L43.11305875400641,88.5L43.566396117120725,88.5L43.697189696848284,88.5L44.08997784121261,88.5L44.185371213942304,88.5L44.20471745459402,88.5L44.24015619991987,88.5L44.29652676282052,88.5L44.37152785456731,88.5L44.48410381610577,88.5L44.56198427150107,88.5L44.65689866786859,88.5L45.07638286258013,88.5L45.5857109107906,88.5L45.96109624732906,88.5L46.24937945713141,88.5L46.32427043936966,88.5L46.533142671607905,88.5L46.55285227363782,88.5L47.565006403579055,88.5L47.96483054553952,88.5L47.98448509281517,88.5L48.323660917467954,88.5L48.34301816907051,88.5L48.64569819711539,88.5L48.683041836939104,88.5L49.02467310363247,88.5L49.175798404113245,88.5L49.325117908653844,88.5L49.38213261217948,88.5L49.43998414797008,88.5L49.666534461805554,88.5L50.042250126869654,88.5L50.09961167534721,88.5L50.3640451655983,88.5L50.41962294003739,88.5L50.51794522569445,88.5L50.74609763287927,88.5L50.95664352964744,88.5L51.05352338074252,88.5L51.09137902978099,88.5L51.541000196981834,88.5L51.693529393696586,88.5L52.356317063969016,88.5L52.52745476762821,88.5L52.64245864383013,88.5L52.963884815705136,88.5L53.00226899038462,88.5L53.0559088374733,88.5L53.13108610443377,88.5L53.264604894497865,88.5L54.00245421674679,88.5L54.57603116319444,88.5L54.61334177016559,88.5L54.845325988247865,88.5L54.90175160590278,88.5L55.05526077724359,88.5L55.94821035323183,88.5L56.02480252737715,88.5L56.19624853766026,88.5L56.3275816539797,88.5L56.727147038595085,88.5L56.93658633480234,88.5L56.99313307291666,88.5L57.106248571047004,88.5L57.12557278979701,88.5L57.408328502270294,88.5L57.63323267895299,88.5L57.70647201856304,88.5L57.802267290998934,88.5L57.83968800747864,88.5L58.087511478365386,88.5L58.10627964409722,88.5L58.20173908253205,88.5L58.40810632345085,88.5L58.44670521167201,88.5L60.166769888488254,88.5L60.33703222155448,88.5L60.525033196447644,88.5L60.96520696781517,88.5L61.226491326121796,88.5L61.24524297542735,88.5L61.32097629540598,88.5L61.33978850494124,88.5L61.46798900574253,88.5L61.694374155315174,88.5L62.266998654513884,88.5L62.73281693042201,88.5L63.018875928151715,88.5L63.133577003205126,88.5L63.591043472889965,88.5L63.685776188568376,88.5L64.38428888888889,88.5L65.04514964276176,88.5L65.1042564269498,88.5L65.53792272636218,88.5L65.86123727630876,88.5L66.43005198651174,88.5L66.52538479901175,88.5L67.31805764556624,88.5L67.41369325921474,88.5L67.89020316840278,88.5L68.04363526308761,88.5L68.09881664329593,88.5L68.47315043402779,88.5L68.71557853899573,88.5L68.81299242120726,88.5L69.0781471287393,88.5L69.11572199853099,88.5L69.28507042267628,88.5L69.3239831229968,88.5L70.00279172676282,88.5L70.2079092247596,88.5L70.22687008213141,88.5L70.41583451522435,88.5L70.62368272903312,88.5L70.75562695312499,88.5L71.00250348223825,88.5L71.15247813835471,88.5L71.30142327056623,88.5L71.37788331330127,88.5L71.45611611912393,88.5L71.81065772569444,88.5L71.95881557491988,88.5L72.03772555422009,88.5L72.17028639155983,88.5L72.2280333233173,88.5L72.26495304153312,88.5L72.31996925747863,88.5L72.3960108840812,88.5L72.5632231837607,88.5L72.67538072916666,88.5L72.77038321314103,88.5L72.84667809161324,88.5L73.07503420138889,88.5L73.0940776408921,88.5L73.16813729634082,88.5L73.26591453993055,88.5L73.28463315638353,88.5L73.52854773971688,88.5L73.54797105702457,88.5L73.5668548377404,88.5L73.6605580295139,88.5L73.75634779647436,88.5L73.81331295072115,88.5L74.00214525240385,88.5L74.13609897502671,88.5L74.88182663261217,88.5L75.29921874666132,88.5L75.48861811231303,88.5L75.81015439369659,88.5L75.82920884415064,88.5L76.88651888354701,88.5L76.94283989716881,88.5L77.19026146834935,88.5L77.52765351896367,88.5L77.58429385016026,88.5L77.7193321514423,88.5L77.7762367454594,88.5L77.92959726896368,88.5L78.176732555422,88.5L78.36424354300215,88.5L78.80092133747328,88.5L79.0832586338141,88.5L79.3305260516827,88.5L80.0147465377938,88.5L80.03353672542734,88.5L80.39472344083866,88.5L80.41631040998931,88.5L80.43545845352564,88.5L80.62345392294337,88.5L80.70020575587606,88.5L80.71913908587074,88.5L80.7377916366186,88.5L80.86901464342948,88.5L81.42690649038462,88.5L81.9626277877938,88.5L82.0588855201656,88.5L82.32704621728098,88.5L82.46188632144765,88.5L82.55890931490386,88.5L82.80824679153312,88.5L82.8661368656517,88.5L83.03664143963675,88.5L83.26134191372863,88.5L83.71602261284724,88.5L83.77315293135683,88.5L84.49062648904915,88.5L85.13355590945513,88.5L85.4330757946047,88.5L85.77290677083332,88.5L85.86950033720619,88.5L85.96285117855234,88.5L85.98232955061431,88.5L86.1326345352564,88.5L86.34180406316773,88.5L86.60736067040598,88.5L86.76013761351496,88.5L86.91042057625533,88.5L87.42069006076389,88.5L87.83770229700855,88.5L87.85670169270833,88.5L87.8748532451923,88.5L88.22368567374465,88.5L88.26153031183226,88.5L88.39639243790064,88.5L88.89241375200321,88.5L89.23182080662393,88.5L89.64332206196582,88.5L89.69978621794871,88.5L89.83364084201389,88.5L90.06274569644766,88.5L90.29183403445514,88.5L90.53849034455128,88.5L90.5567299846421,88.5L90.59529033453525,88.5L90.85726838274574,88.5L91.31330342881945,88.5L91.36906288394765,88.5L91.4090711738782,88.5L91.44754894163997,88.5L91.50484992988783,88.5L91.57895362913996,88.5L91.63563800413995,88.5L91.99764503538997,88.5L92.18711597222223,88.5L92.41039052817841,88.5L92.50669780982906,88.5L93.03449122262286,88.5L93.05350713474894,88.5L93.09385676415599,88.5L93.18837476629274,88.5L93.20769347956731,88.5L93.33988545005342,88.5L93.37731717748397,88.5L93.7414988715278,88.5L93.76021748798078,88.5L93.83482769097223,88.5L93.8921286792201,88.5L94.3271493255876,88.5L95.22190469751602,88.5L95.26220477764421,88.5L95.45543044871795,88.5L95.62711319444443,88.5L96.25163781049679,88.5L96.4250327590812,88.5L96.5001164329594,88.5L96.6152524405716,88.5L96.84001347489315,88.5L96.89749614383014,88.5L97.22028767361111,88.5L97.46416371861645,88.5L97.6331983306624,88.5L97.74871972155448,88.5L98.33641270699788,88.5L98.3741417301015,88.5L98.54446462339745,88.5L98.75422874265492,88.5L98.86758648170405,88.5L99.0016337974092,88.5L99.69678815771901,88.5L100.17012140758547,88.5L100.2878449886485,88.5L100.3991987346421,88.5L100.45439663127671,88.5L100.8722401943109,88.5L101.05841335136219,88.5L101.53469203058226,88.5L101.97418312299679,88.5L102.26049537259615,88.5L102.52425168936965,88.5L102.63774155982907,88.5L103.00034318242523,88.5L103.05669172342414,88.5L103.11551222288996,88.5L103.21203972355768,88.5L103.66379701522435,88.5L104.36228769364317,88.5L104.45825914129273,88.5L104.55376812900641,88.5L104.66582107037928,88.5L105.46407096354167,88.5L105.5207223056891,88.5L105.82799390024037,88.5L105.98031939436432,88.5L106.05523790397969,88.5L106.34215575587606,88.5L106.38039678819445,88.5L106.58493621127137,88.5L106.73980523504274,88.5L106.94781861311432,88.5L107.17377433560364,88.5L107.61106874332266,88.5L107.725472522703,88.5L108.2926190738515,88.5L108.48360401642628,88.5L108.79327049278845,88.5L109.2763649505876,88.5L109.35374440771902,88.5L109.47213415130877,88.5L109.62438807425212,88.5L110.08299417735043,88.5L110.13797185496794,88.5L110.19546002938034,88.5L110.89422598157051,88.5L110.98861185229701,88.5L111.06540772903313,88.5L111.08343265558227,88.5L111.23174465811967,88.5L111.44161338141025,88.5L111.59238082598823,88.5L111.66772325721153,88.5L111.70501184228098,88.5L111.81901922743056,88.5L111.97127865584935,88.5L111.98957885616987,88.5L112.15972006877672,88.5L112.42048140691773,88.5L112.55164385349893,88.5L112.97009852430554,88.5L113.10055076455663,88.5L113.2157913762019,88.5L113.29473989383011,88.5L113.31346952123397,88.5L113.8219607371795,88.5L113.8784469150641,88.5L113.93379896501068,88.5L114.00974149305556,88.5L114.30669032118057,88.5L114.34473315638354,88.5L114.3830512653579,88.5L114.40206717748397,88.5L114.42073624465813,88.5L114.57083202123397,88.5L115.28811288728632,88.5L115.76341159188033,88.5L116.05249309561965,88.5L116.40985901108441,88.5L116.48816338808761,88.5L116.62143443175748,88.5L116.69781189236113,88.5L116.79279235443377,88.5L117.37881718082265,88.5L117.58498622462606,88.5L118.18815510149572,88.5L118.64118415798612,88.5L118.90513316639957,88.5L118.9958193576389,88.5L119.24293262219553,88.5L119.26148056891026,88.5L119.40840519163996,88.5L119.44658015825321,88.5L119.54055311832265,88.5L120.24569991653313,88.5L120.32014495526174,88.5L120.39637927350428,88.5L120.60341818242522,88.5L120.62282498330663,88.5L120.65962358106304,88.5L120.67776962807157,88.5L121.28474829393696,88.5L121.49103845819978,88.5L121.52983003806091,88.5L121.62466185229701,88.5L121.6627652477297,88.5L121.75770717147437,88.5L121.86890125868057,88.5L122.0021062366453,88.5L122.47673327323717,88.5L122.76364011418269,88.5L122.93565318843481,88.5L122.99299271501069,88.5L123.5631012119391,88.5L123.99888711939101,88.5L124.01632296006945,88.5L124.07290823651175,88.5L124.1108795005342,88.5L124.18719089543269,88.5L124.29953012152778,88.5L124.82442765424679,88.5L124.97599339276175,88.5L125.41131684027778,88.5L125.57785747195511,88.5L125.59667518696581,88.5L125.85991949452458,88.5L125.99079015090813,88.5L126.38533454193376,88.5L126.55387366119123,88.5L126.61061859642095,88.5L126.65052228231838,88.5L127.50018230502137,88.5L127.59520130542202,88.5L127.613958460203,88.5L127.74743320646367,88.5L127.82430065438034,88.5L127.85999815705128,88.5L128.2757331229968,88.5L128.68727291666667,88.5L129.62233387419874,88.5L130.55284730902778,88.5L130.8131241653312,88.5L131.1935139790331,88.5L131.8749542000534,88.5L132.00556059361645,88.5L132.19614363648506,88.5L132.42323899238784,88.5L132.47893788728632,88.5L132.51654578993055,88.5L132.53411926749465,88.5L132.96834161992518,88.5L133.12128923277243,88.5L133.92628333333334,88.5L134.5659645232372,88.5L134.807605345219,88.5L134.82574038127672,88.5L134.86550092481303,88.5L136.34205842347754,88.5L136.43755089476494,88.5L136.4944664997329,88.5L136.64857026241987,88.5L136.96753548677884,88.5L137.13398252537394,88.5L137.26807388488248,88.5L137.38127747061966,88.5L137.49427735376602,88.5L137.51190038060898,88.5L138.17297034254807,88.5L138.3234459969284,88.5L138.75307678285256,88.5L138.7907672676282,88.5L138.81159998664532,88.5L139.34448045873398,88.5L139.41997704326926,88.5L139.45784370325853,88.5L139.8341319377671,88.5L139.93021900040065,88.5L139.9665606436966,88.5L140.0035023838141,88.5L140.4925647769765,88.5L141.1854233540331,88.5L141.2998161224626,88.5L141.48870347889957,88.5L141.5658021567842,88.5L141.64078673210471,88.5L141.90526977163464,88.5L142.05834951589208,88.5L142.58170551549145,88.5L142.62167526709402,88.5L142.98449710870727,88.5L143.13936613247864,88.5L143.1584205829327,88.5L143.21404240117522,88.5L143.47319063501604,88.5L143.73696346821583,88.5L143.81266375534187,88.5L143.85057996461006,88.5L144.09570024706196,88.5L144.30514504874466,88.5L144.32352232572114,88.5L144.41775954861112,88.5L144.45605013020833,88.5L144.51134712540065,88.5L145.2145835236378,88.5L145.55494853098293,88.5L145.91601412593482,88.5L146.0302637520032,88.5L146.21883179086538,88.5L146.48047400507477,88.5L146.82149416399574,88.5L146.87878414129273,88.5L146.89826251335472,88.5L147.52847979099892,88.5L147.58344095219016,88.5L147.75113773370725,88.5L147.86434682491986,88.5L147.95818765357905,88.5L148.2036712974092,88.5L148.2990866920406,88.5L148.60179975293804,88.5L148.69376871995192,88.5L148.78718012152777,88.5L148.86318320980234,88.5L149.1639473323985,88.5L149.4266135650374,88.5L150.03764976629273,88.5L150.26617654580662,88.5L150.49663024172008,88.5L151.16373420472758,88.5L151.29800173944977,88.5L151.39117090010686,88.5L151.4314819911859,88.5L151.4690403445513,88.5L151.58354872796474,88.5L151.65829106236646,88.5L151.96234745926816,88.5L152.17374119925213,88.5L152.45805496127136,88.5L152.6308718349359,88.5L152.94822946047012,88.5L153.30716994190703,88.5L153.49138865518165,88.5L153.6045316806891,88.5L153.69749713875535,88.5L153.73368462873933,88.5L153.84635418336006,88.5L154.0162751769498,88.5L154.32308431156517,88.5L155.06095565571582,88.5L155.09668068576389,88.5L155.15263833800748,88.5L155.3594680388622,88.5L155.49105440705128,88.5L156.2026921607906,88.5L156.7442657785791,88.5L156.84245042735043,88.5L156.8814952590812,88.5L156.93869714877135,88.5L157.25832853565703,88.5L157.44912629206732,88.5L157.46600607972758,88.5L157.74712666599893,88.5L157.93856856303418,88.5L158.5630271133814,88.5L158.99666588541666,88.5L159.13037736712073,88.5L159.18750768563032,88.5L159.29780438034186,88.5L160.0101853732639,88.5L160.2583391726763,88.5L160.2774817107372,88.5L160.3146051315438,88.5L160.4297191172543,88.5L160.4873999833066,88.5L160.8344211104434,88.5L161.1745108440171,88.5L161.6241375166934,88.5L161.70217763087606,88.5L161.92662485309828,88.5L162.09628708934295,88.5L162.6212892260951,88.5L162.73147581129805,88.5L163.4510084168002,88.5L163.52807956730766,88.5L163.56575353565702,88.5L163.8135164463141,88.5L163.90756648303952,88.5L163.99978870192308,88.5L164.07518618790064,88.5L164.26355052417202,88.5L164.4149786258013,88.5L165.01895680755877,88.5L165.15273986044338,88.5L165.3608193042201,88.5L165.37983521634615,88.5L165.43708114983974,88.5L165.49414540264422,88.5L165.91084933226495,88.5L165.98657164129273,88.5L166.02158095953524,88.5L166.25248610443376,88.5L166.700863034188,88.5L166.9251891359509,88.5L167.072647789797,88.5L167.18616518763352,88.5L167.39659546941772,88.5L167.54400457398506,88.5L167.5821575186966,88.5L167.69394619724892,88.5L167.8105026175214,88.5L168.33875298477565,88.5L168.47146797542737,88.5L168.50936766826925,88.5L168.54659018763357,88.5L168.60372050614313,88.5L169.18842401842952,88.5L169.2046541599893,88.5L169.29682132411858,88.5L169.56241646968482,88.5L169.60063548010154,88.5L169.61950274439104,88.5L170.98550479099893,88.5L171.0954050914797,88.5L171.15225463074253,88.5L171.64568286591881,88.5L171.66382891292733,88.5L171.7199352130075,88.5L171.74127994123933,88.5L172.36966940104165,88.5L172.38877340077457,88.5L172.88159603365384,88.5L173.20234503205128,88.5L173.2789592280983,88.5L173.43208852163463,88.5L173.52463005809298,88.5L173.54246229300216,88.5L173.6566128205128,88.5L174.0338149639423,88.5L174.27819751268697,88.5L174.38961181891028,88.5L174.69069525908122,88.5L174.8599831229968,88.5L174.8981085403312,88.5L174.91705838675216,88.5L175.99637931690705,88.5L176.748851181891,88.5L177.02999379006408,88.5L177.04952171140494,88.5L177.08734983306624,88.5L177.35582434228098,88.5L177.50750019030448,88.5L177.9366630108173,88.5L177.95592666933763,88.5L178.291606517094,88.5L178.78599821047007,88.5L178.93722260950855,88.5L179.16500064436434,88.5L179.20254248130342,88.5L179.56098196447647,88.5L179.57847285990917,88.5L179.97585257077992,88.5L180.1073123130342,88.5L180.26187303018162,88.5L180.28050906450324,88.5L180.560952477297,88.5L180.8060837706998,88.5L180.8243839710203,88.5L181.2981246260684,88.5L181.71120044738248,88.5L181.82638049879807,88.5L181.88142424212074,88.5L181.90076497729703,88.5L181.97522653245193,88.5L182.06897927350425,88.5L182.1630293102297,88.5L183.07374505542205,88.5L183.12854655782584,88.5L183.3353927751068,88.5L183.5087436798878,88.5L183.83259776642626,88.5L184.22086591546477,88.5L184.48498008814104,88.5L184.58033492254276,88.5L184.96139640424678,88.5L185.35918352029913,88.5L185.4361720886752,88.5L186.00515196314103,88.5L186.25254600694444,88.5L186.5768680588942,88.5L186.74496674011752,88.5L186.9203877036592,88.5L187.09048487246264,88.5L187.20446473023503,88.5L187.2224235910791,88.5L187.37206241319447,88.5L188.0897341680021,88.5L188.18343185430024,88.5L188.41108326322117,88.5L188.45138334334936,88.5L188.4695844451122,88.5L188.581147399172,88.5L189.1832757411859,88.5L189.25790246060362,88.5L189.8477701088408,88.5L189.9594706997863,88.5L190.20613802083335,88.5L190.30164700854698,88.5L190.41651324786326,88.5L191.03439275507478,88.5L191.1863934261485,88.5L191.22412244925215,88.5L191.64428932291665,88.5L191.68142375467414,88.5L191.86992022235577,88.5L192.080763414797,88.5L192.1571904246795,88.5L192.32947877270297,88.5L192.48457352096688,88.5L192.5428544838408,88.5L192.7342193042201,88.5L193.34567942708335,88.5L193.43958081597222,88.5L193.57356206597223,88.5L193.7826875500801,88.5L193.8976859208066,88.5L194.02893094951924,88.5L194.33355441038992,88.5L194.41032275974894,88.5L194.77239035122864,88.5L195.2708285690438,88.5L195.34637470285793,88.5L195.51638378405448,88.5L195.62943872195513,88.5L195.64842160122862,88.5L195.7265773303953,88.5L196.02776537459934,88.5L196.5393671841613,88.5L196.8382043903579,88.5L197.0102725193643,88.5L197.1434609809028,88.5L197.23928378071582,88.5L198.36724008079594,88.5L198.44332024572648,88.5L199.0375427250267,88.5L199.1912500934829,88.5L199.21046970819978,88.5L199.2484189503205,88.5L199.2674513788729,88.5L199.7062763087607,88.5L199.76291663995727,88.5L199.821478382078,88.5L199.95329598023503,88.5L200.01046483707265,88.5L200.1055499031784,88.5L200.18234577991453,88.5L200.356797779781,88.5L200.37520258413463,88.5L200.45088084935895,88.5L200.60413126335467,88.5L200.94504681824253,88.5L200.96424991653313,88.5L201.68444317908654,88.5L201.9124469384348,88.5L201.94876655982907,88.5L202.08490595619656,88.5L202.27732782785793,88.5L202.29664654113247,88.5L202.37187335737178,88.5L202.40932160122864,88.5L202.4877415932158,88.5L202.544712252938,88.5L202.71603163728633,88.5L202.8478106971154,88.5L202.9818690237714,88.5L203.09924025440702,88.5L203.11908749332267,88.5L203.2305678652511,88.5L203.32458486912395,88.5L203.5141714209402,88.5L203.70573994391026,88.5L203.81862421207265,88.5L204.10517870259082,88.5L204.71484404046475,88.5L204.77305893763355,88.5L204.81036403912927,88.5L205.0598061197917,88.5L205.21449896834937,88.5L205.3301524906517,88.5L205.36802465611646,88.5L205.6715029780983,88.5L205.69059596688032,88.5L205.70974401041667,88.5L205.74762168135686,88.5L206.27404423076925,88.5L206.6166829994658,88.5L206.78631770833334,88.5L206.96027421541132,88.5L207.149943349359,88.5L207.24301341145835,88.5L207.65463028178416,88.5L207.80452235576922,88.5L207.9158705962874,88.5L208.1628352130075,88.5L208.78493191439637,88.5L209.0705339576656,88.5L209.127906517094,88.5L209.146702210203,88.5L209.2029901909722,88.5L209.37243771367523,88.5L209.44809395699784,88.5L209.52437782451923,88.5L209.75082903979703,88.5L209.77018078592414,88.5L209.90311599559294,88.5L210.35623313969018,88.5L210.39287207865917,88.5L210.67352469951922,88.5L210.69260117187503,88.5L210.80805099158655,88.5L210.86459772970085,88.5L211.2569894798344,88.5L211.566815614984,88.5L211.62349448450854,88.5L211.754711985844,88.5L212.03780353231838,88.5L212.2458829760951,88.5L212.49000126201923,88.5L212.73767608506947,88.5L213.0572689336271,88.5L213.1913217548077,88.5L213.54605054754273,88.5L213.5652866786859,88.5L213.6993505108173,88.5L213.75517603165062,88.5L213.8106051582532,88.5L213.97976639623397,88.5L213.99884286858972,88.5L214.355146227297,88.5L214.5059356937767,88.5L214.5816029480502,88.5L214.6002775206998,88.5L214.61886951121798,88.5L214.73066920072117,88.5L214.8077733840812,88.5L215.05253581063033,88.5L215.14536913728634,88.5L215.1643244891827,88.5L215.31517451589212,88.5L215.42680353565706,88.5L216.75044645432692,88.5L217.25652627203525,88.5L218.06918949986647,88.5L218.14671209935895,88.5L218.1654582431891,88.5L218.39233338007477,88.5L218.94200004674147,88.5L219.07108142361113,88.5L219.35731659655448,88.5L219.3942748530983,88.5L219.71815096153844,88.5L219.84632944043804,88.5L219.88457597823185,88.5L220.0361637386485,88.5L220.8738273303953,88.5L220.9882421207265,88.5L221.08255091479703,88.5L221.38660731169873,88.5L221.51937735710467,88.5L222.14319727230233,88.5L222.256367825187,88.5L222.31278793736647,88.5L222.33193598090278,88.5L222.90438430488783,88.5L223.26442588141026,88.5L223.4393623631143,88.5L223.6484382979434,88.5L224.22009383346688,88.5L224.33210823651174,88.5L224.3512067307692,88.5L224.38935967548076,88.5L224.46385426348823,88.5L225.32996464676813,88.5L225.52129092881947,88.5L225.84486423611114,88.5L226.2776496594551,88.5L226.46874471153845,88.5L226.5649914329594,88.5L226.65981774172008,88.5L226.88369239449787,88.5L227.03844580328527,88.5L227.31907089676815,88.5L227.66183078592417,88.5L227.71828943643163,88.5L227.77500133880878,88.5L228.0193563601763,88.5L228.21178373731306,88.5L228.25007431891024,88.5L228.58978417467947,88.5L229.4325403311966,88.5L229.62318393429487,88.5L229.7544509849092,88.5L229.84929381009613,88.5L230.1540438969017,88.5L230.28396761151174,88.5L230.302779821047,88.5L230.49335185296474,88.5L230.5309872829861,88.5L230.64470287793804,88.5L231.11805264423077,88.5L231.24808096287396,88.5L231.36129555956197,88.5L231.82396470352563,88.5L232.22732336071047,88.5L232.66083000133546,88.5L232.83177501335473,88.5L232.8499981370192,88.5L233.26159298544337,88.5L233.33774472155446,88.5L233.4704376903045,88.5" style="fill: none;" fill="none"></path></g></g></g></g></g></g><g transform="translate(72, 177)" clip-path="url(#clip_1)"><clipPath id="clip_1"><rect width="257" height="23"></rect></clipPath><g><g><line x1="0" y1="0" x2="0" y2="5" style="visibility: inherit;" fill="rgb(0, 0, 0)" stroke="rgb(204, 204, 204)" stroke-width="1px"></line><line x1="19.81971153846154" y1="0" x2="19.81971153846154" y2="5" style="visibility: inherit;" fill="rgb(0, 0, 0)" stroke="rgb(204, 204, 204)" stroke-width="1px"></line><line x1="39.63942307692308" y1="0" x2="39.63942307692308" y2="5" style="visibility: inherit;" fill="rgb(0, 0, 0)" stroke="rgb(204, 204, 204)" stroke-width="1px"></line><line x1="59.45913461538462" y1="0" x2="59.45913461538462" y2="5" style="visibility: inherit;" fill="rgb(0, 0, 0)" stroke="rgb(204, 204, 204)" stroke-width="1px"></line><line x1="79.27884615384616" y1="0" x2="79.27884615384616" y2="5" style="visibility: inherit;" fill="rgb(0, 0, 0)" stroke="rgb(204, 204, 204)" stroke-width="1px"></line><line x1="99.0985576923077" y1="0" x2="99.0985576923077" y2="5" style="visibility: inherit;" fill="rgb(0, 0, 0)" stroke="rgb(204, 204, 204)" stroke-width="1px"></line><line x1="118.91826923076924" y1="0" x2="118.91826923076924" y2="5" style="visibility: inherit;" fill="rgb(0, 0, 0)" stroke="rgb(204, 204, 204)" stroke-width="1px"></line><line x1="138.73798076923077" y1="0" x2="138.73798076923077" y2="5" style="visibility: inherit;" fill="rgb(0, 0, 0)" stroke="rgb(204, 204, 204)" stroke-width="1px"></line><line x1="158.55769230769232" y1="0" x2="158.55769230769232" y2="5" style="visibility: inherit;" fill="rgb(0, 0, 0)" stroke="rgb(204, 204, 204)" stroke-width="1px"></line><line x1="178.37740384615384" y1="0" x2="178.37740384615384" y2="5" style="visibility: inherit;" fill="rgb(0, 0, 0)" stroke="rgb(204, 204, 204)" stroke-width="1px"></line><line x1="198.1971153846154" y1="0" x2="198.1971153846154" y2="5" style="visibility: inherit;" fill="rgb(0, 0, 0)" stroke="rgb(204, 204, 204)" stroke-width="1px"></line><line x1="218.01682692307693" y1="0" x2="218.01682692307693" y2="5" style="visibility: inherit;" fill="rgb(0, 0, 0)" stroke="rgb(204, 204, 204)" stroke-width="1px"></line><line x1="237.83653846153848" y1="0" x2="237.83653846153848" y2="5" style="visibility: inherit;" fill="rgb(0, 0, 0)" stroke="rgb(204, 204, 204)" stroke-width="1px"></line><line x1="257.65625" y1="0" x2="257.65625" y2="5" style="visibility: inherit;" fill="rgb(0, 0, 0)" stroke="rgb(204, 204, 204)" stroke-width="1px"></line></g><g transform="translate(0, 8)"><text x="0" y="0" dx="0em" dy="0.95em" style="text-anchor: middle; visibility: hidden; font-family: Roboto, sans-serif; font-size: 12px; font-weight: 200;" fill="rgb(255, 255, 255)" stroke="none" stroke-width="1px">-1</text><text x="19.81971153846154" y="0" dx="0em" dy="0.95em" style="text-anchor: middle; visibility: inherit; font-family: Roboto, sans-serif; font-size: 12px; font-weight: 200;" fill="rgb(255, 255, 255)" stroke="none" stroke-width="1px">0</text><text x="39.63942307692308" y="0" dx="0em" dy="0.95em" style="text-anchor: middle; visibility: inherit; font-family: Roboto, sans-serif; font-size: 12px; font-weight: 200;" fill="rgb(255, 255, 255)" stroke="none" stroke-width="1px">1</text><text x="59.45913461538462" y="0" dx="0em" dy="0.95em" style="text-anchor: middle; visibility: inherit; font-family: Roboto, sans-serif; font-size: 12px; font-weight: 200;" fill="rgb(255, 255, 255)" stroke="none" stroke-width="1px">2</text><text x="79.27884615384616" y="0" dx="0em" dy="0.95em" style="text-anchor: middle; visibility: inherit; font-family: Roboto, sans-serif; font-size: 12px; font-weight: 200;" fill="rgb(255, 255, 255)" stroke="none" stroke-width="1px">3</text><text x="99.0985576923077" y="0" dx="0em" dy="0.95em" style="text-anchor: middle; visibility: inherit; font-family: Roboto, sans-serif; font-size: 12px; font-weight: 200;" fill="rgb(255, 255, 255)" stroke="none" stroke-width="1px">4</text><text x="118.91826923076924" y="0" dx="0em" dy="0.95em" style="text-anchor: middle; visibility: inherit; font-family: Roboto, sans-serif; font-size: 12px; font-weight: 200;" fill="rgb(255, 255, 255)" stroke="none" stroke-width="1px">5</text><text x="138.73798076923077" y="0" dx="0em" dy="0.95em" style="text-anchor: middle; visibility: inherit; font-family: Roboto, sans-serif; font-size: 12px; font-weight: 200;" fill="rgb(255, 255, 255)" stroke="none" stroke-width="1px">6</text><text x="158.55769230769232" y="0" dx="0em" dy="0.95em" style="text-anchor: middle; visibility: inherit; font-family: Roboto, sans-serif; font-size: 12px; font-weight: 200;" fill="rgb(255, 255, 255)" stroke="none" stroke-width="1px">7</text><text x="178.37740384615384" y="0" dx="0em" dy="0.95em" style="text-anchor: middle; visibility: inherit; font-family: Roboto, sans-serif; font-size: 12px; font-weight: 200;" fill="rgb(255, 255, 255)" stroke="none" stroke-width="1px">8</text><text x="198.1971153846154" y="0" dx="0em" dy="0.95em" style="text-anchor: middle; visibility: inherit; font-family: Roboto, sans-serif; font-size: 12px; font-weight: 200;" fill="rgb(255, 255, 255)" stroke="none" stroke-width="1px">9</text><text x="218.01682692307693" y="0" dx="0em" dy="0.95em" style="text-anchor: middle; visibility: inherit; font-family: Roboto, sans-serif; font-size: 12px; font-weight: 200;" fill="rgb(255, 255, 255)" stroke="none" stroke-width="1px">10</text><text x="237.83653846153848" y="0" dx="0em" dy="0.95em" style="text-anchor: middle; visibility: inherit; font-family: Roboto, sans-serif; font-size: 12px; font-weight: 200;" fill="rgb(255, 255, 255)" stroke="none" stroke-width="1px">11</text><text x="257.65625" y="0" dx="0em" dy="0.95em" style="text-anchor: middle; visibility: hidden; font-family: Roboto, sans-serif; font-size: 12px; font-weight: 200;" fill="rgb(255, 255, 255)" stroke="none" stroke-width="1px">12</text></g><line x1="0" y1="0" x2="257.65625" y2="0" fill="rgb(0, 0, 0)" stroke="rgb(204, 204, 204)" stroke-width="1px"></line></g></g></g></g></svg>