<svg viewBox="0 0 330 200" xmlns="http://www.w3.org/2000/svg"><g><g><g><g><g><line x1="72.34375" y1="177" x2="67.34375" y2="177" style="visibility: inherit;" fill="rgb(0, 0, 0)" stroke="rgb(204, 204, 204)" stroke-width="1px"></line><line x1="72.34375" y1="159.29999955286038" x2="67.34375" y2="159.29999955286038" style="visibility: inherit;" fill="rgb(0, 0, 0)" stroke="rgb(204, 204, 204)" stroke-width="1px"></line><line x1="72.34375" y1="141.59999910572077" x2="67.34375" y2="141.59999910572077" style="visibility: inherit;" fill="rgb(0, 0, 0)" stroke="rgb(204, 204, 204)" stroke-width="1px"></line><line x1="72.34375" y1="123.89999865858114" x2="67.34375" y2="123.89999865858114" style="visibility: inherit;" fill="rgb(0, 0, 0)" stroke="rgb(204, 204, 204)" stroke-width="1px"></line><line x1="72.34375" y1="106.19999821144151" x2="67.34375" y2="106.19999821144151" style="visibility: inherit;" fill="rgb(0, 0, 0)" stroke="rgb(204, 204, 204)" stroke-width="1px"></line><line x1="72.34375" y1="88.4999977643019" x2="67.34375" y2="88.4999977643019" style="visibility: inherit;" fill="rgb(0, 0, 0)" stroke="rgb(204, 204, 204)" stroke-width="1px"></line><line x1="72.34375" y1="70.79999731716227" x2="67.34375" y2="70.79999731716227" style="visibility: inherit;" fill="rgb(0, 0, 0)" stroke="rgb(204, 204, 204)" stroke-width="1px"></line><line x1="72.34375" y1="53.09999687002265" x2="67.34375" y2="53.09999687002265" style="visibility: inherit;" fill="rgb(0, 0, 0)" stroke="rgb(204, 204, 204)" stroke-width="1px"></line><line x1="72.34375" y1="35.39999642288305" x2="67.34375" y2="35.39999642288305" style="visibility: inherit;" fill="rgb(0, 0, 0)" stroke="rgb(204, 204, 204)" stroke-width="1px"></line><line x1="72.34375" y1="17.69999597574341" x2="67.34375" y2="17.69999597574341" style="visibility: inherit;" fill="rgb(0, 0, 0)" stroke="rgb(204, 204, 204)" stroke-width="1px"></line></g><g transform="translate(62.34375, 0)"><text x="0" y="177" dx="0em" dy="0.3em" style="text-anchor: end; visibility: hidden; font-family: Roboto, sans-serif; font-size: 12px; font-weight: 200;" fill="rgb(255, 255, 255)" stroke="none" stroke-width="1px">0</text><text x="0" y="159.29999955286038" dx="0em" dy="0.3em" style="text-anchor: end; visibility: inherit; font-family: Roboto, sans-serif; font-size: 12px; font-weight: 200;" fill="rgb(255, 255, 255)" stroke="none" stroke-width="1px">2e-6</text><text x="0" y="141.59999910572077" dx="0em" dy="0.3em" style="text-anchor: end; visibility: hidden; font-family: Roboto, sans-serif; font-size: 12px; font-weight: 200;" fill="rgb(255, 255, 255)" stroke="none" stroke-width="1px">4e-6</text><text x="0" y="123.89999865858114" dx="0em" dy="0.3em" style="text-anchor: end; visibility: inherit; font-family: Roboto, sans-serif; font-size: 12px; font-weight: 200;" fill="rgb(255, 255, 255)" stroke="none" stroke-width="1px">6e-6</text><text x="0" y="106.19999821144151" dx="0em" dy="0.3em" style="text-anchor: end; visibility: hidden; font-family: Roboto, sans-serif; font-size: 12px; font-weight: 200;" fill="rgb(255, 255, 255)" stroke="none" stroke-width="1px">8e-6</text><text x="0" y="88.4999977643019" dx="0em" dy="0.3em" style="text-anchor: end; visibility: inherit; font-family: Roboto, sans-serif; font-size: 12px; font-weight: 200;" fill="rgb(255, 255, 255)" stroke="none" stroke-width="1px">1e-5</text><text x="0" y="70.79999731716227" dx="0em" dy="0.3em" style="text-anchor: end; visibility: hidden; font-family: Roboto, sans-serif; font-size: 12px; font-weight: 200;" fill="rgb(255, 255, 255)" stroke="none" stroke-width="1px">1.2e-5</text><text x="0" y="53.09999687002265" dx="0em" dy="0.3em" style="text-anchor: end; visibility: inherit; font-family: Roboto, sans-serif; font-size: 12px; font-weight: 200;" fill="rgb(255, 255, 255)" stroke="none" stroke-width="1px">1.4e-5</text><text x="0" y="35.39999642288305" dx="0em" dy="0.3em" style="text-anchor: end; visibility: hidden; font-family: Roboto, sans-serif; font-size: 12px; font-weight: 200;" fill="rgb(255, 255, 255)" stroke="none" stroke-width="1px">1.6e-5</text><text x="0" y="17.69999597574341" dx="0em" dy="0.3em" style="text-anchor: end; visibility: inherit; font-family: Roboto, sans-serif; font-size: 12px; font-weight: 200;" fill="rgb(255, 255, 255)" stroke="none" stroke-width="1px">1.8e-5</text></g><line x1="72.34375" y1="0" x2="72.34375" y2="177" fill="rgb(0, 0, 0)" stroke="rgb(204, 204, 204)" stroke-width="1px"></line></g></g><g transform="translate(72, 0)" clip-path="url(#clip_0)"><clipPath id="clip_0"><rect width="257" height="177"></rect></clipPath><g><g><g><line x1="0" y1="0" x2="0" y2="177" fill="rgb(0, 0, 0)" stroke="rgb(189, 189, 189)" stroke-width="1px" opacity="0.25"></line><line x1="19.81971153846154" y1="0" x2="19.81971153846154" y2="177" fill="rgb(0, 0, 0)" stroke="rgb(189, 189, 189)" stroke-width="1px" opacity="0.25"></line><line x1="39.63942307692308" y1="0" x2="39.63942307692308" y2="177" fill="rgb(0, 0, 0)" stroke="rgb(189, 189, 189)" stroke-width="1px" opacity="0.25"></line><line x1="59.45913461538462" y1="0" x2="59.45913461538462" y2="177" fill="rgb(0, 0, 0)" stroke="rgb(189, 189, 189)" stroke-width="1px" opacity="0.25"></line><line x1="79.27884615384616" y1="0" x2="79.27884615384616" y2="177" fill="rgb(0, 0, 0)" stroke="rgb(189, 189, 189)" stroke-width="1px" opacity="0.25"></line><line x1="99.0985576923077" y1="0" x2="99.0985576923077" y2="177" fill="rgb(0, 0, 0)" stroke="rgb(189, 189, 189)" stroke-width="1px" opacity="0.25"></line><line x1="118.91826923076924" y1="0" x2="118.91826923076924" y2="177" fill="rgb(0, 0, 0)" stroke="rgb(189, 189, 189)" stroke-width="1px" opacity="0.25"></line><line x1="138.73798076923077" y1="0" x2="138.73798076923077" y2="177" fill="rgb(0, 0, 0)" stroke="rgb(189, 189, 189)" stroke-width="1px" opacity="0.25"></line><line x1="158.55769230769232" y1="0" x2="158.55769230769232" y2="177" fill="rgb(0, 0, 0)" stroke="rgb(189, 189, 189)" stroke-width="1px" opacity="0.25"></line><line x1="178.37740384615384" y1="0" x2="178.37740384615384" y2="177" fill="rgb(0, 0, 0)" stroke="rgb(189, 189, 189)" stroke-width="1px" opacity="0.25"></line><line x1="198.1971153846154" y1="0" x2="198.1971153846154" y2="177" fill="rgb(0, 0, 0)" stroke="rgb(189, 189, 189)" stroke-width="1px" opacity="0.25"></line><line x1="218.01682692307693" y1="0" x2="218.01682692307693" y2="177" fill="rgb(0, 0, 0)" stroke="rgb(189, 189, 189)" stroke-width="1px" opacity="0.25"></line><line x1="237.83653846153848" y1="0" x2="237.83653846153848" y2="177" fill="rgb(0, 0, 0)" stroke="rgb(189, 189, 189)" stroke-width="1px" opacity="0.25"></line><line x1="257.65625" y1="0" x2="257.65625" y2="177" fill="rgb(0, 0, 0)" stroke="rgb(189, 189, 189)" stroke-width="1px" opacity="0.25"></line></g><g><line x1="0" y1="177" x2="257.65625" y2="177" fill="rgb(0, 0, 0)" stroke="rgb(189, 189, 189)" stroke-width="1px" opacity="0.25"></line><line x1="0" y1="159.29999955286038" x2="257.65625" y2="159.29999955286038" fill="rgb(0, 0, 0)" stroke="rgb(189, 189, 189)" stroke-width="1px" opacity="0.25"></line><line x1="0" y1="141.59999910572077" x2="257.65625" y2="141.59999910572077" fill="rgb(0, 0, 0)" stroke="rgb(189, 189, 189)" stroke-width="1px" opacity="0.25"></line><line x1="0" y1="123.89999865858114" x2="257.65625" y2="123.89999865858114" fill="rgb(0, 0, 0)" stroke="rgb(189, 189, 189)" stroke-width="1px" opacity="0.25"></line><line x1="0" y1="106.19999821144151" x2="257.65625" y2="106.19999821144151" fill="rgb(0, 0, 0)" stroke="rgb(189, 189, 189)" stroke-width="1px" opacity="0.25"></line><line x1="0" y1="88.4999977643019" x2="257.65625" y2="88.4999977643019" fill="rgb(0, 0, 0)" stroke="rgb(189, 189, 189)" stroke-width="1px" opacity="0.25"></line><line x1="0" y1="70.79999731716227" x2="257.65625" y2="70.79999731716227" fill="rgb(0, 0, 0)" stroke="rgb(189, 189, 189)" stroke-width="1px" opacity="0.25"></line><line x1="0" y1="53.09999687002265" x2="257.65625" y2="53.09999687002265" fill="rgb(0, 0, 0)" stroke="rgb(189, 189, 189)" stroke-width="1px" opacity="0.25"></line><line x1="0" y1="35.39999642288305" x2="257.65625" y2="35.39999642288305" fill="rgb(0, 0, 0)" stroke="rgb(189, 189, 189)" stroke-width="1px" opacity="0.25"></line><line x1="0" y1="17.69999597574341" x2="257.65625" y2="17.69999597574341" fill="rgb(0, 0, 0)" stroke="rgb(189, 189, 189)" stroke-width="1px" opacity="0.25"></line></g></g></g><g><g><line x1="0" y1="177" x2="257.65625" y2="177" fill="rgb(0, 0, 0)" stroke="rgb(153, 153, 153)" stroke-width="1.5px"></line></g></g><g><g><line x1="19.81971153846154" y1="0" x2="19.81971153846154" y2="177" fill="rgb(0, 0, 0)" stroke="rgb(153, 153, 153)" stroke-width="1.5px"></line></g></g><g><g><g><g><g><path stroke="rgb(255, 112, 67)" stroke-width="2px" d="M19.898990384615384,88.5L20.17646634615385,88.5L20.751237980769233,88.5L21.048533653846153,88.5L21.068353365384617,88.5L21.22691105769231,88.5L21.345829326923077,88.5L21.444927884615385,88.5L21.583665865384614,88.5L21.861141826923078,88.5L21.940420673076922,88.5L22.356634615384614,88.5L22.396274038461538,88.5L22.93140625,88.5L22.990865384615383,88.5L23.030504807692306,88.5L23.07014423076923,88.5L23.228701923076922,88.5L23.60527644230769,88.5L23.84311298076923,88.5L23.882752403846155,88.5L24.35842548076923,88.5L24.65572115384615,88.5L24.675540865384615,88.5L24.953016826923076,88.5L25.190853365384616,88.5L25.2503125,88.5L25.408870192307692,88.5L25.468329326923076,88.5L25.666526442307692,88.5L26.082740384615384,88.5L26.14219951923077,88.5L26.201658653846152,88.5L26.67733173076923,88.5L26.915168269230772,88.5L27.03408653846154,88.5L27.073725961538464,88.5L27.3115625,88.5L27.470120192307693,88.5L27.54939903846154,88.5L27.787235576923077,88.5L28.044891826923077,88.5L28.46110576923077,88.5L28.480925480769233,88.5L28.520564903846154,88.5L28.659302884615386,88.5L28.95659855769231,88.5L29.035877403846154,88.5L29.23407451923077,88.5L29.333173076923078,88.5L29.35299278846154,88.5L29.47191105769231,88.5L29.927764423076923,88.5L29.967403846153847,88.5L29.987223557692307,88.5L30.066502403846155,88.5L30.38361778846154,88.5L30.482716346153847,88.5L30.52235576923077,88.5L30.760192307692307,88.5L30.839471153846155,88.5L30.958389423076923,88.5L31.513341346153847,88.5L31.59262019230769,88.5L31.632259615384616,88.5L32.28631009615385,88.5L32.444867788461536,88.5L32.563786057692305,88.5L32.58360576923077,88.5L32.861081730769236,88.5L33.039459134615385,88.5L33.19801682692307,88.5L34.109723557692305,88.5L34.18900240384615,88.5L34.565576923076925,88.5L34.96197115384616,88.5L35.179987980769226,88.5L35.199807692307694,88.5L35.31872596153846,88.5L35.43764423076923,88.5L35.754759615384614,88.5L35.774579326923075,88.5L35.81421875,88.5L36.05205528846154,88.5L36.30971153846154,88.5L36.805204326923075,88.5L36.98358173076923,88.5L37.08268028846154,88.5L37.37997596153846,88.5L37.67727163461538,88.5L38.25204326923077,88.5L38.48987980769231,88.5L38.62861778846154,88.5L39.61960336538461,88.5L39.6790625,88.5L39.71870192307692,88.5L39.93671875,88.5L40.07545673076923,88.5L40.15473557692308,88.5L40.194375,88.5L40.37275240384615,88.5L40.74932692307692,88.5L41.026802884615385,88.5L41.046622596153846,88.5L41.165540865384614,88.5L41.34391826923077,88.5L41.581754807692306,88.5L41.661033653846154,88.5L41.700673076923074,88.5L41.79977163461538,88.5L41.8394110576923,88.5L42.03760817307692,88.5L42.11688701923077,88.5L42.255625,88.5L42.53310096153846,88.5L42.63219951923077,88.5L42.652019230769234,88.5L42.88985576923077,88.5L43.08805288461539,88.5L43.12769230769231,88.5L43.28625,88.5L43.46462740384616,88.5L43.48444711538462,88.5L43.96012019230769,88.5L44.09885817307693,88.5L44.51507211538461,88.5L44.61417067307693,88.5L44.63399038461539,88.5L44.67362980769231,88.5L44.733088942307695,88.5L44.81236778846154,88.5L44.93128605769231,88.5L45.01056490384616,88.5L45.10966346153846,88.5L45.54569711538461,88.5L46.08082932692308,88.5L46.47722355769231,88.5L46.77451923076923,88.5L46.85379807692308,88.5L47.07181490384615,88.5L47.09163461538461,88.5L47.90424278846154,88.5L48.32045673076923,88.5L48.3402764423077,88.5L48.69703125,88.5L48.71685096153846,88.5L49.033966346153846,88.5L49.07360576923077,88.5L49.43036057692307,88.5L49.58891826923077,88.5L49.74747596153846,88.5L49.80693509615385,88.5L49.86639423076923,88.5L50.10423076923077,88.5L50.500625,88.5L50.56008413461539,88.5L50.837560096153844,88.5L50.89701923076923,88.5L50.99611778846154,88.5L51.233954326923076,88.5L51.45197115384615,88.5L51.55106971153846,88.5L51.59070913461539,88.5L52.06638221153846,88.5L52.224939903846156,88.5L52.918629807692305,88.5L53.09700721153846,88.5L53.21592548076923,88.5L53.552860576923074,88.5L53.592499999999994,88.5L53.65195913461538,88.5L53.73123798076923,88.5L53.869975961538465,88.5L54.405108173076925,88.5L54.99969951923077,88.5L55.039338942307694,88.5L55.27717548076923,88.5L55.33663461538462,88.5L55.495192307692314,88.5L56.42671875,88.5L56.50599759615385,88.5L56.684375,88.5L56.82311298076923,88.5L57.23932692307692,88.5L57.45734375,88.5L57.51680288461539,88.5L57.635721153846156,88.5L57.655540865384616,88.5L57.95283653846154,88.5L58.190673076923076,88.5L58.269951923076924,88.5L58.36905048076923,88.5L58.40868990384615,88.5L58.666346153846156,88.5L58.686165865384616,88.5L58.785264423076924,88.5L59.00328125,88.5L59.04292067307692,88.5L60.846514423076925,88.5L61.024891826923074,88.5L61.22308894230769,88.5L61.441105769230774,88.5L61.71858173076923,88.5L61.73840144230769,88.5L61.81768028846154,88.5L61.8375,88.5L61.97623798076923,88.5L62.21407451923076,88.5L62.80866586538461,88.5L63.30415865384615,88.5L63.601454326923076,88.5L63.720372596153844,88.5L64.19604567307692,88.5L64.29514423076922,88.5L65.02847355769231,88.5L65.72216346153847,88.5L65.78162259615384,88.5L66.23747596153846,88.5L66.5744110576923,88.5L67.16900240384615,88.5L67.26810096153847,88.5L68.10052884615385,88.5L68.19962740384615,88.5L68.45728365384615,88.5L68.61584134615384,88.5L68.67530048076924,88.5L69.07169471153847,88.5L69.32935096153847,88.5L69.42844951923077,88.5L69.70592548076924,88.5L69.74556490384614,88.5L69.92394230769231,88.5L69.96358173076923,88.5L70.67709134615384,88.5L70.89510817307692,88.5L70.91492788461538,88.5L71.11312500000001,88.5L71.33114182692307,88.5L71.46987980769231,88.5L71.7275360576923,88.5L71.88609375,88.5L72.04465144230768,88.5L72.12393028846154,88.5L72.20320913461538,88.5L72.57978365384615,88.5L72.73834134615385,88.5L72.81762019230769,88.5L72.95635817307692,88.5L73.01581730769232,88.5L73.05545673076922,88.5L73.11491586538462,88.5L73.19419471153846,88.5L73.37257211538461,88.5L73.49149038461539,88.5L73.59058894230769,88.5L73.66986778846154,88.5L73.90770432692308,88.5L73.92752403846154,88.5L74.00680288461538,88.5L74.10590144230768,88.5L74.12572115384616,88.5L74.38337740384615,88.5L74.40319711538461,88.5L74.42301682692307,88.5L74.52211538461539,88.5L74.62121394230769,88.5L74.68067307692309,88.5L74.87887019230769,88.5L75.01760817307692,88.5L75.55274038461539,88.5L75.98877403846153,88.5L76.18697115384616,88.5L76.52390625,88.5L76.54372596153846,88.5L77.6536298076923,88.5L77.71308894230769,88.5L77.97074519230769,88.5L78.3275,88.5L78.3869591346154,88.5L78.52569711538462,88.5L78.58515625,88.5L78.74371394230769,88.5L79.00137019230769,88.5L79.1995673076923,88.5L79.65542067307693,88.5L79.95271634615384,88.5L80.21037259615385,88.5L80.92388221153847,88.5L80.94370192307693,88.5L81.3202764423077,88.5L81.34009615384616,88.5L81.35991586538461,88.5L81.55811298076924,88.5L81.63739182692308,88.5L81.65721153846154,88.5L81.67703125,88.5L81.81576923076923,88.5L82.15270432692307,88.5L82.70765625,88.5L82.8067548076923,88.5L83.08423076923077,88.5L83.22296875,88.5L83.32206730769231,88.5L83.5797235576923,88.5L83.6391826923077,88.5L83.81756009615384,88.5L84.05539663461538,88.5L84.53106971153846,88.5L84.59052884615384,88.5L85.34367788461537,88.5L86.01754807692308,88.5L86.33466346153845,88.5L86.69141826923078,88.5L86.79051682692308,88.5L86.88961538461538,88.5L86.90943509615384,88.5L87.06799278846154,88.5L87.28600961538461,88.5L87.56348557692309,88.5L87.72204326923078,88.5L87.88060096153846,88.5L88.41573317307692,88.5L88.85176682692308,88.5L88.87158653846154,88.5L88.89140624999999,88.5L89.01032451923078,88.5L89.04996394230768,88.5L89.18870192307692,88.5L89.70401442307693,88.5L90.06076923076922,88.5L90.49680288461539,88.5L90.55626201923076,88.5L90.695,88.5L90.93283653846154,88.5L91.17067307692308,88.5L91.42832932692308,88.5L91.44814903846154,88.5L91.48778846153846,88.5L91.76526442307693,88.5L92.2409375,88.5L92.30039663461538,88.5L92.3400360576923,88.5L92.37967548076922,88.5L92.43913461538462,88.5L92.51841346153846,88.5L92.57787259615385,88.5L92.95444711538462,88.5L93.15264423076923,88.5L93.39048076923076,88.5L93.48957932692308,88.5L94.04453124999999,88.5L94.06435096153847,88.5L94.10399038461539,88.5L94.20308894230769,88.5L94.22290865384616,88.5L94.36164663461538,88.5L94.4012860576923,88.5L94.77786057692308,88.5L94.79768028846154,88.5L94.87695913461539,88.5L94.93641826923077,88.5L95.39227163461538,88.5L96.08596153846153,88.5L96.12560096153847,88.5L96.32379807692307,88.5L96.50217548076922,88.5L97.15622596153847,88.5L97.33460336538461,88.5L97.41388221153846,88.5L97.53280048076924,88.5L97.77063701923078,88.5L97.83009615384616,88.5L98.16703125000001,88.5L98.4246875,88.5L98.60306490384615,88.5L98.72198317307694,88.5L99.33639423076923,88.5L99.37603365384615,88.5L99.5544110576923,88.5L99.77242788461538,88.5L99.89134615384614,88.5L100.03008413461538,88.5L100.76341346153846,88.5L101.25890625000001,88.5L101.37782451923077,88.5L101.49674278846155,88.5L101.55620192307691,88.5L101.99223557692308,88.5L102.19043269230768,88.5L102.68592548076924,88.5L102.9039423076923,88.5L103.20123798076924,88.5L103.47871394230769,88.5L103.59763221153845,88.5L103.97420673076923,88.5L104.03366586538462,88.5L104.093125,88.5L104.19222355769232,88.5L104.66789663461539,88.5L105.40122596153846,88.5L105.50032451923077,88.5L105.59942307692307,88.5L105.71834134615385,88.5L106.55076923076922,88.5L106.61022836538461,88.5L106.92734374999999,88.5L107.08590144230769,88.5L107.16518028846153,88.5L107.46247596153846,88.5L107.5021153846154,88.5L107.72013221153846,88.5L107.87868990384615,88.5L108.09670673076923,88.5L108.33454326923076,88.5L108.79039663461539,88.5L108.90931490384615,88.5L109.50390625,88.5L109.70210336538462,88.5L109.78138221153846,88.5L110.276875,88.5L110.35615384615386,88.5L110.47507211538462,88.5L110.6336298076923,88.5L111.10930288461539,88.5L111.16876201923077,88.5L111.22822115384616,88.5L111.96155048076923,88.5L112.06064903846153,88.5L112.13992788461539,88.5L112.15974759615384,88.5L112.31830528846153,88.5L112.5363221153846,88.5L112.6948798076923,88.5L112.77415865384616,88.5L112.81379807692308,88.5L112.93271634615384,88.5L113.09127403846153,88.5L113.11109375,88.5L113.28947115384616,88.5L113.56694711538461,88.5L113.70568509615384,88.5L114.14171875,88.5L114.28045673076923,88.5L114.399375,88.5L114.47865384615385,88.5L114.49847355769231,88.5L115.03360576923077,88.5L115.09306490384614,88.5L115.15252403846154,88.5L115.23180288461538,88.5L115.54891826923077,88.5L115.5885576923077,88.5L115.62819711538461,88.5L115.64801682692307,88.5L115.66783653846154,88.5L115.82639423076924,88.5L116.57954326923077,88.5L116.83719951923077,88.5L117.13449519230768,88.5L117.51106971153847,88.5L117.59034855769231,88.5L117.72908653846154,88.5L117.80836538461539,88.5L117.90746394230769,88.5L118.52187500000001,88.5L118.73989182692308,88.5L119.37412259615385,88.5L119.84979567307693,88.5L120.12727163461538,88.5L120.22637019230768,88.5L120.4840264423077,88.5L120.50384615384615,88.5L120.66240384615385,88.5L120.70204326923077,88.5L120.80114182692309,88.5L121.53447115384616,88.5L121.61375,88.5L121.69302884615385,88.5L121.91104567307693,88.5L121.93086538461539,88.5L121.97050480769231,88.5L121.99032451923078,88.5L122.62455528846155,88.5L122.84257211538461,88.5L122.88221153846155,88.5L122.98131009615385,88.5L123.02094951923077,88.5L123.12004807692308,88.5L123.23896634615384,88.5L123.37770432692308,88.5L123.63536057692308,88.5L123.93265625,88.5L124.11103365384615,88.5L124.17049278846153,88.5L124.76508413461539,88.5L125.22093749999999,88.5L125.24075721153847,88.5L125.30021634615385,88.5L125.33985576923077,88.5L125.41913461538462,88.5L125.53805288461538,88.5L126.0930048076923,88.5L126.25156249999999,88.5L126.70741586538462,88.5L126.88579326923076,88.5L126.90561298076923,88.5L127.18308894230769,88.5L127.32182692307693,88.5L127.73804086538462,88.5L127.91641826923076,88.5L127.97587740384616,88.5L128.01551682692306,88.5L128.90740384615387,88.5L129.00650240384616,88.5L129.0263221153846,88.5L129.16506009615387,88.5L129.24433894230768,88.5L129.2839783653846,88.5L129.72001201923078,88.5L130.15604567307693,88.5L130.889375,88.5L131.86054086538462,88.5L132.13801682692306,88.5L132.53441105769232,88.5L133.24792067307692,88.5L133.38665865384615,88.5L133.58485576923076,88.5L133.8226923076923,88.5L133.88215144230767,88.5L133.92179086538462,88.5L133.94161057692307,88.5L134.3974639423077,88.5L134.5560216346154,88.5L135.40826923076924,88.5L136.08213942307694,88.5L136.33979567307694,88.5L136.3596153846154,88.5L136.3992548076923,88.5L137.70735576923076,88.5L137.80645432692307,88.5L137.86591346153847,88.5L138.02447115384615,88.5L138.36140625000002,88.5L138.53978365384614,88.5L138.67852163461538,88.5L138.79743990384614,88.5L138.91635817307693,88.5L138.93617788461538,88.5L139.62986778846155,88.5L139.78842548076923,88.5L140.24427884615383,88.5L140.28391826923075,88.5L140.30373798076923,88.5L140.85868990384617,88.5L140.93796875,88.5L140.9776081730769,88.5L141.37400240384616,88.5L141.47310096153848,88.5L141.51274038461537,88.5L141.5523798076923,88.5L142.0676923076923,88.5L142.80102163461538,88.5L142.91993990384617,88.5L143.11813701923077,88.5L143.1974158653846,88.5L143.27669471153845,88.5L143.55417067307692,88.5L143.71272836538463,88.5L144.26768028846155,88.5L144.30731971153844,88.5L144.4460576923077,88.5L144.60461538461539,88.5L144.62443509615383,88.5L144.68389423076923,88.5L144.9613701923077,88.5L145.23884615384617,88.5L145.31812499999998,88.5L145.3577644230769,88.5L145.61542067307693,88.5L145.83343749999997,88.5L145.85325721153845,88.5L145.95235576923076,88.5L145.99199519230768,88.5L146.05145432692308,88.5L146.78478365384615,88.5L147.14153846153846,88.5L147.51811298076925,88.5L147.63703124999998,88.5L147.83522836538464,88.5L148.11270432692308,88.5L148.4694591346154,88.5L148.52891826923076,88.5L148.54873798076923,88.5L149.20278846153846,88.5L149.26224759615386,88.5L149.44062499999998,88.5L149.55954326923077,88.5L149.6586418269231,88.5L149.91629807692306,88.5L150.01539663461537,88.5L150.33251201923076,88.5L150.43161057692305,88.5L150.5307091346154,88.5L150.60998798076923,88.5L150.92710336538462,88.5L151.20457932692307,88.5L151.6009735576923,88.5L151.83881009615385,88.5L152.07664663461537,88.5L152.77033653846152,88.5L152.90907451923078,88.5L153.00817307692307,88.5L153.0478125,88.5L153.0874519230769,88.5L153.2063701923077,88.5L153.28564903846154,88.5L153.60276442307693,88.5L153.82078124999998,88.5L154.11807692307693,88.5L154.29645432692305,88.5L154.63338942307692,88.5L155.0099639423077,88.5L155.2081610576923,88.5L155.32707932692307,88.5L155.42617788461538,88.5L155.4658173076923,88.5L155.58473557692307,88.5L155.76311298076925,88.5L156.0802283653846,88.5L156.8531971153846,88.5L156.89283653846152,88.5L156.95229567307692,88.5L157.1703125,88.5L157.30905048076923,88.5L158.06219951923077,88.5L158.37931490384614,88.5L158.47841346153845,88.5L158.5180528846154,88.5L158.57751201923077,88.5L158.9144471153846,88.5L159.11264423076923,88.5L159.13246394230768,88.5L159.4297596153846,88.5L159.62795673076926,88.5L160.28200721153846,88.5L160.73786057692308,88.5L160.87659855769232,88.5L160.93605769230768,88.5L161.05497596153847,88.5L161.808125,88.5L162.06578125000001,88.5L162.08560096153846,88.5L162.12524038461538,88.5L162.24415865384614,88.5L162.30361778846154,88.5L162.66037259615385,88.5L163.01712740384616,88.5L163.49280048076923,88.5L163.57207932692307,88.5L163.80991586538462,88.5L163.98829326923075,88.5L164.5432451923077,88.5L164.66216346153846,88.5L165.17747596153848,88.5L165.2567548076923,88.5L165.2963942307692,88.5L165.55405048076923,88.5L165.65314903846155,88.5L165.75224759615386,88.5L165.83152644230768,88.5L166.0297235576923,88.5L166.18828125000002,88.5L166.82251201923077,88.5L166.96125,88.5L167.17926682692308,88.5L167.19908653846153,88.5L167.25854567307692,88.5L167.3180048076923,88.5L167.75403846153847,88.5L167.83331730769228,88.5L167.87295673076923,88.5L168.11079326923075,88.5L168.58646634615383,88.5L168.8243028846154,88.5L168.9828605769231,88.5L169.10177884615382,88.5L169.31979567307692,88.5L169.4783533653846,88.5L169.51799278846156,88.5L169.6369110576923,88.5L169.75582932692308,88.5L170.31078125000002,88.5L170.44951923076923,88.5L170.48915865384615,88.5L170.52879807692307,88.5L170.58825721153846,88.5L171.20266826923077,88.5L171.22248798076922,88.5L171.32158653846153,88.5L171.5990625,88.5L171.63870192307695,88.5L171.65852163461537,88.5L172.8477043269231,88.5L172.96662259615383,88.5L173.02608173076922,88.5L173.54139423076924,88.5L173.5612139423077,88.5L173.62067307692308,88.5L173.64049278846156,88.5L174.29454326923076,88.5L174.31436298076923,88.5L174.82967548076923,88.5L175.1666105769231,88.5L175.2458894230769,88.5L175.4044471153846,88.5L175.5035456730769,88.5L175.52336538461537,88.5L175.64228365384616,88.5L176.03867788461537,88.5L176.29633413461536,88.5L176.41525240384615,88.5L176.73236778846154,88.5L176.9107451923077,88.5L176.95038461538462,88.5L176.9702043269231,88.5L178.09992788461537,88.5L178.89271634615383,88.5L178.95217548076923,88.5L178.9719951923077,88.5L179.01163461538462,88.5L179.2891105769231,88.5L179.44766826923077,88.5L179.90352163461537,88.5L179.92334134615385,88.5L180.28009615384616,88.5L180.79540865384615,88.5L180.95396634615383,88.5L181.19180288461538,88.5L181.2314423076923,88.5L181.6080168269231,88.5L181.62783653846154,88.5L182.04405048076924,88.5L182.18278846153845,88.5L182.34134615384616,88.5L182.36116586538463,88.5L182.65846153846152,88.5L182.91611778846152,88.5L182.9359375,88.5L183.43143028846154,88.5L183.8674639423077,88.5L183.98638221153846,88.5L184.04584134615385,88.5L184.06566105769232,88.5L184.14493990384616,88.5L184.24403846153845,88.5L184.34313701923077,88.5L185.2944831730769,88.5L185.3539423076923,88.5L185.57195913461538,88.5L185.75033653846154,88.5L185.84943509615385,88.5L186.24582932692306,88.5L186.52330528846153,88.5L186.62240384615384,88.5L187.01879807692308,88.5L187.43501201923078,88.5L187.5142908653846,88.5L188.10888221153846,88.5L188.36653846153845,88.5L188.70347355769232,88.5L188.88185096153845,88.5L189.0602283653846,88.5L189.2386057692308,88.5L189.35752403846152,88.5L189.37734375,88.5L189.53590144230768,88.5L190.28905048076925,88.5L190.38814903846153,88.5L190.62598557692306,88.5L190.665625,88.5L190.68544471153845,88.5L190.80436298076924,88.5L191.43859375,88.5L191.51787259615386,88.5L192.13228365384614,88.5L192.25120192307693,88.5L192.50885817307693,88.5L192.60795673076922,88.5L192.726875,88.5L193.1232692307692,88.5L193.28182692307692,88.5L193.32146634615387,88.5L193.7575,88.5L193.79713942307694,88.5L193.99533653846154,88.5L194.21335336538462,88.5L194.29263221153846,88.5L194.47100961538462,88.5L194.62956730769233,88.5L194.6890264423077,88.5L194.88722355769232,88.5L195.52145432692308,88.5L195.6205528846154,88.5L195.7592908653846,88.5L195.97730769230768,88.5L196.09622596153847,88.5L196.23496394230767,88.5L196.55207932692306,88.5L196.63135817307693,88.5L197.0079326923077,88.5L197.52324519230768,88.5L197.60252403846155,88.5L197.78090144230768,88.5L197.89981971153847,88.5L197.91963942307694,88.5L197.99891826923076,88.5L198.31603365384615,88.5L198.85116586538462,88.5L199.16828125,88.5L199.34665865384616,88.5L199.4853966346154,88.5L199.58449519230768,88.5L200.51602163461538,88.5L200.59530048076923,88.5L201.20971153846153,88.5L201.36826923076922,88.5L201.3880889423077,88.5L201.4277283653846,88.5L201.44754807692308,88.5L201.90340144230768,88.5L201.96286057692308,88.5L202.02231971153847,88.5L202.16105769230768,88.5L202.22051682692307,88.5L202.31961538461536,88.5L202.39889423076923,88.5L202.57727163461536,88.5L202.59709134615383,88.5L202.6763701923077,88.5L202.83492788461538,88.5L203.1916826923077,88.5L203.21150240384614,88.5L203.96465144230768,88.5L204.20248798076923,88.5L204.24212740384615,88.5L204.38086538461536,88.5L204.57906250000002,88.5L204.59888221153847,88.5L204.6781610576923,88.5L204.71780048076923,88.5L204.7970793269231,88.5L204.85653846153846,88.5L205.03491586538462,88.5L205.17365384615383,88.5L205.3123918269231,88.5L205.43131009615385,88.5L205.4511298076923,88.5L205.5700480769231,88.5L205.66914663461537,88.5L205.86734375,88.5L206.06554086538463,88.5L206.18445913461537,88.5L206.4817548076923,88.5L206.87814903846154,88.5L206.9376081730769,88.5L206.97724759615383,88.5L207.23490384615383,88.5L207.39346153846154,88.5L207.5123798076923,88.5L207.55201923076922,88.5L207.8691346153846,88.5L207.88895432692308,88.5L207.90877403846156,88.5L207.94841346153845,88.5L208.50336538461536,88.5L208.8601201923077,88.5L209.03849759615383,88.5L209.21687500000002,88.5L209.41507211538462,88.5L209.5141706730769,88.5L209.95020432692309,88.5L210.10876201923077,88.5L210.22768028846156,88.5L210.48533653846155,88.5L211.13938701923078,88.5L211.4366826923077,88.5L211.4961418269231,88.5L211.51596153846154,88.5L211.5754206730769,88.5L211.7537980769231,88.5L211.8330769230769,88.5L211.91235576923077,88.5L212.1501923076923,88.5L212.17001201923077,88.5L212.30874999999997,88.5L212.78442307692308,88.5L212.8240625,88.5L213.1213581730769,88.5L213.1411778846154,88.5L213.26009615384615,88.5L213.31955528846152,88.5L213.4979326923077,88.5L213.8150480769231,88.5L213.87450721153846,88.5L214.0132451923077,88.5L214.31054086538464,88.5L214.5285576923077,88.5L214.7862139423077,88.5L215.0438701923077,88.5L215.38080528846152,88.5L215.51954326923078,88.5L215.89611778846154,88.5L215.91593749999998,88.5L216.05467548076925,88.5L216.11413461538464,88.5L216.17359374999998,88.5L216.35197115384616,88.5L216.37179086538464,88.5L216.7483653846154,88.5L216.90692307692308,88.5L216.98620192307692,88.5L217.0060216346154,88.5L217.02584134615384,88.5L217.1447596153846,88.5L217.22403846153847,88.5L217.48169471153847,88.5L217.58079326923078,88.5L217.60061298076923,88.5L217.7591706730769,88.5L217.8780889423077,88.5L219.26546875,88.5L219.80060096153846,88.5L220.41501201923077,88.5L220.4942908653846,88.5L220.51411057692306,88.5L220.7519471153846,88.5L221.32671875,88.5L221.46545673076923,88.5L221.76275240384615,88.5L221.80239182692307,88.5L222.13932692307694,88.5L222.27806490384614,88.5L222.31770432692306,88.5L222.47626201923077,88.5L223.34832932692308,88.5L223.46724759615384,88.5L223.56634615384615,88.5L223.88346153846155,88.5L224.02219951923078,88.5L224.67625,88.5L224.79516826923077,88.5L224.85462740384614,88.5L224.8744471153846,88.5L225.46903846153847,88.5L225.84561298076923,88.5L226.0239903846154,88.5L226.24200721153846,88.5L226.83659855769233,88.5L226.9555168269231,88.5L226.97533653846153,88.5L227.01497596153845,88.5L227.09425480769232,88.5L227.74830528846155,88.5L227.94650240384615,88.5L228.2834375,88.5L228.73929086538462,88.5L228.93748798076922,88.5L229.03658653846153,88.5L229.13568509615385,88.5L229.3735216346154,88.5L229.53207932692308,88.5L229.829375,88.5L230.18612980769228,88.5L230.24558894230768,88.5L230.30504807692307,88.5L230.56270432692307,88.5L230.7609014423077,88.5L230.80054086538462,88.5L231.15729567307693,88.5L232.02936298076924,88.5L232.22756009615384,88.5L232.36629807692307,88.5L232.4653966346154,88.5L232.78251201923075,88.5L232.92125000000001,88.5L232.94106971153846,88.5L233.1392668269231,88.5L233.17890625,88.5L233.29782451923077,88.5L233.7933173076923,88.5L233.93205528846156,88.5L234.0509735576923,88.5L234.28881009615384,88.5L234.70502403846154,88.5L235.16087740384614,88.5L235.3392548076923,88.5L235.35907451923077,88.5L235.79510817307693,88.5L235.87438701923077,88.5L236.013125,88.5" style="fill: none;" fill="none"></path></g></g></g></g><g opacity="0.2"><g><g><g><path stroke="rgb(255, 112, 67)" stroke-width="2px" d="M19.898990384615384,88.5L20.17646634615385,88.5L20.751237980769233,88.5L21.048533653846153,88.5L21.068353365384617,88.5L21.22691105769231,88.5L21.345829326923077,88.5L21.444927884615385,88.5L21.583665865384614,88.5L21.861141826923078,88.5L21.940420673076922,88.5L22.356634615384614,88.5L22.396274038461538,88.5L22.93140625,88.5L22.990865384615383,88.5L23.030504807692306,88.5L23.07014423076923,88.5L23.228701923076922,88.5L23.60527644230769,88.5L23.84311298076923,88.5L23.882752403846155,88.5L24.35842548076923,88.5L24.65572115384615,88.5L24.675540865384615,88.5L24.953016826923076,88.5L25.190853365384616,88.5L25.2503125,88.5L25.408870192307692,88.5L25.468329326923076,88.5L25.666526442307692,88.5L26.082740384615384,88.5L26.14219951923077,88.5L26.201658653846152,88.5L26.67733173076923,88.5L26.915168269230772,88.5L27.03408653846154,88.5L27.073725961538464,88.5L27.3115625,88.5L27.470120192307693,88.5L27.54939903846154,88.5L27.787235576923077,88.5L28.044891826923077,88.5L28.46110576923077,88.5L28.480925480769233,88.5L28.520564903846154,88.5L28.659302884615386,88.5L28.95659855769231,88.5L29.035877403846154,88.5L29.23407451923077,88.5L29.333173076923078,88.5L29.35299278846154,88.5L29.47191105769231,88.5L29.927764423076923,88.5L29.967403846153847,88.5L29.987223557692307,88.5L30.066502403846155,88.5L30.38361778846154,88.5L30.482716346153847,88.5L30.52235576923077,88.5L30.760192307692307,88.5L30.839471153846155,88.5L30.958389423076923,88.5L31.513341346153847,88.5L31.59262019230769,88.5L31.632259615384616,88.5L32.28631009615385,88.5L32.444867788461536,88.5L32.563786057692305,88.5L32.58360576923077,88.5L32.861081730769236,88.5L33.039459134615385,88.5L33.19801682692307,88.5L34.109723557692305,88.5L34.18900240384615,88.5L34.565576923076925,88.5L34.96197115384616,88.5L35.179987980769226,88.5L35.199807692307694,88.5L35.31872596153846,88.5L35.43764423076923,88.5L35.754759615384614,88.5L35.774579326923075,88.5L35.81421875,88.5L36.05205528846154,88.5L36.30971153846154,88.5L36.805204326923075,88.5L36.98358173076923,88.5L37.08268028846154,88.5L37.37997596153846,88.5L37.67727163461538,88.5L38.25204326923077,88.5L38.48987980769231,88.5L38.62861778846154,88.5L39.61960336538461,88.5L39.6790625,88.5L39.71870192307692,88.5L39.93671875,88.5L40.07545673076923,88.5L40.15473557692308,88.5L40.194375,88.5L40.37275240384615,88.5L40.74932692307692,88.5L41.026802884615385,88.5L41.046622596153846,88.5L41.165540865384614,88.5L41.34391826923077,88.5L41.581754807692306,88.5L41.661033653846154,88.5L41.700673076923074,88.5L41.79977163461538,88.5L41.8394110576923,88.5L42.03760817307692,88.5L42.11688701923077,88.5L42.255625,88.5L42.53310096153846,88.5L42.63219951923077,88.5L42.652019230769234,88.5L42.88985576923077,88.5L43.08805288461539,88.5L43.12769230769231,88.5L43.28625,88.5L43.46462740384616,88.5L43.48444711538462,88.5L43.96012019230769,88.5L44.09885817307693,88.5L44.51507211538461,88.5L44.61417067307693,88.5L44.63399038461539,88.5L44.67362980769231,88.5L44.733088942307695,88.5L44.81236778846154,88.5L44.93128605769231,88.5L45.01056490384616,88.5L45.10966346153846,88.5L45.54569711538461,88.5L46.08082932692308,88.5L46.47722355769231,88.5L46.77451923076923,88.5L46.85379807692308,88.5L47.07181490384615,88.5L47.09163461538461,88.5L47.90424278846154,88.5L48.32045673076923,88.5L48.3402764423077,88.5L48.69703125,88.5L48.71685096153846,88.5L49.033966346153846,88.5L49.07360576923077,88.5L49.43036057692307,88.5L49.58891826923077,88.5L49.74747596153846,88.5L49.80693509615385,88.5L49.86639423076923,88.5L50.10423076923077,88.5L50.500625,88.5L50.56008413461539,88.5L50.837560096153844,88.5L50.89701923076923,88.5L50.99611778846154,88.5L51.233954326923076,88.5L51.45197115384615,88.5L51.55106971153846,88.5L51.59070913461539,88.5L52.06638221153846,88.5L52.224939903846156,88.5L52.918629807692305,88.5L53.09700721153846,88.5L53.21592548076923,88.5L53.552860576923074,88.5L53.592499999999994,88.5L53.65195913461538,88.5L53.73123798076923,88.5L53.869975961538465,88.5L54.405108173076925,88.5L54.99969951923077,88.5L55.039338942307694,88.5L55.27717548076923,88.5L55.33663461538462,88.5L55.495192307692314,88.5L56.42671875,88.5L56.50599759615385,88.5L56.684375,88.5L56.82311298076923,88.5L57.23932692307692,88.5L57.45734375,88.5L57.51680288461539,88.5L57.635721153846156,88.5L57.655540865384616,88.5L57.95283653846154,88.5L58.190673076923076,88.5L58.269951923076924,88.5L58.36905048076923,88.5L58.40868990384615,88.5L58.666346153846156,88.5L58.686165865384616,88.5L58.785264423076924,88.5L59.00328125,88.5L59.04292067307692,88.5L60.846514423076925,88.5L61.024891826923074,88.5L61.22308894230769,88.5L61.441105769230774,88.5L61.71858173076923,88.5L61.73840144230769,88.5L61.81768028846154,88.5L61.8375,88.5L61.97623798076923,88.5L62.21407451923076,88.5L62.80866586538461,88.5L63.30415865384615,88.5L63.601454326923076,88.5L63.720372596153844,88.5L64.19604567307692,88.5L64.29514423076922,88.5L65.02847355769231,88.5L65.72216346153847,88.5L65.78162259615384,88.5L66.23747596153846,88.5L66.5744110576923,88.5L67.16900240384615,88.5L67.26810096153847,88.5L68.10052884615385,88.5L68.19962740384615,88.5L68.45728365384615,88.5L68.61584134615384,88.5L68.67530048076924,88.5L69.07169471153847,88.5L69.32935096153847,88.5L69.42844951923077,88.5L69.70592548076924,88.5L69.74556490384614,88.5L69.92394230769231,88.5L69.96358173076923,88.5L70.67709134615384,88.5L70.89510817307692,88.5L70.91492788461538,88.5L71.11312500000001,88.5L71.33114182692307,88.5L71.46987980769231,88.5L71.7275360576923,88.5L71.88609375,88.5L72.04465144230768,88.5L72.12393028846154,88.5L72.20320913461538,88.5L72.57978365384615,88.5L72.73834134615385,88.5L72.81762019230769,88.5L72.95635817307692,88.5L73.01581730769232,88.5L73.05545673076922,88.5L73.11491586538462,88.5L73.19419471153846,88.5L73.37257211538461,88.5L73.49149038461539,88.5L73.59058894230769,88.5L73.66986778846154,88.5L73.90770432692308,88.5L73.92752403846154,88.5L74.00680288461538,88.5L74.10590144230768,88.5L74.12572115384616,88.5L74.38337740384615,88.5L74.40319711538461,88.5L74.42301682692307,88.5L74.52211538461539,88.5L74.62121394230769,88.5L74.68067307692309,88.5L74.87887019230769,88.5L75.01760817307692,88.5L75.55274038461539,88.5L75.98877403846153,88.5L76.18697115384616,88.5L76.52390625,88.5L76.54372596153846,88.5L77.6536298076923,88.5L77.71308894230769,88.5L77.97074519230769,88.5L78.3275,88.5L78.3869591346154,88.5L78.52569711538462,88.5L78.58515625,88.5L78.74371394230769,88.5L79.00137019230769,88.5L79.1995673076923,88.5L79.65542067307693,88.5L79.95271634615384,88.5L80.21037259615385,88.5L80.92388221153847,88.5L80.94370192307693,88.5L81.3202764423077,88.5L81.34009615384616,88.5L81.35991586538461,88.5L81.55811298076924,88.5L81.63739182692308,88.5L81.65721153846154,88.5L81.67703125,88.5L81.81576923076923,88.5L82.15270432692307,88.5L82.70765625,88.5L82.8067548076923,88.5L83.08423076923077,88.5L83.22296875,88.5L83.32206730769231,88.5L83.5797235576923,88.5L83.6391826923077,88.5L83.81756009615384,88.5L84.05539663461538,88.5L84.53106971153846,88.5L84.59052884615384,88.5L85.34367788461537,88.5L86.01754807692308,88.5L86.33466346153845,88.5L86.69141826923078,88.5L86.79051682692308,88.5L86.88961538461538,88.5L86.90943509615384,88.5L87.06799278846154,88.5L87.28600961538461,88.5L87.56348557692309,88.5L87.72204326923078,88.5L87.88060096153846,88.5L88.41573317307692,88.5L88.85176682692308,88.5L88.87158653846154,88.5L88.89140624999999,88.5L89.01032451923078,88.5L89.04996394230768,88.5L89.18870192307692,88.5L89.70401442307693,88.5L90.06076923076922,88.5L90.49680288461539,88.5L90.55626201923076,88.5L90.695,88.5L90.93283653846154,88.5L91.17067307692308,88.5L91.42832932692308,88.5L91.44814903846154,88.5L91.48778846153846,88.5L91.76526442307693,88.5L92.2409375,88.5L92.30039663461538,88.5L92.3400360576923,88.5L92.37967548076922,88.5L92.43913461538462,88.5L92.51841346153846,88.5L92.57787259615385,88.5L92.95444711538462,88.5L93.15264423076923,88.5L93.39048076923076,88.5L93.48957932692308,88.5L94.04453124999999,88.5L94.06435096153847,88.5L94.10399038461539,88.5L94.20308894230769,88.5L94.22290865384616,88.5L94.36164663461538,88.5L94.4012860576923,88.5L94.77786057692308,88.5L94.79768028846154,88.5L94.87695913461539,88.5L94.93641826923077,88.5L95.39227163461538,88.5L96.08596153846153,88.5L96.12560096153847,88.5L96.32379807692307,88.5L96.50217548076922,88.5L97.15622596153847,88.5L97.33460336538461,88.5L97.41388221153846,88.5L97.53280048076924,88.5L97.77063701923078,88.5L97.83009615384616,88.5L98.16703125000001,88.5L98.4246875,88.5L98.60306490384615,88.5L98.72198317307694,88.5L99.33639423076923,88.5L99.37603365384615,88.5L99.5544110576923,88.5L99.77242788461538,88.5L99.89134615384614,88.5L100.03008413461538,88.5L100.76341346153846,88.5L101.25890625000001,88.5L101.37782451923077,88.5L101.49674278846155,88.5L101.55620192307691,88.5L101.99223557692308,88.5L102.19043269230768,88.5L102.68592548076924,88.5L102.9039423076923,88.5L103.20123798076924,88.5L103.47871394230769,88.5L103.59763221153845,88.5L103.97420673076923,88.5L104.03366586538462,88.5L104.093125,88.5L104.19222355769232,88.5L104.66789663461539,88.5L105.40122596153846,88.5L105.50032451923077,88.5L105.59942307692307,88.5L105.71834134615385,88.5L106.55076923076922,88.5L106.61022836538461,88.5L106.92734374999999,88.5L107.08590144230769,88.5L107.16518028846153,88.5L107.46247596153846,88.5L107.5021153846154,88.5L107.72013221153846,88.5L107.87868990384615,88.5L108.09670673076923,88.5L108.33454326923076,88.5L108.79039663461539,88.5L108.90931490384615,88.5L109.50390625,88.5L109.70210336538462,88.5L109.78138221153846,88.5L110.276875,88.5L110.35615384615386,88.5L110.47507211538462,88.5L110.6336298076923,88.5L111.10930288461539,88.5L111.16876201923077,88.5L111.22822115384616,88.5L111.96155048076923,88.5L112.06064903846153,88.5L112.13992788461539,88.5L112.15974759615384,88.5L112.31830528846153,88.5L112.5363221153846,88.5L112.6948798076923,88.5L112.77415865384616,88.5L112.81379807692308,88.5L112.93271634615384,88.5L113.09127403846153,88.5L113.11109375,88.5L113.28947115384616,88.5L113.56694711538461,88.5L113.70568509615384,88.5L114.14171875,88.5L114.28045673076923,88.5L114.399375,88.5L114.47865384615385,88.5L114.49847355769231,88.5L115.03360576923077,88.5L115.09306490384614,88.5L115.15252403846154,88.5L115.23180288461538,88.5L115.54891826923077,88.5L115.5885576923077,88.5L115.62819711538461,88.5L115.64801682692307,88.5L115.66783653846154,88.5L115.82639423076924,88.5L116.57954326923077,88.5L116.83719951923077,88.5L117.13449519230768,88.5L117.51106971153847,88.5L117.59034855769231,88.5L117.72908653846154,88.5L117.80836538461539,88.5L117.90746394230769,88.5L118.52187500000001,88.5L118.73989182692308,88.5L119.37412259615385,88.5L119.84979567307693,88.5L120.12727163461538,88.5L120.22637019230768,88.5L120.4840264423077,88.5L120.50384615384615,88.5L120.66240384615385,88.5L120.70204326923077,88.5L120.80114182692309,88.5L121.53447115384616,88.5L121.61375,88.5L121.69302884615385,88.5L121.91104567307693,88.5L121.93086538461539,88.5L121.97050480769231,88.5L121.99032451923078,88.5L122.62455528846155,88.5L122.84257211538461,88.5L122.88221153846155,88.5L122.98131009615385,88.5L123.02094951923077,88.5L123.12004807692308,88.5L123.23896634615384,88.5L123.37770432692308,88.5L123.63536057692308,88.5L123.93265625,88.5L124.11103365384615,88.5L124.17049278846153,88.5L124.76508413461539,88.5L125.22093749999999,88.5L125.24075721153847,88.5L125.30021634615385,88.5L125.33985576923077,88.5L125.41913461538462,88.5L125.53805288461538,88.5L126.0930048076923,88.5L126.25156249999999,88.5L126.70741586538462,88.5L126.88579326923076,88.5L126.90561298076923,88.5L127.18308894230769,88.5L127.32182692307693,88.5L127.73804086538462,88.5L127.91641826923076,88.5L127.97587740384616,88.5L128.01551682692306,88.5L128.90740384615387,88.5L129.00650240384616,88.5L129.0263221153846,88.5L129.16506009615387,88.5L129.24433894230768,88.5L129.2839783653846,88.5L129.72001201923078,88.5L130.15604567307693,88.5L130.889375,88.5L131.86054086538462,88.5L132.13801682692306,88.5L132.53441105769232,88.5L133.24792067307692,88.5L133.38665865384615,88.5L133.58485576923076,88.5L133.8226923076923,88.5L133.88215144230767,88.5L133.92179086538462,88.5L133.94161057692307,88.5L134.3974639423077,88.5L134.5560216346154,88.5L135.40826923076924,88.5L136.08213942307694,88.5L136.33979567307694,88.5L136.3596153846154,88.5L136.3992548076923,88.5L137.70735576923076,88.5L137.80645432692307,88.5L137.86591346153847,88.5L138.02447115384615,88.5L138.36140625000002,88.5L138.53978365384614,88.5L138.67852163461538,88.5L138.79743990384614,88.5L138.91635817307693,88.5L138.93617788461538,88.5L139.62986778846155,88.5L139.78842548076923,88.5L140.24427884615383,88.5L140.28391826923075,88.5L140.30373798076923,88.5L140.85868990384617,88.5L140.93796875,88.5L140.9776081730769,88.5L141.37400240384616,88.5L141.47310096153848,88.5L141.51274038461537,88.5L141.5523798076923,88.5L142.0676923076923,88.5L142.80102163461538,88.5L142.91993990384617,88.5L143.11813701923077,88.5L143.1974158653846,88.5L143.27669471153845,88.5L143.55417067307692,88.5L143.71272836538463,88.5L144.26768028846155,88.5L144.30731971153844,88.5L144.4460576923077,88.5L144.60461538461539,88.5L144.62443509615383,88.5L144.68389423076923,88.5L144.9613701923077,88.5L145.23884615384617,88.5L145.31812499999998,88.5L145.3577644230769,88.5L145.61542067307693,88.5L145.83343749999997,88.5L145.85325721153845,88.5L145.95235576923076,88.5L145.99199519230768,88.5L146.05145432692308,88.5L146.78478365384615,88.5L147.14153846153846,88.5L147.51811298076925,88.5L147.63703124999998,88.5L147.83522836538464,88.5L148.11270432692308,88.5L148.4694591346154,88.5L148.52891826923076,88.5L148.54873798076923,88.5L149.20278846153846,88.5L149.26224759615386,88.5L149.44062499999998,88.5L149.55954326923077,88.5L149.6586418269231,88.5L149.91629807692306,88.5L150.01539663461537,88.5L150.33251201923076,88.5L150.43161057692305,88.5L150.5307091346154,88.5L150.60998798076923,88.5L150.92710336538462,88.5L151.20457932692307,88.5L151.6009735576923,88.5L151.83881009615385,88.5L152.07664663461537,88.5L152.77033653846152,88.5L152.90907451923078,88.5L153.00817307692307,88.5L153.0478125,88.5L153.0874519230769,88.5L153.2063701923077,88.5L153.28564903846154,88.5L153.60276442307693,88.5L153.82078124999998,88.5L154.11807692307693,88.5L154.29645432692305,88.5L154.63338942307692,88.5L155.0099639423077,88.5L155.2081610576923,88.5L155.32707932692307,88.5L155.42617788461538,88.5L155.4658173076923,88.5L155.58473557692307,88.5L155.76311298076925,88.5L156.0802283653846,88.5L156.8531971153846,88.5L156.89283653846152,88.5L156.95229567307692,88.5L157.1703125,88.5L157.30905048076923,88.5L158.06219951923077,88.5L158.37931490384614,88.5L158.47841346153845,88.5L158.5180528846154,88.5L158.57751201923077,88.5L158.9144471153846,88.5L159.11264423076923,88.5L159.13246394230768,88.5L159.4297596153846,88.5L159.62795673076926,88.5L160.28200721153846,88.5L160.73786057692308,88.5L160.87659855769232,88.5L160.93605769230768,88.5L161.05497596153847,88.5L161.808125,88.5L162.06578125000001,88.5L162.08560096153846,88.5L162.12524038461538,88.5L162.24415865384614,88.5L162.30361778846154,88.5L162.66037259615385,88.5L163.01712740384616,88.5L163.49280048076923,88.5L163.57207932692307,88.5L163.80991586538462,88.5L163.98829326923075,88.5L164.5432451923077,88.5L164.66216346153846,88.5L165.17747596153848,88.5L165.2567548076923,88.5L165.2963942307692,88.5L165.55405048076923,88.5L165.65314903846155,88.5L165.75224759615386,88.5L165.83152644230768,88.5L166.0297235576923,88.5L166.18828125000002,88.5L166.82251201923077,88.5L166.96125,88.5L167.17926682692308,88.5L167.19908653846153,88.5L167.25854567307692,88.5L167.3180048076923,88.5L167.75403846153847,88.5L167.83331730769228,88.5L167.87295673076923,88.5L168.11079326923075,88.5L168.58646634615383,88.5L168.8243028846154,88.5L168.9828605769231,88.5L169.10177884615382,88.5L169.31979567307692,88.5L169.4783533653846,88.5L169.51799278846156,88.5L169.6369110576923,88.5L169.75582932692308,88.5L170.31078125000002,88.5L170.44951923076923,88.5L170.48915865384615,88.5L170.52879807692307,88.5L170.58825721153846,88.5L171.20266826923077,88.5L171.22248798076922,88.5L171.32158653846153,88.5L171.5990625,88.5L171.63870192307695,88.5L171.65852163461537,88.5L172.8477043269231,88.5L172.96662259615383,88.5L173.02608173076922,88.5L173.54139423076924,88.5L173.5612139423077,88.5L173.62067307692308,88.5L173.64049278846156,88.5L174.29454326923076,88.5L174.31436298076923,88.5L174.82967548076923,88.5L175.1666105769231,88.5L175.2458894230769,88.5L175.4044471153846,88.5L175.5035456730769,88.5L175.52336538461537,88.5L175.64228365384616,88.5L176.03867788461537,88.5L176.29633413461536,88.5L176.41525240384615,88.5L176.73236778846154,88.5L176.9107451923077,88.5L176.95038461538462,88.5L176.9702043269231,88.5L178.09992788461537,88.5L178.89271634615383,88.5L178.95217548076923,88.5L178.9719951923077,88.5L179.01163461538462,88.5L179.2891105769231,88.5L179.44766826923077,88.5L179.90352163461537,88.5L179.92334134615385,88.5L180.28009615384616,88.5L180.79540865384615,88.5L180.95396634615383,88.5L181.19180288461538,88.5L181.2314423076923,88.5L181.6080168269231,88.5L181.62783653846154,88.5L182.04405048076924,88.5L182.18278846153845,88.5L182.34134615384616,88.5L182.36116586538463,88.5L182.65846153846152,88.5L182.91611778846152,88.5L182.9359375,88.5L183.43143028846154,88.5L183.8674639423077,88.5L183.98638221153846,88.5L184.04584134615385,88.5L184.06566105769232,88.5L184.14493990384616,88.5L184.24403846153845,88.5L184.34313701923077,88.5L185.2944831730769,88.5L185.3539423076923,88.5L185.57195913461538,88.5L185.75033653846154,88.5L185.84943509615385,88.5L186.24582932692306,88.5L186.52330528846153,88.5L186.62240384615384,88.5L187.01879807692308,88.5L187.43501201923078,88.5L187.5142908653846,88.5L188.10888221153846,88.5L188.36653846153845,88.5L188.70347355769232,88.5L188.88185096153845,88.5L189.0602283653846,88.5L189.2386057692308,88.5L189.35752403846152,88.5L189.37734375,88.5L189.53590144230768,88.5L190.28905048076925,88.5L190.38814903846153,88.5L190.62598557692306,88.5L190.665625,88.5L190.68544471153845,88.5L190.80436298076924,88.5L191.43859375,88.5L191.51787259615386,88.5L192.13228365384614,88.5L192.25120192307693,88.5L192.50885817307693,88.5L192.60795673076922,88.5L192.726875,88.5L193.1232692307692,88.5L193.28182692307692,88.5L193.32146634615387,88.5L193.7575,88.5L193.79713942307694,88.5L193.99533653846154,88.5L194.21335336538462,88.5L194.29263221153846,88.5L194.47100961538462,88.5L194.62956730769233,88.5L194.6890264423077,88.5L194.88722355769232,88.5L195.52145432692308,88.5L195.6205528846154,88.5L195.7592908653846,88.5L195.97730769230768,88.5L196.09622596153847,88.5L196.23496394230767,88.5L196.55207932692306,88.5L196.63135817307693,88.5L197.0079326923077,88.5L197.52324519230768,88.5L197.60252403846155,88.5L197.78090144230768,88.5L197.89981971153847,88.5L197.91963942307694,88.5L197.99891826923076,88.5L198.31603365384615,88.5L198.85116586538462,88.5L199.16828125,88.5L199.34665865384616,88.5L199.4853966346154,88.5L199.58449519230768,88.5L200.51602163461538,88.5L200.59530048076923,88.5L201.20971153846153,88.5L201.36826923076922,88.5L201.3880889423077,88.5L201.4277283653846,88.5L201.44754807692308,88.5L201.90340144230768,88.5L201.96286057692308,88.5L202.02231971153847,88.5L202.16105769230768,88.5L202.22051682692307,88.5L202.31961538461536,88.5L202.39889423076923,88.5L202.57727163461536,88.5L202.59709134615383,88.5L202.6763701923077,88.5L202.83492788461538,88.5L203.1916826923077,88.5L203.21150240384614,88.5L203.96465144230768,88.5L204.20248798076923,88.5L204.24212740384615,88.5L204.38086538461536,88.5L204.57906250000002,88.5L204.59888221153847,88.5L204.6781610576923,88.5L204.71780048076923,88.5L204.7970793269231,88.5L204.85653846153846,88.5L205.03491586538462,88.5L205.17365384615383,88.5L205.3123918269231,88.5L205.43131009615385,88.5L205.4511298076923,88.5L205.5700480769231,88.5L205.66914663461537,88.5L205.86734375,88.5L206.06554086538463,88.5L206.18445913461537,88.5L206.4817548076923,88.5L206.87814903846154,88.5L206.9376081730769,88.5L206.97724759615383,88.5L207.23490384615383,88.5L207.39346153846154,88.5L207.5123798076923,88.5L207.55201923076922,88.5L207.8691346153846,88.5L207.88895432692308,88.5L207.90877403846156,88.5L207.94841346153845,88.5L208.50336538461536,88.5L208.8601201923077,88.5L209.03849759615383,88.5L209.21687500000002,88.5L209.41507211538462,88.5L209.5141706730769,88.5L209.95020432692309,88.5L210.10876201923077,88.5L210.22768028846156,88.5L210.48533653846155,88.5L211.13938701923078,88.5L211.4366826923077,88.5L211.4961418269231,88.5L211.51596153846154,88.5L211.5754206730769,88.5L211.7537980769231,88.5L211.8330769230769,88.5L211.91235576923077,88.5L212.1501923076923,88.5L212.17001201923077,88.5L212.30874999999997,88.5L212.78442307692308,88.5L212.8240625,88.5L213.1213581730769,88.5L213.1411778846154,88.5L213.26009615384615,88.5L213.31955528846152,88.5L213.4979326923077,88.5L213.8150480769231,88.5L213.87450721153846,88.5L214.0132451923077,88.5L214.31054086538464,88.5L214.5285576923077,88.5L214.7862139423077,88.5L215.0438701923077,88.5L215.38080528846152,88.5L215.51954326923078,88.5L215.89611778846154,88.5L215.91593749999998,88.5L216.05467548076925,88.5L216.11413461538464,88.5L216.17359374999998,88.5L216.35197115384616,88.5L216.37179086538464,88.5L216.7483653846154,88.5L216.90692307692308,88.5L216.98620192307692,88.5L217.0060216346154,88.5L217.02584134615384,88.5L217.1447596153846,88.5L217.22403846153847,88.5L217.48169471153847,88.5L217.58079326923078,88.5L217.60061298076923,88.5L217.7591706730769,88.5L217.8780889423077,88.5L219.26546875,88.5L219.80060096153846,88.5L220.41501201923077,88.5L220.4942908653846,88.5L220.51411057692306,88.5L220.7519471153846,88.5L221.32671875,88.5L221.46545673076923,88.5L221.76275240384615,88.5L221.80239182692307,88.5L222.13932692307694,88.5L222.27806490384614,88.5L222.31770432692306,88.5L222.47626201923077,88.5L223.34832932692308,88.5L223.46724759615384,88.5L223.56634615384615,88.5L223.88346153846155,88.5L224.02219951923078,88.5L224.67625,88.5L224.79516826923077,88.5L224.85462740384614,88.5L224.8744471153846,88.5L225.46903846153847,88.5L225.84561298076923,88.5L226.0239903846154,88.5L226.24200721153846,88.5L226.83659855769233,88.5L226.9555168269231,88.5L226.97533653846153,88.5L227.01497596153845,88.5L227.09425480769232,88.5L227.74830528846155,88.5L227.94650240384615,88.5L228.2834375,88.5L228.73929086538462,88.5L228.93748798076922,88.5L229.03658653846153,88.5L229.13568509615385,88.5L229.3735216346154,88.5L229.53207932692308,88.5L229.829375,88.5L230.18612980769228,88.5L230.24558894230768,88.5L230.30504807692307,88.5L230.56270432692307,88.5L230.7609014423077,88.5L230.80054086538462,88.5L231.15729567307693,88.5L232.02936298076924,88.5L232.22756009615384,88.5L232.36629807692307,88.5L232.4653966346154,88.5L232.78251201923075,88.5L232.92125000000001,88.5L232.94106971153846,88.5L233.1392668269231,88.5L233.17890625,88.5L233.29782451923077,88.5L233.7933173076923,88.5L233.93205528846156,88.5L234.0509735576923,88.5L234.28881009615384,88.5L234.70502403846154,88.5L235.16087740384614,88.5L235.3392548076923,88.5L235.35907451923077,88.5L235.79510817307693,88.5L235.87438701923077,88.5L236.013125,88.5" style="fill: none;" fill="none"></path></g></g></g></g></g></g><g transform="translate(72, 177)" clip-path="url(#clip_1)"><clipPath id="clip_1"><rect width="257" height="23"></rect></clipPath><g><g><line x1="0" y1="0" x2="0" y2="5" style="visibility: inherit;" fill="rgb(0, 0, 0)" stroke="rgb(204, 204, 204)" stroke-width="1px"></line><line x1="19.81971153846154" y1="0" x2="19.81971153846154" y2="5" style="visibility: inherit;" fill="rgb(0, 0, 0)" stroke="rgb(204, 204, 204)" stroke-width="1px"></line><line x1="39.63942307692308" y1="0" x2="39.63942307692308" y2="5" style="visibility: inherit;" fill="rgb(0, 0, 0)" stroke="rgb(204, 204, 204)" stroke-width="1px"></line><line x1="59.45913461538462" y1="0" x2="59.45913461538462" y2="5" style="visibility: inherit;" fill="rgb(0, 0, 0)" stroke="rgb(204, 204, 204)" stroke-width="1px"></line><line x1="79.27884615384616" y1="0" x2="79.27884615384616" y2="5" style="visibility: inherit;" fill="rgb(0, 0, 0)" stroke="rgb(204, 204, 204)" stroke-width="1px"></line><line x1="99.0985576923077" y1="0" x2="99.0985576923077" y2="5" style="visibility: inherit;" fill="rgb(0, 0, 0)" stroke="rgb(204, 204, 204)" stroke-width="1px"></line><line x1="118.91826923076924" y1="0" x2="118.91826923076924" y2="5" style="visibility: inherit;" fill="rgb(0, 0, 0)" stroke="rgb(204, 204, 204)" stroke-width="1px"></line><line x1="138.73798076923077" y1="0" x2="138.73798076923077" y2="5" style="visibility: inherit;" fill="rgb(0, 0, 0)" stroke="rgb(204, 204, 204)" stroke-width="1px"></line><line x1="158.55769230769232" y1="0" x2="158.55769230769232" y2="5" style="visibility: inherit;" fill="rgb(0, 0, 0)" stroke="rgb(204, 204, 204)" stroke-width="1px"></line><line x1="178.37740384615384" y1="0" x2="178.37740384615384" y2="5" style="visibility: inherit;" fill="rgb(0, 0, 0)" stroke="rgb(204, 204, 204)" stroke-width="1px"></line><line x1="198.1971153846154" y1="0" x2="198.1971153846154" y2="5" style="visibility: inherit;" fill="rgb(0, 0, 0)" stroke="rgb(204, 204, 204)" stroke-width="1px"></line><line x1="218.01682692307693" y1="0" x2="218.01682692307693" y2="5" style="visibility: inherit;" fill="rgb(0, 0, 0)" stroke="rgb(204, 204, 204)" stroke-width="1px"></line><line x1="237.83653846153848" y1="0" x2="237.83653846153848" y2="5" style="visibility: inherit;" fill="rgb(0, 0, 0)" stroke="rgb(204, 204, 204)" stroke-width="1px"></line><line x1="257.65625" y1="0" x2="257.65625" y2="5" style="visibility: inherit;" fill="rgb(0, 0, 0)" stroke="rgb(204, 204, 204)" stroke-width="1px"></line></g><g transform="translate(0, 8)"><text x="0" y="0" dx="0em" dy="0.95em" style="text-anchor: middle; visibility: hidden; font-family: Roboto, sans-serif; font-size: 12px; font-weight: 200;" fill="rgb(255, 255, 255)" stroke="none" stroke-width="1px">-1k</text><text x="19.81971153846154" y="0" dx="0em" dy="0.95em" style="text-anchor: middle; visibility: inherit; font-family: Roboto, sans-serif; font-size: 12px; font-weight: 200;" fill="rgb(255, 255, 255)" stroke="none" stroke-width="1px">0</text><text x="39.63942307692308" y="0" dx="0em" dy="0.95em" style="text-anchor: middle; visibility: hidden; font-family: Roboto, sans-serif; font-size: 12px; font-weight: 200;" fill="rgb(255, 255, 255)" stroke="none" stroke-width="1px">1k</text><text x="59.45913461538462" y="0" dx="0em" dy="0.95em" style="text-anchor: middle; visibility: inherit; font-family: Roboto, sans-serif; font-size: 12px; font-weight: 200;" fill="rgb(255, 255, 255)" stroke="none" stroke-width="1px">2k</text><text x="79.27884615384616" y="0" dx="0em" dy="0.95em" style="text-anchor: middle; visibility: hidden; font-family: Roboto, sans-serif; font-size: 12px; font-weight: 200;" fill="rgb(255, 255, 255)" stroke="none" stroke-width="1px">3k</text><text x="99.0985576923077" y="0" dx="0em" dy="0.95em" style="text-anchor: middle; visibility: inherit; font-family: Roboto, sans-serif; font-size: 12px; font-weight: 200;" fill="rgb(255, 255, 255)" stroke="none" stroke-width="1px">4k</text><text x="118.91826923076924" y="0" dx="0em" dy="0.95em" style="text-anchor: middle; visibility: hidden; font-family: Roboto, sans-serif; font-size: 12px; font-weight: 200;" fill="rgb(255, 255, 255)" stroke="none" stroke-width="1px">5k</text><text x="138.73798076923077" y="0" dx="0em" dy="0.95em" style="text-anchor: middle; visibility: inherit; font-family: Roboto, sans-serif; font-size: 12px; font-weight: 200;" fill="rgb(255, 255, 255)" stroke="none" stroke-width="1px">6k</text><text x="158.55769230769232" y="0" dx="0em" dy="0.95em" style="text-anchor: middle; visibility: hidden; font-family: Roboto, sans-serif; font-size: 12px; font-weight: 200;" fill="rgb(255, 255, 255)" stroke="none" stroke-width="1px">7k</text><text x="178.37740384615384" y="0" dx="0em" dy="0.95em" style="text-anchor: middle; visibility: inherit; font-family: Roboto, sans-serif; font-size: 12px; font-weight: 200;" fill="rgb(255, 255, 255)" stroke="none" stroke-width="1px">8k</text><text x="198.1971153846154" y="0" dx="0em" dy="0.95em" style="text-anchor: middle; visibility: hidden; font-family: Roboto, sans-serif; font-size: 12px; font-weight: 200;" fill="rgb(255, 255, 255)" stroke="none" stroke-width="1px">9k</text><text x="218.01682692307693" y="0" dx="0em" dy="0.95em" style="text-anchor: middle; visibility: inherit; font-family: Roboto, sans-serif; font-size: 12px; font-weight: 200;" fill="rgb(255, 255, 255)" stroke="none" stroke-width="1px">10k</text><text x="237.83653846153848" y="0" dx="0em" dy="0.95em" style="text-anchor: middle; visibility: hidden; font-family: Roboto, sans-serif; font-size: 12px; font-weight: 200;" fill="rgb(255, 255, 255)" stroke="none" stroke-width="1px">11k</text><text x="257.65625" y="0" dx="0em" dy="0.95em" style="text-anchor: middle; visibility: hidden; font-family: Roboto, sans-serif; font-size: 12px; font-weight: 200;" fill="rgb(255, 255, 255)" stroke="none" stroke-width="1px">12k</text></g><line x1="0" y1="0" x2="257.65625" y2="0" fill="rgb(0, 0, 0)" stroke="rgb(204, 204, 204)" stroke-width="1px"></line></g></g></g></g></svg>