<svg viewBox="0 0 330 200" xmlns="http://www.w3.org/2000/svg"><g><g><g><g><g><line x1="72.34375" y1="165" x2="67.34375" y2="165" style="visibility: inherit;" fill="rgb(0, 0, 0)" stroke="rgb(204, 204, 204)" stroke-width="1px"></line><line x1="72.34375" y1="148.49999958317494" x2="67.34375" y2="148.49999958317494" style="visibility: inherit;" fill="rgb(0, 0, 0)" stroke="rgb(204, 204, 204)" stroke-width="1px"></line><line x1="72.34375" y1="131.99999916634985" x2="67.34375" y2="131.99999916634985" style="visibility: inherit;" fill="rgb(0, 0, 0)" stroke="rgb(204, 204, 204)" stroke-width="1px"></line><line x1="72.34375" y1="115.49999874952479" x2="67.34375" y2="115.49999874952479" style="visibility: inherit;" fill="rgb(0, 0, 0)" stroke="rgb(204, 204, 204)" stroke-width="1px"></line><line x1="72.34375" y1="98.99999833269972" x2="67.34375" y2="98.99999833269972" style="visibility: inherit;" fill="rgb(0, 0, 0)" stroke="rgb(204, 204, 204)" stroke-width="1px"></line><line x1="72.34375" y1="82.49999791587464" x2="67.34375" y2="82.49999791587464" style="visibility: inherit;" fill="rgb(0, 0, 0)" stroke="rgb(204, 204, 204)" stroke-width="1px"></line><line x1="72.34375" y1="65.99999749904957" x2="67.34375" y2="65.99999749904957" style="visibility: inherit;" fill="rgb(0, 0, 0)" stroke="rgb(204, 204, 204)" stroke-width="1px"></line><line x1="72.34375" y1="49.4999970822245" x2="67.34375" y2="49.4999970822245" style="visibility: inherit;" fill="rgb(0, 0, 0)" stroke="rgb(204, 204, 204)" stroke-width="1px"></line><line x1="72.34375" y1="32.99999666539945" x2="67.34375" y2="32.99999666539945" style="visibility: inherit;" fill="rgb(0, 0, 0)" stroke="rgb(204, 204, 204)" stroke-width="1px"></line><line x1="72.34375" y1="16.499996248574362" x2="67.34375" y2="16.499996248574362" style="visibility: inherit;" fill="rgb(0, 0, 0)" stroke="rgb(204, 204, 204)" stroke-width="1px"></line></g><g transform="translate(62.34375, 0)"><text x="0" y="165" dx="0em" dy="0.3em" style="text-anchor: end; visibility: hidden; font-family: Roboto, sans-serif; font-size: 12px; font-weight: 200;" fill="rgb(255, 255, 255)" stroke="none" stroke-width="1px">0</text><text x="0" y="148.49999958317494" dx="0em" dy="0.3em" style="text-anchor: end; visibility: inherit; font-family: Roboto, sans-serif; font-size: 12px; font-weight: 200;" fill="rgb(255, 255, 255)" stroke="none" stroke-width="1px">2e-6</text><text x="0" y="131.99999916634985" dx="0em" dy="0.3em" style="text-anchor: end; visibility: hidden; font-family: Roboto, sans-serif; font-size: 12px; font-weight: 200;" fill="rgb(255, 255, 255)" stroke="none" stroke-width="1px">4e-6</text><text x="0" y="115.49999874952479" dx="0em" dy="0.3em" style="text-anchor: end; visibility: inherit; font-family: Roboto, sans-serif; font-size: 12px; font-weight: 200;" fill="rgb(255, 255, 255)" stroke="none" stroke-width="1px">6e-6</text><text x="0" y="98.99999833269972" dx="0em" dy="0.3em" style="text-anchor: end; visibility: hidden; font-family: Roboto, sans-serif; font-size: 12px; font-weight: 200;" fill="rgb(255, 255, 255)" stroke="none" stroke-width="1px">8e-6</text><text x="0" y="82.49999791587464" dx="0em" dy="0.3em" style="text-anchor: end; visibility: inherit; font-family: Roboto, sans-serif; font-size: 12px; font-weight: 200;" fill="rgb(255, 255, 255)" stroke="none" stroke-width="1px">1e-5</text><text x="0" y="65.99999749904957" dx="0em" dy="0.3em" style="text-anchor: end; visibility: hidden; font-family: Roboto, sans-serif; font-size: 12px; font-weight: 200;" fill="rgb(255, 255, 255)" stroke="none" stroke-width="1px">1.2e-5</text><text x="0" y="49.4999970822245" dx="0em" dy="0.3em" style="text-anchor: end; visibility: inherit; font-family: Roboto, sans-serif; font-size: 12px; font-weight: 200;" fill="rgb(255, 255, 255)" stroke="none" stroke-width="1px">1.4e-5</text><text x="0" y="32.99999666539945" dx="0em" dy="0.3em" style="text-anchor: end; visibility: hidden; font-family: Roboto, sans-serif; font-size: 12px; font-weight: 200;" fill="rgb(255, 255, 255)" stroke="none" stroke-width="1px">1.6e-5</text><text x="0" y="16.499996248574362" dx="0em" dy="0.3em" style="text-anchor: end; visibility: inherit; font-family: Roboto, sans-serif; font-size: 12px; font-weight: 200;" fill="rgb(255, 255, 255)" stroke="none" stroke-width="1px">1.8e-5</text></g><line x1="72.34375" y1="0" x2="72.34375" y2="165" fill="rgb(0, 0, 0)" stroke="rgb(204, 204, 204)" stroke-width="1px"></line></g></g><g transform="translate(72, 0)" clip-path="url(#clip_0)"><clipPath id="clip_0"><rect width="257" height="165"></rect></clipPath><g><g><g><line x1="0" y1="0" x2="0" y2="165" fill="rgb(0, 0, 0)" stroke="rgb(189, 189, 189)" stroke-width="1px" opacity="0.25"></line><line x1="21.471354166666664" y1="0" x2="21.471354166666664" y2="165" fill="rgb(0, 0, 0)" stroke="rgb(189, 189, 189)" stroke-width="1px" opacity="0.25"></line><line x1="42.94270833333333" y1="0" x2="42.94270833333333" y2="165" fill="rgb(0, 0, 0)" stroke="rgb(189, 189, 189)" stroke-width="1px" opacity="0.25"></line><line x1="64.4140625" y1="0" x2="64.4140625" y2="165" fill="rgb(0, 0, 0)" stroke="rgb(189, 189, 189)" stroke-width="1px" opacity="0.25"></line><line x1="85.88541666666666" y1="0" x2="85.88541666666666" y2="165" fill="rgb(0, 0, 0)" stroke="rgb(189, 189, 189)" stroke-width="1px" opacity="0.25"></line><line x1="107.35677083333334" y1="0" x2="107.35677083333334" y2="165" fill="rgb(0, 0, 0)" stroke="rgb(189, 189, 189)" stroke-width="1px" opacity="0.25"></line><line x1="128.828125" y1="0" x2="128.828125" y2="165" fill="rgb(0, 0, 0)" stroke="rgb(189, 189, 189)" stroke-width="1px" opacity="0.25"></line><line x1="150.29947916666669" y1="0" x2="150.29947916666669" y2="165" fill="rgb(0, 0, 0)" stroke="rgb(189, 189, 189)" stroke-width="1px" opacity="0.25"></line><line x1="171.77083333333331" y1="0" x2="171.77083333333331" y2="165" fill="rgb(0, 0, 0)" stroke="rgb(189, 189, 189)" stroke-width="1px" opacity="0.25"></line><line x1="193.2421875" y1="0" x2="193.2421875" y2="165" fill="rgb(0, 0, 0)" stroke="rgb(189, 189, 189)" stroke-width="1px" opacity="0.25"></line><line x1="214.71354166666669" y1="0" x2="214.71354166666669" y2="165" fill="rgb(0, 0, 0)" stroke="rgb(189, 189, 189)" stroke-width="1px" opacity="0.25"></line><line x1="236.18489583333331" y1="0" x2="236.18489583333331" y2="165" fill="rgb(0, 0, 0)" stroke="rgb(189, 189, 189)" stroke-width="1px" opacity="0.25"></line><line x1="257.65625" y1="0" x2="257.65625" y2="165" fill="rgb(0, 0, 0)" stroke="rgb(189, 189, 189)" stroke-width="1px" opacity="0.25"></line></g><g><line x1="0" y1="165" x2="257.65625" y2="165" fill="rgb(0, 0, 0)" stroke="rgb(189, 189, 189)" stroke-width="1px" opacity="0.25"></line><line x1="0" y1="148.49999958317494" x2="257.65625" y2="148.49999958317494" fill="rgb(0, 0, 0)" stroke="rgb(189, 189, 189)" stroke-width="1px" opacity="0.25"></line><line x1="0" y1="131.99999916634985" x2="257.65625" y2="131.99999916634985" fill="rgb(0, 0, 0)" stroke="rgb(189, 189, 189)" stroke-width="1px" opacity="0.25"></line><line x1="0" y1="115.49999874952479" x2="257.65625" y2="115.49999874952479" fill="rgb(0, 0, 0)" stroke="rgb(189, 189, 189)" stroke-width="1px" opacity="0.25"></line><line x1="0" y1="98.99999833269972" x2="257.65625" y2="98.99999833269972" fill="rgb(0, 0, 0)" stroke="rgb(189, 189, 189)" stroke-width="1px" opacity="0.25"></line><line x1="0" y1="82.49999791587464" x2="257.65625" y2="82.49999791587464" fill="rgb(0, 0, 0)" stroke="rgb(189, 189, 189)" stroke-width="1px" opacity="0.25"></line><line x1="0" y1="65.99999749904957" x2="257.65625" y2="65.99999749904957" fill="rgb(0, 0, 0)" stroke="rgb(189, 189, 189)" stroke-width="1px" opacity="0.25"></line><line x1="0" y1="49.4999970822245" x2="257.65625" y2="49.4999970822245" fill="rgb(0, 0, 0)" stroke="rgb(189, 189, 189)" stroke-width="1px" opacity="0.25"></line><line x1="0" y1="32.99999666539945" x2="257.65625" y2="32.99999666539945" fill="rgb(0, 0, 0)" stroke="rgb(189, 189, 189)" stroke-width="1px" opacity="0.25"></line><line x1="0" y1="16.499996248574362" x2="257.65625" y2="16.499996248574362" fill="rgb(0, 0, 0)" stroke="rgb(189, 189, 189)" stroke-width="1px" opacity="0.25"></line></g></g></g><g><g><line x1="0" y1="165" x2="257.65625" y2="165" fill="rgb(0, 0, 0)" stroke="rgb(153, 153, 153)" stroke-width="1.5px"></line></g></g><g><g><line x1="-10324871.031901043" y1="0" x2="-10324871.031901043" y2="165" fill="rgb(0, 0, 0)" stroke="rgb(153, 153, 153)" stroke-width="1.5px"></line></g></g><g><g><g><g><g><path stroke="rgb(255, 112, 67)" stroke-width="2px" d="M8.391518135127315,82.5L8.681977842881945,82.5L9.27026312572338,82.5L9.57848441478588,82.5L9.599490556278935,82.5L9.761503851996528,82.5L9.885793171296298,82.5L9.98880199291088,82.5L10.130196824363425,82.5L10.421467672164352,82.5L10.504979311342593,82.5L10.937358705873843,82.5L10.978953490306713,82.5L11.536129166666667,82.5L11.599326519097223,82.5L11.64295511791088,82.5L11.683237764033564,82.5L11.84816162109375,82.5L12.241540686487268,82.5L12.488127260561344,82.5L12.528910904947915,82.5L13.024589044415508,82.5L13.333555866608796,82.5L13.356792643229166,82.5L13.645236429398148,82.5L13.890009866898149,82.5L13.955557139756944,82.5L14.122818988715277,82.5L14.18526484375,82.5L14.388682067418982,82.5L14.823232454427083,82.5L14.886048093894676,82.5L14.94578617259838,82.5L15.437319147858796,82.5L15.936963523582175,82.5L16.060006311487268,82.5L16.10066470630787,82.5L16.351712550636574,82.5L16.516564836516203,82.5L16.596611237702547,82.5L16.84129521122685,82.5L17.109746780960645,82.5L17.542424388744212,82.5L17.563770493344908,82.5L17.602526287615742,82.5L17.747457928240742,82.5L18.056186179832174,82.5L18.140669994212963,82.5L18.345959997106483,82.5L18.450292885561343,82.5L18.471209563078702,82.5L18.594675813802084,82.5L19.0668845703125,82.5L19.1089982458044,82.5L19.129759852430553,82.5L19.212239673755786,82.5L19.54325638382523,82.5L19.64273436053241,82.5L19.680392730034722,82.5L19.928458441840277,82.5L20.010681799768516,82.5L20.130712633825233,82.5L20.70303754340278,82.5L20.786250969328705,82.5L20.827738396990743,82.5L21.50614968894676,82.5L21.670781297019676,82.5L21.79180816333912,82.5L21.812462413194442,82.5L22.10104934172454,82.5L22.290319328703703,82.5L22.456710394965278,82.5L23.658646979890047,82.5L23.738782845052082,82.5L24.13300287181713,82.5L24.53946753472222,82.5L24.76472589699074,82.5L24.78486722005208,82.5L24.90563165870949,82.5L25.02909790943287,82.5L25.35722791521991,82.5L25.377679380063658,82.5L25.419071379484954,82.5L25.666045630787035,82.5L25.935057841435185,82.5L26.449016453269678,82.5L26.628761508969905,82.5L26.730183836082176,82.5L27.03973515625,82.5L27.347866981336807,82.5L27.943989308449076,82.5L28.19020013382523,82.5L28.333855421730323,82.5L29.366031130642362,82.5L29.428375593171296,82.5L29.47042962601273,82.5L29.69398220847801,82.5L29.84127569806134,82.5L29.921304206452547,82.5L29.959904929832177,82.5L30.143610257523147,82.5L30.78750634765625,82.5L31.079755334924766,82.5L31.099872800925926,82.5L31.224084584780094,82.5L31.410384367766206,82.5L31.655008698640046,82.5L31.738663480179397,82.5L31.778409342447915,82.5L31.88082173755787,82.5L31.921593453414353,82.5L32.12769459635417,82.5L32.21033545283565,82.5L32.35669851707176,82.5L32.64658565538194,82.5L32.748174981915504,82.5L32.76907376663773,82.5L33.01286310040509,82.5L33.21494432870371,82.5L33.255513259548614,82.5L33.419924189814814,82.5L33.60623590133102,82.5L33.62597761863426,82.5L34.11709309534143,82.5L34.25878614004629,82.5L34.684306629774305,82.5L34.787649450231484,82.5L34.80860787760417,82.5L34.84699985170718,82.5L34.90806796151621,82.5L34.9893191442419,82.5L35.111276435908565,82.5L35.19564692925347,82.5L35.29847085865162,82.5L35.75291206958912,82.5L36.304684121817125,82.5L36.7113515697338,82.5L37.02365838035301,82.5L37.104790277777774,82.5L37.33106852936921,82.5L37.35242059823495,82.5L38.448920905671294,82.5L38.88206372612847,82.5L38.903356152343754,82.5L39.27079662905093,82.5L39.2917669849537,82.5L39.619670348668976,82.5L39.660125958478005,82.5L40.03022649739583,82.5L40.19394557291666,82.5L40.35570836950232,82.5L40.417474298321764,82.5L40.48014679542824,82.5L40.72557630208333,82.5L41.13260160590278,82.5L41.194743283420145,82.5L41.481212897858796,82.5L41.54142215350116,82.5L41.64793796296296,82.5L41.89510307074653,82.5L42.12319445891204,82.5L42.228147630931716,82.5L42.26915791739005,82.5L42.75624751519097,82.5L42.921487478298616,82.5L43.63950745442708,82.5L43.8249066333912,82.5L43.949494165943285,82.5L44.297705852141206,82.5L44.33928870804398,82.5L44.39739854239005,82.5L44.47884058159722,82.5L44.6234859375,82.5L45.422822703269674,82.5L46.04419772858796,82.5L46.08461755280671,82.5L46.3359337890625,82.5L46.39706154152199,82.5L46.56336314380788,82.5L47.5307251844618,82.5L47.613700039785876,82.5L47.79943321759259,82.5L47.94171076027199,82.5L48.37457326027199,82.5L48.60146583116319,82.5L48.6627247974537,82.5L48.78526658709491,82.5L48.80620115740741,82.5L49.11251984592014,82.5L49.35616603732639,82.5L49.435508655237264,82.5L49.53928686704282,82.5L49.579825976562496,82.5L49.84830140335648,82.5L49.86863358289931,82.5L49.972047974537034,82.5L50.19561248553241,82.5L50.23742794777199,82.5L52.10083134765625,82.5L52.28528220847801,82.5L52.48894993127893,82.5L52.96580485026041,82.5L53.248862905092594,82.5L53.26917719184028,82.5L53.351221621817125,82.5L53.37160151548033,82.5L53.510485391348375,82.5L53.755735970052086,82.5L54.37607917751736,82.5L54.880715643084486,82.5L55.190612890625,82.5L55.31487238859954,82.5L55.81046106409144,82.5L55.91308817274306,82.5L56.66981026475694,82.5L57.385742748119206,82.5L57.44977509765625,82.5L57.919580255353004,82.5L58.269837684461805,82.5L58.88605362051504,82.5L58.98933083405671,82.5L59.84805975115741,82.5L59.95166499927662,82.5L60.46788406756366,82.5L60.63410217013889,82.5L60.69388199869792,82.5L61.099410271990735,82.5L61.36204071903935,82.5L61.46757242476852,82.5L61.75482335792824,82.5L61.79552946686921,82.5L61.97899025969329,82.5L62.02114568504051,82.5L62.7565216724537,82.5L62.978732295283564,82.5L62.99927322410301,82.5L63.20398469328704,82.5L63.42915359157986,82.5L63.5720931676794,82.5L63.83954274088541,82.5L64.00201528501157,82.5L64.16337251157408,82.5L64.24620422453704,82.5L64.3309564308449,82.5L64.7150431712963,82.5L64.87554750795718,82.5L64.96103331886573,82.5L65.10464089265047,82.5L65.16720006872107,82.5L65.20719643012153,82.5L65.26679733072916,82.5L65.34917575954861,82.5L65.53032241753472,82.5L65.65182642505786,82.5L65.75474578269676,82.5L65.83739856770833,82.5L66.08478435329862,82.5L66.10541474609376,82.5L66.18564603949653,82.5L66.29157138671876,82.5L66.31184988787615,82.5L66.57609068648726,82.5L66.59713261357061,82.5L66.6175900426794,82.5L66.71910183376737,82.5L66.82287408130787,82.5L66.8845863317419,82.5L67.08915465856482,82.5L67.23427119140625,82.5L68.04214282045719,82.5L68.49431761067709,82.5L68.69950025679978,82.5L69.04783122829862,82.5L69.06847354962385,82.5L70.2138927589699,82.5L70.27490719039352,82.5L70.54294722583911,82.5L70.90845528067129,82.5L70.96981563946758,82.5L71.11610713252314,82.5L71.17775377604167,82.5L71.3438943431713,82.5L71.6116242368345,82.5L71.81476114004629,82.5L72.28782875072338,82.5L72.59369415509259,82.5L72.86156719111689,82.5L73.6028060510706,82.5L73.6231620876736,82.5L74.01444769603587,82.5L74.0378335792824,82.5L74.05857729311342,82.5L74.26223905164932,82.5L74.34538687065972,82.5L74.36589797815394,82.5L74.38610490813079,82.5L74.52826316550926,82.5L75.13264599971065,82.5L75.7130107385706,82.5L75.81728994864004,82.5L76.10779737051504,82.5L76.25387415002893,82.5L76.35898239293982,82.5L76.62909799262154,82.5L76.69181223958333,82.5L76.87652552806713,82.5L77.11995104166667,82.5L77.61252179904514,82.5L77.67441297743055,82.5L78.45167599826388,82.5L79.14818287037036,82.5L79.47266274594908,82.5L79.84081297019677,82.5L79.94545600043404,82.5L80.04658607855903,82.5L80.06768764829283,82.5L80.23051804832176,82.5L80.45711837022569,82.5L80.7448046947338,82.5L80.91031304976852,82.5L81.07311959273727,82.5L81.62591153428819,82.5L82.0776747902199,82.5L82.09825746889467,82.5L82.11792165075231,82.5L82.49582344835069,82.5L82.53682180627894,82.5L82.68292244285301,82.5L83.22027886646413,82.5L83.58796984230325,82.5L84.0337628689236,82.5L84.09493237123841,82.5L84.23994154730903,82.5L84.48813847294561,82.5L84.73631750578704,82.5L85.0035285083912,82.5L85.02328811848959,82.5L85.06506183087384,82.5L85.34887138310185,82.5L85.8429093496817,82.5L85.9033154260706,82.5L85.94665774016204,82.5L85.98834198857061,82.5L86.05041805917244,82.5L86.13069706669559,82.5L86.19210513961227,82.5L86.58427942346644,82.5L86.78953960503472,82.5L87.03142037398727,82.5L87.13575326244214,82.5L87.70752945963541,82.5L87.72813003110532,82.5L87.77184212962962,82.5L87.87423663194444,82.5L87.89516523799189,82.5L88.03837320601852,82.5L88.07892424406829,82.5L88.47345441261574,82.5L88.49373291377316,82.5L88.57456063368056,82.5L88.63663670428241,82.5L89.10790907118056,82.5L90.07722739076968,82.5L90.12088581090856,82.5L90.33021362123841,82.5L90.51620326244213,82.5L91.19277159649884,82.5L91.38061612413193,82.5L91.46195677083334,82.5L91.58668744574652,82.5L91.83017856626157,82.5L91.89245145760995,82.5L92.24214228153936,82.5L92.50634133029513,82.5L92.68946216001157,82.5L92.81461033347802,82.5L93.451277734375,82.5L93.49215084273727,82.5L93.67666731047454,82.5L93.90391177300347,82.5L94.02671599030671,82.5L94.17193391565394,82.5L94.92501780598958,82.5L95.43779549334491,82.5L95.56532937282986,82.5L95.68596259765626,82.5L95.74576031901042,82.5L96.19842417896412,82.5L96.40011176576968,82.5L96.91608033492476,82.5L97.3921956850405,82.5L97.70236728877315,82.5L97.98810329861111,82.5L98.11105065827547,82.5L98.50386908275463,82.5L98.56491333550348,82.5L98.6286355432581,82.5L98.73320700231483,82.5L99.2226107349537,82.5L99.97930896990741,82.5L100.08327803819444,82.5L100.18674610821759,82.5L100.30813679470486,82.5L101.17290751229746,82.5L101.23427979962383,82.5L101.56715736038772,82.5L101.73217664568865,82.5L101.81333836443865,82.5L102.12416603732639,82.5L102.16559382233795,82.5L102.38717819733796,82.5L102.55495297309028,82.5L102.78030079933448,82.5L103.02508616536458,82.5L103.49882177372686,82.5L103.62275920138889,82.5L104.2371679651331,82.5L104.44406831958912,82.5L104.77954033564815,82.5L105.30289266493055,82.5L105.38672041015626,82.5L105.51497596571181,82.5L105.67991771556713,82.5L106.1767409939236,82.5L106.23630014467592,82.5L106.29857900028935,82.5L107.05557544849538,82.5L107.15782680844907,82.5L107.24102234157986,82.5L107.26054934534143,82.5L107.4212206814236,82.5L107.64857846498843,82.5L107.81190986328126,82.5L107.89353083043981,82.5L107.93392679759839,82.5L108.05743479817708,82.5L108.22238251229746,82.5L108.24220772931135,82.5L108.42652737630208,82.5L108.70901882595487,82.5L108.85111147641783,82.5L109.30443736979167,82.5L109.44576063006365,82.5L109.57060462601272,82.5L109.65613218677662,82.5L109.67642261646412,82.5L110.22728810040509,82.5L110.2884814597801,82.5L110.34844618055556,82.5L110.43071725260417,82.5L110.75241181640625,82.5L110.79362488787616,82.5L110.83513617259838,82.5L110.8557367440683,82.5L110.87596156684027,82.5L111.03856532479746,82.5L111.81561959635417,82.5L112.33052652633103,82.5L112.64369815538194,82.5L113.03084456380208,82.5L113.11567430555556,82.5L113.26005126953125,82.5L113.34279351851852,82.5L113.44568901909723,82.5L114.08054924768518,82.5L114.30389904513889,82.5L114.95733199508102,82.5L115.44811347294561,82.5L115.73405823206019,82.5L115.83230160590279,82.5L116.10000764250579,82.5L116.12010125144677,82.5L116.27926959273726,82.5L116.32062580656829,82.5L116.42242984664351,82.5L117.1863388780382,82.5L117.26698766999421,82.5L117.34957484809028,82.5L117.5738669994213,82.5L117.5948910337095,82.5L117.63475618127893,82.5L117.65441439887152,82.5L118.31197462022568,82.5L118.53545563151042,82.5L118.57747984302662,82.5L118.68021430844907,82.5L118.72149298683449,82.5L118.82434673755787,82.5L118.94480699869791,82.5L119.08911239149306,82.5L119.60329168113425,82.5L119.91410742549189,82.5L120.10045492259837,82.5L120.16257274305555,82.5L120.78019028139468,82.5L121.25229168113425,82.5L121.27118050853588,82.5L121.33248122468171,82.5L121.37361676070601,82.5L121.45628743851273,82.5L121.57798826678241,82.5L122.14662726056135,82.5L122.31082347728588,82.5L122.78242387876158,82.5L122.96284289641204,82.5L122.98322875434027,82.5L123.26841008752893,82.5L123.41018663194446,82.5L123.83760972222223,82.5L124.0201937680845,82.5L124.08166744791667,82.5L124.12489644097222,82.5L125.04536146556714,82.5L125.14829871600115,82.5L125.16861896701388,82.5L125.3132166087963,82.5L125.39648967737268,82.5L125.43516197193287,82.5L125.88554151837384,82.5L126.33137629484955,82.5L127.3443589988426,82.5L128.3524152199074,82.5L128.63438181423612,82.5L129.04647077907987,82.5L129.7846976851852,82.5L129.92618794487848,82.5L130.1326529079861,82.5L130.37867287688078,82.5L130.4390133463542,82.5L130.4797552408854,82.5L130.4987931749132,82.5L130.96920072337963,82.5L131.13489397063077,82.5L132.00697091290508,82.5L132.69995886863424,82.5L132.96173642578125,82.5L132.98138271484376,82.5L133.0244566370081,82.5L134.62406059389465,82.5L134.72751077112267,82.5L134.7891693431713,82.5L134.95611508608218,82.5L135.3016607458044,82.5L135.48197837094907,82.5L135.62724401041666,82.5L135.7498812282986,82.5L135.87229776837384,82.5L135.89138938078702,82.5L136.60754850622106,82.5L136.77056379846644,82.5L137.23599714988424,82.5L137.27682850839122,82.5L137.29939728732637,82.5L137.87668446542244,82.5L137.9584724320023,82.5L137.99949464699074,82.5L138.407140234375,82.5L138.51123455222802,82.5L138.5506046657986,82.5L138.59062488425926,82.5L139.12044247685185,82.5L139.8710392686632,82.5L139.99496476779515,82.5L140.19959273726852,82.5L140.28311630497686,82.5L140.3643495949074,82.5L140.65087288773148,82.5L140.81670927734373,82.5L141.38367827690973,82.5L141.42697884114583,82.5L141.82003583622685,82.5L141.98781061197917,82.5L142.0084529333044,82.5L142.06870990306712,82.5L142.34945382306134,82.5L142.63520772569444,82.5L142.71721637008102,82.5L142.75829226345485,82.5L143.02383923611112,82.5L143.25073777126735,82.5L143.27064648799188,82.5L143.37273681278936,82.5L143.41421827618635,82.5L143.47412335431136,82.5L144.23596278573496,82.5L144.60469154369213,82.5L144.99584593822337,82.5L145.11961636646413,82.5L145.32389840856482,82.5L145.607344140625,82.5L145.97678264612267,82.5L146.03884678819443,82.5L146.05994835792825,82.5L146.74268374204283,82.5L146.80222500000002,82.5L146.98389651331019,82.5L147.10653969545717,82.5L147.2082005931713,82.5L147.4741412073206,82.5L147.57750788483796,82.5L147.90544703414352,82.5L148.0050800817419,82.5L148.1062757667824,82.5L148.18861244574654,82.5L148.5144402452257,82.5L148.7989953305845,82.5L149.4609512152778,82.5L149.7085218930845,82.5L149.9581800636574,82.5L150.6808760235822,82.5L150.82633251953123,82.5L150.9272657769097,82.5L150.9709361255787,82.5L151.01162434172454,82.5L151.13567509042247,82.5L151.21664595269095,82.5L151.54604038266783,82.5L151.77505026765044,82.5L152.08305684317128,82.5L152.27027512297454,82.5L152.61407921730324,82.5L153.00293140552662,82.5L153.20250167824074,82.5L153.32507328920718,82.5L153.42578586877892,82.5L153.46498898292825,82.5L153.5870476671007,82.5L153.77112874348958,82.5L154.1035053059896,82.5L154.90286592881944,82.5L154.94156804470487,82.5L155.0021888346354,82.5L155.22625434389468,82.5L155.3688062427662,82.5L156.13974714265046,82.5L156.72645189525463,82.5L156.83281859809028,82.5L156.8751171657986,82.5L156.93708587962965,82.5L157.28335321542247,82.5L157.4900507848669,82.5L157.50833722149883,82.5L157.81288452329284,82.5L158.02027991174768,82.5L158.69677667462386,82.5L159.16655201099536,82.5L159.31140611617477,82.5L159.3732972945602,82.5L159.49278538049768,82.5L160.26453145616318,82.5L160.53336473885994,82.5L160.5541024884259,82.5L160.5943195276331,82.5L160.7190263454861,82.5L160.78151395037617,82.5L161.1574535047743,82.5L161.52588404947917,82.5L162.01297961154512,82.5L162.09752306857638,82.5L162.3406742259838,82.5L162.52447498191552,82.5L163.09322729673033,82.5L163.21259609736688,82.5L163.99208975332755,82.5L164.07558349971063,82.5L164.11639696542244,82.5L164.38480678530092,82.5L164.4866943250868,82.5L164.5866017288773,82.5L164.66828233868634,82.5L164.87234370298032,82.5L165.03639081307873,82.5L165.69070050998266,82.5L165.83563215060764,82.5L166.0610515480324,82.5L166.0816521195023,82.5L166.1436685474537,82.5L166.20548815465858,82.5L166.65691741174768,82.5L166.73894991319446,82.5L166.77687667462382,82.5L167.02702391493057,82.5L167.51276558883103,82.5L167.7557855324074,82.5L167.9155324074074,82.5L168.03850958839698,82.5L168.26647572699653,82.5L168.4261689236111,82.5L168.46750128038192,82.5L168.58860568214698,82.5L168.71487513744214,82.5L169.28714636863427,82.5L169.4309209418403,82.5L169.47197894241899,82.5L169.512303338397,82.5L169.5741945167824,82.5L170.20762332175926,82.5L170.22520597511573,82.5L170.32505373625577,82.5L170.61278181061923,82.5L170.65418573857062,82.5L170.67462527488425,82.5L172.15446082537616,82.5L172.27351948423032,82.5L172.33510648509838,82.5L172.8696537398727,82.5L172.88931195746528,82.5L172.95009378255207,82.5L172.97321723813656,82.5L173.65397248625578,82.5L173.67466848596644,82.5L174.20855967158568,82.5L174.55603775318286,82.5L174.63903646556713,82.5L174.8049265335648,82.5L174.905179864728,82.5L174.92449811921296,82.5L175.04816119068286,82.5L175.4567968460648,82.5L175.72154460720486,82.5L175.84224343894675,82.5L176.16841716579862,82.5L176.35181235170717,82.5L176.3931148871528,82.5L176.41364388744213,82.5L177.5829082284433,82.5L178.39808608217595,82.5L178.7026572410301,82.5L178.7238124891493,82.5L178.76479295428243,82.5L179.05564033926507,82.5L179.21995584129053,82.5L179.6848822301794,82.5L179.7057511935764,82.5L180.06940436197917,82.5L180.6049953631366,82.5L180.76882179542824,82.5L181.01558133318863,82.5L181.05625165653933,82.5L181.44456109664353,82.5L181.4635095666956,82.5L181.89400425347222,82.5L182.03641897424768,82.5L182.2038597511574,82.5L182.2240487883391,82.5L182.5278624855324,82.5L182.79342138671876,82.5L182.81324660373264,82.5L183.32646564670137,82.5L183.773964453125,82.5L183.89874284215858,82.5L183.95837356409143,82.5L183.97932602719905,82.5L184.05999271195023,82.5L184.1615581814236,82.5L184.26344572120948,82.5L185.25005444516782,82.5L185.30942273943865,82.5L185.53350614149306,82.5L185.72130295500577,82.5L186.07214488208913,82.5L186.4927687102141,82.5L186.7788923972801,82.5L186.88219346788193,82.5L187.29501007306135,82.5L187.7259461154514,82.5L187.8093503978588,82.5L188.42574526186343,82.5L188.69375547598378,82.5L189.04510436559605,82.5L189.22721127025466,82.5L189.41725064742477,82.5L189.60152258029512,82.5L189.7250007595486,82.5L189.74445619212963,82.5L189.90656491608797,82.5L190.68404265046297,82.5L190.7855484772859,82.5L191.03217083695023,82.5L191.0758292570891,82.5L191.0955471173322,82.5L191.21640698423033,82.5L191.86871268807872,82.5L191.94955830078123,82.5L192.5885815863715,82.5L192.70959055989582,82.5L192.97681349103007,82.5L193.08028156105325,82.5L193.20471998697917,82.5L193.87408945312498,82.5L194.03875684678817,82.5L194.07962995515047,82.5L194.5348107349537,82.5L194.575039702691,82.5L194.77924420934605,82.5L195.00765766782408,82.5L195.09045359519675,82.5L195.27709930555557,82.5L195.44511861617477,82.5L195.50825632595487,82.5L195.7155682146991,82.5L196.37798334780092,82.5L196.47970985243057,82.5L196.6248562065972,82.5L196.8514088143808,82.5L196.97599038266785,82.5L197.11817249710649,82.5L197.44818124638311,82.5L197.53134695818866,82.5L197.92358684895834,82.5L198.46356158492475,82.5L198.54540322989004,82.5L198.7295797345197,82.5L198.85205591724537,82.5L198.87262070312502,82.5L198.95728940972222,82.5L199.28357645760997,82.5L199.83781175130207,82.5L200.16155205801505,82.5L200.34795919777198,82.5L200.492246697772,82.5L200.59605473090278,82.5L201.8180073893229,82.5L201.9004275679977,82.5L202.5441685872396,82.5L202.71068490306712,82.5L202.73150615234377,82.5L202.77261783130788,82.5L202.7932362955729,82.5L203.26862996961805,82.5L203.32999032841434,82.5L203.39343221571178,82.5L203.53623461371527,82.5L203.59816754195603,82.5L203.7011763635706,82.5L203.78437189670137,82.5L203.97336156322336,82.5L203.99330010127315,82.5L204.07528488859955,82.5L204.24130617042826,82.5L204.61063135489005,82.5L204.63143471137153,82.5L205.41164407913772,82.5L205.65864815176505,82.5L205.69799440827546,82.5L205.84547875434026,82.5L206.0539357819734,82.5L206.07486438802084,82.5L206.15636010561343,82.5L206.19692903645833,82.5L206.28188402777778,82.5L206.34360224247686,82.5L206.5291982421875,82.5L206.67195889033565,82.5L206.81718874421296,82.5L206.94434091073495,82.5L206.96584208622684,82.5L207.0866124891493,82.5L207.18846424334492,82.5L207.39384967447918,82.5L207.60138224103008,82.5L207.72367353153936,82.5L208.03410756293403,82.5L208.6945783456308,82.5L208.75764448423033,82.5L208.79805834418403,82.5L209.0682872649016,82.5L209.23587118417245,82.5L209.36116249999998,82.5L209.40219067925347,82.5L209.73095886140047,82.5L209.75164293258103,82.5L209.77238664641203,82.5L209.81342078993055,82.5L210.38371188512733,82.5L210.7549038845486,82.5L210.9386748191551,82.5L211.1271277018229,82.5L211.33260259693284,82.5L211.43342849754052,82.5L211.87934677372687,82.5L212.0417298538773,82.5L212.16235711443866,82.5L212.4299021158854,82.5L213.1038402090567,82.5L213.4132424225984,82.5L213.47539602864583,82.5L213.4957580295139,82.5L213.55673667534722,82.5L213.74030482494211,82.5L213.82226575520835,82.5L213.90490661168982,82.5L214.15022876157408,82.5L214.1711931532118,82.5L214.3152062970197,82.5L214.80608320312498,82.5L214.8457753870081,82.5L215.14981572627315,82.5L215.17048190465857,82.5L215.29555254267942,82.5L215.3568115089699,82.5L215.78190257161458,82.5L216.11754755135993,82.5L216.1789496600116,82.5L216.321101953125,82.5L216.62778446180556,82.5L216.85320385923032,82.5L217.11766533564816,82.5L217.38597972728587,82.5L217.73220531322337,82.5L217.87742920283566,82.5L218.26171872829863,82.5L218.28255787037037,82.5L218.42779368851274,82.5L218.48827133608216,82.5L218.5483195565683,82.5L218.73157756438079,82.5L218.7522437427662,82.5L219.1382390480324,82.5L219.30159430338543,82.5L219.38356716218172,82.5L219.40379794921876,82.5L219.42393927228008,82.5L219.54505560257525,82.5L219.62858513454862,82.5L219.89374442997683,82.5L219.99431386718751,82.5L220.0148488317419,82.5L220.17826969401042,82.5L220.2992011320891,82.5L221.73314762731482,82.5L222.28140076316552,82.5L223.16178592664932,82.5L223.2457687427662,82.5L223.26607706524882,82.5L223.51185846354167,82.5L224.10733068576388,82.5L224.24716884403935,82.5L224.55725694806134,82.5L224.59729505931713,82.5L224.94816084346064,82.5L225.08702086226853,82.5L225.12845461154515,82.5L225.29267468532987,82.5L226.20014357638888,82.5L226.324092932581,82.5L226.42626079282408,82.5L226.75565522280093,82.5L226.8994894386574,82.5L227.5752943467882,82.5L227.69789577907986,82.5L227.7590175672743,82.5L227.77976128110535,82.5L228.39991363208912,82.5L228.78995867332173,82.5L228.97947319516783,82.5L229.20597212456596,82.5L229.8252656213831,82.5L229.94661455801506,82.5L229.96730459346065,82.5L230.00863695023148,82.5L230.08933942057294,82.5L231.02762566912614,82.5L231.23489580801507,82.5L231.585433557581,82.5L232.05428443287036,82.5L232.2613040726273,82.5L232.36557135416666,82.5L232.4682998553241,82.5L232.71083072916667,82.5L232.878480255353,82.5L233.18249077329284,82.5L233.55381398654512,82.5L233.6149775245949,82.5L233.6764154188368,82.5L233.9411333586516,82.5L234.14959635054979,82.5L234.19107781394675,82.5L234.55909682436342,82.5L235.47208266059027,82.5L235.67861323061342,82.5L235.82081920211226,82.5L235.9235655960648,82.5L236.2537115234375,82.5L236.39446221426505,82.5L236.41484210792822,82.5L236.62129514250577,82.5L236.66206685836227,82.5L236.78525875289353,82.5L237.29805433304398,82.5L237.4389183449074,82.5L237.56156749131944,82.5L238.0627923972801,82.5L238.49976427589698,82.5L238.96939646990742,82.5L239.1545868995949,82.5L239.17432861689815,82.5L239.6202230360243,82.5L239.70272075014466,82.5L239.8464714662905,82.5" style="fill: none;" fill="none"></path></g></g></g></g><g opacity="0.2"><g><g><g><path stroke="rgb(255, 112, 67)" stroke-width="2px" d="M8.391518135127315,82.5L8.681977842881945,82.5L9.27026312572338,82.5L9.57848441478588,82.5L9.599490556278935,82.5L9.761503851996528,82.5L9.885793171296298,82.5L9.98880199291088,82.5L10.130196824363425,82.5L10.421467672164352,82.5L10.504979311342593,82.5L10.937358705873843,82.5L10.978953490306713,82.5L11.536129166666667,82.5L11.599326519097223,82.5L11.64295511791088,82.5L11.683237764033564,82.5L11.84816162109375,82.5L12.241540686487268,82.5L12.488127260561344,82.5L12.528910904947915,82.5L13.024589044415508,82.5L13.333555866608796,82.5L13.356792643229166,82.5L13.645236429398148,82.5L13.890009866898149,82.5L13.955557139756944,82.5L14.122818988715277,82.5L14.18526484375,82.5L14.388682067418982,82.5L14.823232454427083,82.5L14.886048093894676,82.5L14.94578617259838,82.5L15.437319147858796,82.5L15.936963523582175,82.5L16.060006311487268,82.5L16.10066470630787,82.5L16.351712550636574,82.5L16.516564836516203,82.5L16.596611237702547,82.5L16.84129521122685,82.5L17.109746780960645,82.5L17.542424388744212,82.5L17.563770493344908,82.5L17.602526287615742,82.5L17.747457928240742,82.5L18.056186179832174,82.5L18.140669994212963,82.5L18.345959997106483,82.5L18.450292885561343,82.5L18.471209563078702,82.5L18.594675813802084,82.5L19.0668845703125,82.5L19.1089982458044,82.5L19.129759852430553,82.5L19.212239673755786,82.5L19.54325638382523,82.5L19.64273436053241,82.5L19.680392730034722,82.5L19.928458441840277,82.5L20.010681799768516,82.5L20.130712633825233,82.5L20.70303754340278,82.5L20.786250969328705,82.5L20.827738396990743,82.5L21.50614968894676,82.5L21.670781297019676,82.5L21.79180816333912,82.5L21.812462413194442,82.5L22.10104934172454,82.5L22.290319328703703,82.5L22.456710394965278,82.5L23.658646979890047,82.5L23.738782845052082,82.5L24.13300287181713,82.5L24.53946753472222,82.5L24.76472589699074,82.5L24.78486722005208,82.5L24.90563165870949,82.5L25.02909790943287,82.5L25.35722791521991,82.5L25.377679380063658,82.5L25.419071379484954,82.5L25.666045630787035,82.5L25.935057841435185,82.5L26.449016453269678,82.5L26.628761508969905,82.5L26.730183836082176,82.5L27.03973515625,82.5L27.347866981336807,82.5L27.943989308449076,82.5L28.19020013382523,82.5L28.333855421730323,82.5L29.366031130642362,82.5L29.428375593171296,82.5L29.47042962601273,82.5L29.69398220847801,82.5L29.84127569806134,82.5L29.921304206452547,82.5L29.959904929832177,82.5L30.143610257523147,82.5L30.78750634765625,82.5L31.079755334924766,82.5L31.099872800925926,82.5L31.224084584780094,82.5L31.410384367766206,82.5L31.655008698640046,82.5L31.738663480179397,82.5L31.778409342447915,82.5L31.88082173755787,82.5L31.921593453414353,82.5L32.12769459635417,82.5L32.21033545283565,82.5L32.35669851707176,82.5L32.64658565538194,82.5L32.748174981915504,82.5L32.76907376663773,82.5L33.01286310040509,82.5L33.21494432870371,82.5L33.255513259548614,82.5L33.419924189814814,82.5L33.60623590133102,82.5L33.62597761863426,82.5L34.11709309534143,82.5L34.25878614004629,82.5L34.684306629774305,82.5L34.787649450231484,82.5L34.80860787760417,82.5L34.84699985170718,82.5L34.90806796151621,82.5L34.9893191442419,82.5L35.111276435908565,82.5L35.19564692925347,82.5L35.29847085865162,82.5L35.75291206958912,82.5L36.304684121817125,82.5L36.7113515697338,82.5L37.02365838035301,82.5L37.104790277777774,82.5L37.33106852936921,82.5L37.35242059823495,82.5L38.448920905671294,82.5L38.88206372612847,82.5L38.903356152343754,82.5L39.27079662905093,82.5L39.2917669849537,82.5L39.619670348668976,82.5L39.660125958478005,82.5L40.03022649739583,82.5L40.19394557291666,82.5L40.35570836950232,82.5L40.417474298321764,82.5L40.48014679542824,82.5L40.72557630208333,82.5L41.13260160590278,82.5L41.194743283420145,82.5L41.481212897858796,82.5L41.54142215350116,82.5L41.64793796296296,82.5L41.89510307074653,82.5L42.12319445891204,82.5L42.228147630931716,82.5L42.26915791739005,82.5L42.75624751519097,82.5L42.921487478298616,82.5L43.63950745442708,82.5L43.8249066333912,82.5L43.949494165943285,82.5L44.297705852141206,82.5L44.33928870804398,82.5L44.39739854239005,82.5L44.47884058159722,82.5L44.6234859375,82.5L45.422822703269674,82.5L46.04419772858796,82.5L46.08461755280671,82.5L46.3359337890625,82.5L46.39706154152199,82.5L46.56336314380788,82.5L47.5307251844618,82.5L47.613700039785876,82.5L47.79943321759259,82.5L47.94171076027199,82.5L48.37457326027199,82.5L48.60146583116319,82.5L48.6627247974537,82.5L48.78526658709491,82.5L48.80620115740741,82.5L49.11251984592014,82.5L49.35616603732639,82.5L49.435508655237264,82.5L49.53928686704282,82.5L49.579825976562496,82.5L49.84830140335648,82.5L49.86863358289931,82.5L49.972047974537034,82.5L50.19561248553241,82.5L50.23742794777199,82.5L52.10083134765625,82.5L52.28528220847801,82.5L52.48894993127893,82.5L52.96580485026041,82.5L53.248862905092594,82.5L53.26917719184028,82.5L53.351221621817125,82.5L53.37160151548033,82.5L53.510485391348375,82.5L53.755735970052086,82.5L54.37607917751736,82.5L54.880715643084486,82.5L55.190612890625,82.5L55.31487238859954,82.5L55.81046106409144,82.5L55.91308817274306,82.5L56.66981026475694,82.5L57.385742748119206,82.5L57.44977509765625,82.5L57.919580255353004,82.5L58.269837684461805,82.5L58.88605362051504,82.5L58.98933083405671,82.5L59.84805975115741,82.5L59.95166499927662,82.5L60.46788406756366,82.5L60.63410217013889,82.5L60.69388199869792,82.5L61.099410271990735,82.5L61.36204071903935,82.5L61.46757242476852,82.5L61.75482335792824,82.5L61.79552946686921,82.5L61.97899025969329,82.5L62.02114568504051,82.5L62.7565216724537,82.5L62.978732295283564,82.5L62.99927322410301,82.5L63.20398469328704,82.5L63.42915359157986,82.5L63.5720931676794,82.5L63.83954274088541,82.5L64.00201528501157,82.5L64.16337251157408,82.5L64.24620422453704,82.5L64.3309564308449,82.5L64.7150431712963,82.5L64.87554750795718,82.5L64.96103331886573,82.5L65.10464089265047,82.5L65.16720006872107,82.5L65.20719643012153,82.5L65.26679733072916,82.5L65.34917575954861,82.5L65.53032241753472,82.5L65.65182642505786,82.5L65.75474578269676,82.5L65.83739856770833,82.5L66.08478435329862,82.5L66.10541474609376,82.5L66.18564603949653,82.5L66.29157138671876,82.5L66.31184988787615,82.5L66.57609068648726,82.5L66.59713261357061,82.5L66.6175900426794,82.5L66.71910183376737,82.5L66.82287408130787,82.5L66.8845863317419,82.5L67.08915465856482,82.5L67.23427119140625,82.5L68.04214282045719,82.5L68.49431761067709,82.5L68.69950025679978,82.5L69.04783122829862,82.5L69.06847354962385,82.5L70.2138927589699,82.5L70.27490719039352,82.5L70.54294722583911,82.5L70.90845528067129,82.5L70.96981563946758,82.5L71.11610713252314,82.5L71.17775377604167,82.5L71.3438943431713,82.5L71.6116242368345,82.5L71.81476114004629,82.5L72.28782875072338,82.5L72.59369415509259,82.5L72.86156719111689,82.5L73.6028060510706,82.5L73.6231620876736,82.5L74.01444769603587,82.5L74.0378335792824,82.5L74.05857729311342,82.5L74.26223905164932,82.5L74.34538687065972,82.5L74.36589797815394,82.5L74.38610490813079,82.5L74.52826316550926,82.5L75.13264599971065,82.5L75.7130107385706,82.5L75.81728994864004,82.5L76.10779737051504,82.5L76.25387415002893,82.5L76.35898239293982,82.5L76.62909799262154,82.5L76.69181223958333,82.5L76.87652552806713,82.5L77.11995104166667,82.5L77.61252179904514,82.5L77.67441297743055,82.5L78.45167599826388,82.5L79.14818287037036,82.5L79.47266274594908,82.5L79.84081297019677,82.5L79.94545600043404,82.5L80.04658607855903,82.5L80.06768764829283,82.5L80.23051804832176,82.5L80.45711837022569,82.5L80.7448046947338,82.5L80.91031304976852,82.5L81.07311959273727,82.5L81.62591153428819,82.5L82.0776747902199,82.5L82.09825746889467,82.5L82.11792165075231,82.5L82.49582344835069,82.5L82.53682180627894,82.5L82.68292244285301,82.5L83.22027886646413,82.5L83.58796984230325,82.5L84.0337628689236,82.5L84.09493237123841,82.5L84.23994154730903,82.5L84.48813847294561,82.5L84.73631750578704,82.5L85.0035285083912,82.5L85.02328811848959,82.5L85.06506183087384,82.5L85.34887138310185,82.5L85.8429093496817,82.5L85.9033154260706,82.5L85.94665774016204,82.5L85.98834198857061,82.5L86.05041805917244,82.5L86.13069706669559,82.5L86.19210513961227,82.5L86.58427942346644,82.5L86.78953960503472,82.5L87.03142037398727,82.5L87.13575326244214,82.5L87.70752945963541,82.5L87.72813003110532,82.5L87.77184212962962,82.5L87.87423663194444,82.5L87.89516523799189,82.5L88.03837320601852,82.5L88.07892424406829,82.5L88.47345441261574,82.5L88.49373291377316,82.5L88.57456063368056,82.5L88.63663670428241,82.5L89.10790907118056,82.5L90.07722739076968,82.5L90.12088581090856,82.5L90.33021362123841,82.5L90.51620326244213,82.5L91.19277159649884,82.5L91.38061612413193,82.5L91.46195677083334,82.5L91.58668744574652,82.5L91.83017856626157,82.5L91.89245145760995,82.5L92.24214228153936,82.5L92.50634133029513,82.5L92.68946216001157,82.5L92.81461033347802,82.5L93.451277734375,82.5L93.49215084273727,82.5L93.67666731047454,82.5L93.90391177300347,82.5L94.02671599030671,82.5L94.17193391565394,82.5L94.92501780598958,82.5L95.43779549334491,82.5L95.56532937282986,82.5L95.68596259765626,82.5L95.74576031901042,82.5L96.19842417896412,82.5L96.40011176576968,82.5L96.91608033492476,82.5L97.3921956850405,82.5L97.70236728877315,82.5L97.98810329861111,82.5L98.11105065827547,82.5L98.50386908275463,82.5L98.56491333550348,82.5L98.6286355432581,82.5L98.73320700231483,82.5L99.2226107349537,82.5L99.97930896990741,82.5L100.08327803819444,82.5L100.18674610821759,82.5L100.30813679470486,82.5L101.17290751229746,82.5L101.23427979962383,82.5L101.56715736038772,82.5L101.73217664568865,82.5L101.81333836443865,82.5L102.12416603732639,82.5L102.16559382233795,82.5L102.38717819733796,82.5L102.55495297309028,82.5L102.78030079933448,82.5L103.02508616536458,82.5L103.49882177372686,82.5L103.62275920138889,82.5L104.2371679651331,82.5L104.44406831958912,82.5L104.77954033564815,82.5L105.30289266493055,82.5L105.38672041015626,82.5L105.51497596571181,82.5L105.67991771556713,82.5L106.1767409939236,82.5L106.23630014467592,82.5L106.29857900028935,82.5L107.05557544849538,82.5L107.15782680844907,82.5L107.24102234157986,82.5L107.26054934534143,82.5L107.4212206814236,82.5L107.64857846498843,82.5L107.81190986328126,82.5L107.89353083043981,82.5L107.93392679759839,82.5L108.05743479817708,82.5L108.22238251229746,82.5L108.24220772931135,82.5L108.42652737630208,82.5L108.70901882595487,82.5L108.85111147641783,82.5L109.30443736979167,82.5L109.44576063006365,82.5L109.57060462601272,82.5L109.65613218677662,82.5L109.67642261646412,82.5L110.22728810040509,82.5L110.2884814597801,82.5L110.34844618055556,82.5L110.43071725260417,82.5L110.75241181640625,82.5L110.79362488787616,82.5L110.83513617259838,82.5L110.8557367440683,82.5L110.87596156684027,82.5L111.03856532479746,82.5L111.81561959635417,82.5L112.33052652633103,82.5L112.64369815538194,82.5L113.03084456380208,82.5L113.11567430555556,82.5L113.26005126953125,82.5L113.34279351851852,82.5L113.44568901909723,82.5L114.08054924768518,82.5L114.30389904513889,82.5L114.95733199508102,82.5L115.44811347294561,82.5L115.73405823206019,82.5L115.83230160590279,82.5L116.10000764250579,82.5L116.12010125144677,82.5L116.27926959273726,82.5L116.32062580656829,82.5L116.42242984664351,82.5L117.1863388780382,82.5L117.26698766999421,82.5L117.34957484809028,82.5L117.5738669994213,82.5L117.5948910337095,82.5L117.63475618127893,82.5L117.65441439887152,82.5L118.31197462022568,82.5L118.53545563151042,82.5L118.57747984302662,82.5L118.68021430844907,82.5L118.72149298683449,82.5L118.82434673755787,82.5L118.94480699869791,82.5L119.08911239149306,82.5L119.60329168113425,82.5L119.91410742549189,82.5L120.10045492259837,82.5L120.16257274305555,82.5L120.78019028139468,82.5L121.25229168113425,82.5L121.27118050853588,82.5L121.33248122468171,82.5L121.37361676070601,82.5L121.45628743851273,82.5L121.57798826678241,82.5L122.14662726056135,82.5L122.31082347728588,82.5L122.78242387876158,82.5L122.96284289641204,82.5L122.98322875434027,82.5L123.26841008752893,82.5L123.41018663194446,82.5L123.83760972222223,82.5L124.0201937680845,82.5L124.08166744791667,82.5L124.12489644097222,82.5L125.04536146556714,82.5L125.14829871600115,82.5L125.16861896701388,82.5L125.3132166087963,82.5L125.39648967737268,82.5L125.43516197193287,82.5L125.88554151837384,82.5L126.33137629484955,82.5L127.3443589988426,82.5L128.3524152199074,82.5L128.63438181423612,82.5L129.04647077907987,82.5L129.7846976851852,82.5L129.92618794487848,82.5L130.1326529079861,82.5L130.37867287688078,82.5L130.4390133463542,82.5L130.4797552408854,82.5L130.4987931749132,82.5L130.96920072337963,82.5L131.13489397063077,82.5L132.00697091290508,82.5L132.69995886863424,82.5L132.96173642578125,82.5L132.98138271484376,82.5L133.0244566370081,82.5L134.62406059389465,82.5L134.72751077112267,82.5L134.7891693431713,82.5L134.95611508608218,82.5L135.3016607458044,82.5L135.48197837094907,82.5L135.62724401041666,82.5L135.7498812282986,82.5L135.87229776837384,82.5L135.89138938078702,82.5L136.60754850622106,82.5L136.77056379846644,82.5L137.23599714988424,82.5L137.27682850839122,82.5L137.29939728732637,82.5L137.87668446542244,82.5L137.9584724320023,82.5L137.99949464699074,82.5L138.407140234375,82.5L138.51123455222802,82.5L138.5506046657986,82.5L138.59062488425926,82.5L139.12044247685185,82.5L139.8710392686632,82.5L139.99496476779515,82.5L140.19959273726852,82.5L140.28311630497686,82.5L140.3643495949074,82.5L140.65087288773148,82.5L140.81670927734373,82.5L141.38367827690973,82.5L141.42697884114583,82.5L141.82003583622685,82.5L141.98781061197917,82.5L142.0084529333044,82.5L142.06870990306712,82.5L142.34945382306134,82.5L142.63520772569444,82.5L142.71721637008102,82.5L142.75829226345485,82.5L143.02383923611112,82.5L143.25073777126735,82.5L143.27064648799188,82.5L143.37273681278936,82.5L143.41421827618635,82.5L143.47412335431136,82.5L144.23596278573496,82.5L144.60469154369213,82.5L144.99584593822337,82.5L145.11961636646413,82.5L145.32389840856482,82.5L145.607344140625,82.5L145.97678264612267,82.5L146.03884678819443,82.5L146.05994835792825,82.5L146.74268374204283,82.5L146.80222500000002,82.5L146.98389651331019,82.5L147.10653969545717,82.5L147.2082005931713,82.5L147.4741412073206,82.5L147.57750788483796,82.5L147.90544703414352,82.5L148.0050800817419,82.5L148.1062757667824,82.5L148.18861244574654,82.5L148.5144402452257,82.5L148.7989953305845,82.5L149.4609512152778,82.5L149.7085218930845,82.5L149.9581800636574,82.5L150.6808760235822,82.5L150.82633251953123,82.5L150.9272657769097,82.5L150.9709361255787,82.5L151.01162434172454,82.5L151.13567509042247,82.5L151.21664595269095,82.5L151.54604038266783,82.5L151.77505026765044,82.5L152.08305684317128,82.5L152.27027512297454,82.5L152.61407921730324,82.5L153.00293140552662,82.5L153.20250167824074,82.5L153.32507328920718,82.5L153.42578586877892,82.5L153.46498898292825,82.5L153.5870476671007,82.5L153.77112874348958,82.5L154.1035053059896,82.5L154.90286592881944,82.5L154.94156804470487,82.5L155.0021888346354,82.5L155.22625434389468,82.5L155.3688062427662,82.5L156.13974714265046,82.5L156.72645189525463,82.5L156.83281859809028,82.5L156.8751171657986,82.5L156.93708587962965,82.5L157.28335321542247,82.5L157.4900507848669,82.5L157.50833722149883,82.5L157.81288452329284,82.5L158.02027991174768,82.5L158.69677667462386,82.5L159.16655201099536,82.5L159.31140611617477,82.5L159.3732972945602,82.5L159.49278538049768,82.5L160.26453145616318,82.5L160.53336473885994,82.5L160.5541024884259,82.5L160.5943195276331,82.5L160.7190263454861,82.5L160.78151395037617,82.5L161.1574535047743,82.5L161.52588404947917,82.5L162.01297961154512,82.5L162.09752306857638,82.5L162.3406742259838,82.5L162.52447498191552,82.5L163.09322729673033,82.5L163.21259609736688,82.5L163.99208975332755,82.5L164.07558349971063,82.5L164.11639696542244,82.5L164.38480678530092,82.5L164.4866943250868,82.5L164.5866017288773,82.5L164.66828233868634,82.5L164.87234370298032,82.5L165.03639081307873,82.5L165.69070050998266,82.5L165.83563215060764,82.5L166.0610515480324,82.5L166.0816521195023,82.5L166.1436685474537,82.5L166.20548815465858,82.5L166.65691741174768,82.5L166.73894991319446,82.5L166.77687667462382,82.5L167.02702391493057,82.5L167.51276558883103,82.5L167.7557855324074,82.5L167.9155324074074,82.5L168.03850958839698,82.5L168.26647572699653,82.5L168.4261689236111,82.5L168.46750128038192,82.5L168.58860568214698,82.5L168.71487513744214,82.5L169.28714636863427,82.5L169.4309209418403,82.5L169.47197894241899,82.5L169.512303338397,82.5L169.5741945167824,82.5L170.20762332175926,82.5L170.22520597511573,82.5L170.32505373625577,82.5L170.61278181061923,82.5L170.65418573857062,82.5L170.67462527488425,82.5L172.15446082537616,82.5L172.27351948423032,82.5L172.33510648509838,82.5L172.8696537398727,82.5L172.88931195746528,82.5L172.95009378255207,82.5L172.97321723813656,82.5L173.65397248625578,82.5L173.67466848596644,82.5L174.20855967158568,82.5L174.55603775318286,82.5L174.63903646556713,82.5L174.8049265335648,82.5L174.905179864728,82.5L174.92449811921296,82.5L175.04816119068286,82.5L175.4567968460648,82.5L175.72154460720486,82.5L175.84224343894675,82.5L176.16841716579862,82.5L176.35181235170717,82.5L176.3931148871528,82.5L176.41364388744213,82.5L177.5829082284433,82.5L178.39808608217595,82.5L178.7026572410301,82.5L178.7238124891493,82.5L178.76479295428243,82.5L179.05564033926507,82.5L179.21995584129053,82.5L179.6848822301794,82.5L179.7057511935764,82.5L180.06940436197917,82.5L180.6049953631366,82.5L180.76882179542824,82.5L181.01558133318863,82.5L181.05625165653933,82.5L181.44456109664353,82.5L181.4635095666956,82.5L181.89400425347222,82.5L182.03641897424768,82.5L182.2038597511574,82.5L182.2240487883391,82.5L182.5278624855324,82.5L182.79342138671876,82.5L182.81324660373264,82.5L183.32646564670137,82.5L183.773964453125,82.5L183.89874284215858,82.5L183.95837356409143,82.5L183.97932602719905,82.5L184.05999271195023,82.5L184.1615581814236,82.5L184.26344572120948,82.5L185.25005444516782,82.5L185.30942273943865,82.5L185.53350614149306,82.5L185.72130295500577,82.5L186.07214488208913,82.5L186.4927687102141,82.5L186.7788923972801,82.5L186.88219346788193,82.5L187.29501007306135,82.5L187.7259461154514,82.5L187.8093503978588,82.5L188.42574526186343,82.5L188.69375547598378,82.5L189.04510436559605,82.5L189.22721127025466,82.5L189.41725064742477,82.5L189.60152258029512,82.5L189.7250007595486,82.5L189.74445619212963,82.5L189.90656491608797,82.5L190.68404265046297,82.5L190.7855484772859,82.5L191.03217083695023,82.5L191.0758292570891,82.5L191.0955471173322,82.5L191.21640698423033,82.5L191.86871268807872,82.5L191.94955830078123,82.5L192.5885815863715,82.5L192.70959055989582,82.5L192.97681349103007,82.5L193.08028156105325,82.5L193.20471998697917,82.5L193.87408945312498,82.5L194.03875684678817,82.5L194.07962995515047,82.5L194.5348107349537,82.5L194.575039702691,82.5L194.77924420934605,82.5L195.00765766782408,82.5L195.09045359519675,82.5L195.27709930555557,82.5L195.44511861617477,82.5L195.50825632595487,82.5L195.7155682146991,82.5L196.37798334780092,82.5L196.47970985243057,82.5L196.6248562065972,82.5L196.8514088143808,82.5L196.97599038266785,82.5L197.11817249710649,82.5L197.44818124638311,82.5L197.53134695818866,82.5L197.92358684895834,82.5L198.46356158492475,82.5L198.54540322989004,82.5L198.7295797345197,82.5L198.85205591724537,82.5L198.87262070312502,82.5L198.95728940972222,82.5L199.28357645760997,82.5L199.83781175130207,82.5L200.16155205801505,82.5L200.34795919777198,82.5L200.492246697772,82.5L200.59605473090278,82.5L201.8180073893229,82.5L201.9004275679977,82.5L202.5441685872396,82.5L202.71068490306712,82.5L202.73150615234377,82.5L202.77261783130788,82.5L202.7932362955729,82.5L203.26862996961805,82.5L203.32999032841434,82.5L203.39343221571178,82.5L203.53623461371527,82.5L203.59816754195603,82.5L203.7011763635706,82.5L203.78437189670137,82.5L203.97336156322336,82.5L203.99330010127315,82.5L204.07528488859955,82.5L204.24130617042826,82.5L204.61063135489005,82.5L204.63143471137153,82.5L205.41164407913772,82.5L205.65864815176505,82.5L205.69799440827546,82.5L205.84547875434026,82.5L206.0539357819734,82.5L206.07486438802084,82.5L206.15636010561343,82.5L206.19692903645833,82.5L206.28188402777778,82.5L206.34360224247686,82.5L206.5291982421875,82.5L206.67195889033565,82.5L206.81718874421296,82.5L206.94434091073495,82.5L206.96584208622684,82.5L207.0866124891493,82.5L207.18846424334492,82.5L207.39384967447918,82.5L207.60138224103008,82.5L207.72367353153936,82.5L208.03410756293403,82.5L208.6945783456308,82.5L208.75764448423033,82.5L208.79805834418403,82.5L209.0682872649016,82.5L209.23587118417245,82.5L209.36116249999998,82.5L209.40219067925347,82.5L209.73095886140047,82.5L209.75164293258103,82.5L209.77238664641203,82.5L209.81342078993055,82.5L210.38371188512733,82.5L210.7549038845486,82.5L210.9386748191551,82.5L211.1271277018229,82.5L211.33260259693284,82.5L211.43342849754052,82.5L211.87934677372687,82.5L212.0417298538773,82.5L212.16235711443866,82.5L212.4299021158854,82.5L213.1038402090567,82.5L213.4132424225984,82.5L213.47539602864583,82.5L213.4957580295139,82.5L213.55673667534722,82.5L213.74030482494211,82.5L213.82226575520835,82.5L213.90490661168982,82.5L214.15022876157408,82.5L214.1711931532118,82.5L214.3152062970197,82.5L214.80608320312498,82.5L214.8457753870081,82.5L215.14981572627315,82.5L215.17048190465857,82.5L215.29555254267942,82.5L215.3568115089699,82.5L215.78190257161458,82.5L216.11754755135993,82.5L216.1789496600116,82.5L216.321101953125,82.5L216.62778446180556,82.5L216.85320385923032,82.5L217.11766533564816,82.5L217.38597972728587,82.5L217.73220531322337,82.5L217.87742920283566,82.5L218.26171872829863,82.5L218.28255787037037,82.5L218.42779368851274,82.5L218.48827133608216,82.5L218.5483195565683,82.5L218.73157756438079,82.5L218.7522437427662,82.5L219.1382390480324,82.5L219.30159430338543,82.5L219.38356716218172,82.5L219.40379794921876,82.5L219.42393927228008,82.5L219.54505560257525,82.5L219.62858513454862,82.5L219.89374442997683,82.5L219.99431386718751,82.5L220.0148488317419,82.5L220.17826969401042,82.5L220.2992011320891,82.5L221.73314762731482,82.5L222.28140076316552,82.5L223.16178592664932,82.5L223.2457687427662,82.5L223.26607706524882,82.5L223.51185846354167,82.5L224.10733068576388,82.5L224.24716884403935,82.5L224.55725694806134,82.5L224.59729505931713,82.5L224.94816084346064,82.5L225.08702086226853,82.5L225.12845461154515,82.5L225.29267468532987,82.5L226.20014357638888,82.5L226.324092932581,82.5L226.42626079282408,82.5L226.75565522280093,82.5L226.8994894386574,82.5L227.5752943467882,82.5L227.69789577907986,82.5L227.7590175672743,82.5L227.77976128110535,82.5L228.39991363208912,82.5L228.78995867332173,82.5L228.97947319516783,82.5L229.20597212456596,82.5L229.8252656213831,82.5L229.94661455801506,82.5L229.96730459346065,82.5L230.00863695023148,82.5L230.08933942057294,82.5L231.02762566912614,82.5L231.23489580801507,82.5L231.585433557581,82.5L232.05428443287036,82.5L232.2613040726273,82.5L232.36557135416666,82.5L232.4682998553241,82.5L232.71083072916667,82.5L232.878480255353,82.5L233.18249077329284,82.5L233.55381398654512,82.5L233.6149775245949,82.5L233.6764154188368,82.5L233.9411333586516,82.5L234.14959635054979,82.5L234.19107781394675,82.5L234.55909682436342,82.5L235.47208266059027,82.5L235.67861323061342,82.5L235.82081920211226,82.5L235.9235655960648,82.5L236.2537115234375,82.5L236.39446221426505,82.5L236.41484210792822,82.5L236.62129514250577,82.5L236.66206685836227,82.5L236.78525875289353,82.5L237.29805433304398,82.5L237.4389183449074,82.5L237.56156749131944,82.5L238.0627923972801,82.5L238.49976427589698,82.5L238.96939646990742,82.5L239.1545868995949,82.5L239.17432861689815,82.5L239.6202230360243,82.5L239.70272075014466,82.5L239.8464714662905,82.5" style="fill: none;" fill="none"></path></g></g></g></g></g></g><g transform="translate(72, 165)" clip-path="url(#clip_1)"><clipPath id="clip_1"><rect width="257" height="35"></rect></clipPath><g><g visibility="inherit"><g><g transform="translate(0,0)" style="visibility: inherit;"><text transform="translate(3,14)" style="text-anchor: start; font-family: Roboto, sans-serif; font-size: 12px; font-weight: 200;" fill="rgb(255, 255, 255)" stroke="none" stroke-width="1px">09 AM</text></g><g transform="translate(64.4140625,0)" style="visibility: inherit;"><text transform="translate(3,14)" style="text-anchor: start; font-family: Roboto, sans-serif; font-size: 12px; font-weight: 200;" fill="rgb(255, 255, 255)" stroke="none" stroke-width="1px">12 PM</text></g><g transform="translate(128.828125,0)" style="visibility: inherit;"><text transform="translate(3,14)" style="text-anchor: start; font-family: Roboto, sans-serif; font-size: 12px; font-weight: 200;" fill="rgb(255, 255, 255)" stroke="none" stroke-width="1px">03 PM</text></g><g transform="translate(193.2421875,0)" style="visibility: inherit;"><text transform="translate(3,14)" style="text-anchor: start; font-family: Roboto, sans-serif; font-size: 12px; font-weight: 200;" fill="rgb(255, 255, 255)" stroke="none" stroke-width="1px">06 PM</text></g><g transform="translate(257.65625,0)" style="visibility: hidden;"><text transform="translate(3,14)" style="text-anchor: start; font-family: Roboto, sans-serif; font-size: 12px; font-weight: 200;" fill="rgb(255, 255, 255)" stroke="none" stroke-width="1px">09 PM</text></g></g><g><line x1="0" y1="0" x2="0" y2="17" fill="rgb(0, 0, 0)" stroke="rgb(204, 204, 204)" stroke-width="1px"></line><line x1="64.4140625" y1="0" x2="64.4140625" y2="17" fill="rgb(0, 0, 0)" stroke="rgb(204, 204, 204)" stroke-width="1px"></line><line x1="128.828125" y1="0" x2="128.828125" y2="17" fill="rgb(0, 0, 0)" stroke="rgb(204, 204, 204)" stroke-width="1px"></line><line x1="193.2421875" y1="0" x2="193.2421875" y2="17" fill="rgb(0, 0, 0)" stroke="rgb(204, 204, 204)" stroke-width="1px"></line><line x1="257.65625" y1="0" x2="257.65625" y2="17" fill="rgb(0, 0, 0)" stroke="rgb(204, 204, 204)" stroke-width="1px"></line></g><line x1="0" y1="0" x2="257.65625" y2="0" style="visibility: inherit;" fill="rgb(0, 0, 0)" stroke="rgb(204, 204, 204)" stroke-width="1px"></line></g><g visibility="inherit"><g><g transform="translate(128.828125,0)" style="visibility: inherit;"><text transform="translate(0,31)" style="text-anchor: middle; font-family: Roboto, sans-serif; font-size: 12px; font-weight: 200;" fill="rgb(255, 255, 255)" stroke="none" stroke-width="1px">November  9, 2024</text></g></g><g><line x1="0" y1="17" x2="0" y2="34" fill="rgb(0, 0, 0)" stroke="rgb(204, 204, 204)" stroke-width="1px"></line><line x1="257.65625" y1="17" x2="257.65625" y2="34" fill="rgb(0, 0, 0)" stroke="rgb(204, 204, 204)" stroke-width="1px"></line></g><line x1="0" y1="17" x2="257.65625" y2="17" style="visibility: inherit;" fill="rgb(0, 0, 0)" stroke="rgb(204, 204, 204)" stroke-width="1px"></line></g></g></g></g></g></svg>