<svg viewBox="0 0 330 200" xmlns="http://www.w3.org/2000/svg"><g><g><g><g><g><line x1="51.5625" y1="165" x2="46.5625" y2="165" style="visibility: inherit;" fill="rgb(0, 0, 0)" stroke="rgb(204, 204, 204)" stroke-width="1px"></line><line x1="51.5625" y1="151.25" x2="46.5625" y2="151.25" style="visibility: inherit;" fill="rgb(0, 0, 0)" stroke="rgb(204, 204, 204)" stroke-width="1px"></line><line x1="51.5625" y1="137.49999999999997" x2="46.5625" y2="137.49999999999997" style="visibility: inherit;" fill="rgb(0, 0, 0)" stroke="rgb(204, 204, 204)" stroke-width="1px"></line><line x1="51.5625" y1="123.74999999999996" x2="46.5625" y2="123.74999999999996" style="visibility: inherit;" fill="rgb(0, 0, 0)" stroke="rgb(204, 204, 204)" stroke-width="1px"></line><line x1="51.5625" y1="110.00000000000001" x2="46.5625" y2="110.00000000000001" style="visibility: inherit;" fill="rgb(0, 0, 0)" stroke="rgb(204, 204, 204)" stroke-width="1px"></line><line x1="51.5625" y1="96.25000000000003" x2="46.5625" y2="96.25000000000003" style="visibility: inherit;" fill="rgb(0, 0, 0)" stroke="rgb(204, 204, 204)" stroke-width="1px"></line><line x1="51.5625" y1="82.5" x2="46.5625" y2="82.5" style="visibility: inherit;" fill="rgb(0, 0, 0)" stroke="rgb(204, 204, 204)" stroke-width="1px"></line><line x1="51.5625" y1="68.75" x2="46.5625" y2="68.75" style="visibility: inherit;" fill="rgb(0, 0, 0)" stroke="rgb(204, 204, 204)" stroke-width="1px"></line><line x1="51.5625" y1="54.99999999999997" x2="46.5625" y2="54.99999999999997" style="visibility: inherit;" fill="rgb(0, 0, 0)" stroke="rgb(204, 204, 204)" stroke-width="1px"></line><line x1="51.5625" y1="41.249999999999964" x2="46.5625" y2="41.249999999999964" style="visibility: inherit;" fill="rgb(0, 0, 0)" stroke="rgb(204, 204, 204)" stroke-width="1px"></line><line x1="51.5625" y1="27.500000000000032" x2="46.5625" y2="27.500000000000032" style="visibility: inherit;" fill="rgb(0, 0, 0)" stroke="rgb(204, 204, 204)" stroke-width="1px"></line><line x1="51.5625" y1="13.750000000000005" x2="46.5625" y2="13.750000000000005" style="visibility: inherit;" fill="rgb(0, 0, 0)" stroke="rgb(204, 204, 204)" stroke-width="1px"></line><line x1="51.5625" y1="0" x2="46.5625" y2="0" style="visibility: inherit;" fill="rgb(0, 0, 0)" stroke="rgb(204, 204, 204)" stroke-width="1px"></line></g><g transform="translate(41.5625, 0)"><text x="0" y="165" dx="0em" dy="0.3em" style="text-anchor: end; visibility: hidden; font-family: Roboto, sans-serif; font-size: 12px; font-weight: 200;" fill="rgb(255, 255, 255)" stroke="none" stroke-width="1px">0.25</text><text x="0" y="151.25" dx="0em" dy="0.3em" style="text-anchor: end; visibility: inherit; font-family: Roboto, sans-serif; font-size: 12px; font-weight: 200;" fill="rgb(255, 255, 255)" stroke="none" stroke-width="1px">0.26</text><text x="0" y="137.49999999999997" dx="0em" dy="0.3em" style="text-anchor: end; visibility: hidden; font-family: Roboto, sans-serif; font-size: 12px; font-weight: 200;" fill="rgb(255, 255, 255)" stroke="none" stroke-width="1px">0.27</text><text x="0" y="123.74999999999996" dx="0em" dy="0.3em" style="text-anchor: end; visibility: inherit; font-family: Roboto, sans-serif; font-size: 12px; font-weight: 200;" fill="rgb(255, 255, 255)" stroke="none" stroke-width="1px">0.28</text><text x="0" y="110.00000000000001" dx="0em" dy="0.3em" style="text-anchor: end; visibility: hidden; font-family: Roboto, sans-serif; font-size: 12px; font-weight: 200;" fill="rgb(255, 255, 255)" stroke="none" stroke-width="1px">0.29</text><text x="0" y="96.25000000000003" dx="0em" dy="0.3em" style="text-anchor: end; visibility: inherit; font-family: Roboto, sans-serif; font-size: 12px; font-weight: 200;" fill="rgb(255, 255, 255)" stroke="none" stroke-width="1px">0.3</text><text x="0" y="82.5" dx="0em" dy="0.3em" style="text-anchor: end; visibility: hidden; font-family: Roboto, sans-serif; font-size: 12px; font-weight: 200;" fill="rgb(255, 255, 255)" stroke="none" stroke-width="1px">0.31</text><text x="0" y="68.75" dx="0em" dy="0.3em" style="text-anchor: end; visibility: inherit; font-family: Roboto, sans-serif; font-size: 12px; font-weight: 200;" fill="rgb(255, 255, 255)" stroke="none" stroke-width="1px">0.32</text><text x="0" y="54.99999999999997" dx="0em" dy="0.3em" style="text-anchor: end; visibility: hidden; font-family: Roboto, sans-serif; font-size: 12px; font-weight: 200;" fill="rgb(255, 255, 255)" stroke="none" stroke-width="1px">0.33</text><text x="0" y="41.249999999999964" dx="0em" dy="0.3em" style="text-anchor: end; visibility: inherit; font-family: Roboto, sans-serif; font-size: 12px; font-weight: 200;" fill="rgb(255, 255, 255)" stroke="none" stroke-width="1px">0.34</text><text x="0" y="27.500000000000032" dx="0em" dy="0.3em" style="text-anchor: end; visibility: hidden; font-family: Roboto, sans-serif; font-size: 12px; font-weight: 200;" fill="rgb(255, 255, 255)" stroke="none" stroke-width="1px">0.35</text><text x="0" y="13.750000000000005" dx="0em" dy="0.3em" style="text-anchor: end; visibility: inherit; font-family: Roboto, sans-serif; font-size: 12px; font-weight: 200;" fill="rgb(255, 255, 255)" stroke="none" stroke-width="1px">0.36</text><text x="0" y="0" dx="0em" dy="0.3em" style="text-anchor: end; visibility: hidden; font-family: Roboto, sans-serif; font-size: 12px; font-weight: 200;" fill="rgb(255, 255, 255)" stroke="none" stroke-width="1px">0.37</text></g><line x1="51.5625" y1="0" x2="51.5625" y2="165" fill="rgb(0, 0, 0)" stroke="rgb(204, 204, 204)" stroke-width="1px"></line></g></g><g transform="translate(51, 0)" clip-path="url(#clip_0)"><clipPath id="clip_0"><rect width="278" height="165"></rect></clipPath><g><g><g><line x1="0" y1="0" x2="0" y2="165" fill="rgb(0, 0, 0)" stroke="rgb(189, 189, 189)" stroke-width="1px" opacity="0.25"></line><line x1="23.203125" y1="0" x2="23.203125" y2="165" fill="rgb(0, 0, 0)" stroke="rgb(189, 189, 189)" stroke-width="1px" opacity="0.25"></line><line x1="46.40625" y1="0" x2="46.40625" y2="165" fill="rgb(0, 0, 0)" stroke="rgb(189, 189, 189)" stroke-width="1px" opacity="0.25"></line><line x1="69.609375" y1="0" x2="69.609375" y2="165" fill="rgb(0, 0, 0)" stroke="rgb(189, 189, 189)" stroke-width="1px" opacity="0.25"></line><line x1="92.8125" y1="0" x2="92.8125" y2="165" fill="rgb(0, 0, 0)" stroke="rgb(189, 189, 189)" stroke-width="1px" opacity="0.25"></line><line x1="116.015625" y1="0" x2="116.015625" y2="165" fill="rgb(0, 0, 0)" stroke="rgb(189, 189, 189)" stroke-width="1px" opacity="0.25"></line><line x1="139.21875" y1="0" x2="139.21875" y2="165" fill="rgb(0, 0, 0)" stroke="rgb(189, 189, 189)" stroke-width="1px" opacity="0.25"></line><line x1="162.421875" y1="0" x2="162.421875" y2="165" fill="rgb(0, 0, 0)" stroke="rgb(189, 189, 189)" stroke-width="1px" opacity="0.25"></line><line x1="185.625" y1="0" x2="185.625" y2="165" fill="rgb(0, 0, 0)" stroke="rgb(189, 189, 189)" stroke-width="1px" opacity="0.25"></line><line x1="208.828125" y1="0" x2="208.828125" y2="165" fill="rgb(0, 0, 0)" stroke="rgb(189, 189, 189)" stroke-width="1px" opacity="0.25"></line><line x1="232.03125" y1="0" x2="232.03125" y2="165" fill="rgb(0, 0, 0)" stroke="rgb(189, 189, 189)" stroke-width="1px" opacity="0.25"></line><line x1="255.234375" y1="0" x2="255.234375" y2="165" fill="rgb(0, 0, 0)" stroke="rgb(189, 189, 189)" stroke-width="1px" opacity="0.25"></line><line x1="278.4375" y1="0" x2="278.4375" y2="165" fill="rgb(0, 0, 0)" stroke="rgb(189, 189, 189)" stroke-width="1px" opacity="0.25"></line></g><g><line x1="0" y1="165" x2="278.4375" y2="165" fill="rgb(0, 0, 0)" stroke="rgb(189, 189, 189)" stroke-width="1px" opacity="0.25"></line><line x1="0" y1="151.25" x2="278.4375" y2="151.25" fill="rgb(0, 0, 0)" stroke="rgb(189, 189, 189)" stroke-width="1px" opacity="0.25"></line><line x1="0" y1="137.49999999999997" x2="278.4375" y2="137.49999999999997" fill="rgb(0, 0, 0)" stroke="rgb(189, 189, 189)" stroke-width="1px" opacity="0.25"></line><line x1="0" y1="123.74999999999996" x2="278.4375" y2="123.74999999999996" fill="rgb(0, 0, 0)" stroke="rgb(189, 189, 189)" stroke-width="1px" opacity="0.25"></line><line x1="0" y1="110.00000000000001" x2="278.4375" y2="110.00000000000001" fill="rgb(0, 0, 0)" stroke="rgb(189, 189, 189)" stroke-width="1px" opacity="0.25"></line><line x1="0" y1="96.25000000000003" x2="278.4375" y2="96.25000000000003" fill="rgb(0, 0, 0)" stroke="rgb(189, 189, 189)" stroke-width="1px" opacity="0.25"></line><line x1="0" y1="82.5" x2="278.4375" y2="82.5" fill="rgb(0, 0, 0)" stroke="rgb(189, 189, 189)" stroke-width="1px" opacity="0.25"></line><line x1="0" y1="68.75" x2="278.4375" y2="68.75" fill="rgb(0, 0, 0)" stroke="rgb(189, 189, 189)" stroke-width="1px" opacity="0.25"></line><line x1="0" y1="54.99999999999997" x2="278.4375" y2="54.99999999999997" fill="rgb(0, 0, 0)" stroke="rgb(189, 189, 189)" stroke-width="1px" opacity="0.25"></line><line x1="0" y1="41.249999999999964" x2="278.4375" y2="41.249999999999964" fill="rgb(0, 0, 0)" stroke="rgb(189, 189, 189)" stroke-width="1px" opacity="0.25"></line><line x1="0" y1="27.500000000000032" x2="278.4375" y2="27.500000000000032" fill="rgb(0, 0, 0)" stroke="rgb(189, 189, 189)" stroke-width="1px" opacity="0.25"></line><line x1="0" y1="13.750000000000005" x2="278.4375" y2="13.750000000000005" fill="rgb(0, 0, 0)" stroke="rgb(189, 189, 189)" stroke-width="1px" opacity="0.25"></line><line x1="0" y1="0" x2="278.4375" y2="0" fill="rgb(0, 0, 0)" stroke="rgb(189, 189, 189)" stroke-width="1px" opacity="0.25"></line></g></g></g><g><g><line x1="0" y1="508.75" x2="278.4375" y2="508.75" fill="rgb(0, 0, 0)" stroke="rgb(153, 153, 153)" stroke-width="1.5px"></line></g></g><g><g><line x1="-11157622.91015625" y1="0" x2="-11157622.91015625" y2="165" fill="rgb(0, 0, 0)" stroke="rgb(153, 153, 153)" stroke-width="1.5px"></line></g></g><g><g><g><g><g><path stroke="rgb(255, 112, 67)" stroke-width="2px" d="M9.0680455078125,10.618877559900284L9.381893554687501,21.127530336379994L10.017678515625,36.50062498997678L10.350727148437501,79.1576048123706L10.3734146484375,71.06373867005799L10.548508007812499,82.37401572023104L10.682808984375,69.94653028837173L10.7941259765625,64.26930626517849L10.946931445312499,66.02469501373027L11.261765625,76.74447418066875L11.3519806640625,74.73160536889552L11.819188476562498,82.06960788857558L11.8641380859375,82.0100605091196L12.466278515625,75.05329804319847L12.534534375,74.30775824531459L12.581746289062501,98.90904015974303L12.6252328125,102.76760085189268L12.803445703125,99.02627459499475L13.228572070312499,116.12905024984714L13.4950341796875,92.83897523764816L13.539100781250001,87.13212192729942L14.074770703125,103.58433259248854L14.40865078125,103.44691104080556L14.433774609375,94.65115871453577L14.7454892578125,96.33316230003946L15.0099984375,102.43554972206913L15.08081953125,91.48120279067456L15.2615912109375,84.2664075590872L15.3290865234375,89.20080478194608L15.548878125,94.29019399862858L16.0185544921875,102.25626048838159L16.0863720703125,94.83939515568002L16.1509283203125,79.81364009761258L16.6821380859375,100.84423565313097L17.222074804687498,103.4424243029259L17.355009375,102.58318147108636L17.398947070312502,95.65828570041455L17.6702560546875,95.61542802027878L17.848410937500002,114.15429383457611L17.9348876953125,104.27442060545177L18.19931953125,106.38010756324793L18.489423046875,102.78181770956846L18.9570046875,107.17392921286277L18.9800208984375,113.02600067858427L19.0219798828125,112.3936433910937L19.17854296875,103.1254688090034L19.512191015625,85.69916428178594L19.60346953125,85.98596245676947L19.8253365234375,99.75085229076012L19.9380521484375,91.28017652264577L19.9606751953125,94.36303668161548L20.09408671875,85.77342690787387L20.604420117187498,100.3064866171236L20.649917578125,97.52643175756378L20.672373046875,95.58869676491753L20.76151171875,96.87712542236575L21.119200781249997,92.50753409874773L21.2267279296875,96.85561267860197L21.2674107421875,108.39990239338648L21.5354712890625,102.48786074517089L21.624345703125,113.54108406661727L21.7540447265625,116.55326672529458L22.3725111328125,95.12231825670746L22.462468359375,78.92581307221126L22.5072890625,115.54770644503066L23.2403982421875,108.3737420201136L23.4183017578125,105.37961650847394L23.549109375,102.74959557628031L23.5714423828125,111.16475470885868L23.8832859375,111.72170590177313L24.087879492187497,103.36292660722222L24.2676005859375,80.98968974643392L25.5665244140625,74.0294839256611L25.653123632812502,85.02350397787136L26.079203906249997,99.96125672985103L26.5184068359375,102.71167984443304L26.7618140625,97.79880071185464L26.783560546874998,96.95307424367923L26.91405234375,100.90778661192333L27.047508984375003,114.09231693995521L27.402091406249998,110.58690387876345L27.424198828125,110.17908781094256L27.4689228515625,105.19404077126327L27.7358296875,113.46157445665446L28.026526171875002,102.79217579457907L28.581938085937498,98.23027717169371L28.7761869140625,100.16581581292304L28.8857958984375,100.00359252844899L29.2203076171875,107.9751926407495L29.5533369140625,116.70969627769466L30.1975072265625,124.07672412676617L30.4635568359375,120.01571695496446L30.618792187500002,125.38681894832736L31.734230859375,126.87870878156359L31.801629492187498,136.82271288738443L31.847049609375,132.8052047306645L32.0886263671875,113.46829649295499L32.2478255859375,123.78333822778514L32.3342830078125,119.76708844835548L32.3760099609375,124.82563069781651L32.57450625,104.88718432975402L33.27036796875,101.41781415219661L33.5861947265625,92.68551323220468L33.6079734375,107.09455349090901L33.742151953124996,111.26188068415648L33.943503515625,125.21355115667541L34.20782578125,126.3030071454976L34.298221289062504,122.57340731607289L34.3411986328125,125.39868350259313L34.4518453125,102.90888014693168L34.4959376953125,101.46624221360149L34.7186361328125,103.10742666694799L34.807923046875,100.77273977025315L34.966116796875,109.43074638977026L35.279358984375,112.46980235179888L35.389141992187504,98.88168165207283L35.4117328125,97.71136223745573L35.6752107421875,118.35810446424624L35.893590820312504,119.62055393268668L35.9374060546875,119.03674178248644L36.115096875,128.21798225001098L36.3164291015625,122.82337999198198L36.337763085937496,123.299308513721L36.868508789062496,129.6722090215207L37.021597851562504,119.33767211262712L37.481432226562504,110.94786209955414L37.5931037109375,115.63626553472638L37.6157783203125,108.06154868517373L37.65725390625,109.68678874679837L37.7232732421875,127.94387932365197L37.811064843749996,114.627520178229L37.942865039062504,116.32885070709607L38.034053320312495,115.33388252298961L38.145151171875,114.82228377605041L38.6362130859375,122.01884149995185L39.2325205078125,107.30581473998265L39.67200703125,112.63030947263267L40.0094771484375,115.42069906601438L40.097165625,109.43935397034366L40.34170078125,120.53280408838678L40.364729882812505,107.77825799977352L41.5497005859375,114.79390411016686L42.0177849609375,101.64201145432796L42.04078828125,101.62504878677372L42.4378646484375,83.30706016443631L42.4605263671875,85.5411101354507L42.8148767578125,96.12402409156248L42.8585953125,98.50362479591419L43.2585462890625,121.72716170492201L43.435463671875006,105.8352075215723L43.6102798828125,102.16242451647194L43.6770146484375,88.02515083062212L43.744761328124994,92.3997439355109L44.009973046875004,74.53612437310537L44.44983984375,103.71192848958206L44.5169935546875,106.3257716076233L44.826574804687496,100.87048071483719L44.8916595703125,112.02136795437306L45.006740625,109.8200257463215L45.273847265625,91.53470735805979L45.5202966796875,90.20094812546823L45.633779296875,102.10884988686237L45.678084375000005,106.64978736865993L46.2044408203125,105.74358358519363L46.3830404296875,107.71702059827494L47.1589271484375,113.21369343234446L47.3592732421875,116.62914063473553L47.493928710937496,115.87822148764137L47.870225390624995,111.33067023494249L47.915175,112.15626014315137L47.9779587890625,112.0036505046073L48.065930859374994,104.11422958270212L48.2222619140625,102.93997568068207L49.086114257812504,112.52406419621286L49.7575740234375,103.89548236910335L49.8012732421875,117.33672621717348L50.072859375,108.67663271945888L50.1389173828125,105.67690943313943L50.318619140625,118.69357719798867L51.36401015625,116.391110448718L51.4536966796875,121.18871577303409L51.654410156249995,119.55974327159406L51.80814375,127.89124480862903L52.2758994140625,122.12399418341808L52.5210919921875,136.10897860042866L52.587291796875,121.25838375754722L52.719723632812496,113.3887418309901L52.742391796875,109.66633285284361L53.073371484375,103.54328653335759L53.336675390625,117.71687156629672L53.422398046875,116.36714396877355L53.5345529296875,111.34258549215357L53.5783681640625,97.8507426428912L53.868478125,101.61000538159117L53.8905017578125,132.56843527131502L54.00220546875,132.38517612202892L54.243814453125,103.7015362380977L54.2890154296875,120.93386797899218L56.3027115234375,115.43812935825714L56.5020328125,127.33810481593926L56.7221208984375,122.82274453142833L57.2374365234375,96.88399045645926L57.5433375,97.00325649368607L57.5652966796875,115.1972090088596L57.653977734375005,114.84706883926809L57.675969140625,110.69975075304284L57.826067578125,97.49533287989958L58.091098828125,93.91810811941546L58.761488671875,103.65628527036145L59.3067814453125,89.8015313531806L59.641679882812504,96.34007776891288L59.775980859375004,102.93803259798943L60.311521875000004,106.82671639364393L60.422419921875004,113.76303990507978L61.240188281250006,94.59788274660623L62.0138578125,92.22427148756337L62.083067578125,115.16898393116566L62.590777734375,106.41947436024047L62.9692787109375,103.51068888717467L63.6351955078125,110.92855140336498L63.746860546875006,111.64263138036809L64.6747728515625,118.70885824478201L64.786747265625,112.63318655083496L65.3446212890625,98.22558228486729L65.5242134765625,90.99881603904933L65.588801953125,86.04406752937061L66.02707675781251,83.05089323969493L66.3109154296875,93.56903409511932L66.4249072265625,99.14527795047213L66.7353263671875,88.61292315322547L66.779328515625,102.53555758475301L66.977586328125,99.74634792613404L67.02312890625,109.48290500764503L67.817823046875,109.3513660652903L68.057975390625,109.53696513315842L68.0801537109375,112.52932103956223L68.301376171875,108.40138591816716L68.544699609375,92.34743480378802L68.6991744140625,103.73155012425433L68.9881822265625,99.1292673033276L69.163784765625,105.69010875712624L69.338143359375,103.37057120854126L69.427655859375,106.93442354949994L69.519256640625,111.18288243027148L69.9343154296875,124.22776796943911L70.10779746093749,131.91958599404674L70.200139453125,126.13088722894302L70.3553232421875,122.28596297424863L70.422966796875,128.34941087676182L70.4661826171875,134.1567996055668L70.53056484375001,128.19333338205723L70.6195552734375,133.51745470443197L70.81534453125,122.70015552090898L70.946635546875,107.48897722034035L71.0578494140625,103.3027815262579L71.14717499999999,105.51522692680972L71.4145330078125,97.9378705062903L71.4368015625,103.09201126327734L71.52355546875,97.74993780273572L71.637985546875,104.9921332777642L71.6599318359375,108.8462039817037L71.945452734375,108.33288854293001L71.9681982421875,105.9225704427479L71.99031855468749,124.43869335388655L72.1000048828125,107.41247733196927L72.2121533203125,127.93362176276035L72.2788880859375,130.57525811110008L72.4998978515625,140.51402162023828L72.656731640625,130.35204923455981L73.52979433593751,127.649384595782L74.0184134765625,136.17365864385988L74.24014511718751,135.24669329804073L74.6165642578125,135.1658775239104L74.63888437499999,128.79205970936502L75.87666796875001,114.32681404932433L75.9425970703125,119.74603374829347L76.232255859375,117.29112267512355L76.6272890625,114.46558421861096L76.693585546875,104.59153828627447L76.8516568359375,105.55270932678336L76.91830136718751,128.2734866891143L77.097809765625,121.66813474618414L77.3871462890625,130.3013415439309L77.60665429687499,120.30458195825703L78.1178900390625,115.68118067872699L78.4483927734375,105.98943079884155L78.73792265625,107.91006389483994L79.538933203125,109.38935138717406L79.560950390625,134.63009204229778L79.9837564453125,127.95093575573604L80.009028515625,111.68417620335L80.03145820312501,108.3369290690063L80.2515333984375,114.60383187892666L80.341400390625,114.02208811737671L80.36354648437501,107.6584593456839L80.3853896484375,105.90315711509317L80.494953515625,126.45564622885664L80.5390201171875,136.24132846121003L81.1921751953125,136.9726463217974L81.819336328125,123.99114430305005L81.932026171875,113.9362637421885L82.24594511718749,120.02668471463915L82.4038359375,126.42849237518553L82.51741523437501,115.24405366657399L82.8093169921875,122.90565578030478L82.87703789062499,111.8280975096639L83.07667500000001,120.51393056352234L83.3397404296875,117.7910031344849L83.87204589843749,128.8356374184107L83.9389353515625,117.65134462593885L84.77886914062499,116.78761952447225L85.531578515625,113.11740740136706L85.88221640625001,113.75823243854286L86.2800404296875,109.60876902578971L86.3931427734375,110.2432520427626L86.50242949218749,112.41983576049346L86.525213671875,129.51945372480114L86.7011900390625,133.4899405721304L86.9460732421875,112.92921430370082L87.256962890625,118.34094218314212L87.435833203125,108.80747051179716L87.6117966796875,132.76189369642915L88.2091353515625,123.667073921467L88.69730976562501,122.34053807026453L88.719584765625,120.50126258472388L88.74084140625,116.26299663746231L89.14922285156251,129.58562972762508L89.193521484375,133.91026802431534L89.3514380859375,133.36292509776942L89.93208984374999,112.3913774761116L90.3294369140625,118.74240671828721L90.811166015625,105.10762390634619L90.87728203125,108.82587085450413L91.03399980468751,92.33545607498117L91.30220859375,103.77661827904477L91.5704109375,104.39530464233457L91.8591802734375,125.12467957867086L91.8805078125,125.35072098572793L91.9256443359375,111.50730723380892L92.232383203125,118.02680870437538L92.7662484375,121.67708510484641L92.83156523437499,121.8831196089169L92.8783775390625,101.30127880928401L92.923423828125,92.14539184544971L92.990506640625,86.86676570400296L93.0772734375,99.88820557966645L93.1436021484375,115.28015026554355L93.56745234374999,116.33220135632095L93.78923554687499,125.83988237060869L94.0506123046875,115.65027915047264L94.16336015625001,108.35396851662787L94.78123359375,111.13721976020328L94.803547265625,97.84499948822493L94.85075273437499,94.81330934526343L94.96139296875,112.29449977494367L94.9840546875,132.59032833586386L95.1387873046875,129.34478091007622L95.1826025390625,114.94058982614374L95.60898574218751,108.00240740825947L95.63092558593749,105.57303944617638L95.7182208984375,115.34922974938229L95.7853166015625,123.94384573479938L96.2946251953125,117.60787123787665L97.3421044921875,111.25824609010374L97.3892970703125,103.07180326347924L97.6155017578125,101.25664324262956L97.81649882812499,130.17357519685757L98.5475970703125,106.06715346228796L98.75060507812499,108.04296478540729L98.83850625,110.57153645104783L98.973277734375,108.77769060699114L99.236426953125,120.41463808875065L99.303741796875,139.92613504326806L99.68158535156249,134.29343855378903L99.96713203125,130.44319430588408L100.165003125,115.85008018969731L100.30023867187501,105.44170870637438L100.9882693359375,105.09208735379902L101.032490625,114.53146610589822L101.231869921875,106.05646928508281L101.4774041015625,115.9283150455904L101.6101453125,127.41285176405617L101.76707578125,120.86179209547822L102.58086738281251,113.00655998466964L103.135003125,106.5333909253988L103.27284257812501,102.58215412263355L103.4032119140625,105.16510191419296L103.467826171875,113.2322883180295L103.956999609375,105.19661257097208L104.17494785156251,103.52410262482813L104.7325060546875,101.57272187267215L105.24708691406249,114.42274616595789L105.582275390625,123.82525847218447L105.8910380859375,134.4472390762687L106.0238759765625,142.23056902597665L106.44837070312501,148.72553902930213L106.51435781250001,135.08864055911417L106.58319375,141.3771144797785L106.6962251953125,133.6823367029657L107.2250953125,119.83657443226753L108.04282500000001,133.5485361439072L108.155166796875,148.78130411637318L108.2669736328125,143.07776996810728L108.3982001953125,132.52388667654694L109.3326802734375,117.50662202591714L109.399008984375,126.4691348967255L109.7587541015625,143.98280171139845L109.9370701171875,137.24982856263995L110.0247521484375,121.82258175939486L110.3606560546875,119.2628572412143L110.4054251953125,118.39698320792968L110.6448685546875,106.40023723940169L110.8261751953125,103.97360852778024L111.06971777343749,113.59556133401433L111.334252734375,118.75481411726494L111.84620390625,124.76773449725637L111.9801310546875,111.13217442599972L112.6441013671875,109.28426402430554L112.86768925781249,106.35669247878083L113.230463671875,115.21050200803577L113.79578203125001,107.6782713886708L113.88637734375,112.4051214192277L114.02497734375,105.21568697297371L114.2032224609375,109.42583472492574L114.740110546875,116.30423367597034L114.8044798828125,114.77895415173393L114.8717560546875,131.38337371555815L115.6899046875,123.33474902992157L115.80030644531249,130.82478290012307L115.890212109375,126.87306645638245L115.91133339843749,109.54686464742714L116.084963671875,119.81141431257662L116.33065898437499,110.35142048076115L116.5072025390625,110.92554935142587L116.59536796875,117.82104652121772L116.639015625,117.99667144414852L116.77246582031249,120.75903966782728L116.95073671875,111.94446691726586L116.97216093749999,130.05974631819092L117.171333984375,114.41844881363494L117.4766033203125,102.23315501682632L117.630162890625,106.39639737887784L118.120058203125,115.43565900733233L118.272812109375,105.71834726101257L118.4076931640625,112.07080985883529L118.500099609375,111.21495315897262L118.52206523437499,106.56664108912817L119.11738652343749,100.83387878942897L119.18344453125,99.15631650333648L119.2482650390625,112.35178827312617L119.33717812500001,126.43715816180128L119.68483828125,122.47834734583037L119.7293689453125,108.58340229072655L119.77423476562501,115.0858683912664L119.79647753906251,119.18009308151662L119.81834003906249,107.06965057356508L119.99405859375,107.25364678086851L120.8337796875,112.8410095154167L121.3902099609375,100.78005344742063L121.728646875,112.8370130722137L122.1470701171875,117.04765383389066L122.238703125,112.86684235326334L122.3947119140625,115.73012125725676L122.484140625,109.77228291174848L122.5953416015625,119.76978699768233L123.28136777343751,103.96505493166835L123.5227447265625,108.98590629245517L124.2289318359375,123.4139910635094L124.7592328125,132.77971549610734L125.068246875,126.27529271710183L125.1744140625,130.35428958099044L125.46373125,123.07679204321482L125.48547128906249,114.35963873968468L125.6574515625,104.46884766164986L125.70214980468751,102.6505997475598L125.8121390625,94.61681405881725L126.63769335937499,106.61250156271268L126.72482109375001,112.79573656384832L126.8141080078125,127.0431544021647L127.05647109375,119.11964992498642L127.0791779296875,123.43290680536794L127.1223099609375,116.73335012131426L127.143495703125,117.28620878656804L127.85409140625,122.26163841366825L128.09563593750002,123.85707978653942L128.1410431640625,119.13401302247067L128.252037890625,126.48533568709385L128.29663945312498,129.81991080003556L128.4078017578125,140.13262341950877L128.537977734375,142.44663155397504L128.6939349609375,133.74786076736885L129.2496498046875,116.53106843109391L129.5854634765625,119.12358102008976L129.7868279296875,118.73208348038962L129.8539751953125,121.27966984559997L130.5213873046875,104.17276540070715L131.0315595703125,107.75894062918387L131.0519912109375,116.6590329837916L131.1182232421875,121.47433804465037L131.1626958984375,122.0488760292095L131.252021484375,120.70944424984226L131.38354453125,123.88602987836224L131.9980341796875,119.16202101654062L132.1754671875,115.90165557590868L132.685175390625,115.63636047916263L132.880081640625,89.58619381950292L132.9021375,105.97140554169412L133.2102943359375,95.03398104655503L133.3634865234375,103.83434935896257L133.8254220703125,101.5841061144392L133.97997421875,97.37689496691945L134.022732421875,113.34492869148207L134.089170703125,129.38135514837236L134.1358541015625,118.73352801908091L135.130565625,134.30002979105137L135.24181171875,108.71769166985402L135.2637515625,114.69747118353393L135.420024609375,110.75766117691725L135.50998183593748,120.44551099133326L135.551818359375,120.26884814972776L136.0385232421875,107.61862230822504L136.5203361328125,105.40151472404635L137.615014453125,110.96171698281195L138.7043560546875,105.85521591489929L139.0090517578125,111.52984942665947L139.454390625,108.32238826555763L140.252178515625,111.07327755333634L140.40507421875,109.5570819141963L140.6281658203125,119.4298745729028L140.89404140625,132.53747001513833L140.959255078125,117.34748265281317L141.0032830078125,113.97133881530165L141.02387578124998,118.94795700717569L141.53221113281248,118.12579163794878L141.7112619140625,125.03574394515253L142.65368261718748,112.7684245308107L143.40257636718752,119.69289993046912L143.6854546875,126.38295516252036L143.70667265625,124.39540406989767L143.753220703125,130.12812251405543L145.481853515625,131.85717627141844L145.5936861328125,146.5422236903546L145.66035,145.089993177893L145.8406962890625,153.69387859048976L146.214092578125,138.42782648767553L146.40894726562502,137.03228433350043L146.5659421875,135.2889475787837L146.69843203125,133.97545627147906L146.83076718750002,107.30010909671155L146.85138574218752,109.12525029679874L147.62529375,111.20012361824952L147.8014505859375,98.58010869634414L148.30442343750002,97.5332213724391L148.3485609375,112.26604338197328L148.37296933593748,115.79501191203842L148.99681113281252,128.11052125349676L149.0851828125,118.08970052990335L149.12953300781248,133.29230719204557L149.57007011718753,137.34677006838214L149.68250859375,127.25582349322734L149.725112109375,124.37799983038005L149.768334375,114.16816397198141L150.34086503906252,127.75126542859138L151.15200761718748,121.16312239296953L151.2859154296875,110.44926085309815L151.50705410156252,112.83627121589555L151.59731425781249,122.17292504872071L151.68511875,110.08217261651266L151.9947322265625,108.220172741527L152.17397636718752,118.12727059037366L152.7866806640625,133.791687876647L152.8334865234375,133.76246892849525L153.25825195312498,126.8826637473101L153.43950703125,107.07483558692898L153.4618271484375,112.53351973794916L153.5269505859375,116.80381189169297L153.830325,109.64246839512478L154.1391134765625,99.46255421775037L154.22774941406252,100.528723574504L154.2721318359375,105.98947684575602L154.5591029296875,104.7679984009831L154.80431484375,106.6861873529296L154.825829296875,92.67851302992945L154.936134375,100.13607531769067L154.9809486328125,109.71764296283116L155.04569824218748,104.94071173661823L155.86902246093752,123.79812591072246L156.26745878906252,123.16253008125018L156.6901423828125,115.07027317093493L156.8238955078125,111.47670316104106L157.0446603515625,101.05588243844517L157.3510125,111.75406883026604L157.7502673828125,126.15015637794399L157.817279296875,132.85881782722038L157.840095703125,129.9132142374013L158.57789062499998,121.00251703912576L158.6422212890625,131.7944258418951L158.8385583984375,120.08548146291218L158.97109335937498,123.10003445031431L159.08094726562499,127.51671681095472L159.36836953125,121.60426717572992L159.4800345703125,118.7232339475965L159.8344494140625,111.24620944824312L159.94213125,119.43348449806267L160.05148242187502,133.19333650076322L160.140453515625,130.1321033680673L160.49253515625003,130.44845611120672L160.80007324218752,150.24514487543948L161.5154126953125,140.15783847069284L161.782976953125,138.04495060858457L162.05272617187498,112.18977740059697L162.833717578125,132.86135244757176L162.990905859375,136.70437907213116L163.0999798828125,144.28957960029928L163.14716601562498,140.19372743976407L163.19115527343752,122.35449399120981L163.3252306640625,134.37860730628594L163.4127,131.9690679510857L163.76865527343747,122.60135805609382L164.0161294921875,115.56641075612634L164.34899121093753,108.7107904172035L164.55130312499998,124.59685822821211L164.9228625,133.80750853119224L165.34307753906248,138.32052438436702L165.5587248046875,141.1683317958042L165.69116953125,124.06648474566491L165.80001796875,126.5442018963835L165.84238945312498,147.03790329444055L165.97429921875002,132.8690054568508L166.17322734375,123.55680665688865L166.5323923828125,127.25594914744586L167.39621894531248,128.77631388181618L167.43807480468752,134.29579294964182L167.5036107421875,135.01893709447688L167.745716015625,131.54542172161763L167.89975898437498,119.80031004076015L168.38030859375002,128.71070880010612L168.73289296875,133.49231772610477L169.3669248046875,134.77808238857344L169.481851171875,130.23627586241577L169.527561328125,121.56955061600222L169.594528125,114.21984862235554L169.9687365234375,128.24464136926753L170.1920859375,134.437728551438L170.21184082031252,120.8978603645626L170.5409255859375,97.28418239143272L170.765061328125,89.93514036051496L171.496114453125,85.23216375656166L172.00380527343748,99.18099843828222L172.16033613281252,105.39937027316296L172.22724492187498,104.98925189984443L172.356331640625,122.8467237997806L173.19034218750002,128.38884103588794L173.480858203125,110.77332030709108L173.50328789062502,124.82442761048983L173.5467421875,113.90823790183845L173.6815072265625,124.95606826991552L173.7490541015625,121.97538016587922L174.155269921875,112.96560977906246L174.5534484375,106.81853398686795L175.0798177734375,104.69721266630981L175.1711671875,105.92018854024228L175.4339232421875,113.32384706379304L175.6325484375,110.31545264030291L176.247186328125,123.25851692262165L176.376169921875,128.70662887992185L177.218546484375,132.3704110986097L177.3087873046875,135.33725103176255L177.352892578125,122.96622437498935L177.64294453125,118.9416185156224L177.7530498046875,123.22123295877684L177.8610216796875,128.37266031989043L177.949290234375,134.89981689505927L178.1697908203125,119.2117825654337L178.34705625,106.78904810590684L179.05413925781252,119.11948245193442L179.2107732421875,116.2885205830686L179.454373828125,138.24211406025609L179.47662949218753,125.87277535982913L179.5437123046875,114.79099991552822L179.61046640625,110.64012922425742L180.098286328125,105.04791818606658L180.1869287109375,110.55776472418188L180.227940234375,106.80157277303144L180.49824375,123.65056361745118L181.0231693359375,115.80864099258375L181.285796484375,118.16975067612046L181.458427734375,125.82483828399484L181.59134296874998,136.80653870304764L181.83774082031252,138.277513743641L182.01026249999998,135.07447455000997L182.054928515625,139.2156697730548L182.185819921875,131.9372504008011L182.3222478515625,118.32981288744188L182.9406626953125,114.78898549266566L183.09604628906249,118.6279471766228L183.140409375,125.2411646873518L183.1839990234375,127.08406443779258L183.2508626953125,112.42034647097937L183.93539355468752,122.77315958279823L183.9543943359375,116.05445721112761L184.0622759765625,128.65359627224845L184.373230078125,114.20836361061244L184.4179412109375,111.60886509305661L184.44008730468752,101.18348469189658L186.03925312500002,94.55083089978605L186.167914453125,116.09468661493729L186.2344751953125,130.42029060570405L186.8121685546875,130.63864486007697L186.8333736328125,131.47494129293443L186.8990578125,127.62465472193526L186.92404628906252,111.60862121088488L187.6597078125,117.77731021108139L187.68208593749998,120.43425172485058L188.2590123046875,121.78066247652258L188.634535546875,138.65792711943564L188.7242220703125,130.9944556377541L188.903485546875,119.04731078280278L189.011895703125,110.9802409609155L189.0327076171875,103.65732703208894L189.166325390625,97.98243643999079L189.60793886718747,103.5919997820853L189.8940591796875,90.63774613914484L190.0244607421875,108.7646906279182L190.37692265625,118.33170239345168L190.5751611328125,127.66338583359678L190.61978847656252,134.16285071688625L190.6419474609375,126.79254301737386L191.9055509765625,109.1584315797724L192.78646406250002,117.50970970994456L193.115651953125,111.39810980204473L193.1384619140625,119.6620819618924L193.18274765625,116.60537652079006L193.49705332031252,129.30095846595606L193.6746216796875,129.2243568011656L194.177040234375,134.65049260309544L194.19956015625,135.38832636744505L194.592556640625,109.9582805160924L195.17135214843748,118.57824623133207L195.3483984375,116.58494269576948L195.615066796875,126.52332577542828L195.65901738281252,124.1868290509961L196.0786265625,109.83215029276498L196.09912910156248,101.98837259553127L196.56437753906252,103.99749755348115L196.71825937499997,112.38843315533008L196.8991986328125,118.80709036404618L196.9209837890625,120.11440762409407L197.2493208984375,136.49970429258846L197.53630488281252,125.10929225157079L197.55772265624998,119.66225521725642L198.1123224609375,128.93222914315598L198.59590781249997,118.87508008585776L198.7307888671875,131.6788103205347L198.7952419921875,120.23682069911855L198.81784570312502,100.29958326896599L198.905025,131.16232126522405L199.01477578125002,119.46202146749701L199.12490039062502,114.27140318000919L200.191083984375,117.81616892006755L200.25524707031252,133.29192069522597L200.497391015625,125.61372743458782L200.700341015625,127.7146794582083L201.07950585937502,120.54221714643681L201.534106640625,131.37606796686677L201.84323671874998,123.30604092517395L201.95486308593752,132.3999050631457L202.4009625,113.1676816567381L202.866662109375,113.94255695489646L202.95683203125,99.29036437122583L203.62288417968747,112.10119514851898L203.912555859375,122.59325742238242L204.29226855468752,114.83695757099079L204.4890052734375,127.0702911121135L204.69437871093749,144.099863690286L204.89350019531253,147.56925280222248L205.0269826171875,145.80745956497756L205.04796210937502,131.22215432642324L205.223145703125,124.01242329310429L206.06335019531252,124.60434486646088L206.17304296875,120.67380166160245L206.4395373046875,131.05790720049848L206.4867169921875,133.50793549814404L206.50804453125002,137.18371027349582L206.63871679687497,139.9977832653472L207.34356328125,151.15977887024576L207.4309359375,130.12014850205242L208.1214802734375,121.10843410626686L208.252275,130.17783737501884L208.5410765625,124.79933492136826L208.65283828124998,124.02704031343958L208.7873326171875,126.69420082018195L209.5106900390625,126.5098640241946L209.688638671875,127.13673829547912L209.73280839843753,127.13563400216304L210.224708203125,138.23568533484584L210.2681689453125,121.42976683750415L210.4888564453125,138.4536020301262L210.735692578125,131.00877692356582L210.825153515625,136.6820341351919L211.02684667968748,125.09585392494758L211.2084111328125,121.26247156870222L211.276660546875,122.223716254305L211.50068671875002,115.63678644613691L212.21652890625,120.49233390400569L212.326473046875,125.33334215587237L212.4833326171875,131.4211659437767L212.72815781249997,139.50701229610155L212.8627875,128.02123566173378L213.016430859375,120.64083427013671L213.3730564453125,118.90038591517035L213.46294921875,126.135285507995L213.886805859375,119.51493555984386L214.470364453125,114.08657368827757L214.5587876953125,117.69799349790154L214.7578189453125,137.8770806973299L214.89014121093751,142.24233446032525L214.91237109375,137.57354782528117L215.003881640625,130.6131531387951L215.35647890624998,119.77740261497416L215.9554095703125,125.47289844478561L216.305267578125,111.59195647314425L216.50669003906248,107.44754347607633L216.66261503906247,101.18942668083398L216.774795703125,102.7241037490552L218.095337109375,140.60347033754496L218.184385546875,130.71590699681946L218.88004101562498,130.63158004241774L219.059994140625,122.67099600289814L219.08249472656252,126.7500495389375L219.126922265625,139.01582398863272L219.149274609375,151.8685465982654L219.662966015625,149.05956995076528L219.72929472656253,138.64722205154052L219.7978212890625,147.4468255815026L219.9521478515625,152.024598465986L220.0190759765625,133.13693979181468L220.1303671875,139.69458781956206L220.2202728515625,112.62315781878573L220.4245505859375,111.8434538362452L220.4460521484375,103.83857792127309L220.53468164062502,109.40462687914476L220.71408046875,119.85671013179369L221.11319999999998,117.68940269698471L221.13565546875,126.84719407409293L221.97880546875,119.47107734590689L222.24573808593752,124.71739192193698L222.28825781249998,120.3730064593908L222.4476310546875,140.50387972373704L222.672926953125,149.19491674768298L222.69550488281251,130.85627333085156L222.78359296874999,124.99683401441825L222.82742109375,114.42351258669048L222.91926679687498,115.08623347803207L222.9859177734375,113.18015394284876L223.1864958984375,125.680425153223L223.34075156249997,117.92963533761933L223.4977013671875,118.54969471194049L223.6351669921875,119.44621842800203L223.65835722656252,112.89146305143012L223.7888876953125,116.1694769324015L223.8989478515625,125.0251129425258L224.12085996093748,121.75136662463484L224.34513750000002,103.00331960284788L224.4772921875,114.03454816439202L224.8127900390625,121.44339404164823L225.5265310546875,121.85300518071102L225.59472890625,107.51358383295205L225.63837011718752,104.92808683751385L225.9303814453125,126.6652367951773L226.1114689453125,129.7785433198394L226.2468720703125,136.01195055636055L226.2912029296875,127.58215992684539L226.6464814453125,134.86803197285752L226.66884667968748,150.62550192130345L226.69128925781249,146.28919091852154L226.7356201171875,133.0135192694166L227.35186933593752,131.0131807459533L227.44417910156253,124.98087825376635L227.753019140625,132.12143601178434L227.95162499999998,136.43471766233026L228.1552453125,126.77584546041237L228.3773056640625,131.31671409149018L228.48626367187498,122.18232643806365L228.96816035156252,132.1713715923037L229.1436275390625,119.34853024078647L229.273983984375,102.70700744863291L229.56310781250002,125.67123295114006L230.29142167968752,119.74107671526407L230.625759375,116.40470778195458L230.69295820312502,130.23640135078668L230.7149109375,108.4419830390754L230.7808271484375,105.32014815503015L230.979233203125,119.78785579498799L231.06776601562498,119.20358952937248L231.15712382812498,111.92178146277503L231.4221873046875,140.5845461859383L231.44484902343748,134.06169918621052L231.600496875,139.92233912613665L232.1309396484375,138.40478152314827L232.17384609374997,136.04286492037775L232.50238945312498,122.67004841666223L232.52471601562502,109.56070246756555L232.65988066406248,117.54641075408747L232.726067578125,116.01421206877404L233.1855216796875,123.3443604688988L233.54819296875,99.72426550275956L233.6145474609375,134.76450259498878L233.768145703125,124.15309444077091L234.0995701171875,117.38469603662062L234.3431513671875,113.79874177577712L234.628981640625,121.63458757282868L234.9189369140625,126.46138997484188L235.2930615234375,129.00633747344577L235.45001132812502,122.72294428923942L235.86530214843748,119.99203340398797L235.8878220703125,128.62485132329184L236.0447525390625,147.51249353118254L236.11012089843751,135.93652313964074L236.175005859375,127.55932674417794L236.373031640625,129.46315899854838L236.395383984375,117.96755406478603L236.812498828125,108.69450493585798L236.98901015625,119.42501475770311L237.0776267578125,121.0899840018692L237.09948925781248,141.91069133410113L237.1212486328125,139.90012995796957L237.252146484375,137.20692397592995L237.3424001953125,135.71123040579874L237.6289201171875,110.36533902205896L237.737658984375,100.941302479016L237.75982441406248,106.91580337328152L237.82531523437498,107.06841630960963L237.93641953124998,85.27048226133259L238.067091796875,96.43148693999808L239.6167125,113.08459415174225L240.209152734375,95.41034271798551L241.1606162109375,105.28002161074893L241.2513404296875,110.7802289026333L241.27328671875,106.51697536095098L241.5388916015625,115.03505188098022L242.1823787109375,112.5461804143815L242.33350839843752,122.56933619214465L242.6686001953125,128.9281349160276L242.71187402343747,125.91716836559785L243.09102597656252,114.57996219794757L243.2410921875,116.52446663618566L243.2858935546875,108.59520695352843L243.46330078125,110.9805927976626L244.44400664062502,131.92741020349604L244.577914453125,128.8727283705946L244.6883291015625,114.17132414756276L245.0443166015625,105.40057335721286L245.1997388671875,108.0800737406422L245.93004433593748,125.9105161705976L246.06256640625,122.66050945993456L246.12857929687502,116.75560165212275L246.1510025390625,124.6185108945711L246.82117968749998,130.0488672212329L247.2426837890625,130.1210920545797L247.44750292968752,141.0647083242738L247.69225078125,134.55557256460204L248.36150625,128.9219915242196L248.49265546875,128.00004275865558L248.5150142578125,133.22707713977817L248.5596931640625,144.48370046220018L248.6468595703125,130.040622155677L249.660868359375,117.04872369814561L249.88483007812502,118.39886832266242L250.26362109375,124.77651469724887L250.7702935546875,127.96459670554113L250.9940361328125,132.18253484779902L251.10668085937502,115.8166628564257L251.217694921875,123.5970278075253L251.4797935546875,126.74641463106364L251.6609455078125,125.67727364865239L251.98947597656252,129.76549212793884L252.3907740234375,120.36280903017744L252.45688359375,113.4020619559063L252.5232509765625,124.70696204708656L252.8093197265625,140.03469135646006L253.03458984375,130.10416714122283L253.079436328125,127.38567052942743L253.47711210937499,132.03198920883077L254.4637927734375,125.9206117462953L254.6869681640625,121.44271208476069L254.84063085937498,123.20274551886943L254.9516578125,117.05109477149621L255.308431640625,120.18841540877331L255.4605345703125,107.7263748411197L255.4825453125,107.66777704738726L255.705669140625,116.34820473541704L255.74972929687502,105.26653130263026L255.88283144531252,99.98769050484856L256.4369865234375,125.57542351273275L256.5892248046875,138.12266342274887L256.72177265625,143.74763585586868L257.26345605468754,141.30650238668633L257.7356525390625,146.21368549153635L257.9791693359375,140.0248084180679" style="fill: none;" fill="none"></path></g></g></g></g><g opacity="0.2"><g><g><g><path stroke="rgb(255, 112, 67)" stroke-width="2px" d="M9.0680455078125,10.618877559900284L9.381893554687501,27.432722002267827L10.017678515625,51.25879585742949L10.350727148437501,129.32221308350563L10.3734146484375,60.49638703465462L10.548508007812499,98.0202005803585L10.682808984375,52.1750272810459L10.7941259765625,55.991859138011925L10.946931445312499,68.61355245113373L11.261765625,92.66209691762924L11.3519806640625,71.73055872321129L11.819188476562498,93.03667858242989L11.8641380859375,81.92093387246132L12.466278515625,64.63178336620331L12.534534375,73.19032490253447L12.581746289062501,135.79361230134964L12.6252328125,108.55380907654761L12.803445703125,93.41523513197899L13.228572070312499,141.78060829639435L13.4950341796875,57.90599152445792L13.539100781250001,78.57215493917464L14.074770703125,128.26210722327232L14.40865078125,103.24078142642975L14.433774609375,81.4576344192028L14.7454892578125,98.85615572333336L15.0099984375,111.58910483121872L15.08081953125,75.04971042275427L15.2615912109375,73.44422578811646L15.3290865234375,96.60239607095718L15.548878125,101.9242750108242L16.0185544921875,114.20535758137702L16.0863720703125,83.71409863233566L16.1509283203125,57.27500930428505L16.6821380859375,132.39012748003006L17.222074804687498,107.33970716595648L17.355009375,101.2943172454834L17.398947070312502,85.27094215154648L17.6702560546875,95.55114150047301L17.848410937500002,141.9625924527645L17.9348876953125,89.45461079478264L18.19931953125,109.5386379957199L18.489423046875,97.38438293337822L18.9570046875,113.76209646463394L18.9800208984375,121.80410787463188L19.0219798828125,111.44510746002196L19.17854296875,89.22320693731307L19.512191015625,59.559707492589936L19.60346953125,86.41615971922874L19.8253365234375,120.39818704128264L19.9380521484375,78.57416287064552L19.9606751953125,98.9873269200325L20.09408671875,72.88901224732398L20.604420117187498,122.1060761809349L20.649917578125,93.3563494682312L20.672373046875,92.68209427595137L20.76151171875,98.8097684085369L21.119200781249997,85.9531471133232L21.2267279296875,103.3777305483818L21.2674107421875,125.7163369655609L21.5354712890625,93.61979827284813L21.624345703125,130.12091904878616L21.7540447265625,121.07154071331024L22.3725111328125,62.97589555382728L22.462468359375,54.63105529546738L22.5072890625,170.4805465042591L23.2403982421875,97.61279538273811L23.4183017578125,100.88842824101448L23.549109375,98.80456417798996L23.5714423828125,123.78749340772627L23.8832859375,112.55713269114494L24.087879492187497,90.82475766539574L24.2676005859375,47.42983445525169L25.5665244140625,63.58917519450188L25.653123632812502,101.51453405618668L26.079203906249997,122.36788585782051L26.5184068359375,106.83731451630592L26.7618140625,90.42948201298714L26.783560546874998,95.68448454141617L26.91405234375,106.83985516428946L27.047508984375003,133.86911243200302L27.402091406249998,105.32878428697586L27.424198828125,109.56736370921135L27.4689228515625,97.71647021174431L27.7358296875,125.8628749847412L28.026526171875002,86.78807780146599L28.581938085937498,91.38742923736572L28.7761869140625,103.06912377476692L28.8857958984375,99.76025760173798L29.2203076171875,119.93259280920029L29.5533369140625,129.81145173311234L30.1975072265625,135.12726590037346L30.4635568359375,113.9242061972618L30.618792187500002,133.44347193837166L31.734230859375,129.11654353141785L31.801629492187498,151.73871904611588L31.847049609375,126.77894249558449L32.0886263671875,84.46293413639067L32.2478255859375,139.25590083003044L32.3342830078125,113.74271377921104L32.3760099609375,132.41344407200813L32.57450625,74.97951477766036L33.27036796875,96.21375888586043L33.5861947265625,79.58706185221672L33.6079734375,128.70811387896538L33.742151953124996,117.51287147402763L33.943503515625,146.14105686545372L34.20782578125,127.93719112873077L34.298221289062504,116.97900757193564L34.3411986328125,129.63659778237343L34.4518453125,69.17417511343955L34.4959376953125,99.30228531360626L34.7186361328125,105.56920334696768L34.807923046875,97.27070942521095L34.966116796875,122.417756319046L35.279358984375,117.02838629484177L35.389141992187504,78.49950060248374L35.4117328125,95.95588311553001L35.6752107421875,149.32821780443192L35.893590820312504,121.51422813534737L35.9374060546875,118.16102355718611L36.115096875,141.98984295129776L36.3164291015625,114.7314766049385L36.337763085937496,124.01320129632948L36.868508789062496,139.2315597832203L37.021597851562504,103.83586674928665L37.481432226562504,98.3631470799446L37.5931037109375,122.66887068748474L37.6157783203125,96.69947341084479L37.65725390625,112.1246488392353L37.7232732421875,155.32951518893242L37.811064843749996,94.65298146009444L37.942865039062504,118.88084650039673L38.034053320312495,113.84143024682999L38.145151171875,114.05488565564154L38.6362130859375,132.81367808580399L39.2325205078125,85.23627460002899L39.67200703125,120.61705157160759L40.0094771484375,119.60628345608711L40.097165625,100.46733632683754L40.34170078125,137.17297926545143L40.364729882812505,88.64643886685371L41.5497005859375,125.31737327575684L42.0177849609375,81.91417247056961L42.04078828125,101.59960478544235L42.4378646484375,55.83007723093032L42.4605263671875,88.89218509197235L42.8148767578125,111.99839502573013L42.8585953125,102.07302585244179L43.2585462890625,156.56246706843376L43.435463671875006,81.9972762465477L43.6102798828125,96.65325000882147L43.6770146484375,66.81924030184744L43.744761328124994,98.96163359284401L44.009973046875004,47.74069502949715L44.44983984375,147.4756346642971L44.5169935546875,110.24653628468513L44.826574804687496,92.68754437565804L44.8916595703125,128.74769881367683L45.006740625,106.51801243424414L45.273847265625,64.10672977566719L45.5202966796875,88.20030927658081L45.633779296875,119.97070252895355L45.678084375000005,113.46119359135628L46.2044408203125,104.38427790999413L46.3830404296875,110.67717611789703L47.1589271484375,121.45870268344879L47.3592732421875,121.75231143832205L47.493928710937496,114.7518427670002L47.870225390624995,104.50934335589409L47.915175,113.39464500546455L47.9779587890625,111.77473604679108L48.065930859374994,92.28009819984435L48.2222619140625,101.17859482765196L49.086114257812504,126.90019696950911L49.7575740234375,90.95260962843895L49.8012732421875,137.4985919892788L50.072859375,95.68649247288702L50.1389173828125,101.1773245036602L50.318619140625,138.21857884526253L51.36401015625,112.93741032481192L51.4536966796875,128.38512375950813L51.654410156249995,117.11628451943398L51.80814375,140.38849711418152L52.2758994140625,113.47311824560165L52.5210919921875,157.08645522594452L52.587291796875,98.98249149322508L52.719723632812496,101.58427894115447L52.742391796875,104.08271938562393L53.073371484375,94.35871705412865L53.336675390625,138.9772491157055L53.422398046875,114.34255257248877L53.5345529296875,103.80574777722359L53.5783681640625,77.61297836899757L53.868478125,107.24889948964119L53.8905017578125,179.00608010590076L54.00220546875,132.1102873980999L54.243814453125,60.67607641220091L54.2890154296875,146.78236559033394L56.3027115234375,107.19452142715453L56.5020328125,145.1880680024624L56.7221208984375,116.04970410466194L57.2374365234375,57.975859344005585L57.5433375,97.18215554952621L57.5652966796875,142.48813778162003L57.653977734375005,114.32185858488083L57.675969140625,104.4787736237049L57.826067578125,77.68870607018471L58.091098828125,88.5522709786892L58.761488671875,118.26355099678038L59.3067814453125,69.01940047740935L59.641679882812504,106.14789739251137L59.775980859375004,112.83496484160423L60.311521875000004,112.65974208712578L60.422419921875004,124.16752517223358L61.240188281250006,65.85014700889586L62.0138578125,88.66385459899901L62.083067578125,149.58605259656906L62.590777734375,93.29521000385284L62.9692787109375,99.14751067757607L63.6351955078125,122.05534517765044L63.746860546875006,112.71375134587288L64.6747728515625,129.30819854140282L64.786747265625,103.5196790099144L65.3446212890625,76.61417588591574L65.5242134765625,80.15866667032242L65.588801953125,78.61194476485252L66.02707675781251,78.5611318051815L66.3109154296875,109.34624537825583L66.4249072265625,107.50964373350143L66.7353263671875,72.81439095735549L66.779328515625,123.41950923204422L66.977586328125,95.56253343820572L67.02312890625,124.08774062991142L67.817823046875,109.1540576517582L68.057975390625,109.81536373496054L68.0801537109375,117.017854899168L68.301376171875,102.20948323607445L68.544699609375,68.26650813221931L68.6991744140625,120.80772310495377L68.9881822265625,92.22584307193756L69.163784765625,115.53137093782425L69.338143359375,99.89126488566399L69.427655859375,112.28020206093787L69.519256640625,117.55557075142859L69.9343154296875,143.7950962781906L70.10779746093749,143.45731303095818L70.200139453125,117.44783908128738L70.3553232421875,116.51857659220695L70.422966796875,137.4445827305317L70.4661826171875,142.86788269877434L70.53056484375001,119.24813404679297L70.6195552734375,141.503636687994L70.81534453125,106.47420674562454L70.946635546875,84.67220976948738L71.0578494140625,97.02348798513412L71.14717499999999,108.83389502763748L71.4145330078125,86.57183587551117L71.4368015625,110.82322239875793L71.52355546875,89.7368276119232L71.637985546875,115.85542649030685L71.6599318359375,114.62731003761292L71.945452734375,107.56291538476944L71.9681982421875,102.30709329247475L71.99031855468749,152.2128777205944L72.1000048828125,81.87315329909325L72.2121533203125,158.715338408947L72.2788880859375,134.53771263360977L72.4998978515625,155.42216688394547L72.656731640625,115.1090906560421L73.52979433593751,123.5953876376152L74.0184134765625,148.96006971597672L74.24014511718751,133.85624527931213L74.6165642578125,135.04465386271477L74.63888437499999,119.23133298754692L75.87666796875001,92.62894555926323L75.9425970703125,127.87486329674721L76.232255859375,113.60875606536864L76.6272890625,110.22727653384209L76.693585546875,89.78046938776968L76.8516568359375,106.99446588754654L76.91830136718751,162.3546527326107L77.097809765625,111.76010683178902L77.3871462890625,143.251151740551L77.60665429687499,105.30944257974623L78.1178900390625,108.74607875943182L78.4483927734375,91.45180597901344L78.73792265625,110.79101353883743L79.538933203125,111.6082826256752L79.560950390625,172.4912030249834L79.9837564453125,117.9322013258934L80.009028515625,87.2840368747711L80.03145820312501,103.31605836749075L80.2515333984375,124.00418609380722L80.341400390625,113.14947247505187L80.36354648437501,98.11301618814468L80.3853896484375,103.27020376920699L80.494953515625,157.2843798995018L80.5390201171875,150.91985180974007L81.1921751953125,138.06962311267853L81.819336328125,104.51889127492905L81.932026171875,98.85394290089607L82.24594511718749,129.16231617331505L82.4038359375,136.03120386600494L82.51741523437501,98.46739560365675L82.8093169921875,134.39805895090103L82.87703789062499,95.21176010370255L83.07667500000001,133.54268014431L83.3397404296875,113.70661199092864L83.87204589843749,145.40258884429932L83.9389353515625,100.87490543723106L84.77886914062499,115.49203187227249L85.531578515625,107.61208921670914L85.88221640625001,114.71946999430655L86.2800404296875,103.38457390666008L86.3931427734375,111.19497656822205L86.50242949218749,115.68471133708954L86.525213671875,155.16888067126274L86.7011900390625,139.4456708431244L86.9460732421875,82.08812490105629L87.256962890625,126.45853400230408L87.435833203125,94.50726300477982L87.6117966796875,168.69352847337723L88.2091353515625,110.02484425902365L88.69730976562501,120.35073429346083L88.719584765625,117.74234935641289L88.74084140625,109.90559771656989L89.14922285156251,149.56957936286926L89.193521484375,140.39722546935081L89.3514380859375,132.5419107079506L89.93208984374999,80.93405604362488L90.3294369140625,128.2689505815506L90.811166015625,84.65544968843459L90.87728203125,114.40324127674103L91.03399980468751,67.59983390569687L91.30220859375,120.93836158514021L91.5704109375,105.3233341872692L91.8591802734375,156.21874198317528L91.8805078125,125.68978309631346L91.9256443359375,90.74218660593031L92.232383203125,127.80606091022491L92.7662484375,127.15249970555305L92.83156523437499,122.19217136502265L92.8783775390625,70.42851760983467L92.923423828125,78.41156139969826L92.990506640625,78.94882649183272L93.0772734375,119.42036539316176L93.1436021484375,138.3680672943592L93.56745234374999,117.91027799248695L93.78923554687499,140.10140389204025L94.0506123046875,100.36587432026862L94.16336015625001,97.40950256586075L94.78123359375,115.31209662556648L94.803547265625,77.90666908025742L94.85075273437499,90.26577413082123L94.96139296875,138.5162854194641L94.9840546875,163.0340711772442L95.1387873046875,124.47645977139473L95.1826025390625,93.3343032002449L95.60898574218751,97.5951337814331L95.63092558593749,101.92898750305174L95.7182208984375,130.0135152041912L95.7853166015625,136.83576971292496L96.2946251953125,108.10390949249268L97.3421044921875,101.73380836844444L97.3892970703125,90.7921390235424L97.6155017578125,98.5339032113552L97.81649882812499,173.54897312819958L98.5475970703125,69.90752086043358L98.75060507812499,111.00668177008629L98.83850625,114.36439394950867L98.973277734375,106.08692184090614L99.236426953125,137.87005931138992L99.303741796875,169.19338047504425L99.68158535156249,125.84439381957054L99.96713203125,124.6678279340267L100.165003125,93.9604090154171L100.30023867187501,89.82915148138999L100.9882693359375,104.5676553249359L101.032490625,128.69053423404694L101.231869921875,93.3439740538597L101.4774041015625,130.73608368635178L101.6101453125,144.6396568417549L101.76707578125,111.03520259261131L102.58086738281251,101.22371181845664L103.135003125,96.82363733649252L103.27284257812501,96.65529891848564L103.4032119140625,109.03952360153197L103.467826171875,125.33306792378426L103.956999609375,93.14309895038603L104.17494785156251,101.01533770561217L104.7325060546875,98.64565074443816L105.24708691406249,133.69778260588646L105.582275390625,137.92902693152428L105.8910380859375,150.38020998239517L106.0238759765625,153.90556395053864L106.44837070312501,158.4679940342903L106.51435781250001,114.63329285383223L106.58319375,150.809825360775L106.6962251953125,122.14017003774642L107.2250953125,99.06793102622031L108.04282500000001,154.11647871136665L108.155166796875,171.6304560750723L108.2669736328125,134.52246874570847L108.3982001953125,116.6930617392063L109.3326802734375,94.98072504997252L109.399008984375,139.91290420293808L109.7587541015625,170.25330193340778L109.9370701171875,127.15036883950232L110.0247521484375,98.68171155452728L110.3606560546875,115.42327046394347L110.4054251953125,117.09817215800285L110.6448685546875,88.40511828660965L110.8261751953125,100.33366546034812L111.06971777343749,128.02849054336548L111.334252734375,126.49369329214096L111.84620390625,133.78711506724358L111.9801310546875,90.67883431911469L112.6441013671875,106.51239842176437L112.86768925781249,101.96533516049385L113.230463671875,128.49121630191803L113.79578203125001,96.37992545962334L113.88637734375,119.4953964650631L114.02497734375,94.43153530359268L114.2032224609375,115.74105635285376L114.740110546875,126.62183210253716L114.8044798828125,112.49103486537932L114.8717560546875,156.29000306129456L115.6899046875,111.26181200146674L115.80030644531249,142.05983370542526L115.890212109375,120.94549179077147L115.91133339843749,83.5575619339943L116.084963671875,135.20823881030083L116.33065898437499,96.16142973303795L116.5072025390625,111.786742657423L116.59536796875,128.1642922759056L116.639015625,118.2601088285446L116.77246582031249,124.90259200334549L116.95073671875,98.72260779142378L116.97216093749999,157.23266541957855L117.171333984375,90.95650255680084L117.4766033203125,83.9552143216133L117.630162890625,112.6412609219551L118.120058203125,128.99455145001411L118.272812109375,91.1423796415329L118.4076931640625,121.59950375556944L118.500099609375,109.93116810917853L118.52206523437499,99.59417298436165L119.11738652343749,92.23473533987998L119.18344453125,96.63997307419775L119.2482650390625,132.14499592781067L119.33717812500001,147.56521299481392L119.68483828125,116.54013112187384L119.7293689453125,87.74098470807074L119.77423476562501,124.8395675420761L119.79647753906251,125.32143011689186L119.81834003906249,88.90398681163788L119.99405859375,107.52964109182356L120.8337796875,121.222053617239L121.3902099609375,82.68861934542655L121.728646875,130.92245250940323L122.1470701171875,123.36361497640608L122.238703125,106.59562513232231L122.3947119140625,120.02503961324692L122.484140625,100.83552539348602L122.5953416015625,134.7660431265831L123.28136777343751,80.25795683264731L123.5227447265625,116.51718333363533L124.2289318359375,145.05611822009087L124.7592328125,146.82830214500427L125.068246875,116.51865854859352L125.1744140625,136.47278487682343L125.46373125,112.16054573655128L125.48547128906249,101.2839087843895L125.6574515625,89.63266104459763L125.70214980468751,99.92322787642479L125.8121390625,82.56613552570343L126.63769335937499,124.60603281855583L126.72482109375001,122.07058906555174L126.8141080078125,148.41428115963936L127.05647109375,107.23439320921898L127.0791779296875,129.90279212594032L127.1223099609375,106.68401509523392L127.143495703125,118.11549678444862L127.85409140625,129.72478285431862L128.09563593750002,126.25024184584616L128.1410431640625,112.04941287636757L128.252037890625,137.51231968402863L128.29663945312498,134.8217734694481L128.4078017578125,155.60169234871864L128.537977734375,145.91764375567436L128.6939349609375,120.69970458745956L129.2496498046875,90.70587992668152L129.5854634765625,123.01234990358353L129.7868279296875,118.14483717083931L129.8539751953125,125.10104939341544L130.5213873046875,78.5124087333679L131.0315595703125,113.13820347189903L131.0519912109375,130.0091715157032L131.1182232421875,128.69729563593864L131.1626958984375,122.9106830060482L131.252021484375,118.70029658079147L131.38354453125,128.6509083211422L131.9980341796875,112.07600772380827L132.1754671875,111.01110741496086L132.685175390625,115.2384178340435L132.880081640625,50.51094383001327L132.9021375,130.54922312498093L133.2102943359375,78.62784430384635L133.3634865234375,117.03490182757378L133.8254220703125,98.20874124765395L133.97997421875,91.0660782456398L134.022732421875,137.29697927832603L134.089170703125,153.4359948337078L134.1358541015625,102.76178732514381L135.130565625,157.64978244900703L135.24181171875,70.34418448805809L135.2637515625,123.66714045405386L135.420024609375,104.84794616699217L135.50998183593748,134.97728571295738L135.551818359375,120.00385388731956L136.0385232421875,88.64328354597092L136.5203361328125,102.07585334777832L137.615014453125,119.30202037096024L138.7043560546875,98.19546431303023L139.0090517578125,120.04179969429968L139.454390625,103.5111965239048L140.252178515625,115.19961148500443L140.40507421875,107.28278845548628L140.6281658203125,134.23906356096268L140.89404140625,152.1988631784916L140.959255078125,94.5625016093254L141.0032830078125,108.90712305903433L141.02387578124998,126.41288429498671L141.53221113281248,116.89254358410835L141.7112619140625,135.40067240595818L142.65368261718748,94.36744540929794L143.40257636718752,130.07961302995682L143.6854546875,136.41803801059723L143.70667265625,121.41407743096352L143.753220703125,138.72720018029213L145.481853515625,134.45075690746307L145.5936861328125,168.56979481875896L145.66035,142.91164740920067L145.8406962890625,166.59970670938492L146.214092578125,115.52874833345412L146.40894726562502,134.9389711022377L146.5659421875,132.67394244670868L146.69843203125,132.00521931052208L146.83076718750002,67.2870883345604L146.85138574218752,111.86296209692954L147.62529375,114.3124336004257L147.8014505859375,79.6500863134861L148.30442343750002,95.96289038658142L148.3485609375,134.36527639627457L148.37296933593748,121.08846470713614L148.99681113281252,146.58378526568413L149.0851828125,103.05846944451332L149.12953300781248,156.09621718525887L149.57007011718753,143.4284643828869L149.68250859375,112.11940363049506L149.725112109375,120.06126433610916L149.768334375,98.85341018438338L150.34086503906252,148.12591761350632L151.15200761718748,111.28090783953667L151.2859154296875,94.37846854329108L151.50705410156252,116.41678676009178L151.59731425781249,136.17790579795837L151.68511875,91.94604396820068L151.9947322265625,105.42717292904854L152.17397636718752,132.98791736364365L152.7866806640625,157.28831380605698L152.8334865234375,133.71864050626755L153.25825195312498,116.56295597553253L153.43950703125,77.36309334635733L153.4618271484375,120.72154596447945L153.5269505859375,123.20925012230873L153.830325,98.90045315027237L154.1391134765625,84.19268295168877L154.22774941406252,102.1279776096344L154.2721318359375,114.18060675263405L154.5591029296875,102.93578073382378L154.80431484375,109.56347078084944L154.825829296875,71.66700154542923L154.936134375,111.32241874933241L154.9809486328125,124.08999443054199L155.04569824218748,97.77531489729881L155.86902246093752,152.08424717187881L156.26745878906252,122.20913633704184L156.6901423828125,102.93188780546187L156.8238955078125,106.08634814620018L157.0446603515625,85.4246513545513L157.3510125,127.80134841799736L157.7502673828125,147.74428769946098L157.817279296875,142.92181000113487L157.840095703125,125.49480885267256L158.57789062499998,107.63647124171256L158.6422212890625,147.98228904604912L158.8385583984375,102.52206489443779L158.97109335937498,127.62186393141747L159.08094726562499,134.14174035191536L159.36836953125,112.73559272289276L159.4800345703125,114.40168410539626L159.8344494140625,100.03067269921303L159.94213125,131.71439707279205L160.05148242187502,153.83311450481415L160.140453515625,125.54025366902351L160.49253515625003,130.9229852259159L160.80007324218752,179.9401780217886L161.5154126953125,125.02687886357307L161.782976953125,134.87561881542206L162.05272617187498,73.40701758861542L162.833717578125,163.86871501803398L162.990905859375,142.46891900897026L163.0999798828125,155.66738039255142L163.14716601562498,134.04994919896126L163.19115527343752,95.59564381837843L163.3252306640625,152.41477727890015L163.4127,128.35475891828537L163.76865527343747,108.54979321360588L164.0161294921875,105.01398980617523L164.34899121093753,98.4273599088192L164.55130312499998,148.42595994472504L164.9228625,147.62348398566246L165.34307753906248,145.09004816412926L165.5587248046875,145.44004291296005L165.69116953125,98.41371417045593L165.80001796875,130.26077762246132L165.84238945312498,177.77845539152622L165.97429921875002,111.61565870046616L166.17322734375,109.58850845694542L166.5323923828125,132.8046628832817L167.39621894531248,131.05686098337173L167.43807480468752,142.57501155138016L167.5036107421875,136.10365331172943L167.745716015625,126.33514866232872L167.89975898437498,102.18264251947403L168.38030859375002,142.07630693912506L168.73289296875,140.66473111510277L169.3669248046875,136.70672938227654L169.481851171875,123.42356607317924L169.527561328125,108.56946274638176L169.594528125,103.19529563188553L169.9687365234375,149.28183048963547L170.1920859375,143.72735932469368L170.21184082031252,100.5880580842495L170.5409255859375,61.8636654317379L170.765061328125,78.9115773141384L171.496114453125,78.17769885063171L172.00380527343748,120.1042504608631L172.16033613281252,114.72692802548409L172.22724492187498,104.37407433986664L172.356331640625,149.6329316496849L173.19034218750002,136.70201689004898L173.480858203125,84.3500392138958L173.50328789062502,145.901088565588L173.5467421875,97.53395333886145L173.6815072265625,141.52781382203102L173.7490541015625,117.50434800982475L174.155269921875,99.45095419883728L174.5534484375,97.59792029857635L175.0798177734375,101.51523068547249L175.1711671875,107.75465235114098L175.4339232421875,124.42933484911917L175.6325484375,105.80286100506783L176.247186328125,142.67311334609985L176.376169921875,136.8787968158722L177.218546484375,137.86608442664146L177.3087873046875,139.78751093149185L177.352892578125,104.40968438982962L177.64294453125,112.90470972657202L177.7530498046875,129.64065462350845L177.8610216796875,136.09980136156082L177.949290234375,144.6905517578125L178.1697908203125,95.67973107099532L178.34705625,88.15494641661644L179.05413925781252,137.61513397097588L179.2107732421875,112.04207777976988L179.454373828125,171.17250427603722L179.47662949218753,107.31876730918884L179.5437123046875,98.16833674907684L179.61046640625,104.41382318735123L180.098286328125,96.65960162878036L180.1869287109375,118.82253453135489L180.227940234375,101.16728484630583L180.49824375,148.9240498840809L181.0231693359375,104.04575705528259L181.285796484375,121.71141520142555L181.458427734375,137.3074696958065L181.59134296874998,153.2790893316269L181.83774082031252,140.4839763045311L182.01026249999998,130.26991575956345L182.054928515625,145.42746260762215L182.185819921875,121.01962134242056L182.3222478515625,97.91865661740303L182.9406626953125,109.47774440050125L183.09604628906249,124.38638970255852L183.140409375,135.16099095344543L183.1839990234375,129.84841406345367L183.2508626953125,90.42476952075957L183.93539355468752,138.30237925052643L183.9543943359375,105.97640365362167L184.0622759765625,147.55230486392975L184.373230078125,92.54051461815834L184.4179412109375,107.70961731672286L184.44008730468752,85.54541409015656L186.03925312500002,84.60185021162032L186.167914453125,148.41047018766403L186.2344751953125,151.9086965918541L186.8121685546875,130.96617624163628L186.8333736328125,132.7293859422207L186.8990578125,121.84922486543655L186.92404628906252,87.58457094430923L187.6597078125,127.03034371137619L187.68208593749998,124.41966399550438L188.2590123046875,123.8002786040306L188.634535546875,163.97382408380508L188.7242220703125,119.4992484152317L188.903485546875,101.12659350037573L189.011895703125,98.87963622808456L189.0327076171875,92.67295613884926L189.166325390625,89.47010055184364L189.60793886718747,112.00634479522705L189.8940591796875,71.20636567473412L190.0244607421875,135.95510736107826L190.37692265625,132.68222004175186L190.5751611328125,141.66091099381447L190.61978847656252,143.91204804182053L190.6419474609375,115.73708146810532L191.9055509765625,82.70726442337036L192.78646406250002,130.03662690520287L193.115651953125,102.23070994019508L193.1384619140625,132.05804020166397L193.18274765625,112.02031835913657L193.49705332031252,148.34433138370514L193.6746216796875,129.10945430397987L194.177040234375,142.78969630599022L194.19956015625,136.49507701396942L194.592556640625,71.81321173906325L195.17135214843748,131.5081948041916L195.3483984375,113.59498739242552L195.615066796875,141.43090039491653L195.65901738281252,120.68208396434784L196.0786265625,88.3001321554184L196.09912910156248,90.22270604968071L196.56437753906252,107.01118499040604L196.71825937499997,124.97483655810356L196.8991986328125,128.4350761771202L196.9209837890625,122.07538351416586L197.2493208984375,161.07764929533005L197.53630488281252,108.0236741900444L197.55772265624998,111.49169966578482L198.1123224609375,142.8371900320053L198.59590781249997,103.78935649991034L198.7307888671875,150.8844056725502L198.7952419921875,103.07383626699448L198.81784570312502,70.39372712373734L198.905025,177.45642825961113L199.01477578125002,101.91157177090645L199.12490039062502,106.48547574877739L200.191083984375,123.13331753015518L200.25524707031252,156.50554835796356L200.497391015625,114.09643754363059L200.700341015625,130.866107493639L201.07950585937502,109.78352367877959L201.534106640625,147.62684419751167L201.84323671874998,111.20100036263466L201.95486308593752,146.04070127010345L202.4009625,84.31934654712676L202.866662109375,115.10486990213393L202.95683203125,77.3120754957199L203.62288417968747,131.31744131445885L203.912555859375,138.33135083317757L204.29226855468752,103.20250779390335L204.4890052734375,145.4202914237976L204.69437871093749,169.6442225575447L204.89350019531253,152.7733364701271L205.0269826171875,143.16476970911026L205.04796210937502,109.34419646859169L205.223145703125,113.19782674312592L206.06335019531252,125.49222722649573L206.17304296875,114.77798685431479L206.4395373046875,146.63406550884247L206.4867169921875,137.1829779446125L206.50804453125002,142.69737243652344L206.63871679687497,144.21889275312424L207.34356328125,167.9027722775936L207.4309359375,98.56070294976233L208.1214802734375,107.59086251258849L208.252275,143.78194227814674L208.5410765625,116.73158124089241L208.65283828124998,122.86859840154648L208.7873326171875,130.69494158029556L209.5106900390625,126.23335883021355L209.688638671875,128.07704970240593L209.73280839843753,127.1339775621891L210.224708203125,154.88576233386993L210.2681689453125,96.22088909149169L210.4888564453125,163.98935481905937L210.735692578125,119.84153926372527L210.825153515625,145.191919952631L211.02684667968748,107.716583609581L211.2084111328125,115.51239803433417L211.276660546875,123.66558328270912L211.50068671875002,105.75639173388481L212.21652890625,127.77565509080887L212.326473046875,132.59485453367233L212.4833326171875,140.55290162563324L212.72815781249997,151.63578182458878L212.8627875,110.79257071018218L213.016430859375,109.57023218274115L213.3730564453125,116.28971338272093L213.46294921875,136.98763489723206L213.886805859375,109.58441063761711L214.470364453125,105.94403088092803L214.5587876953125,123.1151232123375L214.7578189453125,168.14571149647236L214.89014121093751,148.79021510481834L214.91237109375,130.570367872715L215.003881640625,120.17256110906601L215.35647890624998,103.5237768292427L215.9554095703125,134.01614218950272L216.305267578125,90.77054351568222L216.50669003906248,101.23092398047447L216.66261503906247,91.80225148797034L216.774795703125,105.02611935138702L218.095337109375,197.4225202202797L218.184385546875,115.88456198573112L218.88004101562498,130.50508961081505L219.059994140625,110.73011994361876L219.08249472656252,132.8686298429966L219.126922265625,157.41448566317558L219.149274609375,171.1476305127144L219.662966015625,144.84610497951508L219.72929472656253,123.02870020270348L219.7978212890625,160.64623087644577L219.9521478515625,158.89125779271126L220.0190759765625,104.80545178055763L220.1303671875,149.53105986118317L220.2202728515625,72.01601281762123L220.4245505859375,110.67389786243439L220.4460521484375,91.83126404881476L220.53468164062502,117.7537003159523L220.71408046875,135.53483501076698L221.11319999999998,114.43844154477118L221.13565546875,140.58388113975525L221.97880546875,108.40690225362776L222.24573808593752,132.58686378598213L222.28825781249998,113.8564282655716L222.4476310546875,170.70018962025642L222.672926953125,162.23147228360176L222.69550488281251,103.34830820560455L222.78359296874999,116.20767503976822L222.82742109375,98.56353044509886L222.91926679687498,116.0803148150444L222.9859177734375,110.32103464007378L223.1864958984375,144.43083196878433L223.34075156249997,106.30345061421394L223.4977013671875,119.47978377342224L223.6351669921875,120.79100400209427L223.65835722656252,103.05932998657227L223.7888876953125,121.08649775385855L223.8989478515625,138.30856695771217L224.12085996093748,116.84074714779854L224.34513750000002,74.88124907016754L224.4772921875,130.58139100670815L224.8127900390625,132.5566628575325L225.5265310546875,122.4674218893051L225.59472890625,86.00445181131363L225.63837011718752,101.04984134435654L225.9303814453125,159.2709617316723L226.1114689453125,134.4485031068325L226.2468720703125,145.36206141114235L226.2912029296875,114.93747398257256L226.6464814453125,145.79684004187584L226.66884667968748,174.2617068439722L226.69128925781249,139.7847244143486L226.7356201171875,113.1000117957592L227.35186933593752,128.0126729607582L227.44417910156253,115.93242451548576L227.753019140625,142.83227264881134L227.95162499999998,142.90464013814926L228.1552453125,112.28753715753555L228.3773056640625,138.12801703810692L228.48626367187498,108.48074495792389L228.96816035156252,147.1549393236637L229.1436275390625,100.11426821351051L229.273983984375,77.74472326040268L229.56310781250002,160.11757120490074L230.29142167968752,110.8458423614502L230.625759375,111.40015438199043L230.69295820312502,150.9839417040348L230.7149109375,75.75035557150841L230.7808271484375,100.63739582896233L230.979233203125,141.48941725492477L231.06776601562498,118.32719013094902L231.15712382812498,100.9990693628788L231.4221873046875,183.5786932706833L231.44484902343748,124.2774286866188L231.600496875,148.713299036026L232.1309396484375,136.1284451186657L232.17384609374997,132.499990016222L232.50238945312498,102.61082366108894L232.52471601562502,89.89668354392052L232.65988066406248,129.52497318387032L232.726067578125,113.71591404080391L233.1855216796875,134.33958306908607L233.54819296875,64.29412305355072L233.6145474609375,187.32485823333263L233.768145703125,108.23598220944405L234.0995701171875,107.23209843039513L234.3431513671875,108.41981038451193L234.628981640625,133.38835626840591L234.9189369140625,133.7015935778618L235.2930615234375,132.82375872135162L235.45001132812502,113.2978545129299L235.86530214843748,115.89566707611084L235.8878220703125,141.57407820224762L236.0447525390625,175.84395684301853L236.11012089843751,118.57256755232811L236.175005859375,114.99353215098381L236.373031640625,132.31890738010406L236.395383984375,100.72414666414261L236.812498828125,94.78493124246597L236.98901015625,135.5207794904709L237.0776267578125,123.58743786811829L237.09948925781248,173.14175233244896L237.1212486328125,136.88428789377213L237.252146484375,133.16711500287056L237.3424001953125,133.46769005060196L237.6289201171875,72.34650194644927L237.737658984375,86.8052476644516L237.75982441406248,115.87755471467972L237.82531523437498,107.29733571410179L237.93641953124998,52.573581188917146L238.067091796875,113.17299395799637L239.6167125,138.06425496935844L240.209152734375,68.89896556735039L241.1606162109375,120.08453994989395L241.2513404296875,119.03053984045981L241.27328671875,100.12209504842757L241.5388916015625,127.8121666610241L242.1823787109375,108.81287321448326L242.33350839843752,137.60406985878944L242.6686001953125,138.46633300185204L242.71187402343747,121.40071853995322L243.09102597656252,97.57415294647215L243.2410921875,119.44122329354286L243.2858935546875,96.70131742954253L243.46330078125,114.55867156386374L244.44400664062502,163.34763631224632L244.577914453125,124.29070562124252L244.6883291015625,92.11921781301498L245.0443166015625,92.24444717168807L245.1997388671875,112.09932431578636L245.93004433593748,152.65617981553078L246.06256640625,117.78549939393997L246.12857929687502,107.89823994040489L246.1510025390625,136.41287475824356L246.82117968749998,138.1944017112255L247.2426837890625,130.22942930459976L247.44750292968752,157.48013272881508L247.69225078125,124.79186892509459L248.36150625,120.47161996364594L248.49265546875,126.6171196103096L248.5150142578125,141.06762871146202L248.5596931640625,161.3686354458332L248.6468595703125,108.37600469589233L249.660868359375,97.56087601184844L249.88483007812502,120.42408525943756L250.26362109375,134.34298425912857L250.7702935546875,132.74671971797943L250.9940361328125,138.50944206118584L251.10668085937502,91.26785486936568L251.217694921875,135.26757523417473L251.4797935546875,131.47049486637115L251.6609455078125,124.07356217503546L251.98947597656252,135.89781984686852L252.3907740234375,106.25878438353539L252.45688359375,102.96094134449959L252.5232509765625,141.66431218385696L252.8093197265625,163.0262853205204L253.03458984375,115.20838081836699L253.079436328125,123.30792561173438L253.47711210937499,139.0014672279358L254.4637927734375,116.75354555249213L254.6869681640625,114.72586259245871L254.84063085937498,125.8427956700325L254.9516578125,107.8236186504364L255.308431640625,124.89439636468886L255.4605345703125,89.03331398963928L255.4825453125,107.57988035678864L255.705669140625,129.36884626746178L255.74972929687502,88.64402115345001L255.88283144531252,92.06942930817604L256.4369865234375,163.95702302455902L256.5892248046875,156.94352328777313L256.72177265625,152.18509450554848L257.26345605468754,137.64480218291283L257.7356525390625,153.57446014881134L257.9791693359375,130.74149280786514" style="fill: none;" fill="none"></path></g></g></g></g></g></g><g transform="translate(51, 165)" clip-path="url(#clip_1)"><clipPath id="clip_1"><rect width="278" height="35"></rect></clipPath><g><g visibility="inherit"><g><g transform="translate(0,0)" style="visibility: inherit;"><text transform="translate(3,14)" style="text-anchor: start; font-family: Roboto, sans-serif; font-size: 12px; font-weight: 200;" fill="rgb(255, 255, 255)" stroke="none" stroke-width="1px">09 AM</text></g><g transform="translate(69.609375,0)" style="visibility: inherit;"><text transform="translate(3,14)" style="text-anchor: start; font-family: Roboto, sans-serif; font-size: 12px; font-weight: 200;" fill="rgb(255, 255, 255)" stroke="none" stroke-width="1px">12 PM</text></g><g transform="translate(139.21875,0)" style="visibility: inherit;"><text transform="translate(3,14)" style="text-anchor: start; font-family: Roboto, sans-serif; font-size: 12px; font-weight: 200;" fill="rgb(255, 255, 255)" stroke="none" stroke-width="1px">03 PM</text></g><g transform="translate(208.828125,0)" style="visibility: inherit;"><text transform="translate(3,14)" style="text-anchor: start; font-family: Roboto, sans-serif; font-size: 12px; font-weight: 200;" fill="rgb(255, 255, 255)" stroke="none" stroke-width="1px">06 PM</text></g><g transform="translate(278.4375,0)" style="visibility: hidden;"><text transform="translate(3,14)" style="text-anchor: start; font-family: Roboto, sans-serif; font-size: 12px; font-weight: 200;" fill="rgb(255, 255, 255)" stroke="none" stroke-width="1px">09 PM</text></g></g><g><line x1="0" y1="0" x2="0" y2="17" fill="rgb(0, 0, 0)" stroke="rgb(204, 204, 204)" stroke-width="1px"></line><line x1="69.609375" y1="0" x2="69.609375" y2="17" fill="rgb(0, 0, 0)" stroke="rgb(204, 204, 204)" stroke-width="1px"></line><line x1="139.21875" y1="0" x2="139.21875" y2="17" fill="rgb(0, 0, 0)" stroke="rgb(204, 204, 204)" stroke-width="1px"></line><line x1="208.828125" y1="0" x2="208.828125" y2="17" fill="rgb(0, 0, 0)" stroke="rgb(204, 204, 204)" stroke-width="1px"></line><line x1="278.4375" y1="0" x2="278.4375" y2="17" fill="rgb(0, 0, 0)" stroke="rgb(204, 204, 204)" stroke-width="1px"></line></g><line x1="0" y1="0" x2="278.4375" y2="0" style="visibility: inherit;" fill="rgb(0, 0, 0)" stroke="rgb(204, 204, 204)" stroke-width="1px"></line></g><g visibility="inherit"><g><g transform="translate(139.21875,0)" style="visibility: inherit;"><text transform="translate(0,31)" style="text-anchor: middle; font-family: Roboto, sans-serif; font-size: 12px; font-weight: 200;" fill="rgb(255, 255, 255)" stroke="none" stroke-width="1px">November  9, 2024</text></g></g><g><line x1="0" y1="17" x2="0" y2="34" fill="rgb(0, 0, 0)" stroke="rgb(204, 204, 204)" stroke-width="1px"></line><line x1="278.4375" y1="17" x2="278.4375" y2="34" fill="rgb(0, 0, 0)" stroke="rgb(204, 204, 204)" stroke-width="1px"></line></g><line x1="0" y1="17" x2="278.4375" y2="17" style="visibility: inherit;" fill="rgb(0, 0, 0)" stroke="rgb(204, 204, 204)" stroke-width="1px"></line></g></g></g></g></g></svg>