<svg viewBox="0 0 330 200" xmlns="http://www.w3.org/2000/svg"><g><g><g><g><g><line x1="61.953125" y1="177" x2="56.953125" y2="177" style="visibility: inherit;" fill="rgb(0, 0, 0)" stroke="rgb(204, 204, 204)" stroke-width="1px"></line><line x1="61.953125" y1="154.87499999999997" x2="56.953125" y2="154.87499999999997" style="visibility: inherit;" fill="rgb(0, 0, 0)" stroke="rgb(204, 204, 204)" stroke-width="1px"></line><line x1="61.953125" y1="132.74999999999994" x2="56.953125" y2="132.74999999999994" style="visibility: inherit;" fill="rgb(0, 0, 0)" stroke="rgb(204, 204, 204)" stroke-width="1px"></line><line x1="61.953125" y1="110.62499999999991" x2="56.953125" y2="110.62499999999991" style="visibility: inherit;" fill="rgb(0, 0, 0)" stroke="rgb(204, 204, 204)" stroke-width="1px"></line><line x1="61.953125" y1="88.50000000000011" x2="56.953125" y2="88.50000000000011" style="visibility: inherit;" fill="rgb(0, 0, 0)" stroke="rgb(204, 204, 204)" stroke-width="1px"></line><line x1="61.953125" y1="66.3750000000001" x2="56.953125" y2="66.3750000000001" style="visibility: inherit;" fill="rgb(0, 0, 0)" stroke="rgb(204, 204, 204)" stroke-width="1px"></line><line x1="61.953125" y1="44.25000000000006" x2="56.953125" y2="44.25000000000006" style="visibility: inherit;" fill="rgb(0, 0, 0)" stroke="rgb(204, 204, 204)" stroke-width="1px"></line><line x1="61.953125" y1="22.12500000000004" x2="56.953125" y2="22.12500000000004" style="visibility: inherit;" fill="rgb(0, 0, 0)" stroke="rgb(204, 204, 204)" stroke-width="1px"></line><line x1="61.953125" y1="0" x2="56.953125" y2="0" style="visibility: inherit;" fill="rgb(0, 0, 0)" stroke="rgb(204, 204, 204)" stroke-width="1px"></line></g><g transform="translate(51.953125, 0)"><text x="0" y="177" dx="0em" dy="0.3em" style="text-anchor: end; visibility: hidden; font-family: Roboto, sans-serif; font-size: 12px; font-weight: 200;" fill="rgb(255, 255, 255)" stroke="none" stroke-width="1px">0.265</text><text x="0" y="154.87499999999997" dx="0em" dy="0.3em" style="text-anchor: end; visibility: inherit; font-family: Roboto, sans-serif; font-size: 12px; font-weight: 200;" fill="rgb(255, 255, 255)" stroke="none" stroke-width="1px">0.27</text><text x="0" y="132.74999999999994" dx="0em" dy="0.3em" style="text-anchor: end; visibility: hidden; font-family: Roboto, sans-serif; font-size: 12px; font-weight: 200;" fill="rgb(255, 255, 255)" stroke="none" stroke-width="1px">0.275</text><text x="0" y="110.62499999999991" dx="0em" dy="0.3em" style="text-anchor: end; visibility: inherit; font-family: Roboto, sans-serif; font-size: 12px; font-weight: 200;" fill="rgb(255, 255, 255)" stroke="none" stroke-width="1px">0.28</text><text x="0" y="88.50000000000011" dx="0em" dy="0.3em" style="text-anchor: end; visibility: hidden; font-family: Roboto, sans-serif; font-size: 12px; font-weight: 200;" fill="rgb(255, 255, 255)" stroke="none" stroke-width="1px">0.285</text><text x="0" y="66.3750000000001" dx="0em" dy="0.3em" style="text-anchor: end; visibility: inherit; font-family: Roboto, sans-serif; font-size: 12px; font-weight: 200;" fill="rgb(255, 255, 255)" stroke="none" stroke-width="1px">0.29</text><text x="0" y="44.25000000000006" dx="0em" dy="0.3em" style="text-anchor: end; visibility: hidden; font-family: Roboto, sans-serif; font-size: 12px; font-weight: 200;" fill="rgb(255, 255, 255)" stroke="none" stroke-width="1px">0.295</text><text x="0" y="22.12500000000004" dx="0em" dy="0.3em" style="text-anchor: end; visibility: inherit; font-family: Roboto, sans-serif; font-size: 12px; font-weight: 200;" fill="rgb(255, 255, 255)" stroke="none" stroke-width="1px">0.3</text><text x="0" y="0" dx="0em" dy="0.3em" style="text-anchor: end; visibility: hidden; font-family: Roboto, sans-serif; font-size: 12px; font-weight: 200;" fill="rgb(255, 255, 255)" stroke="none" stroke-width="1px">0.305</text></g><line x1="61.953125" y1="0" x2="61.953125" y2="177" fill="rgb(0, 0, 0)" stroke="rgb(204, 204, 204)" stroke-width="1px"></line></g></g><g transform="translate(61, 0)" clip-path="url(#clip_0)"><clipPath id="clip_0"><rect width="268" height="177"></rect></clipPath><g><g><g><line x1="0" y1="0" x2="0" y2="177" fill="rgb(0, 0, 0)" stroke="rgb(189, 189, 189)" stroke-width="1px" opacity="0.25"></line><line x1="22.337239583333332" y1="0" x2="22.337239583333332" y2="177" fill="rgb(0, 0, 0)" stroke="rgb(189, 189, 189)" stroke-width="1px" opacity="0.25"></line><line x1="44.674479166666664" y1="0" x2="44.674479166666664" y2="177" fill="rgb(0, 0, 0)" stroke="rgb(189, 189, 189)" stroke-width="1px" opacity="0.25"></line><line x1="67.01171875" y1="0" x2="67.01171875" y2="177" fill="rgb(0, 0, 0)" stroke="rgb(189, 189, 189)" stroke-width="1px" opacity="0.25"></line><line x1="89.34895833333333" y1="0" x2="89.34895833333333" y2="177" fill="rgb(0, 0, 0)" stroke="rgb(189, 189, 189)" stroke-width="1px" opacity="0.25"></line><line x1="111.68619791666667" y1="0" x2="111.68619791666667" y2="177" fill="rgb(0, 0, 0)" stroke="rgb(189, 189, 189)" stroke-width="1px" opacity="0.25"></line><line x1="134.0234375" y1="0" x2="134.0234375" y2="177" fill="rgb(0, 0, 0)" stroke="rgb(189, 189, 189)" stroke-width="1px" opacity="0.25"></line><line x1="156.36067708333334" y1="0" x2="156.36067708333334" y2="177" fill="rgb(0, 0, 0)" stroke="rgb(189, 189, 189)" stroke-width="1px" opacity="0.25"></line><line x1="178.69791666666666" y1="0" x2="178.69791666666666" y2="177" fill="rgb(0, 0, 0)" stroke="rgb(189, 189, 189)" stroke-width="1px" opacity="0.25"></line><line x1="201.03515625" y1="0" x2="201.03515625" y2="177" fill="rgb(0, 0, 0)" stroke="rgb(189, 189, 189)" stroke-width="1px" opacity="0.25"></line><line x1="223.37239583333334" y1="0" x2="223.37239583333334" y2="177" fill="rgb(0, 0, 0)" stroke="rgb(189, 189, 189)" stroke-width="1px" opacity="0.25"></line><line x1="245.70963541666666" y1="0" x2="245.70963541666666" y2="177" fill="rgb(0, 0, 0)" stroke="rgb(189, 189, 189)" stroke-width="1px" opacity="0.25"></line><line x1="268.046875" y1="0" x2="268.046875" y2="177" fill="rgb(0, 0, 0)" stroke="rgb(189, 189, 189)" stroke-width="1px" opacity="0.25"></line></g><g><line x1="0" y1="177" x2="268.046875" y2="177" fill="rgb(0, 0, 0)" stroke="rgb(189, 189, 189)" stroke-width="1px" opacity="0.25"></line><line x1="0" y1="154.87499999999997" x2="268.046875" y2="154.87499999999997" fill="rgb(0, 0, 0)" stroke="rgb(189, 189, 189)" stroke-width="1px" opacity="0.25"></line><line x1="0" y1="132.74999999999994" x2="268.046875" y2="132.74999999999994" fill="rgb(0, 0, 0)" stroke="rgb(189, 189, 189)" stroke-width="1px" opacity="0.25"></line><line x1="0" y1="110.62499999999991" x2="268.046875" y2="110.62499999999991" fill="rgb(0, 0, 0)" stroke="rgb(189, 189, 189)" stroke-width="1px" opacity="0.25"></line><line x1="0" y1="88.50000000000011" x2="268.046875" y2="88.50000000000011" fill="rgb(0, 0, 0)" stroke="rgb(189, 189, 189)" stroke-width="1px" opacity="0.25"></line><line x1="0" y1="66.3750000000001" x2="268.046875" y2="66.3750000000001" fill="rgb(0, 0, 0)" stroke="rgb(189, 189, 189)" stroke-width="1px" opacity="0.25"></line><line x1="0" y1="44.25000000000006" x2="268.046875" y2="44.25000000000006" fill="rgb(0, 0, 0)" stroke="rgb(189, 189, 189)" stroke-width="1px" opacity="0.25"></line><line x1="0" y1="22.12500000000004" x2="268.046875" y2="22.12500000000004" fill="rgb(0, 0, 0)" stroke="rgb(189, 189, 189)" stroke-width="1px" opacity="0.25"></line><line x1="0" y1="0" x2="268.046875" y2="0" fill="rgb(0, 0, 0)" stroke="rgb(189, 189, 189)" stroke-width="1px" opacity="0.25"></line></g></g></g><g><g><line x1="0" y1="1349.6250000000007" x2="268.046875" y2="1349.6250000000007" fill="rgb(0, 0, 0)" stroke="rgb(153, 153, 153)" stroke-width="1.5px"></line></g></g><g><g><line x1="22.337239583333332" y1="0" x2="22.337239583333332" y2="177" fill="rgb(0, 0, 0)" stroke="rgb(153, 153, 153)" stroke-width="1.5px"></line></g></g><g><g><g><g><g><path stroke="rgb(255, 112, 67)" stroke-width="2px" d="M25.674367333984378,-48.489123465078556L25.719817411747684,30.68227469590028L25.761681121600112,43.0998245597273L25.933243531177663,31.059556423892168L26.342505193865744,86.09939807678084L26.599023571325233,11.147702128431336L26.641445712167243,-7.217989433963714L27.15712570710359,45.72821579764498L27.47854617513021,45.285968258592455L27.502732441767943,16.979638044960502L27.802814641203703,22.392631401945177L28.05745296766493,42.031223651022486L28.125631186704283,6.778143526352659L28.299656897424768,-16.440379309846683L28.36463344545718,-0.5605918835553558L28.5762229474103,15.817987959222842L29.028372110098378,41.45423829897344L29.093658897569448,17.58541713737024L29.155806061921297,-30.770194594955925L29.66719234302662,36.91008564734876L30.186979908130787,45.27152912032515L30.314953676576966,42.50632946149612L30.357251721643518,20.22075579951593L30.618436100260418,20.08283199253353L30.789942666739005,79.7442728858177L30.87319231770833,47.949044493908396L31.12775618670428,54.725527976270605L31.407033729383684,43.145576992611204L31.857166335720486,57.28019037594021L31.8793236364294,76.11322036562572L31.919716811342592,74.07817964042884L32.07043733543114,44.25150871261097L32.391634431061924,-11.829507674979824L32.47950664966724,-10.906539002760093L32.693094093605325,33.3913791902644L32.80160343967014,6.131204445605517L32.82338224826389,16.05240895719893L32.95181517107928,-11.590517041933268L33.44310414134838,35.17951147692499L33.48690374529804,26.232789474341594L33.50852122938368,19.996805952552787L33.59433345811632,24.143203631977077L33.93867441587095,10.081064281424496L34.04218890697337,24.073971711137247L34.08135353370949,61.225594975080185L34.339410698784725,42.19957003445904L34.424968531177655,77.77085235984104L34.54982749565973,87.46460382503895L35.145214207175925,18.495915117040322L35.23181444408275,-33.62738338579287L35.274962545211224,84.22852801400778L35.98071383463542,61.14140613745655L36.15197841435185,51.50576585454343L36.27790460250289,43.0418803091203L36.29940419560185,70.12339242669066L36.59961049081308,71.9157626293427L36.796569100839115,45.01569108142422L36.96958343098958,-26.985452997839943L38.30340205439814,-14.003905380304904L38.71358202582465,34.06849893061147L39.13639494719329,42.919860590266296L39.37071879521123,27.109322290877646L39.39165375253183,24.387620747840387L39.51727590603299,37.11460418746231L39.64575226236979,79.5448199704013L39.98710251193577,68.26376339165694L40.008384937427664,66.95133713703335L40.05143996672454,50.908549391156356L40.30838647460938,77.51497597868801L40.58823485785591,43.17891119346357L41.1229201208044,28.49789198890523L41.309920044849534,34.726807252497785L41.41543868272569,34.20474322791763L41.73746722005208,59.858801771139284L42.058068655960646,87.96802256639918L42.678200065104164,111.67645764432028L42.93432133608218,98.60739820052201L43.08376367368345,115.89258097916266L44.15757682834201,120.69375371521372L44.22246030454282,152.69536692849178L44.2661854510272,139.7662952241386L44.49874713903356,77.53660871369149L44.65200542173032,110.73228847850856L44.73523645833333,97.8072664610713L44.7754062608507,114.08657515479129L44.96649514069733,49.92102957029929L45.63638895580151,38.75596554434182L45.94042981047454,10.653833492731435L45.961395791739,57.0247448707435L46.0905670844184,70.43596147446722L46.284404685691555,115.33497372239178L46.53886307327836,118.8410411773287L46.62588523582176,106.83851081718005L46.66725876736111,115.93076327198159L46.773776376229755,43.55448701830739L46.816223336226855,38.9118158510448L47.03061119791667,44.193445819087174L47.11656613679108,36.679998896996466L47.26885647243924,64.54303838162437L47.570409206814226,74.32327302306184L47.676095373987266,30.594230043943444L47.697843158637156,26.827929382357524L47.95148871889469,93.27289982130159L48.16171937210648,97.33569174700989L48.20389952618634,95.45687810000184L48.374959347873265,125.00377924094441L48.56877833478009,107.64296833783295L48.58931618561921,109.17459285324763L49.10025572193287,129.6837453965303L49.24763186487269,96.42532661700001L49.69030631510416,69.4253925749288L49.797810485387735,84.51352726630128L49.81963893229167,60.136711223195526L49.85956674804687,65.36702923969658L49.92312239945023,124.12166618702548L50.007637827329276,81.26720130084605L50.13451955295139,86.74239227556369L50.22230490451389,83.54040375580296L50.329256848596636,81.89398597019866L50.80199350043403,105.0538171907541L51.37604814814814,57.70462198139871L51.79913408022281,74.83981412101792L52.12401061559606,83.8197951760827L52.20842676685474,64.57073914092418L52.44383645290799,100.27147861171757L52.46600616319444,59.22503029018024L53.60675657913774,81.8026550454461L54.05737315899884,39.4774732257463L54.07951805013021,39.42288427743543L54.461776472077545,-19.527733652632225L54.48359250940394,-12.338154655004145L54.824719386574074,21.7195866219374L54.86680646882233,29.377574343214768L55.251832226562506,104.11513857765812L55.422147473596645,52.97194056942352L55.59043995949074,41.1522570802824L55.65468434244792,-4.344060054179713L55.71990287724248,9.734175937916856L55.97521752567997,-47.75419974473363L56.398669540292246,46.138842593745935L56.46331723451968,54.55066499180592L56.761345648871526,36.9945470277488L56.82400160590278,72.8801295986188L56.93478810944734,65.79581012907109L57.19192696578415,6.950330952301528L57.42917947410301,2.6580512401431555L57.53842719003183,40.97984418135708L57.581078908058444,55.59340662277827L58.0877929832176,52.677078083259495L58.25972768012153,59.02795719808483L59.0066601526331,76.71724977318131L59.19952980685764,87.70877986087626L59.32916025390625,85.2921855147732L59.69141443684895,70.65733875608767L59.734686633752894,73.31423718795989L59.79512748119213,72.823111623918L59.879816643156836,47.43352065705954L60.03031379484954,43.65455809964954L60.86192922453704,74.49789750417598L61.508331709346066,46.72955235147805L61.550400177228006,89.98591891708563L61.81185136176215,62.11616347898586L61.87544424189815,52.46250853937596L62.04843995768229,94.35251207352724L63.05481946795428,86.94275544405612L63.14115910373265,102.38232166958242L63.33438243091725,97.13999198312997L63.482379052734366,123.9522787477698L63.932679188368056,105.39221764481825L64.16872176287616,150.39844022319772L64.23245114836516,102.60652591065204L64.35994094328704,77.28058734700451L64.3817631854022,65.30119845369676L64.70039149848091,45.596122116441684L64.95386952944156,91.2092957679004L65.03639322012442,86.86562695405308L65.14436274956596,70.69568422020335L65.18654290364583,27.27648086894078L65.465826651114,39.374471864393406L65.48702841435185,139.00432805495927L65.59456360857928,138.41456679271133L65.82715632052951,46.105398438968955L65.8706705041956,101.56217513239304L67.80922025101273,83.87588902566391L68.00110334382234,122.17217368038635L68.21297826605903,107.64092331023299L68.70906353804978,24.165296559877977L69.00354901801215,24.5491163524079L69.02468873336227,83.10056353760275L69.110060422092,81.9737488100082L69.131231161386,68.62692515070147L69.27572828233508,26.132707631676812L69.53086919668694,14.620547947936993L70.1762416865596,45.95977259734507L70.70118543113425,1.372655445690249L71.02358625578702,22.414886638137826L71.15287543945313,43.648304906256925L71.668431338614,56.16279639409051L71.77519093424479,78.48514660362041L72.56244212420428,16.808186293623685L73.3072401493779,9.169473696340317L73.37386717122396,83.0097301057513L73.86263079246238,54.85221748659205L74.2270070131655,45.491216964180325L74.86807337962964,69.36324724355642L74.97557134512442,71.66128644227547L75.86885617042824,94.4016892604803L75.97665196578416,74.84907308177797L76.513707458044,28.482782989481954L76.68659769241897,5.225735252940569L76.7487758807147,-10.719546314570962L77.1706953125,-20.352125392254514L77.4439418004919,13.497164269747644L77.5536796947338,31.442530858792146L77.85251473162616,-2.4525018523471553L77.89487482458044,42.353067136386976L78.08573412724247,33.37688332592224L78.12957716471354,64.71089429733034L78.89461521086517,64.28757806466155L79.12580564055267,64.88486961034619L79.14715631872106,74.51481498186395L79.36012328378183,61.23036922755613L79.5943664695457,9.565835641281472L79.74307664207177,46.2019885816912L80.02129937065972,31.391005685254285L80.19034884078414,52.504986363842654L80.35820078667534,45.04029279839649L80.44437289315682,56.50941760475439L80.53255535120081,70.18173073014638L80.93212513382522,112.16254419255863L81.09913322844329,136.9162131081141L81.18802923719618,118.28712799132578L81.33742193648726,105.91346266258202L81.40254119466145,125.42674045794264L81.44414430338543,144.11597327609684L81.5061239384404,124.92445470225698L81.59179345703126,142.05844513971746L81.78027632559316,107.24640958547074L81.90666787290219,58.294072145458955L82.01373150318287,44.82213327541176L82.09972367078993,51.94218483718766L82.3571045138889,27.55687417478873L82.37854205910011,44.14383624727437L82.46205851598668,26.952072565167683L82.57221833586517,50.258774366622994L82.59334564163774,62.6618746320283L82.86821157949942,61.00993221997477L82.89010827907985,53.253090333934175L82.91140311414931,112.84134042978044L83.01699620949074,58.04788159561019L83.12495953414351,124.08865549106517L83.1892039171007,132.58992155754035L83.40196612413195,164.57466957785778L83.55294724934896,131.8715948094017L84.39342932219328,123.17392860824391L84.86381435908565,150.60659236296732L85.0772715024595,147.6234493409675L85.43964357638889,147.363369486039L85.46113075991029,126.85126488286573L86.65272321506076,80.29947430418923L86.7161919994213,97.73950860814449L86.99504141167534,89.83915842721582L87.3753329155816,80.74606193989344L87.4391553729022,48.969586848556055L87.59132781756365,52.06281001528465L87.65548533347801,125.18240261769509L87.82829490559897,103.92517909226531L88.10683407841435,131.7084082413777L88.31815056966147,99.53701830202723L88.8103082103588,84.65807236608507L89.12847736906828,53.46825911627191L89.40720268554688,59.649205625212176L90.17832142469616,64.40982173690561L90.19951698314524,145.63911439066746L90.606544921875,124.14437506845962L90.63087389865453,71.79498523623552L90.65246656358507,61.02293536752943L90.86432907624422,81.1909680467276L90.95084244610821,79.31881085046693L90.97216210033274,58.83949643974639L90.99319012948496,53.190614715845264L91.0986653338397,119.33226150013864L91.14108747468171,150.82436613880327L91.76986835937501,153.17787998105717L92.3736253309462,111.40104621163384L92.4821098578559,79.0426124066794L92.7843140950521,98.6426944452933L92.9363128056279,119.24487546196073L93.04565359338831,83.25131816333815L93.32666227213542,107.90774678388999L93.39185598777489,72.25815016746381L93.58404311523437,100.21074017715377L93.8372915690104,91.44786463279685L94.34973266420718,126.99150587379447L94.4141259620949,90.99841815983955L95.22271542064526,88.21879374239258L95.94733547272858,76.40738381894491L96.28488839156539,78.46967530221976L96.66786656901041,65.11594759208691L96.77674820240163,67.15782930125425L96.8819566008391,74.16247144740619L96.9038905291522,129.1921510779964L97.07329987702548,141.96989965940153L97.30904462167244,75.8017442137281L97.60833260814526,93.21766848029377L97.78052790617767,62.53722328341998L97.94992484447337,139.6269124412357L98.52497225839122,110.358128801812L98.99492916485822,106.08909524430588L99.01637291485822,100.16997231811146L99.03683630823205,86.53046190601513L99.42997792968748,129.4051174870844L99.47262344292535,143.32258982370578L99.62464697265625,141.56114076918536L100.18363018844039,74.07088751403184L100.56614921151619,94.50965434794253L101.02990132921008,50.63044420769591L101.09355005244502,62.59643893176783L101.2444194914641,9.527285914030312L101.50261936668113,46.3470260980168L101.76081303710939,48.33807130351309L102.03880618851272,115.04896882590441L102.05933783456308,115.77641117225176L102.10278997034143,71.2257887342578L102.39808207284432,92.20672983044443L102.91202472692419,103.9539829737785L102.97490405635126,104.61703946869622L103.01996943721065,38.38093362260489L103.06333470594619,8.915624666265455L103.12791414749711,-8.071954007117773L103.21144301396122,33.8334070472902L103.2752964952257,83.36748358184023L103.68332960973669,86.75317527397836L103.89683639142072,117.35062144723163L104.1484591905382,84.55862562970286L104.25699956054686,61.077771408057L104.85181543149595,70.03477995556332L104.87329641022859,27.25799835301479L104.91874028320315,17.50146825657504L105.02525168728299,73.75911745754597L105.04706772460938,139.0747839172346L105.19602608868634,128.63002220151807L105.23820624276621,82.27471634958982L105.64867783926506,59.946383841125915L105.66979894024885,52.128236035876704L105.75383659939236,83.58979392073941L105.81842845052083,111.24883081926352L106.30873085937498,90.85851289280303L107.31712072120949,70.42426468997026L107.36255218460646,44.07880322974228L107.5803154513889,38.237288253553366L107.77381178927952,131.2972329062507L108.47762718460648,53.7183847786358L108.67305941659433,60.076904854856195L108.75768032588253,68.21430821519033L108.88742245912906,62.44138613522607L109.14075157515913,99.89119894016117L109.20555438910591,162.68274368469906L109.56929772135416,144.55570225492116L109.84418847837097,132.1649162207543L110.03467549370659,85.20162170138953L110.1648643717448,51.70558983687755L110.82721936848958,50.580444756771364L110.86979042426215,80.95808183170881L111.06172936017072,53.684001153811955L111.29810078848381,85.45339569217269L111.42588841326679,122.41272294978081L111.5769626103154,101.33022183453902L112.36038544560184,76.05065667793683L112.89384216037325,55.21882170537431L113.02653777307583,42.50302326738432L113.15204203559027,50.81541888749368L113.21424504304109,76.77709149620405L113.68516369176795,50.916825910219224L113.89497862413194,45.534384810810494L114.4317300817419,39.254486753872136L114.92710800781249,80.60820129771908L115.24978804796007,110.86719544684821L115.54702845413772,145.05066029999205L115.67490915075231,170.09883122905217L116.08356274414062,191.0008256033905L116.14708737160011,147.11480689024023L116.21335451569733,167.3522593258327L116.32216789641203,142.58906538954417L116.8313018391927,98.03088499111551L117.61851580041956,142.15847086311956L117.72666526873553,191.1802877926919L117.83429973958334,172.82527789736352L117.96062923900463,138.86096257725106L118.86023674406829,90.53267451976973L118.92409022533276,119.37567048582578L119.27041051070601,175.73783459850054L119.44207219690394,154.0699028288595L119.52648214337383,104.42221766205257L119.84985091507522,96.18455875808972L119.89294937789352,93.39801868733743L120.12345728081597,54.790308934074545L120.29799798900463,46.9809765348564L120.5324521375868,77.9461701112825L120.78711528320312,94.5495836137436L121.27996165545427,113.90025465480689L121.40889096137153,70.01854315276276L122.04808348162615,64.07163149640152L122.26332760416666,54.65017397716744L122.61256414026332,83.14334282586061L123.15678616355613,58.90325519626786L123.24400067455151,74.11511802187826L123.37742845232928,50.97821080393358L123.54902188585069,64.52723175112465L124.06587458586517,86.66317019357727L124.12784181134259,81.75454336103462L124.19260739655671,135.1905845027963L124.98022466905383,109.28864687811124L125.08650649594908,133.3929376967597L125.17305709454571,120.67559568690352L125.19339018735533,64.91672804717466L125.36054099211515,97.94991515138291L125.59706754014756,67.50593500172224L125.76702290943287,69.35358609458874L125.85189821506077,91.54454971373711L125.89391704463252,92.1097426475325L126.02238719618056,100.99954584009873L126.19400544885707,72.63264807920103L126.214630166739,130.93091087854174L126.40637054940683,80.594371636607L126.70024796006945,41.37988069051378L126.8480770525897,54.77795156475234L127.31969063765915,83.86793898723313L127.46674413158277,52.59586300362227L127.59659174623843,73.0392426366154L127.68554980287904,70.28494016614826L127.70669572301793,55.325826777739756L128.27980103804978,36.87675537688955L128.34339391818577,31.47805492891921L128.40579547887734,73.94348226078792L128.4913905400029,119.2727635388878L128.8260768464265,106.53259054930867L128.86894573206018,61.81613100833819L128.91213726671006,82.74224918643918L128.93354999276622,95.91820864415351L128.95459663628472,56.944602754927665L129.12375779260705,57.5367360038859L129.93214249312788,75.51788516779557L130.46780811270253,36.70353563988091L130.79361536639178,75.50502388694227L131.19642404875577,89.05563142906632L131.28463753074362,75.6010199368657L131.43482444299767,84.81557204608086L131.5209158872251,65.64216500689962L131.62796710792824,97.81595088345044L132.2883924153646,46.953449507369086L132.520761754919,63.11146206844663L133.20059564163773,109.54366214983936L133.71110704752604,139.6842662329273L134.00858944046587,118.75185110776411L134.11079472113715,131.87880465155115L134.38931527958624,108.45849439361861L134.41024403211807,80.40511012589432L134.57580641095194,48.57474611112776L134.61883662109375,42.7232937330561L134.72472134150752,16.869110698375515L135.519467916305,55.473414120002644L135.6033442509404,75.37218857820275L135.68929918981482,121.2229696215119L135.9226178620515,95.72369157677453L135.94447733289928,109.60453644636596L135.9859997793692,88.04414493586594L136.00639492006655,89.8233446404099L136.69047288230612,105.83518180398697L136.92300354636865,110.969602222136L136.96671628327547,95.76991463595108L137.07356895073784,119.42780757482934L137.11650608904804,130.15907657465993L137.2235200810185,163.34726082278286L137.3488381998698,170.79415972824702L137.4989754738137,142.7999337422598L138.03395236183448,87.39316567824773L138.35723426649307,95.73634255556162L138.55108427734376,94.47643229143567L138.61572576678242,102.67502841220359L139.2582316442419,47.62189956227575L139.74936549479165,59.16286347937356L139.76903467520256,87.80497887511119L139.8327950846354,103.30150607096573L139.87560812717012,105.15047376672872L139.9616002947772,100.83993876767421L140.08821521448206,111.0627688812749L140.67977357132523,95.86004945323079L140.85058520146123,85.36760067156068L141.34127230721933,84.5138328147598L141.52890511971935,0.6796601100366646L141.55013790690103,53.410250561451946L141.846795062934,18.211629913458918L141.99427048249422,46.53281520975231L142.43896769386572,39.291123313740655L142.58775232385707,25.751552893540772L142.6289148925781,77.1395886980423L142.69287385525172,128.74772475021655L142.73781514033567,94.4810810795877L143.69540639648437,144.5769140548381L143.80250105070888,62.24829864662111L143.82362215169272,81.49231635428198L143.97406346028646,68.81329142389735L144.0606636971933,99.99055355392711L144.10093898111978,99.4220204091239L144.56948119574653,58.711293610106026L145.03331397569443,51.57623829374916L146.0871415057147,69.46998010832209L147.1358314706308,53.0363312170395L147.42915665509258,71.29833360943137L147.85787653537326,60.976140418249095L148.62589288013598,69.82900230800966L148.7730828794126,64.9496090693226L148.9878492332176,96.7220508982509L149.2438029748987,138.90467623053613L149.30658302770544,90.02053508268969L149.3489679398148,79.1554903692435L149.368792239945,95.17115255036538L149.85815772569444,92.52527490758062L150.03052675781248,114.7627577871273L150.93777856264467,75.28429349006352L151.6587253797743,97.56851432169154L151.931047354239,119.09832843211106L151.9514735188802,112.70202764312529L151.9962845033999,131.15095790886932L153.66040885235822,136.715367273474L153.7680681423611,183.97451987623214L154.00586046730325,206.98984564575798L154.36532249529805,157.86091433306495L154.55290566948784,153.36980594599237L154.7040419144242,147.75943129899485L154.831587552445,143.53237745548722L154.95898427553533,57.68626018396263L154.97883339482058,63.5598964096978L155.7238609971788,70.23721600782125L155.89344407913774,29.623713440962067L156.3776471806279,26.25463968948582L156.42013757414642,73.66753961107767L156.4436351092303,85.0244019714691L157.0441966145833,124.65795021579866L157.12927047345198,92.40912715987083L157.17196562499998,141.33387950894672L157.59606293764466,154.38187822006617L157.70430547779225,121.90737742365887L157.74531913158273,112.6460176359504L157.7869284450955,79.7889095098311L158.33809362702547,123.50179965201231L159.11896629412615,102.29995751919286L159.24787698567707,67.82080310906134L159.4607632884838,75.50263645842753L159.54765515046296,105.54968606588305L159.63218298791958,66.6394464204135L159.93024242621527,60.64719227727776L160.1027976019965,92.53003444538432L160.69263723234954,142.9409773484822L160.73769640842016,142.84694546079385L161.14661060293693,120.70648151407076L161.3211016728154,56.961289070662346L161.3425888563368,74.52832715667277L161.40528204210068,88.27090372417558L161.697335244864,65.2243982897652L161.99460047019676,32.46358357348755L162.0799287254051,35.89471041249468L162.122654900897,53.46840730361482L162.39891691623265,49.53746758134567L162.63497810510708,55.71054839033711L162.65568969003183,10.63130556904569L162.7618784450955,34.631096931477245L162.80502034143518,65.4663237167476L162.86735364945025,50.09329049784416L163.65995336733218,110.77987793087047L164.04352099971067,108.73441498875064L164.45043104745372,82.69206093191787L164.57919282407406,71.12729926371395L164.79171924913192,37.5912034837235L165.08663906430846,72.01991241740163L165.4709947048611,118.3491396162925L165.53550589373555,139.93883191669104L165.55747084599247,130.45934400036418L166.26773301685475,101.78310028955022L166.32966301359954,136.51342498209885L166.5186732892072,98.83191307155377L166.6462623607494,108.53329268555699L166.75201678059895,122.7469795552543L167.02871313114875,103.71964163825811L167.13621109664354,94.4479528859015L167.4774000217014,70.38552858798238L167.5810634277344,96.7336682937653L167.6863338740596,141.01537382972896L167.77198477828412,131.16376902087126L168.11092756980614,132.18184966697441L168.4069890661169,195.89119350823253L169.09563375289352,163.42840744204796L169.3532131492332,156.6287501403541L169.61289596896702,73.42210181646665L170.36474263418694,139.94698878582184L170.51606502278645,152.31454719576757L170.62106866319442,176.72510162278132L170.66649392180267,163.54390466978626L170.70884160517937,106.13400793534795L170.83791362123844,144.82979078568388L170.92211880967884,137.07545504258488L171.26479067925348,106.92846138052015L171.50302974898727,84.28872188789757L171.82346986038772,62.226089160818574L172.0182319751881,113.35034375260994L172.3759256383825,142.99189109129142L172.78045925202545,157.51559665514483L172.98805907479746,166.6803586883154L173.11556127929688,111.64350545423073L173.22034775209778,119.61724973927058L173.26113803349247,185.5697069657451L173.38812524052375,139.97161756113806L173.57962984121815,110.00326869580539L173.92539169560186,121.90778180178036L174.75698230613426,126.80059194693581L174.7972762044271,144.56327912884734L174.86036649667247,146.89048846768017L175.0934369773582,135.7120844495695L175.24173142903646,97.91417958571907L175.70434807038484,126.5894628657961L176.04377483543115,141.97754977310086L176.6541461118345,146.11537423231823L176.7647837004485,131.49901504813806L176.80878806242765,103.60791743695263L176.87325581778066,79.95524011194424L177.23349964916088,125.08957313382469L177.44851419451678,145.02005370190048L177.46753187210646,101.44629608231968L177.78433597728588,25.45318696879256L178.00010750687213,1.802633523839059L178.70387946867766,-13.33240027433795L179.1926244755498,31.557485883199107L179.34331397569443,51.569337060906264L179.4077258879485,50.24950156859027L179.53199539749713,107.71809295565762L180.33488265516496,125.5536338791303L180.61455730432579,68.86368535191127L180.63614996925637,114.08270340103097L180.67798265516495,78.9524201568256L180.80771858362272,114.5063469777282L180.8727447699653,104.91395071564774L181.26380158239294,75.91887147080104L181.64712102322048,56.136463921375075L182.15384750795715,49.30966621703337L182.24178797923904,53.24542493859786L182.49473860315393,77.07174418711578L182.68595157877604,67.39018395152031L183.277652645761,109.043318096437L183.40182287868922,126.57633294083946L184.21276395218462,138.36705026279859L184.29963719979744,147.9148805931268L184.3420965693721,108.10266753405666L184.6213244737413,95.15075413209387L184.72732088035303,108.92333152188188L184.83126350188078,125.50156139310192L184.91623808412902,146.50713800773627L185.12851011284724,96.02019116512304L185.2991604184751,56.04157299537293L185.97985677083335,95.72315261804353L186.1306455475984,86.6126026036935L186.3651555392795,157.26325797573324L186.3865806749132,117.45647706708651L186.45116011646414,81.79330881906357L186.51542311378762,68.43505223079202L186.98503875687211,50.438300344250614L187.0703732168692,68.16998829418532L187.10985428783275,56.08187965139207L187.370070719401,110.30499564161568L187.87540733145252,85.06826283067862L188.128233859592,92.66674308496947L188.29442292209202,117.30220684121974L188.42237807617184,152.64331546253518L188.65958094618057,157.37718059317203L188.8256645272714,147.06921809730486L188.86866371346932,160.3963372696491L188.99467056387445,136.97306038075993L189.12600732783565,93.18185238322208L189.72134440104168,81.78682604003315L189.87092944878472,94.14130273204067L189.9136370099103,115.42383908475036L189.95559999638309,121.35462555435063L190.01996847511575,74.16411500660635L190.6789542715567,107.48134993009617L190.69724598885995,85.85934411581074L190.80110174334493,126.40566436705416L191.10045177770542,79.91827925597092L191.14349439742477,71.55262039038217L191.1648140516493,38.00185073573991L192.70430280852142,16.656764895675085L192.82816280201098,85.9888096517073L192.89223965567132,132.09120794926577L193.44837487340857,132.79391164061133L193.4687886284722,135.48526561544358L193.53202163085936,123.09434337786443L193.55607759693285,71.55183553321136L194.26428598271124,91.40379831566194L194.2858290093316,99.95431918724651L194.84122585720485,104.2873137880818L195.2027354654948,158.6014200025475L195.28907510127314,133.93897541604505L195.46164889142074,95.49089106465627L195.5660134385851,69.52959363785534L195.5860487015336,45.96312517599532L195.7146801775897,27.700295452333982L196.13981368995948,45.75289020780177L196.41525667317705,4.063746665975179L196.5407919596354,62.39954983893673L196.88010083369502,93.18793315710819L197.07094152199076,123.21898713721144L197.113903479456,144.13544685252492L197.13523554325806,120.41645661954864L198.3516843822338,63.66667981126755L199.1997238878038,90.54261124836705L199.5166272696036,70.87437154476216L199.53858601707174,97.46933649554471L199.58121912073207,87.63230262145169L199.88379564525462,128.48899360862228L200.05473757595485,128.24247552375115L200.53840706561056,145.70476710450725L200.5600865975839,148.0792503097778L200.9384173882378,66.2407391154246L201.4956136248553,93.9813560535596L201.66605296766494,87.56654285729455L201.92276989836515,119.55006658637829L201.96508035300926,112.03079530956929L202.36903071650752,65.83482912398914L202.3887681495949,40.59212635289156L202.83665462239586,47.05785576302116L202.98479395435479,74.06141215442591L203.1589809895833,94.71781808065768L203.17995317563657,98.92500271753916L203.4960375253183,151.65586654160288L203.77231195023145,114.99944960960062L203.79293046332464,97.46989406280704L204.32683392288774,127.30235560615658L204.79237301974828,94.93662136721501L204.92222063440394,136.1413532133572L204.9842685221354,99.31895024989065L205.00602871636283,35.157295247399674L205.08995468930846,134.47919752626655L205.19560983253763,96.82550544994501L205.30162485351562,80.12115205202959L206.3280210123698,91.52885270639925L206.38978968460648,141.33263569190913L206.6228973940249,116.62281374403719L206.8182737829138,123.38405934732488L207.18328909686053,100.30177154398757L207.62092525860822,135.16707327518947L207.91851933774595,109.196258977378L208.02598007450808,138.46196720321439L208.45543211986399,76.56917551350267L208.90375292787903,79.06286510939408L208.99055792281538,31.909445340126773L209.63175458984375,73.13702802341564L209.91061641167536,106.90239206839439L210.27615913266786,81.94120891027949L210.4655541051794,121.31030048807442L210.663263494647,176.11456133055682L210.85495423900463,187.27968629078873L210.98345541449652,181.60991532729147L211.00365200195313,134.67175119594384L211.1722981608073,111.4695258705356L211.9811482204861,113.37443711570141L212.08674752061634,100.72523443824791L212.34329692201968,134.1431740816042L212.38871597583912,142.02781060311818L212.40924762188948,153.8571221528866L212.53504350947628,162.91332069029917L213.2135868001302,198.83465200060914L213.297698916739,131.12529608842334L213.96247378110533,102.12396066925884L214.0883875596788,131.31094937051523L214.36641173502605,114.0019505651306L214.47400277235243,111.5165660996147L214.60347809968172,120.09997354858558L215.29984154369214,119.50674422331721L215.47114955692996,121.524139605451L215.5136709743924,121.52058578877929L215.98721424877024,157.2425691685039L216.02905313946758,103.15806782251337L216.2415051070602,157.9438647151335L216.47912990270544,133.98506391765727L216.56525237087672,152.24263712598128L216.75941882595487,114.95620263119494L216.93420772569445,102.6196812301872L216.9999102340133,105.7131414002179L217.21557628219043,84.51520365393151L217.9047049424913,100.14123820016378L218.0105462293837,115.72048293798933L218.16155217375578,135.31220676451787L218.3972410753038,161.33393048018144L218.52684670319732,124.37061294776151L218.67475645797165,100.61913937843998L219.0180736255787,95.01806012700277L219.10461181459783,118.3012824530021L219.5126511338976,96.99579261986122L220.07443270941843,79.52633714227505L220.15955620659722,91.14854271142863L220.35116008391202,156.08851424413442L220.47854439742477,170.13669453595588L220.49994471390335,155.1116902740867L220.5880403049045,132.71187464666787L220.92747947952836,97.84045932455325L221.50405947627314,116.16960044958284L221.84086161566842,71.4982053772097L222.03476746961806,58.160730823009324L222.18487371961805,38.02097313650205L222.2928680682147,42.959842974232174L223.5641300112124,164.86253181355386L223.64985537290218,133.04255524430994L224.31955063476562,132.77117577287163L224.49278833731194,107.15256895478126L224.514449254919,120.27970487985345L224.5572188639323,159.75319719978174L224.57873707139757,201.11559541623598L225.07325873661748,192.07579784155377L225.13711221788193,158.56696914768506L225.20308153211806,186.8856932350175L225.3516489945023,201.6177986996278L225.41607952112267,140.83387896638547L225.52321760886866,161.93758261931796L225.60976820746527,74.8167987986377L225.80642278284145,72.30756961846186L225.82712195818866,46.546423492097L225.91244400860822,64.45898104742953L226.08514809932,98.09568533322697L226.46937343930844,91.12089595211444L226.4909909233941,120.59233365662634L227.30267657154224,96.85464891319128L227.55964789858217,113.73824309423358L227.60058089011864,99.75722078749406L227.7540067021123,164.54203111093565L227.97089509367765,192.51136844254344L227.99263046874998,133.49427962837686L228.07743131691262,114.63753855549149L228.11962388057,80.61066777898571L228.20804212058735,82.74342410203052L228.27220584129049,76.60931359789508L228.4652988679109,116.83745912946314L228.61379807761867,91.8940082683386L228.76489088903358,93.88947207297215L228.89722662398728,96.77464839557021L228.91955145399308,75.68025382005696L229.04521083622686,86.22949849154668L229.15116380931715,114.72854528776483L229.36479468677663,104.19303441018857L229.58070272171585,43.858410358255924L229.70792571072047,79.35890954722525L230.03090358072916,103.20192264312254L230.71800947989007,104.52012576337913L230.78366234989872,58.37326069877295L230.8256749746817,50.05266127709006L231.10678913483798,120.00676204993424L231.28111888020834,130.02594850202868L231.41146908275462,150.086186335924L231.45414561993636,122.9575874009388L231.79616598668983,146.4048483490143L231.81769660373263,197.1152516376494L231.83930167824076,183.16021441051484L231.88197821542246,140.4366892852135L232.47523047960073,133.99923621879515L232.56409546440972,114.58619001666624L232.86141032805267,137.5658031651969L233.05260468930845,151.44672774968112L233.24862637622974,120.36272084532712L233.46239996383102,134.97606171261393L233.56729191804112,105.57994144613214L234.03120536024304,137.7265049425047L234.20012452980328,96.4602700476219L234.32561638274015,42.90482397105502L234.60395079752607,116.80787695185077L235.305085724103,97.72355597457718L235.62694673213252,86.98651413465389L235.69163785988135,131.49941889253174L235.7127713704427,61.36101814393357L235.77622774522567,51.31438588073345L235.96722975802953,97.87409955841594L236.05245873661747,95.99382448543506L236.1384819281684,72.55964216202146L236.3936538664641,164.80163045292878L236.41546990379052,143.80992283562293L236.56530934787324,162.67052773320344L237.0759572591146,157.78675144722268L237.11726253797744,150.1856743801248L237.43354544089985,107.14951944998573L237.45503882921005,64.9612606683473L237.58515945457177,90.6607218813361L237.64887643048323,85.72982793041834L238.0911847981771,109.31957823627434L238.44032205765333,33.30581807251714L238.50420035807292,146.07167198750943L238.6520666793258,111.92223120029914L238.97112312282985,90.14029451785181L239.2056145001447,78.60004171477368L239.48077826786746,103.8172181889214L239.75991310040513,119.35074591903661L240.12007626953124,127.54084968727098L240.27116908094618,107.31974798537055L240.67096223596644,98.53118022737951L240.69264176793982,126.31315789495738L240.84371596498843,187.09702463671476L240.9066449327257,149.84344719484392L240.969108541305,122.88410606762723L241.1597444715712,129.0109844135103L241.18126267903645,92.01603762667507L241.5828117892795,62.17367952085204L241.75273613462096,96.70641112933548L241.83804577546294,102.06458487874272L241.85909241898148,169.0694066570165L241.88003978587963,162.5990545920112L242.0060528410735,153.93182806799277L242.0929384982639,149.11841421502504L242.3687661783854,67.55072739826248L242.47344716977722,37.22246434156058L242.49478543836804,56.449494492196884L242.557832297092,56.94063066910734L242.66479044596352,-13.209084358984233L242.79058633355035,22.709057970539295L244.28237887912326,76.30178481560687L244.8527106535735,19.422830201517062L245.7686677770544,51.1852513655011L245.85600638382522,68.8859184684744L245.8771336895978,55.165993434333174L246.13282683015046,82.57871241697275L246.75230053168403,74.56907151537315L246.8977904188368,106.82540920017459L247.22037738715278,127.28917963885253L247.2620363389757,117.59934183110583L247.6270392433449,81.11415107339494L247.77150534035013,87.3719199019066L247.8146348271123,61.85412055953699L247.9854216380932,69.53072591247782L248.92952988823785,136.94139283670543L249.05844057978877,127.11087130173173L249.16473481626156,79.79907952942924L249.5074377097801,51.5732088041214L249.6570599862558,60.19632821988496L250.36011219256366,117.57793385810508L250.48768885452836,107.11882135288032L250.55123830114294,88.11575440774051L250.5728247612847,113.42002596980157L251.21799249312787,130.89589996651318L251.62376706452548,131.12833261201098L251.82094284215856,166.3468795162994L252.05655728624134,145.3992971624467L252.70083773328992,127.269409087034L252.82709277524594,124.30241033240074L252.84861718749997,141.1239573407407L252.89162878327545,177.34981785108064L252.97554234664352,130.86936584645147L253.95171074037907,89.05907444675952L254.16731474066842,93.40408532929544L254.53197017686634,113.92851093478278L255.01973482711227,124.1883384887415L255.23512786458332,137.76243032837144L255.34356895797166,85.09407864704269L255.45044023980034,110.13270767149056L255.7027579752604,120.26800708542304L255.8771497685185,116.82731701475409L256.1934202618634,129.98394739354868L256.57974282045717,99.72440360620745L256.6433853389034,77.32345393082578L256.70727604890044,113.70467786062405L256.9826693938079,163.0320976380624L257.19953296621816,131.07386516357164L257.2427058865017,122.32524879470284L257.625541353805,137.2779470902372L258.57540144314237,117.61042325625944L258.7902484592014,103.19972798186627L258.938176828342,108.86383557890711L259.0450605197483,89.06670499190604L259.38852039749713,99.16317322459776L259.5349472077546,59.058060852330684L259.556136561415,58.86948249795536L259.7709339391638,86.80467705761484L259.813349875217,51.14183710119192L259.9414849681713,34.15356762469443L260.474960297309,116.49954475915818L260.6215174081308,156.87884410593736L260.7491188892506,174.98102811797747L261.27058795211224,167.12501677169973L261.7251631872107,182.91722421821703L261.95959251663777,163.00029254541855" style="fill: none;" fill="none"></path></g></g></g></g><g opacity="0.2"><g><g><g><path stroke="rgb(255, 112, 67)" stroke-width="2px" d="M23.25143454680266,-122.66487514972695L23.572054597077546,128.5573948323727L23.59389545355903,-92.93662717938432L23.762454745370373,27.821827322244623L23.891743929036455,-119.71627584099778L24.146009968171295,-66.814113020897L24.449095285373264,10.578475534915905L24.535943713831017,-56.78302010893826L24.98571644241898,11.783947438001613L25.028988639322918,-23.988540083169976L25.674367333984378,-52.08522713184361L25.719817411747684,149.38353413343432L25.761681121600112,61.720894664525986L25.933243531177663,13.00221124291418L26.342505193865744,168.6507757902146L26.599023571325233,-101.2729909121991L26.641445712167243,-34.765519559383435L27.15712570710359,125.14578142762188L27.47854617513021,44.62260568141937L27.502732441767943,-25.479521960020104L27.802814641203703,30.51208296418188L28.05745296766493,71.48902827501297L28.125631186704283,-46.1013864576817L28.299656897424768,-51.26812791824345L28.36463344545718,23.259074628353098L28.5762229474103,40.38584867119789L29.028372110098378,79.90860530734064L29.093658897569448,-18.217809855937997L29.155806061921297,-103.30360642075547L29.66719234302662,138.43050116300586L30.186979908130787,57.81369397044182L30.314953676576966,38.35853004455564L30.357251721643518,-13.207604348659554L30.618436100260418,19.875946283340433L30.789942666739005,169.2364338934422L30.87319231770833,0.2562020123004717L31.12775618670428,64.89025318622589L31.407033729383684,25.77565053105352L31.857166335720486,78.48211044073105L31.8793236364294,104.36276534199716L31.919716811342592,71.02561855316162L32.07043733543114,-0.48849767446521875L32.47950664966724,-9.52208599448208L32.693094093605325,99.83825647830965L32.80160343967014,-34.75905767083172L32.82338224826389,30.93421572446821L32.95181517107928,-53.05490604043011L33.44310414134838,105.33455425500871L33.48690374529804,12.812706470489482L33.50852122938368,10.642830669879894L33.59433345811632,30.362800151109674L33.93867441587095,-11.012144744396249L34.04218890697337,45.06333285570145L34.08135353370949,116.95302987098698L34.339410698784725,13.660532623529415L34.424968531177655,131.12777584791186L34.54982749565973,102.00523102283479L35.145214207175925,-84.95711794495591L35.274962545211224,261.01239511370665L35.98071383463542,26.510723322629907L36.15197841435185,37.05230543017385L36.27790460250289,30.34605199098585L36.29940419560185,110.74566060304646L36.59961049081308,74.604317933321L36.796569100839115,4.66558375954626L36.96958343098958,-134.98716911673554L38.22003451244213,-82.98347255587586L38.30340205439814,39.06722778081892L38.71358202582465,106.17710539698602L39.13639494719329,56.196903079748154L39.37071879521123,3.393514841794948L39.39165375253183,20.305068433284738L39.51727590603299,56.20507934689522L39.64575226236979,143.19014364480975L39.98710251193577,51.3421785235405L40.008384937427664,64.98269775509834L40.05143996672454,26.844367772340753L40.30838647460938,117.4246158599854L40.58823485785591,-8.325185984373132L41.1229201208044,6.4763631820678516L41.309920044849534,44.070180147886276L41.41543868272569,33.42164719104765L41.73746722005208,98.33988958597185L42.058068655960646,130.13185375928882L42.678200065104164,147.2391102612019L42.93432133608218,79.00380903482439L43.08376367368345,141.82035514712337L44.15757682834201,127.8955128192902L44.22246030454282,200.69778674840936L44.2661854510272,120.3726876676083L44.49874713903356,-15.807921051979104L44.65200542173032,160.5258081257344L44.73523645833333,78.41973343491554L44.7754062608507,138.50553819537166L44.96649514069733,-46.32728880643849L45.63638895580151,22.008369505405405L45.94042981047454,-31.49936458468441L45.961395791739,126.58111193776135L46.0905670844184,90.55278638005258L46.284404685691555,182.68349209427842L46.53886307327836,124.10014235973362L46.62588523582176,88.83471527695657L46.66725876736111,129.5691419541836L46.773776376229755,-65.00992736220368L46.816223336226855,31.94780910015104L47.03061119791667,52.11589077115059L47.11656613679108,25.40982851386068L47.26885647243924,106.3375976085663L47.570409206814226,88.99362498521806L47.676095373987266,-34.99933442473416L47.697843158637156,21.178478389978387L47.95148871889469,192.94035547971734L48.16171937210648,103.42987963557245L48.20389952618634,92.63865762948991L48.374959347873265,169.3241309523583L48.56877833478009,81.60175198316576L48.58931618561921,111.47202962636952L49.10025572193287,160.44747421145445L49.24763186487269,46.537698447704315L49.69030631510416,28.925491511821726L49.797810485387735,107.14572930336L49.81963893229167,23.57148715853689L49.85956674804687,73.21250626444817L49.92312239945023,212.25362160801896L50.007637827329276,16.98550397157667L50.13451955295139,94.9551787376404L50.22230490451389,78.73742097616197L50.329256848596636,79.42435929179193L50.80199350043403,139.7935640215874L51.37604814814814,-13.319170832634011L51.79913408022281,100.54260233044626L52.12401061559606,97.28976675868036L52.20842676685474,35.69715508818624L52.44383645290799,153.82258781790736L52.46600616319444,-2.3446421921253595L53.60675657913774,115.66909217834477L54.05737315899884,-24.010299503803292L54.07951805013021,39.341000854969025L54.461776472077545,-107.95366054773339L54.48359250940394,-1.5537861585617458L54.824719386574074,72.8061985373497L54.86680646882233,40.864555925130844L55.251832226562506,216.22148492932328L55.422147473596645,-23.742856442928353L55.59043995949074,23.422731846570947L55.65468434244792,-72.58853575587281L55.71990287724248,30.85152992606161L55.97521752567997,-133.98676326870927L56.398669540292246,186.9784061014653L56.46331723451968,67.1683985888958L56.761345648871526,10.660370081663112L56.82400160590278,126.70850345492367L56.93478810944734,55.169330924749374L57.19192696578415,-81.31788781285294L57.42917947410301,-3.7803683280945215L57.53842719003183,98.46253359317781L57.581078908058444,77.5137502849102L58.0877929832176,48.302585273981094L58.25972768012153,68.55427587032318L59.0066601526331,103.25118863582613L59.19952980685764,104.1960749924183L59.32916025390625,81.66729399561883L59.69141443684895,48.70506861805916L59.734686633752894,77.29958483576775L59.79512748119213,72.08642327785492L59.879816643156836,9.349134206771831L60.03031379484954,37.986114263534525L60.86192922453704,120.76290661096577L61.508331709346066,5.077034622430782L61.550400177228006,154.87046876549724L61.81185136176215,20.31153032183645L61.87544424189815,37.98202612996099L62.04843995768229,157.18751737475398L63.05481946795428,75.82812049984932L63.14115910373265,125.54167100787167L63.33438243091725,89.27649745345117L63.482379052734366,164.17070889472967L63.932679188368056,77.55212599039078L64.16872176287616,217.907774090767L64.23245114836516,30.918654441833475L64.35994094328704,39.29167950153349L64.3817631854022,47.3321151137352L64.70039149848091,16.038507610559442L64.95386952944156,159.6290562450886L65.03639322012442,80.3501237332821L65.14436274956596,46.440770119428635L65.18654290364583,-37.852324157953305L65.465826651114,57.521458357572556L65.48702841435185,288.449112340808L65.59456360857928,137.5299248993397L65.82715632052951,-92.35835409164437L65.8706705041956,184.7473401725293L67.80922025101273,57.34645986557007L68.00110334382234,179.61660066246995L68.21297826605903,85.84404775500299L68.70906353804978,-101.04814356565484L69.00354901801215,25.124846041202524L69.02468873336227,170.9277343153954L69.110060422092,80.2835267186165L69.131231161386,48.60668966174126L69.27572828233508,-37.608618646860165L69.53086919668694,-2.6476915776729975L70.1762416865596,92.96860957145692L70.70118543113425,-65.50802028179177L71.02358625578702,53.97823342680931L71.15287543945313,75.49843230843544L71.668431338614,74.93453362584114L71.77519093424479,111.96867191791539L72.56244212420428,-75.70725417137155L73.37386717122396,193.7701147198678L73.86263079246238,12.61594855785368L74.2270070131655,31.44971618056295L74.86807337962964,105.17129266262056L74.97557134512442,75.10834524035454L75.86885617042824,128.51229348778728L75.97665196578416,45.52014881372452L76.513707458044,-41.06665214896206L77.1706953125,-34.80099400877957L77.4439418004919,64.27109876275063L77.5536796947338,58.36058074235916L77.85251473162616,-53.29505091905598L77.89487482458044,109.5614206194878L78.08573412724247,19.912607610225656L78.12957716471354,111.71191075444226L78.89461521086517,63.65260371565819L79.12580564055267,65.78080692887306L79.14715631872106,88.95973303914072L79.36012328378183,41.30370059609413L79.5943664695457,-67.93096473813065L79.74307664207177,101.15621799230577L80.02129937065972,9.17453134059904L80.19034884078414,84.17595738172533L80.35820078667534,33.843252450227716L80.44437289315682,73.713104814291L80.53255535120081,90.69020041823389L80.93212513382522,175.13376438617712L81.09913322844329,174.04671648144728L81.18802923719618,90.34350031614305L81.33742193648726,87.35296466946603L81.40254119466145,154.69665715098384L81.44414430338543,172.14982250332838L81.5061239384404,96.13717684149744L81.59179345703126,167.75943079590803L81.78027632559316,55.0283562541008L81.90666787290219,-15.134434014558831L82.01373150318287,24.614224970340707L82.09972367078993,62.62226217985153L82.3571045138889,-9.021091818809548L82.37854205910011,69.02427935600281L82.46205851598668,1.1644270420074267L82.57221833586517,85.21882706880571L82.59334564163774,81.26652503013612L82.86821157949942,58.53201860189438L82.89010827907985,41.617827504873276L82.91140311414931,202.22371557354936L83.12495953414351,223.14981633424767L83.1892039171007,145.3418206572533L83.40196612413195,212.55179160833367L83.55294724934896,82.81698265671731L84.39342932219328,110.12742930650715L84.86381435908565,191.75558799505242L85.0772715024595,143.14873480796817L85.43964357638889,146.97324970364573L85.46113075991029,96.08310797810556L86.65272321506076,10.471788436174373L86.7161919994213,123.89956006407742L86.99504141167534,77.98863315582275L87.3753329155816,67.10641720890999L87.4391553729022,1.3048742115497394L87.59132781756365,56.702644765377045L87.65548533347801,234.8617915213109L87.82829490559897,72.03934380412102L88.10683407841435,173.383251965046L88.31815056966147,51.279933393001556L88.8103082103588,62.339653462171555L89.12847736906828,6.683539241552333L89.40720268554688,68.92062538862228L90.17832142469616,71.55074590444565L90.19951698314524,267.4830533713103L90.606544921875,91.90226608514787L90.63087389865453,-6.729099512100259L90.65246656358507,44.86486056447029L90.86432907624422,111.4430170655251L90.95084244610821,76.51057505607605L90.97216210033274,28.120524823665598L90.99319012948496,44.71729212999344L91.0986653338397,218.5447316765786L91.14108747468171,198.06252309679994L91.76986835937501,156.7081507444382L92.3736253309462,48.73579555749893L92.4821098578559,30.50496169924734L92.7843140950521,128.0428175032139L92.9363128056279,150.1481469869614L93.04565359338831,29.26098221540449L93.32666227213542,144.8923897147179L93.39185598777489,18.783755242824533L93.58404311523437,142.13962519168857L93.8372915690104,78.30355131626129L94.34973266420718,180.3069677352906L94.4141259620949,37.00878658890722L95.22271542064526,84.0493571162224L95.94733547272858,58.69026893377304L96.28488839156539,81.56311252713205L96.66786656901041,45.085356026887894L96.77674820240163,70.2206518650055L96.8819566008391,84.66943466663362L96.9038905291522,211.736670523882L97.07329987702548,161.13652253150946L97.30904462167244,-23.450488954782525L97.60833260814526,119.34155488014225L97.78052790617767,16.516555488109567L97.94992484447337,255.26144617795953L98.52497225839122,66.45495334267616L98.99492916485822,99.68554490804674L99.01637291485822,91.29128792881967L99.03683630823205,66.0711962878704L99.42997792968748,193.71710085868844L99.47262344292535,164.19879832863813L99.62464697265625,138.91896718740466L100.18363018844039,-27.16449236869816L100.56614921151619,125.16780459880833L101.02990132921008,-15.188371002674142L101.09355005244502,80.54543101787569L101.2444194914641,-70.07644361257562L101.50261936668113,101.57663637399675L101.76081303710939,51.32463911175728L102.03880618851272,215.11531510949143L102.05933783456308,116.8675746917725L102.10278997034143,4.399855077266674L102.39808207284432,123.67814147472386L102.91202472692419,121.57486268877987L102.97490405635126,105.61162421107294L103.01996943721065,-60.97322514653214L103.12791414749711,-33.55332201719288L103.21144301396122,96.69144862890245L103.2752964952257,157.6685983836651L103.68332960973669,91.8317128121853L103.89683639142072,163.24679070711142L104.1484591905382,35.37063190340994L104.25699956054686,25.856490075588205L104.85181543149595,83.47029277682306L104.87329641022859,-36.907174050807996L104.91874028320315,2.866673111915569L105.02525168728299,158.1455912590027L105.04706772460938,237.04828360676774L105.19602608868634,112.96287962794308L105.23820624276621,12.741757571697216L105.64867783926506,26.453885078430154L105.66979894024885,40.40101432800293L105.75383659939236,130.78213074803355L105.81842845052083,152.73738616704944L106.30873085937498,60.27303600311279L107.31712072120949,39.77289238572121L107.36255218460646,4.560611039400081L107.5803154513889,29.47501578927038L107.77381178927952,270.8871498852969L108.47762718460648,-62.64988741278656L108.67305941659433,69.61468496918678L108.75768032588253,80.42041325569154L108.88742245912906,53.78200301527977L109.14075157515913,156.06591814756396L109.20555438910591,256.8700608015061L109.56929772135416,117.36514011025433L109.84418847837097,113.57873716950421L110.03467549370659,14.75667992234228L110.1648643717448,1.4615420401096149L110.82721936848958,48.89272713661194L110.86979042426215,126.52453744411473L111.06172936017072,12.772880136966686L111.29810078848381,133.10748749971393L111.42588841326679,177.85171383619317L111.5769626103154,69.7064701616764L112.36038544560184,38.1313089430332L112.89384216037325,23.97106924653051L113.02653777307583,23.429325610399225L113.15204203559027,63.28401231765747L113.21424504304109,115.71960040926938L113.68516369176795,12.126427531242351L113.89497862413194,37.460723161697366L114.4317300817419,29.83463966846464L114.92710800781249,142.63877311348918L115.24978804796007,156.2556866705418L115.54702845413772,196.32585757970818L116.08356274414062,222.353817164898L116.14708737160011,81.2857788205147L116.21335451569733,197.70843797922143L116.32216789641203,105.44427448511125L116.8313018391927,31.19361439347265L117.61851580041956,208.3498496711255L117.72666526873553,264.7130131870509L117.83429973958334,145.2927630543709L117.96062923900463,87.91448959708215L118.86023674406829,18.040242433547952L118.92409022533276,162.64016443490988L119.27041051070601,260.2810807675124L119.44207219690394,121.56800517439846L119.52648214337383,29.950689911842325L119.84985091507522,83.8280704021454L119.89294937789352,89.2182085812092L120.12345728081597,-3.121255695819894L120.29799798900463,35.26697793602941L120.5324521375868,124.39396047592167L120.78711528320312,119.4547038674355L121.27996165545427,142.92626121640208L121.40889096137153,4.195975899696331L122.04808348162615,55.151264011859894L122.26332760416666,40.517987698316574L122.61256414026332,125.88309609889988L123.15678616355613,22.543123751878717L123.24400067455151,96.93291226029397L123.37742845232928,16.272849977016428L123.54902188585069,84.85076317191125L124.06587458586517,119.86707785725598L124.12784181134259,74.39160311222076L124.19260739655671,215.34464621543893L124.98022466905383,70.43574044108391L125.08650649594908,169.54937392473227L125.17305709454571,101.59958267211915L125.19339018735533,-18.721573412418405L125.36054099211515,147.49969580769542L125.59706754014756,21.839964777231195L125.76702290943287,72.12506273388863L125.85189821506077,124.83099514245991L125.89391704463252,92.95753204822542L126.02238719618056,114.33425062894825L126.19400544885707,30.082301437854746L126.214630166739,218.37830507755288L126.40637054940683,5.089562773704509L126.70024796006945,-17.44185572862629L126.8480770525897,74.87505787611008L127.31969063765915,127.50292012095456L127.46674413158277,5.687749028205852L127.59659174623843,103.70431208610536L127.68554980287904,66.15348646044731L127.70669572301793,32.887156695127466L128.27980103804978,9.203148275613765L128.34339391818577,23.38000425696371L128.40579547887734,137.64162325859073L128.4913905400029,187.2666854560376L128.8260768464265,87.42233106493951L128.86894573206018,-5.258558303117791L128.91213726671006,114.13142645359044L128.93354999276622,115.68214783072476L128.95459663628472,-1.515806078910867L129.12375779260705,58.42493587732315L129.93214249312788,102.48960891366006L130.46780811270253,-21.51798865199093L130.79361536639178,133.70725625753406L131.19642404875577,109.38154274225239L131.28463753074362,55.41910269856453L131.43482444299767,98.63740020990373L131.5209158872251,36.882054448127725L131.62796710792824,146.07662969827655L132.2883924153646,-29.340302556753198L132.520761754919,87.3484809100628L133.20059564163773,179.19196227192887L133.71110704752604,184.8951723575593L134.00858944046587,87.35322842001916L134.11079472113715,151.56923496723178L134.38931527958624,73.32802900671959L134.41024403211807,38.32503372430799L134.57580641095194,0.8292000889777941L134.61883662109375,33.94611516594885L134.72472134150752,-21.912163853645364L135.519467916305,113.37986925244336L135.6033442509404,105.22035026550294L135.68929918981482,189.99914118647584L135.9226178620515,57.47477450966835L135.94447733289928,130.42580375075343L135.9859997793692,55.703557670116425L136.00639492006655,92.49214419722558L136.69047288230612,129.85293754935267L136.92300354636865,118.67123284935955L136.96671628327547,72.97038325667381L137.07356895073784,154.9146469831467L137.11650608904804,146.2559800744057L137.2235200810185,213.12953719496736L137.3488381998698,181.96450808644303L137.4989754738137,100.80859476327898L138.03395236183448,4.283013582229595L138.35723426649307,108.25110787153248L138.55108427734376,92.58656689524652L138.61572576678242,114.97292259335522L139.2582316442419,-34.95779371261601L139.74936549479165,76.47430935502052L139.76903467520256,130.7681519687176L139.8327950846354,126.54629686474804L139.87560812717012,107.92392531037332L139.9616002947772,94.37413626909257L140.08821521448206,126.39701405167584L140.67977357132523,73.05597031116486L140.85058520146123,69.62892749905586L141.34127230721933,83.2331810295582L141.52890511971935,-125.07159894704827L141.55013790690103,132.506136238575L141.846795062934,-34.58630105853085L141.99427048249422,89.01459315419199L142.43896769386572,28.428585469722726L142.58775232385707,5.442197263240795L142.6289148925781,154.22164240479472L142.69287385525172,206.15992882847794L142.73781514033567,43.08111557364464L143.69540639648437,219.72066351771363L143.80250105070888,-61.24462446570404L143.82362215169272,110.35834291577343L143.97406346028646,49.79475402832031L144.0606636971933,146.75644674897197L144.10093898111978,98.56922069191934L144.56948119574653,-2.354796588420907L145.03331397569443,40.87365531921387L146.0871415057147,96.31059283018114L147.1358314706308,28.385857880115488L147.42915665509258,98.69133719801904L147.85787653537326,45.49285063147545L148.62589288013598,83.10829514265062L148.7730828794126,57.63051921129227L148.9878492332176,144.38071364164355L149.2438029748987,202.17861422896394L149.30658302770544,16.69432336091993L149.3489679398148,62.85792329907417L149.368792239945,119.19464582204823L149.85815772569444,88.55645844340326L150.03052675781248,148.11898210644725L150.93777856264467,16.066597044467905L151.6587253797743,130.9948455691338L151.931047354239,151.3930495977402L151.9514735188802,103.10757645964624L151.9962845033999,158.8243533074856L153.66040885235822,145.0619813203812L153.7680681423611,254.86324878036984L153.8322442726418,172.2906652987004L154.00586046730325,248.5231470465661L154.36532249529805,84.16751736402513L154.55290566948784,146.63314336538318L154.7040419144242,139.34386932849887L154.831587552445,137.19179669022563L154.95898427553533,-71.08291572332391L154.97883339482058,72.37035074830055L155.7238609971788,80.25319540500642L155.89344407913774,-31.296540409326592L156.3776471806279,21.201029062271097L156.42013757414642,144.78688949346545L156.4436351092303,102.05969551205636L157.0441966145833,184.10827258229264L157.12927047345198,44.03589257597923L157.17196562499998,214.72100803256043L157.59606293764466,173.95387628674513L157.70430547779225,73.19562622904778L157.74531913158273,98.75397795438768L157.7869284450955,30.503247320651987L158.33809362702547,189.07113486528405L159.11896629412615,70.49719431996346L159.24787698567707,16.102071493864038L159.4607632884838,87.0253864824772L159.54765515046296,150.62026047706607L159.63218298791958,8.274086952209453L159.93024242621527,51.65881106257439L160.1027976019965,140.35429769754413L160.69263723234954,218.5573917031289L160.73769640842016,142.70589762926105L161.14661060293693,87.49578559398653L161.3211016728154,-38.65649959445004L161.3425888563368,100.87888428568841L161.40528204210068,108.88476857542996L161.697335244864,30.65464013814924L161.99460047019676,-16.677638500928918L162.0799287254051,41.04140067100525L162.122654900897,79.82895264029504L162.39891691623265,43.64105799794197L162.63497810510708,64.97016960382462L162.65568969003183,-56.98755866289143L162.7618784450955,70.63078397512436L162.80502034143518,111.71916389465336L162.86735364945025,27.033740669488886L163.65995336733218,201.8097590804101L164.04352099971067,105.66622057557107L164.45043104745372,43.62852984666824L164.57919282407406,53.78015676140785L164.79171924913192,-12.71294018626217L165.08663906430846,123.66297581791882L165.4709947048611,187.84298041462907L165.53550589373555,172.32337036728865L165.55747084599247,116.24011212587361L166.26773301685475,58.768734723329544L166.32966301359954,188.6089120209218L166.5186732892072,42.30964520573616L166.6462623607494,123.0853621065617L166.75201678059895,144.06750985980037L167.02871313114875,75.17863476276398L167.13621109664354,80.5404197573662L167.4774000217014,34.29189214110372L167.5810634277344,136.2558778524399L167.6863338740596,207.4379321336747L167.77198477828412,116.3863618075848L168.11092756980614,133.7089706361294L168.4069890661169,291.4552092701198L169.09563375289352,114.73422834277157L169.3532131492332,146.42926418781283L169.61289596896702,-51.38787066936497L170.36474263418694,239.7343192398549L170.51606502278645,170.86588481068617L170.62106866319442,213.34093326330193L170.66649392180267,143.77210924029353L170.70884160517937,20.019162833690622L170.83791362123844,202.87346506118783L170.92211880967884,125.4439514279366L171.26479067925348,61.70797088742256L171.50302974898727,50.32911264896393L171.82346986038772,29.132140070199945L172.0182319751881,190.03672564029702L172.98805907479746,180.42750173807153L173.11556127929688,29.088225603103616L173.22034775209778,131.5778661668301L173.26113803349247,284.49839280545723L173.38812524052375,71.57448345422745L173.57962984121815,65.05074539780617L173.92539169560186,139.76455146074298L174.75698230613426,134.13980716466907L174.7972762044271,171.20730990171438L174.86036649667247,150.3813024759293L175.0934369773582,118.94447842240338L175.24173142903646,41.217322289943695L175.70434807038484,169.60238778591162L176.04377483543115,165.05968013405806L176.6541461118345,152.3221109211445L176.7647837004485,109.5744762718678L176.80878806242765,61.77127102017403L176.87325581778066,44.47622412443161L177.23349964916088,192.79107266664514L177.44851419451678,174.91577455401426L177.46753187210646,36.08565965294836L177.78433597728588,-88.53647670149812L178.70387946867766,-36.034950971603436L179.1926244755498,98.89231511950494L179.34331397569443,81.58711382746698L179.4077258879485,48.26974833011627L179.53199539749713,193.92098003625878L180.33488265516496,152.30694526433948L180.61455730432579,-16.1712374389172L180.63614996925637,181.91123047471055L180.67798265516495,26.256995290517786L180.80771858362272,167.8372372090817L180.8727447699653,90.52535632252695L181.26380158239294,32.42625260353086L181.64712102322048,26.462852597236612L182.15384750795715,39.06946966052053L182.24178797923904,59.149063020944595L182.49473860315393,112.8112230598927L182.68595157877604,52.867843598127365L183.277652645761,171.5230193138123L183.40182287868922,152.87585520744327L184.21276395218462,156.0531262457371L184.29963719979744,162.2366260886193L184.3420965693721,48.38434794545174L184.6213244737413,75.72288402915001L184.72732088035303,129.5821976065636L184.83126350188078,150.36890619993213L184.91623808412902,178.01550292968759L185.12851011284724,20.289770901203134L185.2991604184751,-3.9263542592525873L185.97985677083335,155.24552205204967L186.1306455475984,72.94677758216858L186.3651555392795,263.23924103379255L186.3865806749132,57.74630570411682L186.45116011646414,28.298556447029092L186.51542311378762,48.39766734838486L186.98503875687211,23.443172514438608L187.0703732168692,94.76752021908761L187.10985428783275,37.94971668720243L187.370070719401,191.6396696269513L187.87540733145252,47.21316361427307L188.128233859592,104.06446346640588L188.29442292209202,154.2554024755955L188.42237807617184,205.65497839450845L188.65958094618057,164.4779782891274L188.8256645272714,131.6072743535042L188.86866371346932,180.3870160281659L188.99467056387445,101.83814504742624L189.12600732783565,27.495040386915186L189.72134440104168,64.69428652524948L189.87092944878472,112.673017770052L189.9136370099103,147.34764361381534L189.95559999638309,130.25080525875094L190.01996847511575,3.3783491849899097L190.6789542715567,157.45720231533053L190.69724598885995,53.42633539438248L190.80110174334493,187.22514474391946L191.10045177770542,10.187201589345912L191.14349439742477,59.004132091999054L191.1648140516493,-12.324303746223489L192.89223965567132,201.24480539560327L193.44837487340857,133.8479671776295L193.4687886284722,139.52229657769206L193.53202163085936,104.50796002149583L193.55607759693285,-5.761926233768502L194.26428598271124,121.18174248933796L194.2858290093316,112.78010049462323L194.84122585720485,110.78680568933491L195.2027354654948,240.07257932424554L195.28907510127314,96.94530853629114L195.46164889142074,37.81876453757284L195.5660134385851,30.58764749765394L195.5860487015336,10.613422483205776L195.7146801775897,0.30605086684225025L196.13981368995948,72.83178234100342L196.41525667317705,-58.4699686467648L196.5407919596354,149.90325459837916L196.88010083369502,139.3705081343651L197.07094152199076,168.26556810736662L197.113903479456,175.5101364254952L197.13523554325806,84.8379712700844L198.3516843822338,-21.457985401153604L199.1997238878038,130.85650840401652L199.5166272696036,41.37201198935509L199.53858601707174,137.36178392171863L199.58121912073207,72.87675181031227L199.88379564525462,189.77403008937844L200.05473757595485,127.87269839644436L200.53840706561056,171.8982044756413L200.5600865975839,151.64097511768344L200.9384173882378,-56.51702767610554L201.4956136248553,135.59228146076205L201.66605296766494,77.94432306289673L201.92276989836515,167.52535218000418L201.96508035300926,100.75188839435579L202.36903071650752,-3.4591201543808374L202.3887681495949,2.728072196245174L202.83665462239586,56.75644987821579L202.98479395435479,114.56674674153332L203.1589809895833,125.70242697000508L203.17995317563657,105.23577967286111L203.4960375253183,230.7521622776986L203.77231195023145,60.01482421159744L203.79293046332464,71.17556074261665L204.32683392288774,172.05104792118078L204.79237301974828,46.388020008802414L204.92222063440394,197.94845098257073L204.9842685221354,44.085345804691315L205.00602871636283,-61.08518725633629L205.08995468930846,283.46205094456684L205.19560983253763,40.34496733546257L205.30162485351562,55.064621955156326L206.3280210123698,108.64040368795399L206.38978968460648,216.03831017017373L206.6228973940249,79.5580808222294L206.8182737829138,133.52592775225642L207.18328909686053,65.67833983898163L207.62092525860822,187.4650258719922L207.91851933774595,70.24003753066063L208.02598007450808,182.36052954196938L208.45543211986399,-16.270012021064797L208.90375292787903,82.80339950323106L208.99055792281538,-38.82068431377415L209.63175458984375,134.9784020483494L209.91061641167536,157.55043813586238L210.27615913266786,44.49943417310715L210.4655541051794,180.36393785476693L210.85495423900463,204.0273737311364L210.98345541449652,173.1052588820458L211.00365200195313,64.26450499892235L211.1722981608073,76.6661878824234L211.9811482204861,116.23180398344998L212.08674752061634,81.75143042206766L212.34329692201968,184.27008354663857L212.38871597583912,153.85476538538936L212.40924762188948,171.60108947753912L212.53504350947628,176.49761849641806L213.2135868001302,252.71664896607408L213.297698916739,29.56126222014425L213.96247378110533,58.621957540512085L214.0883875596788,175.09143242239958L214.36641173502605,88.03845235705377L214.47400277235243,107.7884894013405L214.60347809968172,132.9750847220421L215.29984154369214,118.61690023541455L215.47114955692996,124.55023267865185L215.5136709743924,121.51525506377224L215.98721424877024,210.8255442380906L216.02905313946758,22.03131580352781L216.2415051070602,240.12256005406388L216.47912990270544,98.04686272144319L216.56525237087672,179.6289969384671L216.75941882595487,59.0265508890152L216.93420772569445,84.11489912867548L216.9999102340133,110.35333165526394L217.21557628219043,52.71829703450203L217.9047049424913,123.58029001951222L218.0105462293837,139.08935004472735L218.16155217375578,164.69979250431066L218.3972410753038,200.3665160536767L218.52684670319732,68.92563664913177L218.67475645797165,64.99192902445793L219.0180736255787,86.61644124984743L219.10461181459783,153.22611594200137L219.5126511338976,65.03755787014961L220.07443270941843,53.32215392589569L220.15955620659722,108.58185106515889L220.35116008391202,253.49847154319295L220.47854439742477,191.2089649736882L220.49994471390335,132.57418388128283L220.5880403049045,99.11215120553972L220.92747947952836,45.53333634138107L221.50405947627314,143.66331213712695L221.84086161566842,4.491112768650035L222.03476746961806,38.154518991708734L222.18487371961805,7.811336606740932L222.2928680682147,50.36814773082733L223.5641300112124,347.71656507253664L223.64985537290218,85.31259039044382L224.31955063476562,132.3641065657139L224.49278833731194,68.72465872764587L224.514449254919,139.9704087674618L224.5572188639323,218.96343567967423L225.07325873661748,178.51610147953042L225.13711221788193,108.30372610688214L225.20308153211806,229.36377936601647L225.3516489945023,223.7159568965436L225.41607952112267,49.657999366521835L225.52321760886866,193.59313809871682L225.60976820746527,-55.864376932382626L225.80642278284145,68.54372584819794L225.82712195818866,7.904704302549343L225.91244400860822,91.32781738042833L226.08514809932,148.55074176192286L226.46937343930844,80.6587118804455L226.4909909233941,164.79949021339422L227.30267657154224,61.24812179803848L227.55964789858217,139.06363436579707L227.60058089011864,78.78568732738496L227.7540067021123,261.719246596098L227.97089509367765,234.46537443995484L227.99263046874998,44.96864640712738L228.07743131691262,86.35242694616319L228.11962388057,29.570361614227274L228.20804212058735,85.94255858659746L228.27220584129049,67.40814784169197L228.4652988679109,177.17967742681512L228.61379807761867,54.478831976652145L228.76489088903358,96.8826677799225L228.89722662398728,101.10241287946702L228.91955145399308,44.03866195678711L229.04521083622686,102.05336549878122L229.15116380931715,157.47711548209193L229.36479468677663,88.3897680938244L229.58070272171585,-46.64352571964268L229.70792571072047,132.60965833067897L230.03090358072916,138.96644228696826L230.71800947989007,106.49743044376375L230.78366234989872,-10.847036898136178L230.8256749746817,37.57176214456556L231.10678913483798,224.9379132092L231.28111888020834,145.0547281801701L231.41146908275462,180.17654308676728L231.45414561993636,82.26468899846078L231.79616598668983,181.5757397711278L231.81769660373263,273.1808565706015L231.83930167824076,162.22765856981283L231.88197821542246,76.35140159726143L232.47523047960073,124.34305661916737L232.56409546440972,85.46662071347238L232.86141032805267,172.03522288799292L233.05260468930845,172.26811462640768L233.24862637622974,73.73671048879623L233.46239996383102,156.8960730135441L233.56729191804112,61.48576104640961L234.03120536024304,185.9463501870633L234.20012452980328,34.56091770529745L234.32561638274015,-37.428345143795056L234.60395079752607,227.6624564230443L235.305085724103,69.09707450866699L235.62694673213252,70.88095137476921L235.69163785988135,198.26877602934846L235.7127713704427,-43.846582978963895L235.77622774522567,36.24443748593328L235.96722975802953,167.71367007493978L236.05245873661747,93.17341187596323L236.1384819281684,37.40836867690084L236.3936538664641,303.16461288928997L236.41546990379052,112.3223614096642L236.56530934787324,190.96143507957467L237.0759572591146,150.46108701825145L237.11726253797744,138.7840587794781L237.43354544089985,42.595287054777145L237.45503882921005,1.6788724958896442L237.58515945457177,129.20991370081904L237.64887643048323,78.33348700404167L238.0911847981771,144.70420369505885L238.44032205765333,-80.71482217311868L238.50420035807292,315.2204528599979L238.6520666793258,60.698070019483566L238.97112312282985,57.46738949418068L239.2056145001447,61.28966251015663L239.48077826786746,141.6429829001427L239.75991310040513,142.65103751420978L240.12007626953124,139.82600533962253L240.27116908094618,76.98809543251991L240.67096223596644,85.34832859039308L240.69264176793982,167.98612439632421L240.84371596498843,278.27282474935066L240.9066449327257,93.96308103203775L240.969108541305,82.44509437680246L241.1597444715712,138.20130193233493L241.18126267903645,36.523617446422556L241.5828117892795,17.410142362117746L241.75273613462096,148.50550854206088L241.83804577546294,110.10184550285344L241.85909241898148,269.5766393244267L241.88003978587963,152.89352649450305L242.0060528410735,140.93098828196528L242.0929384982639,141.8982934355736L242.3687661783854,-54.80080282688145L242.47344716977722,-8.269930243492166L242.49478543836804,85.2900397181511L242.557832297092,57.67733493447304L242.66479044596352,-118.43365690112122L242.79058633355035,76.58627146482468L244.28237887912326,156.6908750832081L244.8527106535735,-65.89560171961793L245.7686677770544,98.82888311147691L245.85600638382522,95.43691912293436L245.8771336895978,34.58610588312147L246.13282683015046,123.69779089093213L246.75230053168403,62.554610162973404L246.8977904188368,155.20991572737697L247.22037738715278,157.9848352968693L247.2620363389757,103.06458511948587L247.6270392433449,26.386364936828592L247.77150534035013,96.75857314467432L247.8146348271123,23.57742154598234L247.9854216380932,81.04563394188882L248.92952988823785,238.05739322304734L249.05844057978877,112.36508899927144L249.16473481626156,8.831391870975475L249.5074377097801,9.234402716159801L249.6570599862558,73.13100734353065L250.36011219256366,203.6503423154355L250.48768885452836,91.4301525950432L250.55123830114294,59.61115399003029L250.5728247612847,151.37643331289294L251.21799249312787,157.1097109615803L251.62376706452548,131.47698158025744L251.82094284215856,219.17469987273225L252.05655728624134,113.97792363166813L252.70083773328992,100.07457697391511L252.82709277524594,119.85191220045094L252.84861718749997,166.35627785325056L252.89162878327545,231.68860861659059L252.97554234664352,61.14868783950806L253.95171074037907,26.343637347221353L254.16731474066842,99.92160165309907L254.53197017686634,144.7151493430138L255.01973482711227,139.5780798196793L255.23512786458332,158.12356808781627L255.34356895797166,6.0915511250495715L255.45044023980034,147.69065120816234L255.7027579752604,135.47095620632174L255.8771497685185,111.66628190875058L256.1934202618634,149.71889296174052L256.57974282045717,54.335087925195694L256.6433853389034,43.72202941775322L256.70727604890044,168.27651375532156L256.9826693938079,237.02322730422028L257.19953296621816,83.13651645183565L257.2427058865017,109.20232424139981L257.625541353805,159.70699453353885L258.57540144314237,88.1091375052929L258.7902484592014,81.58368507027627L258.938176828342,117.35999697446827L259.0450605197483,59.37100911140442L259.38852039749713,114.30787557363514L259.5349472077546,-1.0996077060699856L259.556136561415,58.58661496639252L259.7709339391638,128.7074688971043L259.813349875217,-2.352422833442727L259.9414849681713,8.67116340994833L260.474960297309,240.01851046085366L260.7491188892506,202.1343041360379L261.27058795211224,155.34099975228312L261.7251631872107,206.60553538799294L261.95959251663777,133.12489503622058" style="fill: none;" fill="none"></path></g></g></g></g></g></g><g transform="translate(61, 177)" clip-path="url(#clip_1)"><clipPath id="clip_1"><rect width="268" height="23"></rect></clipPath><g><g><line x1="0" y1="0" x2="0" y2="5" style="visibility: inherit;" fill="rgb(0, 0, 0)" stroke="rgb(204, 204, 204)" stroke-width="1px"></line><line x1="22.337239583333332" y1="0" x2="22.337239583333332" y2="5" style="visibility: inherit;" fill="rgb(0, 0, 0)" stroke="rgb(204, 204, 204)" stroke-width="1px"></line><line x1="44.674479166666664" y1="0" x2="44.674479166666664" y2="5" style="visibility: inherit;" fill="rgb(0, 0, 0)" stroke="rgb(204, 204, 204)" stroke-width="1px"></line><line x1="67.01171875" y1="0" x2="67.01171875" y2="5" style="visibility: inherit;" fill="rgb(0, 0, 0)" stroke="rgb(204, 204, 204)" stroke-width="1px"></line><line x1="89.34895833333333" y1="0" x2="89.34895833333333" y2="5" style="visibility: inherit;" fill="rgb(0, 0, 0)" stroke="rgb(204, 204, 204)" stroke-width="1px"></line><line x1="111.68619791666667" y1="0" x2="111.68619791666667" y2="5" style="visibility: inherit;" fill="rgb(0, 0, 0)" stroke="rgb(204, 204, 204)" stroke-width="1px"></line><line x1="134.0234375" y1="0" x2="134.0234375" y2="5" style="visibility: inherit;" fill="rgb(0, 0, 0)" stroke="rgb(204, 204, 204)" stroke-width="1px"></line><line x1="156.36067708333334" y1="0" x2="156.36067708333334" y2="5" style="visibility: inherit;" fill="rgb(0, 0, 0)" stroke="rgb(204, 204, 204)" stroke-width="1px"></line><line x1="178.69791666666666" y1="0" x2="178.69791666666666" y2="5" style="visibility: inherit;" fill="rgb(0, 0, 0)" stroke="rgb(204, 204, 204)" stroke-width="1px"></line><line x1="201.03515625" y1="0" x2="201.03515625" y2="5" style="visibility: inherit;" fill="rgb(0, 0, 0)" stroke="rgb(204, 204, 204)" stroke-width="1px"></line><line x1="223.37239583333334" y1="0" x2="223.37239583333334" y2="5" style="visibility: inherit;" fill="rgb(0, 0, 0)" stroke="rgb(204, 204, 204)" stroke-width="1px"></line><line x1="245.70963541666666" y1="0" x2="245.70963541666666" y2="5" style="visibility: inherit;" fill="rgb(0, 0, 0)" stroke="rgb(204, 204, 204)" stroke-width="1px"></line><line x1="268.046875" y1="0" x2="268.046875" y2="5" style="visibility: inherit;" fill="rgb(0, 0, 0)" stroke="rgb(204, 204, 204)" stroke-width="1px"></line></g><g transform="translate(0, 8)"><text x="0" y="0" dx="0em" dy="0.95em" style="text-anchor: middle; visibility: hidden; font-family: Roboto, sans-serif; font-size: 12px; font-weight: 200;" fill="rgb(255, 255, 255)" stroke="none" stroke-width="1px">-1</text><text x="22.337239583333332" y="0" dx="0em" dy="0.95em" style="text-anchor: middle; visibility: inherit; font-family: Roboto, sans-serif; font-size: 12px; font-weight: 200;" fill="rgb(255, 255, 255)" stroke="none" stroke-width="1px">0</text><text x="44.674479166666664" y="0" dx="0em" dy="0.95em" style="text-anchor: middle; visibility: inherit; font-family: Roboto, sans-serif; font-size: 12px; font-weight: 200;" fill="rgb(255, 255, 255)" stroke="none" stroke-width="1px">1</text><text x="67.01171875" y="0" dx="0em" dy="0.95em" style="text-anchor: middle; visibility: inherit; font-family: Roboto, sans-serif; font-size: 12px; font-weight: 200;" fill="rgb(255, 255, 255)" stroke="none" stroke-width="1px">2</text><text x="89.34895833333333" y="0" dx="0em" dy="0.95em" style="text-anchor: middle; visibility: inherit; font-family: Roboto, sans-serif; font-size: 12px; font-weight: 200;" fill="rgb(255, 255, 255)" stroke="none" stroke-width="1px">3</text><text x="111.68619791666667" y="0" dx="0em" dy="0.95em" style="text-anchor: middle; visibility: inherit; font-family: Roboto, sans-serif; font-size: 12px; font-weight: 200;" fill="rgb(255, 255, 255)" stroke="none" stroke-width="1px">4</text><text x="134.0234375" y="0" dx="0em" dy="0.95em" style="text-anchor: middle; visibility: inherit; font-family: Roboto, sans-serif; font-size: 12px; font-weight: 200;" fill="rgb(255, 255, 255)" stroke="none" stroke-width="1px">5</text><text x="156.36067708333334" y="0" dx="0em" dy="0.95em" style="text-anchor: middle; visibility: inherit; font-family: Roboto, sans-serif; font-size: 12px; font-weight: 200;" fill="rgb(255, 255, 255)" stroke="none" stroke-width="1px">6</text><text x="178.69791666666666" y="0" dx="0em" dy="0.95em" style="text-anchor: middle; visibility: inherit; font-family: Roboto, sans-serif; font-size: 12px; font-weight: 200;" fill="rgb(255, 255, 255)" stroke="none" stroke-width="1px">7</text><text x="201.03515625" y="0" dx="0em" dy="0.95em" style="text-anchor: middle; visibility: inherit; font-family: Roboto, sans-serif; font-size: 12px; font-weight: 200;" fill="rgb(255, 255, 255)" stroke="none" stroke-width="1px">8</text><text x="223.37239583333334" y="0" dx="0em" dy="0.95em" style="text-anchor: middle; visibility: inherit; font-family: Roboto, sans-serif; font-size: 12px; font-weight: 200;" fill="rgb(255, 255, 255)" stroke="none" stroke-width="1px">9</text><text x="245.70963541666666" y="0" dx="0em" dy="0.95em" style="text-anchor: middle; visibility: inherit; font-family: Roboto, sans-serif; font-size: 12px; font-weight: 200;" fill="rgb(255, 255, 255)" stroke="none" stroke-width="1px">10</text><text x="268.046875" y="0" dx="0em" dy="0.95em" style="text-anchor: middle; visibility: hidden; font-family: Roboto, sans-serif; font-size: 12px; font-weight: 200;" fill="rgb(255, 255, 255)" stroke="none" stroke-width="1px">11</text></g><line x1="0" y1="0" x2="268.046875" y2="0" fill="rgb(0, 0, 0)" stroke="rgb(204, 204, 204)" stroke-width="1px"></line></g></g></g></g></svg>