<svg viewBox="0 0 330 200" xmlns="http://www.w3.org/2000/svg"><g><g><g><g><g><line x1="51.5625" y1="177" x2="46.5625" y2="177" style="visibility: inherit;" fill="rgb(0, 0, 0)" stroke="rgb(204, 204, 204)" stroke-width="1px"></line><line x1="51.5625" y1="162.25" x2="46.5625" y2="162.25" style="visibility: inherit;" fill="rgb(0, 0, 0)" stroke="rgb(204, 204, 204)" stroke-width="1px"></line><line x1="51.5625" y1="147.49999999999997" x2="46.5625" y2="147.49999999999997" style="visibility: inherit;" fill="rgb(0, 0, 0)" stroke="rgb(204, 204, 204)" stroke-width="1px"></line><line x1="51.5625" y1="132.74999999999997" x2="46.5625" y2="132.74999999999997" style="visibility: inherit;" fill="rgb(0, 0, 0)" stroke="rgb(204, 204, 204)" stroke-width="1px"></line><line x1="51.5625" y1="118.00000000000001" x2="46.5625" y2="118.00000000000001" style="visibility: inherit;" fill="rgb(0, 0, 0)" stroke="rgb(204, 204, 204)" stroke-width="1px"></line><line x1="51.5625" y1="103.25000000000003" x2="46.5625" y2="103.25000000000003" style="visibility: inherit;" fill="rgb(0, 0, 0)" stroke="rgb(204, 204, 204)" stroke-width="1px"></line><line x1="51.5625" y1="88.5" x2="46.5625" y2="88.5" style="visibility: inherit;" fill="rgb(0, 0, 0)" stroke="rgb(204, 204, 204)" stroke-width="1px"></line><line x1="51.5625" y1="73.75" x2="46.5625" y2="73.75" style="visibility: inherit;" fill="rgb(0, 0, 0)" stroke="rgb(204, 204, 204)" stroke-width="1px"></line><line x1="51.5625" y1="58.999999999999964" x2="46.5625" y2="58.999999999999964" style="visibility: inherit;" fill="rgb(0, 0, 0)" stroke="rgb(204, 204, 204)" stroke-width="1px"></line><line x1="51.5625" y1="44.24999999999996" x2="46.5625" y2="44.24999999999996" style="visibility: inherit;" fill="rgb(0, 0, 0)" stroke="rgb(204, 204, 204)" stroke-width="1px"></line><line x1="51.5625" y1="29.500000000000032" x2="46.5625" y2="29.500000000000032" style="visibility: inherit;" fill="rgb(0, 0, 0)" stroke="rgb(204, 204, 204)" stroke-width="1px"></line><line x1="51.5625" y1="14.750000000000007" x2="46.5625" y2="14.750000000000007" style="visibility: inherit;" fill="rgb(0, 0, 0)" stroke="rgb(204, 204, 204)" stroke-width="1px"></line><line x1="51.5625" y1="0" x2="46.5625" y2="0" style="visibility: inherit;" fill="rgb(0, 0, 0)" stroke="rgb(204, 204, 204)" stroke-width="1px"></line></g><g transform="translate(41.5625, 0)"><text x="0" y="177" dx="0em" dy="0.3em" style="text-anchor: end; visibility: hidden; font-family: Roboto, sans-serif; font-size: 12px; font-weight: 200;" fill="rgb(255, 255, 255)" stroke="none" stroke-width="1px">0.25</text><text x="0" y="162.25" dx="0em" dy="0.3em" style="text-anchor: end; visibility: inherit; font-family: Roboto, sans-serif; font-size: 12px; font-weight: 200;" fill="rgb(255, 255, 255)" stroke="none" stroke-width="1px">0.26</text><text x="0" y="147.49999999999997" dx="0em" dy="0.3em" style="text-anchor: end; visibility: hidden; font-family: Roboto, sans-serif; font-size: 12px; font-weight: 200;" fill="rgb(255, 255, 255)" stroke="none" stroke-width="1px">0.27</text><text x="0" y="132.74999999999997" dx="0em" dy="0.3em" style="text-anchor: end; visibility: inherit; font-family: Roboto, sans-serif; font-size: 12px; font-weight: 200;" fill="rgb(255, 255, 255)" stroke="none" stroke-width="1px">0.28</text><text x="0" y="118.00000000000001" dx="0em" dy="0.3em" style="text-anchor: end; visibility: hidden; font-family: Roboto, sans-serif; font-size: 12px; font-weight: 200;" fill="rgb(255, 255, 255)" stroke="none" stroke-width="1px">0.29</text><text x="0" y="103.25000000000003" dx="0em" dy="0.3em" style="text-anchor: end; visibility: inherit; font-family: Roboto, sans-serif; font-size: 12px; font-weight: 200;" fill="rgb(255, 255, 255)" stroke="none" stroke-width="1px">0.3</text><text x="0" y="88.5" dx="0em" dy="0.3em" style="text-anchor: end; visibility: hidden; font-family: Roboto, sans-serif; font-size: 12px; font-weight: 200;" fill="rgb(255, 255, 255)" stroke="none" stroke-width="1px">0.31</text><text x="0" y="73.75" dx="0em" dy="0.3em" style="text-anchor: end; visibility: inherit; font-family: Roboto, sans-serif; font-size: 12px; font-weight: 200;" fill="rgb(255, 255, 255)" stroke="none" stroke-width="1px">0.32</text><text x="0" y="58.999999999999964" dx="0em" dy="0.3em" style="text-anchor: end; visibility: hidden; font-family: Roboto, sans-serif; font-size: 12px; font-weight: 200;" fill="rgb(255, 255, 255)" stroke="none" stroke-width="1px">0.33</text><text x="0" y="44.24999999999996" dx="0em" dy="0.3em" style="text-anchor: end; visibility: inherit; font-family: Roboto, sans-serif; font-size: 12px; font-weight: 200;" fill="rgb(255, 255, 255)" stroke="none" stroke-width="1px">0.34</text><text x="0" y="29.500000000000032" dx="0em" dy="0.3em" style="text-anchor: end; visibility: hidden; font-family: Roboto, sans-serif; font-size: 12px; font-weight: 200;" fill="rgb(255, 255, 255)" stroke="none" stroke-width="1px">0.35</text><text x="0" y="14.750000000000007" dx="0em" dy="0.3em" style="text-anchor: end; visibility: inherit; font-family: Roboto, sans-serif; font-size: 12px; font-weight: 200;" fill="rgb(255, 255, 255)" stroke="none" stroke-width="1px">0.36</text><text x="0" y="0" dx="0em" dy="0.3em" style="text-anchor: end; visibility: hidden; font-family: Roboto, sans-serif; font-size: 12px; font-weight: 200;" fill="rgb(255, 255, 255)" stroke="none" stroke-width="1px">0.37</text></g><line x1="51.5625" y1="0" x2="51.5625" y2="177" fill="rgb(0, 0, 0)" stroke="rgb(204, 204, 204)" stroke-width="1px"></line></g></g><g transform="translate(51, 0)" clip-path="url(#clip_0)"><clipPath id="clip_0"><rect width="278" height="177"></rect></clipPath><g><g><g><line x1="0" y1="0" x2="0" y2="177" fill="rgb(0, 0, 0)" stroke="rgb(189, 189, 189)" stroke-width="1px" opacity="0.25"></line><line x1="21.418269230769234" y1="0" x2="21.418269230769234" y2="177" fill="rgb(0, 0, 0)" stroke="rgb(189, 189, 189)" stroke-width="1px" opacity="0.25"></line><line x1="42.83653846153847" y1="0" x2="42.83653846153847" y2="177" fill="rgb(0, 0, 0)" stroke="rgb(189, 189, 189)" stroke-width="1px" opacity="0.25"></line><line x1="64.2548076923077" y1="0" x2="64.2548076923077" y2="177" fill="rgb(0, 0, 0)" stroke="rgb(189, 189, 189)" stroke-width="1px" opacity="0.25"></line><line x1="85.67307692307693" y1="0" x2="85.67307692307693" y2="177" fill="rgb(0, 0, 0)" stroke="rgb(189, 189, 189)" stroke-width="1px" opacity="0.25"></line><line x1="107.09134615384616" y1="0" x2="107.09134615384616" y2="177" fill="rgb(0, 0, 0)" stroke="rgb(189, 189, 189)" stroke-width="1px" opacity="0.25"></line><line x1="128.5096153846154" y1="0" x2="128.5096153846154" y2="177" fill="rgb(0, 0, 0)" stroke="rgb(189, 189, 189)" stroke-width="1px" opacity="0.25"></line><line x1="149.9278846153846" y1="0" x2="149.9278846153846" y2="177" fill="rgb(0, 0, 0)" stroke="rgb(189, 189, 189)" stroke-width="1px" opacity="0.25"></line><line x1="171.34615384615387" y1="0" x2="171.34615384615387" y2="177" fill="rgb(0, 0, 0)" stroke="rgb(189, 189, 189)" stroke-width="1px" opacity="0.25"></line><line x1="192.76442307692307" y1="0" x2="192.76442307692307" y2="177" fill="rgb(0, 0, 0)" stroke="rgb(189, 189, 189)" stroke-width="1px" opacity="0.25"></line><line x1="214.18269230769232" y1="0" x2="214.18269230769232" y2="177" fill="rgb(0, 0, 0)" stroke="rgb(189, 189, 189)" stroke-width="1px" opacity="0.25"></line><line x1="235.60096153846155" y1="0" x2="235.60096153846155" y2="177" fill="rgb(0, 0, 0)" stroke="rgb(189, 189, 189)" stroke-width="1px" opacity="0.25"></line><line x1="257.0192307692308" y1="0" x2="257.0192307692308" y2="177" fill="rgb(0, 0, 0)" stroke="rgb(189, 189, 189)" stroke-width="1px" opacity="0.25"></line><line x1="278.4375" y1="0" x2="278.4375" y2="177" fill="rgb(0, 0, 0)" stroke="rgb(189, 189, 189)" stroke-width="1px" opacity="0.25"></line></g><g><line x1="0" y1="177" x2="278.4375" y2="177" fill="rgb(0, 0, 0)" stroke="rgb(189, 189, 189)" stroke-width="1px" opacity="0.25"></line><line x1="0" y1="162.25" x2="278.4375" y2="162.25" fill="rgb(0, 0, 0)" stroke="rgb(189, 189, 189)" stroke-width="1px" opacity="0.25"></line><line x1="0" y1="147.49999999999997" x2="278.4375" y2="147.49999999999997" fill="rgb(0, 0, 0)" stroke="rgb(189, 189, 189)" stroke-width="1px" opacity="0.25"></line><line x1="0" y1="132.74999999999997" x2="278.4375" y2="132.74999999999997" fill="rgb(0, 0, 0)" stroke="rgb(189, 189, 189)" stroke-width="1px" opacity="0.25"></line><line x1="0" y1="118.00000000000001" x2="278.4375" y2="118.00000000000001" fill="rgb(0, 0, 0)" stroke="rgb(189, 189, 189)" stroke-width="1px" opacity="0.25"></line><line x1="0" y1="103.25000000000003" x2="278.4375" y2="103.25000000000003" fill="rgb(0, 0, 0)" stroke="rgb(189, 189, 189)" stroke-width="1px" opacity="0.25"></line><line x1="0" y1="88.5" x2="278.4375" y2="88.5" fill="rgb(0, 0, 0)" stroke="rgb(189, 189, 189)" stroke-width="1px" opacity="0.25"></line><line x1="0" y1="73.75" x2="278.4375" y2="73.75" fill="rgb(0, 0, 0)" stroke="rgb(189, 189, 189)" stroke-width="1px" opacity="0.25"></line><line x1="0" y1="58.999999999999964" x2="278.4375" y2="58.999999999999964" fill="rgb(0, 0, 0)" stroke="rgb(189, 189, 189)" stroke-width="1px" opacity="0.25"></line><line x1="0" y1="44.24999999999996" x2="278.4375" y2="44.24999999999996" fill="rgb(0, 0, 0)" stroke="rgb(189, 189, 189)" stroke-width="1px" opacity="0.25"></line><line x1="0" y1="29.500000000000032" x2="278.4375" y2="29.500000000000032" fill="rgb(0, 0, 0)" stroke="rgb(189, 189, 189)" stroke-width="1px" opacity="0.25"></line><line x1="0" y1="14.750000000000007" x2="278.4375" y2="14.750000000000007" fill="rgb(0, 0, 0)" stroke="rgb(189, 189, 189)" stroke-width="1px" opacity="0.25"></line><line x1="0" y1="0" x2="278.4375" y2="0" fill="rgb(0, 0, 0)" stroke="rgb(189, 189, 189)" stroke-width="1px" opacity="0.25"></line></g></g></g><g><g><line x1="0" y1="545.75" x2="278.4375" y2="545.75" fill="rgb(0, 0, 0)" stroke="rgb(153, 153, 153)" stroke-width="1.5px"></line></g></g><g><g><line x1="21.418269230769234" y1="0" x2="21.418269230769234" y2="177" fill="rgb(0, 0, 0)" stroke="rgb(153, 153, 153)" stroke-width="1.5px"></line></g></g><g><g><g><g><g><path stroke="rgb(255, 112, 67)" stroke-width="2px" d="M21.503942307692306,11.391159564256668L21.80379807692308,22.664077997207627L22.424927884615386,39.15521589833873L22.74620192307692,84.91452152599756L22.767620192307692,76.23201057333493L22.938966346153848,88.36485322715694L23.067475961538463,75.0335506729806L23.174567307692307,68.94343762991873L23.32449519230769,70.82649101472883L23.62435096153846,82.32589048471738L23.710024038461537,80.1666312139061L24.15980769230769,88.03830664410835L24.20264423076923,87.97442854614647L24.7809375,80.51171971906744L24.845192307692304,79.71195884497382L24.888028846153844,106.10242489863343L24.930865384615384,110.24160818657577L25.10221153846154,106.22818547463073L25.509158653846153,124.57479935892694L25.766177884615384,99.59090070947713L25.809014423076924,93.4690035220121L26.323052884615386,111.11773859921497L26.64432692307692,110.97032275286413L26.665745192307693,101.53487934832017L26.96560096153846,103.33921046731506L27.222620192307694,109.88540788367415L27.286875000000002,98.1343811754509L27.458221153846154,90.39487356338445L27.52247596153846,95.68813603881487L27.736658653846156,101.1476626530743L28.18644230769231,109.69307943299115L28.250697115384614,101.73680571245674L28.314951923076922,85.61826846834803L28.828990384615384,108.1783618824496L29.08600961538462,110.96550970677507L29.21451923076923,110.04377648716537L29.25735576923077,102.61525193317198L29.514374999999998,102.56927733084451L29.685721153846153,122.45642429527256L29.771394230769232,111.8580148313028L30.02841346153846,114.11684265875687L30.306850961538462,110.25685899753707L30.756634615384616,114.96839679198007L30.778052884615388,121.24607345520857L30.82088942307692,120.56772654680961L30.970817307692307,110.62550290420364L31.292091346153846,91.93183077500674L31.377764423076922,92.23948699907999L31.591947115384617,107.00545973008813L31.69903846153846,97.91873481520183L31.72045673076923,101.22580298573298L31.848966346153848,92.0114943193556L32.341586538461534,107.60150382564167L32.38442307692308,104.61926315811387L32.40584134615384,102.54060198418425L32.49151442307692,103.92273454399235L32.83420673076923,99.23535476047483L32.941298076923076,103.89965723704574L32.98413461538462,116.28353165836005L33.24115384615384,109.94152334481969L33.32682692307692,121.79861745328034L33.45533653846154,125.02986794167963L34.05504807692308,102.04030503901345L34.14072115384615,84.6658722047357L34.183557692307694,123.95117600466925L34.89036057692308,116.2554687124855L35.06170673076923,113.04358861818115L35.190216346153846,110.22229343637342L35.21163461538462,119.24946414223022L35.511490384615385,119.84692087644756L35.70425480769231,110.88023036047474L35.87560096153846,86.87984900072003L36.86084134615385,79.41344639298191L36.94651442307692,91.20703153989837L37.35346153846154,107.23116631020383L37.78182692307693,110.18162019675543L38.01742788461538,104.91144076362588L38.03884615384615,104.00420691594681L38.16735576923077,108.24653472915412L38.29586538461538,122.38993999013377L38.638557692307685,118.62958779721897L38.65997596153846,118.1921123790111L38.7028125,112.84451646371879L38.95983173076923,121.71332532622934L39.238269230769234,110.26797039782119L39.77372596153846,105.37429732963507L39.96649038461538,107.45060241749927L40.073581730769234,107.27658107597256L40.394855769230766,115.8279339237131L40.716129807692305,125.19767418879972L41.33725961538461,133.10048588144008L41.59427884615385,128.74413273350734L41.744206730769235,134.50586032638753L42.815120192307695,136.10625123840458L42.879374999999996,146.77345564283058L42.92221153846153,142.46376507471285L43.1578125,121.72053623789718L43.307740384615386,132.7857628261695L43.393413461538465,128.4774221536904L43.43625,133.90385838493043L43.629014423076924,112.51534319009976L44.035961538461535,108.79365518144728L44.33581730769231,99.42627783091048L44.35723557692308,114.88324829024783L44.4857451923077,119.3536538248224L44.67850961538461,134.31999124079724L44.935528846153844,135.4886803924429L45.02120192307692,131.48783693906L45.06403846153846,134.51858775732717L45.17112980769231,110.3931623394358L45.213966346153846,108.8456052836816L45.428149038461534,110.6061486063624L45.51382211538461,108.10166629899884L45.66375,117.3893461272081L45.96360576923077,120.64942434102062L46.07069711538462,106.07307668131448L46.09211538461539,104.81764312745251L46.349134615384614,126.96596660710051L46.56331730769231,128.32023058233662L46.606153846153845,127.69395936666727L46.7775,137.54292641364813L46.97026442307693,131.7559894459443L46.9916826923077,132.26653095108253L47.50572115384615,139.10291513217675L47.65564903846154,128.016775539L48.10543269230769,119.01679752497625L48.21252403846154,124.04617575543375L48.23394230769231,115.92057040773183L48.276778846153846,117.66400974656553L48.341033653846154,137.24888872900848L48.42670673076923,122.96406710028202L48.55521634615385,124.78913075852122L48.64088942307693,123.72180125193431L48.74798076923077,123.17299532339953L49.21918269230769,130.8929390635847L49.79747596153846,115.10987399379957L50.22584134615385,120.82160470700596L50.54711538461538,123.81493172536088L50.63278846153846,117.39857971364137L50.86838942307692,129.29882620390583L50.88980769230769,115.61667676339341L51.76795673076923,123.14255168181536L52.21774038461539,109.03415774191544L52.23915865384616,109.01596142581181L52.6246875,89.36575544912259L52.64610576923077,91.7622817816653L52.98879807692308,103.11486220731247L53.03163461538462,105.66752478107159L53.41716346153846,130.58004619255271L53.588509615384616,113.53231352314118L53.759855769230775,109.59241902676081L53.82411057692308,94.4269799819401L53.88836538461539,99.11972531263896L54.145384615384614,79.95693341842212L54.573750000000004,111.2546141979153L54.63800480769231,114.05855499726863L54.93786057692307,108.20651567591626L55.00211538461539,120.16837653287293L55.10920673076923,117.80693670969035L55.36622596153846,98.19177698410051L55.60182692307693,96.76101708004774L55.708918269230765,109.53494806045236L55.75175480769231,114.4061355409261L56.26579326923077,113.43402602775316L56.43713942307693,115.55098573269494L57.18677884615385,121.44741659106042L57.379543269230766,125.11125995362539L57.50805288461538,124.30572850492439L57.87216346153846,119.42744625202923L57.915,120.31307906265329L57.97925480769231,120.14937054130601L58.064927884615386,111.68617355235318L58.214855769230766,110.42651936654985L58.79314903846154,120.70763250139197L59.43569711538461,111.45151745049267L59.478533653846156,125.8703063056952L59.73555288461539,116.58038782632862L59.799807692307695,113.36250284645865L59.97115384615385,127.3258373578424L60.9778125,124.85591848135202L61.06348557692308,130.00244055652746L61.25625,128.25499732771L61.40617788461539,137.19242624925658L61.855961538461536,131.00573921493938L62.0915625,146.00781340773256L62.15581730769231,130.07717530355066L62.284326923076925,121.63519578233483L62.3057451923077,117.64206615123224L62.62701923076923,111.07370737214723L62.88403846153846,126.27809858930011L62.96971153846154,124.83020898468435L63.07680288461539,119.4402280734011L63.119639423076926,104.96716028964693L63.39807692307692,108.99982395479779L63.41949519230769,142.20977601831976L63.52658653846154,142.01318893090374L63.7621875,111.24346614632299L63.80502403846154,129.72905837746436L65.75408653846154,123.83362967522129L65.94685096153846,136.59905789346212L66.16103365384616,131.75530777007768L66.39663461538461,103.93009885329266L66.69649038461539,104.05803878413596L66.71790865384615,123.57518784586757L66.80358173076924,123.1995829366694L66.825,118.75064171690049L66.97492788461538,104.58590254389227L67.23194711538461,100.74851598264567L67.87449519230769,111.19492419911502L68.40995192307692,96.33255181523009L68.73122596153847,103.34662887937928L68.85973557692307,110.4244349687523L69.37377403846153,114.5959321313635L69.48086538461538,122.03671553454014L70.27334134615384,101.47772876454124L71.02298076923077,98.93149123211344L71.08723557692308,123.54491003525044L71.57985576923078,114.1590724955307L71.94396634615384,111.0387389880601L72.58651442307692,118.9960824145188L72.69360576923077,119.76209548075849L73.59317307692308,127.34222975349343L73.70026442307692,120.82469102725932L73.97870192307691,105.36926099649399L74.15004807692307,97.6169117509802L74.21430288461539,92.30181789514302L74.64266826923078,89.09095820258183L74.92110576923078,100.37405475658255L75.02819711538461,106.35584361959738L75.32805288461539,95.05749938255096L75.37088942307692,109.99268904546231L75.56365384615385,107.00062777530742L75.6064903846154,117.44529809911012L76.37754807692308,117.30419268822051L76.61314903846153,117.5032898701154L76.63456730769231,120.7132716606213L76.84875000000001,116.28512307585206L77.08435096153846,99.06361188042715L77.23427884615386,111.27566286056373L77.51271634615385,106.33866856175142L77.68406250000001,113.37666212128087L77.85540865384615,110.88843093279881L77.94108173076924,114.71147253491813L78.02675480769231,119.26891024338212L78.43370192307692,133.26251473085287L78.60504807692308,141.51373770270467L78.69072115384616,135.30404266377525L78.84064903846154,131.179487554194L78.90490384615386,137.68391348598087L78.94774038461537,143.91365775869892L79.0119951923077,137.51648490075232L79.09766826923077,143.2278150465725L79.29043269230769,131.6238031951569L79.4189423076923,115.30635738181964L79.52603365384616,110.81571109180393L79.61170673076924,113.18906161239588L79.86872596153846,105.06062472492958L79.89014423076924,110.5896120824248L79.97581730769231,104.85902418838923L80.08290865384615,112.62792478887432L80.10432692307693,116.76229154400941L80.38276442307692,116.2116440733249L80.4041826923077,113.62603011131138L80.42560096153846,133.48878014326013L80.53269230769232,115.22429386520339L80.63978365384615,137.2378851636884L80.70403846153846,140.07164051918008L80.91822115384615,150.73322319261925L81.06814903846154,139.83219826980053L81.64644230769231,136.93297620274797L82.11764423076923,146.07719745432243L82.33182692307693,145.08281644698914L82.6959375,144.996123162013L82.71735576923076,138.1587549609552L83.91677884615385,122.64149143472974L83.98103365384615,128.45483620271483L84.25947115384615,125.82138614240526L84.645,122.79035397996448L84.70925480769232,112.19819561618534L84.8591826923077,113.22927000509488L84.92343749999999,137.6024675392317L85.09478365384615,130.51672636408844L85.37322115384616,139.77780274712586L85.58740384615385,129.05400610067574L86.08002403846154,124.09435745536167L86.40129807692307,113.6977530387573L86.67973557692306,115.75806854173739L87.45079326923077,117.34494057896853L87.47221153846155,144.4213714635558L87.87915865384616,137.2564583561532L87.90057692307693,119.80666174541183L87.92199519230769,116.21597845584313L88.13617788461539,122.93865601557587L88.22185096153846,122.3146036168223L88.24326923076923,115.48816547991545L88.26468750000001,113.60520490528175L88.37177884615384,135.65242050004622L88.41461538461539,146.1497887129344L88.77872596153846,146.93429332701905L89.3784375,133.0086820705446L89.48552884615384,122.22253746889312L89.78538461538461,128.75589814843107L89.93531250000001,135.62329182065358L90.04240384615385,123.62543938777938L90.32084134615384,131.84424892796332L90.38509615384616,119.96105005582127L90.57786057692307,129.27858005905122L90.8348798076923,126.35762154426561L91.34891826923078,138.2055019579315L91.41317307692307,126.20780605327985L92.22706730769231,125.28126458079751L92.95528846153846,121.34412793964829L93.29798076923076,122.03155843407326L93.68350961538462,117.58031586402896L93.79060096153846,118.26094310041807L93.89769230769231,120.59582381580206L93.91911057692307,138.93905035933213L94.09045673076923,143.19829988646717L94.32605769230769,121.14224807124269L94.62591346153846,126.94755616009792L94.79725961538462,116.72074109447331L94.96860576923076,142.41730414707857L95.54689903846153,132.66104293393732L96.01810096153847,131.23803174810195L96.03951923076923,129.26499077270378L96.0609375,124.71848730200503L96.18944711538462,139.01003916236144L96.23228365384615,143.6491966079019L96.38221153846153,143.06204692306176L96.93908653846154,120.56529583801061L97.32461538461538,127.37821811598083L97.7958173076923,112.75181473589865L97.86007211538461,116.74047964392261L98.00999999999999,99.05076197134343L98.26701923076924,111.32400869933893L98.52403846153847,111.98769043450436L98.80247596153846,134.22465627530147L98.82389423076923,134.46713705741723L98.86673076923077,119.61692957808593L99.16658653846154,126.61057661014814L99.68062499999999,130.52632765792615L99.74487980769231,130.74734648956542L99.78771634615384,108.66864454086831L99.83055288461539,98.84687488875514L99.8948076923077,93.18434866429408L99.98048076923077,107.15280234909675L100.04473557692309,123.66416119394673L100.4516826923077,124.7927250913261L100.66586538461539,134.99187381574387L100.92288461538462,124.06120854323429L101.02997596153847,116.234257136019L101.6296875,119.21992665185442L101.65110576923077,104.96099945100492L101.69394230769231,101.70882275219168L101.80103365384616,120.46137248584866L101.82245192307693,142.23326130574486L101.9723798076923,138.75167406717267L102.01521634615384,123.29990544986327L102.42216346153846,115.85712794704197L102.44358173076922,113.25107867862557L102.52925480769231,123.73826464024646L102.59350961538462,132.95794360642117L103.08612980769232,126.16117096426768L103.83576923076923,119.34975489665675L103.87860576923077,110.56793440991409L104.09278846153846,108.62076275118444L104.28555288461538,139.64074430208356L104.99235576923077,113.78112825954527L105.18512019230769,115.90063495161873L105.27079326923078,118.61310273839678L105.39930288461538,116.68879537840868L105.65632211538461,129.17206631338706L105.72057692307693,150.102581228233L106.0846875,144.0602340849737L106.363125,139.92997207358474L106.55588942307692,124.27554056712984L106.68439903846155,113.11019661229251L107.34836538461539,112.73514825225712L107.39120192307692,122.86102727723627L107.58396634615384,113.76966705127066L107.8195673076923,124.35946523072424L107.94807692307691,136.67924098326026L108.0980048076923,129.65174061151302L108.89048076923078,121.22521889264561L109.4259375,114.28127390179144L109.55444711538462,110.04267442246145L109.68295673076923,112.8134729624979L109.74721153846153,121.46736383206802L110.21841346153846,112.84727530340642L110.43259615384615,111.05312827027016L110.96805288461539,108.9598289179574L111.20365384615386,122.744400432573L111.5249278846154,132.83073181561608L111.82478365384615,144.22522009999733L111.95329326923077,152.57461040968406L112.36024038461538,159.54194186779682L112.42449519230769,144.91326896341337L112.48875000000001,151.65908644194423L112.59584134615385,143.40468846318137L113.10987980769231,128.55196166370516L113.90235576923077,143.26115695437318L114.00944711538462,159.60176259756395L114.11653846153847,153.4834259657878L114.24504807692308,142.16198752575033L115.14461538461538,126.05255817325657L115.2088701923077,135.66689016194192L115.55156249999999,154.45427819950015L115.72290865384615,147.23163427628648L115.80858173076922,130.68240588735085L116.12985576923077,127.93651958602989L116.17269230769232,127.00767289577911L116.40829326923077,114.13843631135818L116.57963942307693,111.5353255116188L116.81524038461538,121.85705670376083L117.07225961538461,127.39152787124786L117.56487980769231,133.8417515516023L117.69338942307692,119.21451438425426L118.3359375,117.2322104988005L118.5501201923077,114.0917246590558L118.63579326923077,123.5894476086202L119.17125,115.50941839875594L119.25692307692309,120.58003934062607L119.3854326923077,112.86773693464453L119.55677884615385,117.38407725037489L120.07081730769231,124.76272339785909L120.13507211538462,123.12651445367821L120.19932692307692,140.93852816759875L120.99180288461538,132.3045489593704L121.09889423076923,140.33931256558654L121.18456730769232,136.10019856230116L121.20598557692307,117.51390934905821L121.37733173076923,128.52497171712764L121.61293269230768,118.37697833390742L121.78427884615384,118.99286203152957L121.86995192307693,126.38984990457902L121.91278846153845,126.5782475491775L122.04129807692307,129.5415152800329L122.21264423076923,120.085882693067L122.23406250000001,139.51863695951388L122.42682692307693,122.73979054553566L122.72668269230769,109.66829356350459L122.87661057692307,114.13431718825078L123.3478125,123.83097966241104L123.49774038461538,113.40695433454074L123.62625,120.22141421220513L123.71192307692307,119.30331338871608L123.73334134615385,114.31694225924659L124.31163461538462,108.16725179229653L124.37588942307691,106.36768497630642L124.44014423076923,120.52282742026263L124.52581730769231,135.6325878462959L124.86850961538461,131.38586351643622L124.91134615384615,116.48037700277939L124.95418269230768,123.45574972881305L124.97560096153846,127.84773621471783L124.99701923076923,114.85653425164254L125.16836538461538,115.05391200129532L125.98225961538462,121.04762838926518L126.26069711538462,108.10951187996031L126.58197115384614,121.04334129564742L126.98891826923078,125.56021047635544L127.07459134615385,121.07533997895521L127.22451923076923,124.1468573486936L127.3101923076923,117.75572166896654L127.41728365384614,128.48031696115015L128.08125,111.5261498357897L128.31685096153845,116.91215402281554L129.00223557692308,132.38955404994644L129.51627403846155,142.43642207764242L129.8161298076923,135.4589503692547L129.92322115384616,139.83460155051702L130.20165865384615,132.02783146453953L130.22307692307692,122.67670337529812L130.3944230769231,112.06658203704258L130.43725961538462,110.1160979110187L130.54435096153847,101.4980368994585L131.33682692307693,114.36613804000088L131.42249999999999,120.99906285940092L131.50817307692307,136.28265654050395L131.74377403846154,127.78289719225815L131.7651923076923,132.40984548212197L131.80802884615386,125.2230483119553L131.82944711538462,125.81611488013662L132.51483173076923,131.15339393466232L132.7504326923077,132.86486740737865L132.79326923076923,127.79830487865036L132.90036057692308,135.68426919160976L132.9431971153846,139.26135885821998L133.05028846153846,150.3240869409276L133.17879807692307,152.80638657608233L133.32872596153848,143.47497791408657L133.60716346153848,125.00605522608257L133.9284375,127.78711418518719L134.12120192307694,127.36714409714523L134.18545673076923,130.1000094707345L134.8280048076923,111.74896652075857L135.320625,115.59595449312451L135.34204326923077,125.14332629170372L135.4062980769231,130.30883535698857L135.44913461538462,130.9251579222429L135.5348076923077,129.48831292255807L135.66331730769232,132.89592296042494L136.26302884615384,127.82834981774359L136.434375,124.33086689052021L136.9269951923077,124.04627760491991L137.11975961538462,96.10155337001223L137.1411778846154,113.67841685381732L137.44103365384615,101.94554330448629L137.59096153846153,111.38593840325076L138.0407451923077,108.97204110458023L138.19067307692308,104.45885096451359L138.2335096153846,121.58819623268077L138.29776442307693,138.79090825007216L138.34060096153846,127.36869369319588L139.3044230769231,144.067304684946L139.4115144230769,116.62443288220703L139.43293269230767,123.0391054514273L139.58286057692308,118.81276380796578L139.66853365384614,129.20518451797568L139.7113701923077,129.01567346970796L140.18257211538463,115.44543120336867L140.65377403846153,113.06707943124972L141.44625,119.03166003610737L142.49574519230768,113.55377707234652L142.79560096153847,119.6411112031438L143.22396634615387,116.20038013941637L143.99502403846154,119.15133410266989L144.14495192307692,117.5248696897742L144.3591346153846,128.11568363275026L144.61615384615382,142.17655874351203L144.68040865384614,125.88184502756322L144.7232451923077,122.2601634564145L144.74466346153847,127.59871751678845L145.23728365384613,126.71675830252687L145.4086298076923,134.1292525957091L146.32961538461538,120.96976449668784L147.05783653846154,128.3978381072305L147.33627403846154,135.57444281070366L147.35769230769233,133.44234254770842L147.40052884615383,139.5919859696231L148.8141346153846,141.44678909115797L148.92122596153845,157.199839958744L148.98548076923078,155.6419926817398L149.15682692307692,164.87161521525263L149.5209375,148.4953047776883L149.7137019230769,146.9982686486641L149.8636298076923,145.12814376633162L149.99213942307694,143.71912581849574L150.12064903846155,115.1037533946542L150.1420673076923,117.06163213656592L150.89170673076924,119.2874053359404L151.0630528846154,105.74957114698735L151.55567307692306,104.62654656316195L151.59850961538461,120.43084653702587L151.61992788461538,124.21646732382304L152.21963942307693,137.42765007193287L152.3053125,126.6780423866236L152.34814903846151,142.9862931696489L152.77651442307692,147.33562607335537L152.8836057692308,136.51079247455294L152.9264423076923,133.42367254531678L152.96927884615383,122.4713031699437L153.52615384615385,137.04226655067075L154.3186298076923,129.97498583973095L154.44713942307692,118.48193436968711L154.66132211538462,121.0425454861425L154.7469951923077,131.05822868862768L154.83266826923077,118.08814880680448L155.13252403846153,116.0907307590926L155.3038701923077,126.7183448151281L155.90358173076925,143.52199244949406L155.94641826923075,143.49064848693126L156.09634615384616,136.11049383802356L156.2676923076923,114.86209635688745L156.28911057692306,120.71777571889092L156.3533653846154,125.29863457472518L156.65322115384615,117.6164660965884L156.95307692307694,106.69619452449585L157.03875,107.83990347083156L157.08158653846152,113.69780243453827L157.36002403846152,112.38748919378187L157.59562499999998,114.44518279677902L157.61704326923075,99.41876852301523L157.72413461538463,107.41869897715908L157.76697115384616,117.69710790558251L157.83122596153848,112.57276349928138L158.62370192307694,132.8016259769568L159.00923076923075,132.1198049962502L159.4161778846154,123.43902031063928L159.54468749999998,119.58409975457131L159.7588701923077,108.40540116124117L160.05872596153847,119.8816374724672L160.4442548076923,135.3247132054308L160.5085096153846,142.52127730556367L160.52992788461538,139.36144800012138L161.23673076923075,129.80270009651673L161.30098557692307,141.37947499403293L161.49374999999998,128.81897102385125L161.62225961538462,132.05276422851898L161.72935096153847,136.79065985175143L162.00778846153844,130.44821387941937L162.1148798076923,127.35765096196715L162.4575721153846,119.3368428626608L162.56466346153846,128.11955609792176L162.6717548076923,142.88012460990964L162.7574278846154,139.59625634029038L163.1001201923077,139.93561655565813L163.39997596153844,161.17206450274415L163.82834134615385,150.35113581401595L164.08536057692308,148.084583380118L164.3423798076923,120.3490339388222L165.0920192307692,142.5239962619406L165.24194711538462,146.6465157319225L165.34903846153844,154.78336720759376L165.391875,150.38963488992871L165.43471153846153,131.25300264511597L165.56322115384617,144.15159692856128L165.64889423076923,141.56681834752828L165.99158653846155,131.51782046017337L166.22718749999999,123.97124062929917L166.54846153846154,116.61702972027284L166.74122596153845,133.65844791753662L167.10533653846153,143.53896369709713L167.51228365384617,148.38019888504826L167.72646634615384,151.43511956277177L167.85497596153846,133.0895018180769L167.9620673076923,135.74741657975684L168.00490384615387,157.73156898858167L168.13341346153845,142.5322058537127L168.3261778846154,132.5427562319351L168.66887019230768,136.51092726726012L169.5041826923077,138.14186398231192L169.54701923076922,144.06275970961576L169.61127403846154,144.83849615589338L169.84687499999998,141.11236148318983L169.9968028846154,128.51305986190636L170.46800480769232,138.07148762193202L170.8106971153846,143.20084992436693L171.1533894230769,144.58012474410606L171.26048076923078,139.708005016046L171.3033173076923,130.4109724789842L171.36757211538463,122.5267467039814L171.7316826923077,137.57152437794153L171.9458653846154,144.21501790063348L171.96728365384615,129.69043202743987L172.28855769230768,104.3593956562642L172.5027403846154,96.4758778412797L173.20954326923078,91.43086657522069L173.70216346153845,106.39416196106637L173.85209134615386,113.06477902030208L173.91634615384615,112.62483385619676L174.04485576923076,131.7810309852192L174.85875000000001,137.72621129304343L175.1371875,118.82956178397043L175.15860576923077,133.90256780034363L175.2014423076923,122.19247338560852L175.32995192307692,134.04378232590938L175.39420673076924,130.8463169052159L175.7797355769231,121.181290490267L176.1652644230769,114.58715464045835L176.67930288461537,112.3115554056778L176.76497596153845,113.62347497953262L177.02199519230768,121.56558139570527L177.2147596153846,118.33839465050676L177.81447115384614,132.22277269881232L177.9429807692308,138.0671109802798L178.49985576923078,141.99735008759953L178.58552884615384,145.1799601977089L178.62836538461536,131.9092225113522L178.9068028846154,127.59191804403129L179.01389423076924,132.1827771739606L179.1209855769231,137.70885379770064L179.20665865384615,144.71071266924542L179.42084134615382,127.88173038837434L179.5921875,114.55552433179098L180.2775721153846,127.78271753934783L180.4275,124.7458675345645L180.66310096153848,148.29608599191107L180.68451923076924,135.02715902236216L180.74877403846156,123.13943627302118L180.81302884615383,118.68668407693069L181.2842307692308,112.68776678141687L181.36990384615385,118.5983294313951L181.41274038461538,114.56895988379736L181.6697596153846,132.64333188053854L182.18379807692307,124.2310876102262L182.44081730769233,126.76391436165649L182.61216346153847,134.97573561373991L182.74067307692306,146.75610515417839L182.97627403846155,148.33406019772397L183.1476201923077,144.89807269910162L183.19045673076923,149.34044575654968L183.31896634615384,141.53268679358663L183.44747596153846,126.93561746107402L184.0471875,123.13727534667771L184.1971153846154,127.25543424401354L184.23995192307692,134.3496130282501L184.28278846153847,136.3265418514502L184.34704326923077,120.59637166886877L185.0110096153846,131.70211664336537L185.03242788461537,124.4947813719369L185.13951923076922,138.0102214556847L185.439375,122.51442641865697L185.48221153846154,119.72587346346072L185.5036298076923,108.54228357857997L186.78872596153846,101.42725496522503L186.91723557692308,124.5379365505691L186.98149038461537,139.90540264975525L187.5383653846154,140.1396372135371L187.55978365384615,141.03675520514784L187.62403846153848,136.90644779262146L187.64545673076924,119.72561184440377L188.3522596153846,126.3429327718873L188.37367788461538,129.1931063957488L188.9305528846154,130.6374379293606L189.29466346153848,148.74214000084916L189.38033653846153,140.52132513868168L189.5516826923077,127.70529702155208L189.65877403846153,119.05153121261844L189.6801923076923,111.19604172533178L189.80870192307694,105.10843181744467L190.23706730769229,111.12596340260059L190.5155048076923,97.22958222199173L190.64401442307692,116.67484994631225L190.98670673076924,126.93764438570271L191.17947115384615,136.9479957124038L191.2223076923077,143.92014895084162L191.24372596153847,136.01381887318288L192.4645673076923,117.09722660375586L193.32129807692309,126.05587041612235L193.38555288461538,119.49979051492072L193.40697115384617,128.3647788318482L193.4498076923077,125.08576754048389L193.74966346153846,138.70466453620742L193.9210096153846,138.6224918412504L194.4136298076923,144.4432557015024L194.43504807692307,145.23475010325924L194.82057692307694,117.9552463718082L195.37745192307693,127.20211868451986L195.54879807692308,125.06384761909817L195.8058173076923,135.72502219545942L195.84865384615384,133.21859843652308L196.25560096153848,117.81994304132971L196.2770192307692,109.40570878429719L196.72680288461538,111.56095192100706L196.87673076923076,120.56213738480862L197.04807692307693,127.4476060268859L197.0694951923077,128.85000090584637L197.39076923076922,146.4269555138676L197.66920673076922,134.20814986986684L197.69062499999998,128.36496468760234L198.2260817307692,138.30911853538552L198.69728365384617,127.52054045573833L198.82579326923076,141.25545107111904L198.89004807692308,128.98131674996355L198.91146634615384,107.59409841579989L198.99713942307693,140.70139917542215L199.10423076923075,128.15016848331499L199.21132211538463,122.58205068400984L200.23939903846153,126.38461756879974L200.30365384615385,142.9858785639697L200.53925480769232,134.74927124801238L200.73201923076923,137.00301978244164L200.83911057692308,129.30892384799586L201.26747596153845,140.9306910917298L201.5673317307692,132.27375299245932L201.6744230769231,142.0289890677381L202.10278846153844,121.39805850450087L202.55257211538463,122.22928836979803L202.6382451923077,106.51148178004225L203.28079326923077,120.25400934113854L203.55923076923077,131.5091306894648L203.92334134615385,123.18873630342648L204.11610576923076,136.3117668293581L204.3088701923077,154.57985377685227L204.50163461538463,158.30156209692956L204.63014423076922,156.41163844243047L204.65156249999998,140.76558373198128L204.82290865384613,133.03150862351188L205.6368028846154,133.6664790385671L205.74389423076923,129.45007814608263L206.00091346153846,140.5893913605347L206.04375,143.2176035343727L206.06516826923078,147.1607073842955L206.1936778846154,150.17944023009971L206.8790625,162.15321733353636L206.9647355769231,139.5834320294744L207.6287019230769,129.91632022308625L207.75721153846155,139.6453164568384L208.03564903846154,133.87565018837685L208.14274038461537,133.04718869987155L208.27125,135.9083245161952L208.69961538461536,135.7105814077724L208.87096153846156,136.38304653515033L208.9137980769231,136.3818619295931L209.385,148.2891897228346L209.42783653846155,130.26102260750446L209.64201923076922,148.52295490504446L209.8776201923077,140.53668797255241L209.96329326923077,146.6225457086604L210.15605769230768,134.1937342103983L210.32740384615386,130.0815604100624L210.39165865384615,131.11271380007264L210.60584134615385,124.0467345513105L211.29122596153846,129.2554127333879L211.3983173076923,134.4484943126631L211.5482451923077,140.97906892150593L211.78384615384616,149.65297682672713L211.91235576923077,137.33187098258716L212.06228365384615,129.41471312614667L212.40497596153847,127.54768670900091L212.49064903846156,135.30876081766735L212.89759615384614,128.20693087328706L213.45447115384616,122.38377904742502L213.54014423076924,126.25784757047619L213.73290865384615,147.9045047480448L213.86141826923077,152.58723151198527L213.88283653846156,147.5788967580289L213.9685096153846,140.1122915488893L214.3112019230769,128.48848644151775L214.8894951923077,134.59820014986093L215.2321875,119.70773512573656L215.42495192307692,115.26191027433643L215.57487980769233,108.54865771216735L215.68197115384615,110.1949476580774L216.6886298076923,150.8291772711846L216.77430288461537,140.22251841476998L217.43826923076924,140.1320585909572L217.60961538461538,131.5925229849271L217.63103365384615,135.96823495995113L217.6738701923077,149.12606573326056L217.69528846153847,162.91353180541196L218.18790865384614,159.90026594718455L218.25216346153846,148.73065638256165L218.31641826923078,158.17023107833913L218.46634615384616,163.0809328998759L218.53060096153845,142.81962632212847L218.6376923076923,149.8541942064393L218.7233653846154,120.81393293287923L218.9161298076923,119.97752320615395L218.93754807692306,111.39047449736567L219.02322115384615,117.36132701580983L219.1945673076923,128.57356177774233L219.58009615384614,126.24863198403814L219.60151442307694,136.07244455220876L220.41540865384616,128.15988297106375L220.6724278846154,133.78774769807785L220.71526442307692,129.12740692916466L220.8651923076923,150.7223437036452L221.079375,160.04545614751447L221.1007932692308,140.37309320945894L221.18646634615385,134.0875128518305L221.22930288461538,122.74522259299523L221.31497596153847,123.45614136734349L221.3792307692308,121.41143786596503L221.5719951923077,134.82081970982105L221.72192307692308,126.50633608944618L221.87185096153846,127.17149069099071L222.00036057692307,128.13321613185673L222.02177884615384,121.1017512733523L222.15028846153848,124.61816616384887L222.2573798076923,134.11784842925493L222.4715625,130.60601147006284L222.6857451923077,110.49447011941864L222.8142548076923,122.32796984907509L223.13552884615385,130.27564088104083L223.56389423076925,130.71504192112636L223.62814903846152,115.33275356625765L223.67098557692307,112.55922042569668L223.94942307692307,135.87725401664474L224.12076923076924,139.21698283400954L224.24927884615383,145.90372877864132L224.29211538461539,136.8608624669796L224.6348076923077,144.6766161163381L224.65622596153847,161.58008387921643L224.67764423076923,156.92840480350492L224.72048076923076,142.68722976173783L225.3201923076923,140.5414120729317L225.4058653846154,134.07039667222207L225.70572115384616,141.7302677217323L225.89848557692306,146.35724258322702L226.09125,135.99590694844235L226.3054326923077,140.8670205708713L226.41252403846153,131.06831381537737L226.88372596153846,141.78383498083488L227.0550721153846,128.0284233492073L227.18358173076925,110.17660799035167L227.46201923076924,134.81095898395026L228.16882211538461,128.44951865819237L228.49009615384617,124.87050471155128L228.55435096153846,139.70813963084387L228.57576923076925,116.32867271464451L228.64002403846152,112.97979529357781L228.83278846153848,128.4996998528053L228.91846153846154,127.87294149514501L229.00413461538463,120.06154738734048L229.26115384615383,150.8088768176429L229.28257211538462,143.81164094520764L229.43249999999998,150.09850924440113L229.94653846153847,148.4705838157409L229.989375,145.93689146004158L230.31064903846152,131.59150648332857L230.3320673076923,117.52875355611576L230.46057692307693,126.09524062711202L230.52483173076922,124.45160931013943L230.71759615384616,132.31485941209144L231.06028846153848,106.97693935750571L231.12454326923077,144.5655573291698L231.27447115384615,133.1824104000997L231.5957451923077,125.92176483928394L231.83134615384617,122.07501390492455L232.10978365384616,130.48073939630711L232.38822115384616,135.6585819730122L232.7523317307692,138.38861656242364L232.90225961538462,131.64824932845684L233.30920673076923,128.71872674245984L233.330625,137.9793859649858L233.4805528846154,158.24067487890488L233.5448076923077,145.8228157316146L233.6090625,136.83636868920908L233.80182692307693,138.8786614711701L233.8232451923077,126.54701254222502L234.2301923076923,116.599559840284L234.40153846153845,128.11047037644514L234.48721153846154,129.8965282929142L234.5086298076923,152.23146888567214L234.53004807692307,150.07468486400373L234.65855769230768,147.18560935599757L234.74423076923077,145.581138071675L235.02266826923076,118.39190913275417L235.12975961538461,108.28248811385353L235.1511778846154,114.69149816406562L235.21543269230767,114.8552102230358L235.32252403846152,91.47197188033859L235.45103365384617,103.44468599017976L236.9503125,121.30892827186895L237.52860576923078,102.34927673383902L238.19257211538462,112.93675045516703L238.27824519230768,118.8369728228248L238.29966346153844,114.26366447811104L238.55668269230767,123.40123747232424L239.1778125,120.73135717179105L239.3277403846154,131.48346973339153L239.64901442307692,138.30472654628417L239.69185096153845,135.07478061036858L240.05596153846153,122.9130503577983L240.2058894230769,124.99897330063553L240.24872596153844,116.49304018651232L240.4200721153846,119.0519086374926L241.36247596153845,141.52213094556848L241.4909855769231,138.24529043391055L241.59807692307692,122.4746931764764L241.94076923076923,113.06606960137381L242.09069711538461,115.94044273996164L242.79749999999999,135.06764461936834L242.92600961538463,131.58127378429344L242.99026442307692,125.24691813591349L243.0116826923077,133.68167532326717L243.65423076923076,139.50696665550439L244.06117788461538,139.58444420400366L244.2539423076923,151.32395983876643L244.48954326923078,144.3414323874822L245.13209134615386,138.29813636234465L245.26060096153847,137.30913677746688L245.28201923076924,142.91631911358022L245.32485576923077,154.9916059503602L245.41052884615385,139.49812194881713L246.11733173076922,125.56135814891984L246.33151442307692,127.00969510976515L246.695625,133.85117031159425L247.18824519230768,137.2711128295805L247.40242788461538,141.79581010945714L247.50951923076923,124.23969288234755L247.61661057692308,132.5859025571635L247.8736298076923,135.96433569514102L248.04497596153846,134.81743900491801L248.36625,139.20298246451623L248.75177884615383,129.1164678687358L248.81603365384615,121.64948464360859L248.88028846153847,133.77655928687466L249.15872596153847,150.21903254602077L249.37290865384614,139.5662883878572L249.4157451923077,136.6500829315676L249.80127403846154,141.63431569674574L250.74367788461538,135.07847441875313L250.95786057692305,130.27490932728875L251.10778846153846,132.16294519296903L251.2148798076923,125.56390166396866L251.5575721153846,128.92939107486592L251.7075,115.56102028411023L251.72891826923077,115.49816083265179L251.94310096153848,124.80989235253827L251.9859375,112.92227903373063L252.1144471153846,107.2595225415648L252.64990384615385,134.70818158638605L252.79983173076923,148.16794803531243L252.92834134615384,154.20200937265912L253.18536057692307,151.58333892389987L253.63514423076924,156.84740807273897L253.87074519230768,150.20843084847283" style="fill: none;" fill="none"></path></g></g></g></g><g opacity="0.2"><g><g><g><path stroke="rgb(255, 112, 67)" stroke-width="2px" d="M21.503942307692306,11.391159564256668L21.80379807692308,29.42782905697821L22.424927884615386,54.98670828342436L22.74620192307692,138.72746494412422L22.767620192307692,64.89612427353859L22.938966346153848,105.14894244074821L23.067475961538463,55.96957471966742L23.174567307692307,60.06399434804916L23.32449519230769,73.60362899303436L23.62435096153846,99.40115851163864L23.710024038461537,76.94732663035393L24.15980769230769,99.80298247933388L24.20264423076923,87.87881997227669L24.7809375,69.33227670192719L24.845192307692304,78.5132576227188L24.888028846153844,145.66951137781143L24.930865384615384,116.44863155484198L25.10221153846154,100.20907041430473L25.509158653846153,152.09192526340485L25.766177884615384,62.11733636260031L25.809014423076924,84.28649348020552L26.323052884615386,137.59026047587395L26.64432692307692,110.74920189380646L26.665745192307693,87.38182601332664L26.96560096153846,106.04569432139397L27.222620192307694,119.70467609167099L27.286875000000002,80.50787118077277L27.458221153846154,78.7856240272522L27.52247596153846,103.6280248761177L27.736658653846156,109.33694955706596L28.18644230769231,122.51120176911353L28.250697115384614,89.80239671468735L28.314951923076922,61.44046452641487L28.828990384615384,142.0185003876686L29.08600961538462,115.14623132348059L29.21451923076923,108.66117668151855L29.25735576923077,91.4724652171135L29.514374999999998,102.50031542778014L29.685721153846153,152.28714463114738L29.771394230769232,95.96040067076683L30.02841346153846,117.50508439540862L30.306850961538462,104.46688351035118L30.756634615384616,122.03570348024368L30.778052884615388,130.66258844733238L30.82088942307692,119.55020618438719L30.970817307692307,95.71216744184493L31.292091346153846,63.891322582960115L31.377764423076922,92.70097133517265L31.591947115384617,129.1544188261032L31.69903846153846,84.2886474430561L31.72045673076923,106.18640524148941L31.848966346153848,78.19003131985663L32.341586538461534,130.9865180850029L32.38442307692308,100.14590215682983L32.40584134615384,99.42261022329329L32.49151442307692,105.99593338370322L32.83420673076923,92.20428508520125L32.941298076923076,110.89611095190048L32.98413461538462,134.85934329032898L33.24115384615384,100.42851087450981L33.32682692307692,139.5842586159706L33.45533653846154,129.87674367427826L34.05504807692308,67.55596068501472L34.14072115384615,58.60422295331955L34.183557692307694,182.87913170456886L34.89036057692308,104.71190777420998L35.06170673076923,108.22576847672462L35.190216346153846,105.99035066366196L35.21163461538462,132.79022020101547L35.511490384615385,120.74310597777367L35.70425480769231,97.43019458651543L35.87560096153846,50.87927696108817L36.86084134615385,68.21384248137474L36.94651442307692,108.89740926027298L37.35346153846154,131.267368465662L37.78182692307693,114.60730102658272L38.01742788461538,97.00617161393166L38.03884615384615,102.64335614442825L38.16735576923077,114.61002644896506L38.29586538461538,143.60504788160324L38.638557692307685,112.98905950784683L38.65997596153846,117.53589925169945L38.7028125,104.82312259078026L38.95983173076923,135.01653861999512L39.238269230769234,93.09993800520897L39.77372596153846,98.03378772735596L39.96649038461538,110.56506004929543L40.073581730769234,107.01554906368256L40.394855769230766,128.65496319532394L40.716129807692305,139.2522845864296L41.33725961538461,144.95470342040062L41.59427884615385,122.20960301160811L41.744206730769235,143.14845171570778L42.815120192307695,138.50683760643005L42.879374999999996,162.77426224946976L42.92221153846153,135.9992292225361L43.1578125,90.60569298267363L43.307740384615386,149.3836027085781L43.393413461538465,122.01491114497185L43.43625,142.04351273179054L43.629014423076924,80.43257039785384L44.035961538461535,103.21112316846846L44.33581730769231,85.37521180510521L44.35723557692308,138.06870397925377L44.4857451923077,126.05926212668419L44.67850961538461,156.76949736475945L44.935528846153844,137.2417141199112L45.02120192307692,125.4865717589855L45.06403846153846,139.06471398472786L45.17112980769231,74.20502421259879L45.213966346153846,106.52426970005035L45.428149038461534,113.24696359038352L45.51382211538461,104.34494283795357L45.66375,131.3208658695221L45.96360576923077,125.53954166173935L46.07069711538462,84.20855519175528L46.09211538461539,102.93449279665947L46.349134615384614,160.18845182657242L46.56331730769231,130.3516265451908L46.606153846153845,126.75455254316329L46.7775,152.31637698411942L46.97026442307693,123.07558399438858L46.9916826923077,133.03234320878983L47.50572115384615,149.35749140381813L47.65564903846154,111.38756614923477L48.10543269230769,105.51683050394057L48.21252403846154,131.59024310112L48.23394230769231,103.73216238617896L48.276778846153846,120.27916875481606L48.341033653846154,166.62620720267296L48.42670673076923,101.53683465719222L48.55521634615385,127.52672624588013L48.64088942307693,122.12080699205399L48.74798076923077,122.34978643059729L49.21918269230769,142.47285467386246L49.79747596153846,91.43527638912201L50.22584134615385,129.38920077681541L50.54711538461538,128.30492225289345L50.63278846153846,107.77405169606209L50.86838942307692,147.14919593930244L50.88980769230769,95.0934526026249L51.76795673076923,134.43136405944824L52.21774038461539,87.87156683206558L52.23915865384616,108.98866695165634L52.6246875,59.89044648408889L52.64610576923077,95.35707128047943L52.98879807692308,120.14373284578323L53.03163461538462,109.49651864171028L53.41716346153846,167.9488283097744L53.588509615384616,87.9607145190239L53.759855769230775,103.68257728219031L53.82411057692308,71.67882141470908L53.88836538461539,106.15884330868721L54.145384615384614,51.21274557709694L54.573750000000004,158.20113536715508L54.63800480769231,118.2644661962986L54.93786057692307,99.42845669388771L55.00211538461539,138.11116781830788L55.10920673076923,114.26477697491644L55.36622596153846,68.76903739571571L55.60182692307693,94.6148772239685L55.708918269230765,128.69584453105927L55.75175480769231,121.71291676163673L56.26579326923077,111.9758617579937L56.43713942307693,118.72642529010773L57.18677884615385,130.2920628786087L57.379543269230766,130.60702499747276L57.50805288461538,123.09743133187294L57.87216346153846,112.11002287268639L57.915,121.64152827858925L57.97925480769231,119.90380775928497L58.064927884615386,98.99137806892394L58.214855769230766,108.53703808784483L58.79314903846154,136.12930220365524L59.43569711538461,97.5673448741436L59.478533653846156,147.49848958849907L59.73555288461539,102.64551010727881L59.799807692307695,108.53567537665367L59.97115384615385,148.27083912491798L60.9778125,121.15104016661643L61.06348557692308,137.72222366929054L61.25625,125.63383248448372L61.40617788461539,150.59856963157654L61.855961538461536,121.72570866346359L62.0915625,168.5109246969223L62.15581730769231,106.18121814727782L62.284326923076925,108.97222650051116L62.3057451923077,111.6523717045784L62.62701923076923,101.22116920351982L62.88403846153846,149.08468541502953L62.96971153846154,122.65837457776068L63.07680288461539,111.35525670647621L63.119639423076926,83.25755861401558L63.39807692307692,115.04881945252419L63.41949519230769,192.02470411360264L63.52658653846154,141.7183082997799L63.7621875,65.08888196945189L63.80502403846154,157.4574467241764L65.75408653846154,114.99048662185668L65.94685096153846,155.7472002208233L66.16103365384616,124.48968258500099L66.39663461538461,62.19228547811508L66.69649038461539,104.24994868040085L66.71790865384615,152.85091143846512L66.80358173076924,122.63617557287216L66.825,112.07722988724707L66.97492788461538,83.33879378437996L67.23194711538461,94.99243614077568L67.87449519230769,126.86453652381896L68.40995192307692,74.03899323940276L68.73122596153847,113.8677444756031L68.85973557692307,121.04114410281181L69.37377403846153,120.85317787528038L69.48086538461538,133.19789063930511L70.27334134615384,70.63924860954283L71.02298076923077,95.11213493347167L71.08723557692308,160.4650382399559L71.57985576923078,100.08031618595123L71.94396634615384,106.35823872685432L72.58651442307692,130.93209755420685L72.69360576923077,120.91111508011818L73.59317307692308,138.71243116259575L73.70026442307692,111.04838293790817L73.97870192307691,82.18611595034598L74.15004807692307,85.9883878827095L74.21430288461539,84.32917711138725L74.64266826923078,84.27466866374016L74.92110576923078,117.29869958758353L75.02819711538461,115.32852691411972L75.32805288461539,78.10998302698134L75.37088942307692,132.39547353982925L75.56365384615385,102.51253587007523L75.6064903846154,133.11230358481407L76.37754807692308,117.09253457188606L76.61314903846153,117.80193564295767L76.63456730769231,125.52824434638022L76.84875000000001,109.64290019869804L77.08435096153846,73.23134508728981L77.23427884615386,129.59373933076859L77.51271634615385,98.93317711353302L77.68406250000001,123.9336524605751L77.85540865384615,107.15608415007591L77.94108173076924,120.44603493809699L78.02675480769231,126.10506680607794L78.43370192307692,154.25292146205902L78.60504807692308,153.8905721604824L78.69072115384616,125.98950010538101L78.84064903846154,124.992654889822L78.90490384615386,147.44055238366127L78.94774038461537,153.2582741677761L79.0119951923077,127.92072561383246L79.09766826923077,151.79481026530266L79.29043269230769,114.2177854180336L79.4189423076923,90.83018866181374L79.52603365384616,104.07974165678024L79.61170673076924,116.74908739328384L79.86872596153846,92.86796939373016L79.89014423076924,118.8830931186676L79.97581730769231,96.2631423473358L80.08290865384615,124.2812756896019L80.10432692307693,122.96384167671204L80.38276442307692,115.38567286729813L80.4041826923077,109.74760916829109L80.42560096153846,163.2829051911831L80.53269230769232,87.82756444811821L80.63978365384615,170.25827211141586L80.70403846153846,144.32227355241776L80.91822115384615,166.72559720277786L81.06814903846154,123.48066088557243L81.64644230769231,132.58414310216904L82.11764423076923,159.7935293316841L82.33182692307693,143.59124493598938L82.6959375,144.86608323454857L82.71735576923076,127.90270265936852L83.91677884615385,99.36559614539146L83.98103365384615,137.17485335469246L84.25947115384615,121.8712110519409L84.645,118.24380573630333L84.70925480769232,96.30995807051657L84.8591826923077,114.77588158845901L84.92343749999999,174.16226384043694L85.09478365384615,119.88811460137367L85.37322115384616,153.66941732168198L85.58740384615385,112.9683111310005L86.08002403846154,116.6548844873905L86.40129807692307,98.10284641385078L86.67973557692306,118.84854179620743L87.45079326923077,119.72524863481522L87.47221153846155,185.03601779043674L87.87915865384616,126.50908869504929L87.90057692307693,93.63196682929991L87.92199519230769,110.82995352149008L88.13617788461539,133.02267235517502L88.22185096153846,121.378525018692L88.24326923076923,105.2485082745552L88.26468750000001,110.78076404333113L88.37177884615384,168.72324389219284L88.41461538461539,161.89584103226662L88.77872596153846,148.11105024814606L89.3784375,112.12026518583298L89.48552884615384,106.04332056641579L89.78538461538461,138.55593916773796L89.93531250000001,145.92438232898712L90.04240384615385,105.62866073846816L90.32084134615384,144.1724632382393L90.38509615384616,102.13625174760818L90.57786057692307,143.25487506389618L90.8348798076923,121.97618377208708L91.34891826923078,155.97732257843018L91.41317307692307,108.21126219630241L92.22706730769231,123.89145237207413L92.95528846153846,115.43842297792435L93.29798076923076,123.06270417571066L93.68350961538462,110.90345200896263L93.79060096153846,119.28188395500183L93.89769230769231,124.09814488887787L93.91911057692307,166.4538901746273L94.09045673076923,149.5871741771698L94.32605769230769,88.05817034840584L94.62591346153846,135.65551829338074L94.79725961538462,101.38051849603653L94.96860576923076,180.96214872598648L95.54689903846153,118.02665111422537L96.01810096153847,129.1035149693489L96.03951923076923,126.30542930960655L96.0609375,117.89873209595679L96.18944711538462,160.44736695289612L96.23228365384615,150.6079327762127L96.38221153846153,142.18132239580154L96.93908653846154,86.82016921043396L97.32461538461538,137.5976015329361L97.7958173076923,90.81220966577528L97.86007211538461,122.72347700595856L98.00999999999999,72.51618546247482L98.26701923076924,129.73387879133224L98.52403846153847,112.98321303725241L98.80247596153846,167.58010503649712L98.82389423076923,134.83085823059082L98.86673076923077,97.34161835908888L99.16658653846154,137.10104715824127L99.68062499999999,136.39995422959328L99.74487980769231,131.0788747370243L99.78771634615384,75.55059161782265L99.83055288461539,84.1142204105854L99.8948076923077,84.69055932760237L99.98048076923077,128.1054828763008L100.04473557692309,148.4311994612217L100.4516826923077,126.4855709373951L100.66586538461539,150.29059690237045L100.92288461538462,107.66521063446997L101.02997596153847,104.49383002519608L101.6296875,123.69843092560768L101.65110576923077,83.57260864973068L101.69394230769231,96.83055770397186L101.80103365384616,148.59019708633423L101.82245192307693,174.89109453558922L101.9723798076923,133.52929320931435L102.01521634615384,100.12225252389908L102.42216346153846,104.69296169281006L102.44358173076922,109.34200477600096L102.52925480769231,139.46904358267784L102.59350961538462,146.78746205568314L103.08612980769232,115.9660120010376L103.83576923076923,109.1326307952404L103.87860576923077,97.39520367980003L104.09278846153846,105.70000526309012L104.28555288461538,186.17071662843227L104.99235576923077,74.99170419573784L105.18512019230769,119.07989498972893L105.27079326923078,122.68180441856384L105.39930288461538,113.80233433842659L105.65632211538461,147.89697271585464L105.72057692307693,181.498353600502L106.0846875,134.99671337008476L106.363125,133.7345790565014L106.55588942307692,100.79389330744743L106.68439903846155,96.36218068003653L107.34836538461539,112.17257571220397L107.39120192307692,138.0498458147049L107.58396634615384,100.13262671232222L107.8195673076923,140.24416249990463L107.94807692307691,155.15890461206436L108.0980048076923,119.11049005389214L108.89048076923078,108.58543631434439L109.4259375,103.86535641551016L109.55444711538462,103.68477520346642L109.68295673076923,116.96967077255248L109.74721153846153,134.4482001364231L110.21841346153846,99.91714251041411L110.43259615384615,108.36190772056578L110.96805288461539,105.8198798894882L111.20365384615386,143.42125770449638L111.5249278846154,147.9602288901806L111.82478365384615,161.31695252656937L111.95329326923077,165.09869587421417L112.36024038461538,169.99293905496597L112.42449519230769,122.97025960683821L112.48875000000001,161.77781265974045L112.59584134615385,131.02309149503708L113.10987980769231,106.27287146449088L113.90235576923077,165.32494989037514L114.00944711538462,184.11267106235027L114.11653846153847,144.30592101812363L114.24504807692308,125.17982986569403L115.14461538461538,101.88841414451598L115.2088701923077,150.08838814496994L115.55156249999999,182.63536025583744L115.72290865384615,136.39766839146614L115.80858173076922,105.85856330394745L116.12985576923077,123.81769013404845L116.17269230769232,125.61440286040306L116.40829326923077,94.83458143472672L116.57963942307693,107.6306593120098L116.81524038461538,137.33965349197388L117.07225961538461,135.69323462247849L117.56487980769231,143.51708707213402L117.69338942307692,97.27365863323212L118.3359375,114.25875467061996L118.5501201923077,109.38099589943886L118.63579326923077,137.8360320329666L119.17125,103.38937458395958L119.25692307692309,128.18597075343132L119.3854326923077,101.29928332567215L119.55677884615385,124.1585877239704L120.07081730769231,135.8306926190853L120.13507211538462,120.67220103740691L120.19932692307692,167.65654873847961L120.99180288461538,119.35358014702796L121.09889423076923,152.39145797491074L121.18456730769232,129.74152755737305L121.20598557692307,89.63447552919388L121.37733173076923,145.0415652692318L121.61293269230768,103.15498825907707L121.78427884615384,119.91668757796286L121.86995192307693,137.4853317141533L121.91278846153845,126.86084401607512L122.04129807692307,133.98641687631607L122.21264423076923,105.90243381261824L122.23406250000001,168.66776835918427L122.42682692307693,97.57152092456818L122.72668269230769,90.0610480904579L122.87661057692307,120.83335262537001L123.3478125,138.3759733736515L123.49774038461538,97.77091634273529L123.62625,130.44310402870178L123.71192307692307,117.92616215348242L123.73334134615385,106.8373855650425L124.31163461538462,98.94271609187125L124.37588942307691,103.66833475232123L124.44014423076923,141.7555410861969L124.52581730769231,158.29722848534584L124.86850961538461,125.01577702164649L124.91134615384615,94.12214723229407L124.95418269230768,133.91880881786346L124.97560096153846,134.4357159435749L124.99701923076923,95.36973130702972L125.16836538461538,115.34997862577437L125.98225961538462,130.03820297122002L126.26069711538462,88.70233711600302L126.58197115384614,140.444085419178L126.98891826923078,132.33551424741745L127.07459134615385,114.34803423285484L127.22451923076923,128.75413340330124L127.3101923076923,108.16901814937592L127.41728365384614,144.5672098994255L128.08125,86.09489914774893L128.31685096153845,124.99116030335426L129.00223557692308,155.60565409064293L129.51627403846155,157.5067241191864L129.8161298076923,124.99274280667305L129.92322115384616,146.39807832241058L130.20165865384615,120.3176763355732L130.22307692307692,108.650011241436L130.3944230769231,96.15140002965927L130.43725961538462,107.19037172198296L130.54435096153847,88.57094538211823L131.33682692307693,133.66828975081444L131.42249999999999,130.94845008850098L131.50817307692307,159.20804706215858L131.74377403846154,115.03325816988945L131.7651923076923,139.3502679169178L131.80802884615386,114.44285255670547L131.82944711538462,126.70571473240852L132.51483173076923,139.15931251645088L132.7504326923077,135.43207761645317L132.79326923076923,120.19846108555794L132.90036057692308,147.5132156610489L132.9431971153846,144.62699335813522L133.05028846153846,166.9181790649891L133.17879807692307,156.52983602881432L133.32872596153848,129.477864921093L133.60716346153848,97.30267119407654L133.9284375,131.95870262384415L134.12120192307694,126.73718896508217L134.18545673076923,134.1993075311184L134.8280048076923,84.22240209579466L135.320625,121.36643645167351L135.34204326923077,139.46438398957253L135.4062980769231,138.057098954916L135.44913461538462,131.84964177012444L135.5348076923077,127.33304542303085L135.66331730769232,138.00733801722527L136.26302884615384,120.2269901037216L136.434375,119.08464249968529L136.9269951923077,123.6193936765194L137.11975961538462,54.1844670176506L137.1411778846154,140.043712079525L137.44103365384615,84.34623298048972L137.59096153846153,125.54653105139732L138.0407451923077,105.35119515657424L138.19067307692308,97.6890657544136L138.2335096153846,147.28221413493156L138.29776442307693,164.5949762761593L138.34060096153846,110.23537185788155L139.3044230769231,169.11522117257118L139.4115144230769,75.46012517809868L139.43293269230767,132.6611143052578L139.58286057692308,112.47325134277342L139.66853365384614,144.79381558299065L139.7113701923077,128.73140689730644L140.18257211538463,95.09006780385971L140.65377403846153,109.49955177307129L141.44625,127.97853094339371L142.49574519230768,105.33695262670516L142.79560096153847,128.77211239933968L143.22396634615387,111.03928354382515L143.99502403846154,123.5777650475502L144.14495192307692,115.08517307043074L144.3591346153846,144.0019045472145L144.61615384615382,163.26787140965462L144.68040865384614,101.43977445363997L144.7232451923077,116.82764109969138L144.74466346153847,135.6065486073494L145.23728365384613,125.39381948113441L145.4086298076923,145.2479940354824L146.32961538461538,101.23053234815598L147.05783653846154,139.5399485230446L147.33627403846154,146.3393498659134L147.35769230769233,130.2441921532154L147.40052884615383,148.8164511024952L148.8141346153846,144.2289937734604L148.92122596153845,180.82941626012325L148.98548076923078,153.30522176623344L149.15682692307692,178.716049015522L149.5209375,123.93083912134169L149.7137019230769,144.75271445512772L149.8636298076923,142.32295644283295L149.99213942307694,141.60559889674187L150.12064903846155,72.18069475889206L150.1420673076923,119.9984502494335L150.89170673076924,122.62606513500212L151.0630528846154,85.44281986355782L151.55567307692306,102.9420096874237L151.59850961538461,144.1372964978218L151.61992788461538,129.89489850401878L152.21963942307693,157.24442419409752L152.3053125,110.55363085865974L152.34814903846151,167.44866934418678L152.77651442307692,153.85962542891502L152.8836057692308,120.27354207634924L152.9264423076923,128.79299265146255L152.96927884615383,106.04274910688399L153.52615384615385,158.89871162176132L154.3186298076923,119.37406477332115L154.44713942307692,101.24235716462134L154.66132211538462,124.88346216082573L154.7469951923077,146.08175349235535L154.83266826923077,98.63302898406982L155.13252403846153,113.0946036875248L155.3038701923077,142.65976589918137L155.90358173076925,168.72746390104294L155.94641826923075,143.443632543087L156.09634615384616,125.04026186466217L156.2676923076923,82.98950013518332L156.28911057692306,129.50129476189613L156.3533653846154,132.16992285847664L156.65322115384615,106.09321337938309L156.95307692307694,90.31578716635704L157.03875,109.55546689033508L157.08158653846152,122.48465088009834L157.36002403846152,110.42201933264732L157.59562499999998,117.53172320127486L157.61704326923075,76.87914711236954L157.72413461538463,119.41859465837477L157.76697115384616,133.11472129821777L157.83122596153848,104.88624688982964L158.62370192307694,163.14491969347L159.00923076923075,131.09707352519035L159.4161778846154,110.41784328222273L159.54468749999998,113.80171892046928L159.7588701923077,91.63735327124594L160.05872596153847,137.09599193930626L160.4442548076923,158.48932680487633L160.5085096153846,153.31612345576286L160.52992788461538,134.62170404195786L161.23673076923075,115.46457824110983L161.30098557692307,158.74463734030724L161.49374999999998,109.97821506857872L161.62225961538462,136.90345403552055L161.72935096153847,143.8975032866001L162.00778846153844,120.93454492092133L162.1148798076923,122.72180658578871L162.4575721153846,107.30563071370125L162.56466346153846,141.2936259508133L162.6717548076923,165.02097737789154L162.7574278846154,134.6704539358616L163.1001201923077,140.4446568787098L163.39997596153844,193.02673642337322L163.82834134615385,134.11974278092384L164.08536057692308,144.68475472927094L164.3423798076923,78.74570977687836L165.0920192307692,175.78643974661827L165.24194711538462,152.83029493689537L165.34903846153844,166.98864442110062L165.391875,143.79903641343117L165.43471153846153,102.54805427789687L165.56322115384617,163.49948835372925L165.64889423076923,137.68965047597885L165.99158653846155,116.44432362914085L166.22718749999999,112.65137088298798L166.54846153846154,105.58571335673332L166.74122596153845,159.2205752134323L167.10533653846153,158.3597373664379L167.51228365384617,155.64205166697502L167.72646634615384,156.01750057935715L167.85497596153846,105.57107520103455L167.9620673076923,139.7342887222767L168.00490384615387,190.70779760181904L168.13341346153845,119.73316115140915L168.3261778846154,117.55858179926872L168.66887019230768,142.46318382024765L169.5041826923077,140.58826905488968L169.54701923076922,152.94410330057144L169.61127403846154,146.00210082530975L169.84687499999998,135.52315947413445L169.9968028846154,109.61410742998123L170.46800480769232,152.40912926197052L170.8106971153846,150.89489337801933L171.1533894230769,146.64903697371483L171.26048076923078,132.39982542395592L171.3033173076923,116.46542367339134L171.36757211538463,110.7004080414772L171.7316826923077,160.13869088888168L171.9458653846154,154.1802581846714L171.96728365384615,107.90355321764946L172.28855769230768,66.36284109950066L172.5027403846154,84.65060111880301L173.20954326923078,83.8633496761322L173.70216346153845,128.83910503983498L173.85209134615386,123.07070460915565L173.91634615384615,111.96491611003876L174.04485576923076,160.5153266787529L174.85875000000001,146.64398175477982L175.1371875,90.48458752036095L175.15860576923077,156.5120768249035L175.2014423076923,104.62733176350592L175.32995192307692,151.82074573636055L175.39420673076924,126.05011877417564L175.7797355769231,106.68375086784363L176.1652644230769,104.69595086574554L176.67930288461537,108.89815655350685L176.76497596153845,115.59135434031487L177.02199519230768,133.47874101996422L177.2147596153846,113.49761453270912L177.81447115384614,153.04933977127075L177.9429807692308,146.83361840248108L178.49985576923078,147.89270874857903L178.58552884615384,149.95387536287308L178.62836538461536,112.00311598181723L178.9068028846154,121.11596134304999L179.01389423076924,139.06906586885452L179.1209855769231,145.9979687333107L179.20665865384615,155.2135009765625L179.42084134615382,102.6382569670677L179.5921875,94.56621524691582L180.2775721153846,147.6235073506832L180.4275,120.19059252738951L180.66310096153848,183.62141367793083L180.68451923076924,115.12376856803894L180.74877403846156,105.3078521490097L180.81302884615383,112.00755578279495L181.2842307692308,103.68939083814621L181.36990384615385,127.46417340636252L181.41274038461538,108.5249055624008L181.6697596153846,159.7548898756504L182.18379807692307,111.61272120475769L182.44081730769233,130.56315448880196L182.61216346153847,147.29346749186516L182.74067307692306,164.42665946483612L182.97627403846155,150.70099276304245L183.1476201923077,139.74409145116806L183.19045673076923,156.00400534272194L183.31896634615384,129.82104834914207L183.44747596153846,105.04001346230507L184.0471875,117.43976217508316L184.1971153846154,133.43267259001732L184.23995192307692,144.9908812046051L184.28278846153847,139.2919350862503L184.34704326923077,97.00111639499663L185.0110096153846,148.36073410511017L185.03242788461537,113.68377846479416L185.13951923076922,158.28338158130646L185.439375,99.27073386311531L185.48221153846154,115.54304403066634L185.5036298076923,91.76689875125885L186.78872596153846,90.7547120451927L186.91723557692308,159.20395892858505L186.98149038461537,162.9566017985344L187.5383653846154,140.49098905920982L187.55978365384615,142.382432192564L187.62403846153848,130.71098667383194L187.64545673076924,93.95435792207718L188.3522596153846,136.26891416311264L188.37367788461538,133.46836683154106L188.9305528846154,132.8039352297783L189.29466346153848,175.89919310808182L189.38033653846153,128.19010284543037L189.5516826923077,108.4812548458576L189.65877403846153,106.07088249921799L189.6801923076923,99.41280749440193L189.80870192307694,95.97701695561409L190.23706730769229,120.15226078033447L190.5155048076923,76.38501045107841L190.64401442307692,145.84275153279305L190.98670673076924,142.33183604478836L191.17947115384615,151.96352270245552L191.2223076923077,154.37837880849838L191.24372596153847,124.1543237566948L192.4645673076923,88.72233819961548L193.32129807692309,139.49383613467216L193.38555288461538,109.66567066311836L193.40697115384617,141.66226130723953L193.4498076923077,120.16725060343741L193.74966346153846,159.13301002979279L193.9210096153846,138.49923279881477L194.4136298076923,153.17440149188042L194.43504807692307,146.42199170589447L194.82057692307694,77.03599077463149L195.37745192307693,141.07242715358734L195.54879807692308,121.85644102096556L195.8058173076923,151.71678406000137L195.84865384615384,129.4589627981186L196.25560096153848,94.72195994853973L196.2770192307692,96.7843573987484L196.72680288461538,114.79381662607193L196.87673076923076,134.0639155805111L197.04807692307693,137.77580899000168L197.0694951923077,130.95359322428703L197.39076923076922,172.7923874258995L197.66920673076922,115.87994140386581L197.69062499999998,119.60018691420554L198.2260817307692,153.22534930706024L198.69728365384617,111.33767333626746L198.82579326923076,161.85781699419022L198.89004807692308,110.57011526823044L198.91146634615384,75.5132709145546L198.99713942307693,190.36235031485558L199.10423076923075,109.32332244515419L199.21132211538463,114.22987398505211L200.23939903846153,132.08846789598465L200.30365384615385,167.88777005672455L200.53925480769232,122.39436027407645L200.73201923076923,140.38364258408546L200.83911057692308,117.7677799463272L201.26747596153845,158.3633419573307L201.5673317307692,119.28834584355354L201.6744230769231,156.66184318065643L202.10278846153844,90.45166265964507L202.55257211538463,123.47613316774367L202.6382451923077,82.93477189540862L203.28079326923077,140.86780068278313L203.55923076923077,148.39181271195412L203.92334134615385,110.70814472436905L204.11610576923076,155.99631261825562L204.3088701923077,181.98198419809341L204.50163461538463,163.88412457704544L204.63014423076922,153.57675296068192L204.65156249999998,117.29650166630745L204.82290865384613,121.4303959608078L205.6368028846154,134.61893466114998L205.74389423076923,123.12547680735587L206.00091346153846,157.29836118221283L206.04375,147.15992179512978L206.06516826923078,153.0753631591797L206.1936778846154,154.707539498806L206.8790625,180.11388298869133L206.9647355769231,105.72875407338141L207.6287019230769,115.41565251350401L207.75721153846155,154.2388108074665L208.03564903846154,125.22115078568459L208.14274038461537,131.8044964671135L208.27125,140.2000282406807L208.69961538461536,135.41396674513817L208.87096153846156,137.39174422621727L208.9137980769231,136.3800850212574L209.385,166.15018141269684L209.42783653846155,103.21877193450926L209.64201923076922,175.9158533513546L209.8776201923077,128.5572875738144L209.96329326923077,155.75133231282234L210.15605769230768,115.55051696300507L210.32740384615386,123.91329970955847L210.39165865384615,132.65944388508797L210.60584134615385,113.44776567816734L211.29122596153846,137.06843000650406L211.3983173076923,142.23811668157578L211.5482451923077,150.7749308347702L211.78384615384616,162.66383868455887L211.91235576923077,118.85021221637724L212.06228365384615,117.53897634148596L212.40497596153847,124.74714708328246L212.49064903846156,146.95037198066711L212.89759615384614,117.55418595671654L213.45447115384616,113.64905130863188L213.54014423076924,132.06895035505295L213.73290865384615,180.37449051439762L213.86141826923077,159.61132165789604L213.88283653846156,140.06639462709427L213.9685096153846,128.9123837351799L214.3112019230769,111.05277878046036L214.8894951923077,143.76277071237564L215.2321875,97.37203758955002L215.42495192307692,108.59317299723625L215.57487980769233,98.47877886891364L215.68197115384615,112.66438257694244L216.6886298076923,211.7805216908455L216.77430288461537,124.31253013014793L217.43826923076924,139.99636885523796L217.60961538461538,118.78321957588194L217.63103365384615,142.53180292248726L217.6738701923077,168.86281189322472L217.69528846153847,183.59473091363907L218.18790865384614,155.38036715984344L218.25216346153846,131.97624203562737L218.31641826923078,172.32959312200546L218.46634615384616,170.44698563218117L218.53060096153845,112.42766645550728L218.6376923076923,160.40604603290558L218.7233653846154,77.25354102253914L218.9161298076923,118.72290861606598L218.93754807692306,98.5099014341831L219.02322115384615,126.3176057934761L219.1945673076923,145.39191392064095L219.58009615384614,122.76123729348181L219.60151442307694,150.80816340446472L220.41540865384616,116.29104059934615L220.6724278846154,142.22954478859901L220.71526442307692,122.13689577579498L220.8651923076923,183.11474886536598L221.079375,174.03012481331825L221.1007932692308,110.8645488023758L221.18646634615385,124.65914231538773L221.22930288461538,105.73178720474242L221.31497596153847,124.52251952886581L221.3792307692308,118.34438261389732L221.5719951923077,154.934892475605L221.72192307692308,114.03461065888405L221.87185096153846,128.1692225933075L222.00036057692307,129.57580429315567L222.02177884615384,110.5545539855957L222.15028846153848,129.89278849959373L222.2573798076923,148.36737182736397L222.4715625,125.3382560312748L222.6857451923077,80.32715809345245L222.8142548076923,140.07821944355965L223.13552884615385,142.1971474289894L223.56389423076925,131.37414348125458L223.62814903846152,92.25932103395462L223.67098557692307,108.3989207148552L223.94942307692307,170.85430440306664L224.12076923076924,144.2265760600567L224.24927884615383,155.93384769558907L224.29211538461539,123.29656299948692L224.6348076923077,156.4002465903759L224.65622596153847,186.93528552353382L224.67764423076923,149.9508861899376L224.72048076923076,121.32546719908714L225.3201923076923,137.32268553972244L225.4058653846154,124.36387357115746L225.70572115384616,153.22007429599762L225.89848557692306,153.2977048754692L226.09125,120.45390349626541L226.3054326923077,148.1736910045147L226.41252403846153,116.37025368213654L226.88372596153846,157.85711672902107L227.0550721153846,107.39530590176582L227.18358173076925,83.39888495206833L227.46201923076924,171.76248547434807L228.16882211538461,118.90735816955566L228.49009615384617,119.50198379158974L228.55435096153846,161.9645920097828L228.57576923076925,81.25947234034538L228.64002403846152,107.95647916197777L228.83278846153848,151.77955669164658L228.91846153846154,126.9328039586544L229.00413461538463,108.34445622563362L229.26115384615383,196.92987096309662L229.28257211538462,133.31578713655472L229.43249999999998,159.52881169319153L229.94653846153847,146.02869567275047L229.989375,142.1363529264927L230.31064903846152,110.07342901825905L230.3320673076923,96.43462416529655L230.46057692307693,138.94497123360634L230.52483173076922,121.98616233468056L230.71759615384616,144.1097345650196L231.06028846153848,68.97005927562714L231.12454326923077,200.94848428666592L231.27447115384615,116.10769000649452L231.5957451923077,115.03079649806023L231.83134615384617,116.30488750338553L232.10978365384616,143.0893276333809L232.38822115384616,143.42534583806992L232.7523317307692,142.48366844654083L232.90225961538462,121.53769847750662L233.30920673076923,124.32444286346436L233.330625,151.87037479877472L233.4805528846154,188.63260824978352L233.5448076923077,127.19602701067924L233.6090625,123.35669812560081L233.80182692307693,141.94210064411163L233.8232451923077,108.04953914880753L234.2301923076923,101.67838078737259L234.40153846153845,145.37683618068695L234.48721153846154,132.5756151676178L234.5086298076923,185.73387977480888L234.53004807692307,146.839508831501L234.65855769230768,142.85199609398842L234.74423076923077,143.1744311451912L235.02266826923076,77.60806572437285L235.12975961538461,93.11835658550262L235.1511778846154,124.3050132393837L235.21543269230767,115.10077831149101L235.32252403846152,56.39711436629294L235.45103365384617,121.40375715494156L236.9503125,148.1052916944027L237.52860576923078,73.90979942679405L238.19257211538462,128.81796103715897L238.27824519230768,127.68730637431143L238.29966346153844,107.40370196104048L238.55668269230767,137.10759696364403L239.1778125,116.72653672099113L239.3277403846154,147.6116385757923L239.64901442307692,148.5366117656231L239.69185096153845,130.22986170649529L240.05596153846153,104.67045497894286L240.2058894230769,128.12785771489143L240.24872596153844,103.73414051532744L240.4200721153846,122.89021131396292L241.36247596153845,175.22746440768242L241.4909855769231,133.3300296664238L241.59807692307692,98.81879729032516L241.94076923076923,98.95313423871993L242.09069711538461,120.25200244784355L242.79749999999999,163.75844743847847L242.92600961538463,126.35171753168106L242.99026442307692,115.74538466334343L243.0116826923077,146.33381110429764L243.65423076923076,148.2449036538601L244.06117788461538,139.70066052675247L244.2539423076923,168.93323329091072L244.48954326923078,133.86764121055603L245.13209134615386,129.23319232463837L245.26060096153847,135.8256374001503L245.28201923076924,151.32709261775017L245.32485576923077,173.10453620553017L245.41052884615385,116.25789594650269L246.11733173076922,104.65621244907378L246.33151442307692,129.18220055103302L246.695625,144.11338311433792L247.18824519230768,142.40102660655975L247.40242788461538,148.58285602927208L247.50951923076923,97.90551704168318L247.61661057692308,145.10521706938744L247.8736298076923,141.03198540210724L248.04497596153846,133.0970939695835L248.36625,145.7812976539135L248.75177884615383,113.98669597506523L248.81603365384615,110.44900980591774L248.88028846153847,151.96717125177383L249.15872596153847,174.88274243474007L249.37290865384614,123.58717215061186L249.4157451923077,132.27577474713326L249.80127403846154,149.11066484451294L250.74367788461538,125.24471250176428L250.95786057692305,123.06956169009207L251.10778846153846,134.9949989914894L251.2148798076923,115.66533637046814L251.5575721153846,133.9776251912117L251.7075,95.50846409797668L251.72891826923077,115.40387165546417L251.94310096153848,138.7774896323681L251.9859375,95.0908590555191L252.1144471153846,98.76538780331612L252.64990384615385,175.88117015361786L252.79983173076923,168.3575977087021L252.92834134615384,163.25310137867928L253.18536057692307,147.65533325076103L253.63514423076924,164.74351179599762L253.87074519230768,140.24996501207352" style="fill: none;" fill="none"></path></g></g></g></g></g><g><g opacity="0.399894"><span fill="rgb(0, 0, 0)" stroke="none" stroke-width="1px">Alt + Scroll to Zoom</span></g></g></g><g transform="translate(51, 177)" clip-path="url(#clip_1)"><clipPath id="clip_1"><rect width="278" height="23"></rect></clipPath><g><g><line x1="0" y1="0" x2="0" y2="5" style="visibility: inherit;" fill="rgb(0, 0, 0)" stroke="rgb(204, 204, 204)" stroke-width="1px"></line><line x1="21.418269230769234" y1="0" x2="21.418269230769234" y2="5" style="visibility: inherit;" fill="rgb(0, 0, 0)" stroke="rgb(204, 204, 204)" stroke-width="1px"></line><line x1="42.83653846153847" y1="0" x2="42.83653846153847" y2="5" style="visibility: inherit;" fill="rgb(0, 0, 0)" stroke="rgb(204, 204, 204)" stroke-width="1px"></line><line x1="64.2548076923077" y1="0" x2="64.2548076923077" y2="5" style="visibility: inherit;" fill="rgb(0, 0, 0)" stroke="rgb(204, 204, 204)" stroke-width="1px"></line><line x1="85.67307692307693" y1="0" x2="85.67307692307693" y2="5" style="visibility: inherit;" fill="rgb(0, 0, 0)" stroke="rgb(204, 204, 204)" stroke-width="1px"></line><line x1="107.09134615384616" y1="0" x2="107.09134615384616" y2="5" style="visibility: inherit;" fill="rgb(0, 0, 0)" stroke="rgb(204, 204, 204)" stroke-width="1px"></line><line x1="128.5096153846154" y1="0" x2="128.5096153846154" y2="5" style="visibility: inherit;" fill="rgb(0, 0, 0)" stroke="rgb(204, 204, 204)" stroke-width="1px"></line><line x1="149.9278846153846" y1="0" x2="149.9278846153846" y2="5" style="visibility: inherit;" fill="rgb(0, 0, 0)" stroke="rgb(204, 204, 204)" stroke-width="1px"></line><line x1="171.34615384615387" y1="0" x2="171.34615384615387" y2="5" style="visibility: inherit;" fill="rgb(0, 0, 0)" stroke="rgb(204, 204, 204)" stroke-width="1px"></line><line x1="192.76442307692307" y1="0" x2="192.76442307692307" y2="5" style="visibility: inherit;" fill="rgb(0, 0, 0)" stroke="rgb(204, 204, 204)" stroke-width="1px"></line><line x1="214.18269230769232" y1="0" x2="214.18269230769232" y2="5" style="visibility: inherit;" fill="rgb(0, 0, 0)" stroke="rgb(204, 204, 204)" stroke-width="1px"></line><line x1="235.60096153846155" y1="0" x2="235.60096153846155" y2="5" style="visibility: inherit;" fill="rgb(0, 0, 0)" stroke="rgb(204, 204, 204)" stroke-width="1px"></line><line x1="257.0192307692308" y1="0" x2="257.0192307692308" y2="5" style="visibility: inherit;" fill="rgb(0, 0, 0)" stroke="rgb(204, 204, 204)" stroke-width="1px"></line><line x1="278.4375" y1="0" x2="278.4375" y2="5" style="visibility: inherit;" fill="rgb(0, 0, 0)" stroke="rgb(204, 204, 204)" stroke-width="1px"></line></g><g transform="translate(0, 8)"><text x="0" y="0" dx="0em" dy="0.95em" style="text-anchor: middle; visibility: hidden; font-family: Roboto, sans-serif; font-size: 12px; font-weight: 200;" fill="rgb(255, 255, 255)" stroke="none" stroke-width="1px">-1k</text><text x="21.418269230769234" y="0" dx="0em" dy="0.95em" style="text-anchor: middle; visibility: inherit; font-family: Roboto, sans-serif; font-size: 12px; font-weight: 200;" fill="rgb(255, 255, 255)" stroke="none" stroke-width="1px">0</text><text x="42.83653846153847" y="0" dx="0em" dy="0.95em" style="text-anchor: middle; visibility: hidden; font-family: Roboto, sans-serif; font-size: 12px; font-weight: 200;" fill="rgb(255, 255, 255)" stroke="none" stroke-width="1px">1k</text><text x="64.2548076923077" y="0" dx="0em" dy="0.95em" style="text-anchor: middle; visibility: inherit; font-family: Roboto, sans-serif; font-size: 12px; font-weight: 200;" fill="rgb(255, 255, 255)" stroke="none" stroke-width="1px">2k</text><text x="85.67307692307693" y="0" dx="0em" dy="0.95em" style="text-anchor: middle; visibility: hidden; font-family: Roboto, sans-serif; font-size: 12px; font-weight: 200;" fill="rgb(255, 255, 255)" stroke="none" stroke-width="1px">3k</text><text x="107.09134615384616" y="0" dx="0em" dy="0.95em" style="text-anchor: middle; visibility: inherit; font-family: Roboto, sans-serif; font-size: 12px; font-weight: 200;" fill="rgb(255, 255, 255)" stroke="none" stroke-width="1px">4k</text><text x="128.5096153846154" y="0" dx="0em" dy="0.95em" style="text-anchor: middle; visibility: hidden; font-family: Roboto, sans-serif; font-size: 12px; font-weight: 200;" fill="rgb(255, 255, 255)" stroke="none" stroke-width="1px">5k</text><text x="149.9278846153846" y="0" dx="0em" dy="0.95em" style="text-anchor: middle; visibility: inherit; font-family: Roboto, sans-serif; font-size: 12px; font-weight: 200;" fill="rgb(255, 255, 255)" stroke="none" stroke-width="1px">6k</text><text x="171.34615384615387" y="0" dx="0em" dy="0.95em" style="text-anchor: middle; visibility: hidden; font-family: Roboto, sans-serif; font-size: 12px; font-weight: 200;" fill="rgb(255, 255, 255)" stroke="none" stroke-width="1px">7k</text><text x="192.76442307692307" y="0" dx="0em" dy="0.95em" style="text-anchor: middle; visibility: inherit; font-family: Roboto, sans-serif; font-size: 12px; font-weight: 200;" fill="rgb(255, 255, 255)" stroke="none" stroke-width="1px">8k</text><text x="214.18269230769232" y="0" dx="0em" dy="0.95em" style="text-anchor: middle; visibility: hidden; font-family: Roboto, sans-serif; font-size: 12px; font-weight: 200;" fill="rgb(255, 255, 255)" stroke="none" stroke-width="1px">9k</text><text x="235.60096153846155" y="0" dx="0em" dy="0.95em" style="text-anchor: middle; visibility: inherit; font-family: Roboto, sans-serif; font-size: 12px; font-weight: 200;" fill="rgb(255, 255, 255)" stroke="none" stroke-width="1px">10k</text><text x="257.0192307692308" y="0" dx="0em" dy="0.95em" style="text-anchor: middle; visibility: hidden; font-family: Roboto, sans-serif; font-size: 12px; font-weight: 200;" fill="rgb(255, 255, 255)" stroke="none" stroke-width="1px">11k</text><text x="278.4375" y="0" dx="0em" dy="0.95em" style="text-anchor: middle; visibility: hidden; font-family: Roboto, sans-serif; font-size: 12px; font-weight: 200;" fill="rgb(255, 255, 255)" stroke="none" stroke-width="1px">12k</text></g><line x1="0" y1="0" x2="278.4375" y2="0" fill="rgb(0, 0, 0)" stroke="rgb(204, 204, 204)" stroke-width="1px"></line></g></g></g></g></svg>