<svg viewBox="0 0 330 200" xmlns="http://www.w3.org/2000/svg"><g><g><g><g><g><line x1="61.953125" y1="177" x2="56.953125" y2="177" style="visibility: inherit;" fill="rgb(0, 0, 0)" stroke="rgb(204, 204, 204)" stroke-width="1px"></line><line x1="61.953125" y1="154.87499999999997" x2="56.953125" y2="154.87499999999997" style="visibility: inherit;" fill="rgb(0, 0, 0)" stroke="rgb(204, 204, 204)" stroke-width="1px"></line><line x1="61.953125" y1="132.74999999999994" x2="56.953125" y2="132.74999999999994" style="visibility: inherit;" fill="rgb(0, 0, 0)" stroke="rgb(204, 204, 204)" stroke-width="1px"></line><line x1="61.953125" y1="110.62499999999991" x2="56.953125" y2="110.62499999999991" style="visibility: inherit;" fill="rgb(0, 0, 0)" stroke="rgb(204, 204, 204)" stroke-width="1px"></line><line x1="61.953125" y1="88.50000000000011" x2="56.953125" y2="88.50000000000011" style="visibility: inherit;" fill="rgb(0, 0, 0)" stroke="rgb(204, 204, 204)" stroke-width="1px"></line><line x1="61.953125" y1="66.3750000000001" x2="56.953125" y2="66.3750000000001" style="visibility: inherit;" fill="rgb(0, 0, 0)" stroke="rgb(204, 204, 204)" stroke-width="1px"></line><line x1="61.953125" y1="44.25000000000006" x2="56.953125" y2="44.25000000000006" style="visibility: inherit;" fill="rgb(0, 0, 0)" stroke="rgb(204, 204, 204)" stroke-width="1px"></line><line x1="61.953125" y1="22.12500000000004" x2="56.953125" y2="22.12500000000004" style="visibility: inherit;" fill="rgb(0, 0, 0)" stroke="rgb(204, 204, 204)" stroke-width="1px"></line><line x1="61.953125" y1="0" x2="56.953125" y2="0" style="visibility: inherit;" fill="rgb(0, 0, 0)" stroke="rgb(204, 204, 204)" stroke-width="1px"></line></g><g transform="translate(51.953125, 0)"><text x="0" y="177" dx="0em" dy="0.3em" style="text-anchor: end; visibility: hidden; font-family: Roboto, sans-serif; font-size: 12px; font-weight: 200;" fill="rgb(255, 255, 255)" stroke="none" stroke-width="1px">0.265</text><text x="0" y="154.87499999999997" dx="0em" dy="0.3em" style="text-anchor: end; visibility: inherit; font-family: Roboto, sans-serif; font-size: 12px; font-weight: 200;" fill="rgb(255, 255, 255)" stroke="none" stroke-width="1px">0.27</text><text x="0" y="132.74999999999994" dx="0em" dy="0.3em" style="text-anchor: end; visibility: hidden; font-family: Roboto, sans-serif; font-size: 12px; font-weight: 200;" fill="rgb(255, 255, 255)" stroke="none" stroke-width="1px">0.275</text><text x="0" y="110.62499999999991" dx="0em" dy="0.3em" style="text-anchor: end; visibility: inherit; font-family: Roboto, sans-serif; font-size: 12px; font-weight: 200;" fill="rgb(255, 255, 255)" stroke="none" stroke-width="1px">0.28</text><text x="0" y="88.50000000000011" dx="0em" dy="0.3em" style="text-anchor: end; visibility: hidden; font-family: Roboto, sans-serif; font-size: 12px; font-weight: 200;" fill="rgb(255, 255, 255)" stroke="none" stroke-width="1px">0.285</text><text x="0" y="66.3750000000001" dx="0em" dy="0.3em" style="text-anchor: end; visibility: inherit; font-family: Roboto, sans-serif; font-size: 12px; font-weight: 200;" fill="rgb(255, 255, 255)" stroke="none" stroke-width="1px">0.29</text><text x="0" y="44.25000000000006" dx="0em" dy="0.3em" style="text-anchor: end; visibility: hidden; font-family: Roboto, sans-serif; font-size: 12px; font-weight: 200;" fill="rgb(255, 255, 255)" stroke="none" stroke-width="1px">0.295</text><text x="0" y="22.12500000000004" dx="0em" dy="0.3em" style="text-anchor: end; visibility: inherit; font-family: Roboto, sans-serif; font-size: 12px; font-weight: 200;" fill="rgb(255, 255, 255)" stroke="none" stroke-width="1px">0.3</text><text x="0" y="0" dx="0em" dy="0.3em" style="text-anchor: end; visibility: hidden; font-family: Roboto, sans-serif; font-size: 12px; font-weight: 200;" fill="rgb(255, 255, 255)" stroke="none" stroke-width="1px">0.305</text></g><line x1="61.953125" y1="0" x2="61.953125" y2="177" fill="rgb(0, 0, 0)" stroke="rgb(204, 204, 204)" stroke-width="1px"></line></g></g><g transform="translate(61, 0)" clip-path="url(#clip_0)"><clipPath id="clip_0"><rect width="268" height="177"></rect></clipPath><g><g><g><line x1="0" y1="0" x2="0" y2="177" fill="rgb(0, 0, 0)" stroke="rgb(189, 189, 189)" stroke-width="1px" opacity="0.25"></line><line x1="20.618990384615387" y1="0" x2="20.618990384615387" y2="177" fill="rgb(0, 0, 0)" stroke="rgb(189, 189, 189)" stroke-width="1px" opacity="0.25"></line><line x1="41.237980769230774" y1="0" x2="41.237980769230774" y2="177" fill="rgb(0, 0, 0)" stroke="rgb(189, 189, 189)" stroke-width="1px" opacity="0.25"></line><line x1="61.85697115384616" y1="0" x2="61.85697115384616" y2="177" fill="rgb(0, 0, 0)" stroke="rgb(189, 189, 189)" stroke-width="1px" opacity="0.25"></line><line x1="82.47596153846155" y1="0" x2="82.47596153846155" y2="177" fill="rgb(0, 0, 0)" stroke="rgb(189, 189, 189)" stroke-width="1px" opacity="0.25"></line><line x1="103.09495192307693" y1="0" x2="103.09495192307693" y2="177" fill="rgb(0, 0, 0)" stroke="rgb(189, 189, 189)" stroke-width="1px" opacity="0.25"></line><line x1="123.71394230769232" y1="0" x2="123.71394230769232" y2="177" fill="rgb(0, 0, 0)" stroke="rgb(189, 189, 189)" stroke-width="1px" opacity="0.25"></line><line x1="144.33293269230768" y1="0" x2="144.33293269230768" y2="177" fill="rgb(0, 0, 0)" stroke="rgb(189, 189, 189)" stroke-width="1px" opacity="0.25"></line><line x1="164.9519230769231" y1="0" x2="164.9519230769231" y2="177" fill="rgb(0, 0, 0)" stroke="rgb(189, 189, 189)" stroke-width="1px" opacity="0.25"></line><line x1="185.57091346153845" y1="0" x2="185.57091346153845" y2="177" fill="rgb(0, 0, 0)" stroke="rgb(189, 189, 189)" stroke-width="1px" opacity="0.25"></line><line x1="206.18990384615387" y1="0" x2="206.18990384615387" y2="177" fill="rgb(0, 0, 0)" stroke="rgb(189, 189, 189)" stroke-width="1px" opacity="0.25"></line><line x1="226.80889423076923" y1="0" x2="226.80889423076923" y2="177" fill="rgb(0, 0, 0)" stroke="rgb(189, 189, 189)" stroke-width="1px" opacity="0.25"></line><line x1="247.42788461538464" y1="0" x2="247.42788461538464" y2="177" fill="rgb(0, 0, 0)" stroke="rgb(189, 189, 189)" stroke-width="1px" opacity="0.25"></line><line x1="268.046875" y1="0" x2="268.046875" y2="177" fill="rgb(0, 0, 0)" stroke="rgb(189, 189, 189)" stroke-width="1px" opacity="0.25"></line></g><g><line x1="0" y1="177" x2="268.046875" y2="177" fill="rgb(0, 0, 0)" stroke="rgb(189, 189, 189)" stroke-width="1px" opacity="0.25"></line><line x1="0" y1="154.87499999999997" x2="268.046875" y2="154.87499999999997" fill="rgb(0, 0, 0)" stroke="rgb(189, 189, 189)" stroke-width="1px" opacity="0.25"></line><line x1="0" y1="132.74999999999994" x2="268.046875" y2="132.74999999999994" fill="rgb(0, 0, 0)" stroke="rgb(189, 189, 189)" stroke-width="1px" opacity="0.25"></line><line x1="0" y1="110.62499999999991" x2="268.046875" y2="110.62499999999991" fill="rgb(0, 0, 0)" stroke="rgb(189, 189, 189)" stroke-width="1px" opacity="0.25"></line><line x1="0" y1="88.50000000000011" x2="268.046875" y2="88.50000000000011" fill="rgb(0, 0, 0)" stroke="rgb(189, 189, 189)" stroke-width="1px" opacity="0.25"></line><line x1="0" y1="66.3750000000001" x2="268.046875" y2="66.3750000000001" fill="rgb(0, 0, 0)" stroke="rgb(189, 189, 189)" stroke-width="1px" opacity="0.25"></line><line x1="0" y1="44.25000000000006" x2="268.046875" y2="44.25000000000006" fill="rgb(0, 0, 0)" stroke="rgb(189, 189, 189)" stroke-width="1px" opacity="0.25"></line><line x1="0" y1="22.12500000000004" x2="268.046875" y2="22.12500000000004" fill="rgb(0, 0, 0)" stroke="rgb(189, 189, 189)" stroke-width="1px" opacity="0.25"></line><line x1="0" y1="0" x2="268.046875" y2="0" fill="rgb(0, 0, 0)" stroke="rgb(189, 189, 189)" stroke-width="1px" opacity="0.25"></line></g></g></g><g><g><line x1="0" y1="1349.6250000000007" x2="268.046875" y2="1349.6250000000007" fill="rgb(0, 0, 0)" stroke="rgb(153, 153, 153)" stroke-width="1.5px"></line></g></g><g><g><line x1="20.618990384615387" y1="0" x2="20.618990384615387" y2="177" fill="rgb(0, 0, 0)" stroke="rgb(153, 153, 153)" stroke-width="1.5px"></line></g></g><g><g><g><g><g><path stroke="rgb(255, 112, 67)" stroke-width="2px" d="M23.918028846153845,-48.489123465078556L23.959266826923077,30.68227469590028L24.00050480769231,43.0998245597273L24.165456730769233,31.059556423892168L24.557217548076924,86.09939807678084L24.804645432692308,11.147702128431336L24.84588341346154,-7.217989433963714L25.34073918269231,45.72821579764498L25.650024038461538,45.285968258592455L25.670643028846154,16.979638044960502L25.95930889423077,22.392631401945177L26.206736778846157,42.031223651022486L26.26859375,6.778143526352659L26.433545673076924,-16.440379309846683L26.49540264423077,-0.5605918835553558L26.701592548076924,15.817987959222842L27.134591346153847,41.45423829897344L27.19644831730769,17.58541713737024L27.25830528846154,-30.770194594955925L27.753161057692306,36.91008564734876L28.000588942307694,45.27152912032515L28.124302884615386,42.50632946149612L28.165540865384617,20.22075579951593L28.412968749999997,20.08283199253353L28.57792067307692,79.7442728858177L28.660396634615385,47.949044493908396L28.90782451923077,54.725527976270605L29.175871394230768,43.145576992611204L29.60887019230769,57.28019037594021L29.62948918269231,76.11322036562572L29.67072716346154,74.07817964042884L29.815060096153847,44.25150871261097L30.124344951923078,-11.829507674979824L30.206820913461538,-10.906539002760093L30.413010817307693,33.3913791902644L30.51610576923077,6.131204445605517L30.53672475961538,16.05240895719893L30.660438701923077,-11.590517041933268L31.13467548076923,35.17951147692499L31.17591346153846,26.232789474341594L31.196532451923076,19.996805952552787L31.27900841346154,24.143203631977077L31.608912259615384,10.081064281424496L31.712007211538463,24.073971711137247L31.753245192307695,61.225594975080185L32.00067307692308,42.19957003445904L32.08314903846154,77.77085235984104L32.20686298076923,87.46460382503895L32.78419471153846,18.495915117040322L32.866670673076925,-33.62738338579287L32.90790865384616,84.22852801400778L33.588335336538464,61.14140613745655L33.753287259615384,51.50576585454343L33.87700120192307,43.0418803091203L33.89762019230769,70.12339242669066L34.18628605769231,71.9157626293427L34.371856971153846,45.01569108142422L34.53680889423077,-26.985452997839943L35.56775841346154,-14.003905380304904L35.95951923076923,34.06849893061147L36.37189903846154,42.919860590266296L36.59870793269231,27.109322290877646L36.61932692307692,24.387620747840387L36.743040865384614,37.11460418746231L36.8667548076923,79.5448199704013L37.19665865384615,68.26376339165694L37.21727764423077,66.95133713703335L37.258515625,50.908549391156356L37.505943509615385,77.51497597868801L37.77399038461539,43.17891119346357L38.28946514423077,28.49789198890523L38.47503605769231,34.726807252497785L38.57813100961539,34.20474322791763L38.88741586538462,59.858801771139284L39.196700721153846,87.96802256639918L39.79465144230769,111.67645764432028L40.04207932692308,98.60739820052201L40.18641225961539,115.89258097916266L41.217361778846154,120.69375371521372L41.27921875,152.69536692849178L41.32045673076923,139.7662952241386L41.547265625,77.53660871369149L41.69159855769231,110.73228847850856L41.77407451923077,97.8072664610713L41.8153125,114.08657515479129L42.00088341346154,49.92102957029929L42.39264423076923,38.75596554434182L42.681310096153844,10.653833492731435L42.70192908653846,57.0247448707435L42.82564302884616,70.43596147446722L43.01121394230769,115.33497372239178L43.258641826923075,118.8410411773287L43.34111778846154,106.83851081718005L43.38235576923076,115.93076327198159L43.485450721153846,43.55448701830739L43.52668870192308,38.9118158510448L43.73287860576923,44.193445819087174L43.81535456730769,36.679998896996466L43.9596875,64.54303838162437L44.24835336538461,74.32327302306184L44.35144831730769,30.594230043943444L44.37206730769231,26.827929382357524L44.619495192307696,93.27289982130159L44.82568509615385,97.33569174700989L44.86692307692308,95.45687810000184L45.031875,125.00377924094441L45.21744591346154,107.64296833783295L45.23806490384616,109.17459285324763L45.732920673076926,129.6837453965303L45.87725360576923,96.42532661700001L46.31025240384615,69.4253925749288L46.41334735576923,84.51352726630128L46.43396634615385,60.136711223195526L46.47520432692308,65.36702923969658L46.53706129807692,124.12166618702548L46.619537259615385,81.26720130084605L46.74325120192308,86.74239227556369L46.82572716346154,83.54040375580296L46.92882211538461,81.89398597019866L47.382439903846155,105.0538171907541L47.93915264423077,57.70462198139871L48.35153245192308,74.83981412101792L48.660817307692305,83.8197951760827L48.74329326923077,64.57073914092418L48.97010216346153,100.27147861171757L48.99072115384615,59.22503029018024L49.83609975961538,81.8026550454461L50.26909855769231,39.4774732257463L50.28971754807693,39.42288427743543L50.660859375,-19.527733652632225L50.68147836538462,-12.338154655004145L51.01138221153846,21.7195866219374L51.05262019230769,29.377574343214768L51.423762019230765,104.11513857765812L51.58871394230769,52.97194056942352L51.75366586538462,41.1522570802824L51.81552283653846,-4.344060054179713L51.87737980769231,9.734175937916856L52.12480769230769,-47.75419974473363L52.5371875,46.138842593745935L52.599044471153846,54.55066499180592L52.88771033653846,36.9945470277488L52.94956730769231,72.8801295986188L53.05266225961538,65.79581012907109L53.300090144230765,6.950330952301528L53.526899038461536,2.6580512401431555L53.62999399038461,40.97984418135708L53.67123197115385,55.59340662277827L54.16608774038461,52.677078083259495L54.33103966346154,59.02795719808483L55.05270432692308,76.71724977318131L55.23827524038462,87.70877986087626L55.361989182692305,85.2921855147732L55.71251201923077,70.65733875608767L55.75375,73.31423718795989L55.81560697115384,72.823111623918L55.898082932692304,47.43352065705954L56.04241586538461,43.65455809964954L56.59912860576923,74.49789750417598L57.21769831730769,46.72955235147805L57.258936298076925,89.98591891708563L57.50636418269231,62.11616347898586L57.56822115384615,52.46250853937596L57.73317307692308,94.35251207352724L58.702265625,86.94275544405612L58.784741586538466,102.38232166958242L58.9703125,97.13999198312997L59.114645432692306,123.9522787477698L59.54764423076923,105.39221764481825L59.774453125,150.39844022319772L59.836310096153845,102.60652591065204L59.96002403846154,77.28058734700451L59.98064302884615,65.30119845369676L60.28992788461538,45.596122116441684L60.537355769230764,91.2092957679004L60.61983173076923,86.86562695405308L60.72292668269231,70.69568422020335L60.764164663461536,27.27648086894078L61.03221153846154,39.374471864393406L61.05283052884616,139.00432805495927L61.15592548076923,138.41456679271133L61.382734375000005,46.105398438968955L61.42397235576923,101.56217513239304L63.30030048076923,83.87588902566391L63.48587139423077,122.17217368038635L63.69206129807692,107.64092331023299L63.91887019230769,24.165296559877977L64.20753605769231,24.5491163524079L64.22815504807693,83.10056353760275L64.31063100961539,81.9737488100082L64.33125,68.62692515070147L64.4755829326923,26.132707631676812L64.7230108173077,14.620547947936993L65.34158052884615,45.95977259734507L65.85705528846154,1.372655445690249L66.16634014423077,22.414886638137826L66.29005408653846,43.648304906256925L66.78490985576923,56.16279639409051L66.88800480769231,78.48514660362041L67.65090745192308,16.808186293623685L68.37257211538461,9.169473696340317L68.43442908653846,83.0097301057513L68.90866586538462,54.85221748659205L69.25918870192308,45.491216964180325L69.87775841346154,69.36324724355642L69.98085336538462,71.66128644227547L70.84685096153846,94.4016892604803L70.94994591346153,74.84907308177797L71.21799278846153,28.482782989481954L71.38294471153846,5.225735252940569L71.44480168269232,-10.719546314570962L71.85718149038462,-20.352125392254514L72.12522836538463,13.497164269747644L72.2283233173077,31.442530858792146L72.51698918269231,-2.4525018523471553L72.55822716346154,42.353067136386976L72.74379807692308,33.37688332592224L72.78503605769231,64.71089429733034L73.52731971153847,64.28757806466155L73.75412860576922,64.88486961034619L73.77474759615384,74.51481498186395L73.98093750000001,61.23036922755613L74.20774639423077,9.565835641281472L74.35207932692308,46.2019885816912L74.62012620192309,31.391005685254285L74.78507812500001,52.504986363842654L74.95003004807693,45.04029279839649L75.03250600961539,56.50941760475439L75.11498197115384,70.18173073014638L75.50674278846154,112.16254419255863L75.67169471153846,136.9162131081141L75.75417067307691,118.28712799132578L75.89850360576922,105.91346266258202L75.96036057692308,125.42674045794264L76.0015985576923,144.11597327609684L76.06345552884615,124.92445470225698L76.14593149038461,142.05844513971746L76.33150240384616,107.24640958547074L76.45521634615385,58.294072145458955L76.55831129807692,44.82213327541176L76.6407872596154,51.94218483718766L76.88821514423077,27.55687417478873L76.90883413461539,44.14383624727437L76.99131009615385,26.952072565167683L77.09440504807692,50.258774366622994L77.11502403846154,62.6618746320283L77.38307091346154,61.00993221997477L77.40368990384616,53.253090333934175L77.42430889423078,112.84134042978044L77.52740384615385,58.04788159561019L77.63049879807691,124.08865549106517L77.69235576923077,132.58992155754035L77.89854567307692,164.57466957785778L78.04287860576923,131.8715948094017L78.59959134615384,123.17392860824391L79.05320913461537,150.60659236296732L79.25939903846154,147.6234493409675L79.609921875,147.363369486039L79.63054086538462,126.85126488286573L80.78520432692306,80.29947430418923L80.84706129807692,97.73950860814449L81.11510817307692,89.83915842721582L81.48625,80.74606193989344L81.54810697115386,48.969586848556055L81.69243990384616,52.06281001528465L81.754296875,125.18240261769509L81.91924879807692,103.92517909226531L82.18729567307693,131.7084082413777L82.39348557692307,99.53701830202723L82.86772235576923,84.65807236608507L83.17700721153845,53.46825911627191L83.44505408653846,59.649205625212176L84.18733774038462,64.40982173690561L84.20795673076924,145.63911439066746L84.59971754807692,124.14437506845962L84.62033653846154,71.79498523623552L84.64095552884615,61.02293536752943L84.84714543269232,81.1909680467276L84.92962139423076,79.31881085046693L84.95024038461538,58.83949643974639L84.970859375,53.190614715845264L85.07395432692307,119.33226150013864L85.11519230769231,150.82436613880327L85.46571514423077,153.17787998105717L86.043046875,111.40104621163384L86.14614182692307,79.0426124066794L86.4348076923077,98.6426944452933L86.57914062500001,119.24487546196073L86.68223557692308,83.25131816333815L86.95028245192307,107.90774678388999L87.01213942307693,72.25815016746381L87.19771033653846,100.21074017715377L87.44513822115384,91.44786463279685L87.93999399038462,126.99150587379447L88.00185096153847,90.99841815983955L88.78537259615385,88.21879374239258L89.48641826923077,76.40738381894491L89.81632211538461,78.46967530221976L90.1874639423077,65.11594759208691L90.29055889423077,67.15782930125425L90.39365384615384,74.16247144740619L90.41427283653846,129.1921510779964L90.57922475961539,141.96989965940153L90.80603365384616,75.8017442137281L91.09469951923077,93.21766848029377L91.2596514423077,62.53722328341998L91.42460336538461,139.6269124412357L91.98131610576922,110.358128801812L92.43493389423077,106.08909524430588L92.45555288461539,100.16997231811146L92.47617187499999,86.53046190601513L92.5998858173077,129.4051174870844L92.64112379807692,143.32258982370578L92.78545673076923,141.56114076918536L93.32155048076923,74.07088751403184L93.6926923076923,94.50965434794253L94.14631009615385,50.63044420769591L94.20816706730768,62.59643893176783L94.35249999999999,9.527285914030312L94.5999278846154,46.3470260980168L94.84735576923077,48.33807130351309L95.11540264423077,115.04896882590441L95.13602163461537,115.77641117225176L95.17725961538461,71.2257887342578L95.46592548076923,92.20672983044443L95.96078125,103.9539829737785L96.02263822115385,104.61703946869622L96.06387620192307,38.38093362260489L96.1051141826923,8.915624666265455L96.16697115384616,-8.071954007117773L96.24944711538461,33.8334070472902L96.31130408653847,83.36748358184023L96.70306490384615,86.75317527397836L96.9092548076923,117.35062144723163L97.15668269230768,84.55862562970286L97.25977764423078,61.077771408057L97.837109375,70.03477995556332L97.85772836538462,27.25799835301479L97.89896634615386,17.50146825657504L98.00206129807692,73.75911745754597L98.02268028846154,139.0747839172346L98.16701322115385,128.63002220151807L98.20825120192308,82.27471634958982L98.60001201923076,59.946383841125915L98.62063100961538,52.128236035876704L98.70310697115386,83.58979392073941L98.76496394230769,111.24883081926352L99.23920072115385,90.85851289280303L99.96086538461539,70.42426468997026L100.00210336538461,44.07880322974228L100.20829326923077,38.237288253553366L100.39386418269231,131.2972329062507L101.07429086538461,53.7183847786358L101.25986177884614,60.076904854856195L101.34233774038462,68.21430821519033L101.46605168269231,62.44138613522607L101.71347956730769,99.89119894016117L101.77533653846154,162.68274368469906L102.125859375,144.55570225492116L102.39390625,132.1649162207543L102.57947716346153,85.20162170138953L102.70319110576924,51.70558983687755L103.34237980769231,50.580444756771364L103.38361778846154,80.95808183170881L103.56918870192308,53.684001153811955L103.79599759615384,85.45339569217269L103.91971153846153,122.41272294978081L104.06404447115384,101.33022183453902L104.82694711538463,76.05065667793683L105.342421875,55.21882170537431L105.4661358173077,42.50302326738432L105.58984975961539,50.81541888749368L105.65170673076922,76.77709149620405L106.10532451923076,50.916825910219224L106.31151442307691,45.534384810810494L106.82698918269232,39.254486753872136L107.05379807692307,80.60820129771908L107.36308293269232,110.86719544684821L107.65174879807692,145.05066029999205L107.77546274038461,170.09883122905217L108.1672235576923,191.0008256033905L108.22908052884615,147.11480689024023L108.29093750000001,167.3522593258327L108.39403245192308,142.58906538954417L108.88888822115385,98.03088499111551L109.65179086538461,142.15847086311956L109.7548858173077,191.1802877926919L109.85798076923078,172.82527789736352L109.98169471153847,138.86096257725106L110.8476923076923,90.53267451976973L110.90954927884616,119.37567048582578L111.239453125,175.73783459850054L111.40440504807692,154.0699028288595L111.48688100961537,104.42221766205257L111.79616586538461,96.18455875808972L111.83740384615385,93.39801868733743L112.06421274038462,54.790308934074545L112.22916466346155,46.9809765348564L112.4559735576923,77.9461701112825L112.7034014423077,94.5495836137436L113.17763822115386,113.90025465480689L113.30135216346154,70.01854315276276L113.919921875,64.07163149640152L114.12611177884617,54.65017397716744L114.20858774038462,83.14334282586061L114.7240625,58.90325519626786L114.80653846153847,74.11511802187826L114.93025240384615,50.97821080393358L115.09520432692307,64.52723175112465L115.59006009615385,86.66317019357727L115.65191706730769,81.75454336103462L115.71377403846154,135.1905845027963L116.47667668269231,109.28864687811124L116.57977163461538,133.3929376967597L116.66224759615385,120.67559568690352L116.68286658653845,64.91672804717466L116.84781850961538,97.94991515138291L117.07462740384615,67.50593500172224L117.23957932692308,69.35358609458874L117.32205528846154,91.54454971373711L117.36329326923077,92.1097426475325L117.48700721153845,100.99954584009873L117.65195913461538,72.63264807920103L117.672578125,130.93091087854174L117.85814903846155,80.594371636607L118.14681490384615,41.37988069051378L118.29114783653846,54.77795156475234L118.744765625,83.86793898723313L118.88909855769231,52.59586300362227L119.0128125,73.0392426366154L119.09528846153846,70.28494016614826L119.11590745192308,55.325826777739756L119.67262019230769,36.87675537688955L119.73447716346153,31.47805492891921L119.79633413461538,73.94348226078792L119.87881009615384,119.2727635388878L120.2087139423077,106.53259054930867L120.24995192307694,61.81613100833819L120.29118990384615,82.74224918643918L120.31180889423077,95.91820864415351L120.33242788461538,56.944602754927665L120.49737980769231,57.5367360038859L121.2809014423077,75.51788516779557L121.54894831730769,36.70353563988091L121.85823317307691,75.50502388694227L122.24999399038462,89.05563142906632L122.33246995192307,75.6010199368657L122.47680288461538,84.81557204608086L122.55927884615384,65.64216500689962L122.66237379807691,97.81595088345044L123.3015625,46.953449507369086L123.52837139423077,63.11146206844663L124.18817908653847,109.54366214983936L124.68303485576922,139.6842662329273L124.97170072115385,118.75185110776411L125.07479567307692,131.87880465155115L125.34284254807692,108.45849439361861L125.36346153846154,80.40511012589432L125.52841346153846,48.57474611112776L125.5696514423077,42.7232937330561L125.67274639423077,16.869110698375515L126.43564903846153,55.473414120002644L126.518125,75.37218857820275L126.60060096153846,121.2229696215119L126.82740985576923,95.72369157677453L126.84802884615385,109.60453644636596L126.88926682692308,88.04414493586594L126.9098858173077,89.8233446404099L127.56969350961539,105.83518180398697L127.79650240384616,110.969602222136L127.83774038461539,95.76991463595108L127.94083533653847,119.42780757482934L127.98207331730768,130.15907657465993L128.08516826923076,163.34726082278286L128.20888221153845,170.79415972824702L128.35321514423077,142.7999337422598L128.62126201923078,87.39316567824773L128.930546875,95.73634255556162L129.11611778846154,94.47643229143567L129.17797475961538,102.67502841220359L129.79654447115385,47.62189956227575L130.27078125,59.16286347937356L130.2914002403846,87.80497887511119L130.35325721153848,103.30150607096573L130.3944951923077,105.15047376672872L130.47697115384616,100.83993876767421L130.60068509615385,111.0627688812749L131.17801682692308,95.86004945323079L131.34296875,85.36760067156068L131.81720552884616,84.5138328147598L132.0027764423077,0.6796601100366646L132.0233954326923,53.410250561451946L132.3120612980769,18.211629913458918L132.45639423076923,46.53281520975231L132.88939302884617,39.291123313740655L133.03372596153847,25.751552893540772L133.0749639423077,77.1395886980423L133.13682091346155,128.74772475021655L133.17805889423076,94.4810810795877L134.10591346153848,144.5769140548381L134.20900841346153,62.24829864662111L134.22962740384614,81.49231635428198L134.37396033653846,68.81329142389735L134.4564362980769,99.99055355392711L134.49767427884615,99.4220204091239L134.95129206730772,58.711293610106026L135.40490985576923,51.57623829374916L136.1678125,69.46998010832209L137.17814302884614,53.0363312170395L137.46680889423078,71.29833360943137L137.87918870192308,60.976140418249095L138.62147235576924,69.82900230800966L138.76580528846154,64.9496090693226L138.97199519230767,96.7220508982509L139.21942307692305,138.90467623053613L139.28128004807692,90.02053508268969L139.32251802884616,79.1554903692435L139.34313701923077,95.17115255036538L139.81737379807691,92.52527490758062L139.98232572115387,114.7627577871273L140.8689423076923,75.28429349006352L141.56998798076924,97.56851432169154L141.83803485576925,119.09832843211106L141.85865384615386,112.70202764312529L141.89989182692307,131.15095790886932L143.2607451923077,136.715367273474L143.36384014423078,183.97451987623214L143.59064903846155,206.98984564575798L143.941171875,157.86091433306495L144.12674278846154,153.36980594599237L144.27107572115384,147.75943129899485L144.39478966346155,143.53237745548722L144.51850360576924,57.68626018396263L144.53912259615385,63.5598964096978L145.2607872596154,70.23721600782125L145.4257391826923,29.623713440962067L145.89997596153844,26.25463968948582L145.94121394230768,73.66753961107767L145.96183293269232,85.0244019714691L146.53916466346155,124.65795021579866L146.621640625,92.40912715987083L146.6628786057692,141.33387950894672L147.07525841346154,154.38187822006617L147.17835336538462,121.90737742365887L147.21959134615383,112.6460176359504L147.26082932692307,79.7889095098311L147.79692307692306,123.50179965201231L148.55982572115383,102.29995751919286L148.68353966346154,67.82080310906134L148.88972956730768,75.50263645842753L148.97220552884616,105.54968606588305L149.0546814903846,66.6394464204135L149.34334735576923,60.64719227727776L149.50829927884615,92.53003444538432L150.08563100961538,142.9409773484822L150.1268689903846,142.84694546079385L150.27120192307692,120.70648151407076L150.43615384615384,56.961289070662346L150.45677283653845,74.52832715667277L150.51862980769232,88.27090372417558L150.80729567307694,65.2243982897652L151.09596153846155,32.46358357348755L151.17843749999997,35.89471041249468L151.2196754807692,53.46840730361482L151.48772235576922,49.53746758134567L151.71453125,55.71054839033711L151.7351502403846,10.63130556904569L151.83824519230768,34.631096931477245L151.87948317307692,65.4663237167476L151.9413401442308,50.09329049784416L152.70424278846156,110.77987793087047L153.0753846153846,108.73441498875064L153.46714543269232,82.69206093191787L153.59085937499998,71.12729926371395L153.79704927884617,37.5912034837235L154.0857151442308,72.01991241740163L154.45685697115385,118.3491396162925L154.5187139423077,139.93883191669104L154.5393329326923,130.45934400036418L155.21975961538462,101.78310028955022L155.28161658653846,136.51342498209885L155.4671875,98.83191307155377L155.59090144230768,108.53329268555699L155.6939963942308,122.7469795552543L155.96204326923075,103.71964163825811L156.06513822115383,94.4479528859015L156.39504206730768,70.38552858798238L156.49813701923077,96.7336682937653L156.60123197115385,141.01537382972896L156.6837079326923,131.16376902087126L157.01361177884615,132.18184966697441L157.30227764423074,195.89119350823253L157.71465745192307,163.42840744204796L157.96208533653845,156.6287501403541L158.20951322115386,73.42210181646665L158.93117788461538,139.94698878582184L159.0755108173077,152.31454719576757L159.17860576923076,176.72510162278132L159.21984375,163.54390466978626L159.26108173076923,106.13400793534795L159.38479567307692,144.82979078568388L159.46727163461537,137.07545504258488L159.79717548076923,106.92846138052015L160.023984375,84.28872188789757L160.33326923076922,62.226089160818574L160.51884014423075,113.35034375260994L160.86936298076924,142.99189109129142L161.26112379807694,157.51559665514483L161.46731370192308,166.6803586883154L161.59102764423076,111.64350545423073L161.69412259615385,119.61724973927058L161.73536057692309,185.5697069657451L161.85907451923077,139.97161756113806L162.0446454326923,110.00326869580539L162.37454927884613,121.90778180178036L163.17868990384613,126.80059194693581L163.21992788461537,144.56327912884734L163.28178485576925,146.89048846768017L163.50859375,135.7120844495695L163.6529266826923,97.91417958571907L164.10654447115385,126.5894628657961L164.4364483173077,141.97754977310086L164.76635216346153,146.11537423231823L164.86944711538462,131.49901504813806L164.91068509615386,103.60791743695263L164.9725420673077,79.95524011194424L165.32306490384613,125.08957313382469L165.52925480769233,145.02005370190048L165.5498737980769,101.44629608231968L165.85915865384615,25.45318696879256L166.06534855769232,1.802633523839059L166.7457752403846,-13.33240027433795L167.22001201923075,31.557485883199107L167.3643449519231,51.569337060906264L167.42620192307692,50.24950156859027L167.5499158653846,107.71809295565762L168.3334375,125.5536338791303L168.601484375,68.86368535191127L168.62210336538462,114.08270340103097L168.66334134615386,78.9524201568256L168.78705528846152,114.5063469777282L168.8489122596154,104.91395071564774L169.22005408653848,75.91887147080104L169.59119591346152,56.136463921375075L170.0860516826923,49.30966621703337L170.16852764423078,53.24542493859786L170.41595552884615,77.07174418711578L170.6015264423077,67.39018395152031L171.17885817307692,109.043318096437L171.30257211538463,126.57633294083946L171.83866586538463,138.36705026279859L171.92114182692308,147.9148805931268L171.9623798076923,108.10266753405666L172.2304266826923,95.15075413209387L172.33352163461538,108.92333152188188L172.43661658653846,125.50156139310192L172.5190925480769,146.50713800773627L172.72528245192305,96.02019116512304L172.890234375,56.04157299537293L173.5500420673077,95.72315261804353L173.694375,86.6126026036935L173.92118389423078,157.26325797573324L173.94180288461538,117.45647706708651L174.00365985576923,81.79330881906357L174.06551682692307,68.43505223079202L174.51913461538462,50.438300344250614L174.60161057692306,68.16998829418532L174.6428485576923,56.08187965139207L174.89027644230768,110.30499564161568L175.38513221153846,85.06826283067862L175.63256009615387,92.66674308496947L175.79751201923077,117.30220684121974L175.92122596153845,152.64331546253518L176.14803485576925,157.37718059317203L176.31298677884615,147.06921809730486L176.3542247596154,160.3963372696491L176.47793870192308,136.97306038075993L176.60165264423077,93.18185238322208L177.178984375,81.78682604003315L177.3233173076923,94.14130273204067L177.36455528846153,115.42383908475036L177.40579326923077,121.35462555435063L177.46765024038461,74.16411500660635L178.1068389423077,107.48134993009617L178.1274579326923,85.85934411581074L178.23055288461538,126.40566436705416L178.51921875000002,79.91827925597092L178.56045673076923,71.55262039038217L178.58107572115384,38.00185073573991L179.81821514423078,16.656764895675085L179.94192908653847,85.9888096517073L180.0037860576923,132.09120794926577L180.5398798076923,132.79391164061133L180.56049879807694,135.48526561544358L180.62235576923078,123.09434337786443L180.64297475961538,71.55183553321136L181.3234014423077,91.40379831566194L181.3440204326923,99.95431918724651L181.8801141826923,104.2873137880818L182.23063701923078,158.6014200025475L182.3131129807692,133.93897541604505L182.47806490384616,95.49089106465627L182.58115985576922,69.52959363785534L182.60177884615385,45.96312517599532L182.72549278846154,27.700295452333982L183.13787259615384,45.75289020780177L183.40591947115385,4.063746665975179L183.52963341346154,62.39954983893673L183.8595372596154,93.18793315710819L184.04510817307693,123.21898713721144L184.08634615384616,144.13544685252492L184.10696514423077,120.41645661954864L185.28224759615384,63.66667981126755L186.10700721153844,90.54261124836705L186.16886418269232,70.87437154476216L186.18948317307692,97.46933649554471L186.23072115384616,87.63230262145169L186.51938701923078,128.48899360862228L186.6843389423077,128.24247552375115L187.15857572115385,145.70476710450725L187.17919471153846,148.0792503097778L187.55033653846155,66.2407391154246L188.08643028846154,93.9813560535596L188.25138221153847,87.56654285729455L188.49881009615385,119.55006658637829L188.54004807692309,112.03079530956929L188.93180889423078,65.83482912398914L188.95242788461536,40.59212635289156L189.38542668269233,47.05785576302116L189.52975961538462,74.06141215442591L189.69471153846155,94.71781808065768L189.71533052884618,98.92500271753916L190.02461538461537,151.65586654160288L190.29266225961538,114.99944960960062L190.31328125,97.46989406280704L190.82875600961538,127.30235560615658L191.28237379807695,94.93662136721501L191.4060877403846,136.1413532133572L191.46794471153845,99.31895024989065L191.48856370192308,35.157295247399674L191.57103966346156,134.47919752626655L191.67413461538462,96.82550544994501L191.7772295673077,80.12115205202959L192.76694110576923,91.52885270639925L192.82879807692308,141.33263569190913L193.05560697115385,116.62281374403719L193.24117788461538,123.38405934732488L193.34427283653847,100.30177154398757L193.75665264423077,135.16707327518947L194.04531850961538,109.196258977378L194.14841346153847,138.46196720321439L194.56079326923077,76.56917551350267L194.9937920673077,79.06286510939408L195.07626802884613,31.909445340126773L195.6948377403846,73.13702802341564L195.9628846153846,106.90239206839439L196.3134074519231,81.94120891027949L196.4989783653846,121.31030048807442L196.68454927884613,176.11456133055682L196.8701201923077,187.27968629078873L196.99383413461538,181.60991532729147L197.014453125,134.67175119594384L197.17940504807692,111.4695258705356L197.9629266826923,113.37443711570141L198.06602163461537,100.72523443824791L198.31344951923077,134.1431740816042L198.3546875,142.02781060311818L198.37530649038462,153.8571221528866L198.49902043269233,162.91332069029917L199.15882812499999,198.83465200060914L199.24130408653846,131.12529608842334L199.88049278846154,102.12396066925884L200.00420673076923,131.31094937051523L200.27225360576924,114.0019505651306L200.3753485576923,111.5165660996147L200.4990625,120.09997354858558L200.91144230769228,119.50674422331721L201.07639423076924,121.524139605451L201.11763221153848,121.52058578877929L201.57125,157.2425691685039L201.61248798076923,103.15806782251337L201.8186778846154,157.9438647151335L202.04548677884614,133.98506391765727L202.12796274038462,152.24263712598128L202.31353365384615,114.95620263119494L202.47848557692308,102.6196812301872L202.54034254807692,105.7131414002179L202.7465324519231,84.51520365393151L203.40634014423077,100.14123820016378L203.50943509615385,115.72048293798933L203.65376802884614,135.31220676451787L203.88057692307692,161.33393048018144L204.00429086538463,124.37061294776151L204.14862379807693,100.61913937843998L204.47852764423078,95.01806012700277L204.56100360576923,118.3012824530021L204.95276442307693,96.99579261986122L205.48885817307692,79.52633714227505L205.5713341346154,91.14854271142863L205.7569050480769,156.08851424413442L205.88061899038462,170.13669453595588L205.90123798076925,155.1116902740867L205.98371394230767,132.71187464666787L206.31361778846153,97.84045932455325L206.87033052884615,116.16960044958284L207.200234375,71.4982053772097L207.38580528846154,58.160730823009324L207.53013822115386,38.02097313650205L207.63323317307692,42.959842974232174L208.60232572115385,164.86253181355386L208.6848016826923,133.04255524430994L209.3239903846154,132.77117577287163L209.4889423076923,107.15256895478126L209.50956129807693,120.27970487985345L209.55079927884614,159.75319719978174L209.57141826923078,201.11559541623598L210.04565504807692,192.07579784155377L210.10751201923077,158.56696914768506L210.1693689903846,186.8856932350175L210.31370192307693,201.6177986996278L210.37555889423078,140.83387896638547L210.47865384615383,161.93758261931796L210.5611298076923,74.8167987986377L210.74670072115384,72.30756961846186L210.76731971153845,46.546423492097L210.84979567307693,64.45898104742953L211.01474759615382,98.09568533322697L211.38588942307692,91.12089595211444L211.40650841346155,120.59233365662634L212.19003004807692,96.85464891319128L212.4374579326923,113.73824309423358L212.47869591346154,99.75722078749406L212.62302884615383,164.54203111093565L212.82921875000002,192.51136844254344L212.84983774038463,133.49427962837686L212.93231370192308,114.63753855549149L212.97355168269232,80.61066777898571L213.05602764423077,82.74342410203052L213.11788461538464,76.60931359789508L213.30345552884617,116.83745912946314L213.44778846153847,91.8940082683386L213.5921213942308,93.88947207297215L213.71583533653845,96.77464839557021L213.73645432692308,75.68025382005696L213.86016826923077,86.22949849154668L213.96326322115382,114.72854528776483L214.16945312500002,104.19303441018857L214.37564302884616,43.858410358255924L214.49935697115384,79.35890954722525L214.80864182692306,103.20192264312254L215.2210216346154,104.52012576337913L215.2828786057692,58.37326069877295L215.32411658653845,50.05266127709006L215.59216346153846,120.00676204993424L215.7571153846154,130.02594850202868L215.88082932692308,150.086186335924L215.92206730769232,122.9575874009388L216.25197115384617,146.4048483490143L216.27259014423078,197.1152516376494L216.2932091346154,183.16021441051484L216.3344471153846,140.4366892852135L216.91177884615385,133.99923621879515L216.9942548076923,114.58619001666624L217.28292067307692,137.5658031651969L217.46849158653845,151.44672774968112L217.6540625,120.36272084532712L217.86025240384618,134.97606171261393L217.96334735576923,105.57994144613214L218.41696514423077,137.7265049425047L218.5819170673077,96.4602700476219L218.7056310096154,42.90482397105502L218.9736778846154,116.80787695185077L219.65410456730768,97.72355597457718L219.96338942307693,86.98651413465389L220.02524639423078,131.49941889253174L220.0458653846154,61.36101814393357L220.10772235576923,51.31438588073345L220.2932932692308,97.87409955841594L220.37576923076924,95.99382448543506L220.4582451923077,72.55964216202146L220.70567307692306,164.80163045292878L220.7262920673077,143.80992283562293L220.870625,162.67052773320344L221.36548076923077,157.78675144722268L221.40671874999998,150.1856743801248L221.71600360576923,107.14951944998573L221.73662259615384,64.9612606683473L221.86033653846155,90.6607218813361L221.92219350961537,85.72982793041834L222.10776442307693,109.31957823627434L222.43766826923078,33.30581807251714L222.4995252403846,146.07167198750943L222.64385817307692,111.92223120029914L222.95314302884617,90.14029451785181L223.17995192307694,78.60004171477368L223.44799879807692,103.8172181889214L223.71604567307693,119.35074591903661L224.06656850961537,127.54084968727098L224.2109014423077,107.31974798537055L224.60266225961539,98.53118022737951L224.62328125,126.31315789495738L224.7676141826923,187.09702463671476L224.82947115384616,149.84344719484392L224.891328125,122.88410606762723L225.07689903846156,129.0109844135103L225.09751802884617,92.01603762667507L225.48927884615384,62.17367952085204L225.65423076923076,96.70641112933548L225.7367067307692,102.06458487874272L225.75732572115385,169.0694066570165L225.77794471153845,162.5990545920112L225.90165865384614,153.93182806799277L225.98413461538462,149.11841421502504L226.2521814903846,67.55072739826248L226.3552764423077,37.22246434156058L226.37589543269232,56.449494492196884L226.43775240384613,56.94063066910734L226.54084735576922,-13.209084358984233L226.66456129807693,22.709057970539295L228.10789062499998,76.30178481560687L228.6646033653846,19.422830201517062L229.3037920673077,51.1852513655011L229.38626802884613,68.8859184684744L229.40688701923077,55.165993434333174L229.65431490384614,82.57871241697275L230.252265625,74.56907151537315L230.39659855769233,106.82540920017459L230.70588341346152,127.28917963885253L230.74712139423076,117.59934183110583L231.09764423076922,81.11415107339494L231.2419771634615,87.3719199019066L231.28321514423075,61.85412055953699L231.4481670673077,69.53072591247782L232.35540264423076,136.94139283670543L232.47911658653848,127.11087130173173L232.58221153846154,79.79907952942924L232.9121153846154,51.5732088041214L233.0564483173077,60.19632821988496L233.736875,117.57793385810508L233.86058894230771,107.11882135288032L233.92244591346153,88.11575440774051L233.94306490384614,113.42002596980157L234.5616346153846,130.89589996651318L234.9533954326923,131.12833261201098L235.13896634615386,166.3468795162994L235.3657752403846,145.3992971624467L235.98434495192308,127.269409087034L236.10805889423077,124.30241033240074L236.12867788461537,141.1239573407407L236.1699158653846,177.34981785108064L236.2523918269231,130.86936584645147L236.93281850961537,89.05907444675952L237.13900841346154,93.40408532929544L237.48953125,113.92851093478278L237.96376802884615,124.1883384887415L238.16995793269228,137.76243032837144L238.2730528846154,85.09407864704269L238.37614783653848,110.13270767149056L238.62357572115386,120.26800708542304L238.78852764423075,116.82731701475409L239.0978125,129.98394739354868L239.46895432692307,99.72440360620745L239.5308112980769,77.32345393082578L239.59266826923076,113.70467786062405L239.86071514423077,163.0320976380624L240.0669050480769,131.07386516357164L240.10814302884614,122.32524879470284L240.47928485576924,137.2779470902372L241.3865204326923,117.61042325625944L241.59271033653846,103.19972798186627L241.73704326923078,108.86383557890711L241.84013822115386,89.06670499190604L242.1700420673077,99.16317322459776L242.314375,59.058060852330684L242.33499399038462,58.86948249795536L242.54118389423078,86.80467705761484L242.582421875,51.14183710119192L242.70613581730768,34.15356762469443L243.22161057692307,116.49954475915818L243.3659435096154,156.87884410593736L243.48965745192308,174.98102811797747L243.73708533653846,167.12501677169973L244.1700841346154,182.91722421821703L244.39689302884616,163.00029254541855" style="fill: none;" fill="none"></path></g></g></g></g><g opacity="0.2"><g><g><g><path stroke="rgb(255, 112, 67)" stroke-width="2px" d="M21.58808293269231,-122.66487514972695L21.897367788461537,128.5573948323727L21.917986778846156,-92.93662717938432L22.082938701923077,27.821827322244623L22.20665264423077,-119.71627584099778L22.454080528846152,-66.814113020897L22.74274639423077,10.578475534915905L22.82522235576923,-56.78302010893826L23.258221153846154,11.783947438001613L23.299459134615386,-23.988540083169976L23.918028846153845,-52.08522713184361L23.959266826923077,149.38353413343432L24.00050480769231,61.720894664525986L24.165456730769233,13.00221124291418L24.557217548076924,168.6507757902146L24.804645432692308,-101.2729909121991L24.84588341346154,-34.765519559383435L25.34073918269231,125.14578142762188L25.650024038461538,44.62260568141937L25.670643028846154,-25.479521960020104L25.95930889423077,30.51208296418188L26.206736778846157,71.48902827501297L26.26859375,-46.1013864576817L26.433545673076924,-51.26812791824345L26.49540264423077,23.259074628353098L26.701592548076924,40.38584867119789L27.134591346153847,79.90860530734064L27.19644831730769,-18.217809855937997L27.25830528846154,-103.30360642075547L27.753161057692306,138.43050116300586L28.000588942307694,57.81369397044182L28.124302884615386,38.35853004455564L28.165540865384617,-13.207604348659554L28.412968749999997,19.875946283340433L28.57792067307692,169.2364338934422L28.660396634615385,0.2562020123004717L28.90782451923077,64.89025318622589L29.175871394230768,25.77565053105352L29.60887019230769,78.48211044073105L29.62948918269231,104.36276534199716L29.67072716346154,71.02561855316162L29.815060096153847,-0.48849767446521875L30.206820913461538,-9.52208599448208L30.413010817307693,99.83825647830965L30.51610576923077,-34.75905767083172L30.53672475961538,30.93421572446821L30.660438701923077,-53.05490604043011L31.13467548076923,105.33455425500871L31.17591346153846,12.812706470489482L31.196532451923076,10.642830669879894L31.27900841346154,30.362800151109674L31.608912259615384,-11.012144744396249L31.712007211538463,45.06333285570145L31.753245192307695,116.95302987098698L32.00067307692308,13.660532623529415L32.08314903846154,131.12777584791186L32.20686298076923,102.00523102283479L32.78419471153846,-84.95711794495591L32.90790865384616,261.01239511370665L33.588335336538464,26.510723322629907L33.753287259615384,37.05230543017385L33.87700120192307,30.34605199098585L33.89762019230769,110.74566060304646L34.18628605769231,74.604317933321L34.371856971153846,4.66558375954626L34.53680889423077,-134.98716911673554L35.48528245192308,-82.98347255587586L35.56775841346154,39.06722778081892L35.95951923076923,106.17710539698602L36.37189903846154,56.196903079748154L36.59870793269231,3.393514841794948L36.61932692307692,20.305068433284738L36.743040865384614,56.20507934689522L36.8667548076923,143.19014364480975L37.19665865384615,51.3421785235405L37.21727764423077,64.98269775509834L37.258515625,26.844367772340753L37.505943509615385,117.4246158599854L37.77399038461539,-8.325185984373132L38.28946514423077,6.4763631820678516L38.47503605769231,44.070180147886276L38.57813100961539,33.42164719104765L38.88741586538462,98.33988958597185L39.196700721153846,130.13185375928882L39.79465144230769,147.2391102612019L40.04207932692308,79.00380903482439L40.18641225961539,141.82035514712337L41.217361778846154,127.8955128192902L41.27921875,200.69778674840936L41.32045673076923,120.3726876676083L41.547265625,-15.807921051979104L41.69159855769231,160.5258081257344L41.77407451923077,78.41973343491554L41.8153125,138.50553819537166L42.00088341346154,-46.32728880643849L42.39264423076923,22.008369505405405L42.681310096153844,-31.49936458468441L42.70192908653846,126.58111193776135L42.82564302884616,90.55278638005258L43.01121394230769,182.68349209427842L43.258641826923075,124.10014235973362L43.34111778846154,88.83471527695657L43.38235576923076,129.5691419541836L43.485450721153846,-65.00992736220368L43.52668870192308,31.94780910015104L43.73287860576923,52.11589077115059L43.81535456730769,25.40982851386068L43.9596875,106.3375976085663L44.24835336538461,88.99362498521806L44.35144831730769,-34.99933442473416L44.37206730769231,21.178478389978387L44.619495192307696,192.94035547971734L44.82568509615385,103.42987963557245L44.86692307692308,92.63865762948991L45.031875,169.3241309523583L45.21744591346154,81.60175198316576L45.23806490384616,111.47202962636952L45.732920673076926,160.44747421145445L45.87725360576923,46.537698447704315L46.31025240384615,28.925491511821726L46.41334735576923,107.14572930336L46.43396634615385,23.57148715853689L46.47520432692308,73.21250626444817L46.53706129807692,212.25362160801896L46.619537259615385,16.98550397157667L46.74325120192308,94.9551787376404L46.82572716346154,78.73742097616197L46.92882211538461,79.42435929179193L47.382439903846155,139.7935640215874L47.93915264423077,-13.319170832634011L48.35153245192308,100.54260233044626L48.660817307692305,97.28976675868036L48.74329326923077,35.69715508818624L48.97010216346153,153.82258781790736L48.99072115384615,-2.3446421921253595L49.83609975961538,115.66909217834477L50.26909855769231,-24.010299503803292L50.28971754807693,39.341000854969025L50.660859375,-107.95366054773339L50.68147836538462,-1.5537861585617458L51.01138221153846,72.8061985373497L51.05262019230769,40.864555925130844L51.423762019230765,216.22148492932328L51.58871394230769,-23.742856442928353L51.75366586538462,23.422731846570947L51.81552283653846,-72.58853575587281L51.87737980769231,30.85152992606161L52.12480769230769,-133.98676326870927L52.5371875,186.9784061014653L52.599044471153846,67.1683985888958L52.88771033653846,10.660370081663112L52.94956730769231,126.70850345492367L53.05266225961538,55.169330924749374L53.300090144230765,-81.31788781285294L53.526899038461536,-3.7803683280945215L53.62999399038461,98.46253359317781L53.67123197115385,77.5137502849102L54.16608774038461,48.302585273981094L54.33103966346154,68.55427587032318L55.05270432692308,103.25118863582613L55.23827524038462,104.1960749924183L55.361989182692305,81.66729399561883L55.71251201923077,48.70506861805916L55.75375,77.29958483576775L55.81560697115384,72.08642327785492L55.898082932692304,9.349134206771831L56.04241586538461,37.986114263534525L56.59912860576923,120.76290661096577L57.21769831730769,5.077034622430782L57.258936298076925,154.87046876549724L57.50636418269231,20.31153032183645L57.56822115384615,37.98202612996099L57.73317307692308,157.18751737475398L58.702265625,75.82812049984932L58.784741586538466,125.54167100787167L58.9703125,89.27649745345117L59.114645432692306,164.17070889472967L59.54764423076923,77.55212599039078L59.774453125,217.907774090767L59.836310096153845,30.918654441833475L59.96002403846154,39.29167950153349L59.98064302884615,47.3321151137352L60.28992788461538,16.038507610559442L60.537355769230764,159.6290562450886L60.61983173076923,80.3501237332821L60.72292668269231,46.440770119428635L60.764164663461536,-37.852324157953305L61.03221153846154,57.521458357572556L61.05283052884616,288.449112340808L61.15592548076923,137.5299248993397L61.382734375000005,-92.35835409164437L61.42397235576923,184.7473401725293L63.30030048076923,57.34645986557007L63.48587139423077,179.61660066246995L63.69206129807692,85.84404775500299L63.91887019230769,-101.04814356565484L64.20753605769231,25.124846041202524L64.22815504807693,170.9277343153954L64.31063100961539,80.2835267186165L64.33125,48.60668966174126L64.4755829326923,-37.608618646860165L64.7230108173077,-2.6476915776729975L65.34158052884615,92.96860957145692L65.85705528846154,-65.50802028179177L66.16634014423077,53.97823342680931L66.29005408653846,75.49843230843544L66.78490985576923,74.93453362584114L66.88800480769231,111.96867191791539L67.65090745192308,-75.70725417137155L68.43442908653846,193.7701147198678L68.90866586538462,12.61594855785368L69.25918870192308,31.44971618056295L69.87775841346154,105.17129266262056L69.98085336538462,75.10834524035454L70.84685096153846,128.51229348778728L70.94994591346153,45.52014881372452L71.21799278846153,-41.06665214896206L71.85718149038462,-34.80099400877957L72.12522836538463,64.27109876275063L72.2283233173077,58.36058074235916L72.51698918269231,-53.29505091905598L72.55822716346154,109.5614206194878L72.74379807692308,19.912607610225656L72.78503605769231,111.71191075444226L73.52731971153847,63.65260371565819L73.75412860576922,65.78080692887306L73.77474759615384,88.95973303914072L73.98093750000001,41.30370059609413L74.20774639423077,-67.93096473813065L74.35207932692308,101.15621799230577L74.62012620192309,9.17453134059904L74.78507812500001,84.17595738172533L74.95003004807693,33.843252450227716L75.03250600961539,73.713104814291L75.11498197115384,90.69020041823389L75.50674278846154,175.13376438617712L75.67169471153846,174.04671648144728L75.75417067307691,90.34350031614305L75.89850360576922,87.35296466946603L75.96036057692308,154.69665715098384L76.0015985576923,172.14982250332838L76.06345552884615,96.13717684149744L76.14593149038461,167.75943079590803L76.33150240384616,55.0283562541008L76.45521634615385,-15.134434014558831L76.55831129807692,24.614224970340707L76.6407872596154,62.62226217985153L76.88821514423077,-9.021091818809548L76.90883413461539,69.02427935600281L76.99131009615385,1.1644270420074267L77.09440504807692,85.21882706880571L77.11502403846154,81.26652503013612L77.38307091346154,58.53201860189438L77.40368990384616,41.617827504873276L77.42430889423078,202.22371557354936L77.63049879807691,223.14981633424767L77.69235576923077,145.3418206572533L77.89854567307692,212.55179160833367L78.04287860576923,82.81698265671731L78.59959134615384,110.12742930650715L79.05320913461537,191.75558799505242L79.25939903846154,143.14873480796817L79.609921875,146.97324970364573L79.63054086538462,96.08310797810556L80.78520432692306,10.471788436174373L80.84706129807692,123.89956006407742L81.11510817307692,77.98863315582275L81.48625,67.10641720890999L81.54810697115386,1.3048742115497394L81.69243990384616,56.702644765377045L81.754296875,234.8617915213109L81.91924879807692,72.03934380412102L82.18729567307693,173.383251965046L82.39348557692307,51.279933393001556L82.86772235576923,62.339653462171555L83.17700721153845,6.683539241552333L83.44505408653846,68.92062538862228L84.18733774038462,71.55074590444565L84.20795673076924,267.4830533713103L84.59971754807692,91.90226608514787L84.62033653846154,-6.729099512100259L84.64095552884615,44.86486056447029L84.84714543269232,111.4430170655251L84.92962139423076,76.51057505607605L84.95024038461538,28.120524823665598L84.970859375,44.71729212999344L85.07395432692307,218.5447316765786L85.11519230769231,198.06252309679994L85.46571514423077,156.7081507444382L86.043046875,48.73579555749893L86.14614182692307,30.50496169924734L86.4348076923077,128.0428175032139L86.57914062500001,150.1481469869614L86.68223557692308,29.26098221540449L86.95028245192307,144.8923897147179L87.01213942307693,18.783755242824533L87.19771033653846,142.13962519168857L87.44513822115384,78.30355131626129L87.93999399038462,180.3069677352906L88.00185096153847,37.00878658890722L88.78537259615385,84.0493571162224L89.48641826923077,58.69026893377304L89.81632211538461,81.56311252713205L90.1874639423077,45.085356026887894L90.29055889423077,70.2206518650055L90.39365384615384,84.66943466663362L90.41427283653846,211.736670523882L90.57922475961539,161.13652253150946L90.80603365384616,-23.450488954782525L91.09469951923077,119.34155488014225L91.2596514423077,16.516555488109567L91.42460336538461,255.26144617795953L91.98131610576922,66.45495334267616L92.43493389423077,99.68554490804674L92.45555288461539,91.29128792881967L92.47617187499999,66.0711962878704L92.5998858173077,193.71710085868844L92.64112379807692,164.19879832863813L92.78545673076923,138.91896718740466L93.32155048076923,-27.16449236869816L93.6926923076923,125.16780459880833L94.14631009615385,-15.188371002674142L94.20816706730768,80.54543101787569L94.35249999999999,-70.07644361257562L94.5999278846154,101.57663637399675L94.84735576923077,51.32463911175728L95.11540264423077,215.11531510949143L95.13602163461537,116.8675746917725L95.17725961538461,4.399855077266674L95.46592548076923,123.67814147472386L95.96078125,121.57486268877987L96.02263822115385,105.61162421107294L96.06387620192307,-60.97322514653214L96.16697115384616,-33.55332201719288L96.24944711538461,96.69144862890245L96.31130408653847,157.6685983836651L96.70306490384615,91.8317128121853L96.9092548076923,163.24679070711142L97.15668269230768,35.37063190340994L97.25977764423078,25.856490075588205L97.837109375,83.47029277682306L97.85772836538462,-36.907174050807996L97.89896634615386,2.866673111915569L98.00206129807692,158.1455912590027L98.02268028846154,237.04828360676774L98.16701322115385,112.96287962794308L98.20825120192308,12.741757571697216L98.60001201923076,26.453885078430154L98.62063100961538,40.40101432800293L98.70310697115386,130.78213074803355L98.76496394230769,152.73738616704944L99.23920072115385,60.27303600311279L99.96086538461539,39.77289238572121L100.00210336538461,4.560611039400081L100.20829326923077,29.47501578927038L100.39386418269231,270.8871498852969L101.07429086538461,-62.64988741278656L101.25986177884614,69.61468496918678L101.34233774038462,80.42041325569154L101.46605168269231,53.78200301527977L101.71347956730769,156.06591814756396L101.77533653846154,256.8700608015061L102.125859375,117.36514011025433L102.39390625,113.57873716950421L102.57947716346153,14.75667992234228L102.70319110576924,1.4615420401096149L103.34237980769231,48.89272713661194L103.38361778846154,126.52453744411473L103.56918870192308,12.772880136966686L103.79599759615384,133.10748749971393L103.91971153846153,177.85171383619317L104.06404447115384,69.7064701616764L104.82694711538463,38.1313089430332L105.342421875,23.97106924653051L105.4661358173077,23.429325610399225L105.58984975961539,63.28401231765747L105.65170673076922,115.71960040926938L106.10532451923076,12.126427531242351L106.31151442307691,37.460723161697366L106.82698918269232,29.83463966846464L107.05379807692307,142.63877311348918L107.36308293269232,156.2556866705418L107.65174879807692,196.32585757970818L108.1672235576923,222.353817164898L108.22908052884615,81.2857788205147L108.29093750000001,197.70843797922143L108.39403245192308,105.44427448511125L108.88888822115385,31.19361439347265L109.65179086538461,208.3498496711255L109.7548858173077,264.7130131870509L109.85798076923078,145.2927630543709L109.98169471153847,87.91448959708215L110.8476923076923,18.040242433547952L110.90954927884616,162.64016443490988L111.239453125,260.2810807675124L111.40440504807692,121.56800517439846L111.48688100961537,29.950689911842325L111.79616586538461,83.8280704021454L111.83740384615385,89.2182085812092L112.06421274038462,-3.121255695819894L112.22916466346155,35.26697793602941L112.4559735576923,124.39396047592167L112.7034014423077,119.4547038674355L113.17763822115386,142.92626121640208L113.30135216346154,4.195975899696331L113.919921875,55.151264011859894L114.12611177884617,40.517987698316574L114.20858774038462,125.88309609889988L114.7240625,22.543123751878717L114.80653846153847,96.93291226029397L114.93025240384615,16.272849977016428L115.09520432692307,84.85076317191125L115.59006009615385,119.86707785725598L115.65191706730769,74.39160311222076L115.71377403846154,215.34464621543893L116.47667668269231,70.43574044108391L116.57977163461538,169.54937392473227L116.66224759615385,101.59958267211915L116.68286658653845,-18.721573412418405L116.84781850961538,147.49969580769542L117.07462740384615,21.839964777231195L117.23957932692308,72.12506273388863L117.32205528846154,124.83099514245991L117.36329326923077,92.95753204822542L117.48700721153845,114.33425062894825L117.65195913461538,30.082301437854746L117.672578125,218.37830507755288L117.85814903846155,5.089562773704509L118.14681490384615,-17.44185572862629L118.29114783653846,74.87505787611008L118.744765625,127.50292012095456L118.88909855769231,5.687749028205852L119.0128125,103.70431208610536L119.09528846153846,66.15348646044731L119.11590745192308,32.887156695127466L119.67262019230769,9.203148275613765L119.73447716346153,23.38000425696371L119.79633413461538,137.64162325859073L119.87881009615384,187.2666854560376L120.2087139423077,87.42233106493951L120.24995192307694,-5.258558303117791L120.29118990384615,114.13142645359044L120.31180889423077,115.68214783072476L120.33242788461538,-1.515806078910867L120.49737980769231,58.42493587732315L121.2809014423077,102.48960891366006L121.54894831730769,-21.51798865199093L121.85823317307691,133.70725625753406L122.24999399038462,109.38154274225239L122.33246995192307,55.41910269856453L122.47680288461538,98.63740020990373L122.55927884615384,36.882054448127725L122.66237379807691,146.07662969827655L123.3015625,-29.340302556753198L123.52837139423077,87.3484809100628L124.18817908653847,179.19196227192887L124.68303485576922,184.8951723575593L124.97170072115385,87.35322842001916L125.07479567307692,151.56923496723178L125.34284254807692,73.32802900671959L125.36346153846154,38.32503372430799L125.52841346153846,0.8292000889777941L125.5696514423077,33.94611516594885L125.67274639423077,-21.912163853645364L126.43564903846153,113.37986925244336L126.518125,105.22035026550294L126.60060096153846,189.99914118647584L126.82740985576923,57.47477450966835L126.84802884615385,130.42580375075343L126.88926682692308,55.703557670116425L126.9098858173077,92.49214419722558L127.56969350961539,129.85293754935267L127.79650240384616,118.67123284935955L127.83774038461539,72.97038325667381L127.94083533653847,154.9146469831467L127.98207331730768,146.2559800744057L128.08516826923076,213.12953719496736L128.20888221153845,181.96450808644303L128.35321514423077,100.80859476327898L128.62126201923078,4.283013582229595L128.930546875,108.25110787153248L129.11611778846154,92.58656689524652L129.17797475961538,114.97292259335522L129.79654447115385,-34.95779371261601L130.27078125,76.47430935502052L130.2914002403846,130.7681519687176L130.35325721153848,126.54629686474804L130.3944951923077,107.92392531037332L130.47697115384616,94.37413626909257L130.60068509615385,126.39701405167584L131.17801682692308,73.05597031116486L131.34296875,69.62892749905586L131.81720552884616,83.2331810295582L132.0027764423077,-125.07159894704827L132.0233954326923,132.506136238575L132.3120612980769,-34.58630105853085L132.45639423076923,89.01459315419199L132.88939302884617,28.428585469722726L133.03372596153847,5.442197263240795L133.0749639423077,154.22164240479472L133.13682091346155,206.15992882847794L133.17805889423076,43.08111557364464L134.10591346153848,219.72066351771363L134.20900841346153,-61.24462446570404L134.22962740384614,110.35834291577343L134.37396033653846,49.79475402832031L134.4564362980769,146.75644674897197L134.49767427884615,98.56922069191934L134.95129206730772,-2.354796588420907L135.40490985576923,40.87365531921387L136.1678125,96.31059283018114L137.17814302884614,28.385857880115488L137.46680889423078,98.69133719801904L137.87918870192308,45.49285063147545L138.62147235576924,83.10829514265062L138.76580528846154,57.63051921129227L138.97199519230767,144.38071364164355L139.21942307692305,202.17861422896394L139.28128004807692,16.69432336091993L139.32251802884616,62.85792329907417L139.34313701923077,119.19464582204823L139.81737379807691,88.55645844340326L139.98232572115387,148.11898210644725L140.8689423076923,16.066597044467905L141.56998798076924,130.9948455691338L141.83803485576925,151.3930495977402L141.85865384615386,103.10757645964624L141.89989182692307,158.8243533074856L143.2607451923077,145.0619813203812L143.36384014423078,254.86324878036984L143.42569711538462,172.2906652987004L143.59064903846155,248.5231470465661L143.941171875,84.16751736402513L144.12674278846154,146.63314336538318L144.27107572115384,139.34386932849887L144.39478966346155,137.19179669022563L144.51850360576924,-71.08291572332391L144.53912259615385,72.37035074830055L145.2607872596154,80.25319540500642L145.4257391826923,-31.296540409326592L145.89997596153844,21.201029062271097L145.94121394230768,144.78688949346545L145.96183293269232,102.05969551205636L146.53916466346155,184.10827258229264L146.621640625,44.03589257597923L146.6628786057692,214.72100803256043L147.07525841346154,173.95387628674513L147.17835336538462,73.19562622904778L147.21959134615383,98.75397795438768L147.26082932692307,30.503247320651987L147.79692307692306,189.07113486528405L148.55982572115383,70.49719431996346L148.68353966346154,16.102071493864038L148.88972956730768,87.0253864824772L148.97220552884616,150.62026047706607L149.0546814903846,8.274086952209453L149.34334735576923,51.65881106257439L149.50829927884615,140.35429769754413L150.08563100961538,218.5573917031289L150.1268689903846,142.70589762926105L150.27120192307692,87.49578559398653L150.43615384615384,-38.65649959445004L150.45677283653845,100.87888428568841L150.51862980769232,108.88476857542996L150.80729567307694,30.65464013814924L151.09596153846155,-16.677638500928918L151.17843749999997,41.04140067100525L151.2196754807692,79.82895264029504L151.48772235576922,43.64105799794197L151.71453125,64.97016960382462L151.7351502403846,-56.98755866289143L151.83824519230768,70.63078397512436L151.87948317307692,111.71916389465336L151.9413401442308,27.033740669488886L152.70424278846156,201.8097590804101L153.0753846153846,105.66622057557107L153.46714543269232,43.62852984666824L153.59085937499998,53.78015676140785L153.79704927884617,-12.71294018626217L154.0857151442308,123.66297581791882L154.45685697115385,187.84298041462907L154.5187139423077,172.32337036728865L154.5393329326923,116.24011212587361L155.21975961538462,58.768734723329544L155.28161658653846,188.6089120209218L155.4671875,42.30964520573616L155.59090144230768,123.0853621065617L155.6939963942308,144.06750985980037L155.96204326923075,75.17863476276398L156.06513822115383,80.5404197573662L156.39504206730768,34.29189214110372L156.49813701923077,136.2558778524399L156.60123197115385,207.4379321336747L156.6837079326923,116.3863618075848L157.01361177884615,133.7089706361294L157.30227764423074,291.4552092701198L157.71465745192307,114.73422834277157L157.96208533653845,146.42926418781283L158.20951322115386,-51.38787066936497L158.93117788461538,239.7343192398549L159.0755108173077,170.86588481068617L159.17860576923076,213.34093326330193L159.21984375,143.77210924029353L159.26108173076923,20.019162833690622L159.38479567307692,202.87346506118783L159.46727163461537,125.4439514279366L159.79717548076923,61.70797088742256L160.023984375,50.32911264896393L160.33326923076922,29.132140070199945L160.51884014423075,190.03672564029702L161.46731370192308,180.42750173807153L161.59102764423076,29.088225603103616L161.69412259615385,131.5778661668301L161.73536057692309,284.49839280545723L161.85907451923077,71.57448345422745L162.0446454326923,65.05074539780617L162.37454927884613,139.76455146074298L163.17868990384613,134.13980716466907L163.21992788461537,171.20730990171438L163.28178485576925,150.3813024759293L163.50859375,118.94447842240338L163.6529266826923,41.217322289943695L164.10654447115385,169.60238778591162L164.4364483173077,165.05968013405806L164.76635216346153,152.3221109211445L164.86944711538462,109.5744762718678L164.91068509615386,61.77127102017403L164.9725420673077,44.47622412443161L165.32306490384613,192.79107266664514L165.52925480769233,174.91577455401426L165.5498737980769,36.08565965294836L165.85915865384615,-88.53647670149812L166.7457752403846,-36.034950971603436L167.22001201923075,98.89231511950494L167.3643449519231,81.58711382746698L167.42620192307692,48.26974833011627L167.5499158653846,193.92098003625878L168.3334375,152.30694526433948L168.601484375,-16.1712374389172L168.62210336538462,181.91123047471055L168.66334134615386,26.256995290517786L168.78705528846152,167.8372372090817L168.8489122596154,90.52535632252695L169.22005408653848,32.42625260353086L169.59119591346152,26.462852597236612L170.0860516826923,39.06946966052053L170.16852764423078,59.149063020944595L170.41595552884615,112.8112230598927L170.6015264423077,52.867843598127365L171.17885817307692,171.5230193138123L171.30257211538463,152.87585520744327L171.83866586538463,156.0531262457371L171.92114182692308,162.2366260886193L171.9623798076923,48.38434794545174L172.2304266826923,75.72288402915001L172.33352163461538,129.5821976065636L172.43661658653846,150.36890619993213L172.5190925480769,178.01550292968759L172.72528245192305,20.289770901203134L172.890234375,-3.9263542592525873L173.5500420673077,155.24552205204967L173.694375,72.94677758216858L173.92118389423078,263.23924103379255L173.94180288461538,57.74630570411682L174.00365985576923,28.298556447029092L174.06551682692307,48.39766734838486L174.51913461538462,23.443172514438608L174.60161057692306,94.76752021908761L174.6428485576923,37.94971668720243L174.89027644230768,191.6396696269513L175.38513221153846,47.21316361427307L175.63256009615387,104.06446346640588L175.79751201923077,154.2554024755955L175.92122596153845,205.65497839450845L176.14803485576925,164.4779782891274L176.31298677884615,131.6072743535042L176.3542247596154,180.3870160281659L176.47793870192308,101.83814504742624L176.60165264423077,27.495040386915186L177.178984375,64.69428652524948L177.3233173076923,112.673017770052L177.36455528846153,147.34764361381534L177.40579326923077,130.25080525875094L177.46765024038461,3.3783491849899097L178.1068389423077,157.45720231533053L178.1274579326923,53.42633539438248L178.23055288461538,187.22514474391946L178.51921875000002,10.187201589345912L178.56045673076923,59.004132091999054L178.58107572115384,-12.324303746223489L180.0037860576923,201.24480539560327L180.5398798076923,133.8479671776295L180.56049879807694,139.52229657769206L180.62235576923078,104.50796002149583L180.64297475961538,-5.761926233768502L181.3234014423077,121.18174248933796L181.3440204326923,112.78010049462323L181.8801141826923,110.78680568933491L182.23063701923078,240.07257932424554L182.3131129807692,96.94530853629114L182.47806490384616,37.81876453757284L182.58115985576922,30.58764749765394L182.60177884615385,10.613422483205776L182.72549278846154,0.30605086684225025L183.13787259615384,72.83178234100342L183.40591947115385,-58.4699686467648L183.52963341346154,149.90325459837916L183.8595372596154,139.3705081343651L184.04510817307693,168.26556810736662L184.08634615384616,175.5101364254952L184.10696514423077,84.8379712700844L185.28224759615384,-21.457985401153604L186.10700721153844,130.85650840401652L186.16886418269232,41.37201198935509L186.18948317307692,137.36178392171863L186.23072115384616,72.87675181031227L186.51938701923078,189.77403008937844L186.6843389423077,127.87269839644436L187.15857572115385,171.8982044756413L187.17919471153846,151.64097511768344L187.55033653846155,-56.51702767610554L188.08643028846154,135.59228146076205L188.25138221153847,77.94432306289673L188.49881009615385,167.52535218000418L188.54004807692309,100.75188839435579L188.93180889423078,-3.4591201543808374L188.95242788461536,2.728072196245174L189.38542668269233,56.75644987821579L189.52975961538462,114.56674674153332L189.69471153846155,125.70242697000508L189.71533052884618,105.23577967286111L190.02461538461537,230.7521622776986L190.29266225961538,60.01482421159744L190.31328125,71.17556074261665L190.82875600961538,172.05104792118078L191.28237379807695,46.388020008802414L191.4060877403846,197.94845098257073L191.46794471153845,44.085345804691315L191.48856370192308,-61.08518725633629L191.57103966346156,283.46205094456684L191.67413461538462,40.34496733546257L191.7772295673077,55.064621955156326L192.76694110576923,108.64040368795399L192.82879807692308,216.03831017017373L193.05560697115385,79.5580808222294L193.24117788461538,133.52592775225642L193.34427283653847,65.67833983898163L193.75665264423077,187.4650258719922L194.04531850961538,70.24003753066063L194.14841346153847,182.36052954196938L194.56079326923077,-16.270012021064797L194.9937920673077,82.80339950323106L195.07626802884613,-38.82068431377415L195.6948377403846,134.9784020483494L195.9628846153846,157.55043813586238L196.3134074519231,44.49943417310715L196.4989783653846,180.36393785476693L196.8701201923077,204.0273737311364L196.99383413461538,173.1052588820458L197.014453125,64.26450499892235L197.17940504807692,76.6661878824234L197.9629266826923,116.23180398344998L198.06602163461537,81.75143042206766L198.31344951923077,184.27008354663857L198.3546875,153.85476538538936L198.37530649038462,171.60108947753912L198.49902043269233,176.49761849641806L199.15882812499999,252.71664896607408L199.24130408653846,29.56126222014425L199.88049278846154,58.621957540512085L200.00420673076923,175.09143242239958L200.27225360576924,88.03845235705377L200.3753485576923,107.7884894013405L200.4990625,132.9750847220421L200.91144230769228,118.61690023541455L201.07639423076924,124.55023267865185L201.11763221153848,121.51525506377224L201.57125,210.8255442380906L201.61248798076923,22.03131580352781L201.8186778846154,240.12256005406388L202.04548677884614,98.04686272144319L202.12796274038462,179.6289969384671L202.31353365384615,59.0265508890152L202.47848557692308,84.11489912867548L202.54034254807692,110.35333165526394L202.7465324519231,52.71829703450203L203.40634014423077,123.58029001951222L203.50943509615385,139.08935004472735L203.65376802884614,164.69979250431066L203.88057692307692,200.3665160536767L204.00429086538463,68.92563664913177L204.14862379807693,64.99192902445793L204.47852764423078,86.61644124984743L204.56100360576923,153.22611594200137L204.95276442307693,65.03755787014961L205.48885817307692,53.32215392589569L205.5713341346154,108.58185106515889L205.7569050480769,253.49847154319295L205.88061899038462,191.2089649736882L205.90123798076925,132.57418388128283L205.98371394230767,99.11215120553972L206.31361778846153,45.53333634138107L206.87033052884615,143.66331213712695L207.200234375,4.491112768650035L207.38580528846154,38.154518991708734L207.53013822115386,7.811336606740932L207.63323317307692,50.36814773082733L208.60232572115385,347.71656507253664L208.6848016826923,85.31259039044382L209.3239903846154,132.3641065657139L209.4889423076923,68.72465872764587L209.50956129807693,139.9704087674618L209.55079927884614,218.96343567967423L210.04565504807692,178.51610147953042L210.10751201923077,108.30372610688214L210.1693689903846,229.36377936601647L210.31370192307693,223.7159568965436L210.37555889423078,49.657999366521835L210.47865384615383,193.59313809871682L210.5611298076923,-55.864376932382626L210.74670072115384,68.54372584819794L210.76731971153845,7.904704302549343L210.84979567307693,91.32781738042833L211.01474759615382,148.55074176192286L211.38588942307692,80.6587118804455L211.40650841346155,164.79949021339422L212.19003004807692,61.24812179803848L212.4374579326923,139.06363436579707L212.47869591346154,78.78568732738496L212.62302884615383,261.719246596098L212.82921875000002,234.46537443995484L212.84983774038463,44.96864640712738L212.93231370192308,86.35242694616319L212.97355168269232,29.570361614227274L213.05602764423077,85.94255858659746L213.11788461538464,67.40814784169197L213.30345552884617,177.17967742681512L213.44778846153847,54.478831976652145L213.5921213942308,96.8826677799225L213.71583533653845,101.10241287946702L213.73645432692308,44.03866195678711L213.86016826923077,102.05336549878122L213.96326322115382,157.47711548209193L214.16945312500002,88.3897680938244L214.37564302884616,-46.64352571964268L214.49935697115384,132.60965833067897L214.80864182692306,138.96644228696826L215.2210216346154,106.49743044376375L215.2828786057692,-10.847036898136178L215.32411658653845,37.57176214456556L215.59216346153846,224.9379132092L215.7571153846154,145.0547281801701L215.88082932692308,180.17654308676728L215.92206730769232,82.26468899846078L216.25197115384617,181.5757397711278L216.27259014423078,273.1808565706015L216.2932091346154,162.22765856981283L216.3344471153846,76.35140159726143L216.91177884615385,124.34305661916737L216.9942548076923,85.46662071347238L217.28292067307692,172.03522288799292L217.46849158653845,172.26811462640768L217.6540625,73.73671048879623L217.86025240384618,156.8960730135441L217.96334735576923,61.48576104640961L218.41696514423077,185.9463501870633L218.5819170673077,34.56091770529745L218.7056310096154,-37.428345143795056L218.9736778846154,227.6624564230443L219.65410456730768,69.09707450866699L219.96338942307693,70.88095137476921L220.02524639423078,198.26877602934846L220.0458653846154,-43.846582978963895L220.10772235576923,36.24443748593328L220.2932932692308,167.71367007493978L220.37576923076924,93.17341187596323L220.4582451923077,37.40836867690084L220.70567307692306,303.16461288928997L220.7262920673077,112.3223614096642L220.870625,190.96143507957467L221.36548076923077,150.46108701825145L221.40671874999998,138.7840587794781L221.71600360576923,42.595287054777145L221.73662259615384,1.6788724958896442L221.86033653846155,129.20991370081904L221.92219350961537,78.33348700404167L222.10776442307693,144.70420369505885L222.43766826923078,-80.71482217311868L222.4995252403846,315.2204528599979L222.64385817307692,60.698070019483566L222.95314302884617,57.46738949418068L223.17995192307694,61.28966251015663L223.44799879807692,141.6429829001427L223.71604567307693,142.65103751420978L224.06656850961537,139.82600533962253L224.2109014423077,76.98809543251991L224.60266225961539,85.34832859039308L224.62328125,167.98612439632421L224.7676141826923,278.27282474935066L224.82947115384616,93.96308103203775L224.891328125,82.44509437680246L225.07689903846156,138.20130193233493L225.09751802884617,36.523617446422556L225.48927884615384,17.410142362117746L225.65423076923076,148.50550854206088L225.7367067307692,110.10184550285344L225.75732572115385,269.5766393244267L225.77794471153845,152.89352649450305L225.90165865384614,140.93098828196528L225.98413461538462,141.8982934355736L226.2521814903846,-54.80080282688145L226.3552764423077,-8.269930243492166L226.37589543269232,85.2900397181511L226.43775240384613,57.67733493447304L226.54084735576922,-118.43365690112122L226.66456129807693,76.58627146482468L228.10789062499998,156.6908750832081L228.6646033653846,-65.89560171961793L229.3037920673077,98.82888311147691L229.38626802884613,95.43691912293436L229.40688701923077,34.58610588312147L229.65431490384614,123.69779089093213L230.252265625,62.554610162973404L230.39659855769233,155.20991572737697L230.70588341346152,157.9848352968693L230.74712139423076,103.06458511948587L231.09764423076922,26.386364936828592L231.2419771634615,96.75857314467432L231.28321514423075,23.57742154598234L231.4481670673077,81.04563394188882L232.35540264423076,238.05739322304734L232.47911658653848,112.36508899927144L232.58221153846154,8.831391870975475L232.9121153846154,9.234402716159801L233.0564483173077,73.13100734353065L233.736875,203.6503423154355L233.86058894230771,91.4301525950432L233.92244591346153,59.61115399003029L233.94306490384614,151.37643331289294L234.5616346153846,157.1097109615803L234.9533954326923,131.47698158025744L235.13896634615386,219.17469987273225L235.3657752403846,113.97792363166813L235.98434495192308,100.07457697391511L236.10805889423077,119.85191220045094L236.12867788461537,166.35627785325056L236.1699158653846,231.68860861659059L236.2523918269231,61.14868783950806L236.93281850961537,26.343637347221353L237.13900841346154,99.92160165309907L237.48953125,144.7151493430138L237.96376802884615,139.5780798196793L238.16995793269228,158.12356808781627L238.2730528846154,6.0915511250495715L238.37614783653848,147.69065120816234L238.62357572115386,135.47095620632174L238.78852764423075,111.66628190875058L239.0978125,149.71889296174052L239.46895432692307,54.335087925195694L239.5308112980769,43.72202941775322L239.59266826923076,168.27651375532156L239.86071514423077,237.02322730422028L240.0669050480769,83.13651645183565L240.10814302884614,109.20232424139981L240.47928485576924,159.70699453353885L241.3865204326923,88.1091375052929L241.59271033653846,81.58368507027627L241.73704326923078,117.35999697446827L241.84013822115386,59.37100911140442L242.1700420673077,114.30787557363514L242.314375,-1.0996077060699856L242.33499399038462,58.58661496639252L242.54118389423078,128.7074688971043L242.582421875,-2.352422833442727L242.70613581730768,8.67116340994833L243.22161057692307,240.01851046085366L243.48965745192308,202.1343041360379L243.73708533653846,155.34099975228312L244.1700841346154,206.60553538799294L244.39689302884616,133.12489503622058" style="fill: none;" fill="none"></path></g></g></g></g></g></g><g transform="translate(61, 177)" clip-path="url(#clip_1)"><clipPath id="clip_1"><rect width="268" height="23"></rect></clipPath><g><g><line x1="0" y1="0" x2="0" y2="5" style="visibility: inherit;" fill="rgb(0, 0, 0)" stroke="rgb(204, 204, 204)" stroke-width="1px"></line><line x1="20.618990384615387" y1="0" x2="20.618990384615387" y2="5" style="visibility: inherit;" fill="rgb(0, 0, 0)" stroke="rgb(204, 204, 204)" stroke-width="1px"></line><line x1="41.237980769230774" y1="0" x2="41.237980769230774" y2="5" style="visibility: inherit;" fill="rgb(0, 0, 0)" stroke="rgb(204, 204, 204)" stroke-width="1px"></line><line x1="61.85697115384616" y1="0" x2="61.85697115384616" y2="5" style="visibility: inherit;" fill="rgb(0, 0, 0)" stroke="rgb(204, 204, 204)" stroke-width="1px"></line><line x1="82.47596153846155" y1="0" x2="82.47596153846155" y2="5" style="visibility: inherit;" fill="rgb(0, 0, 0)" stroke="rgb(204, 204, 204)" stroke-width="1px"></line><line x1="103.09495192307693" y1="0" x2="103.09495192307693" y2="5" style="visibility: inherit;" fill="rgb(0, 0, 0)" stroke="rgb(204, 204, 204)" stroke-width="1px"></line><line x1="123.71394230769232" y1="0" x2="123.71394230769232" y2="5" style="visibility: inherit;" fill="rgb(0, 0, 0)" stroke="rgb(204, 204, 204)" stroke-width="1px"></line><line x1="144.33293269230768" y1="0" x2="144.33293269230768" y2="5" style="visibility: inherit;" fill="rgb(0, 0, 0)" stroke="rgb(204, 204, 204)" stroke-width="1px"></line><line x1="164.9519230769231" y1="0" x2="164.9519230769231" y2="5" style="visibility: inherit;" fill="rgb(0, 0, 0)" stroke="rgb(204, 204, 204)" stroke-width="1px"></line><line x1="185.57091346153845" y1="0" x2="185.57091346153845" y2="5" style="visibility: inherit;" fill="rgb(0, 0, 0)" stroke="rgb(204, 204, 204)" stroke-width="1px"></line><line x1="206.18990384615387" y1="0" x2="206.18990384615387" y2="5" style="visibility: inherit;" fill="rgb(0, 0, 0)" stroke="rgb(204, 204, 204)" stroke-width="1px"></line><line x1="226.80889423076923" y1="0" x2="226.80889423076923" y2="5" style="visibility: inherit;" fill="rgb(0, 0, 0)" stroke="rgb(204, 204, 204)" stroke-width="1px"></line><line x1="247.42788461538464" y1="0" x2="247.42788461538464" y2="5" style="visibility: inherit;" fill="rgb(0, 0, 0)" stroke="rgb(204, 204, 204)" stroke-width="1px"></line><line x1="268.046875" y1="0" x2="268.046875" y2="5" style="visibility: inherit;" fill="rgb(0, 0, 0)" stroke="rgb(204, 204, 204)" stroke-width="1px"></line></g><g transform="translate(0, 8)"><text x="0" y="0" dx="0em" dy="0.95em" style="text-anchor: middle; visibility: hidden; font-family: Roboto, sans-serif; font-size: 12px; font-weight: 200;" fill="rgb(255, 255, 255)" stroke="none" stroke-width="1px">-1k</text><text x="20.618990384615387" y="0" dx="0em" dy="0.95em" style="text-anchor: middle; visibility: inherit; font-family: Roboto, sans-serif; font-size: 12px; font-weight: 200;" fill="rgb(255, 255, 255)" stroke="none" stroke-width="1px">0</text><text x="41.237980769230774" y="0" dx="0em" dy="0.95em" style="text-anchor: middle; visibility: hidden; font-family: Roboto, sans-serif; font-size: 12px; font-weight: 200;" fill="rgb(255, 255, 255)" stroke="none" stroke-width="1px">1k</text><text x="61.85697115384616" y="0" dx="0em" dy="0.95em" style="text-anchor: middle; visibility: inherit; font-family: Roboto, sans-serif; font-size: 12px; font-weight: 200;" fill="rgb(255, 255, 255)" stroke="none" stroke-width="1px">2k</text><text x="82.47596153846155" y="0" dx="0em" dy="0.95em" style="text-anchor: middle; visibility: hidden; font-family: Roboto, sans-serif; font-size: 12px; font-weight: 200;" fill="rgb(255, 255, 255)" stroke="none" stroke-width="1px">3k</text><text x="103.09495192307693" y="0" dx="0em" dy="0.95em" style="text-anchor: middle; visibility: inherit; font-family: Roboto, sans-serif; font-size: 12px; font-weight: 200;" fill="rgb(255, 255, 255)" stroke="none" stroke-width="1px">4k</text><text x="123.71394230769232" y="0" dx="0em" dy="0.95em" style="text-anchor: middle; visibility: hidden; font-family: Roboto, sans-serif; font-size: 12px; font-weight: 200;" fill="rgb(255, 255, 255)" stroke="none" stroke-width="1px">5k</text><text x="144.33293269230768" y="0" dx="0em" dy="0.95em" style="text-anchor: middle; visibility: inherit; font-family: Roboto, sans-serif; font-size: 12px; font-weight: 200;" fill="rgb(255, 255, 255)" stroke="none" stroke-width="1px">6k</text><text x="164.9519230769231" y="0" dx="0em" dy="0.95em" style="text-anchor: middle; visibility: hidden; font-family: Roboto, sans-serif; font-size: 12px; font-weight: 200;" fill="rgb(255, 255, 255)" stroke="none" stroke-width="1px">7k</text><text x="185.57091346153845" y="0" dx="0em" dy="0.95em" style="text-anchor: middle; visibility: inherit; font-family: Roboto, sans-serif; font-size: 12px; font-weight: 200;" fill="rgb(255, 255, 255)" stroke="none" stroke-width="1px">8k</text><text x="206.18990384615387" y="0" dx="0em" dy="0.95em" style="text-anchor: middle; visibility: hidden; font-family: Roboto, sans-serif; font-size: 12px; font-weight: 200;" fill="rgb(255, 255, 255)" stroke="none" stroke-width="1px">9k</text><text x="226.80889423076923" y="0" dx="0em" dy="0.95em" style="text-anchor: middle; visibility: inherit; font-family: Roboto, sans-serif; font-size: 12px; font-weight: 200;" fill="rgb(255, 255, 255)" stroke="none" stroke-width="1px">10k</text><text x="247.42788461538464" y="0" dx="0em" dy="0.95em" style="text-anchor: middle; visibility: hidden; font-family: Roboto, sans-serif; font-size: 12px; font-weight: 200;" fill="rgb(255, 255, 255)" stroke="none" stroke-width="1px">11k</text><text x="268.046875" y="0" dx="0em" dy="0.95em" style="text-anchor: middle; visibility: hidden; font-family: Roboto, sans-serif; font-size: 12px; font-weight: 200;" fill="rgb(255, 255, 255)" stroke="none" stroke-width="1px">12k</text></g><line x1="0" y1="0" x2="268.046875" y2="0" fill="rgb(0, 0, 0)" stroke="rgb(204, 204, 204)" stroke-width="1px"></line></g></g></g></g></svg>